*
*
G04 PowerPCB (Build Number 501.037) generated Gerber (RS-274-X) file*
G04 PC Version=2.1*
*
%IN "FLEX-900 Rev 1 .0.pcb"*%
*
%MOIN*%
*
%FSLAX35Y35*%
*
*
*
*
G04 PC Standard Apertures*
*
*
G04 Thermal Relief Aperture macro.*
%AMTER*
1,1,$1,0,0*
1,0,$1-$2,0,0*
21,0,$3,$4,0,0,45*
21,0,$3,$4,0,0,135*
%
*
*
G04 Annular Aperture macro.*
%AMANN*
1,1,$1,0,0*
1,0,$2,0,0*
%
*
*
G04 Odd Aperture macro.*
%AMODD*
1,1,$1,0,0*
1,0,$1-0.005,0,0*
%
*
*
G04 PC Custom Aperture Macros*
*
*
*
*
*
*
G04 PC Aperture Table*
*
%ADD010C,0.01*%
%ADD055C,0.07*%
%ADD063C,0.135*%
%ADD064R,0.04X0.04*%
%ADD068C,0.103*%
%ADD069C,0.108*%
%ADD072C,0.065*%
%ADD076R,0.07X0.07*%
%ADD080R,0.034X0.034*%
*
*
*
*
G04 PC Custom Flashes*
G04 Layer Name FLEX-900 Rev 1 .0.pcb - flashes*
%LPD*%
*
*
G04 PC Circuitry*
G04 Layer Name FLEX-900 Rev 1 .0.pcb - circuitry*
%LPD*%
*
G54D10*
G01X1862500Y1349953D02*
Y1909953D01*
X2137500*
Y1349953*
X1862500*
X1926113Y1295671D02*
X1925659Y1296296D01*
X1925659D02*
X1924977Y1296609D01*
X1924068*
X1923386Y1296296*
X1923386D02*
X1922931Y1295671D01*
X1922931D02*
Y1295046D01*
X1922931D02*
X1923159Y1294421D01*
X1923159D02*
X1923386Y1294109D01*
X1923840Y1293796*
X1923840D02*
X1925204Y1293171D01*
X1925204D02*
X1925659Y1292859D01*
X1925886Y1292546*
X1925886D02*
X1926113Y1291921D01*
X1926113D02*
Y1290984D01*
X1926113D02*
X1925659Y1290359D01*
X1924977Y1290046*
X1924977D02*
X1924068D01*
X1924068D02*
X1923386Y1290359D01*
X1922931Y1290984*
X1929522Y1296609D02*
X1929068Y1296296D01*
X1929068D02*
X1928613Y1295671D01*
X1928613D02*
X1928386Y1295046D01*
X1928386D02*
X1928159Y1294109D01*
Y1292546*
X1928159D02*
X1928386Y1291609D01*
X1928613Y1290984*
X1928613D02*
X1929068Y1290359D01*
X1929522Y1290046*
X1929522D02*
X1930431D01*
X1930431D02*
X1930886Y1290359D01*
X1931340Y1290984*
X1931340D02*
X1931568Y1291609D01*
X1931795Y1292546*
X1931795D02*
Y1294109D01*
X1931568Y1295046*
X1931568D02*
X1931340Y1295671D01*
X1931340D02*
X1930886Y1296296D01*
X1930886D02*
X1930431Y1296609D01*
X1930431D02*
X1929522D01*
X1933840D02*
Y1290046D01*
X1933840D02*
X1936568D01*
X1938613Y1296609D02*
Y1290046D01*
Y1296609D02*
X1940204D01*
X1940204D02*
X1940886Y1296296D01*
X1940886D02*
X1941340Y1295671D01*
X1941340D02*
X1941568Y1295046D01*
X1941568D02*
X1941795Y1294109D01*
Y1292546*
X1941795D02*
X1941568Y1291609D01*
X1941340Y1290984*
X1941340D02*
X1940886Y1290359D01*
X1940204Y1290046*
X1940204D02*
X1938613D01*
X1943840Y1296609D02*
Y1290046D01*
Y1296609D02*
X1946795D01*
X1943840Y1293484D02*
X1945659D01*
X1943840Y1290046D02*
X1946795D01*
X1948840Y1296609D02*
Y1290046D01*
Y1296609D02*
X1950886D01*
X1951568Y1296296*
X1951568D02*
X1951795Y1295984D01*
X1952022Y1295359*
X1952022D02*
Y1294734D01*
X1952022D02*
X1951795Y1294109D01*
X1951568Y1293796*
X1951568D02*
X1950886Y1293484D01*
X1948840*
X1950431D02*
X1952022Y1290046D01*
X1961340Y1295671D02*
X1960886Y1296296D01*
X1960886D02*
X1960204Y1296609D01*
X1960204D02*
X1959295D01*
X1958613Y1296296*
X1958613D02*
X1958159Y1295671D01*
X1958159D02*
Y1295046D01*
X1958159D02*
X1958386Y1294421D01*
X1958386D02*
X1958613Y1294109D01*
X1958613D02*
X1959068Y1293796D01*
X1959068D02*
X1960431Y1293171D01*
X1960431D02*
X1960886Y1292859D01*
X1961113Y1292546*
X1961113D02*
X1961340Y1291921D01*
X1961340D02*
Y1290984D01*
X1961340D02*
X1960886Y1290359D01*
X1960204Y1290046*
X1960204D02*
X1959295D01*
X1959295D02*
X1958613Y1290359D01*
X1958613D02*
X1958159Y1290984D01*
X1963386Y1296609D02*
Y1290046D01*
X1965431Y1296609D02*
Y1290046D01*
Y1296609D02*
X1967022D01*
X1967022D02*
X1967704Y1296296D01*
X1967704D02*
X1968159Y1295671D01*
X1968159D02*
X1968386Y1295046D01*
X1968386D02*
X1968613Y1294109D01*
X1968613D02*
Y1292546D01*
X1968613D02*
X1968386Y1291609D01*
X1968159Y1290984*
X1967704Y1290359*
X1967704D02*
X1967022Y1290046D01*
X1967022D02*
X1965431D01*
X1970659Y1296609D02*
Y1290046D01*
Y1296609D02*
X1973613D01*
X1970659Y1293484D02*
X1972477D01*
X1970659Y1290046D02*
X1973613D01*
X1979750Y1296609D02*
Y1290046D01*
Y1296609D02*
X1981568Y1290046D01*
X1983386Y1296609D02*
X1981568Y1290046D01*
X1983386Y1296609D02*
Y1290046D01*
X1987250Y1296609D02*
X1985431Y1290046D01*
X1987250Y1296609D02*
X1989068Y1290046D01*
X1986113Y1292234D02*
X1988386D01*
X1994295Y1295671D02*
X1993840Y1296296D01*
X1993840D02*
X1993159Y1296609D01*
X1992250*
X1991568Y1296296*
X1991568D02*
X1991113Y1295671D01*
X1991113D02*
Y1295046D01*
X1991113D02*
X1991340Y1294421D01*
X1991340D02*
X1991568Y1294109D01*
X1992022Y1293796*
X1992022D02*
X1993386Y1293171D01*
X1993386D02*
X1993840Y1292859D01*
X1993840D02*
X1994068Y1292546D01*
X1994068D02*
X1994295Y1291921D01*
X1994295D02*
Y1290984D01*
X1993840Y1290359*
X1993840D02*
X1993159Y1290046D01*
X1993159D02*
X1992250D01*
X1992250D02*
X1991568Y1290359D01*
X1991113Y1290984*
X1996340Y1296609D02*
Y1290046D01*
X1999522Y1296609D02*
X1996340Y1292234D01*
X1997477Y1293796D02*
X1999522Y1290046D01*
X1996000Y1847953D02*
X2004000D01*
Y1839953*
X1996000*
Y1847953*
X2049600Y1397453D02*
X2058600D01*
Y1388453*
X2049600*
Y1397453*
X1996000Y1847151D02*
X2004000D01*
X1996000Y1846251D02*
X2004000D01*
X1996000Y1845351D02*
X2004000D01*
X1996000Y1844451D02*
X2004000D01*
X1996000Y1843551D02*
X2004000D01*
X1996000Y1842651D02*
X2004000D01*
X1996000Y1841751D02*
X2004000D01*
X1996000Y1840851D02*
X2004000D01*
X2049600Y1397451D02*
X2058600D01*
X2049600Y1396551D02*
X2058600D01*
X2049600Y1395651D02*
X2058600D01*
X2049600Y1394751D02*
X2058600D01*
X2049600Y1393851D02*
X2058600D01*
X2049600Y1392951D02*
X2058600D01*
X2049600Y1392051D02*
X2058600D01*
X2049600Y1391151D02*
X2058600D01*
X2049600Y1390251D02*
X2058600D01*
X2049600Y1389351D02*
X2058600D01*
G54D55*
X1886500Y1519953D03*
X1876500Y1509953D03*
X1886500D03*
X1876500Y1499953D03*
X1886500D03*
X1876500Y1489953D03*
X1886500D03*
X1876500Y1479953D03*
X1886500D03*
X1876500Y1469953D03*
X1886500D03*
X1876500Y1459953D03*
X1886500D03*
X1876500Y1449953D03*
X1886500D03*
Y1813453D03*
X1876500Y1803453D03*
X1886500D03*
X1876500Y1793453D03*
X1886500D03*
X1876500Y1783453D03*
X1886500D03*
X1876500Y1773453D03*
X1886500D03*
X1876500Y1763453D03*
X1886500D03*
X1876500Y1753453D03*
X1886500D03*
X1876500Y1743453D03*
X1886500D03*
X1971100Y1822553D03*
X2089500Y1376953D03*
G54D63*
X1917500Y1714953D03*
X1877500Y1894953D03*
X2122663Y1894882D03*
X2122500Y1674953D03*
Y1584953D03*
Y1364953D03*
X1877500D03*
X1917500Y1544953D03*
G54D64*
X1987300Y1858053D02*
Y1858853D01*
Y1864253D02*
Y1865053D01*
X2042100Y1377253D02*
Y1376453D01*
Y1371053D02*
Y1370253D01*
X2049100Y1408653D02*
X2048300D01*
X2042900D02*
X2042100D01*
X2040500Y1464453D02*
Y1463653D01*
Y1458253D02*
Y1457453D01*
X2059500Y1447953D02*
X2060300D01*
X2065700D02*
X2066500D01*
X2062000Y1475453D02*
Y1474653D01*
Y1469253D02*
Y1468453D01*
X1996500Y1827953D02*
Y1827153D01*
Y1821753D02*
Y1820953D01*
X2019000Y1828453D02*
X2018200D01*
X2012800D02*
X2012000D01*
X2021500Y1447953D02*
Y1448753D01*
Y1454153D02*
Y1454953D01*
X2010000Y1792253D02*
Y1791453D01*
Y1786053D02*
Y1785253D01*
X2022500Y1792253D02*
Y1791453D01*
Y1786053D02*
Y1785253D01*
X2011500Y1738953D02*
Y1738153D01*
Y1732753D02*
Y1731953D01*
X2017500Y1738953D02*
Y1738153D01*
Y1732753D02*
Y1731953D01*
X2005000Y1738953D02*
Y1738153D01*
Y1732753D02*
Y1731953D01*
X2016000Y1792253D02*
Y1791453D01*
Y1786053D02*
Y1785253D01*
X2007000Y1466953D02*
Y1467753D01*
Y1473153D02*
Y1473953D01*
X2019000Y1466953D02*
Y1467753D01*
Y1473153D02*
Y1473953D01*
X2014500Y1522453D02*
Y1523253D01*
Y1528653D02*
Y1529453D01*
X2023000Y1521953D02*
Y1522753D01*
Y1528153D02*
Y1528953D01*
X2009000Y1522453D02*
Y1523253D01*
Y1528653D02*
Y1529453D01*
X2013000Y1466953D02*
Y1467753D01*
Y1473153D02*
Y1473953D01*
X2055900Y1408553D02*
X2056700D01*
X2062100D02*
X2062900D01*
X2046000Y1470953D02*
X2045200D01*
X2039800D02*
X2039000D01*
X2062000Y1454953D02*
Y1455753D01*
Y1461153D02*
Y1461953D01*
X2040500Y1450953D02*
Y1450153D01*
Y1444753D02*
Y1443953D01*
G54D68*
X2102900Y1721853D03*
X2069200Y1618453D03*
G54D69*
X2112900Y1731853D03*
X2092900D03*
Y1711853D03*
X2112900D03*
X2059200Y1608453D03*
X2079200D03*
Y1628453D03*
X2059200D03*
G54D72*
X1950807Y1496938D03*
X2086240D03*
X1950807Y1762941D03*
X2086240D03*
G54D76*
X2065081Y1375145D03*
X2051581D03*
X1978100Y1867103D03*
Y1853603D03*
X1876500Y1519953D03*
Y1813453D03*
X1981100Y1822553D03*
X2079500Y1376953D03*
G54D80*
X1957500Y1492956D02*
Y1486156D01*
Y1507720D02*
Y1500920D01*
X1961437Y1492956D02*
Y1486156D01*
Y1507720D02*
Y1500920D01*
X1965374Y1492956D02*
Y1486156D01*
Y1507720D02*
Y1500920D01*
X1969311Y1492956D02*
Y1486156D01*
Y1507720D02*
Y1500920D01*
X1973248Y1492956D02*
Y1486156D01*
Y1507720D02*
Y1500920D01*
X1977185Y1492956D02*
Y1486156D01*
Y1507720D02*
Y1500920D01*
X1981122Y1492956D02*
Y1486156D01*
Y1507720D02*
Y1500920D01*
X1985059Y1492956D02*
Y1486156D01*
Y1507720D02*
Y1500920D01*
X1988996Y1492956D02*
Y1486156D01*
Y1507720D02*
Y1500920D01*
X1992933Y1492956D02*
Y1486156D01*
Y1507720D02*
Y1500920D01*
X1996870Y1492956D02*
Y1486156D01*
Y1507720D02*
Y1500920D01*
X2000807Y1492956D02*
Y1486156D01*
Y1507720D02*
Y1500920D01*
X2004744Y1492956D02*
Y1486156D01*
Y1507720D02*
Y1500920D01*
X2008681Y1492956D02*
Y1486156D01*
Y1507720D02*
Y1500920D01*
X2012618Y1492956D02*
Y1486156D01*
Y1507720D02*
Y1500920D01*
X2016555Y1492956D02*
Y1486156D01*
Y1507720D02*
Y1500920D01*
X2020492Y1492956D02*
Y1486156D01*
Y1507720D02*
Y1500920D01*
X2024429Y1492956D02*
Y1486156D01*
Y1507720D02*
Y1500920D01*
X2028366Y1492956D02*
Y1486156D01*
Y1507720D02*
Y1500920D01*
X2032303Y1492956D02*
Y1486156D01*
Y1507720D02*
Y1500920D01*
X2036240Y1492956D02*
Y1486156D01*
Y1507720D02*
Y1500920D01*
X2040177Y1492956D02*
Y1486156D01*
Y1507720D02*
Y1500920D01*
X2044114Y1492956D02*
Y1486156D01*
Y1507720D02*
Y1500920D01*
X2048051Y1492956D02*
Y1486156D01*
Y1507720D02*
Y1500920D01*
X2051988Y1492956D02*
Y1486156D01*
Y1507720D02*
Y1500920D01*
X2055925Y1492956D02*
Y1486156D01*
Y1507720D02*
Y1500920D01*
X2059862Y1492956D02*
Y1486156D01*
Y1507720D02*
Y1500920D01*
X2063799Y1492956D02*
Y1486156D01*
Y1507720D02*
Y1500920D01*
X2067736Y1492956D02*
Y1486156D01*
Y1507720D02*
Y1500920D01*
X2071673Y1492956D02*
Y1486156D01*
Y1507720D02*
Y1500920D01*
X2075610Y1492956D02*
Y1486156D01*
Y1507720D02*
Y1500920D01*
X2079547Y1492956D02*
Y1486156D01*
Y1507720D02*
Y1500920D01*
X1957500Y1758959D02*
Y1752159D01*
Y1773723D02*
Y1766923D01*
X1961437Y1758959D02*
Y1752159D01*
Y1773723D02*
Y1766923D01*
X1965374Y1758959D02*
Y1752159D01*
Y1773723D02*
Y1766923D01*
X1969311Y1758959D02*
Y1752159D01*
Y1773723D02*
Y1766923D01*
X1973248Y1758959D02*
Y1752159D01*
Y1773723D02*
Y1766923D01*
X1977185Y1758959D02*
Y1752159D01*
Y1773723D02*
Y1766923D01*
X1981122Y1758959D02*
Y1752159D01*
Y1773723D02*
Y1766923D01*
X1985059Y1758959D02*
Y1752159D01*
Y1773723D02*
Y1766923D01*
X1988996Y1758959D02*
Y1752159D01*
Y1773723D02*
Y1766923D01*
X1992933Y1758959D02*
Y1752159D01*
Y1773723D02*
Y1766923D01*
X1996870Y1758959D02*
Y1752159D01*
Y1773723D02*
Y1766923D01*
X2000807Y1758959D02*
Y1752159D01*
Y1773723D02*
Y1766923D01*
X2004744Y1758959D02*
Y1752159D01*
Y1773723D02*
Y1766923D01*
X2008681Y1758959D02*
Y1752159D01*
Y1773723D02*
Y1766923D01*
X2012618Y1758959D02*
Y1752159D01*
Y1773723D02*
Y1766923D01*
X2016555Y1758959D02*
Y1752159D01*
Y1773723D02*
Y1766923D01*
X2020492Y1758959D02*
Y1752159D01*
Y1773723D02*
Y1766923D01*
X2024429Y1758959D02*
Y1752159D01*
Y1773723D02*
Y1766923D01*
X2028366Y1758959D02*
Y1752159D01*
Y1773723D02*
Y1766923D01*
X2032303Y1758959D02*
Y1752159D01*
Y1773723D02*
Y1766923D01*
X2036240Y1758959D02*
Y1752159D01*
Y1773723D02*
Y1766923D01*
X2040177Y1758959D02*
Y1752159D01*
Y1773723D02*
Y1766923D01*
X2044114Y1758959D02*
Y1752159D01*
Y1773723D02*
Y1766923D01*
X2048051Y1758959D02*
Y1752159D01*
Y1773723D02*
Y1766923D01*
X2051988Y1758959D02*
Y1752159D01*
Y1773723D02*
Y1766923D01*
X2055925Y1758959D02*
Y1752159D01*
Y1773723D02*
Y1766923D01*
X2059862Y1758959D02*
Y1752159D01*
Y1773723D02*
Y1766923D01*
X2063799Y1758959D02*
Y1752159D01*
Y1773723D02*
Y1766923D01*
X2067736Y1758959D02*
Y1752159D01*
Y1773723D02*
Y1766923D01*
X2071673Y1758959D02*
Y1752159D01*
Y1773723D02*
Y1766923D01*
X2075610Y1758959D02*
Y1752159D01*
Y1773723D02*
Y1766923D01*
X2079547Y1758959D02*
Y1752159D01*
Y1773723D02*
Y1766923D01*
X0Y0D02*
M02*
