*
*
G04 PowerPCB (Build Number 501.037) generated Gerber (RS-274-X) file*
G04 PC Version=2.1*
*
%IN "FLEX-900 Rev 1 .0.pcb"*%
*
%MOIN*%
*
%FSLAX35Y35*%
*
*
*
*
G04 PC Standard Apertures*
*
*
G04 Thermal Relief Aperture macro.*
%AMTER*
1,1,$1,0,0*
1,0,$1-$2,0,0*
21,0,$3,$4,0,0,45*
21,0,$3,$4,0,0,135*
%
*
*
G04 Annular Aperture macro.*
%AMANN*
1,1,$1,0,0*
1,0,$2,0,0*
%
*
*
G04 Odd Aperture macro.*
%AMODD*
1,1,$1,0,0*
1,0,$1-0.005,0,0*
%
*
*
G04 PC Custom Aperture Macros*
*
*
*
*
*
*
G04 PC Aperture Table*
*
%ADD010C,0.01*%
%ADD047C,0.00984*%
%ADD049C,0.035*%
%ADD051C,0.025*%
%ADD055C,0.07*%
%ADD063C,0.135*%
%ADD064R,0.04X0.04*%
%ADD065C,0.023*%
%ADD066R,0.12024X0.12024*%
%ADD067C,0.03362*%
%ADD068C,0.103*%
%ADD069C,0.108*%
%ADD070R,0.026X0.026*%
%ADD071R,0.02575X0.02575*%
%ADD072C,0.065*%
%ADD073R,0.02614X0.02614*%
%ADD074R,0.02181X0.02181*%
%ADD075R,0.09268X0.09268*%
%ADD076R,0.07X0.07*%
%ADD077R,0.082X0.082*%
%ADD078R,0.044X0.044*%
%ADD079R,0.03559X0.03559*%
*
*
*
*
G04 PC Custom Flashes*
G04 Layer Name FLEX-900 Rev 1 .0.pcb - flashes*
%LPD*%
*
*
G04 PC Circuitry*
G04 Layer Name FLEX-900 Rev 1 .0.pcb - circuitry*
%LPD*%
*
G54D10*
G01X1862500Y1349953D02*
Y1909953D01*
X2137500*
Y1349953*
X1862500*
X2051500Y1721953D02*
X2058800D01*
Y1723603*
X2069300*
Y1716903*
X2058800*
Y1718553*
X2051500*
Y1721953*
X2058800Y1716903D02*
X2069300D01*
X2058800Y1717903D02*
X2069300D01*
X2051500Y1718903D02*
X2069300D01*
X2051500Y1719903D02*
X2069300D01*
X2051500Y1720903D02*
X2069300D01*
X2051500Y1721903D02*
X2069300D01*
X2058800Y1722903D02*
X2069300D01*
X2051500Y1718553D02*
Y1721953D01*
X2052500Y1718553D02*
Y1721953D01*
X2053500Y1718553D02*
Y1721953D01*
X2054500Y1718553D02*
Y1721953D01*
X2055500Y1718553D02*
Y1721953D01*
X2056500Y1718553D02*
Y1721953D01*
X2057500Y1718553D02*
Y1721953D01*
X2058500Y1718553D02*
Y1721953D01*
X2059500Y1716903D02*
Y1723603D01*
X2060500Y1716903D02*
Y1723603D01*
X2061500Y1716903D02*
Y1723603D01*
X2062500Y1716903D02*
Y1723603D01*
X2063500Y1716903D02*
Y1723603D01*
X2064500Y1716903D02*
Y1723603D01*
X2065500Y1716903D02*
Y1723603D01*
X2066500Y1716903D02*
Y1723603D01*
X2067500Y1716903D02*
Y1723603D01*
X2068500Y1716903D02*
Y1723603D01*
X1926340Y1295046D02*
X1926113Y1295671D01*
X1926113D02*
X1925659Y1296296D01*
X1925659D02*
X1925204Y1296609D01*
X1925204D02*
X1924295D01*
X1923840Y1296296*
X1923840D02*
X1923386Y1295671D01*
X1923386D02*
X1923159Y1295046D01*
X1923159D02*
X1922931Y1294109D01*
X1922931D02*
Y1292546D01*
X1922931D02*
X1923159Y1291609D01*
X1923386Y1290984*
X1923840Y1290359*
X1923840D02*
X1924295Y1290046D01*
X1924295D02*
X1925204D01*
X1925204D02*
X1925659Y1290359D01*
X1926113Y1290984*
X1926113D02*
X1926340Y1291609D01*
X1929750Y1296609D02*
X1929295Y1296296D01*
X1929295D02*
X1928840Y1295671D01*
X1928840D02*
X1928613Y1295046D01*
X1928613D02*
X1928386Y1294109D01*
Y1292546*
X1928386D02*
X1928613Y1291609D01*
X1928613D02*
X1928840Y1290984D01*
X1928840D02*
X1929295Y1290359D01*
X1929750Y1290046*
X1929750D02*
X1930659D01*
X1930659D02*
X1931113Y1290359D01*
X1931113D02*
X1931568Y1290984D01*
X1931795Y1291609*
X1932022Y1292546*
X1932022D02*
Y1294109D01*
X1932022D02*
X1931795Y1295046D01*
X1931795D02*
X1931568Y1295671D01*
X1931568D02*
X1931113Y1296296D01*
X1931113D02*
X1930659Y1296609D01*
X1929750*
X1934068D02*
Y1290046D01*
Y1296609D02*
X1935886Y1290046D01*
X1937704Y1296609D02*
X1935886Y1290046D01*
X1937704Y1296609D02*
Y1290046D01*
X1939750Y1296609D02*
Y1290046D01*
Y1296609D02*
X1941795D01*
X1942477Y1296296*
X1942477D02*
X1942704Y1295984D01*
X1942704D02*
X1942931Y1295359D01*
X1942931D02*
Y1294421D01*
X1942931D02*
X1942704Y1293796D01*
X1942704D02*
X1942477Y1293484D01*
X1941795Y1293171*
X1941795D02*
X1939750D01*
X1946340Y1296609D02*
X1945886Y1296296D01*
X1945886D02*
X1945431Y1295671D01*
X1945431D02*
X1945204Y1295046D01*
X1945204D02*
X1944977Y1294109D01*
Y1292546*
X1944977D02*
X1945204Y1291609D01*
X1945204D02*
X1945431Y1290984D01*
X1945431D02*
X1945886Y1290359D01*
X1946340Y1290046*
X1946340D02*
X1947250D01*
X1947250D02*
X1947704Y1290359D01*
X1947704D02*
X1948159Y1290984D01*
X1948386Y1291609*
X1948613Y1292546*
X1948613D02*
Y1294109D01*
X1948613D02*
X1948386Y1295046D01*
X1948386D02*
X1948159Y1295671D01*
X1948159D02*
X1947704Y1296296D01*
X1947704D02*
X1947250Y1296609D01*
X1946340*
X1950659D02*
Y1290046D01*
Y1296609D02*
X1953840Y1290046D01*
Y1296609D02*
Y1290046D01*
X1955886Y1296609D02*
Y1290046D01*
Y1296609D02*
X1958840D01*
X1955886Y1293484D02*
X1957704D01*
X1955886Y1290046D02*
X1958840D01*
X1960886Y1296609D02*
Y1290046D01*
Y1296609D02*
X1964068Y1290046D01*
Y1296609D02*
Y1290046D01*
X1967704Y1296609D02*
Y1290046D01*
X1966113Y1296609D02*
X1969295D01*
X1978613Y1295671D02*
X1978159Y1296296D01*
X1978159D02*
X1977477Y1296609D01*
X1976568*
X1975886Y1296296*
X1975886D02*
X1975431Y1295671D01*
X1975431D02*
Y1295046D01*
X1975431D02*
X1975659Y1294421D01*
X1975659D02*
X1975886Y1294109D01*
X1976340Y1293796*
X1976340D02*
X1977704Y1293171D01*
X1977704D02*
X1978159Y1292859D01*
X1978386Y1292546*
X1978386D02*
X1978613Y1291921D01*
X1978613D02*
Y1290984D01*
X1978613D02*
X1978159Y1290359D01*
X1977477Y1290046*
X1977477D02*
X1976568D01*
X1976568D02*
X1975886Y1290359D01*
X1975431Y1290984*
X1980659Y1296609D02*
Y1290046D01*
X1982704Y1296609D02*
Y1290046D01*
Y1296609D02*
X1984295D01*
X1984977Y1296296*
X1984977D02*
X1985431Y1295671D01*
X1985431D02*
X1985659Y1295046D01*
X1985659D02*
X1985886Y1294109D01*
Y1292546*
X1985886D02*
X1985659Y1291609D01*
X1985431Y1290984*
X1985431D02*
X1984977Y1290359D01*
X1984295Y1290046*
X1984295D02*
X1982704D01*
X1987931Y1296609D02*
Y1290046D01*
Y1296609D02*
X1990886D01*
X1987931Y1293484D02*
X1989750D01*
X1987931Y1290046D02*
X1990886D01*
X1997022Y1296609D02*
Y1290046D01*
Y1296609D02*
X1998840Y1290046D01*
X2000659Y1296609D02*
X1998840Y1290046D01*
X2000659Y1296609D02*
Y1290046D01*
X2004522Y1296609D02*
X2002704Y1290046D01*
X2004522Y1296609D02*
X2006340Y1290046D01*
X2003386Y1292234D02*
X2005659D01*
X2011568Y1295671D02*
X2011113Y1296296D01*
X2011113D02*
X2010431Y1296609D01*
X2010431D02*
X2009522D01*
X2009522D02*
X2008840Y1296296D01*
X2008840D02*
X2008386Y1295671D01*
X2008386D02*
Y1295046D01*
X2008386D02*
X2008613Y1294421D01*
X2008613D02*
X2008840Y1294109D01*
X2008840D02*
X2009295Y1293796D01*
X2009295D02*
X2010659Y1293171D01*
X2010659D02*
X2011113Y1292859D01*
X2011113D02*
X2011340Y1292546D01*
X2011340D02*
X2011568Y1291921D01*
X2011568D02*
Y1290984D01*
X2011113Y1290359*
X2011113D02*
X2010431Y1290046D01*
X2010431D02*
X2009522D01*
X2009522D02*
X2008840Y1290359D01*
X2008840D02*
X2008386Y1290984D01*
X2013613Y1296609D02*
Y1290046D01*
X2016795Y1296609D02*
X2013613Y1292234D01*
X2014750Y1293796D02*
X2016795Y1290046D01*
X2004900Y1586753D02*
X2009900D01*
Y1581753*
X2004900*
Y1586753*
X2016100Y1590353D02*
X2010100D01*
Y1596353*
X2016100*
Y1590353*
X2046400Y1783753D02*
X2051400D01*
Y1778753*
X2046400*
Y1783753*
X2057600Y1787353D02*
X2051600D01*
Y1793353*
X2057600*
Y1787353*
X2004900Y1586251D02*
X2009900D01*
X2004900Y1585351D02*
X2009900D01*
X2004900Y1584451D02*
X2009900D01*
X2004900Y1583551D02*
X2009900D01*
X2004900Y1582651D02*
X2009900D01*
X2010100Y1595751D02*
X2016100D01*
X2010100Y1594851D02*
X2016100D01*
X2010100Y1593951D02*
X2016100D01*
X2010100Y1593051D02*
X2016100D01*
X2010100Y1592151D02*
X2016100D01*
X2010100Y1591251D02*
X2016100D01*
X2046400Y1783251D02*
X2051400D01*
X2046400Y1782351D02*
X2051400D01*
X2046400Y1781451D02*
X2051400D01*
X2046400Y1780551D02*
X2051400D01*
X2046400Y1779651D02*
X2051400D01*
X2051600Y1792751D02*
X2057600D01*
X2051600Y1791851D02*
X2057600D01*
X2051600Y1790951D02*
X2057600D01*
X2051600Y1790051D02*
X2057600D01*
X2051600Y1789151D02*
X2057600D01*
X2051600Y1788251D02*
X2057600D01*
G54D47*
X2094311Y1685352D02*
Y1687922D01*
X2094311D02*
X2095004Y1688616D01*
X2095004D02*
X2096807D01*
Y1685352*
X2094311*
X2096807*
X2094311Y1686336D02*
X2096807D01*
X2094311Y1687320D02*
X2096807D01*
X2094693Y1688305D02*
X2096807D01*
X2094311Y1685352D02*
Y1687922D01*
X2095295Y1685352D02*
Y1688616D01*
X2096279Y1685352D02*
Y1688616D01*
G54D49*
X1967900Y1659953D02*
X1972900D01*
X1967900Y1654953D02*
X1972900D01*
X1967900Y1649953D02*
X1972900D01*
X1967900Y1644953D02*
X1972900D01*
X1967900Y1639953D02*
X1972900D01*
X1967900Y1634953D02*
X1972900D01*
X1967900Y1629953D02*
X1972900D01*
X1988300D02*
X1993300D01*
X1988300Y1634953D02*
X1993300D01*
X1988300Y1639953D02*
X1993300D01*
X1988300Y1644953D02*
X1993300D01*
X1988300Y1649953D02*
X1993300D01*
X1988300Y1654953D02*
X1993300D01*
X1988300Y1659953D02*
X1993300D01*
G54D51*
X2054232Y1720253D03*
G54D55*
X1886500Y1519953D03*
X1876500Y1509953D03*
X1886500D03*
X1876500Y1499953D03*
X1886500D03*
X1876500Y1489953D03*
X1886500D03*
X1876500Y1479953D03*
X1886500D03*
X1876500Y1469953D03*
X1886500D03*
X1876500Y1459953D03*
X1886500D03*
X1876500Y1449953D03*
X1886500D03*
Y1813453D03*
X1876500Y1803453D03*
X1886500D03*
X1876500Y1793453D03*
X1886500D03*
X1876500Y1783453D03*
X1886500D03*
X1876500Y1773453D03*
X1886500D03*
X1876500Y1763453D03*
X1886500D03*
X1876500Y1753453D03*
X1886500D03*
X1876500Y1743453D03*
X1886500D03*
X1971100Y1822553D03*
X2089500Y1376953D03*
G54D63*
X1917500Y1714953D03*
X1877500Y1894953D03*
X2122663Y1894882D03*
X2122500Y1674953D03*
Y1584953D03*
Y1364953D03*
X1877500D03*
X1917500Y1544953D03*
G54D64*
X2026600Y1714353D02*
Y1713553D01*
Y1708153D02*
Y1707353D01*
X2032649Y1714300D02*
Y1713500D01*
Y1708100D02*
Y1707300D01*
X2039500Y1741953D02*
X2040300D01*
X2045700D02*
X2046500D01*
X2079000Y1773953D02*
Y1773153D01*
Y1767753D02*
Y1766953D01*
X2054000Y1705853D02*
Y1705053D01*
Y1699653D02*
Y1698853D01*
X2053900Y1764453D02*
Y1763653D01*
Y1758253D02*
Y1757453D01*
X2048852Y1805179D02*
Y1804379D01*
Y1798979D02*
Y1798179D01*
X2067500Y1806453D02*
Y1805653D01*
Y1800253D02*
Y1799453D01*
X2119500Y1800453D02*
Y1799653D01*
Y1794253D02*
Y1793453D01*
X2113000Y1800453D02*
X2112200D01*
X2106800D02*
X2106000D01*
Y1807453D02*
X2106800D01*
X2112200D02*
X2113000D01*
X2065000Y1843953D02*
X2064200D01*
X2058800D02*
X2058000D01*
X1996500Y1827953D02*
Y1827153D01*
Y1821753D02*
Y1820953D01*
X2061000Y1894453D02*
X2061800D01*
X2067200D02*
X2068000D01*
X2058000Y1887953D02*
Y1887153D01*
Y1881753D02*
Y1880953D01*
X2064000Y1880453D02*
Y1881253D01*
Y1886653D02*
Y1887453D01*
X1973000Y1843453D02*
Y1842653D01*
Y1837253D02*
Y1836453D01*
X2027696Y1813667D02*
X2026896D01*
X2021496D02*
X2020696D01*
X2078056Y1412118D02*
X2077256D01*
X2071856D02*
X2071056D01*
X2038000Y1802453D02*
Y1801653D01*
Y1796253D02*
Y1795453D01*
X2080769Y1466764D02*
X2079969D01*
X2074569D02*
X2073769D01*
X2080769Y1472508D02*
X2079969D01*
X2074569D02*
X2073769D01*
X2022000Y1491453D02*
X2021200D01*
X2015800D02*
X2015000D01*
X2039500Y1486453D02*
Y1487253D01*
Y1492653D02*
Y1493453D01*
X2074000Y1477953D02*
X2074800D01*
X2080200D02*
X2081000D01*
X1997500Y1458453D02*
Y1459253D01*
Y1464653D02*
Y1465453D01*
X2048538Y1376831D02*
X2049338D01*
X2054738D02*
X2055538D01*
X2041600Y1374953D02*
Y1374153D01*
Y1368753D02*
Y1367953D01*
X2025900Y1374453D02*
X2026700D01*
X2032100D02*
X2032900D01*
X2025900Y1379853D02*
X2026700D01*
X2032100D02*
X2032900D01*
X2085302Y1399740D02*
Y1400540D01*
Y1405940D02*
Y1406740D01*
X2035500Y1408653D02*
X2034700D01*
X2029300D02*
X2028500D01*
X2038000Y1833753D02*
Y1832953D01*
Y1827553D02*
Y1826753D01*
X2071263Y1406306D02*
X2072063D01*
X2077463D02*
X2078263D01*
X2071263Y1400648D02*
X2072063D01*
X2077463D02*
X2078263D01*
X2071600Y1394453D02*
X2072400D01*
X2077800D02*
X2078600D01*
X2064900Y1415253D02*
Y1416053D01*
Y1421453D02*
Y1422253D01*
X2071600Y1385953D02*
X2072400D01*
X2077800D02*
X2078600D01*
X2021000Y1444453D02*
X2021800D01*
X2027200D02*
X2028000D01*
X2055811Y1805845D02*
Y1805045D01*
Y1799645D02*
Y1798845D01*
X2038000Y1809453D02*
Y1810253D01*
Y1815653D02*
Y1816453D01*
X2019100Y1828153D02*
X2018300D01*
X2012900D02*
X2012100D01*
X2016700Y1862153D02*
X2017500D01*
X2022900D02*
X2023700D01*
X2008092Y1820977D02*
Y1820177D01*
Y1814777D02*
Y1813977D01*
X2014093Y1820806D02*
Y1820006D01*
Y1814606D02*
Y1813806D01*
X2016600Y1867953D02*
X2017400D01*
X2022800D02*
X2023600D01*
X1976800Y1856853D02*
X1977600D01*
X1983000D02*
X1983800D01*
X2032000Y1486453D02*
Y1487253D01*
Y1492653D02*
Y1493453D01*
X2027472Y1820388D02*
X2026672D01*
X2021272D02*
X2020472D01*
X2034000Y1849453D02*
X2034800D01*
X2040200D02*
X2041000D01*
X2034000Y1843453D02*
X2034800D01*
X2040200D02*
X2041000D01*
X2013420Y1849174D02*
Y1849974D01*
Y1855374D02*
Y1856174D01*
X2013500Y1842453D02*
Y1841653D01*
Y1836253D02*
Y1835453D01*
X2019400Y1576353D02*
X2018600D01*
X2013200D02*
X2012400D01*
X2055800Y1408553D02*
X2056600D01*
X2062000D02*
X2062800D01*
X2049100Y1408653D02*
X2048300D01*
X2042900D02*
X2042100D01*
X2048700Y1427653D02*
Y1428453D01*
Y1433853D02*
Y1434653D01*
X2056200Y1427653D02*
Y1428453D01*
Y1433853D02*
Y1434653D01*
X2060600Y1773453D02*
X2059800D01*
X2054400D02*
X2053600D01*
X2060100Y1699553D02*
X2060900D01*
X2066300D02*
X2067100D01*
X2020500Y1843453D02*
X2021300D01*
X2026700D02*
X2027500D01*
X2020000Y1849453D02*
X2020800D01*
X2026200D02*
X2027000D01*
X2056200Y1414453D02*
Y1415253D01*
Y1420653D02*
Y1421453D01*
X2048700Y1414453D02*
Y1415253D01*
Y1420653D02*
Y1421453D01*
X2028000Y1462953D02*
X2027200D01*
X2021800D02*
X2021000D01*
X2010000Y1524853D02*
Y1524053D01*
Y1518653D02*
Y1517853D01*
X2034800Y1503953D02*
X2034000D01*
X2028600D02*
X2027800D01*
X2083500Y1452953D02*
X2082700D01*
X2077300D02*
X2076500D01*
X2083500Y1445953D02*
X2082700D01*
X2077300D02*
X2076500D01*
X2061600Y1503953D02*
X2062400D01*
X2067800D02*
X2068600D01*
X2048000D02*
X2048800D01*
X2054200D02*
X2055000D01*
X2095800Y1534253D02*
Y1533453D01*
Y1528053D02*
Y1527253D01*
X2026800Y1576353D02*
X2027600D01*
X2033000D02*
X2033800D01*
X2026800Y1582853D02*
X2027600D01*
X2033000D02*
X2033800D01*
X1982500Y1469453D02*
Y1468653D01*
Y1463253D02*
Y1462453D01*
X1976500D02*
Y1463253D01*
Y1468653D02*
Y1469453D01*
X1949000Y1842953D02*
X1948200D01*
X1942800D02*
X1942000D01*
X2042000Y1648553D02*
Y1649353D01*
Y1654753D02*
Y1655553D01*
X2102500Y1472453D02*
X2101700D01*
X2096300D02*
X2095500D01*
X2045000Y1532453D02*
X2044200D01*
X2038800D02*
X2038000D01*
X2016200Y1386553D02*
Y1387353D01*
Y1392753D02*
Y1393553D01*
X2017600Y1379653D02*
X2016800D01*
X2011400D02*
X2010600D01*
X2024000Y1532453D02*
X2024800D01*
X2030200D02*
X2031000D01*
X2059000D02*
X2058200D01*
X2052800D02*
X2052000D01*
X2021000Y1479953D02*
X2021800D01*
X2027200D02*
X2028000D01*
X2014000Y1503953D02*
X2014800D01*
X2020200D02*
X2021000D01*
X2076500Y1458953D02*
X2077300D01*
X2082700D02*
X2083500D01*
X2021000Y1468453D02*
X2021800D01*
X2027200D02*
X2028000D01*
X2045900Y1493253D02*
Y1492453D01*
Y1487053D02*
Y1486253D01*
X2015000Y1485453D02*
X2015800D01*
X2021200D02*
X2022000D01*
X2002000Y1827953D02*
Y1827153D01*
Y1821753D02*
Y1820953D01*
X2103000Y1685953D02*
Y1686753D01*
Y1692153D02*
Y1692953D01*
X2054100Y1682053D02*
Y1682853D01*
Y1688253D02*
Y1689053D01*
X2021000Y1455453D02*
X2021800D01*
X2027200D02*
X2028000D01*
X2021000Y1449953D02*
X2021800D01*
X2027200D02*
X2028000D01*
X2083500Y1434453D02*
X2082700D01*
X2077300D02*
X2076500D01*
X2083500Y1439953D02*
X2082700D01*
X2077300D02*
X2076500D01*
X1942000Y1836453D02*
X1942800D01*
X1948200D02*
X1949000D01*
X1995400Y1429253D02*
Y1428453D01*
Y1423053D02*
Y1422253D01*
X1970300Y1507953D02*
Y1507153D01*
Y1501753D02*
Y1500953D01*
X1996100Y1812053D02*
Y1811253D01*
Y1805853D02*
Y1805053D01*
X1973900Y1865953D02*
Y1866753D01*
Y1872153D02*
Y1872953D01*
X1950500Y1790953D02*
X1949700D01*
X1944300D02*
X1943500D01*
X2041500Y1888653D02*
Y1887853D01*
Y1882453D02*
Y1881653D01*
X2035000Y1888653D02*
Y1887853D01*
Y1882453D02*
Y1881653D01*
X1950500Y1785453D02*
X1949700D01*
X1944300D02*
X1943500D01*
X1969600Y1799453D02*
Y1798653D01*
Y1793253D02*
Y1792453D01*
X2003400Y1888253D02*
Y1887453D01*
Y1882053D02*
Y1881253D01*
X1899000Y1858253D02*
Y1859053D01*
Y1864453D02*
Y1865253D01*
X1893300Y1858253D02*
Y1859053D01*
Y1864453D02*
Y1865253D01*
X1960000Y1842953D02*
X1960800D01*
X1966200D02*
X1967000D01*
X1979000D02*
X1979800D01*
X1985200D02*
X1986000D01*
X2064500Y1874953D02*
X2063700D01*
X2058300D02*
X2057500D01*
X2065000Y1849453D02*
X2064200D01*
X2058800D02*
X2058000D01*
X2099500Y1807453D02*
Y1806653D01*
Y1801253D02*
Y1800453D01*
X2073500Y1806453D02*
Y1805653D01*
Y1800253D02*
Y1799453D01*
X2048000Y1888153D02*
Y1887353D01*
Y1881953D02*
Y1881153D01*
X1954400Y1843353D02*
Y1842553D01*
Y1837153D02*
Y1836353D01*
X1950500Y1797453D02*
X1949700D01*
X1944300D02*
X1943500D01*
X1927300Y1491553D02*
Y1492353D01*
Y1497753D02*
Y1498553D01*
X1906000Y1597953D02*
Y1597153D01*
Y1591753D02*
Y1590953D01*
X1913000Y1597953D02*
Y1597153D01*
Y1591753D02*
Y1590953D01*
X2007500Y1619953D02*
Y1619153D01*
Y1613753D02*
Y1612953D01*
X2046000Y1618953D02*
X2045200D01*
X2039800D02*
X2039000D01*
X1920000Y1597953D02*
Y1597153D01*
Y1591753D02*
Y1590953D01*
X1952000Y1597953D02*
Y1597153D01*
Y1591753D02*
Y1590953D01*
X1964000Y1616753D02*
Y1615953D01*
Y1610553D02*
Y1609753D01*
X1969500Y1469453D02*
Y1468653D01*
Y1463253D02*
Y1462453D01*
X1936400Y1409353D02*
Y1408553D01*
Y1403153D02*
Y1402353D01*
X1942900Y1409353D02*
Y1408553D01*
Y1403153D02*
Y1402353D01*
X1933800Y1491553D02*
Y1492353D01*
Y1497753D02*
Y1498553D01*
X2021700Y1386653D02*
Y1387453D01*
Y1392853D02*
Y1393653D01*
X1939500Y1491553D02*
Y1492353D01*
Y1497753D02*
Y1498553D01*
X1982000Y1409253D02*
Y1408453D01*
Y1403053D02*
Y1402253D01*
X1949400Y1409353D02*
Y1408553D01*
Y1403153D02*
Y1402353D01*
X1952200Y1477553D02*
Y1476753D01*
Y1471353D02*
Y1470553D01*
X2028400Y1402853D02*
X2029200D01*
X2034600D02*
X2035400D01*
X1951500Y1382053D02*
Y1381253D01*
Y1375853D02*
Y1375053D01*
X1958000Y1382053D02*
Y1381253D01*
Y1375853D02*
Y1375053D01*
X2039100Y1713953D02*
X2039900D01*
X2045300D02*
X2046100D01*
X1980000Y1866053D02*
Y1866853D01*
Y1872253D02*
Y1873053D01*
X1990100Y1811853D02*
Y1811053D01*
Y1805653D02*
Y1804853D01*
X1899000Y1836453D02*
Y1835653D01*
Y1830253D02*
Y1829453D01*
X1967600Y1872753D02*
Y1871953D01*
Y1866553D02*
Y1865753D01*
X2002100Y1805153D02*
Y1805953D01*
Y1811353D02*
Y1812153D01*
X1986500Y1675953D02*
X1985700D01*
X1980300D02*
X1979500D01*
X1891500Y1829953D02*
X1890700D01*
X1885300D02*
X1884500D01*
X1976600Y1616953D02*
Y1616153D01*
Y1610753D02*
Y1609953D01*
X1970100D02*
Y1610753D01*
Y1616153D02*
Y1616953D01*
X1999100Y1638453D02*
Y1639253D01*
Y1644653D02*
Y1645453D01*
X1961600Y1646553D02*
Y1645753D01*
Y1640353D02*
Y1639553D01*
X2096000Y1455453D02*
Y1456253D01*
Y1461653D02*
Y1462453D01*
X2000600Y1429253D02*
Y1428453D01*
Y1423053D02*
Y1422253D01*
X1975900Y1507953D02*
Y1507153D01*
Y1501753D02*
Y1500953D01*
X1970000Y1371453D02*
Y1370653D01*
Y1365253D02*
Y1364453D01*
X2006400Y1422353D02*
Y1423153D01*
Y1428553D02*
Y1429353D01*
X1981900Y1500953D02*
Y1501753D01*
Y1507153D02*
Y1507953D01*
X1963000Y1364953D02*
X1962200D01*
X1956800D02*
X1956000D01*
X2021000Y1474453D02*
X2021800D01*
X2027200D02*
X2028000D01*
X1997500Y1443953D02*
Y1444753D01*
Y1450153D02*
Y1450953D01*
X2073200Y1773953D02*
Y1773153D01*
Y1767753D02*
Y1766953D01*
X2067300Y1773953D02*
Y1773153D01*
Y1767753D02*
Y1766953D01*
X1985000Y1584453D02*
X1984200D01*
X1978800D02*
X1978000D01*
X1976500Y1755453D02*
X1975700D01*
X1970300D02*
X1969500D01*
X1979500Y1526953D02*
X1978700D01*
X1973300D02*
X1972500D01*
X1985000Y1575453D02*
X1984200D01*
X1978800D02*
X1978000D01*
X2020500Y1714453D02*
Y1713653D01*
Y1708253D02*
Y1707453D01*
X2056000Y1440153D02*
X2055200D01*
X2049800D02*
X2049000D01*
X2054000Y1742453D02*
Y1741653D01*
Y1736253D02*
Y1735453D01*
G54D65*
X2061512Y1837547D02*
Y1831347D01*
X2059012Y1837547D02*
Y1831347D01*
X2056512Y1837547D02*
Y1831347D01*
X2054012Y1837547D02*
Y1831347D01*
X2051512Y1837547D02*
Y1831347D01*
X2049012Y1837547D02*
Y1831347D01*
X2046512Y1837547D02*
Y1831347D01*
X2044012Y1837547D02*
Y1831347D01*
Y1817047D02*
Y1810847D01*
X2046512Y1817047D02*
Y1810847D01*
X2049012Y1817047D02*
Y1810847D01*
X2051512Y1817047D02*
Y1810847D01*
X2054012Y1817047D02*
Y1810847D01*
X2056512Y1817047D02*
Y1810847D01*
X2059012Y1817047D02*
Y1810847D01*
X2061512Y1817047D02*
Y1810847D01*
G54D66*
X2052762Y1824197D03*
G54D67*
X1908500Y1790503D02*
Y1796802D01*
X1913500Y1790503D02*
Y1796802D01*
X1918500Y1790503D02*
Y1796802D01*
X1923500Y1790503D02*
Y1796802D01*
Y1810103D02*
Y1816402D01*
X1918500Y1810103D02*
Y1816402D01*
X1913500Y1810103D02*
Y1816402D01*
X1908500Y1810103D02*
Y1816402D01*
X1907833Y1447263D02*
Y1453562D01*
X1912833Y1447263D02*
Y1453562D01*
X1917833Y1447263D02*
Y1453562D01*
X1922833Y1447263D02*
Y1453562D01*
Y1466863D02*
Y1473162D01*
X1917833Y1466863D02*
Y1473162D01*
X1912833Y1466863D02*
Y1473162D01*
X1907833Y1466863D02*
Y1473162D01*
X1988949Y1440453D02*
X1982650D01*
X1988949Y1445453D02*
X1982650D01*
X1988949Y1450453D02*
X1982650D01*
X1988949Y1455453D02*
X1982650D01*
X1969349D02*
X1963050D01*
X1969349Y1450453D02*
X1963050D01*
X1969349Y1445453D02*
X1963050D01*
X1969349Y1440453D02*
X1963050D01*
G54D68*
X2102900Y1721853D03*
X2069200Y1618453D03*
G54D69*
X2112900Y1731853D03*
X2092900D03*
Y1711853D03*
X2112900D03*
X2059200Y1608453D03*
X2079200D03*
Y1628453D03*
X2059200D03*
G54D70*
X2012800Y1593253D02*
Y1591353D01*
X2010200Y1593253D02*
Y1591353D01*
X2007600Y1593253D02*
Y1591353D01*
Y1585753D02*
Y1583853D01*
X2010200Y1585753D02*
Y1583853D01*
X2012800Y1585753D02*
Y1583853D01*
X2054000Y1790153D02*
Y1788253D01*
X2051400Y1790153D02*
Y1788253D01*
X2048800Y1790153D02*
Y1788253D01*
Y1782653D02*
Y1780753D01*
X2051400Y1782653D02*
Y1780753D01*
X2054000Y1782653D02*
Y1780753D01*
G54D71*
X2066460Y1446822D02*
X2060949D01*
X2066460Y1449381D02*
X2060949D01*
X2066460Y1451940D02*
X2060949D01*
X2066460Y1454499D02*
X2060949D01*
X2066460Y1457058D02*
X2060949D01*
X2066460Y1459617D02*
X2060949D01*
X2066460Y1462176D02*
X2060949D01*
X2066460Y1464735D02*
X2060949D01*
X2066460Y1467294D02*
X2060949D01*
X2066460Y1469853D02*
X2060949D01*
X2066460Y1472412D02*
X2060949D01*
X2066460Y1474971D02*
X2060949D01*
X2066460Y1477530D02*
X2060949D01*
X2066460Y1480089D02*
X2060949D01*
X2043074D02*
X2037563D01*
X2043074Y1477530D02*
X2037563D01*
X2043074Y1474971D02*
X2037563D01*
X2043074Y1472412D02*
X2037563D01*
X2043074Y1469853D02*
X2037563D01*
X2043074Y1467294D02*
X2037563D01*
X2043074Y1464735D02*
X2037563D01*
X2043074Y1462176D02*
X2037563D01*
X2043074Y1459617D02*
X2037563D01*
X2043074Y1457058D02*
X2037563D01*
X2043074Y1454499D02*
X2037563D01*
X2043074Y1451940D02*
X2037563D01*
X2043074Y1449381D02*
X2037563D01*
X2043074Y1446822D02*
X2037563D01*
G54D72*
X1950807Y1496938D03*
X2086240D03*
X1950807Y1762941D03*
X2086240D03*
G54D73*
X2074100Y1658667D02*
X2071699D01*
X2074100Y1661226D02*
X2071699D01*
X2074100Y1663785D02*
X2071699D01*
X2074100Y1666344D02*
X2071699D01*
X2055202D02*
X2052801D01*
X2055202Y1663785D02*
X2052801D01*
X2055202Y1661226D02*
X2052801D01*
X2055202Y1658667D02*
X2052801D01*
X2020749Y1407414D02*
X2018348D01*
X2020749Y1409973D02*
X2018348D01*
X2020749Y1412532D02*
X2018348D01*
X2020749Y1415091D02*
X2018348D01*
X2001851D02*
X1999450D01*
X2001851Y1412532D02*
X1999450D01*
X2001851Y1409973D02*
X1999450D01*
X2001851Y1407414D02*
X1999450D01*
X2014250Y1644491D02*
X2016651D01*
X2014250Y1641932D02*
X2016651D01*
X2014250Y1639373D02*
X2016651D01*
X2014250Y1636814D02*
X2016651D01*
X2033148D02*
X2035549D01*
X2033148Y1639373D02*
X2035549D01*
X2033148Y1641932D02*
X2035549D01*
X2033148Y1644491D02*
X2035549D01*
X1965050Y1887891D02*
X1967451D01*
X1965050Y1885332D02*
X1967451D01*
X1965050Y1882773D02*
X1967451D01*
X1965050Y1880214D02*
X1967451D01*
X1983948D02*
X1986349D01*
X1983948Y1882773D02*
X1986349D01*
X1983948Y1885332D02*
X1986349D01*
X1983948Y1887891D02*
X1986349D01*
X2007749Y1790414D02*
X2005348D01*
X2007749Y1792973D02*
X2005348D01*
X2007749Y1795532D02*
X2005348D01*
X2007749Y1798091D02*
X2005348D01*
X1988851D02*
X1986450D01*
X1988851Y1795532D02*
X1986450D01*
X1988851Y1792973D02*
X1986450D01*
X1988851Y1790414D02*
X1986450D01*
X1990149Y1595114D02*
X1987748D01*
X1990149Y1597673D02*
X1987748D01*
X1990149Y1600232D02*
X1987748D01*
X1990149Y1602791D02*
X1987748D01*
X1971251D02*
X1968850D01*
X1971251Y1600232D02*
X1968850D01*
X1971251Y1597673D02*
X1968850D01*
X1971251Y1595114D02*
X1968850D01*
X1989649Y1482614D02*
X1987248D01*
X1989649Y1485173D02*
X1987248D01*
X1989649Y1487732D02*
X1987248D01*
X1989649Y1490291D02*
X1987248D01*
X1970751D02*
X1968350D01*
X1970751Y1487732D02*
X1968350D01*
X1970751Y1485173D02*
X1968350D01*
X1970751Y1482614D02*
X1968350D01*
G54D74*
X2007765Y1839072D02*
X2006388D01*
X2007765Y1841040D02*
X2006388D01*
X2007765Y1843009D02*
X2006388D01*
X2007765Y1844977D02*
X2006388D01*
X2007765Y1846946D02*
X2006388D01*
X2007765Y1848914D02*
X2006388D01*
X2004813Y1851867D02*
Y1850489D01*
X2002844Y1851867D02*
Y1850489D01*
X2000876Y1851867D02*
Y1850489D01*
X1998907Y1851867D02*
Y1850489D01*
X1996939Y1851867D02*
Y1850489D01*
X1994970Y1851867D02*
Y1850489D01*
X1993395Y1848914D02*
X1992017D01*
X1993395Y1846946D02*
X1992017D01*
X1993395Y1844977D02*
X1992017D01*
X1993395Y1843009D02*
X1992017D01*
X1993395Y1841040D02*
X1992017D01*
X1993395Y1839072D02*
X1992017D01*
X1994970Y1837497D02*
Y1836119D01*
X1996939Y1837497D02*
Y1836119D01*
X1998907Y1837497D02*
Y1836119D01*
X2000876Y1837497D02*
Y1836119D01*
X2002844Y1837497D02*
Y1836119D01*
X2004813Y1837497D02*
Y1836119D01*
X2059168Y1401092D02*
Y1399714D01*
X2057199Y1401092D02*
Y1399714D01*
X2055230Y1401092D02*
Y1399714D01*
X2053262Y1401092D02*
Y1399714D01*
X2051293Y1401092D02*
Y1399714D01*
X2049325Y1401092D02*
Y1399714D01*
X2046372Y1398139D02*
X2047750D01*
X2046372Y1396170D02*
X2047750D01*
X2046372Y1394202D02*
X2047750D01*
X2046372Y1392233D02*
X2047750D01*
X2046372Y1390265D02*
X2047750D01*
X2046372Y1388296D02*
X2047750D01*
X2049325Y1386722D02*
Y1385344D01*
X2051293Y1386722D02*
Y1385344D01*
X2053262Y1386722D02*
Y1385344D01*
X2055230Y1386722D02*
Y1385344D01*
X2057199Y1386722D02*
Y1385344D01*
X2059168Y1386722D02*
Y1385344D01*
X2060742Y1388296D02*
X2062120D01*
X2060742Y1390265D02*
X2062120D01*
X2060742Y1392233D02*
X2062120D01*
X2060742Y1394202D02*
X2062120D01*
X2060742Y1396170D02*
X2062120D01*
X2060742Y1398139D02*
X2062120D01*
G54D75*
X1999891Y1843796D03*
X2054443Y1393218D03*
G54D76*
X2043500Y1513453D02*
X2041500D01*
X2043500Y1524453D02*
X2041500D01*
X2032000Y1513453D02*
X2030000D01*
X2032000Y1524453D02*
X2030000D01*
X2055600Y1513453D02*
X2053600D01*
X2055600Y1524453D02*
X2053600D01*
X2017000D02*
X2019000D01*
X2017000Y1513453D02*
X2019000D01*
X2067000Y1868453D02*
X2069000D01*
X2067000Y1857453D02*
X2069000D01*
X2053000Y1868453D02*
X2055000D01*
X2053000Y1857453D02*
X2055000D01*
X2093000Y1810953D02*
Y1808953D01*
X2082000Y1810953D02*
Y1808953D01*
X2093000Y1798453D02*
Y1796453D01*
X2082000Y1798453D02*
Y1796453D01*
X1876500Y1519953D03*
Y1813453D03*
X1981100Y1822553D03*
X2079500Y1376953D03*
X1911500Y1858703D03*
Y1872203D03*
X1978600Y1799203D03*
Y1785703D03*
X1994800Y1887903D03*
Y1874403D03*
X1960500Y1597703D03*
Y1584203D03*
X1961000Y1481203D03*
Y1467703D03*
X1992500Y1409003D03*
Y1395503D03*
X1942500Y1381703D03*
Y1368203D03*
X1960500Y1785203D03*
Y1798703D03*
X2025450Y1887853D03*
X2011950D03*
X1899050Y1846253D03*
X1885550D03*
X1929250Y1597453D03*
X1942750D03*
X1959650Y1408853D03*
X1973150D03*
X1939500Y1482403D03*
Y1468903D03*
X1967500Y1381703D03*
Y1395203D03*
X2092750Y1784453D03*
X2079250D03*
X2114000Y1428703D03*
Y1442203D03*
G54D77*
X1980300Y1364753D02*
Y1365553D01*
X2000300Y1364753D02*
Y1365553D01*
Y1381353D02*
Y1382153D01*
X1980300Y1381353D02*
Y1382153D01*
X1911500Y1829253D02*
Y1830053D01*
X1931500Y1829253D02*
Y1830053D01*
Y1845853D02*
Y1846653D01*
X1911500Y1845853D02*
Y1846653D01*
G54D78*
X2053200Y1726153D02*
X2054800D01*
X2053200Y1714353D02*
X2054800D01*
G54D79*
X2095500Y1691757D02*
Y1692348D01*
X2091562Y1691757D02*
Y1692348D01*
Y1686639D02*
Y1687230D01*
X0Y0D02*
M02*
