*
*
G04 PowerPCB (Build Number 501.037) generated Gerber (RS-274-X) file*
G04 PC Version=2.1*
*
%IN "FLEX-900 Rev 1 .0.pcb"*%
*
%MOIN*%
*
%FSLAX35Y35*%
*
*
*
*
G04 PC Standard Apertures*
*
*
G04 Thermal Relief Aperture macro.*
%AMTER*
1,1,$1,0,0*
1,0,$1-$2,0,0*
21,0,$3,$4,0,0,45*
21,0,$3,$4,0,0,135*
%
*
*
G04 Annular Aperture macro.*
%AMANN*
1,1,$1,0,0*
1,0,$2,0,0*
%
*
*
G04 Odd Aperture macro.*
%AMODD*
1,1,$1,0,0*
1,0,$1-0.005,0,0*
%
*
*
G04 PC Custom Aperture Macros*
*
*
*
*
*
*
G04 PC Aperture Table*
*
%ADD010C,0.01*%
%ADD023R,0.03X0.038*%
%ADD024R,0.038X0.03*%
%ADD025O,0.013X0.075*%
%ADD026R,0.11024X0.11024*%
%ADD027O,0.02362X0.08661*%
%ADD030R,0.016X0.035*%
%ADD031R,0.07087X0.01575*%
%ADD033R,0.04016X0.01614*%
%ADD034R,0.02559X0.01181*%
%ADD035R,0.01181X0.02559*%
%ADD036R,0.08268X0.08268*%
%ADD037R,0.08X0.06*%
%ADD038R,0.06X0.08*%
%ADD039R,0.06X0.06*%
%ADD041O,0.08661X0.02362*%
%ADD042R,0.072X0.08*%
%ADD043O,0.075X0.025*%
%ADD044R,0.05X0.034*%
%ADD045C,0.015*%
%ADD046R,0.02559X0.0315*%
%ADD047C,0.00984*%
*
*
*
*
G04 PC Custom Flashes*
G04 Layer Name FLEX-900 Rev 1 .0.pcb - flashes*
%LPD*%
*
*
G04 PC Circuitry*
G04 Layer Name FLEX-900 Rev 1 .0.pcb - circuitry*
%LPD*%
*
G54D10*
G01X1862500Y1349953D02*
Y1909953D01*
X2137500*
Y1349953*
X1862500*
X2052000Y1721453D02*
X2059300D01*
Y1723103*
X2068800*
Y1717403*
X2059300*
Y1719053*
X2052000*
Y1721453*
X2059300Y1717403D02*
X2068800D01*
X2059300Y1718403D02*
X2068800D01*
X2052000Y1719403D02*
X2068800D01*
X2052000Y1720403D02*
X2068800D01*
X2052000Y1721403D02*
X2068800D01*
X2059300Y1722403D02*
X2068800D01*
X2052000Y1719053D02*
Y1721453D01*
X2053000Y1719053D02*
Y1721453D01*
X2054000Y1719053D02*
Y1721453D01*
X2055000Y1719053D02*
Y1721453D01*
X2056000Y1719053D02*
Y1721453D01*
X2057000Y1719053D02*
Y1721453D01*
X2058000Y1719053D02*
Y1721453D01*
X2059000Y1719053D02*
Y1721453D01*
X2060000Y1717403D02*
Y1723103D01*
X2061000Y1717403D02*
Y1723103D01*
X2062000Y1717403D02*
Y1723103D01*
X2063000Y1717403D02*
Y1723103D01*
X2064000Y1717403D02*
Y1723103D01*
X2065000Y1717403D02*
Y1723103D01*
X2066000Y1717403D02*
Y1723103D01*
X2067000Y1717403D02*
Y1723103D01*
X2068000Y1717403D02*
Y1723103D01*
X1922931Y1296609D02*
Y1290046D01*
Y1296609D02*
X1924977D01*
X1925659Y1296296*
X1925659D02*
X1925886Y1295984D01*
X1926113Y1295359*
X1926113D02*
Y1294421D01*
X1926113D02*
X1925886Y1293796D01*
X1925886D02*
X1925659Y1293484D01*
X1924977Y1293171*
X1924977D02*
X1922931D01*
X1929977Y1296609D02*
X1928159Y1290046D01*
X1929977Y1296609D02*
X1931795Y1290046D01*
X1928840Y1292234D02*
X1931113D01*
X1937022Y1295671D02*
X1936568Y1296296D01*
X1936568D02*
X1935886Y1296609D01*
X1934977*
X1934295Y1296296*
X1934295D02*
X1933840Y1295671D01*
X1933840D02*
Y1295046D01*
X1933840D02*
X1934068Y1294421D01*
X1934068D02*
X1934295Y1294109D01*
X1934750Y1293796*
X1934750D02*
X1936113Y1293171D01*
X1936113D02*
X1936568Y1292859D01*
X1936795Y1292546*
X1936795D02*
X1937022Y1291921D01*
X1937022D02*
Y1290984D01*
X1937022D02*
X1936568Y1290359D01*
X1935886Y1290046*
X1935886D02*
X1934977D01*
X1934977D02*
X1934295Y1290359D01*
X1933840Y1290984*
X1940659Y1296609D02*
Y1290046D01*
X1939068Y1296609D02*
X1942250D01*
X1944295D02*
Y1290046D01*
Y1296609D02*
X1947250D01*
X1944295Y1293484D02*
X1946113D01*
X1944295Y1290046D02*
X1947250D01*
X1953386Y1296609D02*
Y1290046D01*
Y1296609D02*
X1955204Y1290046D01*
X1957022Y1296609D02*
X1955204Y1290046D01*
X1957022Y1296609D02*
Y1290046D01*
X1960886Y1296609D02*
X1959068Y1290046D01*
X1960886Y1296609D02*
X1962704Y1290046D01*
X1959750Y1292234D02*
X1962022D01*
X1967931Y1295671D02*
X1967477Y1296296D01*
X1967477D02*
X1966795Y1296609D01*
X1965886*
X1965204Y1296296*
X1965204D02*
X1964750Y1295671D01*
X1964750D02*
Y1295046D01*
X1964750D02*
X1964977Y1294421D01*
X1964977D02*
X1965204Y1294109D01*
X1965204D02*
X1965659Y1293796D01*
X1965659D02*
X1967022Y1293171D01*
X1967022D02*
X1967477Y1292859D01*
X1967704Y1292546*
X1967704D02*
X1967931Y1291921D01*
X1967931D02*
Y1290984D01*
X1967931D02*
X1967477Y1290359D01*
X1966795Y1290046*
X1966795D02*
X1965886D01*
X1965886D02*
X1965204Y1290359D01*
X1965204D02*
X1964750Y1290984D01*
X1969977Y1296609D02*
Y1290046D01*
X1973159Y1296609D02*
X1969977Y1292234D01*
X1971113Y1293796D02*
X1973159Y1290046D01*
X1980886Y1296609D02*
Y1290046D01*
X1979295Y1296609D02*
X1982477D01*
X1985886D02*
X1985431Y1296296D01*
X1985431D02*
X1984977Y1295671D01*
X1984977D02*
X1984750Y1295046D01*
X1984750D02*
X1984522Y1294109D01*
X1984522D02*
Y1292546D01*
X1984522D02*
X1984750Y1291609D01*
X1984977Y1290984*
X1985431Y1290359*
X1985431D02*
X1985886Y1290046D01*
X1985886D02*
X1986795D01*
X1986795D02*
X1987250Y1290359D01*
X1987704Y1290984*
X1987704D02*
X1987931Y1291609D01*
X1987931D02*
X1988159Y1292546D01*
X1988159D02*
Y1294109D01*
X1987931Y1295046*
X1987931D02*
X1987704Y1295671D01*
X1987704D02*
X1987250Y1296296D01*
X1987250D02*
X1986795Y1296609D01*
X1985886*
X1990204D02*
Y1290046D01*
Y1296609D02*
X1992250D01*
X1992931Y1296296*
X1992931D02*
X1993159Y1295984D01*
X1993386Y1295359*
Y1294421*
X1993386D02*
X1993159Y1293796D01*
X1993159D02*
X1992931Y1293484D01*
X1992931D02*
X1992250Y1293171D01*
X1992250D02*
X1990204D01*
G54D23*
X2026600Y1713953D03*
Y1707753D03*
X2032649Y1713900D03*
Y1707700D03*
X2079000Y1773553D03*
Y1767353D03*
X2054000Y1705453D03*
Y1699253D03*
X2053900Y1764053D03*
Y1757853D03*
X2048852Y1804779D03*
Y1798579D03*
X2067500Y1806053D03*
Y1799853D03*
X2119500Y1800053D03*
Y1793853D03*
X1996500Y1827553D03*
Y1821353D03*
X2058000Y1887553D03*
Y1881353D03*
X2064000Y1880853D03*
Y1887053D03*
X1973000Y1843053D03*
Y1836853D03*
X2038000Y1802053D03*
Y1795853D03*
X2039500Y1486853D03*
Y1493053D03*
X1997500Y1458853D03*
Y1465053D03*
X2041600Y1374553D03*
Y1368353D03*
X2085302Y1400140D03*
Y1406340D03*
X2038000Y1833353D03*
Y1827153D03*
X2064900Y1415653D03*
Y1421853D03*
X2055811Y1805445D03*
Y1799245D03*
X2038000Y1809853D03*
Y1816053D03*
X2008092Y1820577D03*
Y1814377D03*
X2014093Y1820406D03*
Y1814206D03*
X2032000Y1486853D03*
Y1493053D03*
X2013420Y1849574D03*
Y1855774D03*
X2013500Y1842053D03*
Y1835853D03*
X2048700Y1428053D03*
Y1434253D03*
X2056200Y1428053D03*
Y1434253D03*
Y1414853D03*
Y1421053D03*
X2048700Y1414853D03*
Y1421053D03*
X2010000Y1524453D03*
Y1518253D03*
X2095800Y1533853D03*
Y1527653D03*
X1982500Y1469053D03*
Y1462853D03*
X1976500D03*
Y1469053D03*
X2042000Y1648953D03*
Y1655153D03*
X2016200Y1386953D03*
Y1393153D03*
X2045900Y1492853D03*
Y1486653D03*
X2002000Y1827553D03*
Y1821353D03*
X2103000Y1686353D03*
Y1692553D03*
X2054100Y1682453D03*
Y1688653D03*
X1995400Y1428853D03*
Y1422653D03*
X1970300Y1507553D03*
Y1501353D03*
X1996100Y1811653D03*
Y1805453D03*
X1973900Y1866353D03*
Y1872553D03*
X2041500Y1888253D03*
Y1882053D03*
X2035000Y1888253D03*
Y1882053D03*
X1969600Y1799053D03*
Y1792853D03*
X2003400Y1887853D03*
Y1881653D03*
X1899000Y1858653D03*
Y1864853D03*
X1893300Y1858653D03*
Y1864853D03*
X2099500Y1807053D03*
Y1800853D03*
X2073500Y1806053D03*
Y1799853D03*
X2048000Y1887753D03*
Y1881553D03*
X1954400Y1842953D03*
Y1836753D03*
X1927300Y1491953D03*
Y1498153D03*
X1906000Y1597553D03*
Y1591353D03*
X1913000Y1597553D03*
Y1591353D03*
X2007500Y1619553D03*
Y1613353D03*
X1920000Y1597553D03*
Y1591353D03*
X1952000Y1597553D03*
Y1591353D03*
X1964000Y1616353D03*
Y1610153D03*
X1969500Y1469053D03*
Y1462853D03*
X1936400Y1408953D03*
Y1402753D03*
X1942900Y1408953D03*
Y1402753D03*
X1933800Y1491953D03*
Y1498153D03*
X2021700Y1387053D03*
Y1393253D03*
X1939500Y1491953D03*
Y1498153D03*
X1982000Y1408853D03*
Y1402653D03*
X1949400Y1408953D03*
Y1402753D03*
X1952200Y1477153D03*
Y1470953D03*
X1951500Y1381653D03*
Y1375453D03*
X1958000Y1381653D03*
Y1375453D03*
X1980000Y1866453D03*
Y1872653D03*
X1990100Y1811453D03*
Y1805253D03*
X1899000Y1836053D03*
Y1829853D03*
X1967600Y1872353D03*
Y1866153D03*
X2002100Y1805553D03*
Y1811753D03*
X1976600Y1616553D03*
Y1610353D03*
X1970100D03*
Y1616553D03*
X1999100Y1638853D03*
Y1645053D03*
X1961600Y1646153D03*
Y1639953D03*
X2096000Y1455853D03*
Y1462053D03*
X2000600Y1428853D03*
Y1422653D03*
X1975900Y1507553D03*
Y1501353D03*
X1970000Y1371053D03*
Y1364853D03*
X2006400Y1422753D03*
Y1428953D03*
X1981900Y1501353D03*
Y1507553D03*
X1997500Y1444353D03*
Y1450553D03*
X2073200Y1773553D03*
Y1767353D03*
X2067300Y1773553D03*
Y1767353D03*
X2020500Y1714053D03*
Y1707853D03*
X2054000Y1742053D03*
Y1735853D03*
G54D24*
X2039900Y1741953D03*
X2046100D03*
X2112600Y1800453D03*
X2106400D03*
Y1807453D03*
X2112600D03*
X2064600Y1843953D03*
X2058400D03*
X2061400Y1894453D03*
X2067600D03*
X2027296Y1813667D03*
X2021096D03*
X2077656Y1412118D03*
X2071456D03*
X2080369Y1466764D03*
X2074169D03*
X2080369Y1472508D03*
X2074169D03*
X2021600Y1491453D03*
X2015400D03*
X2074400Y1477953D03*
X2080600D03*
X2048938Y1376831D03*
X2055138D03*
X2026300Y1374453D03*
X2032500D03*
X2026300Y1379853D03*
X2032500D03*
X2035100Y1408653D03*
X2028900D03*
X2071663Y1406306D03*
X2077863D03*
X2071663Y1400648D03*
X2077863D03*
X2072000Y1394453D03*
X2078200D03*
X2072000Y1385953D03*
X2078200D03*
X2021400Y1444453D03*
X2027600D03*
X2018700Y1828153D03*
X2012500D03*
X2017100Y1862153D03*
X2023300D03*
X2017000Y1867953D03*
X2023200D03*
X1977200Y1856853D03*
X1983400D03*
X2027072Y1820388D03*
X2020872D03*
X2034400Y1849453D03*
X2040600D03*
X2034400Y1843453D03*
X2040600D03*
X2019000Y1576353D03*
X2012800D03*
X2056200Y1408553D03*
X2062400D03*
X2048700Y1408653D03*
X2042500D03*
X2060200Y1773453D03*
X2054000D03*
X2060500Y1699553D03*
X2066700D03*
X2020900Y1843453D03*
X2027100D03*
X2020400Y1849453D03*
X2026600D03*
X2027600Y1462953D03*
X2021400D03*
X2034400Y1503953D03*
X2028200D03*
X2083100Y1452953D03*
X2076900D03*
X2083100Y1445953D03*
X2076900D03*
X2062000Y1503953D03*
X2068200D03*
X2048400D03*
X2054600D03*
X2027200Y1576353D03*
X2033400D03*
X2027200Y1582853D03*
X2033400D03*
X1948600Y1842953D03*
X1942400D03*
X2102100Y1472453D03*
X2095900D03*
X2044600Y1532453D03*
X2038400D03*
X2017200Y1379653D03*
X2011000D03*
X2024400Y1532453D03*
X2030600D03*
X2058600D03*
X2052400D03*
X2021400Y1479953D03*
X2027600D03*
X2014400Y1503953D03*
X2020600D03*
X2076900Y1458953D03*
X2083100D03*
X2021400Y1468453D03*
X2027600D03*
X2015400Y1485453D03*
X2021600D03*
X2021400Y1455453D03*
X2027600D03*
X2021400Y1449953D03*
X2027600D03*
X2083100Y1434453D03*
X2076900D03*
X2083100Y1439953D03*
X2076900D03*
X1942400Y1836453D03*
X1948600D03*
X1950100Y1790953D03*
X1943900D03*
X1950100Y1785453D03*
X1943900D03*
X1960400Y1842953D03*
X1966600D03*
X1979400D03*
X1985600D03*
X2064100Y1874953D03*
X2057900D03*
X2064600Y1849453D03*
X2058400D03*
X1950100Y1797453D03*
X1943900D03*
X2045600Y1618953D03*
X2039400D03*
X2028800Y1402853D03*
X2035000D03*
X2039500Y1713953D03*
X2045700D03*
X1986100Y1675953D03*
X1979900D03*
X1891100Y1829953D03*
X1884900D03*
X1962600Y1364953D03*
X1956400D03*
X2021400Y1474453D03*
X2027600D03*
X1984600Y1584453D03*
X1978400D03*
X1976100Y1755453D03*
X1969900D03*
X1979100Y1526953D03*
X1972900D03*
X1984600Y1575453D03*
X1978400D03*
X2055600Y1440153D03*
X2049400D03*
G54D25*
X2061512Y1834447D03*
X2059012D03*
X2056512D03*
X2054012D03*
X2051512D03*
X2049012D03*
X2046512D03*
X2044012D03*
Y1813947D03*
X2046512D03*
X2049012D03*
X2051512D03*
X2054012D03*
X2056512D03*
X2059012D03*
X2061512D03*
G54D26*
X2052762Y1824197D03*
G54D27*
X1908500Y1793653D03*
X1913500D03*
X1918500D03*
X1923500D03*
Y1813253D03*
X1918500D03*
X1913500D03*
X1908500D03*
X1907833Y1450413D03*
X1912833D03*
X1917833D03*
X1922833D03*
Y1470013D03*
X1917833D03*
X1912833D03*
X1907833D03*
G54D30*
X2012800Y1592303D03*
X2010200D03*
X2007600D03*
Y1584803D03*
X2010200D03*
X2012800D03*
X2054000Y1789203D03*
X2051400D03*
X2048800D03*
Y1781703D03*
X2051400D03*
X2054000D03*
G54D31*
X2063704Y1446822D03*
Y1449381D03*
Y1451940D03*
Y1454499D03*
Y1457058D03*
Y1459617D03*
Y1462176D03*
Y1464735D03*
Y1467294D03*
Y1469853D03*
Y1472412D03*
Y1474971D03*
Y1477530D03*
Y1480089D03*
X2040319D03*
Y1477530D03*
Y1474971D03*
Y1472412D03*
Y1469853D03*
Y1467294D03*
Y1464735D03*
Y1462176D03*
Y1459617D03*
Y1457058D03*
Y1454499D03*
Y1451940D03*
Y1449381D03*
Y1446822D03*
G54D33*
X2072899Y1658667D03*
Y1661226D03*
Y1663785D03*
Y1666344D03*
X2054002D03*
Y1663785D03*
Y1661226D03*
Y1658667D03*
X2019548Y1407414D03*
Y1409973D03*
Y1412532D03*
Y1415091D03*
X2000651D03*
Y1412532D03*
Y1409973D03*
Y1407414D03*
X2015451Y1644491D03*
Y1641932D03*
Y1639373D03*
Y1636814D03*
X2034348D03*
Y1639373D03*
Y1641932D03*
Y1644491D03*
X1966251Y1887891D03*
Y1885332D03*
Y1882773D03*
Y1880214D03*
X1985148D03*
Y1882773D03*
Y1885332D03*
Y1887891D03*
X2006548Y1790414D03*
Y1792973D03*
Y1795532D03*
Y1798091D03*
X1987651D03*
Y1795532D03*
Y1792973D03*
Y1790414D03*
X1988948Y1595114D03*
Y1597673D03*
Y1600232D03*
Y1602791D03*
X1970051D03*
Y1600232D03*
Y1597673D03*
Y1595114D03*
X1988448Y1482614D03*
Y1485173D03*
Y1487732D03*
Y1490291D03*
X1969551D03*
Y1487732D03*
Y1485173D03*
Y1482614D03*
G54D34*
X2007077Y1839072D03*
Y1841040D03*
Y1843009D03*
Y1844977D03*
Y1846946D03*
Y1848914D03*
X1992706D03*
Y1846946D03*
Y1844977D03*
Y1843009D03*
Y1841040D03*
Y1839072D03*
X2047061Y1398139D03*
Y1396170D03*
Y1394202D03*
Y1392233D03*
Y1390265D03*
Y1388296D03*
X2061431D03*
Y1390265D03*
Y1392233D03*
Y1394202D03*
Y1396170D03*
Y1398139D03*
G54D35*
X2004813Y1851178D03*
X2002844D03*
X2000876D03*
X1998907D03*
X1996939D03*
X1994970D03*
Y1836808D03*
X1996939D03*
X1998907D03*
X2000876D03*
X2002844D03*
X2004813D03*
X2059168Y1400403D03*
X2057199D03*
X2055230D03*
X2053262D03*
X2051293D03*
X2049325D03*
Y1386033D03*
X2051293D03*
X2053262D03*
X2055230D03*
X2057199D03*
X2059168D03*
G54D36*
X1999891Y1843796D03*
X2054443Y1393218D03*
G54D37*
X2042500Y1513453D03*
Y1524453D03*
X2031000Y1513453D03*
Y1524453D03*
X2054600Y1513453D03*
Y1524453D03*
X2018000D03*
Y1513453D03*
X2068000Y1868453D03*
Y1857453D03*
X2054000Y1868453D03*
Y1857453D03*
G54D38*
X2093000Y1809953D03*
X2082000D03*
X2093000Y1797453D03*
X2082000D03*
G54D39*
X1911500Y1858703D03*
Y1872203D03*
X1978600Y1799203D03*
Y1785703D03*
X1994800Y1887903D03*
Y1874403D03*
X1960500Y1597703D03*
Y1584203D03*
X1961000Y1481203D03*
Y1467703D03*
X1992500Y1409003D03*
Y1395503D03*
X1942500Y1381703D03*
Y1368203D03*
X1960500Y1785203D03*
Y1798703D03*
X2025450Y1887853D03*
X2011950D03*
X1899050Y1846253D03*
X1885550D03*
X1929250Y1597453D03*
X1942750D03*
X1959650Y1408853D03*
X1973150D03*
X1939500Y1482403D03*
Y1468903D03*
X1967500Y1381703D03*
Y1395203D03*
X2092750Y1784453D03*
X2079250D03*
X2114000Y1428703D03*
Y1442203D03*
G54D41*
X1985800Y1440453D03*
Y1445453D03*
Y1450453D03*
Y1455453D03*
X1966200D03*
Y1450453D03*
Y1445453D03*
Y1440453D03*
G54D42*
X1980300Y1365153D03*
X2000300D03*
Y1381753D03*
X1980300D03*
X1911500Y1829653D03*
X1931500D03*
Y1846253D03*
X1911500D03*
G54D43*
X1970400Y1659953D03*
Y1654953D03*
Y1649953D03*
Y1644953D03*
Y1639953D03*
Y1634953D03*
Y1629953D03*
X1990800D03*
Y1634953D03*
Y1639953D03*
Y1644953D03*
Y1649953D03*
Y1654953D03*
Y1659953D03*
G54D44*
X2054000Y1726153D03*
Y1714353D03*
G54D45*
X2054232Y1720253D03*
G54D46*
X2095500Y1692053D03*
X2091562D03*
Y1686935D03*
G54D47*
X2094811Y1685852D02*
Y1687715D01*
X2095211Y1688116*
X2095211D02*
X2096307D01*
Y1685852*
X2094811*
X2096307*
X2094811Y1686836D02*
X2096307D01*
X2094916Y1687820D02*
X2096307D01*
X2094811Y1685852D02*
Y1687715D01*
X2095795Y1685852D02*
Y1688116D01*
X0Y0D02*
M02*
