G04 start of page 7 for group -4062 idx -4062
G04 Title: (unknown), soldermask *
G04 Creator: pcb 20080202 *
G04 CreationDate: Sat 15 Mar 2008 09:09:28 PM GMT UTC *
G04 For: matt *
G04 Format: Gerber/RS-274X *
G04 PCB-Dimensions: 360000 350000 *
G04 PCB-Coordinate-Origin: lower left *
%MOIN*%
%FSLAX24Y24*%
%LNBACKMASK*%
%ADD13C,0.0200*%
%ADD22C,0.1300*%
%ADD23C,0.0660*%
G54D22*X13200Y32500D03*
X15200D03*
X31300D03*
X33300D03*
X2200D03*
X4200D03*
Y30500D03*
X2200D03*
X3200Y31500D03*
X15200Y30500D03*
X33300D03*
X31300D03*
X32300Y31500D03*
X13200Y30500D03*
X14200Y31500D03*
X20200Y32500D03*
X22200D03*
Y30500D03*
X20200D03*
X21200Y31500D03*
X13200Y21500D03*
Y19500D03*
X14200Y20500D03*
X13200Y26400D03*
Y24400D03*
X14200Y25400D03*
X15200Y21500D03*
Y19500D03*
Y26400D03*
Y24400D03*
X19500Y20900D03*
X21500D03*
Y18900D03*
X19500D03*
X20500Y19900D03*
G54D13*G36*
X8370Y17330D02*Y16670D01*
X9030D01*
Y17330D01*
X8370D01*
G37*
G54D23*X8700Y16000D03*
Y15000D03*
Y14000D03*
G54D22*X31300Y15700D03*
Y13700D03*
X32300Y14700D03*
X33300Y15700D03*
G54D13*G36*
X33670Y18930D02*Y18270D01*
X34330D01*
Y18930D01*
X33670D01*
G37*
G54D23*X34000Y19600D03*
Y20600D03*
Y21600D03*
G54D22*X33300Y13700D03*
Y10600D03*
Y8600D03*
X31300Y10600D03*
Y8600D03*
X32300Y9600D03*
X31300Y5300D03*
X32300Y4300D03*
X33300Y5300D03*
Y3300D03*
X31300D03*
X20100Y15700D03*
X22100D03*
Y13700D03*
X20100D03*
X21100Y14700D03*
X20100Y10600D03*
Y8600D03*
X21100Y9600D03*
X20100Y5300D03*
Y3300D03*
X21100Y4300D03*
X22100Y10600D03*
Y8600D03*
Y5300D03*
Y3300D03*
X4100Y5300D03*
Y3300D03*
X3100Y4300D03*
G54D13*G36*
X22970Y27330D02*Y26670D01*
X23630D01*
Y27330D01*
X22970D01*
G37*
G54D22*X31300Y26500D03*
X33300D03*
G54D23*X23300Y26000D03*
Y25000D03*
Y24000D03*
G54D22*X33300Y24500D03*
X31300D03*
X32300Y25500D03*
X2100Y10600D03*
X4100D03*
Y8600D03*
X4200Y21500D03*
Y19500D03*
X3200Y20500D03*
X4100Y16200D03*
Y14200D03*
X3100Y9600D03*
Y15200D03*
X2100Y8600D03*
Y3300D03*
Y5300D03*
X13300D03*
X15300D03*
Y3300D03*
X13300D03*
X14300Y4300D03*
X13300Y10600D03*
Y8600D03*
X14300Y9600D03*
X15300Y10600D03*
Y8600D03*
G54D13*G36*
X15170Y14130D02*Y13470D01*
X15830D01*
Y14130D01*
X15170D01*
G37*
G54D23*X15500Y14800D03*
Y15800D03*
Y16800D03*
G54D22*X2200Y21500D03*
Y19500D03*
X2100Y16200D03*
Y14200D03*
X2200Y26400D03*
X4200D03*
Y24400D03*
X2200D03*
X3200Y25400D03*
M02*
