M48
INCH,TZ
T13C0.020
T14C0.060
T16C0.038
%
T13
X010200Y024100
X010700Y010800
X008700Y005400
X010300Y005400
X010300Y003100
X008700Y003100
X011600Y024100
X011800Y010500
X011800Y005400
X011900Y003200
X005900Y008400
X007100Y007600
X005400Y005400
X006900Y005400
X006900Y003200
X005400Y003200
X005300Y024100
X006500Y024100
X007600Y024100
X009100Y024100
X006200Y019200
X010100Y019400
X011500Y019400
X005500Y026500
X005300Y016400
X006400Y026500
X007500Y026500
X008500Y026500
X009700Y026500
X010800Y026500
X011800Y026500
X023400Y005700
X023400Y003300
X023700Y011100
X024100Y008700
X026300Y005700
X028000Y005700
X029400Y005800
X029400Y003200
X029600Y011100
X030100Y008700
X029700Y013700
X026300Y003000
X024700Y003100
X023400Y013700
X024000Y015700
X022900Y019000
X023400Y030500
X024800Y030600
X023200Y032200
X021700Y032200
X024800Y032400
X024700Y005700
X025400Y011200
X026500Y008400
X028000Y003100
X027700Y011000
X028100Y008700
X027700Y013700
X028700Y015700
X028300Y030500
X029600Y026300
X029900Y030400
X026600Y032300
X025100Y013700
X026400Y015800
X026800Y030300
X027000Y017800
X027900Y032300
T16
X008700Y017000
X008700Y016000
X008700Y015000
X008700Y014000
X034000Y018600
X034000Y019600
X034000Y020600
X034000Y021600
X023300Y027000
X023300Y026000
X023300Y025000
X023300Y024000
X015500Y013800
X015500Y014800
X015500Y015800
X015500Y016800
T14
X013200Y032500
X015200Y032500
X031300Y032500
X033300Y032500
X002200Y032500
X004200Y032500
X004200Y030500
X002200Y030500
X003200Y031500
X015200Y030500
X033300Y030500
X031300Y030500
X032300Y031500
X013200Y030500
X014200Y031500
X020200Y032500
X022200Y032500
X022200Y030500
X020200Y030500
X021200Y031500
X013200Y021500
X013200Y019500
X014200Y020500
X013200Y026400
X013200Y024400
X014200Y025400
X015200Y021500
X015200Y019500
X015200Y026400
X015200Y024400
X019500Y020900
X021500Y020900
X021500Y018900
X019500Y018900
X020500Y019900
X031300Y015700
X031300Y013700
X032300Y014700
X033300Y015700
X033300Y013700
X033300Y010600
X033300Y008600
X031300Y010600
X031300Y008600
X032300Y009600
X031300Y005300
X032300Y004300
X033300Y005300
X033300Y003300
X031300Y003300
X020100Y015700
X022100Y015700
X022100Y013700
X020100Y013700
X021100Y014700
X020100Y010600
X020100Y008600
X021100Y009600
X020100Y005300
X020100Y003300
X021100Y004300
X022100Y010600
X022100Y008600
X022100Y005300
X022100Y003300
X004100Y005300
X004100Y003300
X003100Y004300
X031300Y026500
X033300Y026500
X033300Y024500
X031300Y024500
X032300Y025500
X002100Y010600
X004100Y010600
X004100Y008600
X004200Y021500
X004200Y019500
X003200Y020500
X004100Y016200
X004100Y014200
X003100Y009600
X003100Y015200
X002100Y008600
X002100Y003300
X002100Y005300
X013300Y005300
X015300Y005300
X015300Y003300
X013300Y003300
X014300Y004300
X013300Y010600
X013300Y008600
X014300Y009600
X015300Y010600
X015300Y008600
X002200Y021500
X002200Y019500
X002100Y016200
X002100Y014200
X002200Y026400
X004200Y026400
X004200Y024400
X002200Y024400
X003200Y025400
M30
