G04 start of page 2 for group 0 idx 0
G04 Title: (unknown), solder *
G04 Creator: pcb 20080202 *
G04 CreationDate: Sat 15 Mar 2008 09:09:27 PM GMT UTC *
G04 For: matt *
G04 Format: Gerber/RS-274X *
G04 PCB-Dimensions: 360000 350000 *
G04 PCB-Coordinate-Origin: lower left *
%MOIN*%
%FSLAX24Y24*%
%LNBACK*%
%ADD11C,0.0100*%
%ADD12C,0.1000*%
%ADD13C,0.0200*%
%ADD14C,0.0600*%
%ADD15C,0.0360*%
%ADD16C,0.0380*%
G54D11*X26300Y1022D02*Y1510D01*
X26544D01*
X26873Y1266D02*X26934Y1327D01*
X26751Y1266D02*X26873D01*
X26690Y1327D02*X26751Y1266D01*
X26690Y1327D02*Y1449D01*
X26751Y1510D01*
X26934Y1266D02*Y1449D01*
X26995Y1510D01*
X26751D02*X26873D01*
X26934Y1449D01*
X27142Y1266D02*Y1449D01*
X27203Y1510D01*
X27386Y1266D02*Y1632D01*
X27325Y1693D02*X27386Y1632D01*
X27203Y1693D02*X27325D01*
X27142Y1632D02*X27203Y1693D01*
Y1510D02*X27325D01*
X27386Y1449D01*
X27593Y1510D02*X27776D01*
X27532Y1449D02*X27593Y1510D01*
X27532Y1327D02*Y1449D01*
Y1327D02*X27593Y1266D01*
X27715D01*
X27776Y1327D01*
X27532Y1388D02*X27776D01*
Y1327D02*Y1388D01*
X27984Y1327D02*Y1510D01*
Y1327D02*X28045Y1266D01*
X28167D01*
X27923D02*X27984Y1327D01*
X28533Y1266D02*X28777Y1022D01*
X28533Y1266D02*X28838D01*
X28777Y1022D02*Y1510D01*
X29204Y1449D02*X29265Y1510D01*
X29204Y1083D02*X29265Y1022D01*
X29204Y1083D02*Y1449D01*
X29411Y1510D02*X29655D01*
X29716Y1449D01*
Y1327D02*Y1449D01*
X29655Y1266D02*X29716Y1327D01*
X29472Y1266D02*X29655D01*
X29472Y1022D02*Y1510D01*
X29411Y1022D02*X29655D01*
X29716Y1083D01*
Y1205D01*
X29655Y1266D02*X29716Y1205D01*
X29863Y1083D02*Y1510D01*
Y1083D02*X29924Y1022D01*
X30107D01*
X30168Y1083D01*
Y1510D01*
X29863Y1266D02*X30168D01*
X30375Y1510D02*X30558D01*
X30314Y1449D02*X30375Y1510D01*
X30314Y1083D02*Y1449D01*
Y1083D02*X30375Y1022D01*
X30558D01*
X30705D02*Y1510D01*
Y1266D02*X30949Y1022D01*
X30705Y1266D02*X30949Y1510D01*
X31095Y1022D02*X31156Y1083D01*
Y1449D01*
X31095Y1510D02*X31156Y1449D01*
X31767Y1022D02*X31828Y1083D01*
X31584Y1022D02*X31767D01*
X31523Y1083D02*X31584Y1022D01*
X31523Y1083D02*Y1205D01*
X31584Y1266D01*
X31767D01*
X31828Y1327D01*
Y1449D01*
X31767Y1510D02*X31828Y1449D01*
X31584Y1510D02*X31767D01*
X31523Y1449D02*X31584Y1510D01*
X31974Y1327D02*Y1449D01*
Y1327D02*X32035Y1266D01*
X32157D01*
X32218Y1327D01*
Y1449D01*
X32157Y1510D02*X32218Y1449D01*
X32035Y1510D02*X32157D01*
X31974Y1449D02*X32035Y1510D01*
X32365Y1022D02*Y1449D01*
X32426Y1510D01*
X32792Y1022D02*Y1510D01*
X32731D02*X32792Y1449D01*
X32609Y1510D02*X32731D01*
X32548Y1449D02*X32609Y1510D01*
X32548Y1327D02*Y1449D01*
Y1327D02*X32609Y1266D01*
X32731D01*
X32792Y1327D01*
X32999Y1510D02*X33182D01*
X32938Y1449D02*X32999Y1510D01*
X32938Y1327D02*Y1449D01*
Y1327D02*X32999Y1266D01*
X33121D01*
X33182Y1327D01*
X32938Y1388D02*X33182D01*
Y1327D02*Y1388D01*
X33390Y1327D02*Y1510D01*
Y1327D02*X33451Y1266D01*
X33573D01*
X33329D02*X33390Y1327D01*
X34183Y1022D02*X34244Y1083D01*
X34000Y1022D02*X34183D01*
X33939Y1083D02*X34000Y1022D01*
X33939Y1083D02*Y1205D01*
X34000Y1266D01*
X34183D01*
X34244Y1327D01*
Y1449D01*
X34183Y1510D02*X34244Y1449D01*
X34000Y1510D02*X34183D01*
X33939Y1449D02*X34000Y1510D01*
X34390Y1144D02*Y1205D01*
Y1327D02*Y1510D01*
X34757Y1022D02*Y1510D01*
X34696D02*X34757Y1449D01*
X34574Y1510D02*X34696D01*
X34513Y1449D02*X34574Y1510D01*
X34513Y1327D02*Y1449D01*
Y1327D02*X34574Y1266D01*
X34696D01*
X34757Y1327D01*
X34964Y1510D02*X35147D01*
X34903Y1449D02*X34964Y1510D01*
X34903Y1327D02*Y1449D01*
Y1327D02*X34964Y1266D01*
X35086D01*
X35147Y1327D01*
X34903Y1388D02*X35147D01*
Y1327D02*Y1388D01*
G54D12*X13200Y32500D03*
X15200D03*
X31300D03*
X33300D03*
X2200D03*
X4200D03*
Y30500D03*
X2200D03*
X3200Y31500D03*
X15200Y30500D03*
X33300D03*
X31300D03*
X32300Y31500D03*
X13200Y30500D03*
X14200Y31500D03*
X20200Y32500D03*
X22200D03*
Y30500D03*
X20200D03*
X21200Y31500D03*
X13200Y21500D03*
Y19500D03*
X14200Y20500D03*
X13200Y26400D03*
Y24400D03*
X14200Y25400D03*
X15200Y21500D03*
Y19500D03*
Y26400D03*
Y24400D03*
X19500Y20900D03*
X21500D03*
Y18900D03*
X19500D03*
X20500Y19900D03*
G54D13*G36*
X8400Y17300D02*Y16700D01*
X9000D01*
Y17300D01*
X8400D01*
G37*
G54D14*X8700Y16000D03*
Y15000D03*
Y14000D03*
G54D12*X31300Y15700D03*
Y13700D03*
X32300Y14700D03*
X33300Y15700D03*
G54D13*G36*
X33700Y18900D02*Y18300D01*
X34300D01*
Y18900D01*
X33700D01*
G37*
G54D14*X34000Y19600D03*
Y20600D03*
Y21600D03*
G54D12*X33300Y13700D03*
Y10600D03*
Y8600D03*
X31300Y10600D03*
Y8600D03*
X32300Y9600D03*
X31300Y5300D03*
X32300Y4300D03*
X33300Y5300D03*
Y3300D03*
X31300D03*
X20100Y15700D03*
X22100D03*
Y13700D03*
X20100D03*
X21100Y14700D03*
X20100Y10600D03*
Y8600D03*
X21100Y9600D03*
X20100Y5300D03*
Y3300D03*
X21100Y4300D03*
X22100Y10600D03*
Y8600D03*
Y5300D03*
Y3300D03*
X4100Y5300D03*
Y3300D03*
X3100Y4300D03*
G54D13*G36*
X23000Y27300D02*Y26700D01*
X23600D01*
Y27300D01*
X23000D01*
G37*
G54D12*X31300Y26500D03*
X33300D03*
G54D14*X23300Y26000D03*
Y25000D03*
Y24000D03*
G54D12*X33300Y24500D03*
X31300D03*
X32300Y25500D03*
X2100Y10600D03*
X4100D03*
Y8600D03*
X4200Y21500D03*
Y19500D03*
X3200Y20500D03*
X4100Y16200D03*
Y14200D03*
X3100Y9600D03*
Y15200D03*
X2100Y8600D03*
Y3300D03*
Y5300D03*
X13300D03*
X15300D03*
Y3300D03*
X13300D03*
X14300Y4300D03*
X13300Y10600D03*
Y8600D03*
X14300Y9600D03*
X15300Y10600D03*
Y8600D03*
G54D13*G36*
X15200Y14100D02*Y13500D01*
X15800D01*
Y14100D01*
X15200D01*
G37*
G54D14*X15500Y14800D03*
Y15800D03*
Y16800D03*
G54D12*X2200Y21500D03*
Y19500D03*
X2100Y16200D03*
Y14200D03*
X2200Y26400D03*
X4200D03*
Y24400D03*
X2200D03*
X3200Y25400D03*
G54D15*X10200Y24100D03*
X10700Y10800D03*
X8700Y5400D03*
X10300D03*
Y3100D03*
X8700D03*
X11600Y24100D03*
X11800Y10500D03*
Y5400D03*
X11900Y3200D03*
X5900Y8400D03*
X7100Y7600D03*
X5400Y5400D03*
X6900D03*
Y3200D03*
X5400D03*
X5300Y24100D03*
X6500D03*
X7600D03*
X9100D03*
X6200Y19200D03*
X10100Y19400D03*
X11500D03*
X5500Y26500D03*
X5300Y16400D03*
X6400Y26500D03*
X7500D03*
X8500D03*
X9700D03*
X10800D03*
X11800D03*
X23400Y5700D03*
Y3300D03*
X23700Y11100D03*
X24100Y8700D03*
X26300Y5700D03*
X28000D03*
X29400Y5800D03*
Y3200D03*
X29600Y11100D03*
X30100Y8700D03*
X29700Y13700D03*
X26300Y3000D03*
X24700Y3100D03*
X23400Y13700D03*
X24000Y15700D03*
X22900Y19000D03*
X23400Y30500D03*
X24800Y30600D03*
X23200Y32200D03*
X21700D03*
X24800Y32400D03*
X24700Y5700D03*
X25400Y11200D03*
X26500Y8400D03*
X28000Y3100D03*
X27700Y11000D03*
X28100Y8700D03*
X27700Y13700D03*
X28700Y15700D03*
X28300Y30500D03*
X29600Y26300D03*
X29900Y30400D03*
X26600Y32300D03*
X25100Y13700D03*
X26400Y15800D03*
X26800Y30300D03*
X27000Y17800D03*
X27900Y32300D03*
G54D14*G54D16*G54D14*G54D16*G54D14*G54D16*G54D14*G54D16*G54D14*G54D16*G54D14*G54D13*M02*
