G04 start of page 6 for group -4063 idx -4063
G04 Title: (unknown), componentmask *
G04 Creator: pcb 20080202 *
G04 CreationDate: Sat 15 Mar 2008 09:09:28 PM GMT UTC *
G04 For: matt *
G04 Format: Gerber/RS-274X *
G04 PCB-Dimensions: 360000 350000 *
G04 PCB-Coordinate-Origin: lower left *
%MOIN*%
%FSLAX24Y24*%
%LNFRONTMASK*%
%ADD13C,0.0200*%
%ADD22C,0.1300*%
%ADD23C,0.0660*%
%ADD24R,0.0355X0.0355*%
%ADD25R,0.0572X0.0572*%
%ADD26R,0.0257X0.0257*%
%ADD27R,0.0750X0.0750*%
G54D22*X13200Y32500D03*
X15200D03*
X31300D03*
X33300D03*
X2200D03*
X4200D03*
Y30500D03*
X2200D03*
X3200Y31500D03*
X15200Y30500D03*
X33300D03*
X31300D03*
X32300Y31500D03*
X13200Y30500D03*
X14200Y31500D03*
X20200Y32500D03*
X22200D03*
Y30500D03*
X20200D03*
X21200Y31500D03*
X13200Y21500D03*
Y19500D03*
X14200Y20500D03*
X13200Y26400D03*
Y24400D03*
X14200Y25400D03*
X15200Y21500D03*
Y19500D03*
Y26400D03*
Y24400D03*
X19500Y20900D03*
X21500D03*
Y18900D03*
X19500D03*
X20500Y19900D03*
G54D13*G36*
X8370Y17330D02*Y16670D01*
X9030D01*
Y17330D01*
X8370D01*
G37*
G54D23*X8700Y16000D03*
Y15000D03*
Y14000D03*
G54D22*X31300Y15700D03*
Y13700D03*
X32300Y14700D03*
X33300Y15700D03*
G54D13*G36*
X33670Y18930D02*Y18270D01*
X34330D01*
Y18930D01*
X33670D01*
G37*
G54D23*X34000Y19600D03*
Y20600D03*
Y21600D03*
G54D22*X33300Y13700D03*
Y10600D03*
Y8600D03*
X31300Y10600D03*
Y8600D03*
X32300Y9600D03*
X31300Y5300D03*
X32300Y4300D03*
X33300Y5300D03*
Y3300D03*
X31300D03*
X20100Y15700D03*
X22100D03*
Y13700D03*
X20100D03*
X21100Y14700D03*
X20100Y10600D03*
Y8600D03*
X21100Y9600D03*
X20100Y5300D03*
Y3300D03*
X21100Y4300D03*
X22100Y10600D03*
Y8600D03*
Y5300D03*
Y3300D03*
X4100Y5300D03*
Y3300D03*
X3100Y4300D03*
G54D13*G36*
X22970Y27330D02*Y26670D01*
X23630D01*
Y27330D01*
X22970D01*
G37*
G54D22*X31300Y26500D03*
X33300D03*
G54D23*X23300Y26000D03*
Y25000D03*
Y24000D03*
G54D22*X33300Y24500D03*
X31300D03*
X32300Y25500D03*
X2100Y10600D03*
X4100D03*
Y8600D03*
X4200Y21500D03*
Y19500D03*
X3200Y20500D03*
X4100Y16200D03*
Y14200D03*
X3100Y9600D03*
Y15200D03*
X2100Y8600D03*
Y3300D03*
Y5300D03*
X13300D03*
X15300D03*
Y3300D03*
X13300D03*
X14300Y4300D03*
X13300Y10600D03*
Y8600D03*
X14300Y9600D03*
X15300Y10600D03*
Y8600D03*
G54D13*G36*
X15170Y14130D02*Y13470D01*
X15830D01*
Y14130D01*
X15170D01*
G37*
G54D23*X15500Y14800D03*
Y15800D03*
Y16800D03*
G54D22*X2200Y21500D03*
Y19500D03*
X2100Y16200D03*
Y14200D03*
X2200Y26400D03*
X4200D03*
Y24400D03*
X2200D03*
X3200Y25400D03*
G54D24*X10750Y25355D02*X10849D01*
X10750Y24844D02*X10849D01*
X9855Y25449D02*Y25350D01*
X9344Y25449D02*Y25350D01*
G54D25*X6381Y15109D02*X6618D01*
X6381Y16290D02*X6618D01*
G54D24*X6150Y20455D02*X6249D01*
X6150Y19944D02*X6249D01*
G54D26*X10060Y20457D02*X10139D01*
X10060Y20142D02*X10139D01*
G54D24*X8350Y25355D02*X8449D01*
X8350Y24844D02*X8449D01*
X5850Y25355D02*X5949D01*
X5850Y24844D02*X5949D01*
X7155Y25449D02*Y25350D01*
X6644Y25449D02*Y25350D01*
G54D27*X7525Y10600D02*X7875D01*
X7525Y9600D02*X7875D01*
G54D24*X5850Y9855D02*X5949D01*
X5850Y9344D02*X5949D01*
G54D27*X7525Y8600D02*X7875D01*
G54D24*X8344Y4349D02*Y4250D01*
X8855Y4349D02*Y4250D01*
G54D27*X9525Y8600D02*X9875D01*
G54D24*X11550Y9344D02*X11649D01*
X11550Y9855D02*X11649D01*
G54D27*X9525Y9600D02*X9875D01*
X9525Y10600D02*X9875D01*
G54D24*X14450Y15144D02*X14549D01*
X14450Y15655D02*X14549D01*
G54D27*X12825Y14500D02*X13175D01*
G54D24*X9550Y15655D02*X9649D01*
X9550Y15144D02*X9649D01*
G54D27*X12825Y15500D02*X13175D01*
X12825Y16500D02*X13175D01*
X10825D02*X11175D01*
X10825Y15500D02*X11175D01*
X10825Y14500D02*X11175D01*
G54D24*X24744Y9649D02*Y9550D01*
X25255Y9649D02*Y9550D01*
X26450Y9655D02*X26549D01*
X24744Y10249D02*Y10150D01*
X25255Y10249D02*Y10150D01*
X29250Y9555D02*X29349D01*
X29250Y9044D02*X29349D01*
X27744Y10349D02*Y10250D01*
Y9649D02*Y9550D01*
X28255Y10349D02*Y10250D01*
Y9649D02*Y9550D01*
X26450Y9144D02*X26549D01*
X23450Y9655D02*X23549D01*
X23450Y9144D02*X23549D01*
G54D26*X26442Y14739D02*Y14660D01*
X26757Y14739D02*Y14660D01*
G54D25*X27190Y4418D02*Y4181D01*
X26009Y4418D02*Y4181D01*
G54D24*X28444Y21149D02*Y21050D01*
Y20649D02*Y20550D01*
X28955Y19349D02*Y19250D01*
X28444Y19349D02*Y19250D01*
X27150Y19844D02*X27249D01*
X27150Y20355D02*X27249D01*
X28955Y19949D02*Y19850D01*
X28444Y19949D02*Y19850D01*
X27750Y19844D02*X27849D01*
X27750Y20355D02*X27849D01*
X29650Y25044D02*X29749D01*
X29650Y25555D02*X29749D01*
G54D27*X28125Y24200D02*X28475D01*
X28125Y25200D02*X28475D01*
X28125Y26200D02*X28475D01*
G54D24*X25244Y31549D02*Y31450D01*
X25755Y31549D02*Y31450D01*
X24550Y25655D02*X24649D01*
X24550Y25144D02*X24649D01*
G54D27*X26125Y26200D02*X26475D01*
X26125Y25200D02*X26475D01*
X26125Y24200D02*X26475D01*
G54D24*X26901Y31500D02*X27000D01*
X26901Y30988D02*X27000D01*
X28955Y21149D02*Y21050D01*
Y20649D02*Y20550D01*
X29650Y19944D02*X29749D01*
X29650Y20455D02*X29749D01*
X30250Y19944D02*X30349D01*
X30250Y20455D02*X30349D01*
X31455Y20649D02*Y20550D01*
X30944Y20649D02*Y20550D01*
Y21249D02*Y21150D01*
X31455Y21249D02*Y21150D01*
X32850Y19944D02*X32949D01*
X32850Y20455D02*X32949D01*
X32050Y19944D02*X32149D01*
X32050Y20455D02*X32149D01*
X31455Y19949D02*Y19850D01*
X30944Y19949D02*Y19850D01*
X31455Y19349D02*Y19250D01*
X30944Y19349D02*Y19250D01*
G54D27*X23725Y20900D02*X24075D01*
X23725Y19900D02*X24075D01*
X23725Y18900D02*X24075D01*
G54D24*X22450Y20055D02*X22549D01*
X22450Y19544D02*X22549D01*
G54D27*X25725Y18900D02*X26075D01*
X25725Y19900D02*X26075D01*
X25725Y20900D02*X26075D01*
G54D24*X25544Y17850D02*Y17949D01*
X26055Y17850D02*Y17949D01*
M02*
