G04 start of page 11 for group -3984 idx -3984
G04 Title: (unknown), fab *
G04 Creator: pcb 20080202 *
G04 CreationDate: Sat 15 Mar 2008 09:09:28 PM GMT UTC *
G04 For: matt *
G04 Format: Gerber/RS-274X *
G04 PCB-Dimensions: 360000 350000 *
G04 PCB-Coordinate-Origin: lower left *
%MOIN*%
%FSLAX24Y24*%
%LNFAB*%
%ADD11C,0.0100*%
%ADD29R,0.0080X0.0080*%
%ADD30C,0.0060*%
G54D29*G54D13*G36*
X19980Y5476D02*X20276Y5180D01*
X20220Y5123D01*
X19923Y5420D01*
X19980Y5476D01*
G37*
G54D29*G54D13*G36*
X19923Y5180D02*X20220Y5476D01*
X20276Y5420D01*
X19980Y5123D01*
X19923Y5180D01*
G37*
G54D29*G54D13*G36*
X21980Y5476D02*X22276Y5180D01*
X22220Y5123D01*
X21923Y5420D01*
X21980Y5476D01*
G37*
G54D29*G54D13*G36*
X21923Y5180D02*X22220Y5476D01*
X22276Y5420D01*
X21980Y5123D01*
X21923Y5180D01*
G37*
G54D29*G54D13*G36*
X21980Y3476D02*X22276Y3180D01*
X22220Y3123D01*
X21923Y3420D01*
X21980Y3476D01*
G37*
G54D29*G54D13*G36*
X21923Y3180D02*X22220Y3476D01*
X22276Y3420D01*
X21980Y3123D01*
X21923Y3180D01*
G37*
G54D29*G54D13*G36*
X19980Y3476D02*X20276Y3180D01*
X20220Y3123D01*
X19923Y3420D01*
X19980Y3476D01*
G37*
G54D29*G54D13*G36*
X19923Y3180D02*X20220Y3476D01*
X20276Y3420D01*
X19980Y3123D01*
X19923Y3180D01*
G37*
G54D29*G54D13*G36*
X20980Y4476D02*X21276Y4180D01*
X21220Y4123D01*
X20923Y4420D01*
X20980Y4476D01*
G37*
G54D29*G54D13*G36*
X20923Y4180D02*X21220Y4476D01*
X21276Y4420D01*
X20980Y4123D01*
X20923Y4180D01*
G37*
G54D29*G54D13*G36*
X31180Y10776D02*X31476Y10480D01*
X31420Y10423D01*
X31123Y10720D01*
X31180Y10776D01*
G37*
G54D29*G54D13*G36*
X31123Y10480D02*X31420Y10776D01*
X31476Y10720D01*
X31180Y10423D01*
X31123Y10480D01*
G37*
G54D29*G54D13*G36*
X33180Y10776D02*X33476Y10480D01*
X33420Y10423D01*
X33123Y10720D01*
X33180Y10776D01*
G37*
G54D29*G54D13*G36*
X33123Y10480D02*X33420Y10776D01*
X33476Y10720D01*
X33180Y10423D01*
X33123Y10480D01*
G37*
G54D29*G54D13*G36*
X33180Y8776D02*X33476Y8480D01*
X33420Y8423D01*
X33123Y8720D01*
X33180Y8776D01*
G37*
G54D29*G54D13*G36*
X33123Y8480D02*X33420Y8776D01*
X33476Y8720D01*
X33180Y8423D01*
X33123Y8480D01*
G37*
G54D29*G54D13*G36*
X31180Y8776D02*X31476Y8480D01*
X31420Y8423D01*
X31123Y8720D01*
X31180Y8776D01*
G37*
G54D29*G54D13*G36*
X31123Y8480D02*X31420Y8776D01*
X31476Y8720D01*
X31180Y8423D01*
X31123Y8480D01*
G37*
G54D29*G54D13*G36*
X32180Y9776D02*X32476Y9480D01*
X32420Y9423D01*
X32123Y9720D01*
X32180Y9776D01*
G37*
G54D29*G54D13*G36*
X32123Y9480D02*X32420Y9776D01*
X32476Y9720D01*
X32180Y9423D01*
X32123Y9480D01*
G37*
G54D29*G54D13*G36*
X19980Y10776D02*X20276Y10480D01*
X20220Y10423D01*
X19923Y10720D01*
X19980Y10776D01*
G37*
G54D29*G54D13*G36*
X19923Y10480D02*X20220Y10776D01*
X20276Y10720D01*
X19980Y10423D01*
X19923Y10480D01*
G37*
G54D29*G54D13*G36*
X21980Y10776D02*X22276Y10480D01*
X22220Y10423D01*
X21923Y10720D01*
X21980Y10776D01*
G37*
G54D29*G54D13*G36*
X21923Y10480D02*X22220Y10776D01*
X22276Y10720D01*
X21980Y10423D01*
X21923Y10480D01*
G37*
G54D29*G54D13*G36*
X21980Y8776D02*X22276Y8480D01*
X22220Y8423D01*
X21923Y8720D01*
X21980Y8776D01*
G37*
G54D29*G54D13*G36*
X21923Y8480D02*X22220Y8776D01*
X22276Y8720D01*
X21980Y8423D01*
X21923Y8480D01*
G37*
G54D29*G54D13*G36*
X19980Y8776D02*X20276Y8480D01*
X20220Y8423D01*
X19923Y8720D01*
X19980Y8776D01*
G37*
G54D29*G54D13*G36*
X19923Y8480D02*X20220Y8776D01*
X20276Y8720D01*
X19980Y8423D01*
X19923Y8480D01*
G37*
G54D29*G54D13*G36*
X20980Y9776D02*X21276Y9480D01*
X21220Y9423D01*
X20923Y9720D01*
X20980Y9776D01*
G37*
G54D29*G54D13*G36*
X20923Y9480D02*X21220Y9776D01*
X21276Y9720D01*
X20980Y9423D01*
X20923Y9480D01*
G37*
G54D29*G54D13*G36*
X19980Y15876D02*X20276Y15580D01*
X20220Y15523D01*
X19923Y15820D01*
X19980Y15876D01*
G37*
G54D29*G54D13*G36*
X19923Y15580D02*X20220Y15876D01*
X20276Y15820D01*
X19980Y15523D01*
X19923Y15580D01*
G37*
G54D29*G54D13*G36*
X21980Y15876D02*X22276Y15580D01*
X22220Y15523D01*
X21923Y15820D01*
X21980Y15876D01*
G37*
G54D29*G54D13*G36*
X21923Y15580D02*X22220Y15876D01*
X22276Y15820D01*
X21980Y15523D01*
X21923Y15580D01*
G37*
G54D29*G54D13*G36*
X21980Y13876D02*X22276Y13580D01*
X22220Y13523D01*
X21923Y13820D01*
X21980Y13876D01*
G37*
G54D29*G54D13*G36*
X21923Y13580D02*X22220Y13876D01*
X22276Y13820D01*
X21980Y13523D01*
X21923Y13580D01*
G37*
G54D29*G54D13*G36*
X19980Y13876D02*X20276Y13580D01*
X20220Y13523D01*
X19923Y13820D01*
X19980Y13876D01*
G37*
G54D29*G54D13*G36*
X19923Y13580D02*X20220Y13876D01*
X20276Y13820D01*
X19980Y13523D01*
X19923Y13580D01*
G37*
G54D29*G54D13*G36*
X20980Y14876D02*X21276Y14580D01*
X21220Y14523D01*
X20923Y14820D01*
X20980Y14876D01*
G37*
G54D29*G54D13*G36*
X20923Y14580D02*X21220Y14876D01*
X21276Y14820D01*
X20980Y14523D01*
X20923Y14580D01*
G37*
G54D29*G54D13*G36*
X31180Y26676D02*X31476Y26380D01*
X31420Y26323D01*
X31123Y26620D01*
X31180Y26676D01*
G37*
G54D29*G54D13*G36*
X31123Y26380D02*X31420Y26676D01*
X31476Y26620D01*
X31180Y26323D01*
X31123Y26380D01*
G37*
G54D29*G54D13*G36*
X33180Y26676D02*X33476Y26380D01*
X33420Y26323D01*
X33123Y26620D01*
X33180Y26676D01*
G37*
G54D29*G54D13*G36*
X33123Y26380D02*X33420Y26676D01*
X33476Y26620D01*
X33180Y26323D01*
X33123Y26380D01*
G37*
G54D29*G54D13*G36*
X33180Y24676D02*X33476Y24380D01*
X33420Y24323D01*
X33123Y24620D01*
X33180Y24676D01*
G37*
G54D29*G54D13*G36*
X33123Y24380D02*X33420Y24676D01*
X33476Y24620D01*
X33180Y24323D01*
X33123Y24380D01*
G37*
G54D29*G54D13*G36*
X31180Y24676D02*X31476Y24380D01*
X31420Y24323D01*
X31123Y24620D01*
X31180Y24676D01*
G37*
G54D29*G54D13*G36*
X31123Y24380D02*X31420Y24676D01*
X31476Y24620D01*
X31180Y24323D01*
X31123Y24380D01*
G37*
G54D29*G54D13*G36*
X32180Y25676D02*X32476Y25380D01*
X32420Y25323D01*
X32123Y25620D01*
X32180Y25676D01*
G37*
G54D29*G54D13*G36*
X32123Y25380D02*X32420Y25676D01*
X32476Y25620D01*
X32180Y25323D01*
X32123Y25380D01*
G37*
G54D29*G54D13*G36*
X31180Y5476D02*X31476Y5180D01*
X31420Y5123D01*
X31123Y5420D01*
X31180Y5476D01*
G37*
G54D29*G54D13*G36*
X31123Y5180D02*X31420Y5476D01*
X31476Y5420D01*
X31180Y5123D01*
X31123Y5180D01*
G37*
G54D29*G54D13*G36*
X33180Y5476D02*X33476Y5180D01*
X33420Y5123D01*
X33123Y5420D01*
X33180Y5476D01*
G37*
G54D29*G54D13*G36*
X33123Y5180D02*X33420Y5476D01*
X33476Y5420D01*
X33180Y5123D01*
X33123Y5180D01*
G37*
G54D29*G54D13*G36*
X33180Y3476D02*X33476Y3180D01*
X33420Y3123D01*
X33123Y3420D01*
X33180Y3476D01*
G37*
G54D29*G54D13*G36*
X33123Y3180D02*X33420Y3476D01*
X33476Y3420D01*
X33180Y3123D01*
X33123Y3180D01*
G37*
G54D29*G54D13*G36*
X31180Y3476D02*X31476Y3180D01*
X31420Y3123D01*
X31123Y3420D01*
X31180Y3476D01*
G37*
G54D29*G54D13*G36*
X31123Y3180D02*X31420Y3476D01*
X31476Y3420D01*
X31180Y3123D01*
X31123Y3180D01*
G37*
G54D29*G54D13*G36*
X32180Y4476D02*X32476Y4180D01*
X32420Y4123D01*
X32123Y4420D01*
X32180Y4476D01*
G37*
G54D29*G54D13*G36*
X32123Y4180D02*X32420Y4476D01*
X32476Y4420D01*
X32180Y4123D01*
X32123Y4180D01*
G37*
G54D29*G54D13*G36*
X1980Y3476D02*X2276Y3180D01*
X2220Y3123D01*
X1923Y3420D01*
X1980Y3476D01*
G37*
G54D29*G54D13*G36*
X1923Y3180D02*X2220Y3476D01*
X2276Y3420D01*
X1980Y3123D01*
X1923Y3180D01*
G37*
G54D29*G54D13*G36*
X1980Y5476D02*X2276Y5180D01*
X2220Y5123D01*
X1923Y5420D01*
X1980Y5476D01*
G37*
G54D29*G54D13*G36*
X1923Y5180D02*X2220Y5476D01*
X2276Y5420D01*
X1980Y5123D01*
X1923Y5180D01*
G37*
G54D29*G54D13*G36*
X3980Y5476D02*X4276Y5180D01*
X4220Y5123D01*
X3923Y5420D01*
X3980Y5476D01*
G37*
G54D29*G54D13*G36*
X3923Y5180D02*X4220Y5476D01*
X4276Y5420D01*
X3980Y5123D01*
X3923Y5180D01*
G37*
G54D29*G54D13*G36*
X3980Y3476D02*X4276Y3180D01*
X4220Y3123D01*
X3923Y3420D01*
X3980Y3476D01*
G37*
G54D29*G54D13*G36*
X3923Y3180D02*X4220Y3476D01*
X4276Y3420D01*
X3980Y3123D01*
X3923Y3180D01*
G37*
G54D29*G54D13*G36*
X2980Y4476D02*X3276Y4180D01*
X3220Y4123D01*
X2923Y4420D01*
X2980Y4476D01*
G37*
G54D29*G54D13*G36*
X2923Y4180D02*X3220Y4476D01*
X3276Y4420D01*
X2980Y4123D01*
X2923Y4180D01*
G37*
G54D29*G54D13*G36*
X13180Y10776D02*X13476Y10480D01*
X13420Y10423D01*
X13123Y10720D01*
X13180Y10776D01*
G37*
G54D29*G54D13*G36*
X13123Y10480D02*X13420Y10776D01*
X13476Y10720D01*
X13180Y10423D01*
X13123Y10480D01*
G37*
G54D29*G54D13*G36*
X15180Y10776D02*X15476Y10480D01*
X15420Y10423D01*
X15123Y10720D01*
X15180Y10776D01*
G37*
G54D29*G54D13*G36*
X15123Y10480D02*X15420Y10776D01*
X15476Y10720D01*
X15180Y10423D01*
X15123Y10480D01*
G37*
G54D29*G54D13*G36*
X15180Y8776D02*X15476Y8480D01*
X15420Y8423D01*
X15123Y8720D01*
X15180Y8776D01*
G37*
G54D29*G54D13*G36*
X15123Y8480D02*X15420Y8776D01*
X15476Y8720D01*
X15180Y8423D01*
X15123Y8480D01*
G37*
G54D29*G54D13*G36*
X13180Y8776D02*X13476Y8480D01*
X13420Y8423D01*
X13123Y8720D01*
X13180Y8776D01*
G37*
G54D29*G54D13*G36*
X13123Y8480D02*X13420Y8776D01*
X13476Y8720D01*
X13180Y8423D01*
X13123Y8480D01*
G37*
G54D29*G54D13*G36*
X14180Y9776D02*X14476Y9480D01*
X14420Y9423D01*
X14123Y9720D01*
X14180Y9776D01*
G37*
G54D29*G54D13*G36*
X14123Y9480D02*X14420Y9776D01*
X14476Y9720D01*
X14180Y9423D01*
X14123Y9480D01*
G37*
G54D29*G54D13*G36*
X19380Y21076D02*X19676Y20780D01*
X19620Y20723D01*
X19323Y21020D01*
X19380Y21076D01*
G37*
G54D29*G54D13*G36*
X19323Y20780D02*X19620Y21076D01*
X19676Y21020D01*
X19380Y20723D01*
X19323Y20780D01*
G37*
G54D29*G54D13*G36*
X21380Y21076D02*X21676Y20780D01*
X21620Y20723D01*
X21323Y21020D01*
X21380Y21076D01*
G37*
G54D29*G54D13*G36*
X21323Y20780D02*X21620Y21076D01*
X21676Y21020D01*
X21380Y20723D01*
X21323Y20780D01*
G37*
G54D29*G54D13*G36*
X21380Y19076D02*X21676Y18780D01*
X21620Y18723D01*
X21323Y19020D01*
X21380Y19076D01*
G37*
G54D29*G54D13*G36*
X21323Y18780D02*X21620Y19076D01*
X21676Y19020D01*
X21380Y18723D01*
X21323Y18780D01*
G37*
G54D29*G54D13*G36*
X19380Y19076D02*X19676Y18780D01*
X19620Y18723D01*
X19323Y19020D01*
X19380Y19076D01*
G37*
G54D29*G54D13*G36*
X19323Y18780D02*X19620Y19076D01*
X19676Y19020D01*
X19380Y18723D01*
X19323Y18780D01*
G37*
G54D29*G54D13*G36*
X20380Y20076D02*X20676Y19780D01*
X20620Y19723D01*
X20323Y20020D01*
X20380Y20076D01*
G37*
G54D29*G54D13*G36*
X20323Y19780D02*X20620Y20076D01*
X20676Y20020D01*
X20380Y19723D01*
X20323Y19780D01*
G37*
G54D29*G54D13*G36*
X13080Y26576D02*X13376Y26280D01*
X13320Y26223D01*
X13023Y26520D01*
X13080Y26576D01*
G37*
G54D29*G54D13*G36*
X13023Y26280D02*X13320Y26576D01*
X13376Y26520D01*
X13080Y26223D01*
X13023Y26280D01*
G37*
G54D29*G54D13*G36*
X15080Y26576D02*X15376Y26280D01*
X15320Y26223D01*
X15023Y26520D01*
X15080Y26576D01*
G37*
G54D29*G54D13*G36*
X15023Y26280D02*X15320Y26576D01*
X15376Y26520D01*
X15080Y26223D01*
X15023Y26280D01*
G37*
G54D29*G54D13*G36*
X15080Y24576D02*X15376Y24280D01*
X15320Y24223D01*
X15023Y24520D01*
X15080Y24576D01*
G37*
G54D29*G54D13*G36*
X15023Y24280D02*X15320Y24576D01*
X15376Y24520D01*
X15080Y24223D01*
X15023Y24280D01*
G37*
G54D29*G54D13*G36*
X13080Y24576D02*X13376Y24280D01*
X13320Y24223D01*
X13023Y24520D01*
X13080Y24576D01*
G37*
G54D29*G54D13*G36*
X13023Y24280D02*X13320Y24576D01*
X13376Y24520D01*
X13080Y24223D01*
X13023Y24280D01*
G37*
G54D29*G54D13*G36*
X14080Y25576D02*X14376Y25280D01*
X14320Y25223D01*
X14023Y25520D01*
X14080Y25576D01*
G37*
G54D29*G54D13*G36*
X14023Y25280D02*X14320Y25576D01*
X14376Y25520D01*
X14080Y25223D01*
X14023Y25280D01*
G37*
G54D29*G54D13*G36*
X31180Y32676D02*X31476Y32380D01*
X31420Y32323D01*
X31123Y32620D01*
X31180Y32676D01*
G37*
G54D29*G54D13*G36*
X31123Y32380D02*X31420Y32676D01*
X31476Y32620D01*
X31180Y32323D01*
X31123Y32380D01*
G37*
G54D29*G54D13*G36*
X33180Y32676D02*X33476Y32380D01*
X33420Y32323D01*
X33123Y32620D01*
X33180Y32676D01*
G37*
G54D29*G54D13*G36*
X33123Y32380D02*X33420Y32676D01*
X33476Y32620D01*
X33180Y32323D01*
X33123Y32380D01*
G37*
G54D29*G54D13*G36*
X33180Y30676D02*X33476Y30380D01*
X33420Y30323D01*
X33123Y30620D01*
X33180Y30676D01*
G37*
G54D29*G54D13*G36*
X33123Y30380D02*X33420Y30676D01*
X33476Y30620D01*
X33180Y30323D01*
X33123Y30380D01*
G37*
G54D29*G54D13*G36*
X31180Y30676D02*X31476Y30380D01*
X31420Y30323D01*
X31123Y30620D01*
X31180Y30676D01*
G37*
G54D29*G54D13*G36*
X31123Y30380D02*X31420Y30676D01*
X31476Y30620D01*
X31180Y30323D01*
X31123Y30380D01*
G37*
G54D29*G54D13*G36*
X32180Y31676D02*X32476Y31380D01*
X32420Y31323D01*
X32123Y31620D01*
X32180Y31676D01*
G37*
G54D29*G54D13*G36*
X32123Y31380D02*X32420Y31676D01*
X32476Y31620D01*
X32180Y31323D01*
X32123Y31380D01*
G37*
G54D29*G54D13*G36*
X31180Y15876D02*X31476Y15580D01*
X31420Y15523D01*
X31123Y15820D01*
X31180Y15876D01*
G37*
G54D29*G54D13*G36*
X31123Y15580D02*X31420Y15876D01*
X31476Y15820D01*
X31180Y15523D01*
X31123Y15580D01*
G37*
G54D29*G54D13*G36*
X33180Y15876D02*X33476Y15580D01*
X33420Y15523D01*
X33123Y15820D01*
X33180Y15876D01*
G37*
G54D29*G54D13*G36*
X33123Y15580D02*X33420Y15876D01*
X33476Y15820D01*
X33180Y15523D01*
X33123Y15580D01*
G37*
G54D29*G54D13*G36*
X33180Y13876D02*X33476Y13580D01*
X33420Y13523D01*
X33123Y13820D01*
X33180Y13876D01*
G37*
G54D29*G54D13*G36*
X33123Y13580D02*X33420Y13876D01*
X33476Y13820D01*
X33180Y13523D01*
X33123Y13580D01*
G37*
G54D29*G54D13*G36*
X31180Y13876D02*X31476Y13580D01*
X31420Y13523D01*
X31123Y13820D01*
X31180Y13876D01*
G37*
G54D29*G54D13*G36*
X31123Y13580D02*X31420Y13876D01*
X31476Y13820D01*
X31180Y13523D01*
X31123Y13580D01*
G37*
G54D29*G54D13*G36*
X32180Y14876D02*X32476Y14580D01*
X32420Y14523D01*
X32123Y14820D01*
X32180Y14876D01*
G37*
G54D29*G54D13*G36*
X32123Y14580D02*X32420Y14876D01*
X32476Y14820D01*
X32180Y14523D01*
X32123Y14580D01*
G37*
G54D29*G54D13*G36*
X2080Y26576D02*X2376Y26280D01*
X2320Y26223D01*
X2023Y26520D01*
X2080Y26576D01*
G37*
G54D29*G54D13*G36*
X2023Y26280D02*X2320Y26576D01*
X2376Y26520D01*
X2080Y26223D01*
X2023Y26280D01*
G37*
G54D29*G54D13*G36*
X4080Y26576D02*X4376Y26280D01*
X4320Y26223D01*
X4023Y26520D01*
X4080Y26576D01*
G37*
G54D29*G54D13*G36*
X4023Y26280D02*X4320Y26576D01*
X4376Y26520D01*
X4080Y26223D01*
X4023Y26280D01*
G37*
G54D29*G54D13*G36*
X4080Y24576D02*X4376Y24280D01*
X4320Y24223D01*
X4023Y24520D01*
X4080Y24576D01*
G37*
G54D29*G54D13*G36*
X4023Y24280D02*X4320Y24576D01*
X4376Y24520D01*
X4080Y24223D01*
X4023Y24280D01*
G37*
G54D29*G54D13*G36*
X2080Y24576D02*X2376Y24280D01*
X2320Y24223D01*
X2023Y24520D01*
X2080Y24576D01*
G37*
G54D29*G54D13*G36*
X2023Y24280D02*X2320Y24576D01*
X2376Y24520D01*
X2080Y24223D01*
X2023Y24280D01*
G37*
G54D29*G54D13*G36*
X3080Y25576D02*X3376Y25280D01*
X3320Y25223D01*
X3023Y25520D01*
X3080Y25576D01*
G37*
G54D29*G54D13*G36*
X3023Y25280D02*X3320Y25576D01*
X3376Y25520D01*
X3080Y25223D01*
X3023Y25280D01*
G37*
G54D29*G54D13*G36*
X1980Y16376D02*X2276Y16080D01*
X2220Y16023D01*
X1923Y16320D01*
X1980Y16376D01*
G37*
G54D29*G54D13*G36*
X1923Y16080D02*X2220Y16376D01*
X2276Y16320D01*
X1980Y16023D01*
X1923Y16080D01*
G37*
G54D29*G54D13*G36*
X3980Y16376D02*X4276Y16080D01*
X4220Y16023D01*
X3923Y16320D01*
X3980Y16376D01*
G37*
G54D29*G54D13*G36*
X3923Y16080D02*X4220Y16376D01*
X4276Y16320D01*
X3980Y16023D01*
X3923Y16080D01*
G37*
G54D29*G54D13*G36*
X3980Y14376D02*X4276Y14080D01*
X4220Y14023D01*
X3923Y14320D01*
X3980Y14376D01*
G37*
G54D29*G54D13*G36*
X3923Y14080D02*X4220Y14376D01*
X4276Y14320D01*
X3980Y14023D01*
X3923Y14080D01*
G37*
G54D29*G54D13*G36*
X1980Y14376D02*X2276Y14080D01*
X2220Y14023D01*
X1923Y14320D01*
X1980Y14376D01*
G37*
G54D29*G54D13*G36*
X1923Y14080D02*X2220Y14376D01*
X2276Y14320D01*
X1980Y14023D01*
X1923Y14080D01*
G37*
G54D29*G54D13*G36*
X2980Y15376D02*X3276Y15080D01*
X3220Y15023D01*
X2923Y15320D01*
X2980Y15376D01*
G37*
G54D29*G54D13*G36*
X2923Y15080D02*X3220Y15376D01*
X3276Y15320D01*
X2980Y15023D01*
X2923Y15080D01*
G37*
G54D29*G54D13*G36*
X13180Y5476D02*X13476Y5180D01*
X13420Y5123D01*
X13123Y5420D01*
X13180Y5476D01*
G37*
G54D29*G54D13*G36*
X13123Y5180D02*X13420Y5476D01*
X13476Y5420D01*
X13180Y5123D01*
X13123Y5180D01*
G37*
G54D29*G54D13*G36*
X15180Y5476D02*X15476Y5180D01*
X15420Y5123D01*
X15123Y5420D01*
X15180Y5476D01*
G37*
G54D29*G54D13*G36*
X15123Y5180D02*X15420Y5476D01*
X15476Y5420D01*
X15180Y5123D01*
X15123Y5180D01*
G37*
G54D29*G54D13*G36*
X15180Y3476D02*X15476Y3180D01*
X15420Y3123D01*
X15123Y3420D01*
X15180Y3476D01*
G37*
G54D29*G54D13*G36*
X15123Y3180D02*X15420Y3476D01*
X15476Y3420D01*
X15180Y3123D01*
X15123Y3180D01*
G37*
G54D29*G54D13*G36*
X13180Y3476D02*X13476Y3180D01*
X13420Y3123D01*
X13123Y3420D01*
X13180Y3476D01*
G37*
G54D29*G54D13*G36*
X13123Y3180D02*X13420Y3476D01*
X13476Y3420D01*
X13180Y3123D01*
X13123Y3180D01*
G37*
G54D29*G54D13*G36*
X14180Y4476D02*X14476Y4180D01*
X14420Y4123D01*
X14123Y4420D01*
X14180Y4476D01*
G37*
G54D29*G54D13*G36*
X14123Y4180D02*X14420Y4476D01*
X14476Y4420D01*
X14180Y4123D01*
X14123Y4180D01*
G37*
G54D29*G54D13*G36*
X2080Y21676D02*X2376Y21380D01*
X2320Y21323D01*
X2023Y21620D01*
X2080Y21676D01*
G37*
G54D29*G54D13*G36*
X2023Y21380D02*X2320Y21676D01*
X2376Y21620D01*
X2080Y21323D01*
X2023Y21380D01*
G37*
G54D29*G54D13*G36*
X4080Y21676D02*X4376Y21380D01*
X4320Y21323D01*
X4023Y21620D01*
X4080Y21676D01*
G37*
G54D29*G54D13*G36*
X4023Y21380D02*X4320Y21676D01*
X4376Y21620D01*
X4080Y21323D01*
X4023Y21380D01*
G37*
G54D29*G54D13*G36*
X4080Y19676D02*X4376Y19380D01*
X4320Y19323D01*
X4023Y19620D01*
X4080Y19676D01*
G37*
G54D29*G54D13*G36*
X4023Y19380D02*X4320Y19676D01*
X4376Y19620D01*
X4080Y19323D01*
X4023Y19380D01*
G37*
G54D29*G54D13*G36*
X2080Y19676D02*X2376Y19380D01*
X2320Y19323D01*
X2023Y19620D01*
X2080Y19676D01*
G37*
G54D29*G54D13*G36*
X2023Y19380D02*X2320Y19676D01*
X2376Y19620D01*
X2080Y19323D01*
X2023Y19380D01*
G37*
G54D29*G54D13*G36*
X3080Y20676D02*X3376Y20380D01*
X3320Y20323D01*
X3023Y20620D01*
X3080Y20676D01*
G37*
G54D29*G54D13*G36*
X3023Y20380D02*X3320Y20676D01*
X3376Y20620D01*
X3080Y20323D01*
X3023Y20380D01*
G37*
G54D29*G54D13*G36*
X13080Y21676D02*X13376Y21380D01*
X13320Y21323D01*
X13023Y21620D01*
X13080Y21676D01*
G37*
G54D29*G54D13*G36*
X13023Y21380D02*X13320Y21676D01*
X13376Y21620D01*
X13080Y21323D01*
X13023Y21380D01*
G37*
G54D29*G54D13*G36*
X15080Y21676D02*X15376Y21380D01*
X15320Y21323D01*
X15023Y21620D01*
X15080Y21676D01*
G37*
G54D29*G54D13*G36*
X15023Y21380D02*X15320Y21676D01*
X15376Y21620D01*
X15080Y21323D01*
X15023Y21380D01*
G37*
G54D29*G54D13*G36*
X15080Y19676D02*X15376Y19380D01*
X15320Y19323D01*
X15023Y19620D01*
X15080Y19676D01*
G37*
G54D29*G54D13*G36*
X15023Y19380D02*X15320Y19676D01*
X15376Y19620D01*
X15080Y19323D01*
X15023Y19380D01*
G37*
G54D29*G54D13*G36*
X13080Y19676D02*X13376Y19380D01*
X13320Y19323D01*
X13023Y19620D01*
X13080Y19676D01*
G37*
G54D29*G54D13*G36*
X13023Y19380D02*X13320Y19676D01*
X13376Y19620D01*
X13080Y19323D01*
X13023Y19380D01*
G37*
G54D29*G54D13*G36*
X14080Y20676D02*X14376Y20380D01*
X14320Y20323D01*
X14023Y20620D01*
X14080Y20676D01*
G37*
G54D29*G54D13*G36*
X14023Y20380D02*X14320Y20676D01*
X14376Y20620D01*
X14080Y20323D01*
X14023Y20380D01*
G37*
G54D29*G54D13*G36*
X1980Y10776D02*X2276Y10480D01*
X2220Y10423D01*
X1923Y10720D01*
X1980Y10776D01*
G37*
G54D29*G54D13*G36*
X1923Y10480D02*X2220Y10776D01*
X2276Y10720D01*
X1980Y10423D01*
X1923Y10480D01*
G37*
G54D29*G54D13*G36*
X3980Y10776D02*X4276Y10480D01*
X4220Y10423D01*
X3923Y10720D01*
X3980Y10776D01*
G37*
G54D29*G54D13*G36*
X3923Y10480D02*X4220Y10776D01*
X4276Y10720D01*
X3980Y10423D01*
X3923Y10480D01*
G37*
G54D29*G54D13*G36*
X3980Y8776D02*X4276Y8480D01*
X4220Y8423D01*
X3923Y8720D01*
X3980Y8776D01*
G37*
G54D29*G54D13*G36*
X3923Y8480D02*X4220Y8776D01*
X4276Y8720D01*
X3980Y8423D01*
X3923Y8480D01*
G37*
G54D29*G54D13*G36*
X1980Y8776D02*X2276Y8480D01*
X2220Y8423D01*
X1923Y8720D01*
X1980Y8776D01*
G37*
G54D29*G54D13*G36*
X1923Y8480D02*X2220Y8776D01*
X2276Y8720D01*
X1980Y8423D01*
X1923Y8480D01*
G37*
G54D29*G54D13*G36*
X2980Y9776D02*X3276Y9480D01*
X3220Y9423D01*
X2923Y9720D01*
X2980Y9776D01*
G37*
G54D29*G54D13*G36*
X2923Y9480D02*X3220Y9776D01*
X3276Y9720D01*
X2980Y9423D01*
X2923Y9480D01*
G37*
G54D29*G54D13*G36*
X20080Y32676D02*X20376Y32380D01*
X20320Y32323D01*
X20023Y32620D01*
X20080Y32676D01*
G37*
G54D29*G54D13*G36*
X20023Y32380D02*X20320Y32676D01*
X20376Y32620D01*
X20080Y32323D01*
X20023Y32380D01*
G37*
G54D29*G54D13*G36*
X22080Y32676D02*X22376Y32380D01*
X22320Y32323D01*
X22023Y32620D01*
X22080Y32676D01*
G37*
G54D29*G54D13*G36*
X22023Y32380D02*X22320Y32676D01*
X22376Y32620D01*
X22080Y32323D01*
X22023Y32380D01*
G37*
G54D29*G54D13*G36*
X22080Y30676D02*X22376Y30380D01*
X22320Y30323D01*
X22023Y30620D01*
X22080Y30676D01*
G37*
G54D29*G54D13*G36*
X22023Y30380D02*X22320Y30676D01*
X22376Y30620D01*
X22080Y30323D01*
X22023Y30380D01*
G37*
G54D29*G54D13*G36*
X20080Y30676D02*X20376Y30380D01*
X20320Y30323D01*
X20023Y30620D01*
X20080Y30676D01*
G37*
G54D29*G54D13*G36*
X20023Y30380D02*X20320Y30676D01*
X20376Y30620D01*
X20080Y30323D01*
X20023Y30380D01*
G37*
G54D29*G54D13*G36*
X21080Y31676D02*X21376Y31380D01*
X21320Y31323D01*
X21023Y31620D01*
X21080Y31676D01*
G37*
G54D29*G54D13*G36*
X21023Y31380D02*X21320Y31676D01*
X21376Y31620D01*
X21080Y31323D01*
X21023Y31380D01*
G37*
G54D29*G54D13*G36*
X13080Y32676D02*X13376Y32380D01*
X13320Y32323D01*
X13023Y32620D01*
X13080Y32676D01*
G37*
G54D29*G54D13*G36*
X13023Y32380D02*X13320Y32676D01*
X13376Y32620D01*
X13080Y32323D01*
X13023Y32380D01*
G37*
G54D29*G54D13*G36*
X15080Y32676D02*X15376Y32380D01*
X15320Y32323D01*
X15023Y32620D01*
X15080Y32676D01*
G37*
G54D29*G54D13*G36*
X15023Y32380D02*X15320Y32676D01*
X15376Y32620D01*
X15080Y32323D01*
X15023Y32380D01*
G37*
G54D29*G54D13*G36*
X15080Y30676D02*X15376Y30380D01*
X15320Y30323D01*
X15023Y30620D01*
X15080Y30676D01*
G37*
G54D29*G54D13*G36*
X15023Y30380D02*X15320Y30676D01*
X15376Y30620D01*
X15080Y30323D01*
X15023Y30380D01*
G37*
G54D29*G54D13*G36*
X13080Y30676D02*X13376Y30380D01*
X13320Y30323D01*
X13023Y30620D01*
X13080Y30676D01*
G37*
G54D29*G54D13*G36*
X13023Y30380D02*X13320Y30676D01*
X13376Y30620D01*
X13080Y30323D01*
X13023Y30380D01*
G37*
G54D29*G54D13*G36*
X14080Y31676D02*X14376Y31380D01*
X14320Y31323D01*
X14023Y31620D01*
X14080Y31676D01*
G37*
G54D29*G54D13*G36*
X14023Y31380D02*X14320Y31676D01*
X14376Y31620D01*
X14080Y31323D01*
X14023Y31380D01*
G37*
G54D29*G54D13*G36*
X2080Y32676D02*X2376Y32380D01*
X2320Y32323D01*
X2023Y32620D01*
X2080Y32676D01*
G37*
G54D29*G54D13*G36*
X2023Y32380D02*X2320Y32676D01*
X2376Y32620D01*
X2080Y32323D01*
X2023Y32380D01*
G37*
G54D29*G54D13*G36*
X4080Y32676D02*X4376Y32380D01*
X4320Y32323D01*
X4023Y32620D01*
X4080Y32676D01*
G37*
G54D29*G54D13*G36*
X4023Y32380D02*X4320Y32676D01*
X4376Y32620D01*
X4080Y32323D01*
X4023Y32380D01*
G37*
G54D29*G54D13*G36*
X4080Y30676D02*X4376Y30380D01*
X4320Y30323D01*
X4023Y30620D01*
X4080Y30676D01*
G37*
G54D29*G54D13*G36*
X4023Y30380D02*X4320Y30676D01*
X4376Y30620D01*
X4080Y30323D01*
X4023Y30380D01*
G37*
G54D29*G54D13*G36*
X2080Y30676D02*X2376Y30380D01*
X2320Y30323D01*
X2023Y30620D01*
X2080Y30676D01*
G37*
G54D29*G54D13*G36*
X2023Y30380D02*X2320Y30676D01*
X2376Y30620D01*
X2080Y30323D01*
X2023Y30380D01*
G37*
G54D29*G54D13*G36*
X3080Y31676D02*X3376Y31380D01*
X3320Y31323D01*
X3023Y31620D01*
X3080Y31676D01*
G37*
G54D29*G54D13*G36*
X3023Y31380D02*X3320Y31676D01*
X3376Y31620D01*
X3080Y31323D01*
X3023Y31380D01*
G37*
G54D29*G54D13*G36*
X1380Y37801D02*X1676Y37505D01*
X1620Y37448D01*
X1323Y37745D01*
X1380Y37801D01*
G37*
G54D29*G54D13*G36*
X1323Y37505D02*X1620Y37801D01*
X1676Y37745D01*
X1380Y37448D01*
X1323Y37505D01*
G37*
G54D30*X13500Y37850D02*Y37775D01*
X13650Y37625D01*
X13800Y37775D01*
Y37850D02*Y37775D01*
X13650Y37625D02*Y37250D01*
X13980Y37550D02*X14205D01*
X13980Y37250D02*X14280D01*
X13980Y37850D02*Y37250D01*
Y37850D02*X14280D01*
X14760D02*X14835Y37775D01*
X14535Y37850D02*X14760D01*
X14460Y37775D02*X14535Y37850D01*
X14460Y37775D02*Y37625D01*
X14535Y37550D01*
X14760D01*
X14835Y37475D01*
Y37325D01*
X14760Y37250D02*X14835Y37325D01*
X14535Y37250D02*X14760D01*
X14460Y37325D02*X14535Y37250D01*
X13500Y36924D02*X15015D01*
X9875Y37250D02*X10025D01*
X9950Y37850D02*Y37250D01*
X9800Y37700D02*X9950Y37850D01*
X10205Y37325D02*X10280Y37250D01*
X10205Y37775D02*Y37325D01*
Y37775D02*X10280Y37850D01*
X10430D01*
X10505Y37775D01*
Y37325D01*
X10430Y37250D02*X10505Y37325D01*
X10280Y37250D02*X10430D01*
X10205Y37400D02*X10505Y37700D01*
X10685Y37850D02*X10985D01*
X10685D02*Y37550D01*
X10760Y37625D01*
X10910D01*
X10985Y37550D01*
Y37325D01*
X10910Y37250D02*X10985Y37325D01*
X10760Y37250D02*X10910D01*
X10685Y37325D02*X10760Y37250D01*
X9800Y36924D02*X11165D01*
X4500Y37325D02*X4575Y37250D01*
X4500Y37775D02*Y37325D01*
Y37775D02*X4575Y37850D01*
X4725D01*
X4800Y37775D01*
Y37325D01*
X4725Y37250D02*X4800Y37325D01*
X4575Y37250D02*X4725D01*
X4500Y37400D02*X4800Y37700D01*
X4980Y37250D02*X5055D01*
X5235Y37325D02*X5310Y37250D01*
X5235Y37775D02*Y37325D01*
Y37775D02*X5310Y37850D01*
X5460D01*
X5535Y37775D01*
Y37325D01*
X5460Y37250D02*X5535Y37325D01*
X5310Y37250D02*X5460D01*
X5235Y37400D02*X5535Y37700D01*
X5940Y37850D02*X6015Y37775D01*
X5790Y37850D02*X5940D01*
X5715Y37775D02*X5790Y37850D01*
X5715Y37775D02*Y37325D01*
X5790Y37250D01*
X5940Y37550D02*X6015Y37475D01*
X5715Y37550D02*X5940D01*
X5790Y37250D02*X5940D01*
X6015Y37325D01*
Y37475D02*Y37325D01*
X6195D02*X6270Y37250D01*
X6195Y37775D02*Y37325D01*
Y37775D02*X6270Y37850D01*
X6420D01*
X6495Y37775D01*
Y37325D01*
X6420Y37250D02*X6495Y37325D01*
X6270Y37250D02*X6420D01*
X6195Y37400D02*X6495Y37700D01*
X4500Y36924D02*X6675D01*
X15500Y13960D02*Y13640D01*
X15340Y13800D02*X15660D01*
X15500Y14960D02*Y14640D01*
X15340Y14800D02*X15660D01*
X15500Y15960D02*Y15640D01*
X15340Y15800D02*X15660D01*
X15500Y16960D02*Y16640D01*
X15340Y16800D02*X15660D01*
X23300Y27160D02*Y26840D01*
X23140Y27000D02*X23460D01*
X23300Y26160D02*Y25840D01*
X23140Y26000D02*X23460D01*
X23300Y25160D02*Y24840D01*
X23140Y25000D02*X23460D01*
X23300Y24160D02*Y23840D01*
X23140Y24000D02*X23460D01*
X8700Y17160D02*Y16840D01*
X8540Y17000D02*X8860D01*
X8700Y16160D02*Y15840D01*
X8540Y16000D02*X8860D01*
X8700Y15160D02*Y14840D01*
X8540Y15000D02*X8860D01*
X8700Y14160D02*Y13840D01*
X8540Y14000D02*X8860D01*
X34000Y18760D02*Y18440D01*
X33840Y18600D02*X34160D01*
X34000Y19760D02*Y19440D01*
X33840Y19600D02*X34160D01*
X34000Y20760D02*Y20440D01*
X33840Y20600D02*X34160D01*
X34000Y21760D02*Y21440D01*
X33840Y21600D02*X34160D01*
X1500Y39285D02*Y38965D01*
X1340Y39125D02*X1660D01*
X13500Y39350D02*Y39275D01*
X13650Y39125D01*
X13800Y39275D01*
Y39350D02*Y39275D01*
X13650Y39125D02*Y38750D01*
X13980Y39050D02*X14205D01*
X13980Y38750D02*X14280D01*
X13980Y39350D02*Y38750D01*
Y39350D02*X14280D01*
X14760D02*X14835Y39275D01*
X14535Y39350D02*X14760D01*
X14460Y39275D02*X14535Y39350D01*
X14460Y39275D02*Y39125D01*
X14535Y39050D01*
X14760D01*
X14835Y38975D01*
Y38825D01*
X14760Y38750D02*X14835Y38825D01*
X14535Y38750D02*X14760D01*
X14460Y38825D02*X14535Y38750D01*
X13500Y38424D02*X15015D01*
X9875Y38750D02*X10025D01*
X9950Y39350D02*Y38750D01*
X9800Y39200D02*X9950Y39350D01*
X10430D02*X10505Y39275D01*
X10280Y39350D02*X10430D01*
X10205Y39275D02*X10280Y39350D01*
X10205Y39275D02*Y38825D01*
X10280Y38750D01*
X10430Y39050D02*X10505Y38975D01*
X10205Y39050D02*X10430D01*
X10280Y38750D02*X10430D01*
X10505Y38825D01*
Y38975D02*Y38825D01*
X9800Y38424D02*X10685D01*
X4500Y38825D02*X4575Y38750D01*
X4500Y39275D02*Y38825D01*
Y39275D02*X4575Y39350D01*
X4725D01*
X4800Y39275D01*
Y38825D01*
X4725Y38750D02*X4800Y38825D01*
X4575Y38750D02*X4725D01*
X4500Y38900D02*X4800Y39200D01*
X4980Y38750D02*X5055D01*
X5235Y38825D02*X5310Y38750D01*
X5235Y39275D02*Y38825D01*
Y39275D02*X5310Y39350D01*
X5460D01*
X5535Y39275D01*
Y38825D01*
X5460Y38750D02*X5535Y38825D01*
X5310Y38750D02*X5460D01*
X5235Y38900D02*X5535Y39200D01*
X5715Y39275D02*X5790Y39350D01*
X5940D01*
X6015Y39275D01*
Y38825D01*
X5940Y38750D02*X6015Y38825D01*
X5790Y38750D02*X5940D01*
X5715Y38825D02*X5790Y38750D01*
Y39050D02*X6015D01*
X6195Y38825D02*X6270Y38750D01*
X6195Y38975D02*Y38825D01*
Y38975D02*X6270Y39050D01*
X6420D01*
X6495Y38975D01*
Y38825D01*
X6420Y38750D02*X6495Y38825D01*
X6270Y38750D02*X6420D01*
X6195Y39125D02*X6270Y39050D01*
X6195Y39275D02*Y39125D01*
Y39275D02*X6270Y39350D01*
X6420D01*
X6495Y39275D01*
Y39125D01*
X6420Y39050D02*X6495Y39125D01*
X4500Y38424D02*X6675D01*
X6200Y19200D02*Y19040D01*
Y19200D02*X6338Y19280D01*
X6200Y19200D02*X6061Y19280D01*
X10100Y19400D02*Y19240D01*
Y19400D02*X10238Y19480D01*
X10100Y19400D02*X9961Y19480D01*
X11500Y19400D02*Y19240D01*
Y19400D02*X11638Y19480D01*
X11500Y19400D02*X11361Y19480D01*
X5300Y24100D02*Y23940D01*
Y24100D02*X5438Y24180D01*
X5300Y24100D02*X5161Y24180D01*
X6500Y24100D02*Y23940D01*
Y24100D02*X6638Y24180D01*
X6500Y24100D02*X6361Y24180D01*
X7600Y24100D02*Y23940D01*
Y24100D02*X7738Y24180D01*
X7600Y24100D02*X7461Y24180D01*
X9100Y24100D02*Y23940D01*
Y24100D02*X9238Y24180D01*
X9100Y24100D02*X8961Y24180D01*
X10200Y24100D02*Y23940D01*
Y24100D02*X10338Y24180D01*
X10200Y24100D02*X10061Y24180D01*
X11600Y24100D02*Y23940D01*
Y24100D02*X11738Y24180D01*
X11600Y24100D02*X11461Y24180D01*
X5500Y26500D02*Y26340D01*
Y26500D02*X5638Y26580D01*
X5500Y26500D02*X5361Y26580D01*
X6400Y26500D02*Y26340D01*
Y26500D02*X6538Y26580D01*
X6400Y26500D02*X6261Y26580D01*
X7500Y26500D02*Y26340D01*
Y26500D02*X7638Y26580D01*
X7500Y26500D02*X7361Y26580D01*
X8500Y26500D02*Y26340D01*
Y26500D02*X8638Y26580D01*
X8500Y26500D02*X8361Y26580D01*
X9700Y26500D02*Y26340D01*
Y26500D02*X9838Y26580D01*
X9700Y26500D02*X9561Y26580D01*
X10800Y26500D02*Y26340D01*
Y26500D02*X10938Y26580D01*
X10800Y26500D02*X10661Y26580D01*
X11800Y26500D02*Y26340D01*
Y26500D02*X11938Y26580D01*
X11800Y26500D02*X11661Y26580D01*
X5300Y16400D02*Y16240D01*
Y16400D02*X5438Y16480D01*
X5300Y16400D02*X5161Y16480D01*
X5900Y8400D02*Y8240D01*
Y8400D02*X6038Y8480D01*
X5900Y8400D02*X5761Y8480D01*
X7100Y7600D02*Y7440D01*
Y7600D02*X7238Y7680D01*
X7100Y7600D02*X6961Y7680D01*
X10700Y10800D02*Y10640D01*
Y10800D02*X10838Y10880D01*
X10700Y10800D02*X10561Y10880D01*
X11800Y10500D02*Y10340D01*
Y10500D02*X11938Y10580D01*
X11800Y10500D02*X11661Y10580D01*
X5400Y5400D02*Y5240D01*
Y5400D02*X5538Y5480D01*
X5400Y5400D02*X5261Y5480D01*
X6900Y5400D02*Y5240D01*
Y5400D02*X7038Y5480D01*
X6900Y5400D02*X6761Y5480D01*
X8700Y5400D02*Y5240D01*
Y5400D02*X8838Y5480D01*
X8700Y5400D02*X8561Y5480D01*
X10300Y5400D02*Y5240D01*
Y5400D02*X10438Y5480D01*
X10300Y5400D02*X10161Y5480D01*
X11800Y5400D02*Y5240D01*
Y5400D02*X11938Y5480D01*
X11800Y5400D02*X11661Y5480D01*
X11900Y3200D02*Y3040D01*
Y3200D02*X12038Y3280D01*
X11900Y3200D02*X11761Y3280D01*
X10300Y3100D02*Y2940D01*
Y3100D02*X10438Y3180D01*
X10300Y3100D02*X10161Y3180D01*
X8700Y3100D02*Y2940D01*
Y3100D02*X8838Y3180D01*
X8700Y3100D02*X8561Y3180D01*
X6900Y3200D02*Y3040D01*
Y3200D02*X7038Y3280D01*
X6900Y3200D02*X6761Y3280D01*
X5400Y3200D02*Y3040D01*
Y3200D02*X5538Y3280D01*
X5400Y3200D02*X5261Y3280D01*
X23400Y5700D02*Y5540D01*
Y5700D02*X23538Y5780D01*
X23400Y5700D02*X23261Y5780D01*
X24700Y5700D02*Y5540D01*
Y5700D02*X24838Y5780D01*
X24700Y5700D02*X24561Y5780D01*
X26300Y5700D02*Y5540D01*
Y5700D02*X26438Y5780D01*
X26300Y5700D02*X26161Y5780D01*
X28000Y5700D02*Y5540D01*
Y5700D02*X28138Y5780D01*
X28000Y5700D02*X27861Y5780D01*
X29400Y5800D02*Y5640D01*
Y5800D02*X29538Y5880D01*
X29400Y5800D02*X29261Y5880D01*
X29400Y3200D02*Y3040D01*
Y3200D02*X29538Y3280D01*
X29400Y3200D02*X29261Y3280D01*
X28000Y3100D02*Y2940D01*
Y3100D02*X28138Y3180D01*
X28000Y3100D02*X27861Y3180D01*
X26300Y3000D02*Y2840D01*
Y3000D02*X26438Y3080D01*
X26300Y3000D02*X26161Y3080D01*
X24700Y3100D02*Y2940D01*
Y3100D02*X24838Y3180D01*
X24700Y3100D02*X24561Y3180D01*
X23400Y3300D02*Y3140D01*
Y3300D02*X23538Y3380D01*
X23400Y3300D02*X23261Y3380D01*
X23700Y11100D02*Y10940D01*
Y11100D02*X23838Y11180D01*
X23700Y11100D02*X23561Y11180D01*
X25400Y11200D02*Y11040D01*
Y11200D02*X25538Y11280D01*
X25400Y11200D02*X25261Y11280D01*
X27700Y11000D02*Y10840D01*
Y11000D02*X27838Y11080D01*
X27700Y11000D02*X27561Y11080D01*
X29600Y11100D02*Y10940D01*
Y11100D02*X29738Y11180D01*
X29600Y11100D02*X29461Y11180D01*
X30100Y8700D02*Y8540D01*
Y8700D02*X30238Y8780D01*
X30100Y8700D02*X29961Y8780D01*
X28100Y8700D02*Y8540D01*
Y8700D02*X28238Y8780D01*
X28100Y8700D02*X27961Y8780D01*
X26500Y8400D02*Y8240D01*
Y8400D02*X26638Y8480D01*
X26500Y8400D02*X26361Y8480D01*
X24100Y8700D02*Y8540D01*
Y8700D02*X24238Y8780D01*
X24100Y8700D02*X23961Y8780D01*
X23400Y13700D02*Y13540D01*
Y13700D02*X23538Y13780D01*
X23400Y13700D02*X23261Y13780D01*
X25100Y13700D02*Y13540D01*
Y13700D02*X25238Y13780D01*
X25100Y13700D02*X24961Y13780D01*
X27700Y13700D02*Y13540D01*
Y13700D02*X27838Y13780D01*
X27700Y13700D02*X27561Y13780D01*
X29700Y13700D02*Y13540D01*
Y13700D02*X29838Y13780D01*
X29700Y13700D02*X29561Y13780D01*
X28700Y15700D02*Y15540D01*
Y15700D02*X28838Y15780D01*
X28700Y15700D02*X28561Y15780D01*
X26400Y15800D02*Y15640D01*
Y15800D02*X26538Y15880D01*
X26400Y15800D02*X26261Y15880D01*
X24000Y15700D02*Y15540D01*
Y15700D02*X24138Y15780D01*
X24000Y15700D02*X23861Y15780D01*
X22900Y19000D02*Y18840D01*
Y19000D02*X23038Y19080D01*
X22900Y19000D02*X22761Y19080D01*
X29600Y26300D02*Y26140D01*
Y26300D02*X29738Y26380D01*
X29600Y26300D02*X29461Y26380D01*
X23400Y30500D02*Y30340D01*
Y30500D02*X23538Y30580D01*
X23400Y30500D02*X23261Y30580D01*
X24800Y30600D02*Y30440D01*
Y30600D02*X24938Y30680D01*
X24800Y30600D02*X24661Y30680D01*
X26800Y30300D02*Y30140D01*
Y30300D02*X26938Y30380D01*
X26800Y30300D02*X26661Y30380D01*
X28300Y30500D02*Y30340D01*
Y30500D02*X28438Y30580D01*
X28300Y30500D02*X28161Y30580D01*
X29900Y30400D02*Y30240D01*
Y30400D02*X30038Y30480D01*
X29900Y30400D02*X29761Y30480D01*
X26600Y32300D02*Y32140D01*
Y32300D02*X26738Y32380D01*
X26600Y32300D02*X26461Y32380D01*
X24800Y32400D02*Y32240D01*
Y32400D02*X24938Y32480D01*
X24800Y32400D02*X24661Y32480D01*
X23200Y32200D02*Y32040D01*
Y32200D02*X23338Y32280D01*
X23200Y32200D02*X23061Y32280D01*
X21700Y32200D02*Y32040D01*
Y32200D02*X21838Y32280D01*
X21700Y32200D02*X21561Y32280D01*
X27900Y32300D02*Y32140D01*
Y32300D02*X28038Y32380D01*
X27900Y32300D02*X27761Y32380D01*
X27000Y17800D02*Y17640D01*
Y17800D02*X27138Y17880D01*
X27000Y17800D02*X26861Y17880D01*
X1500Y40625D02*Y40465D01*
Y40625D02*X1638Y40705D01*
X1500Y40625D02*X1361Y40705D01*
X13500Y40850D02*Y40775D01*
X13650Y40625D01*
X13800Y40775D01*
Y40850D02*Y40775D01*
X13650Y40625D02*Y40250D01*
X13980Y40550D02*X14205D01*
X13980Y40250D02*X14280D01*
X13980Y40850D02*Y40250D01*
Y40850D02*X14280D01*
X14760D02*X14835Y40775D01*
X14535Y40850D02*X14760D01*
X14460Y40775D02*X14535Y40850D01*
X14460Y40775D02*Y40625D01*
X14535Y40550D01*
X14760D01*
X14835Y40475D01*
Y40325D01*
X14760Y40250D02*X14835Y40325D01*
X14535Y40250D02*X14760D01*
X14460Y40325D02*X14535Y40250D01*
X13500Y39924D02*X15015D01*
X10025Y40850D02*X10100Y40775D01*
X9875Y40850D02*X10025D01*
X9800Y40775D02*X9875Y40850D01*
X9800Y40775D02*Y40325D01*
X9875Y40250D01*
X10025Y40550D02*X10100Y40475D01*
X9800Y40550D02*X10025D01*
X9875Y40250D02*X10025D01*
X10100Y40325D01*
Y40475D02*Y40325D01*
X10280Y40250D02*X10580Y40550D01*
Y40775D02*Y40550D01*
X10505Y40850D02*X10580Y40775D01*
X10355Y40850D02*X10505D01*
X10280Y40775D02*X10355Y40850D01*
X10280Y40775D02*Y40625D01*
X10355Y40550D01*
X10580D01*
X9800Y39924D02*X10760D01*
X4500Y40325D02*X4575Y40250D01*
X4500Y40775D02*Y40325D01*
Y40775D02*X4575Y40850D01*
X4725D01*
X4800Y40775D01*
Y40325D01*
X4725Y40250D02*X4800Y40325D01*
X4575Y40250D02*X4725D01*
X4500Y40400D02*X4800Y40700D01*
X4980Y40250D02*X5055D01*
X5235Y40325D02*X5310Y40250D01*
X5235Y40775D02*Y40325D01*
Y40775D02*X5310Y40850D01*
X5460D01*
X5535Y40775D01*
Y40325D01*
X5460Y40250D02*X5535Y40325D01*
X5310Y40250D02*X5460D01*
X5235Y40400D02*X5535Y40700D01*
X5715Y40775D02*X5790Y40850D01*
X6015D01*
X6090Y40775D01*
Y40625D01*
X5715Y40250D02*X6090Y40625D01*
X5715Y40250D02*X6090D01*
X6270Y40325D02*X6345Y40250D01*
X6270Y40775D02*Y40325D01*
Y40775D02*X6345Y40850D01*
X6495D01*
X6570Y40775D01*
Y40325D01*
X6495Y40250D02*X6570Y40325D01*
X6345Y40250D02*X6495D01*
X6270Y40400D02*X6570Y40700D01*
X4500Y39924D02*X6750D01*
X300Y42350D02*X375Y42275D01*
X75Y42350D02*X300D01*
X0Y42275D02*X75Y42350D01*
X0Y42275D02*Y42125D01*
X75Y42050D01*
X300D01*
X375Y41975D01*
Y41825D01*
X300Y41750D02*X375Y41825D01*
X75Y41750D02*X300D01*
X0Y41825D02*X75Y41750D01*
X555Y42050D02*Y41825D01*
X630Y41750D01*
X855Y42050D02*Y41600D01*
X780Y41525D02*X855Y41600D01*
X630Y41525D02*X780D01*
X555Y41600D02*X630Y41525D01*
Y41750D02*X780D01*
X855Y41825D01*
X1110Y41975D02*Y41750D01*
Y41975D02*X1185Y42050D01*
X1260D01*
X1335Y41975D01*
Y41750D01*
Y41975D02*X1410Y42050D01*
X1485D01*
X1560Y41975D01*
Y41750D01*
X1035Y42050D02*X1110Y41975D01*
X1740Y42350D02*Y41750D01*
Y41825D02*X1815Y41750D01*
X1965D01*
X2040Y41825D01*
Y41975D02*Y41825D01*
X1965Y42050D02*X2040Y41975D01*
X1815Y42050D02*X1965D01*
X1740Y41975D02*X1815Y42050D01*
X2220Y41975D02*Y41825D01*
Y41975D02*X2295Y42050D01*
X2445D01*
X2520Y41975D01*
Y41825D01*
X2445Y41750D02*X2520Y41825D01*
X2295Y41750D02*X2445D01*
X2220Y41825D02*X2295Y41750D01*
X2700Y42350D02*Y41825D01*
X2775Y41750D01*
X4175Y42350D02*Y41750D01*
X4400Y42350D02*X4475Y42275D01*
Y41825D01*
X4400Y41750D02*X4475Y41825D01*
X4100Y41750D02*X4400D01*
X4100Y42350D02*X4400D01*
X4655Y42200D02*Y42125D01*
Y41975D02*Y41750D01*
X5030Y42050D02*X5105Y41975D01*
X4880Y42050D02*X5030D01*
X4805Y41975D02*X4880Y42050D01*
X4805Y41975D02*Y41825D01*
X4880Y41750D01*
X5105Y42050D02*Y41825D01*
X5180Y41750D01*
X4880D02*X5030D01*
X5105Y41825D01*
X5435Y41975D02*Y41750D01*
Y41975D02*X5510Y42050D01*
X5585D01*
X5660Y41975D01*
Y41750D01*
Y41975D02*X5735Y42050D01*
X5810D01*
X5885Y41975D01*
Y41750D01*
X5360Y42050D02*X5435Y41975D01*
X6065Y41750D02*X6140D01*
X6590Y41825D02*X6665Y41750D01*
X6590Y42275D02*X6665Y42350D01*
X6590Y42275D02*Y41825D01*
X6845Y42350D02*X6995D01*
X6920D02*Y41750D01*
X6845D02*X6995D01*
X7251Y41975D02*Y41750D01*
Y41975D02*X7326Y42050D01*
X7401D01*
X7476Y41975D01*
Y41750D01*
X7176Y42050D02*X7251Y41975D01*
X7731Y42050D02*X7956D01*
X7656Y41975D02*X7731Y42050D01*
X7656Y41975D02*Y41825D01*
X7731Y41750D01*
X7956D01*
X8136Y42350D02*Y41750D01*
Y41975D02*X8211Y42050D01*
X8361D01*
X8436Y41975D01*
Y41750D01*
X8616Y42350D02*X8691Y42275D01*
Y41825D01*
X8616Y41750D02*X8691Y41825D01*
X9575Y41750D02*X9800D01*
X9500Y41825D02*X9575Y41750D01*
X9500Y42275D02*Y41825D01*
Y42275D02*X9575Y42350D01*
X9800D01*
X9980Y41975D02*Y41825D01*
Y41975D02*X10055Y42050D01*
X10205D01*
X10280Y41975D01*
Y41825D01*
X10205Y41750D02*X10280Y41825D01*
X10055Y41750D02*X10205D01*
X9980Y41825D02*X10055Y41750D01*
X10460Y42050D02*Y41825D01*
X10535Y41750D01*
X10685D01*
X10760Y41825D01*
Y42050D02*Y41825D01*
X11015Y41975D02*Y41750D01*
Y41975D02*X11090Y42050D01*
X11165D01*
X11240Y41975D01*
Y41750D01*
X10940Y42050D02*X11015Y41975D01*
X11495Y42350D02*Y41825D01*
X11570Y41750D01*
X11420Y42125D02*X11570D01*
X13075Y42350D02*Y41750D01*
X13000Y42350D02*X13300D01*
X13375Y42275D01*
Y42125D01*
X13300Y42050D02*X13375Y42125D01*
X13075Y42050D02*X13300D01*
X13555Y42350D02*Y41825D01*
X13630Y41750D01*
X14005Y42050D02*X14080Y41975D01*
X13855Y42050D02*X14005D01*
X13780Y41975D02*X13855Y42050D01*
X13780Y41975D02*Y41825D01*
X13855Y41750D01*
X14080Y42050D02*Y41825D01*
X14155Y41750D01*
X13855D02*X14005D01*
X14080Y41825D01*
X14410Y42350D02*Y41825D01*
X14485Y41750D01*
X14335Y42125D02*X14485D01*
X14710Y41750D02*X14935D01*
X14635Y41825D02*X14710Y41750D01*
X14635Y41975D02*Y41825D01*
Y41975D02*X14710Y42050D01*
X14860D01*
X14935Y41975D01*
X14635Y41900D02*X14935D01*
Y41975D02*Y41900D01*
X15415Y42350D02*Y41750D01*
X15340D02*X15415Y41825D01*
X15190Y41750D02*X15340D01*
X15115Y41825D02*X15190Y41750D01*
X15115Y41975D02*Y41825D01*
Y41975D02*X15190Y42050D01*
X15340D01*
X15415Y41975D01*
X15745Y42050D02*Y41975D01*
Y41825D02*Y41750D01*
X15595Y42275D02*Y42200D01*
Y42275D02*X15670Y42350D01*
X15820D01*
X15895Y42275D01*
Y42200D01*
X15745Y42050D02*X15895Y42200D01*
X0Y43850D02*X300D01*
X150D02*Y43250D01*
X480Y43850D02*Y43250D01*
Y43475D02*X555Y43550D01*
X705D01*
X780Y43475D01*
Y43250D01*
X1035D02*X1260D01*
X960Y43325D02*X1035Y43250D01*
X960Y43475D02*Y43325D01*
Y43475D02*X1035Y43550D01*
X1185D01*
X1260Y43475D01*
X960Y43400D02*X1260D01*
Y43475D02*Y43400D01*
X1515Y43475D02*Y43250D01*
Y43475D02*X1590Y43550D01*
X1740D01*
X1440D02*X1515Y43475D01*
X1995Y43250D02*X2220D01*
X1920Y43325D02*X1995Y43250D01*
X1920Y43475D02*Y43325D01*
Y43475D02*X1995Y43550D01*
X2145D01*
X2220Y43475D01*
X1920Y43400D02*X2220D01*
Y43475D02*Y43400D01*
X2895Y43550D02*X2970Y43475D01*
X2745Y43550D02*X2895D01*
X2670Y43475D02*X2745Y43550D01*
X2670Y43475D02*Y43325D01*
X2745Y43250D01*
X2970Y43550D02*Y43325D01*
X3045Y43250D01*
X2745D02*X2895D01*
X2970Y43325D01*
X3300Y43475D02*Y43250D01*
Y43475D02*X3375Y43550D01*
X3525D01*
X3225D02*X3300Y43475D01*
X3781Y43250D02*X4006D01*
X3706Y43325D02*X3781Y43250D01*
X3706Y43475D02*Y43325D01*
Y43475D02*X3781Y43550D01*
X3931D01*
X4006Y43475D01*
X3706Y43400D02*X4006D01*
Y43475D02*Y43400D01*
X4456Y43775D02*X4531Y43850D01*
X4681D01*
X4756Y43775D01*
Y43325D01*
X4681Y43250D02*X4756Y43325D01*
X4531Y43250D02*X4681D01*
X4456Y43325D02*X4531Y43250D01*
Y43550D02*X4756D01*
X5506Y43850D02*Y43250D01*
X5431D02*X5506Y43325D01*
X5281Y43250D02*X5431D01*
X5206Y43325D02*X5281Y43250D01*
X5206Y43475D02*Y43325D01*
Y43475D02*X5281Y43550D01*
X5431D01*
X5506Y43475D01*
X5686Y43700D02*Y43625D01*
Y43475D02*Y43250D01*
X5911Y43775D02*Y43250D01*
Y43775D02*X5986Y43850D01*
X6061D01*
X5836Y43550D02*X5986D01*
X6286Y43775D02*Y43250D01*
Y43775D02*X6361Y43850D01*
X6436D01*
X6211Y43550D02*X6361D01*
X6661Y43250D02*X6886D01*
X6586Y43325D02*X6661Y43250D01*
X6586Y43475D02*Y43325D01*
Y43475D02*X6661Y43550D01*
X6811D01*
X6886Y43475D01*
X6586Y43400D02*X6886D01*
Y43475D02*Y43400D01*
X7142Y43475D02*Y43250D01*
Y43475D02*X7217Y43550D01*
X7367D01*
X7067D02*X7142Y43475D01*
X7622Y43250D02*X7847D01*
X7547Y43325D02*X7622Y43250D01*
X7547Y43475D02*Y43325D01*
Y43475D02*X7622Y43550D01*
X7772D01*
X7847Y43475D01*
X7547Y43400D02*X7847D01*
Y43475D02*Y43400D01*
X8102Y43475D02*Y43250D01*
Y43475D02*X8177Y43550D01*
X8252D01*
X8327Y43475D01*
Y43250D01*
X8027Y43550D02*X8102Y43475D01*
X8582Y43850D02*Y43325D01*
X8657Y43250D01*
X8507Y43625D02*X8657D01*
X9377Y43850D02*Y43250D01*
X9302D02*X9377Y43325D01*
X9152Y43250D02*X9302D01*
X9077Y43325D02*X9152Y43250D01*
X9077Y43475D02*Y43325D01*
Y43475D02*X9152Y43550D01*
X9302D01*
X9377Y43475D01*
X9632D02*Y43250D01*
Y43475D02*X9707Y43550D01*
X9857D01*
X9557D02*X9632Y43475D01*
X10038Y43700D02*Y43625D01*
Y43475D02*Y43250D01*
X10188Y43850D02*Y43325D01*
X10263Y43250D01*
X10413Y43850D02*Y43325D01*
X10488Y43250D01*
X10983D02*X11208D01*
X11283Y43325D01*
X11208Y43400D02*X11283Y43325D01*
X10983Y43400D02*X11208D01*
X10908Y43475D02*X10983Y43400D01*
X10908Y43475D02*X10983Y43550D01*
X11208D01*
X11283Y43475D01*
X10908Y43325D02*X10983Y43250D01*
X11463Y43700D02*Y43625D01*
Y43475D02*Y43250D01*
X11613Y43550D02*X11913D01*
X11613Y43250D02*X11913Y43550D01*
X11613Y43250D02*X11913D01*
X12168D02*X12393D01*
X12093Y43325D02*X12168Y43250D01*
X12093Y43475D02*Y43325D01*
Y43475D02*X12168Y43550D01*
X12318D01*
X12393Y43475D01*
X12093Y43400D02*X12393D01*
Y43475D02*Y43400D01*
X12649Y43250D02*X12874D01*
X12949Y43325D01*
X12874Y43400D02*X12949Y43325D01*
X12649Y43400D02*X12874D01*
X12574Y43475D02*X12649Y43400D01*
X12574Y43475D02*X12649Y43550D01*
X12874D01*
X12949Y43475D01*
X12574Y43325D02*X12649Y43250D01*
X13399Y43550D02*Y43325D01*
X13474Y43250D01*
X13624D01*
X13699Y43325D01*
Y43550D02*Y43325D01*
X13954Y43250D02*X14179D01*
X14254Y43325D01*
X14179Y43400D02*X14254Y43325D01*
X13954Y43400D02*X14179D01*
X13879Y43475D02*X13954Y43400D01*
X13879Y43475D02*X13954Y43550D01*
X14179D01*
X14254Y43475D01*
X13879Y43325D02*X13954Y43250D01*
X14509D02*X14734D01*
X14434Y43325D02*X14509Y43250D01*
X14434Y43475D02*Y43325D01*
Y43475D02*X14509Y43550D01*
X14659D01*
X14734Y43475D01*
X14434Y43400D02*X14734D01*
Y43475D02*Y43400D01*
X15214Y43850D02*Y43250D01*
X15139D02*X15214Y43325D01*
X14989Y43250D02*X15139D01*
X14914Y43325D02*X14989Y43250D01*
X14914Y43475D02*Y43325D01*
Y43475D02*X14989Y43550D01*
X15139D01*
X15214Y43475D01*
X15664Y43700D02*Y43625D01*
Y43475D02*Y43250D01*
X15889Y43475D02*Y43250D01*
Y43475D02*X15964Y43550D01*
X16039D01*
X16114Y43475D01*
Y43250D01*
X15814Y43550D02*X15889Y43475D01*
X16640Y43850D02*Y43325D01*
X16715Y43250D01*
X16565Y43625D02*X16715D01*
X16865Y43850D02*Y43250D01*
Y43475D02*X16940Y43550D01*
X17090D01*
X17165Y43475D01*
Y43250D01*
X17345Y43700D02*Y43625D01*
Y43475D02*Y43250D01*
X17570D02*X17795D01*
X17870Y43325D01*
X17795Y43400D02*X17870Y43325D01*
X17570Y43400D02*X17795D01*
X17495Y43475D02*X17570Y43400D01*
X17495Y43475D02*X17570Y43550D01*
X17795D01*
X17870Y43475D01*
X17495Y43325D02*X17570Y43250D01*
X18320Y43850D02*Y43325D01*
X18395Y43250D01*
X18770Y43550D02*X18845Y43475D01*
X18620Y43550D02*X18770D01*
X18545Y43475D02*X18620Y43550D01*
X18545Y43475D02*Y43325D01*
X18620Y43250D01*
X18845Y43550D02*Y43325D01*
X18920Y43250D01*
X18620D02*X18770D01*
X18845Y43325D01*
X19101Y43550D02*Y43325D01*
X19176Y43250D01*
X19401Y43550D02*Y43100D01*
X19326Y43025D02*X19401Y43100D01*
X19176Y43025D02*X19326D01*
X19101Y43100D02*X19176Y43025D01*
Y43250D02*X19326D01*
X19401Y43325D01*
X19581Y43475D02*Y43325D01*
Y43475D02*X19656Y43550D01*
X19806D01*
X19881Y43475D01*
Y43325D01*
X19806Y43250D02*X19881Y43325D01*
X19656Y43250D02*X19806D01*
X19581Y43325D02*X19656Y43250D01*
X20061Y43550D02*Y43325D01*
X20136Y43250D01*
X20286D01*
X20361Y43325D01*
Y43550D02*Y43325D01*
X20616Y43850D02*Y43325D01*
X20691Y43250D01*
X20541Y43625D02*X20691D01*
X20841Y43100D02*X20991Y43250D01*
X21516D02*X21666D01*
X21591Y43850D02*Y43250D01*
X21441Y43700D02*X21591Y43850D01*
X21846Y43250D02*X22146Y43550D01*
Y43775D02*Y43550D01*
X22071Y43850D02*X22146Y43775D01*
X21921Y43850D02*X22071D01*
X21846Y43775D02*X21921Y43850D01*
X21846Y43775D02*Y43625D01*
X21921Y43550D01*
X22146D01*
X22327Y43325D02*X22402Y43250D01*
X22327Y43775D02*Y43325D01*
Y43775D02*X22402Y43850D01*
X22552D01*
X22627Y43775D01*
Y43325D01*
X22552Y43250D02*X22627Y43325D01*
X22402Y43250D02*X22552D01*
X22327Y43400D02*X22627Y43700D01*
X23077Y43850D02*Y43250D01*
Y43475D02*X23152Y43550D01*
X23302D01*
X23377Y43475D01*
Y43250D01*
X23557Y43475D02*Y43325D01*
Y43475D02*X23632Y43550D01*
X23782D01*
X23857Y43475D01*
Y43325D01*
X23782Y43250D02*X23857Y43325D01*
X23632Y43250D02*X23782D01*
X23557Y43325D02*X23632Y43250D01*
X24037Y43850D02*Y43325D01*
X24112Y43250D01*
X24337D02*X24562D01*
X24262Y43325D02*X24337Y43250D01*
X24262Y43475D02*Y43325D01*
Y43475D02*X24337Y43550D01*
X24487D01*
X24562Y43475D01*
X24262Y43400D02*X24562D01*
Y43475D02*Y43400D01*
X24817Y43250D02*X25042D01*
X25117Y43325D01*
X25042Y43400D02*X25117Y43325D01*
X24817Y43400D02*X25042D01*
X24742Y43475D02*X24817Y43400D01*
X24742Y43475D02*X24817Y43550D01*
X25042D01*
X25117Y43475D01*
X24742Y43325D02*X24817Y43250D01*
X25642Y43850D02*Y43325D01*
X25717Y43250D01*
X25567Y43625D02*X25717D01*
X25868Y43475D02*Y43325D01*
Y43475D02*X25943Y43550D01*
X26093D01*
X26168Y43475D01*
Y43325D01*
X26093Y43250D02*X26168Y43325D01*
X25943Y43250D02*X26093D01*
X25868Y43325D02*X25943Y43250D01*
X26423Y43850D02*Y43325D01*
X26498Y43250D01*
X26348Y43625D02*X26498D01*
X26873Y43550D02*X26948Y43475D01*
X26723Y43550D02*X26873D01*
X26648Y43475D02*X26723Y43550D01*
X26648Y43475D02*Y43325D01*
X26723Y43250D01*
X26948Y43550D02*Y43325D01*
X27023Y43250D01*
X26723D02*X26873D01*
X26948Y43325D01*
X27203Y43850D02*Y43325D01*
X27278Y43250D01*
G54D11*X0Y35000D02*X36000D01*
X0D02*Y0D01*
X36000Y35000D02*Y0D01*
X0D02*X36000D01*
G54D30*X20000Y36350D02*Y35750D01*
Y36350D02*X20225Y36125D01*
X20450Y36350D01*
Y35750D01*
X20855Y36050D02*X20930Y35975D01*
X20705Y36050D02*X20855D01*
X20630Y35975D02*X20705Y36050D01*
X20630Y35975D02*Y35825D01*
X20705Y35750D01*
X20930Y36050D02*Y35825D01*
X21005Y35750D01*
X20705D02*X20855D01*
X20930Y35825D01*
X21185Y36050D02*X21485Y35750D01*
X21185D02*X21485Y36050D01*
X21665Y36200D02*Y36125D01*
Y35975D02*Y35750D01*
X21890Y35975D02*Y35750D01*
Y35975D02*X21965Y36050D01*
X22040D01*
X22115Y35975D01*
Y35750D01*
Y35975D02*X22190Y36050D01*
X22265D01*
X22340Y35975D01*
Y35750D01*
X21815Y36050D02*X21890Y35975D01*
X22520Y36050D02*Y35825D01*
X22595Y35750D01*
X22745D01*
X22820Y35825D01*
Y36050D02*Y35825D01*
X23075Y35975D02*Y35750D01*
Y35975D02*X23150Y36050D01*
X23225D01*
X23300Y35975D01*
Y35750D01*
Y35975D02*X23375Y36050D01*
X23450D01*
X23525Y35975D01*
Y35750D01*
X23000Y36050D02*X23075Y35975D01*
X24051Y36350D02*Y35750D01*
X24276Y36350D02*X24351Y36275D01*
Y35825D01*
X24276Y35750D02*X24351Y35825D01*
X23976Y35750D02*X24276D01*
X23976Y36350D02*X24276D01*
X24531Y36200D02*Y36125D01*
Y35975D02*Y35750D01*
X24756Y35975D02*Y35750D01*
Y35975D02*X24831Y36050D01*
X24906D01*
X24981Y35975D01*
Y35750D01*
Y35975D02*X25056Y36050D01*
X25131D01*
X25206Y35975D01*
Y35750D01*
X24681Y36050D02*X24756Y35975D01*
X25461Y35750D02*X25686D01*
X25386Y35825D02*X25461Y35750D01*
X25386Y35975D02*Y35825D01*
Y35975D02*X25461Y36050D01*
X25611D01*
X25686Y35975D01*
X25386Y35900D02*X25686D01*
Y35975D02*Y35900D01*
X25941Y35975D02*Y35750D01*
Y35975D02*X26016Y36050D01*
X26091D01*
X26166Y35975D01*
Y35750D01*
X25866Y36050D02*X25941Y35975D01*
X26421Y35750D02*X26646D01*
X26721Y35825D01*
X26646Y35900D02*X26721Y35825D01*
X26421Y35900D02*X26646D01*
X26346Y35975D02*X26421Y35900D01*
X26346Y35975D02*X26421Y36050D01*
X26646D01*
X26721Y35975D01*
X26346Y35825D02*X26421Y35750D01*
X26901Y36200D02*Y36125D01*
Y35975D02*Y35750D01*
X27052Y35975D02*Y35825D01*
Y35975D02*X27127Y36050D01*
X27277D01*
X27352Y35975D01*
Y35825D01*
X27277Y35750D02*X27352Y35825D01*
X27127Y35750D02*X27277D01*
X27052Y35825D02*X27127Y35750D01*
X27607Y35975D02*Y35750D01*
Y35975D02*X27682Y36050D01*
X27757D01*
X27832Y35975D01*
Y35750D01*
X27532Y36050D02*X27607Y35975D01*
X28087Y35750D02*X28312D01*
X28387Y35825D01*
X28312Y35900D02*X28387Y35825D01*
X28087Y35900D02*X28312D01*
X28012Y35975D02*X28087Y35900D01*
X28012Y35975D02*X28087Y36050D01*
X28312D01*
X28387Y35975D01*
X28012Y35825D02*X28087Y35750D01*
X28567Y36125D02*X28642D01*
X28567Y35975D02*X28642D01*
X29092Y36275D02*X29167Y36350D01*
X29317D01*
X29392Y36275D01*
Y35825D01*
X29317Y35750D02*X29392Y35825D01*
X29167Y35750D02*X29317D01*
X29092Y35825D02*X29167Y35750D01*
Y36050D02*X29392D01*
X29797Y36350D02*X29872Y36275D01*
X29647Y36350D02*X29797D01*
X29572Y36275D02*X29647Y36350D01*
X29572Y36275D02*Y35825D01*
X29647Y35750D01*
X29797Y36050D02*X29872Y35975D01*
X29572Y36050D02*X29797D01*
X29647Y35750D02*X29797D01*
X29872Y35825D01*
Y35975D02*Y35825D01*
X30053D02*X30128Y35750D01*
X30053Y36275D02*Y35825D01*
Y36275D02*X30128Y36350D01*
X30278D01*
X30353Y36275D01*
Y35825D01*
X30278Y35750D02*X30353Y35825D01*
X30128Y35750D02*X30278D01*
X30053Y35900D02*X30353Y36200D01*
X30533Y35825D02*X30608Y35750D01*
X30533Y36275D02*Y35825D01*
Y36275D02*X30608Y36350D01*
X30758D01*
X30833Y36275D01*
Y35825D01*
X30758Y35750D02*X30833Y35825D01*
X30608Y35750D02*X30758D01*
X30533Y35900D02*X30833Y36200D01*
X31358Y35975D02*Y35750D01*
Y35975D02*X31433Y36050D01*
X31508D01*
X31583Y35975D01*
Y35750D01*
Y35975D02*X31658Y36050D01*
X31733D01*
X31808Y35975D01*
Y35750D01*
X31283Y36050D02*X31358Y35975D01*
X31988Y36200D02*Y36125D01*
Y35975D02*Y35750D01*
X32138Y36350D02*Y35825D01*
X32213Y35750D01*
X32438D02*X32663D01*
X32738Y35825D01*
X32663Y35900D02*X32738Y35825D01*
X32438Y35900D02*X32663D01*
X32363Y35975D02*X32438Y35900D01*
X32363Y35975D02*X32438Y36050D01*
X32663D01*
X32738Y35975D01*
X32363Y35825D02*X32438Y35750D01*
X33188Y36050D02*Y35825D01*
X33263Y35750D01*
X33338D01*
X33413Y35825D01*
Y36050D02*Y35825D01*
X33488Y35750D01*
X33563D01*
X33638Y35825D01*
Y36050D02*Y35825D01*
X33819Y36200D02*Y36125D01*
Y35975D02*Y35750D01*
X34269Y36350D02*Y35750D01*
X34194D02*X34269Y35825D01*
X34044Y35750D02*X34194D01*
X33969Y35825D02*X34044Y35750D01*
X33969Y35975D02*Y35825D01*
Y35975D02*X34044Y36050D01*
X34194D01*
X34269Y35975D01*
X34524Y35750D02*X34749D01*
X34449Y35825D02*X34524Y35750D01*
X34449Y35975D02*Y35825D01*
Y35975D02*X34524Y36050D01*
X34674D01*
X34749Y35975D01*
X34449Y35900D02*X34749D01*
Y35975D02*Y35900D01*
X34929Y35600D02*X35079Y35750D01*
X35529Y36275D02*X35604Y36350D01*
X35754D01*
X35829Y36275D01*
Y35825D01*
X35754Y35750D02*X35829Y35825D01*
X35604Y35750D02*X35754D01*
X35529Y35825D02*X35604Y35750D01*
Y36050D02*X35829D01*
X36009Y36350D02*X36309D01*
X36009D02*Y36050D01*
X36084Y36125D01*
X36234D01*
X36309Y36050D01*
Y35825D01*
X36234Y35750D02*X36309Y35825D01*
X36084Y35750D02*X36234D01*
X36009Y35825D02*X36084Y35750D01*
X36489Y35825D02*X36564Y35750D01*
X36489Y36275D02*Y35825D01*
Y36275D02*X36564Y36350D01*
X36714D01*
X36789Y36275D01*
Y35825D01*
X36714Y35750D02*X36789Y35825D01*
X36564Y35750D02*X36714D01*
X36489Y35900D02*X36789Y36200D01*
X36970Y35825D02*X37045Y35750D01*
X36970Y36275D02*Y35825D01*
Y36275D02*X37045Y36350D01*
X37195D01*
X37270Y36275D01*
Y35825D01*
X37195Y35750D02*X37270Y35825D01*
X37045Y35750D02*X37195D01*
X36970Y35900D02*X37270Y36200D01*
X37795Y35975D02*Y35750D01*
Y35975D02*X37870Y36050D01*
X37945D01*
X38020Y35975D01*
Y35750D01*
Y35975D02*X38095Y36050D01*
X38170D01*
X38245Y35975D01*
Y35750D01*
X37720Y36050D02*X37795Y35975D01*
X38425Y36200D02*Y36125D01*
Y35975D02*Y35750D01*
X38575Y36350D02*Y35825D01*
X38650Y35750D01*
X38875D02*X39100D01*
X39175Y35825D01*
X39100Y35900D02*X39175Y35825D01*
X38875Y35900D02*X39100D01*
X38800Y35975D02*X38875Y35900D01*
X38800Y35975D02*X38875Y36050D01*
X39100D01*
X39175Y35975D01*
X38800Y35825D02*X38875Y35750D01*
X39625Y36350D02*Y35750D01*
Y35975D02*X39700Y36050D01*
X39850D01*
X39925Y35975D01*
Y35750D01*
X40106Y36200D02*Y36125D01*
Y35975D02*Y35750D01*
X40481Y36050D02*X40556Y35975D01*
X40331Y36050D02*X40481D01*
X40256Y35975D02*X40331Y36050D01*
X40256Y35975D02*Y35825D01*
X40331Y35750D01*
X40481D01*
X40556Y35825D01*
X40256Y35600D02*X40331Y35525D01*
X40481D01*
X40556Y35600D01*
Y36050D02*Y35600D01*
X40736Y36350D02*Y35750D01*
Y35975D02*X40811Y36050D01*
X40961D01*
X41036Y35975D01*
Y35750D01*
X2222Y-950D02*X2522D01*
X2597Y-875D01*
Y-725D02*Y-875D01*
X2522Y-650D02*X2597Y-725D01*
X2297Y-650D02*X2522D01*
X2297Y-350D02*Y-950D01*
X2222Y-350D02*X2522D01*
X2597Y-425D01*
Y-575D01*
X2522Y-650D02*X2597Y-575D01*
X2777Y-725D02*Y-875D01*
Y-725D02*X2852Y-650D01*
X3002D01*
X3077Y-725D01*
Y-875D01*
X3002Y-950D02*X3077Y-875D01*
X2852Y-950D02*X3002D01*
X2777Y-875D02*X2852Y-950D01*
X3482Y-650D02*X3557Y-725D01*
X3332Y-650D02*X3482D01*
X3257Y-725D02*X3332Y-650D01*
X3257Y-725D02*Y-875D01*
X3332Y-950D01*
X3557Y-650D02*Y-875D01*
X3632Y-950D01*
X3332D02*X3482D01*
X3557Y-875D01*
X3888Y-725D02*Y-950D01*
Y-725D02*X3963Y-650D01*
X4113D01*
X3813D02*X3888Y-725D01*
X4593Y-350D02*Y-950D01*
X4518D02*X4593Y-875D01*
X4368Y-950D02*X4518D01*
X4293Y-875D02*X4368Y-950D01*
X4293Y-725D02*Y-875D01*
Y-725D02*X4368Y-650D01*
X4518D01*
X4593Y-725D01*
X5043D02*Y-875D01*
Y-725D02*X5118Y-650D01*
X5268D01*
X5343Y-725D01*
Y-875D01*
X5268Y-950D02*X5343Y-875D01*
X5118Y-950D02*X5268D01*
X5043Y-875D02*X5118Y-950D01*
X5523Y-650D02*Y-875D01*
X5598Y-950D01*
X5748D01*
X5823Y-875D01*
Y-650D02*Y-875D01*
X6078Y-350D02*Y-875D01*
X6153Y-950D01*
X6003Y-575D02*X6153D01*
X6303Y-350D02*Y-875D01*
X6378Y-950D01*
X6528Y-500D02*Y-575D01*
Y-725D02*Y-950D01*
X6754Y-725D02*Y-950D01*
Y-725D02*X6829Y-650D01*
X6904D01*
X6979Y-725D01*
Y-950D01*
X6679Y-650D02*X6754Y-725D01*
X7234Y-950D02*X7459D01*
X7159Y-875D02*X7234Y-950D01*
X7159Y-725D02*Y-875D01*
Y-725D02*X7234Y-650D01*
X7384D01*
X7459Y-725D01*
X7159Y-800D02*X7459D01*
Y-725D02*Y-800D01*
X7909Y-500D02*Y-575D01*
Y-725D02*Y-950D01*
X8134D02*X8359D01*
X8434Y-875D01*
X8359Y-800D02*X8434Y-875D01*
X8134Y-800D02*X8359D01*
X8059Y-725D02*X8134Y-800D01*
X8059Y-725D02*X8134Y-650D01*
X8359D01*
X8434Y-725D01*
X8059Y-875D02*X8134Y-950D01*
X8959Y-350D02*Y-875D01*
X9034Y-950D01*
X8884Y-575D02*X9034D01*
X9184Y-350D02*Y-950D01*
Y-725D02*X9259Y-650D01*
X9409D01*
X9484Y-725D01*
Y-950D01*
X9740D02*X9965D01*
X9665Y-875D02*X9740Y-950D01*
X9665Y-725D02*Y-875D01*
Y-725D02*X9740Y-650D01*
X9890D01*
X9965Y-725D01*
X9665Y-800D02*X9965D01*
Y-725D02*Y-800D01*
X10490Y-650D02*X10715D01*
X10415Y-725D02*X10490Y-650D01*
X10415Y-725D02*Y-875D01*
X10490Y-950D01*
X10715D01*
X10970D02*X11195D01*
X10895Y-875D02*X10970Y-950D01*
X10895Y-725D02*Y-875D01*
Y-725D02*X10970Y-650D01*
X11120D01*
X11195Y-725D01*
X10895Y-800D02*X11195D01*
Y-725D02*Y-800D01*
X11450Y-725D02*Y-950D01*
Y-725D02*X11525Y-650D01*
X11600D01*
X11675Y-725D01*
Y-950D01*
X11375Y-650D02*X11450Y-725D01*
X11930Y-350D02*Y-875D01*
X12005Y-950D01*
X11855Y-575D02*X12005D01*
X12230Y-950D02*X12455D01*
X12155Y-875D02*X12230Y-950D01*
X12155Y-725D02*Y-875D01*
Y-725D02*X12230Y-650D01*
X12380D01*
X12455Y-725D01*
X12155Y-800D02*X12455D01*
Y-725D02*Y-800D01*
X12710Y-725D02*Y-950D01*
Y-725D02*X12785Y-650D01*
X12935D01*
X12635D02*X12710Y-725D01*
X13116Y-350D02*Y-875D01*
X13191Y-950D01*
X13341Y-500D02*Y-575D01*
Y-725D02*Y-950D01*
X13566Y-725D02*Y-950D01*
Y-725D02*X13641Y-650D01*
X13716D01*
X13791Y-725D01*
Y-950D01*
X13491Y-650D02*X13566Y-725D01*
X14046Y-950D02*X14271D01*
X13971Y-875D02*X14046Y-950D01*
X13971Y-725D02*Y-875D01*
Y-725D02*X14046Y-650D01*
X14196D01*
X14271Y-725D01*
X13971Y-800D02*X14271D01*
Y-725D02*Y-800D01*
X14721Y-725D02*Y-875D01*
Y-725D02*X14796Y-650D01*
X14946D01*
X15021Y-725D01*
Y-875D01*
X14946Y-950D02*X15021Y-875D01*
X14796Y-950D02*X14946D01*
X14721Y-875D02*X14796Y-950D01*
X15276Y-425D02*Y-950D01*
Y-425D02*X15351Y-350D01*
X15426D01*
X15201Y-650D02*X15351D01*
X15921Y-350D02*Y-875D01*
X15996Y-950D01*
X15846Y-575D02*X15996D01*
X16147Y-350D02*Y-950D01*
Y-725D02*X16222Y-650D01*
X16372D01*
X16447Y-725D01*
Y-950D01*
X16627Y-500D02*Y-575D01*
Y-725D02*Y-950D01*
X16852D02*X17077D01*
X17152Y-875D01*
X17077Y-800D02*X17152Y-875D01*
X16852Y-800D02*X17077D01*
X16777Y-725D02*X16852Y-800D01*
X16777Y-725D02*X16852Y-650D01*
X17077D01*
X17152Y-725D01*
X16777Y-875D02*X16852Y-950D01*
X17677D02*X17827D01*
X17752Y-350D02*Y-950D01*
X17602Y-500D02*X17752Y-350D01*
X18007Y-875D02*X18082Y-950D01*
X18007Y-425D02*Y-875D01*
Y-425D02*X18082Y-350D01*
X18232D01*
X18307Y-425D01*
Y-875D01*
X18232Y-950D02*X18307Y-875D01*
X18082Y-950D02*X18232D01*
X18007Y-800D02*X18307Y-500D01*
X18832Y-725D02*Y-950D01*
Y-725D02*X18907Y-650D01*
X18982D01*
X19057Y-725D01*
Y-950D01*
Y-725D02*X19132Y-650D01*
X19207D01*
X19282Y-725D01*
Y-950D01*
X18757Y-650D02*X18832Y-725D01*
X19463Y-500D02*Y-575D01*
Y-725D02*Y-950D01*
X19613Y-350D02*Y-875D01*
X19688Y-950D01*
X20183Y-725D02*Y-950D01*
Y-725D02*X20258Y-650D01*
X20408D01*
X20108D02*X20183Y-725D01*
X20663Y-950D02*X20888D01*
X20588Y-875D02*X20663Y-950D01*
X20588Y-725D02*Y-875D01*
Y-725D02*X20663Y-650D01*
X20813D01*
X20888Y-725D01*
X20588Y-800D02*X20888D01*
Y-725D02*Y-800D01*
X21143Y-650D02*X21368D01*
X21068Y-725D02*X21143Y-650D01*
X21068Y-725D02*Y-875D01*
X21143Y-950D01*
X21368D01*
X21623Y-350D02*Y-875D01*
X21698Y-950D01*
X21548Y-575D02*X21698D01*
X22073Y-650D02*X22148Y-725D01*
X21923Y-650D02*X22073D01*
X21848Y-725D02*X21923Y-650D01*
X21848Y-725D02*Y-875D01*
X21923Y-950D01*
X22148Y-650D02*Y-875D01*
X22223Y-950D01*
X21923D02*X22073D01*
X22148Y-875D01*
X22479Y-725D02*Y-950D01*
Y-725D02*X22554Y-650D01*
X22629D01*
X22704Y-725D01*
Y-950D01*
X22404Y-650D02*X22479Y-725D01*
X23109Y-650D02*X23184Y-725D01*
X22959Y-650D02*X23109D01*
X22884Y-725D02*X22959Y-650D01*
X22884Y-725D02*Y-875D01*
X22959Y-950D01*
X23109D01*
X23184Y-875D01*
X22884Y-1100D02*X22959Y-1175D01*
X23109D01*
X23184Y-1100D01*
Y-650D02*Y-1100D01*
X23364Y-350D02*Y-875D01*
X23439Y-950D01*
X23664D02*X23889D01*
X23589Y-875D02*X23664Y-950D01*
X23589Y-725D02*Y-875D01*
Y-725D02*X23664Y-650D01*
X23814D01*
X23889Y-725D01*
X23589Y-800D02*X23889D01*
Y-725D02*Y-800D01*
X24339Y-650D02*X24639D01*
X25089Y-875D02*X25164Y-950D01*
X25089Y-425D02*Y-875D01*
Y-425D02*X25164Y-350D01*
X25314D01*
X25389Y-425D01*
Y-875D01*
X25314Y-950D02*X25389Y-875D01*
X25164Y-950D02*X25314D01*
X25089Y-800D02*X25389Y-500D01*
X25569Y-1100D02*X25719Y-950D01*
X25900Y-875D02*X25975Y-950D01*
X25900Y-425D02*Y-875D01*
Y-425D02*X25975Y-350D01*
X26125D01*
X26200Y-425D01*
Y-875D01*
X26125Y-950D02*X26200Y-875D01*
X25975Y-950D02*X26125D01*
X25900Y-800D02*X26200Y-500D01*
X26725Y-350D02*Y-875D01*
X26800Y-950D01*
X26650Y-575D02*X26800D01*
X26950Y-725D02*Y-875D01*
Y-725D02*X27025Y-650D01*
X27175D01*
X27250Y-725D01*
Y-875D01*
X27175Y-950D02*X27250Y-875D01*
X27025Y-950D02*X27175D01*
X26950Y-875D02*X27025Y-950D01*
X27700Y-425D02*X27775Y-350D01*
X27925D01*
X28000Y-425D01*
Y-875D01*
X27925Y-950D02*X28000Y-875D01*
X27775Y-950D02*X27925D01*
X27700Y-875D02*X27775Y-950D01*
Y-650D02*X28000D01*
X28405Y-350D02*X28480Y-425D01*
X28255Y-350D02*X28405D01*
X28180Y-425D02*X28255Y-350D01*
X28180Y-425D02*Y-875D01*
X28255Y-950D01*
X28405Y-650D02*X28480Y-725D01*
X28180Y-650D02*X28405D01*
X28255Y-950D02*X28405D01*
X28480Y-875D01*
Y-725D02*Y-875D01*
X28660D02*X28735Y-950D01*
X28660Y-425D02*Y-875D01*
Y-425D02*X28735Y-350D01*
X28885D01*
X28960Y-425D01*
Y-875D01*
X28885Y-950D02*X28960Y-875D01*
X28735Y-950D02*X28885D01*
X28660Y-800D02*X28960Y-500D01*
X29141Y-875D02*X29216Y-950D01*
X29141Y-425D02*Y-875D01*
Y-425D02*X29216Y-350D01*
X29366D01*
X29441Y-425D01*
Y-875D01*
X29366Y-950D02*X29441Y-875D01*
X29216Y-950D02*X29366D01*
X29141Y-800D02*X29441Y-500D01*
X29621Y-1100D02*X29771Y-950D01*
X29951Y-425D02*X30026Y-350D01*
X30176D01*
X30251Y-425D01*
Y-875D01*
X30176Y-950D02*X30251Y-875D01*
X30026Y-950D02*X30176D01*
X29951Y-875D02*X30026Y-950D01*
Y-650D02*X30251D01*
X30431Y-350D02*X30731D01*
X30431D02*Y-650D01*
X30506Y-575D01*
X30656D01*
X30731Y-650D01*
Y-875D01*
X30656Y-950D02*X30731Y-875D01*
X30506Y-950D02*X30656D01*
X30431Y-875D02*X30506Y-950D01*
X30911Y-875D02*X30986Y-950D01*
X30911Y-425D02*Y-875D01*
Y-425D02*X30986Y-350D01*
X31136D01*
X31211Y-425D01*
Y-875D01*
X31136Y-950D02*X31211Y-875D01*
X30986Y-950D02*X31136D01*
X30911Y-800D02*X31211Y-500D01*
X31391Y-875D02*X31466Y-950D01*
X31391Y-425D02*Y-875D01*
Y-425D02*X31466Y-350D01*
X31616D01*
X31691Y-425D01*
Y-875D01*
X31616Y-950D02*X31691Y-875D01*
X31466Y-950D02*X31616D01*
X31391Y-800D02*X31691Y-500D01*
X32216Y-725D02*Y-950D01*
Y-725D02*X32291Y-650D01*
X32366D01*
X32441Y-725D01*
Y-950D01*
Y-725D02*X32516Y-650D01*
X32591D01*
X32666Y-725D01*
Y-950D01*
X32141Y-650D02*X32216Y-725D01*
X32847Y-500D02*Y-575D01*
Y-725D02*Y-950D01*
X32997Y-350D02*Y-875D01*
X33072Y-950D01*
X33297D02*X33522D01*
X33597Y-875D01*
X33522Y-800D02*X33597Y-875D01*
X33297Y-800D02*X33522D01*
X33222Y-725D02*X33297Y-800D01*
X33222Y-725D02*X33297Y-650D01*
X33522D01*
X33597Y-725D01*
X33222Y-875D02*X33297Y-950D01*
X20075Y37850D02*Y37250D01*
X20300Y37850D02*X20375Y37775D01*
Y37325D01*
X20300Y37250D02*X20375Y37325D01*
X20000Y37250D02*X20300D01*
X20000Y37850D02*X20300D01*
X20780Y37550D02*X20855Y37475D01*
X20630Y37550D02*X20780D01*
X20555Y37475D02*X20630Y37550D01*
X20555Y37475D02*Y37325D01*
X20630Y37250D01*
X20855Y37550D02*Y37325D01*
X20930Y37250D01*
X20630D02*X20780D01*
X20855Y37325D01*
X21185Y37850D02*Y37325D01*
X21260Y37250D01*
X21110Y37625D02*X21260D01*
X21485Y37250D02*X21710D01*
X21410Y37325D02*X21485Y37250D01*
X21410Y37475D02*Y37325D01*
Y37475D02*X21485Y37550D01*
X21635D01*
X21710Y37475D01*
X21410Y37400D02*X21710D01*
Y37475D02*Y37400D01*
X21890Y37625D02*X21965D01*
X21890Y37475D02*X21965D01*
X22715Y37850D02*X22790Y37775D01*
X22490Y37850D02*X22715D01*
X22415Y37775D02*X22490Y37850D01*
X22415Y37775D02*Y37625D01*
X22490Y37550D01*
X22715D01*
X22790Y37475D01*
Y37325D01*
X22715Y37250D02*X22790Y37325D01*
X22490Y37250D02*X22715D01*
X22415Y37325D02*X22490Y37250D01*
X23195Y37550D02*X23270Y37475D01*
X23045Y37550D02*X23195D01*
X22970Y37475D02*X23045Y37550D01*
X22970Y37475D02*Y37325D01*
X23045Y37250D01*
X23270Y37550D02*Y37325D01*
X23345Y37250D01*
X23045D02*X23195D01*
X23270Y37325D01*
X23601Y37850D02*Y37325D01*
X23676Y37250D01*
X23526Y37625D02*X23676D01*
X24171Y37250D02*X24321D01*
X24246Y37850D02*Y37250D01*
X24096Y37700D02*X24246Y37850D01*
X24501D02*X24801D01*
X24501D02*Y37550D01*
X24576Y37625D01*
X24726D01*
X24801Y37550D01*
Y37325D01*
X24726Y37250D02*X24801Y37325D01*
X24576Y37250D02*X24726D01*
X24501Y37325D02*X24576Y37250D01*
X25251Y37850D02*Y37250D01*
Y37850D02*X25476Y37625D01*
X25701Y37850D01*
Y37250D01*
X26106Y37550D02*X26181Y37475D01*
X25956Y37550D02*X26106D01*
X25881Y37475D02*X25956Y37550D01*
X25881Y37475D02*Y37325D01*
X25956Y37250D01*
X26181Y37550D02*Y37325D01*
X26256Y37250D01*
X25956D02*X26106D01*
X26181Y37325D01*
X26511Y37475D02*Y37250D01*
Y37475D02*X26586Y37550D01*
X26736D01*
X26436D02*X26511Y37475D01*
X27186Y37775D02*X27261Y37850D01*
X27486D01*
X27561Y37775D01*
Y37625D01*
X27186Y37250D02*X27561Y37625D01*
X27186Y37250D02*X27561D01*
X27742Y37325D02*X27817Y37250D01*
X27742Y37775D02*Y37325D01*
Y37775D02*X27817Y37850D01*
X27967D01*
X28042Y37775D01*
Y37325D01*
X27967Y37250D02*X28042Y37325D01*
X27817Y37250D02*X27967D01*
X27742Y37400D02*X28042Y37700D01*
X28222Y37325D02*X28297Y37250D01*
X28222Y37775D02*Y37325D01*
Y37775D02*X28297Y37850D01*
X28447D01*
X28522Y37775D01*
Y37325D01*
X28447Y37250D02*X28522Y37325D01*
X28297Y37250D02*X28447D01*
X28222Y37400D02*X28522Y37700D01*
X28702Y37325D02*X28777Y37250D01*
X28702Y37475D02*Y37325D01*
Y37475D02*X28777Y37550D01*
X28927D01*
X29002Y37475D01*
Y37325D01*
X28927Y37250D02*X29002Y37325D01*
X28777Y37250D02*X28927D01*
X28702Y37625D02*X28777Y37550D01*
X28702Y37775D02*Y37625D01*
Y37775D02*X28777Y37850D01*
X28927D01*
X29002Y37775D01*
Y37625D01*
X28927Y37550D02*X29002Y37625D01*
X29452Y37325D02*X29527Y37250D01*
X29452Y37775D02*Y37325D01*
Y37775D02*X29527Y37850D01*
X29677D01*
X29752Y37775D01*
Y37325D01*
X29677Y37250D02*X29752Y37325D01*
X29527Y37250D02*X29677D01*
X29452Y37400D02*X29752Y37700D01*
X29932Y37250D02*X30232Y37550D01*
Y37775D02*Y37550D01*
X30157Y37850D02*X30232Y37775D01*
X30007Y37850D02*X30157D01*
X29932Y37775D02*X30007Y37850D01*
X29932Y37775D02*Y37625D01*
X30007Y37550D01*
X30232D01*
X30412Y37625D02*X30487D01*
X30412Y37475D02*X30487D01*
X30668Y37325D02*X30743Y37250D01*
X30668Y37775D02*Y37325D01*
Y37775D02*X30743Y37850D01*
X30893D01*
X30968Y37775D01*
Y37325D01*
X30893Y37250D02*X30968Y37325D01*
X30743Y37250D02*X30893D01*
X30668Y37400D02*X30968Y37700D01*
X31148Y37250D02*X31448Y37550D01*
Y37775D02*Y37550D01*
X31373Y37850D02*X31448Y37775D01*
X31223Y37850D02*X31373D01*
X31148Y37775D02*X31223Y37850D01*
X31148Y37775D02*Y37625D01*
X31223Y37550D01*
X31448D01*
X31628Y37625D02*X31703D01*
X31628Y37475D02*X31703D01*
X31883Y37775D02*X31958Y37850D01*
X32183D01*
X32258Y37775D01*
Y37625D01*
X31883Y37250D02*X32258Y37625D01*
X31883Y37250D02*X32258D01*
X32438Y37325D02*X32513Y37250D01*
X32438Y37475D02*Y37325D01*
Y37475D02*X32513Y37550D01*
X32663D01*
X32738Y37475D01*
Y37325D01*
X32663Y37250D02*X32738Y37325D01*
X32513Y37250D02*X32663D01*
X32438Y37625D02*X32513Y37550D01*
X32438Y37775D02*Y37625D01*
Y37775D02*X32513Y37850D01*
X32663D01*
X32738Y37775D01*
Y37625D01*
X32663Y37550D02*X32738Y37625D01*
X33263Y37850D02*Y37250D01*
X33188Y37850D02*X33488D01*
X33563Y37775D01*
Y37625D01*
X33488Y37550D02*X33563Y37625D01*
X33263Y37550D02*X33488D01*
X33743Y37850D02*Y37250D01*
Y37850D02*X33968Y37625D01*
X34193Y37850D01*
Y37250D01*
X34944Y37850D02*X35019Y37775D01*
X34719Y37850D02*X34944D01*
X34644Y37775D02*X34719Y37850D01*
X34644Y37775D02*Y37325D01*
X34719Y37250D01*
X34944D01*
X35019Y37325D01*
Y37475D02*Y37325D01*
X34944Y37550D02*X35019Y37475D01*
X34794Y37550D02*X34944D01*
X35199Y37850D02*Y37250D01*
Y37850D02*X35424Y37625D01*
X35649Y37850D01*
Y37250D01*
X35829Y37850D02*X36129D01*
X35979D02*Y37250D01*
X36579Y37850D02*Y37325D01*
X36654Y37250D01*
X36804D01*
X36879Y37325D01*
Y37850D02*Y37325D01*
X37059Y37850D02*X37359D01*
X37209D02*Y37250D01*
X37614D02*X37839D01*
X37539Y37325D02*X37614Y37250D01*
X37539Y37775D02*Y37325D01*
Y37775D02*X37614Y37850D01*
X37839D01*
X20000Y39275D02*Y38750D01*
Y39275D02*X20075Y39350D01*
X20300D01*
X20375Y39275D01*
Y38750D01*
X20000Y39050D02*X20375D01*
X20555D02*Y38825D01*
X20630Y38750D01*
X20780D01*
X20855Y38825D01*
Y39050D02*Y38825D01*
X21110Y39350D02*Y38825D01*
X21185Y38750D01*
X21035Y39125D02*X21185D01*
X21335Y39350D02*Y38750D01*
Y38975D02*X21410Y39050D01*
X21560D01*
X21635Y38975D01*
Y38750D01*
X21815Y38975D02*Y38825D01*
Y38975D02*X21890Y39050D01*
X22040D01*
X22115Y38975D01*
Y38825D01*
X22040Y38750D02*X22115Y38825D01*
X21890Y38750D02*X22040D01*
X21815Y38825D02*X21890Y38750D01*
X22370Y38975D02*Y38750D01*
Y38975D02*X22445Y39050D01*
X22595D01*
X22295D02*X22370Y38975D01*
X22775Y39125D02*X22850D01*
X22775Y38975D02*X22850D01*
X23301Y39350D02*Y38750D01*
Y39350D02*X23526Y39125D01*
X23751Y39350D01*
Y38750D01*
X24156Y39050D02*X24231Y38975D01*
X24006Y39050D02*X24156D01*
X23931Y38975D02*X24006Y39050D01*
X23931Y38975D02*Y38825D01*
X24006Y38750D01*
X24231Y39050D02*Y38825D01*
X24306Y38750D01*
X24006D02*X24156D01*
X24231Y38825D01*
X24561Y39350D02*Y38825D01*
X24636Y38750D01*
X24486Y39125D02*X24636D01*
X24861Y39350D02*Y38825D01*
X24936Y38750D01*
X24786Y39125D02*X24936D01*
X25356Y39050D02*X25581D01*
X25356Y38750D02*X25656D01*
X25356Y39350D02*Y38750D01*
Y39350D02*X25656D01*
X25911D02*Y38825D01*
X25986Y38750D01*
X25836Y39125D02*X25986D01*
X26211Y39350D02*Y38825D01*
X26286Y38750D01*
X26136Y39125D02*X26286D01*
X26437Y39050D02*Y38825D01*
X26512Y38750D01*
X26662D01*
X26737Y38825D01*
Y39050D02*Y38825D01*
X26992Y38750D02*X27217D01*
X27292Y38825D01*
X27217Y38900D02*X27292Y38825D01*
X26992Y38900D02*X27217D01*
X26917Y38975D02*X26992Y38900D01*
X26917Y38975D02*X26992Y39050D01*
X27217D01*
X27292Y38975D01*
X26917Y38825D02*X26992Y38750D01*
X20000Y40850D02*X20300D01*
X20150D02*Y40250D01*
X20480Y40700D02*Y40625D01*
Y40475D02*Y40250D01*
X20705Y40850D02*Y40325D01*
X20780Y40250D01*
X20630Y40625D02*X20780D01*
X20930Y40850D02*Y40325D01*
X21005Y40250D01*
X21230D02*X21455D01*
X21155Y40325D02*X21230Y40250D01*
X21155Y40475D02*Y40325D01*
Y40475D02*X21230Y40550D01*
X21380D01*
X21455Y40475D01*
X21155Y40400D02*X21455D01*
Y40475D02*Y40400D01*
X21635Y40625D02*X21710D01*
X21635Y40475D02*X21710D01*
X22160Y40325D02*X22235Y40250D01*
X22160Y40775D02*X22235Y40850D01*
X22160Y40775D02*Y40325D01*
X22416Y40550D02*Y40325D01*
X22491Y40250D01*
X22641D01*
X22716Y40325D01*
Y40550D02*Y40325D01*
X22971Y40475D02*Y40250D01*
Y40475D02*X23046Y40550D01*
X23121D01*
X23196Y40475D01*
Y40250D01*
X22896Y40550D02*X22971Y40475D01*
X23376Y40850D02*Y40250D01*
Y40475D02*X23601Y40250D01*
X23376Y40475D02*X23526Y40625D01*
X23856Y40475D02*Y40250D01*
Y40475D02*X23931Y40550D01*
X24006D01*
X24081Y40475D01*
Y40250D01*
X23781Y40550D02*X23856Y40475D01*
X24261D02*Y40325D01*
Y40475D02*X24336Y40550D01*
X24486D01*
X24561Y40475D01*
Y40325D01*
X24486Y40250D02*X24561Y40325D01*
X24336Y40250D02*X24486D01*
X24261Y40325D02*X24336Y40250D01*
X24741Y40550D02*Y40325D01*
X24816Y40250D01*
X24891D01*
X24966Y40325D01*
Y40550D02*Y40325D01*
X25041Y40250D01*
X25116D01*
X25191Y40325D01*
Y40550D02*Y40325D01*
X25446Y40475D02*Y40250D01*
Y40475D02*X25521Y40550D01*
X25596D01*
X25671Y40475D01*
Y40250D01*
X25371Y40550D02*X25446Y40475D01*
X25852Y40850D02*X25927Y40775D01*
Y40325D01*
X25852Y40250D02*X25927Y40325D01*
X26377Y40550D02*X26677D01*
X27127Y40850D02*Y40250D01*
Y40850D02*X27427D01*
X27127Y40550D02*X27352D01*
X27832D02*X27907Y40475D01*
X27682Y40550D02*X27832D01*
X27607Y40475D02*X27682Y40550D01*
X27607Y40475D02*Y40325D01*
X27682Y40250D01*
X27907Y40550D02*Y40325D01*
X27982Y40250D01*
X27682D02*X27832D01*
X27907Y40325D01*
X28162Y40850D02*Y40250D01*
Y40325D02*X28237Y40250D01*
X28387D01*
X28462Y40325D01*
Y40475D02*Y40325D01*
X28387Y40550D02*X28462Y40475D01*
X28237Y40550D02*X28387D01*
X28162Y40475D02*X28237Y40550D01*
X28717Y40475D02*Y40250D01*
Y40475D02*X28792Y40550D01*
X28942D01*
X28642D02*X28717Y40475D01*
X29123Y40700D02*Y40625D01*
Y40475D02*Y40250D01*
X29348Y40550D02*X29573D01*
X29273Y40475D02*X29348Y40550D01*
X29273Y40475D02*Y40325D01*
X29348Y40250D01*
X29573D01*
X29978Y40550D02*X30053Y40475D01*
X29828Y40550D02*X29978D01*
X29753Y40475D02*X29828Y40550D01*
X29753Y40475D02*Y40325D01*
X29828Y40250D01*
X30053Y40550D02*Y40325D01*
X30128Y40250D01*
X29828D02*X29978D01*
X30053Y40325D01*
X30383Y40850D02*Y40325D01*
X30458Y40250D01*
X30308Y40625D02*X30458D01*
X30608Y40700D02*Y40625D01*
Y40475D02*Y40250D01*
X30758Y40475D02*Y40325D01*
Y40475D02*X30833Y40550D01*
X30983D01*
X31058Y40475D01*
Y40325D01*
X30983Y40250D02*X31058Y40325D01*
X30833Y40250D02*X30983D01*
X30758Y40325D02*X30833Y40250D01*
X31313Y40475D02*Y40250D01*
Y40475D02*X31388Y40550D01*
X31463D01*
X31538Y40475D01*
Y40250D01*
X31238Y40550D02*X31313Y40475D01*
X32064Y40850D02*Y40250D01*
X32289Y40850D02*X32364Y40775D01*
Y40325D01*
X32289Y40250D02*X32364Y40325D01*
X31989Y40250D02*X32289D01*
X31989Y40850D02*X32289D01*
X32619Y40475D02*Y40250D01*
Y40475D02*X32694Y40550D01*
X32844D01*
X32544D02*X32619Y40475D01*
X33249Y40550D02*X33324Y40475D01*
X33099Y40550D02*X33249D01*
X33024Y40475D02*X33099Y40550D01*
X33024Y40475D02*Y40325D01*
X33099Y40250D01*
X33324Y40550D02*Y40325D01*
X33399Y40250D01*
X33099D02*X33249D01*
X33324Y40325D01*
X33579Y40550D02*Y40325D01*
X33654Y40250D01*
X33729D01*
X33804Y40325D01*
Y40550D02*Y40325D01*
X33879Y40250D01*
X33954D01*
X34029Y40325D01*
Y40550D02*Y40325D01*
X34209Y40700D02*Y40625D01*
Y40475D02*Y40250D01*
X34434Y40475D02*Y40250D01*
Y40475D02*X34509Y40550D01*
X34584D01*
X34659Y40475D01*
Y40250D01*
X34359Y40550D02*X34434Y40475D01*
X35064Y40550D02*X35139Y40475D01*
X34914Y40550D02*X35064D01*
X34839Y40475D02*X34914Y40550D01*
X34839Y40475D02*Y40325D01*
X34914Y40250D01*
X35064D01*
X35139Y40325D01*
X34839Y40100D02*X34914Y40025D01*
X35064D01*
X35139Y40100D01*
Y40550D02*Y40100D01*
M02*
