G04 start of page 9 for group -4079 idx -4079
G04 Title: TX Daughterboard, topsilk *
G04 Creator: pcb 20070208 *
G04 CreationDate: Sat Jan 19 00:46:11 2008 UTC *
G04 For: matt *
G04 Format: Gerber/RS-274X *
G04 PCB-Dimensions: 275000 250000 *
G04 PCB-Coordinate-Origin: lower left *
%MOIN*%
%FSLAX24Y24*%
%LNFRONTSILK*%
%ADD11C,0.0100*%
%ADD21C,0.0200*%
%ADD30C,0.0060*%
G54D30*X20700Y17150D02*X21100D01*
X20700Y17300D02*X20750Y17350D01*
X21050D01*
X21100Y17300D02*X21050Y17350D01*
X21100Y17300D02*Y17100D01*
X20700Y17300D02*Y17100D01*
X20750Y17470D02*X21100D01*
X20750D02*X20700Y17520D01*
Y17670D02*Y17520D01*
Y17670D02*X20750Y17720D01*
X21100D01*
X20900D02*Y17470D01*
X21100Y18040D02*Y17890D01*
X21050Y17840D02*X21100Y17890D01*
X20750Y17840D02*X21050D01*
X20750D02*X20700Y17890D01*
Y18040D02*Y17890D01*
X21100Y18360D02*Y18160D01*
Y18680D02*Y18480D01*
Y18680D02*X21050Y18730D01*
X20950D02*X21050D01*
X20900Y18680D02*X20950Y18730D01*
X20900Y18680D02*Y18530D01*
X20700D02*X21100D01*
X20700Y18680D02*Y18480D01*
Y18680D02*X20750Y18730D01*
X20850D01*
X20900Y18680D02*X20850Y18730D01*
X5850Y17873D02*X5911Y17812D01*
X5850Y18239D02*X5911Y18300D01*
X5850Y18239D02*Y17873D01*
X6118Y18056D02*X6301D01*
X6057Y17995D02*X6118Y18056D01*
X6057Y17995D02*Y17873D01*
X6118Y17812D01*
X6301D01*
X6448Y18300D02*X6509Y18239D01*
Y17873D01*
X6448Y17812D02*X6509Y17873D01*
X6875Y18239D02*X6936Y18300D01*
X7119D01*
X7180Y18239D01*
Y18117D01*
X6875Y17812D02*X7180Y18117D01*
X6875Y17812D02*X7180D01*
X7326Y17873D02*X7387Y17812D01*
X7326Y18239D02*Y17873D01*
Y18239D02*X7387Y18300D01*
X7509D01*
X7570Y18239D01*
Y17873D01*
X7509Y17812D02*X7570Y17873D01*
X7387Y17812D02*X7509D01*
X7326Y17934D02*X7570Y18178D01*
X7717Y17873D02*X7778Y17812D01*
X7717Y18239D02*Y17873D01*
Y18239D02*X7778Y18300D01*
X7900D01*
X7961Y18239D01*
Y17873D01*
X7900Y17812D02*X7961Y17873D01*
X7778Y17812D02*X7900D01*
X7717Y17934D02*X7961Y18178D01*
X8107Y17873D02*X8168Y17812D01*
X8107Y17995D02*Y17873D01*
Y17995D02*X8168Y18056D01*
X8290D01*
X8351Y17995D01*
Y17873D01*
X8290Y17812D02*X8351Y17873D01*
X8168Y17812D02*X8290D01*
X8107Y18117D02*X8168Y18056D01*
X8107Y18239D02*Y18117D01*
Y18239D02*X8168Y18300D01*
X8290D01*
X8351Y18239D01*
Y18117D01*
X8290Y18056D02*X8351Y18117D01*
X8717Y18056D02*X8900D01*
X8717Y17812D02*X8961D01*
X8717Y18300D02*Y17812D01*
Y18300D02*X8961D01*
X9169D02*Y17873D01*
X9230Y17812D01*
X9108Y18117D02*X9230D01*
X9413Y18300D02*Y17873D01*
X9474Y17812D01*
X9352Y18117D02*X9474D01*
X9596Y18056D02*Y17873D01*
X9657Y17812D01*
X9779D01*
X9840Y17873D01*
Y18056D02*Y17873D01*
X10048Y17812D02*X10231D01*
X10292Y17873D01*
X10231Y17934D02*X10292Y17873D01*
X10048Y17934D02*X10231D01*
X9987Y17995D02*X10048Y17934D01*
X9987Y17995D02*X10048Y18056D01*
X10231D01*
X10292Y17995D01*
X9987Y17873D02*X10048Y17812D01*
X10658Y18300D02*X10902D01*
X10963Y18239D01*
Y18117D01*
X10902Y18056D02*X10963Y18117D01*
X10719Y18056D02*X10902D01*
X10719Y18300D02*Y17812D01*
Y18056D02*X10963Y17812D01*
X11170D02*X11353D01*
X11109Y17873D02*X11170Y17812D01*
X11109Y17995D02*Y17873D01*
Y17995D02*X11170Y18056D01*
X11292D01*
X11353Y17995D01*
X11109Y17934D02*X11353D01*
Y17995D02*Y17934D01*
X11561Y17812D02*X11744D01*
X11805Y17873D01*
X11744Y17934D02*X11805Y17873D01*
X11561Y17934D02*X11744D01*
X11500Y17995D02*X11561Y17934D01*
X11500Y17995D02*X11561Y18056D01*
X11744D01*
X11805Y17995D01*
X11500Y17873D02*X11561Y17812D01*
X12012D02*X12195D01*
X11951Y17873D02*X12012Y17812D01*
X11951Y17995D02*Y17873D01*
Y17995D02*X12012Y18056D01*
X12134D01*
X12195Y17995D01*
X11951Y17934D02*X12195D01*
Y17995D02*Y17934D01*
X12525Y18056D02*X12586Y17995D01*
X12403Y18056D02*X12525D01*
X12342Y17995D02*X12403Y18056D01*
X12342Y17995D02*Y17873D01*
X12403Y17812D01*
X12586Y18056D02*Y17873D01*
X12647Y17812D01*
X12403D02*X12525D01*
X12586Y17873D01*
X12854Y17995D02*Y17812D01*
Y17995D02*X12915Y18056D01*
X13037D01*
X12793D02*X12854Y17995D01*
X13245Y18056D02*X13428D01*
X13184Y17995D02*X13245Y18056D01*
X13184Y17995D02*Y17873D01*
X13245Y17812D01*
X13428D01*
X13574Y18300D02*Y17812D01*
Y17995D02*X13635Y18056D01*
X13757D01*
X13818Y17995D01*
Y17812D01*
X14185Y18300D02*Y17812D01*
X14429D01*
X14575Y18300D02*Y17812D01*
X14819D01*
X15027D02*X15210D01*
X14966Y17873D02*X15027Y17812D01*
X14966Y18239D02*Y17873D01*
Y18239D02*X15027Y18300D01*
X15210D01*
X5850Y19300D02*X6094D01*
X6155Y19239D01*
Y19117D01*
X6094Y19056D02*X6155Y19117D01*
X5911Y19056D02*X6094D01*
X5911Y19300D02*Y18812D01*
Y19056D02*X6155Y18812D01*
X6362D02*X6545D01*
X6301Y18873D02*X6362Y18812D01*
X6301Y18995D02*Y18873D01*
Y18995D02*X6362Y19056D01*
X6484D01*
X6545Y18995D01*
X6301Y18934D02*X6545D01*
Y18995D02*Y18934D01*
X6692Y19056D02*Y18934D01*
X6814Y18812D01*
X6936Y18934D01*
Y19056D02*Y18934D01*
X7363Y18812D02*X7485D01*
X7424Y19300D02*Y18812D01*
X7302Y19178D02*X7424Y19300D01*
X7631Y18812D02*X7692D01*
X7839Y18873D02*X7900Y18812D01*
X7839Y19239D02*Y18873D01*
Y19239D02*X7900Y19300D01*
X8022D01*
X8083Y19239D01*
Y18873D01*
X8022Y18812D02*X8083Y18873D01*
X7900Y18812D02*X8022D01*
X7839Y18934D02*X8083Y19178D01*
X5850Y20250D02*X6094D01*
X5972D02*Y19762D01*
X6240Y20250D02*Y20189D01*
X6545Y19884D01*
Y19762D01*
X6240Y19884D02*Y19762D01*
Y19884D02*X6545Y20189D01*
Y20250D02*Y20189D01*
X6972Y19762D02*X7155D01*
X6911Y19823D02*X6972Y19762D01*
X6911Y20189D02*Y19823D01*
Y20189D02*X6972Y20250D01*
X7155D01*
X7302D02*Y19762D01*
Y19945D02*X7363Y20006D01*
X7485D01*
X7546Y19945D01*
Y19762D01*
X7875Y20006D02*X7936Y19945D01*
X7753Y20006D02*X7875D01*
X7692Y19945D02*X7753Y20006D01*
X7692Y19945D02*Y19823D01*
X7753Y19762D01*
X7936Y20006D02*Y19823D01*
X7997Y19762D01*
X7753D02*X7875D01*
X7936Y19823D01*
X8205Y19945D02*Y19762D01*
Y19945D02*X8266Y20006D01*
X8388D01*
X8144D02*X8205Y19945D01*
X8717Y20006D02*X8778Y19945D01*
X8595Y20006D02*X8717D01*
X8534Y19945D02*X8595Y20006D01*
X8534Y19945D02*Y19823D01*
X8595Y19762D01*
X8778Y20006D02*Y19823D01*
X8839Y19762D01*
X8595D02*X8717D01*
X8778Y19823D01*
X9047Y20006D02*X9230D01*
X8986Y19945D02*X9047Y20006D01*
X8986Y19945D02*Y19823D01*
X9047Y19762D01*
X9230D01*
X9437Y20250D02*Y19823D01*
X9498Y19762D01*
X9376Y20067D02*X9498D01*
X9681Y19762D02*X9864D01*
X9620Y19823D02*X9681Y19762D01*
X9620Y19945D02*Y19823D01*
Y19945D02*X9681Y20006D01*
X9803D01*
X9864Y19945D01*
X9620Y19884D02*X9864D01*
Y19945D02*Y19884D01*
X10072Y19945D02*Y19762D01*
Y19945D02*X10133Y20006D01*
X10255D01*
X10011D02*X10072Y19945D01*
X10401Y20128D02*Y20067D01*
Y19945D02*Y19762D01*
X10524Y20006D02*X10768D01*
X10524Y19762D02*X10768Y20006D01*
X10524Y19762D02*X10768D01*
X11097Y20006D02*X11158Y19945D01*
X10975Y20006D02*X11097D01*
X10914Y19945D02*X10975Y20006D01*
X10914Y19945D02*Y19823D01*
X10975Y19762D01*
X11158Y20006D02*Y19823D01*
X11219Y19762D01*
X10975D02*X11097D01*
X11158Y19823D01*
X11427Y20250D02*Y19823D01*
X11488Y19762D01*
X11366Y20067D02*X11488D01*
X11610Y20128D02*Y20067D01*
Y19945D02*Y19762D01*
X11732Y19945D02*Y19823D01*
Y19945D02*X11793Y20006D01*
X11915D01*
X11976Y19945D01*
Y19823D01*
X11915Y19762D02*X11976Y19823D01*
X11793Y19762D02*X11915D01*
X11732Y19823D02*X11793Y19762D01*
X12183Y19945D02*Y19762D01*
Y19945D02*X12244Y20006D01*
X12305D01*
X12366Y19945D01*
Y19762D01*
X12122Y20006D02*X12183Y19945D01*
X11538Y9944D02*Y9761D01*
X11477Y9700D02*X11538Y9761D01*
X11111Y9700D02*X11477D01*
X11111D02*X11050Y9761D01*
Y9944D02*Y9761D01*
Y10090D02*X11538D01*
Y10334D02*Y10090D01*
X11050Y10481D02*X11538D01*
X11294D02*X11050Y10725D01*
X11294Y10481D02*X11538Y10725D01*
Y11115D02*Y10871D01*
X11050Y11323D02*X11538D01*
X11050Y11506D02*Y11262D01*
Y11506D02*X11111Y11567D01*
X11233D01*
X11294Y11506D02*X11233Y11567D01*
X11294Y11506D02*Y11323D01*
X12538Y9894D02*Y9711D01*
X12477Y9650D02*X12538Y9711D01*
X12111Y9650D02*X12477D01*
X12111D02*X12050Y9711D01*
Y9894D02*Y9711D01*
Y10040D02*X12538D01*
Y10284D02*Y10040D01*
X12050Y10431D02*X12538D01*
X12294D02*X12050Y10675D01*
X12294Y10431D02*X12538Y10675D01*
Y11065D02*Y10821D01*
X12050Y11212D02*X12538D01*
X12050D02*X12111D01*
X12416Y11517D01*
X12050D02*X12538D01*
X10711Y15862D02*X10894D01*
X10650Y15923D02*X10711Y15862D01*
X10650Y16289D02*Y15923D01*
Y16289D02*X10711Y16350D01*
X10894D01*
X11040D02*Y15923D01*
X11101Y15862D01*
X11223Y16045D02*Y15923D01*
Y16045D02*X11284Y16106D01*
X11406D01*
X11467Y16045D01*
Y15923D01*
X11406Y15862D02*X11467Y15923D01*
X11284Y15862D02*X11406D01*
X11223Y15923D02*X11284Y15862D01*
X11675Y16106D02*X11858D01*
X11614Y16045D02*X11675Y16106D01*
X11614Y16045D02*Y15923D01*
X11675Y15862D01*
X11858D01*
X12004Y16350D02*Y15862D01*
Y16045D02*X12187Y15862D01*
X12004Y16045D02*X12126Y16167D01*
X4961Y13050D02*Y12562D01*
X5144Y13050D02*X5205Y12989D01*
Y12623D01*
X5144Y12562D02*X5205Y12623D01*
X4900Y12562D02*X5144D01*
X4900Y13050D02*X5144D01*
X5595D02*X5656Y12989D01*
X5412Y13050D02*X5595D01*
X5351Y12989D02*X5412Y13050D01*
X5351Y12989D02*Y12623D01*
X5412Y12562D01*
X5595D01*
X5656Y12623D01*
Y12745D02*Y12623D01*
X5595Y12806D02*X5656Y12745D01*
X5473Y12806D02*X5595D01*
X5803Y13050D02*Y12562D01*
Y13050D02*Y12989D01*
X6108Y12684D01*
Y13050D02*Y12562D01*
X6315Y13050D02*Y12562D01*
X6498Y13050D02*X6559Y12989D01*
Y12623D01*
X6498Y12562D02*X6559Y12623D01*
X6254Y12562D02*X6498D01*
X6254Y13050D02*X6498D01*
X5061Y12150D02*Y11662D01*
X5244Y12150D02*X5305Y12089D01*
Y11723D01*
X5244Y11662D02*X5305Y11723D01*
X5000Y11662D02*X5244D01*
X5000Y12150D02*X5244D01*
X5451D02*Y11784D01*
X5573Y11662D01*
X5695Y11784D01*
Y12150D02*Y11784D01*
X6086Y12150D02*Y11662D01*
X6025D02*X6086Y11723D01*
X5903Y11662D02*X6025D01*
X5842Y11723D02*X5903Y11662D01*
X5842Y11845D02*Y11723D01*
Y11845D02*X5903Y11906D01*
X6025D01*
X6086Y11845D01*
X6476Y12150D02*Y11662D01*
X6415D02*X6476Y11723D01*
X6293Y11662D02*X6415D01*
X6232Y11723D02*X6293Y11662D01*
X6232Y11845D02*Y11723D01*
Y11845D02*X6293Y11906D01*
X6415D01*
X6476Y11845D01*
X4911Y10100D02*Y9612D01*
X5094Y10100D02*X5155Y10039D01*
Y9673D01*
X5094Y9612D02*X5155Y9673D01*
X4850Y9612D02*X5094D01*
X4850Y10100D02*X5094D01*
X5545D02*X5606Y10039D01*
X5362Y10100D02*X5545D01*
X5301Y10039D02*X5362Y10100D01*
X5301Y10039D02*Y9673D01*
X5362Y9612D01*
X5545D01*
X5606Y9673D01*
Y9795D02*Y9673D01*
X5545Y9856D02*X5606Y9795D01*
X5423Y9856D02*X5545D01*
X5753Y10100D02*Y9612D01*
Y10100D02*Y10039D01*
X6058Y9734D01*
Y10100D02*Y9612D01*
X6265Y10100D02*Y9612D01*
X6448Y10100D02*X6509Y10039D01*
Y9673D01*
X6448Y9612D02*X6509Y9673D01*
X6204Y9612D02*X6448D01*
X6204Y10100D02*X6448D01*
X5933Y11200D02*X5994Y11139D01*
X5811Y11200D02*X5933D01*
X5750Y11139D02*X5811Y11200D01*
X5750Y11139D02*Y10773D01*
X5811Y10712D01*
X5933Y10956D02*X5994Y10895D01*
X5750Y10956D02*X5933D01*
X5811Y10712D02*X5933D01*
X5994Y10773D01*
Y10895D02*Y10773D01*
X6140Y11200D02*Y10834D01*
X6262Y10712D01*
X6384Y10834D01*
Y11200D02*Y10834D01*
X21700Y17150D02*X22100D01*
X21700Y17300D02*X21750Y17350D01*
X22050D01*
X22100Y17300D02*X22050Y17350D01*
X22100Y17300D02*Y17100D01*
X21700Y17300D02*Y17100D01*
X21750Y17470D02*X22100D01*
X21750D02*X21700Y17520D01*
Y17670D02*Y17520D01*
Y17670D02*X21750Y17720D01*
X22100D01*
X21900D02*Y17470D01*
X22100Y18040D02*Y17890D01*
X22050Y17840D02*X22100Y17890D01*
X21750Y17840D02*X22050D01*
X21750D02*X21700Y17890D01*
Y18040D02*Y17890D01*
X22100Y18360D02*Y18160D01*
Y18680D02*Y18530D01*
X22050Y18480D02*X22100Y18530D01*
X21750Y18480D02*X22050D01*
X21750D02*X21700Y18530D01*
Y18680D02*Y18530D01*
X22839Y13600D02*X23112D01*
X22839D02*X22800Y13639D01*
Y13756D02*Y13639D01*
Y13756D02*X22839Y13795D01*
X23112D01*
X22956D02*Y13600D01*
X22800Y14044D02*X22839Y14083D01*
X22800Y14044D02*Y13927D01*
X22839Y13888D02*X22800Y13927D01*
X22839Y13888D02*X23073D01*
X23112Y13927D01*
Y14044D02*Y13927D01*
Y14044D02*X23073Y14083D01*
X22995D02*X23073D01*
X22956Y14044D02*X22995Y14083D01*
X22956Y14044D02*Y13966D01*
X22800Y14177D02*X23112D01*
X22800D02*X22839D01*
X23034Y14372D01*
X22800D02*X23112D01*
X22800Y14505D02*X23112D01*
X22800Y14622D02*X22839Y14661D01*
X23073D01*
X23112Y14622D02*X23073Y14661D01*
X23112Y14622D02*Y14466D01*
X22800Y14622D02*Y14466D01*
X19939Y12900D02*X20212D01*
X19939D02*X19900Y12939D01*
Y13056D02*Y12939D01*
Y13056D02*X19939Y13095D01*
X20212D01*
X20056D02*Y12900D01*
X19900Y13227D02*X20212D01*
X19900Y13344D02*X19939Y13383D01*
X20173D01*
X20212Y13344D02*X20173Y13383D01*
X20212Y13344D02*Y13188D01*
X19900Y13344D02*Y13188D01*
X20212Y13633D02*Y13516D01*
X20173Y13477D02*X20212Y13516D01*
X19939Y13477D02*X20173D01*
X19939D02*X19900Y13516D01*
Y13633D02*Y13516D01*
X20212Y13883D02*Y13727D01*
X19900Y14132D02*Y13976D01*
Y14132D02*X19939Y14171D01*
X20017D01*
X20056Y14132D02*X20017Y14171D01*
X20056Y14132D02*Y14015D01*
X19900D02*X20212D01*
X20056D02*X20212Y14171D01*
X20056Y14382D02*Y14265D01*
X20212Y14421D02*Y14265D01*
X19900D02*X20212D01*
X19900Y14421D02*Y14265D01*
Y14515D02*X20212D01*
X19900Y14671D02*Y14515D01*
X20056Y14632D02*Y14515D01*
X21839Y13100D02*X22112D01*
X21839D02*X21800Y13139D01*
Y13256D02*Y13139D01*
Y13256D02*X21839Y13295D01*
X22112D01*
X21956D02*Y13100D01*
X21800Y13427D02*X22112D01*
X21800Y13544D02*X21839Y13583D01*
X22073D01*
X22112Y13544D02*X22073Y13583D01*
X22112Y13544D02*Y13388D01*
X21800Y13544D02*Y13388D01*
X22112Y13833D02*Y13716D01*
X22073Y13677D02*X22112Y13716D01*
X21839Y13677D02*X22073D01*
X21839D02*X21800Y13716D01*
Y13833D02*Y13716D01*
X22112Y14083D02*Y13927D01*
Y14332D02*Y14176D01*
Y14332D02*X22073Y14371D01*
X21995D02*X22073D01*
X21956Y14332D02*X21995Y14371D01*
X21956Y14332D02*Y14215D01*
X21800D02*X22112D01*
X21800Y14332D02*Y14176D01*
Y14332D02*X21839Y14371D01*
X21917D01*
X21956Y14332D02*X21917Y14371D01*
X21839Y14465D02*X21800Y14504D01*
Y14621D02*Y14504D01*
Y14621D02*X21839Y14660D01*
X21917D01*
X22112Y14465D02*X21917Y14660D01*
X22112D02*Y14465D01*
X20839Y13100D02*X21112D01*
X20839D02*X20800Y13139D01*
Y13256D02*Y13139D01*
Y13256D02*X20839Y13295D01*
X21112D01*
X20956D02*Y13100D01*
X20800Y13427D02*X21112D01*
X20800Y13544D02*X20839Y13583D01*
X21073D01*
X21112Y13544D02*X21073Y13583D01*
X21112Y13544D02*Y13388D01*
X20800Y13544D02*Y13388D01*
X21112Y13833D02*Y13716D01*
X21073Y13677D02*X21112Y13716D01*
X20839Y13677D02*X21073D01*
X20839D02*X20800Y13716D01*
Y13833D02*Y13716D01*
X21112Y14083D02*Y13927D01*
X20839Y14176D02*X21112D01*
X20839D02*X20800Y14215D01*
Y14332D02*Y14215D01*
Y14332D02*X20839Y14371D01*
X21112D01*
X20956D02*Y14176D01*
X20839Y14465D02*X20800Y14504D01*
Y14621D02*Y14504D01*
Y14621D02*X20839Y14660D01*
X20917D01*
X21112Y14465D02*X20917Y14660D01*
X21112D02*Y14465D01*
X22850Y17100D02*X23200D01*
X22850D02*X22800Y17150D01*
Y17300D02*Y17150D01*
Y17300D02*X22850Y17350D01*
X23200D01*
X23000D02*Y17100D01*
X22800Y17670D02*X22850Y17720D01*
X22800Y17670D02*Y17520D01*
X22850Y17470D02*X22800Y17520D01*
X22850Y17470D02*X23150D01*
X23200Y17520D01*
Y17670D02*Y17520D01*
Y17670D02*X23150Y17720D01*
X23050D02*X23150D01*
X23000Y17670D02*X23050Y17720D01*
X23000Y17670D02*Y17570D01*
X22800Y17840D02*X23200D01*
X22800D02*X22850D01*
X23100Y18090D01*
X22800D02*X23200D01*
X22800Y18260D02*X23200D01*
X22800Y18410D02*X22850Y18460D01*
X23150D01*
X23200Y18410D02*X23150Y18460D01*
X23200Y18410D02*Y18210D01*
X22800Y18410D02*Y18210D01*
X18700Y17150D02*X19100D01*
X18700Y17300D02*X18750Y17350D01*
X19050D01*
X19100Y17300D02*X19050Y17350D01*
X19100Y17300D02*Y17100D01*
X18700Y17300D02*Y17100D01*
X18750Y17470D02*X19100D01*
X18750D02*X18700Y17520D01*
Y17670D02*Y17520D01*
Y17670D02*X18750Y17720D01*
X19100D01*
X18900D02*Y17470D01*
X19100Y18040D02*Y17890D01*
X19050Y17840D02*X19100Y17890D01*
X18750Y17840D02*X19050D01*
X18750D02*X18700Y17890D01*
Y18040D02*Y17890D01*
X19100Y18360D02*Y18160D01*
X18700Y18530D02*X19100D01*
X18700Y18680D02*X18750Y18730D01*
X19050D01*
X19100Y18680D02*X19050Y18730D01*
X19100Y18680D02*Y18480D01*
X18700Y18680D02*Y18480D01*
X19700Y17150D02*X20100D01*
X19700Y17300D02*X19750Y17350D01*
X20050D01*
X20100Y17300D02*X20050Y17350D01*
X20100Y17300D02*Y17100D01*
X19700Y17300D02*Y17100D01*
X19750Y17470D02*X20100D01*
X19750D02*X19700Y17520D01*
Y17670D02*Y17520D01*
Y17670D02*X19750Y17720D01*
X20100D01*
X19900D02*Y17470D01*
X20100Y18040D02*Y17890D01*
X20050Y17840D02*X20100Y17890D01*
X19750Y17840D02*X20050D01*
X19750D02*X19700Y17890D01*
Y18040D02*Y17890D01*
X20100Y18360D02*Y18160D01*
X19750Y18480D02*X20100D01*
X19750D02*X19700Y18530D01*
Y18680D02*Y18530D01*
Y18680D02*X19750Y18730D01*
X20100D01*
X19900D02*Y18480D01*
X18700Y17150D02*X19100D01*
X18700Y17300D02*X18750Y17350D01*
X19050D01*
X19100Y17300D02*X19050Y17350D01*
X19100Y17300D02*Y17100D01*
X18700Y17300D02*Y17100D01*
X18750Y17470D02*X19100D01*
X18750D02*X18700Y17520D01*
Y17670D02*Y17520D01*
Y17670D02*X18750Y17720D01*
X19100D01*
X18900D02*Y17470D01*
X19100Y18040D02*Y17890D01*
X19050Y17840D02*X19100Y17890D01*
X18750Y17840D02*X19050D01*
X18750D02*X18700Y17890D01*
Y18040D02*Y17890D01*
X19100Y18360D02*Y18160D01*
X18700Y18530D02*X19100D01*
X18700Y18680D02*X18750Y18730D01*
X19050D01*
X19100Y18680D02*X19050Y18730D01*
X19100Y18680D02*Y18480D01*
X18700Y18680D02*Y18480D01*
X18300Y14661D02*X18339Y14700D01*
X18417D01*
X18456Y14661D01*
Y14427D01*
X18417Y14388D02*X18456Y14427D01*
X18339Y14388D02*X18417D01*
X18300Y14427D02*X18339Y14388D01*
Y14544D02*X18456D01*
X18549Y14388D02*X18588D01*
X18682Y14661D02*X18721Y14700D01*
X18799D01*
X18838Y14661D01*
Y14427D01*
X18799Y14388D02*X18838Y14427D01*
X18721Y14388D02*X18799D01*
X18682Y14427D02*X18721Y14388D01*
Y14544D02*X18838D01*
X18932Y14700D02*Y14466D01*
X19010Y14388D01*
X19088Y14466D01*
Y14700D02*Y14466D01*
X19181Y14661D02*Y14388D01*
Y14661D02*X19220Y14700D01*
X19337D01*
X19376Y14661D01*
Y14388D01*
X19181Y14544D02*X19376D01*
X17211Y10600D02*X17638D01*
X17211D02*X17150Y10661D01*
Y10844D02*Y10661D01*
Y10844D02*X17211Y10905D01*
X17638D01*
X17394D02*Y10600D01*
X17150Y11295D02*X17211Y11356D01*
X17150Y11295D02*Y11112D01*
X17211Y11051D02*X17150Y11112D01*
X17211Y11051D02*X17577D01*
X17638Y11112D01*
Y11295D02*Y11112D01*
Y11295D02*X17577Y11356D01*
X17455D02*X17577D01*
X17394Y11295D02*X17455Y11356D01*
X17394Y11295D02*Y11173D01*
X17150Y11503D02*X17638D01*
X17150D02*X17211D01*
X17516Y11808D01*
X17150D02*X17638D01*
X17150Y12015D02*X17638D01*
X17150Y12198D02*X17211Y12259D01*
X17577D01*
X17638Y12198D02*X17577Y12259D01*
X17638Y12198D02*Y11954D01*
X17150Y12198D02*Y11954D01*
X18261Y10600D02*X18688D01*
X18261D02*X18200Y10661D01*
Y10844D02*Y10661D01*
Y10844D02*X18261Y10905D01*
X18688D01*
X18444D02*Y10600D01*
X18200Y11051D02*X18566D01*
X18688Y11173D01*
X18566Y11295D01*
X18200D02*X18566D01*
X18200Y11686D02*X18688D01*
Y11625D02*X18627Y11686D01*
X18688Y11625D02*Y11503D01*
X18627Y11442D02*X18688Y11503D01*
X18505Y11442D02*X18627D01*
X18505D02*X18444Y11503D01*
Y11625D02*Y11503D01*
Y11625D02*X18505Y11686D01*
X18200Y12076D02*X18688D01*
Y12015D02*X18627Y12076D01*
X18688Y12015D02*Y11893D01*
X18627Y11832D02*X18688Y11893D01*
X18505Y11832D02*X18627D01*
X18505D02*X18444Y11893D01*
Y12015D02*Y11893D01*
Y12015D02*X18505Y12076D01*
X19161Y10600D02*X19588D01*
X19161D02*X19100Y10661D01*
Y10844D02*Y10661D01*
Y10844D02*X19161Y10905D01*
X19588D01*
X19344D02*Y10600D01*
X19100Y11295D02*X19161Y11356D01*
X19100Y11295D02*Y11112D01*
X19161Y11051D02*X19100Y11112D01*
X19161Y11051D02*X19527D01*
X19588Y11112D01*
Y11295D02*Y11112D01*
Y11295D02*X19527Y11356D01*
X19405D02*X19527D01*
X19344Y11295D02*X19405Y11356D01*
X19344Y11295D02*Y11173D01*
X19100Y11503D02*X19588D01*
X19100D02*X19161D01*
X19466Y11808D01*
X19100D02*X19588D01*
X19100Y12015D02*X19588D01*
X19100Y12198D02*X19161Y12259D01*
X19527D01*
X19588Y12198D02*X19527Y12259D01*
X19588Y12198D02*Y11954D01*
X19100Y12198D02*Y11954D01*
X16050Y10661D02*X16538D01*
X16050Y10844D02*X16111Y10905D01*
X16477D01*
X16538Y10844D02*X16477Y10905D01*
X16538Y10844D02*Y10600D01*
X16050Y10844D02*Y10600D01*
Y11295D02*X16111Y11356D01*
X16050Y11295D02*Y11112D01*
X16111Y11051D02*X16050Y11112D01*
X16111Y11051D02*X16477D01*
X16538Y11112D01*
Y11295D02*Y11112D01*
Y11295D02*X16477Y11356D01*
X16355D02*X16477D01*
X16294Y11295D02*X16355Y11356D01*
X16294Y11295D02*Y11173D01*
X16050Y11503D02*X16538D01*
X16050D02*X16111D01*
X16416Y11808D01*
X16050D02*X16538D01*
X16050Y12015D02*X16538D01*
X16050Y12198D02*X16111Y12259D01*
X16477D01*
X16538Y12198D02*X16477Y12259D01*
X16538Y12198D02*Y11954D01*
X16050Y12198D02*Y11954D01*
X19050Y7306D02*X19294D01*
X19172Y7428D02*Y7184D01*
X21400Y9450D02*X21644D01*
X21522D02*Y8962D01*
X21790Y9450D02*Y9389D01*
X22095Y9084D01*
Y8962D01*
X21790Y9084D02*Y8962D01*
Y9084D02*X22095Y9389D01*
Y9450D02*Y9389D01*
X22242Y8962D02*X22486D01*
X22632Y9389D02*Y8962D01*
Y9389D02*X22693Y9450D01*
X22876D01*
X22937Y9389D01*
Y8962D01*
X22632Y9206D02*X22937D01*
X17550Y8400D02*X17794D01*
X17672D02*Y7912D01*
X17940Y8400D02*Y8339D01*
X18245Y8034D01*
Y7912D01*
X17940Y8034D02*Y7912D01*
Y8034D02*X18245Y8339D01*
Y8400D02*Y8339D01*
X18392Y7912D02*X18636D01*
X18782D02*X19026D01*
X19087Y7973D01*
Y8095D02*Y7973D01*
X19026Y8156D02*X19087Y8095D01*
X18843Y8156D02*X19026D01*
X18843Y8400D02*Y7912D01*
X18782Y8400D02*X19026D01*
X19087Y8339D01*
Y8217D01*
X19026Y8156D02*X19087Y8217D01*
X18100Y7306D02*X18344D01*
X21850Y8556D02*X22094D01*
X22900Y8606D02*X23144D01*
X23022Y8728D02*Y8484D01*
G54D21*X20500Y7250D02*X24500D01*
Y8250D02*Y7250D01*
X20500Y8250D02*X24500D01*
X20500D02*Y7250D01*
G54D11*X21500Y8250D02*Y7250D01*
X20500Y8250D02*X21500D01*
G54D30*X23080Y6020D02*X23920D01*
Y5480D01*
X23080D02*X23920D01*
X23080Y6020D02*Y5480D01*
G54D21*X18400Y14900D02*X23400D01*
Y16900D02*Y14900D01*
X18400Y16900D02*X23400D01*
X18400D02*Y14900D01*
G54D11*X19400Y15900D02*Y14900D01*
X18400Y15900D02*X19400D01*
G54D30*X23030Y6870D02*X23870D01*
Y6330D01*
X23030D02*X23870D01*
X23030Y6870D02*Y6330D01*
G54D21*X15850Y12700D02*X19850D01*
Y13700D02*Y12700D01*
X15850Y13700D02*X19850D01*
X15850D02*Y12700D01*
G54D11*X16850Y13700D02*Y12700D01*
X15850Y13700D02*X16850D01*
G54D21*X16700Y6950D02*X20700D01*
X16700D02*Y5950D01*
X20700D01*
Y6950D02*Y5950D01*
G54D11*X19700Y6950D02*Y5950D01*
X20700D01*
G54D30*X19230Y5570D02*X20070D01*
Y5030D01*
X19230D02*X20070D01*
X19230Y5570D02*Y5030D01*
X17180D02*X18020D01*
X17180Y5570D02*Y5030D01*
Y5570D02*X18020D01*
Y5030D01*
X19280Y4870D02*X20120D01*
Y4330D01*
X19280D02*X20120D01*
X19280Y4870D02*Y4330D01*
X20880Y6330D02*X21720D01*
X20880Y6870D02*Y6330D01*
Y6870D02*X21720D01*
Y6330D01*
X20880Y5480D02*X21720D01*
X20880Y6020D02*Y5480D01*
Y6020D02*X21720D01*
Y5480D01*
G54D11*X13840Y8300D02*Y6300D01*
X11320Y8300D02*X13840D01*
X11320D02*Y6300D01*
X12830D01*
X12330D02*X13840D01*
X12830D02*G75*G03X12330Y6300I-250J0D01*G01*
G54D21*X9650Y12600D02*X13650D01*
Y13600D02*Y12600D01*
X9650Y13600D02*X13650D01*
X9650D02*Y12600D01*
G54D11*X10650Y13600D02*Y12600D01*
X9650Y13600D02*X10650D01*
G54D21*X7900Y13400D02*Y9400D01*
X6900Y13400D02*X7900D01*
X6900D02*Y9400D01*
X7900D01*
G54D11*X6900Y10400D02*X7900D01*
X6900D02*Y9400D01*
G54D30*X13850Y7750D02*Y7400D01*
X13900Y7350D01*
X14000D01*
X14050Y7400D01*
Y7750D02*Y7400D01*
X14170Y7750D02*X14370D01*
X14170D02*Y7550D01*
X14220Y7600D01*
X14320D01*
X14370Y7550D01*
Y7400D01*
X14320Y7350D02*X14370Y7400D01*
X14220Y7350D02*X14320D01*
X14170Y7400D02*X14220Y7350D01*
X14490Y7700D02*X14540Y7750D01*
X14690D01*
X14740Y7700D01*
Y7600D01*
X14490Y7350D02*X14740Y7600D01*
X14490Y7350D02*X14740D01*
X24850Y8050D02*X25000D01*
Y7700D01*
X24950Y7650D02*X25000Y7700D01*
X24900Y7650D02*X24950D01*
X24850Y7700D02*X24900Y7650D01*
X25120Y7850D02*X25320Y8050D01*
X25120Y7850D02*X25370D01*
X25320Y8050D02*Y7650D01*
X25540D02*X25640D01*
X25590Y8050D02*Y7650D01*
X25490Y7950D02*X25590Y8050D01*
X23150Y4850D02*X23350D01*
X23400Y4800D01*
Y4700D01*
X23350Y4650D02*X23400Y4700D01*
X23200Y4650D02*X23350D01*
X23200Y4850D02*Y4450D01*
Y4650D02*X23400Y4450D01*
X23520Y4800D02*X23570Y4850D01*
X23670D01*
X23720Y4800D01*
Y4500D01*
X23670Y4450D02*X23720Y4500D01*
X23570Y4450D02*X23670D01*
X23520Y4500D02*X23570Y4450D01*
Y4650D02*X23720D01*
X23840D02*X24040Y4850D01*
X23840Y4650D02*X24090D01*
X24040Y4850D02*Y4450D01*
X23250Y3850D02*X23400D01*
X23200Y3900D02*X23250Y3850D01*
X23200Y4200D02*Y3900D01*
Y4200D02*X23250Y4250D01*
X23400D01*
X23520Y4050D02*X23720Y4250D01*
X23520Y4050D02*X23770D01*
X23720Y4250D02*Y3850D01*
X23940D02*X24040D01*
X23990Y4250D02*Y3850D01*
X23890Y4150D02*X23990Y4250D01*
X18485Y3465D02*X18685D01*
X18735Y3415D01*
Y3315D01*
X18685Y3265D02*X18735Y3315D01*
X18535Y3265D02*X18685D01*
X18535Y3465D02*Y3065D01*
Y3265D02*X18735Y3065D01*
X18905D02*X19005D01*
X18955Y3465D02*Y3065D01*
X18855Y3365D02*X18955Y3465D01*
X17050Y3450D02*X17250D01*
X17300Y3400D01*
Y3300D01*
X17250Y3250D02*X17300Y3300D01*
X17100Y3250D02*X17250D01*
X17100Y3450D02*Y3050D01*
Y3250D02*X17300Y3050D01*
X17420Y3400D02*X17470Y3450D01*
X17570D01*
X17620Y3400D01*
Y3100D01*
X17570Y3050D02*X17620Y3100D01*
X17470Y3050D02*X17570D01*
X17420Y3100D02*X17470Y3050D01*
Y3250D02*X17620D01*
X17740Y3050D02*X17990Y3300D01*
Y3450D02*Y3300D01*
X17740Y3450D02*X17990D01*
X19250Y3500D02*X19450D01*
X19500Y3450D01*
Y3350D01*
X19450Y3300D02*X19500Y3350D01*
X19300Y3300D02*X19450D01*
X19300Y3500D02*Y3100D01*
Y3300D02*X19500Y3100D01*
X19620Y3450D02*X19670Y3500D01*
X19770D01*
X19820Y3450D01*
Y3150D01*
X19770Y3100D02*X19820Y3150D01*
X19670Y3100D02*X19770D01*
X19620Y3150D02*X19670Y3100D01*
Y3300D02*X19820D01*
X19940Y3500D02*X20140D01*
X19940D02*Y3300D01*
X19990Y3350D01*
X20090D01*
X20140Y3300D01*
Y3150D01*
X20090Y3100D02*X20140Y3150D01*
X19990Y3100D02*X20090D01*
X19940Y3150D02*X19990Y3100D01*
X17085Y2415D02*X17235D01*
X17035Y2465D02*X17085Y2415D01*
X17035Y2765D02*Y2465D01*
Y2765D02*X17085Y2815D01*
X17235D01*
X17355Y2615D02*X17555Y2815D01*
X17355Y2615D02*X17605D01*
X17555Y2815D02*Y2415D01*
X17725Y2615D02*X17925Y2815D01*
X17725Y2615D02*X17975D01*
X17925Y2815D02*Y2415D01*
X19350Y2500D02*X19500D01*
X19300Y2550D02*X19350Y2500D01*
X19300Y2850D02*Y2550D01*
Y2850D02*X19350Y2900D01*
X19500D01*
X19620Y2700D02*X19820Y2900D01*
X19620Y2700D02*X19870D01*
X19820Y2900D02*Y2500D01*
X19990Y2850D02*X20040Y2900D01*
X20190D01*
X20240Y2850D01*
Y2750D01*
X19990Y2500D02*X20240Y2750D01*
X19990Y2500D02*X20240D01*
X22185Y4865D02*X22385D01*
X22435Y4815D01*
Y4715D01*
X22385Y4665D02*X22435Y4715D01*
X22235Y4665D02*X22385D01*
X22235Y4865D02*Y4465D01*
Y4665D02*X22435Y4465D01*
X22555Y4815D02*X22605Y4865D01*
X22755D01*
X22805Y4815D01*
Y4715D01*
X22555Y4465D02*X22805Y4715D01*
X22555Y4465D02*X22805D01*
X21050Y3750D02*X21200D01*
X21000Y3800D02*X21050Y3750D01*
X21000Y4100D02*Y3800D01*
Y4100D02*X21050Y4150D01*
X21200D01*
X21320Y3950D02*X21520Y4150D01*
X21320Y3950D02*X21570D01*
X21520Y4150D02*Y3750D01*
X21690Y3800D02*X21740Y3750D01*
X21690Y4100D02*Y3800D01*
Y4100D02*X21740Y4150D01*
X21840D01*
X21890Y4100D01*
Y3800D01*
X21840Y3750D02*X21890Y3800D01*
X21740Y3750D02*X21840D01*
X21690Y3850D02*X21890Y4050D01*
X20950Y4850D02*X21150D01*
X21200Y4800D01*
Y4700D01*
X21150Y4650D02*X21200Y4700D01*
X21000Y4650D02*X21150D01*
X21000Y4850D02*Y4450D01*
Y4650D02*X21200Y4450D01*
X21320Y4800D02*X21370Y4850D01*
X21470D01*
X21520Y4800D01*
Y4500D01*
X21470Y4450D02*X21520Y4500D01*
X21370Y4450D02*X21470D01*
X21320Y4500D02*X21370Y4450D01*
Y4650D02*X21520D01*
X21640Y4800D02*X21690Y4850D01*
X21840D01*
X21890Y4800D01*
Y4700D01*
X21640Y4450D02*X21890Y4700D01*
X21640Y4450D02*X21890D01*
X15450Y6650D02*X15600D01*
Y6300D01*
X15550Y6250D02*X15600Y6300D01*
X15500Y6250D02*X15550D01*
X15450Y6300D02*X15500Y6250D01*
X15720Y6450D02*X15920Y6650D01*
X15720Y6450D02*X15970D01*
X15920Y6650D02*Y6250D01*
X16090Y6600D02*X16140Y6650D01*
X16290D01*
X16340Y6600D01*
Y6500D01*
X16090Y6250D02*X16340Y6500D01*
X16090Y6250D02*X16340D01*
X6950Y9150D02*X7100D01*
Y8800D01*
X7050Y8750D02*X7100Y8800D01*
X7000Y8750D02*X7050D01*
X6950Y8800D02*X7000Y8750D01*
X7220Y8950D02*X7420Y9150D01*
X7220Y8950D02*X7470D01*
X7420Y9150D02*Y8750D01*
X7590Y9100D02*X7640Y9150D01*
X7740D01*
X7790Y9100D01*
Y8800D01*
X7740Y8750D02*X7790Y8800D01*
X7640Y8750D02*X7740D01*
X7590Y8800D02*X7640Y8750D01*
Y8950D02*X7790D01*
X17200Y16600D02*X17350D01*
Y16250D01*
X17300Y16200D02*X17350Y16250D01*
X17250Y16200D02*X17300D01*
X17200Y16250D02*X17250Y16200D01*
X17470Y16400D02*X17670Y16600D01*
X17470Y16400D02*X17720D01*
X17670Y16600D02*Y16200D01*
X17840D02*X18090Y16450D01*
Y16600D02*Y16450D01*
X17840Y16600D02*X18090D01*
X15850Y14300D02*X16000D01*
Y13950D01*
X15950Y13900D02*X16000Y13950D01*
X15900Y13900D02*X15950D01*
X15850Y13950D02*X15900Y13900D01*
X16120Y14250D02*X16170Y14300D01*
X16270D01*
X16320Y14250D01*
Y13950D01*
X16270Y13900D02*X16320Y13950D01*
X16170Y13900D02*X16270D01*
X16120Y13950D02*X16170Y13900D01*
Y14100D02*X16320D01*
X16440Y13900D02*X16640Y14100D01*
Y14250D02*Y14100D01*
X16590Y14300D02*X16640Y14250D01*
X16490Y14300D02*X16590D01*
X16440Y14250D02*X16490Y14300D01*
X16440Y14250D02*Y14150D01*
X16490Y14100D01*
X16640D01*
X8500Y13250D02*X8650D01*
Y12900D01*
X8600Y12850D02*X8650Y12900D01*
X8550Y12850D02*X8600D01*
X8500Y12900D02*X8550Y12850D01*
X8770Y13050D02*X8970Y13250D01*
X8770Y13050D02*X9020D01*
X8970Y13250D02*Y12850D01*
X9140Y12900D02*X9190Y12850D01*
X9140Y13200D02*Y12900D01*
Y13200D02*X9190Y13250D01*
X9290D01*
X9340Y13200D01*
Y12900D01*
X9290Y12850D02*X9340Y12900D01*
X9190Y12850D02*X9290D01*
X9140Y12950D02*X9340Y13150D01*
X11235Y15015D02*X11435D01*
X11485Y14965D01*
Y14865D01*
X11435Y14815D02*X11485Y14865D01*
X11285Y14815D02*X11435D01*
X11285Y15015D02*Y14615D01*
Y14815D02*X11485Y14615D01*
X11605Y15015D02*X11805D01*
X11605D02*Y14815D01*
X11655Y14865D01*
X11755D01*
X11805Y14815D01*
Y14665D01*
X11755Y14615D02*X11805Y14665D01*
X11655Y14615D02*X11755D01*
X11605Y14665D02*X11655Y14615D01*
X12235Y14965D02*X12435D01*
X12485Y14915D01*
Y14815D01*
X12435Y14765D02*X12485Y14815D01*
X12285Y14765D02*X12435D01*
X12285Y14965D02*Y14565D01*
Y14765D02*X12485Y14565D01*
X12605Y14915D02*X12655Y14965D01*
X12755D01*
X12805Y14915D01*
Y14615D01*
X12755Y14565D02*X12805Y14615D01*
X12655Y14565D02*X12755D01*
X12605Y14615D02*X12655Y14565D01*
Y14765D02*X12805D01*
X13285Y14515D02*X13435D01*
X13235Y14565D02*X13285Y14515D01*
X13235Y14865D02*Y14565D01*
Y14865D02*X13285Y14915D01*
X13435D01*
X13555Y14715D02*X13755Y14915D01*
X13555Y14715D02*X13805D01*
X13755Y14915D02*Y14515D01*
X13925Y14915D02*X14125D01*
X13925D02*Y14715D01*
X13975Y14765D01*
X14075D01*
X14125Y14715D01*
Y14565D01*
X14075Y14515D02*X14125Y14565D01*
X13975Y14515D02*X14075D01*
X13925Y14565D02*X13975Y14515D01*
X10185Y14965D02*X10385D01*
X10435Y14915D01*
Y14815D01*
X10385Y14765D02*X10435Y14815D01*
X10235Y14765D02*X10385D01*
X10235Y14965D02*Y14565D01*
Y14765D02*X10435Y14565D01*
X10555Y14765D02*X10755Y14965D01*
X10555Y14765D02*X10805D01*
X10755Y14965D02*Y14565D01*
X8935D02*X9085D01*
X8885Y14615D02*X8935Y14565D01*
X8885Y14915D02*Y14615D01*
Y14915D02*X8935Y14965D01*
X9085D01*
X9205Y14765D02*X9405Y14965D01*
X9205Y14765D02*X9455D01*
X9405Y14965D02*Y14565D01*
X9725Y14965D02*X9775Y14915D01*
X9625Y14965D02*X9725D01*
X9575Y14915D02*X9625Y14965D01*
X9575Y14915D02*Y14615D01*
X9625Y14565D01*
X9725Y14765D02*X9775Y14715D01*
X9575Y14765D02*X9725D01*
X9625Y14565D02*X9725D01*
X9775Y14615D01*
Y14715D02*Y14615D01*
M02*
