G04 start of page 2 for group 0 idx 0
G04 Title: TX Daughterboard, solder *
G04 Creator: pcb 20070208 *
G04 CreationDate: Sat Jan 19 00:46:11 2008 UTC *
G04 For: matt *
G04 Format: Gerber/RS-274X *
G04 PCB-Dimensions: 275000 250000 *
G04 PCB-Coordinate-Origin: lower left *
%MOIN*%
%FSLAX24Y24*%
%LNBACK*%
%ADD11C,0.0100*%
%ADD12C,0.0130*%
%ADD13R,0.0600X0.0600*%
%ADD14C,0.0600*%
%ADD15C,0.0360*%
%ADD16C,0.0240*%
%ADD17C,0.0380*%
%ADD18C,0.0560*%
%ADD19C,0.0400*%
%ADD20C,0.1280*%
%ADD21C,0.0200*%
G54D11*X16585Y11481D02*X16600Y11467D01*
G54D12*X16350Y13200D02*X16550Y13000D01*
Y11350D01*
X17350Y13200D02*Y11250D01*
X13436Y11481D02*X13450Y11494D01*
Y11950D01*
X13042Y11481D02*X13000Y11523D01*
Y11850D01*
X12648Y11481D02*X12650Y11482D01*
Y12150D01*
G54D11*X21704Y9118D02*X21700Y9122D01*
Y11150D01*
G54D12*X21310Y9118D02*X22129Y8300D01*
X20916Y9118D02*X22000Y8035D01*
Y7800D01*
X20522Y9118D02*X21150Y8491D01*
Y7850D01*
X21704Y9118D02*X22381D01*
X22129Y8300D02*X22500D01*
X23000Y7800D01*
X22381Y9118D02*X23650Y7850D01*
X23900D01*
X19341Y9118D02*X19300Y9077D01*
X18948Y9118D02*X18900Y9070D01*
X19750Y9104D02*Y7000D01*
X18900Y7350D02*X18200Y6650D01*
Y6500D01*
X18394Y5349D02*X18400Y5355D01*
X17373Y9118D02*X17792Y8700D01*
X18135D02*X18554Y9118D01*
X19735D02*X19750Y9104D01*
X18554Y9118D02*X18550Y9114D01*
X17792Y8700D02*X18135D01*
X17767Y10028D02*X18150Y9645D01*
Y9600D01*
X19300Y9077D02*Y6550D01*
X18900Y9070D02*Y7350D01*
X19750Y7000D02*X20200Y6550D01*
X18550Y9114D02*Y7650D01*
X17450Y6550D01*
X17350D01*
G54D11*X16600Y11467D02*Y9300D01*
X18554Y11481D02*X18550Y11476D01*
Y9650D01*
X17767Y10571D02*X17750Y10554D01*
Y9800D01*
G54D12*X17767Y10571D02*X18150Y10954D01*
Y11000D01*
Y13000D02*Y11350D01*
X18350Y13200D02*X18150Y13000D01*
X18785Y14200D02*X18200Y14785D01*
Y15750D01*
X18900Y16450D01*
X19900Y13000D02*Y14350D01*
X19400Y14850D01*
Y15850D01*
X19900Y16350D01*
Y16450D01*
X20400Y13050D02*Y15850D01*
X21450Y13600D02*Y15800D01*
X21900Y12070D02*Y15400D01*
X20400Y15850D02*X20900Y16350D01*
Y16400D01*
X21450Y15800D02*X21900Y16250D01*
Y16400D01*
X18948Y11481D02*X18785Y11644D01*
X19341Y11481D02*X19350Y11489D01*
Y12450D01*
X19735Y11481D02*X19750Y11495D01*
X18785Y11644D02*Y14200D01*
X19350Y12450D02*X19900Y13000D01*
X19750Y11495D02*Y12400D01*
X20400Y13050D01*
X20150Y11501D02*Y12300D01*
X20450Y11554D02*Y11950D01*
X20129Y11481D02*X20150Y11501D01*
Y12300D02*X21450Y13600D01*
X20522Y11481D02*X20450Y11554D01*
Y11950D02*X20650Y12150D01*
X20700D01*
X20916Y11481D02*X21100Y11664D01*
Y12600D01*
X21310Y11481D02*X21900Y12070D01*
G54D11*X9499Y10571D02*X9500Y10570D01*
Y9650D01*
G54D12*X9499Y9118D02*X11568Y7050D01*
X12400D01*
X11074Y11481D02*X10900Y11655D01*
X11850Y12950D02*X11950Y13050D01*
X11467Y11481D02*X11450Y11498D01*
Y12950D01*
X11350Y13050D01*
X11250D01*
X10900Y11655D02*Y11900D01*
X10850Y11650D02*Y11900D01*
X12255Y11481D02*X12250Y11486D01*
Y11850D01*
X11861Y11481D02*X11850Y11492D01*
Y12950D01*
X10680Y11481D02*X10850Y11650D01*
X10680Y11481D02*X10011Y12150D01*
X10286Y11481D02*X10205Y11400D01*
X9900D01*
X9499Y11481D02*X9418Y11400D01*
X8800D01*
X10011Y12150D02*X7650D01*
X7500Y12000D01*
X7450D01*
X9893Y11481D02*X9524Y11850D01*
X8250D01*
X7450Y11050D01*
Y10950D01*
G54D13*X21000Y7750D03*
G54D14*X22000D03*
X23000D03*
X24000D03*
G54D13*X20200Y6450D03*
G54D14*X19200D03*
X18200D03*
X17200D03*
G54D13*X7400Y9900D03*
G54D14*Y10900D03*
Y11900D03*
Y12900D03*
G54D13*X10150Y13100D03*
G54D14*X11150D03*
G54D13*X16350Y13200D03*
G54D14*X17350D03*
X18350D03*
X12150Y13100D03*
X13150D03*
X18900Y16400D03*
X19900Y15400D03*
Y16400D03*
X20900D03*
X21900D03*
X22900D03*
X20900Y15400D03*
X21900D03*
X22900D03*
G54D13*X18900D03*
G54D14*X19350Y13200D03*
G54D15*X10900Y11900D03*
X8800Y11400D03*
X13450Y11950D03*
X13000Y11850D03*
X12650Y12150D03*
X12250Y11850D03*
X12400Y7050D03*
X18050Y8600D03*
X19750Y8500D03*
X22350Y9200D03*
Y11450D03*
X20700Y12150D03*
X21100Y12600D03*
G54D16*X9499Y10028D02*Y9118D01*
X10286Y10028D02*Y9118D01*
X9893Y10028D02*Y9118D01*
X10680Y10028D02*Y9118D01*
X9499Y11481D02*Y10571D01*
X11074Y10028D02*Y9118D01*
X10286Y11481D02*Y10571D01*
X10680Y11481D02*Y10571D01*
X11074Y11481D02*Y10571D01*
X9893Y11481D02*Y10571D01*
X11467Y10028D02*Y9118D01*
X11861Y10028D02*Y9118D01*
X12255Y10028D02*Y9118D01*
X12648Y10028D02*Y9118D01*
X13042Y10028D02*Y9118D01*
X13436Y10028D02*Y9118D01*
X11467Y11481D02*Y10571D01*
X11861Y11481D02*Y10571D01*
X12255Y11481D02*Y10571D01*
X12648Y11481D02*Y10571D01*
X13042Y11481D02*Y10571D01*
X13436Y11481D02*Y10571D01*
X13830Y11481D02*Y10571D01*
Y10028D02*Y9118D01*
X14223Y10028D02*Y9118D01*
X14617Y10028D02*Y9118D01*
X15011Y10028D02*Y9118D01*
X15404Y10028D02*Y9118D01*
X21704Y11481D02*Y10571D01*
Y10028D02*Y9118D01*
X14223Y11481D02*Y10571D01*
X14617Y11481D02*Y10571D01*
X15011Y11481D02*Y10571D01*
X15404Y11481D02*Y10571D01*
X15798Y11481D02*Y10571D01*
X16192Y11481D02*Y10571D01*
X16585Y11481D02*Y10571D01*
X16979Y11481D02*Y10571D01*
X17373Y11481D02*Y10571D01*
X17767Y11481D02*Y10571D01*
X18160Y11481D02*Y10571D01*
X18554Y11481D02*Y10571D01*
X18948Y11481D02*Y10571D01*
X19341Y11481D02*Y10571D01*
X19735Y11481D02*Y10571D01*
X20129Y11481D02*Y10571D01*
X20522Y11481D02*Y10571D01*
X20916Y11481D02*Y10571D01*
X21310Y11481D02*Y10571D01*
X15798Y10028D02*Y9118D01*
X16192Y10028D02*Y9118D01*
X16585Y10028D02*Y9118D01*
X16979Y10028D02*Y9118D01*
X17373Y10028D02*Y9118D01*
X17767Y10028D02*Y9118D01*
X18160Y10028D02*Y9118D01*
X18554Y10028D02*Y9118D01*
X18948Y10028D02*Y9118D01*
X19341Y10028D02*Y9118D01*
X19735Y10028D02*Y9118D01*
X20129Y10028D02*Y9118D01*
X20522Y10028D02*Y9118D01*
X20916Y10028D02*Y9118D01*
X21310Y10028D02*Y9118D01*
G54D17*G54D18*G54D17*G54D18*G54D17*G54D19*G54D17*G54D20*G54D21*G54D20*G54D21*G54D20*G54D21*M02*
