M48
INCH,TZ
T17C0.038
T19C0.040
T21C0.020
%
T21
X010900Y011900
X008800Y011400
X013450Y011950
X013000Y011850
X012650Y012150
X012250Y011850
X012400Y007050
X018050Y008600
X019750Y008500
X022350Y009200
X022350Y011450
X020700Y012150
X021100Y012600
T17
X021000Y007750
X022000Y007750
X023000Y007750
X024000Y007750
X020200Y006450
X019200Y006450
X018200Y006450
X017200Y006450
X007400Y009900
X007400Y010900
X007400Y011900
X007400Y012900
X010150Y013100
X011150Y013100
X016350Y013200
X017350Y013200
X018350Y013200
X012150Y013100
X013150Y013100
X019350Y013200
T19
X018900Y016400
X019900Y015400
X019900Y016400
X020900Y016400
X021900Y016400
X022900Y016400
X020900Y015400
X021900Y015400
X022900Y015400
X018900Y015400
M30
