G04 start of page 4 for group 2 idx 1
G04 Title: TX Daughterboard, GND-sldr *
G04 Creator: pcb 20070208 *
G04 CreationDate: Sat Jan 19 00:46:11 2008 UTC *
G04 For: matt *
G04 Format: Gerber/RS-274X *
G04 PCB-Dimensions: 275000 250000 *
G04 PCB-Coordinate-Origin: lower left *
%MOIN*%
%FSLAX24Y24*%
%LNGROUP2*%
%ADD13R,0.0600X0.0600*%
%ADD14C,0.0600*%
%ADD15C,0.0360*%
%ADD17C,0.0380*%
%ADD18C,0.0560*%
%ADD19C,0.0400*%
%ADD20C,0.1280*%
%ADD21C,0.0200*%
G54D21*G36*
X17100Y300D02*Y6011D01*
X17114Y6008D01*
X17156Y6002D01*
X17200Y6000D01*
X17243Y6002D01*
X17285Y6008D01*
X17327Y6018D01*
X17368Y6032D01*
X17380Y6038D01*
X17390Y6046D01*
X17399Y6056D01*
X17406Y6067D01*
X17411Y6079D01*
X17414Y6092D01*
X17415Y6105D01*
X17413Y6118D01*
X17409Y6130D01*
X17404Y6142D01*
X17396Y6152D01*
X17386Y6161D01*
X17375Y6168D01*
X17363Y6173D01*
X17350Y6176D01*
X17337Y6177D01*
X17324Y6175D01*
X17312Y6171D01*
X17285Y6162D01*
X17257Y6155D01*
X17228Y6151D01*
X17200Y6150D01*
X17171Y6151D01*
X17142Y6155D01*
X17114Y6162D01*
X17100Y6167D01*
Y6732D01*
X17114Y6737D01*
X17142Y6744D01*
X17171Y6748D01*
X17200Y6750D01*
X17228Y6748D01*
X17257Y6744D01*
X17285Y6737D01*
X17312Y6728D01*
X17324Y6724D01*
X17337Y6722D01*
X17350Y6723D01*
X17363Y6726D01*
X17375Y6731D01*
X17386Y6738D01*
X17396Y6747D01*
X17404Y6757D01*
X17410Y6769D01*
X17413Y6782D01*
X17415Y6795D01*
X17414Y6808D01*
X17411Y6820D01*
X17406Y6833D01*
X17399Y6843D01*
X17390Y6853D01*
X17380Y6861D01*
X17368Y6867D01*
X17327Y6881D01*
X17285Y6891D01*
X17243Y6898D01*
X17200Y6900D01*
X17156Y6898D01*
X17114Y6891D01*
X17100Y6888D01*
Y24700D01*
X17561D01*
Y13572D01*
X17556Y13583D01*
X17549Y13593D01*
X17540Y13603D01*
X17530Y13611D01*
X17518Y13617D01*
X17477Y13631D01*
X17435Y13641D01*
X17393Y13648D01*
X17350Y13650D01*
X17306Y13648D01*
X17264Y13641D01*
X17222Y13631D01*
X17181Y13617D01*
X17169Y13611D01*
X17159Y13603D01*
X17150Y13593D01*
X17143Y13582D01*
X17138Y13570D01*
X17135Y13558D01*
X17134Y13545D01*
X17136Y13532D01*
X17140Y13519D01*
X17145Y13508D01*
X17153Y13497D01*
X17163Y13488D01*
X17174Y13481D01*
X17186Y13476D01*
X17199Y13473D01*
X17212Y13472D01*
X17225Y13474D01*
X17237Y13478D01*
X17264Y13487D01*
X17292Y13494D01*
X17321Y13498D01*
X17350Y13500D01*
X17378Y13498D01*
X17407Y13494D01*
X17435Y13487D01*
X17462Y13478D01*
X17474Y13474D01*
X17487Y13472D01*
X17500Y13473D01*
X17513Y13476D01*
X17525Y13481D01*
X17536Y13488D01*
X17546Y13497D01*
X17554Y13507D01*
X17560Y13519D01*
X17561Y13523D01*
Y12875D01*
X17559Y12880D01*
X17554Y12892D01*
X17546Y12902D01*
X17536Y12911D01*
X17525Y12918D01*
X17513Y12923D01*
X17500Y12926D01*
X17487Y12927D01*
X17474Y12925D01*
X17462Y12921D01*
X17435Y12912D01*
X17407Y12905D01*
X17378Y12901D01*
X17350Y12900D01*
X17321Y12901D01*
X17292Y12905D01*
X17264Y12912D01*
X17237Y12921D01*
X17225Y12925D01*
X17212Y12927D01*
X17199Y12926D01*
X17186Y12923D01*
X17174Y12918D01*
X17163Y12911D01*
X17153Y12902D01*
X17145Y12892D01*
X17139Y12880D01*
X17136Y12868D01*
X17134Y12855D01*
X17135Y12841D01*
X17138Y12829D01*
X17143Y12817D01*
X17150Y12806D01*
X17159Y12796D01*
X17169Y12788D01*
X17181Y12782D01*
X17222Y12768D01*
X17264Y12758D01*
X17306Y12752D01*
X17350Y12750D01*
X17393Y12752D01*
X17435Y12758D01*
X17477Y12768D01*
X17518Y12782D01*
X17530Y12788D01*
X17540Y12796D01*
X17549Y12806D01*
X17556Y12817D01*
X17561Y12828D01*
Y6663D01*
X17558Y6664D01*
X17545Y6665D01*
X17532Y6663D01*
X17519Y6660D01*
X17507Y6654D01*
X17497Y6646D01*
X17488Y6636D01*
X17481Y6625D01*
X17476Y6613D01*
X17473Y6600D01*
X17472Y6587D01*
X17474Y6574D01*
X17478Y6562D01*
X17487Y6535D01*
X17494Y6507D01*
X17498Y6478D01*
X17500Y6450D01*
X17498Y6421D01*
X17494Y6392D01*
X17487Y6364D01*
X17478Y6337D01*
X17474Y6325D01*
X17472Y6312D01*
X17473Y6299D01*
X17476Y6286D01*
X17481Y6274D01*
X17488Y6263D01*
X17497Y6253D01*
X17507Y6245D01*
X17519Y6240D01*
X17532Y6236D01*
X17545Y6234D01*
X17558Y6235D01*
X17561Y6236D01*
Y300D01*
X17100D01*
G37*
G36*
X17561Y24700D02*X17711D01*
Y13413D01*
X17708Y13414D01*
X17695Y13415D01*
X17682Y13413D01*
X17669Y13410D01*
X17657Y13404D01*
X17647Y13396D01*
X17638Y13386D01*
X17631Y13375D01*
X17626Y13363D01*
X17623Y13350D01*
X17622Y13337D01*
X17624Y13324D01*
X17628Y13312D01*
X17637Y13285D01*
X17644Y13257D01*
X17648Y13228D01*
X17650Y13200D01*
X17648Y13171D01*
X17644Y13142D01*
X17637Y13114D01*
X17628Y13087D01*
X17624Y13075D01*
X17622Y13062D01*
X17623Y13049D01*
X17626Y13036D01*
X17631Y13024D01*
X17638Y13013D01*
X17647Y13003D01*
X17657Y12995D01*
X17669Y12990D01*
X17682Y12986D01*
X17695Y12984D01*
X17708Y12985D01*
X17711Y12986D01*
Y300D01*
X17561D01*
Y6236D01*
X17570Y6238D01*
X17582Y6243D01*
X17593Y6250D01*
X17603Y6259D01*
X17611Y6269D01*
X17617Y6281D01*
X17631Y6322D01*
X17641Y6364D01*
X17647Y6406D01*
X17650Y6450D01*
X17647Y6493D01*
X17641Y6535D01*
X17631Y6577D01*
X17617Y6618D01*
X17611Y6630D01*
X17603Y6640D01*
X17593Y6649D01*
X17582Y6656D01*
X17570Y6661D01*
X17561Y6663D01*
Y12828D01*
X17561Y12829D01*
X17564Y12842D01*
X17565Y12855D01*
X17563Y12868D01*
X17561Y12875D01*
Y13523D01*
X17563Y13532D01*
X17565Y13545D01*
X17564Y13558D01*
X17561Y13570D01*
X17561Y13572D01*
Y24700D01*
G37*
G36*
X17711D02*X17826D01*
Y8728D01*
X17825Y8728D01*
X17816Y8725D01*
X17808Y8722D01*
X17801Y8717D01*
X17795Y8710D01*
X17790Y8703D01*
X17786Y8695D01*
X17779Y8672D01*
X17774Y8648D01*
X17771Y8624D01*
X17770Y8600D01*
X17771Y8575D01*
X17774Y8551D01*
X17779Y8527D01*
X17786Y8504D01*
X17790Y8496D01*
X17795Y8489D01*
X17801Y8483D01*
X17808Y8478D01*
X17816Y8474D01*
X17825Y8472D01*
X17826Y8472D01*
Y6698D01*
X17810Y6675D01*
X17777Y6603D01*
X17756Y6528D01*
X17750Y6450D01*
X17756Y6371D01*
X17777Y6296D01*
X17810Y6225D01*
X17826Y6201D01*
Y300D01*
X17711D01*
Y12986D01*
X17720Y12988D01*
X17732Y12993D01*
X17743Y13000D01*
X17753Y13009D01*
X17761Y13019D01*
X17767Y13031D01*
X17781Y13072D01*
X17791Y13114D01*
X17797Y13156D01*
X17800Y13200D01*
X17797Y13243D01*
X17791Y13285D01*
X17781Y13327D01*
X17767Y13368D01*
X17761Y13380D01*
X17753Y13390D01*
X17743Y13399D01*
X17732Y13406D01*
X17720Y13411D01*
X17711Y13413D01*
Y24700D01*
G37*
G36*
X17826D02*X18050D01*
Y13534D01*
X18005Y13489D01*
X17960Y13425D01*
X17927Y13353D01*
X17906Y13278D01*
X17900Y13200D01*
X17906Y13121D01*
X17927Y13046D01*
X17960Y12975D01*
X18005Y12910D01*
X18050Y12866D01*
Y8880D01*
X18025Y8879D01*
X18001Y8875D01*
X17977Y8870D01*
X17954Y8863D01*
X17946Y8859D01*
X17939Y8854D01*
X17933Y8848D01*
X17928Y8841D01*
X17924Y8833D01*
X17922Y8824D01*
X17921Y8816D01*
X17922Y8807D01*
X17924Y8799D01*
X17928Y8791D01*
X17933Y8784D01*
X17939Y8777D01*
X17946Y8772D01*
X17954Y8769D01*
X17962Y8766D01*
X17971Y8766D01*
X17980Y8766D01*
X17988Y8769D01*
X18003Y8773D01*
X18018Y8777D01*
X18034Y8779D01*
X18050Y8780D01*
Y8420D01*
X18034Y8420D01*
X18018Y8422D01*
X18003Y8426D01*
X17988Y8430D01*
X17980Y8433D01*
X17971Y8433D01*
X17962Y8433D01*
X17954Y8430D01*
X17946Y8427D01*
X17939Y8422D01*
X17933Y8416D01*
X17928Y8408D01*
X17924Y8401D01*
X17922Y8392D01*
X17921Y8383D01*
X17922Y8375D01*
X17924Y8366D01*
X17928Y8358D01*
X17933Y8351D01*
X17939Y8345D01*
X17946Y8340D01*
X17954Y8336D01*
X17977Y8329D01*
X18001Y8324D01*
X18025Y8321D01*
X18050Y8320D01*
Y6873D01*
X18046Y6872D01*
X17975Y6839D01*
X17910Y6794D01*
X17855Y6739D01*
X17826Y6698D01*
Y8472D01*
X17833Y8471D01*
X17842Y8472D01*
X17850Y8474D01*
X17858Y8478D01*
X17865Y8483D01*
X17872Y8489D01*
X17877Y8496D01*
X17880Y8504D01*
X17883Y8512D01*
X17883Y8521D01*
X17883Y8530D01*
X17880Y8538D01*
X17876Y8553D01*
X17872Y8568D01*
X17870Y8584D01*
X17870Y8600D01*
X17870Y8615D01*
X17872Y8631D01*
X17876Y8646D01*
X17880Y8661D01*
X17883Y8670D01*
X17883Y8678D01*
X17883Y8687D01*
X17880Y8695D01*
X17877Y8703D01*
X17872Y8710D01*
X17865Y8717D01*
X17858Y8722D01*
X17850Y8725D01*
X17842Y8728D01*
X17833Y8728D01*
X17826Y8728D01*
Y24700D01*
G37*
G36*
Y6201D02*X17855Y6160D01*
X17910Y6105D01*
X17975Y6060D01*
X18046Y6027D01*
X18050Y6026D01*
Y300D01*
X17826D01*
Y6201D01*
G37*
G36*
X18050Y24700D02*X18350D01*
Y13650D01*
X18271Y13643D01*
X18196Y13622D01*
X18125Y13589D01*
X18060Y13544D01*
X18050Y13534D01*
Y24700D01*
G37*
G36*
Y12866D02*X18060Y12855D01*
X18125Y12810D01*
X18196Y12777D01*
X18271Y12756D01*
X18273Y12756D01*
Y8728D01*
X18266Y8728D01*
X18257Y8728D01*
X18249Y8725D01*
X18241Y8722D01*
X18234Y8717D01*
X18227Y8710D01*
X18222Y8703D01*
X18219Y8695D01*
X18216Y8687D01*
X18216Y8678D01*
X18216Y8670D01*
X18219Y8661D01*
X18223Y8646D01*
X18227Y8631D01*
X18229Y8615D01*
X18230Y8600D01*
X18229Y8584D01*
X18227Y8568D01*
X18223Y8553D01*
X18219Y8538D01*
X18216Y8530D01*
X18216Y8521D01*
X18216Y8512D01*
X18219Y8504D01*
X18222Y8496D01*
X18227Y8489D01*
X18234Y8483D01*
X18241Y8478D01*
X18249Y8474D01*
X18257Y8472D01*
X18266Y8471D01*
X18273Y8472D01*
Y6893D01*
X18200Y6900D01*
X18121Y6893D01*
X18050Y6873D01*
Y8320D01*
X18074Y8321D01*
X18098Y8324D01*
X18122Y8329D01*
X18145Y8336D01*
X18153Y8340D01*
X18160Y8345D01*
X18166Y8351D01*
X18171Y8358D01*
X18175Y8366D01*
X18177Y8375D01*
X18178Y8383D01*
X18177Y8392D01*
X18175Y8401D01*
X18171Y8408D01*
X18166Y8416D01*
X18160Y8422D01*
X18153Y8427D01*
X18145Y8430D01*
X18137Y8433D01*
X18128Y8433D01*
X18119Y8433D01*
X18111Y8430D01*
X18096Y8426D01*
X18081Y8422D01*
X18065Y8420D01*
X18050Y8420D01*
Y8780D01*
X18065Y8779D01*
X18081Y8777D01*
X18096Y8773D01*
X18111Y8769D01*
X18119Y8766D01*
X18128Y8766D01*
X18137Y8766D01*
X18145Y8769D01*
X18153Y8772D01*
X18160Y8777D01*
X18166Y8784D01*
X18171Y8791D01*
X18175Y8799D01*
X18177Y8807D01*
X18178Y8816D01*
X18177Y8824D01*
X18175Y8833D01*
X18171Y8841D01*
X18166Y8848D01*
X18160Y8854D01*
X18153Y8859D01*
X18145Y8863D01*
X18122Y8870D01*
X18098Y8875D01*
X18074Y8879D01*
X18050Y8880D01*
Y12866D01*
G37*
G36*
X18273Y12756D02*X18350Y12750D01*
Y6873D01*
X18278Y6893D01*
X18273Y6893D01*
Y8472D01*
X18274Y8472D01*
X18283Y8474D01*
X18291Y8478D01*
X18298Y8483D01*
X18304Y8489D01*
X18309Y8496D01*
X18313Y8504D01*
X18320Y8527D01*
X18325Y8551D01*
X18328Y8575D01*
X18330Y8600D01*
X18328Y8624D01*
X18325Y8648D01*
X18320Y8672D01*
X18313Y8695D01*
X18309Y8703D01*
X18304Y8710D01*
X18298Y8717D01*
X18291Y8722D01*
X18283Y8725D01*
X18274Y8728D01*
X18273Y8728D01*
Y12756D01*
G37*
G36*
X18050Y6026D02*X18121Y6006D01*
X18200Y6000D01*
X18278Y6006D01*
X18350Y6026D01*
Y300D01*
X18050D01*
Y6026D01*
G37*
G36*
X18350Y24700D02*X18988D01*
Y16840D01*
X18978Y16843D01*
X18900Y16850D01*
X18821Y16843D01*
X18746Y16822D01*
X18675Y16789D01*
X18610Y16744D01*
X18555Y16689D01*
X18510Y16625D01*
X18477Y16553D01*
X18456Y16478D01*
X18450Y16400D01*
X18456Y16321D01*
X18477Y16246D01*
X18510Y16175D01*
X18555Y16110D01*
X18610Y16055D01*
X18675Y16010D01*
X18746Y15977D01*
X18821Y15956D01*
X18900Y15950D01*
X18978Y15956D01*
X18988Y15959D01*
Y15849D01*
X18574Y15847D01*
X18548Y15841D01*
X18525Y15829D01*
X18503Y15814D01*
X18485Y15796D01*
X18470Y15775D01*
X18459Y15751D01*
X18452Y15726D01*
X18450Y15700D01*
X18452Y15074D01*
X18459Y15048D01*
X18470Y15025D01*
X18485Y15003D01*
X18503Y14985D01*
X18525Y14970D01*
X18548Y14959D01*
X18574Y14952D01*
X18600Y14950D01*
X18988Y14951D01*
Y13414D01*
X18979Y13411D01*
X18967Y13406D01*
X18956Y13399D01*
X18946Y13390D01*
X18938Y13380D01*
X18932Y13368D01*
X18918Y13327D01*
X18908Y13285D01*
X18902Y13243D01*
X18900Y13200D01*
X18902Y13156D01*
X18908Y13114D01*
X18918Y13072D01*
X18932Y13031D01*
X18938Y13019D01*
X18946Y13009D01*
X18956Y13000D01*
X18967Y12993D01*
X18979Y12988D01*
X18988Y12986D01*
Y6846D01*
X18975Y6839D01*
X18910Y6794D01*
X18855Y6739D01*
X18810Y6675D01*
X18777Y6603D01*
X18756Y6528D01*
X18750Y6450D01*
X18756Y6371D01*
X18777Y6296D01*
X18810Y6225D01*
X18855Y6160D01*
X18910Y6105D01*
X18975Y6060D01*
X18988Y6053D01*
Y300D01*
X18350D01*
Y6026D01*
X18353Y6027D01*
X18425Y6060D01*
X18489Y6105D01*
X18544Y6160D01*
X18589Y6225D01*
X18622Y6296D01*
X18643Y6371D01*
X18650Y6450D01*
X18643Y6528D01*
X18622Y6603D01*
X18589Y6675D01*
X18544Y6739D01*
X18489Y6794D01*
X18425Y6839D01*
X18353Y6872D01*
X18350Y6873D01*
Y12750D01*
X18428Y12756D01*
X18503Y12777D01*
X18575Y12810D01*
X18639Y12855D01*
X18694Y12910D01*
X18739Y12975D01*
X18772Y13046D01*
X18793Y13121D01*
X18800Y13200D01*
X18793Y13278D01*
X18772Y13353D01*
X18739Y13425D01*
X18694Y13489D01*
X18639Y13544D01*
X18575Y13589D01*
X18503Y13622D01*
X18428Y13643D01*
X18350Y13650D01*
Y24700D01*
G37*
G36*
X18988D02*X19200D01*
Y16734D01*
X19189Y16744D01*
X19125Y16789D01*
X19053Y16822D01*
X18988Y16840D01*
Y24700D01*
G37*
G36*
Y15959D02*X19053Y15977D01*
X19125Y16010D01*
X19189Y16055D01*
X19200Y16066D01*
Y15850D01*
X18988Y15849D01*
Y15959D01*
G37*
G36*
Y14951D02*X19200Y14952D01*
Y13623D01*
X19181Y13617D01*
X19169Y13611D01*
X19159Y13603D01*
X19150Y13593D01*
X19143Y13582D01*
X19138Y13570D01*
X19135Y13558D01*
X19134Y13545D01*
X19136Y13532D01*
X19140Y13519D01*
X19145Y13508D01*
X19153Y13497D01*
X19163Y13488D01*
X19174Y13481D01*
X19186Y13476D01*
X19199Y13473D01*
X19200D01*
Y12926D01*
X19199Y12926D01*
X19186Y12923D01*
X19174Y12918D01*
X19163Y12911D01*
X19153Y12902D01*
X19145Y12892D01*
X19139Y12880D01*
X19136Y12868D01*
X19134Y12855D01*
X19135Y12841D01*
X19138Y12829D01*
X19143Y12817D01*
X19150Y12806D01*
X19159Y12796D01*
X19169Y12788D01*
X19181Y12782D01*
X19200Y12776D01*
Y6900D01*
X19121Y6893D01*
X19046Y6872D01*
X18988Y6846D01*
Y12986D01*
X18991Y12985D01*
X19004Y12984D01*
X19017Y12986D01*
X19030Y12990D01*
X19042Y12996D01*
X19052Y13003D01*
X19061Y13013D01*
X19068Y13024D01*
X19073Y13036D01*
X19076Y13049D01*
X19077Y13062D01*
X19075Y13075D01*
X19071Y13087D01*
X19062Y13114D01*
X19055Y13142D01*
X19051Y13171D01*
X19050Y13200D01*
X19051Y13228D01*
X19055Y13257D01*
X19062Y13285D01*
X19071Y13312D01*
X19075Y13324D01*
X19077Y13337D01*
X19076Y13351D01*
X19073Y13363D01*
X19068Y13375D01*
X19061Y13386D01*
X19052Y13396D01*
X19042Y13404D01*
X19030Y13410D01*
X19017Y13413D01*
X19004Y13415D01*
X18991Y13414D01*
X18988Y13414D01*
Y14951D01*
G37*
G36*
Y6053D02*X19046Y6027D01*
X19121Y6006D01*
X19200Y6000D01*
Y300D01*
X18988D01*
Y6053D01*
G37*
G36*
X19200Y24700D02*X19526D01*
Y16648D01*
X19510Y16625D01*
X19477Y16553D01*
X19456Y16478D01*
X19450Y16400D01*
X19456Y16321D01*
X19477Y16246D01*
X19510Y16175D01*
X19526Y16151D01*
Y15648D01*
X19510Y15625D01*
X19477Y15553D01*
X19456Y15478D01*
X19450Y15400D01*
X19456Y15321D01*
X19477Y15246D01*
X19510Y15175D01*
X19526Y15151D01*
Y13613D01*
X19518Y13617D01*
X19477Y13631D01*
X19435Y13641D01*
X19393Y13648D01*
X19350Y13650D01*
X19306Y13648D01*
X19264Y13641D01*
X19222Y13631D01*
X19200Y13623D01*
Y14952D01*
X19226Y14952D01*
X19251Y14959D01*
X19275Y14970D01*
X19296Y14985D01*
X19314Y15003D01*
X19329Y15025D01*
X19341Y15048D01*
X19347Y15074D01*
X19350Y15100D01*
X19347Y15726D01*
X19341Y15751D01*
X19329Y15775D01*
X19314Y15796D01*
X19296Y15814D01*
X19275Y15829D01*
X19251Y15841D01*
X19226Y15847D01*
X19200Y15850D01*
Y16066D01*
X19244Y16110D01*
X19289Y16175D01*
X19322Y16246D01*
X19343Y16321D01*
X19350Y16400D01*
X19343Y16478D01*
X19322Y16553D01*
X19289Y16625D01*
X19244Y16689D01*
X19200Y16734D01*
Y24700D01*
G37*
G36*
X19526Y300D02*X19200D01*
Y6000D01*
X19278Y6006D01*
X19353Y6027D01*
X19425Y6060D01*
X19489Y6105D01*
X19526Y6142D01*
Y300D01*
G37*
G36*
Y6757D02*X19489Y6794D01*
X19425Y6839D01*
X19353Y6872D01*
X19278Y6893D01*
X19200Y6900D01*
Y12776D01*
X19222Y12768D01*
X19264Y12758D01*
X19306Y12752D01*
X19350Y12750D01*
X19393Y12752D01*
X19435Y12758D01*
X19477Y12768D01*
X19518Y12782D01*
X19526Y12787D01*
Y8628D01*
X19525Y8628D01*
X19516Y8625D01*
X19508Y8622D01*
X19501Y8617D01*
X19495Y8610D01*
X19490Y8603D01*
X19486Y8595D01*
X19479Y8572D01*
X19474Y8548D01*
X19471Y8524D01*
X19470Y8500D01*
X19471Y8475D01*
X19474Y8451D01*
X19479Y8427D01*
X19486Y8404D01*
X19490Y8396D01*
X19495Y8389D01*
X19501Y8383D01*
X19508Y8378D01*
X19516Y8374D01*
X19525Y8372D01*
X19526Y8372D01*
Y6757D01*
G37*
G36*
Y12917D02*X19525Y12918D01*
X19513Y12923D01*
X19500Y12926D01*
X19487Y12927D01*
X19474Y12925D01*
X19462Y12921D01*
X19435Y12912D01*
X19407Y12905D01*
X19378Y12901D01*
X19350Y12900D01*
X19321Y12901D01*
X19292Y12905D01*
X19264Y12912D01*
X19237Y12921D01*
X19225Y12925D01*
X19212Y12927D01*
X19200Y12926D01*
Y13473D01*
X19212Y13472D01*
X19225Y13474D01*
X19237Y13478D01*
X19264Y13487D01*
X19292Y13494D01*
X19321Y13498D01*
X19350Y13500D01*
X19378Y13498D01*
X19407Y13494D01*
X19435Y13487D01*
X19462Y13478D01*
X19474Y13474D01*
X19487Y13472D01*
X19500Y13473D01*
X19513Y13476D01*
X19525Y13481D01*
X19526Y13482D01*
Y12917D01*
G37*
G36*
Y24700D02*X19711D01*
Y16806D01*
X19675Y16789D01*
X19610Y16744D01*
X19555Y16689D01*
X19526Y16648D01*
Y24700D01*
G37*
G36*
Y16151D02*X19555Y16110D01*
X19610Y16055D01*
X19675Y16010D01*
X19711Y15993D01*
Y15806D01*
X19675Y15789D01*
X19610Y15744D01*
X19555Y15689D01*
X19526Y15648D01*
Y16151D01*
G37*
G36*
Y15151D02*X19555Y15110D01*
X19610Y15055D01*
X19675Y15010D01*
X19711Y14993D01*
Y13413D01*
X19708Y13414D01*
X19695Y13415D01*
X19682Y13413D01*
X19669Y13410D01*
X19657Y13404D01*
X19647Y13396D01*
X19638Y13386D01*
X19631Y13375D01*
X19626Y13363D01*
X19623Y13350D01*
X19622Y13337D01*
X19624Y13324D01*
X19628Y13312D01*
X19637Y13285D01*
X19644Y13257D01*
X19648Y13228D01*
X19650Y13200D01*
X19648Y13171D01*
X19644Y13142D01*
X19637Y13114D01*
X19628Y13087D01*
X19624Y13075D01*
X19622Y13062D01*
X19623Y13049D01*
X19626Y13036D01*
X19631Y13024D01*
X19638Y13013D01*
X19647Y13003D01*
X19657Y12995D01*
X19669Y12990D01*
X19682Y12986D01*
X19695Y12984D01*
X19708Y12985D01*
X19711Y12986D01*
Y8777D01*
X19701Y8775D01*
X19677Y8770D01*
X19654Y8763D01*
X19646Y8759D01*
X19639Y8754D01*
X19633Y8748D01*
X19628Y8741D01*
X19624Y8733D01*
X19622Y8724D01*
X19621Y8716D01*
X19622Y8707D01*
X19624Y8699D01*
X19628Y8691D01*
X19633Y8684D01*
X19639Y8677D01*
X19646Y8672D01*
X19654Y8669D01*
X19662Y8666D01*
X19671Y8666D01*
X19680Y8666D01*
X19688Y8669D01*
X19703Y8673D01*
X19711Y8675D01*
Y8324D01*
X19703Y8326D01*
X19688Y8330D01*
X19680Y8333D01*
X19671Y8333D01*
X19662Y8333D01*
X19654Y8330D01*
X19646Y8327D01*
X19639Y8322D01*
X19633Y8316D01*
X19628Y8308D01*
X19624Y8301D01*
X19622Y8292D01*
X19621Y8283D01*
X19622Y8275D01*
X19624Y8266D01*
X19628Y8258D01*
X19633Y8251D01*
X19639Y8245D01*
X19646Y8240D01*
X19654Y8236D01*
X19677Y8229D01*
X19701Y8224D01*
X19711Y8223D01*
Y300D01*
X19526D01*
Y6142D01*
X19544Y6160D01*
X19589Y6225D01*
X19622Y6296D01*
X19643Y6371D01*
X19650Y6450D01*
X19643Y6528D01*
X19622Y6603D01*
X19589Y6675D01*
X19544Y6739D01*
X19526Y6757D01*
Y8372D01*
X19533Y8371D01*
X19542Y8372D01*
X19550Y8374D01*
X19558Y8378D01*
X19565Y8383D01*
X19572Y8389D01*
X19577Y8396D01*
X19580Y8404D01*
X19583Y8412D01*
X19583Y8421D01*
X19583Y8430D01*
X19580Y8438D01*
X19576Y8453D01*
X19572Y8468D01*
X19570Y8484D01*
X19570Y8500D01*
X19570Y8515D01*
X19572Y8531D01*
X19576Y8546D01*
X19580Y8561D01*
X19583Y8570D01*
X19583Y8578D01*
X19583Y8587D01*
X19580Y8595D01*
X19577Y8603D01*
X19572Y8610D01*
X19565Y8617D01*
X19558Y8622D01*
X19550Y8625D01*
X19542Y8628D01*
X19533Y8628D01*
X19526Y8628D01*
Y12787D01*
X19530Y12788D01*
X19540Y12796D01*
X19549Y12806D01*
X19556Y12817D01*
X19561Y12829D01*
X19564Y12842D01*
X19565Y12855D01*
X19563Y12868D01*
X19559Y12880D01*
X19554Y12892D01*
X19546Y12902D01*
X19536Y12911D01*
X19526Y12917D01*
Y13482D01*
X19536Y13488D01*
X19546Y13497D01*
X19554Y13507D01*
X19560Y13519D01*
X19563Y13532D01*
X19565Y13545D01*
X19564Y13558D01*
X19561Y13570D01*
X19556Y13583D01*
X19549Y13593D01*
X19540Y13603D01*
X19530Y13611D01*
X19526Y13613D01*
Y15151D01*
G37*
G36*
X19711Y24700D02*X19900D01*
Y16850D01*
X19821Y16843D01*
X19746Y16822D01*
X19711Y16806D01*
Y24700D01*
G37*
G36*
Y15993D02*X19746Y15977D01*
X19821Y15956D01*
X19900Y15950D01*
Y15850D01*
X19821Y15843D01*
X19746Y15822D01*
X19711Y15806D01*
Y15993D01*
G37*
G36*
Y14993D02*X19746Y14977D01*
X19821Y14956D01*
X19900Y14950D01*
Y6600D01*
X19898Y6613D01*
X19895Y6625D01*
X19890Y6637D01*
X19882Y6648D01*
X19873Y6657D01*
X19862Y6665D01*
X19850Y6670D01*
X19838Y6673D01*
X19825Y6675D01*
X19812Y6673D01*
X19799Y6670D01*
X19787Y6665D01*
X19776Y6657D01*
X19767Y6648D01*
X19760Y6637D01*
X19754Y6625D01*
X19751Y6613D01*
X19750Y6600D01*
Y6300D01*
X19751Y6287D01*
X19754Y6274D01*
X19760Y6262D01*
X19767Y6251D01*
X19776Y6242D01*
X19787Y6235D01*
X19799Y6229D01*
X19812Y6226D01*
X19825Y6225D01*
X19838Y6226D01*
X19850Y6229D01*
X19862Y6235D01*
X19873Y6242D01*
X19882Y6251D01*
X19890Y6262D01*
X19895Y6274D01*
X19898Y6287D01*
X19900Y6300D01*
Y300D01*
X19711D01*
Y8223D01*
X19725Y8221D01*
X19750Y8220D01*
X19774Y8221D01*
X19798Y8224D01*
X19822Y8229D01*
X19845Y8236D01*
X19853Y8240D01*
X19860Y8245D01*
X19866Y8251D01*
X19871Y8258D01*
X19875Y8266D01*
X19877Y8275D01*
X19878Y8283D01*
X19877Y8292D01*
X19875Y8301D01*
X19871Y8308D01*
X19866Y8316D01*
X19860Y8322D01*
X19853Y8327D01*
X19845Y8330D01*
X19837Y8333D01*
X19828Y8333D01*
X19819Y8333D01*
X19811Y8330D01*
X19796Y8326D01*
X19781Y8322D01*
X19765Y8320D01*
X19750Y8320D01*
X19734Y8320D01*
X19718Y8322D01*
X19711Y8324D01*
Y8675D01*
X19718Y8677D01*
X19734Y8679D01*
X19750Y8680D01*
X19765Y8679D01*
X19781Y8677D01*
X19796Y8673D01*
X19811Y8669D01*
X19819Y8666D01*
X19828Y8666D01*
X19837Y8666D01*
X19845Y8669D01*
X19853Y8672D01*
X19860Y8677D01*
X19866Y8684D01*
X19871Y8691D01*
X19875Y8699D01*
X19877Y8707D01*
X19878Y8716D01*
X19877Y8724D01*
X19875Y8733D01*
X19871Y8741D01*
X19866Y8748D01*
X19860Y8754D01*
X19853Y8759D01*
X19845Y8763D01*
X19822Y8770D01*
X19798Y8775D01*
X19774Y8779D01*
X19750Y8780D01*
X19725Y8779D01*
X19711Y8777D01*
Y12986D01*
X19720Y12988D01*
X19732Y12993D01*
X19743Y13000D01*
X19753Y13009D01*
X19761Y13019D01*
X19767Y13031D01*
X19781Y13072D01*
X19791Y13114D01*
X19797Y13156D01*
X19800Y13200D01*
X19797Y13243D01*
X19791Y13285D01*
X19781Y13327D01*
X19767Y13368D01*
X19761Y13380D01*
X19753Y13390D01*
X19743Y13399D01*
X19732Y13406D01*
X19720Y13411D01*
X19711Y13413D01*
Y14993D01*
G37*
G36*
X19900Y24700D02*X20200D01*
Y16734D01*
X20189Y16744D01*
X20125Y16789D01*
X20053Y16822D01*
X19978Y16843D01*
X19900Y16850D01*
Y24700D01*
G37*
G36*
X19973Y300D02*X19900D01*
Y14950D01*
X19973Y14956D01*
Y8628D01*
X19966Y8628D01*
X19957Y8628D01*
X19949Y8625D01*
X19941Y8622D01*
X19934Y8617D01*
X19927Y8610D01*
X19922Y8603D01*
X19919Y8595D01*
X19916Y8587D01*
X19916Y8578D01*
X19916Y8570D01*
X19919Y8561D01*
X19923Y8546D01*
X19927Y8531D01*
X19929Y8515D01*
X19930Y8500D01*
X19929Y8484D01*
X19927Y8468D01*
X19923Y8453D01*
X19919Y8438D01*
X19916Y8430D01*
X19916Y8421D01*
X19916Y8412D01*
X19919Y8404D01*
X19922Y8396D01*
X19927Y8389D01*
X19934Y8383D01*
X19941Y8378D01*
X19949Y8374D01*
X19957Y8372D01*
X19966Y8371D01*
X19973Y8372D01*
Y300D01*
G37*
G36*
X20200D02*X19973D01*
Y8372D01*
X19974Y8372D01*
X19983Y8374D01*
X19991Y8378D01*
X19998Y8383D01*
X20004Y8389D01*
X20009Y8396D01*
X20013Y8404D01*
X20020Y8427D01*
X20025Y8451D01*
X20028Y8475D01*
X20030Y8500D01*
X20028Y8524D01*
X20025Y8548D01*
X20020Y8572D01*
X20013Y8595D01*
X20009Y8603D01*
X20004Y8610D01*
X19998Y8617D01*
X19991Y8622D01*
X19983Y8625D01*
X19974Y8628D01*
X19973Y8628D01*
Y14956D01*
X19978Y14956D01*
X20053Y14977D01*
X20125Y15010D01*
X20189Y15055D01*
X20200Y15066D01*
Y6900D01*
X20050D01*
X20037Y6898D01*
X20024Y6895D01*
X20012Y6890D01*
X20001Y6882D01*
X19992Y6873D01*
X19985Y6862D01*
X19979Y6850D01*
X19976Y6838D01*
X19975Y6825D01*
X19976Y6812D01*
X19979Y6799D01*
X19985Y6787D01*
X19992Y6776D01*
X20001Y6767D01*
X20012Y6760D01*
X20024Y6754D01*
X20037Y6751D01*
X20050Y6750D01*
X20200D01*
Y6150D01*
X20050D01*
X20037Y6148D01*
X20024Y6145D01*
X20012Y6140D01*
X20001Y6132D01*
X19992Y6123D01*
X19985Y6112D01*
X19979Y6100D01*
X19976Y6088D01*
X19975Y6075D01*
X19976Y6062D01*
X19979Y6049D01*
X19985Y6037D01*
X19992Y6026D01*
X20001Y6017D01*
X20012Y6010D01*
X20024Y6004D01*
X20037Y6001D01*
X20050Y6000D01*
X20200D01*
Y300D01*
G37*
G36*
Y15734D02*X20189Y15744D01*
X20125Y15789D01*
X20053Y15822D01*
X19978Y15843D01*
X19900Y15850D01*
Y15950D01*
X19978Y15956D01*
X20053Y15977D01*
X20125Y16010D01*
X20189Y16055D01*
X20200Y16066D01*
Y15734D01*
G37*
G36*
Y24700D02*X20625D01*
Y16754D01*
X20610Y16744D01*
X20555Y16689D01*
X20510Y16625D01*
X20477Y16553D01*
X20456Y16478D01*
X20450Y16400D01*
X20456Y16321D01*
X20477Y16246D01*
X20510Y16175D01*
X20555Y16110D01*
X20610Y16055D01*
X20625Y16045D01*
Y15754D01*
X20610Y15744D01*
X20555Y15689D01*
X20510Y15625D01*
X20477Y15553D01*
X20456Y15478D01*
X20450Y15400D01*
X20456Y15321D01*
X20477Y15246D01*
X20510Y15175D01*
X20555Y15110D01*
X20610Y15055D01*
X20625Y15045D01*
Y12418D01*
X20604Y12413D01*
X20560Y12392D01*
X20520Y12364D01*
X20485Y12330D01*
X20457Y12290D01*
X20436Y12245D01*
X20424Y12198D01*
X20420Y12150D01*
X20424Y12101D01*
X20436Y12054D01*
X20457Y12010D01*
X20485Y11970D01*
X20520Y11935D01*
X20560Y11907D01*
X20604Y11886D01*
X20625Y11881D01*
Y7975D01*
X20612Y7973D01*
X20599Y7970D01*
X20587Y7965D01*
X20576Y7957D01*
X20567Y7948D01*
X20560Y7937D01*
X20554Y7925D01*
X20551Y7913D01*
X20550Y7900D01*
Y7600D01*
X20551Y7587D01*
X20554Y7574D01*
X20560Y7562D01*
X20567Y7551D01*
X20576Y7542D01*
X20587Y7535D01*
X20599Y7529D01*
X20612Y7526D01*
X20625Y7525D01*
Y6655D01*
X20623Y6657D01*
X20612Y6665D01*
X20600Y6670D01*
X20588Y6673D01*
X20575Y6675D01*
X20562Y6673D01*
X20549Y6670D01*
X20537Y6665D01*
X20526Y6657D01*
X20517Y6648D01*
X20510Y6637D01*
X20504Y6625D01*
X20501Y6613D01*
X20500Y6600D01*
Y6300D01*
X20501Y6287D01*
X20504Y6274D01*
X20510Y6262D01*
X20517Y6251D01*
X20526Y6242D01*
X20537Y6235D01*
X20549Y6229D01*
X20562Y6226D01*
X20575Y6225D01*
X20588Y6226D01*
X20600Y6229D01*
X20612Y6235D01*
X20623Y6242D01*
X20625Y6244D01*
Y300D01*
X20200D01*
Y6000D01*
X20350D01*
X20363Y6001D01*
X20375Y6004D01*
X20387Y6010D01*
X20398Y6017D01*
X20407Y6026D01*
X20415Y6037D01*
X20420Y6049D01*
X20423Y6062D01*
X20425Y6075D01*
X20423Y6088D01*
X20420Y6100D01*
X20415Y6112D01*
X20407Y6123D01*
X20398Y6132D01*
X20387Y6140D01*
X20375Y6145D01*
X20363Y6148D01*
X20350Y6150D01*
X20200D01*
Y6750D01*
X20350D01*
X20363Y6751D01*
X20375Y6754D01*
X20387Y6760D01*
X20398Y6767D01*
X20407Y6776D01*
X20415Y6787D01*
X20420Y6799D01*
X20423Y6812D01*
X20425Y6825D01*
X20423Y6838D01*
X20420Y6850D01*
X20415Y6862D01*
X20407Y6873D01*
X20398Y6882D01*
X20387Y6890D01*
X20375Y6895D01*
X20363Y6898D01*
X20350Y6900D01*
X20200D01*
Y15066D01*
X20244Y15110D01*
X20289Y15175D01*
X20322Y15246D01*
X20343Y15321D01*
X20350Y15400D01*
X20343Y15478D01*
X20322Y15553D01*
X20289Y15625D01*
X20244Y15689D01*
X20200Y15734D01*
Y16066D01*
X20244Y16110D01*
X20289Y16175D01*
X20322Y16246D01*
X20343Y16321D01*
X20350Y16400D01*
X20343Y16478D01*
X20322Y16553D01*
X20289Y16625D01*
X20244Y16689D01*
X20200Y16734D01*
Y24700D01*
G37*
G36*
X20625D02*X21100D01*
Y16801D01*
X21053Y16822D01*
X20978Y16843D01*
X20900Y16850D01*
X20821Y16843D01*
X20746Y16822D01*
X20675Y16789D01*
X20625Y16754D01*
Y24700D01*
G37*
G36*
Y16045D02*X20675Y16010D01*
X20746Y15977D01*
X20821Y15956D01*
X20900Y15950D01*
X20978Y15956D01*
X21053Y15977D01*
X21100Y15998D01*
Y15801D01*
X21053Y15822D01*
X20978Y15843D01*
X20900Y15850D01*
X20821Y15843D01*
X20746Y15822D01*
X20675Y15789D01*
X20625Y15754D01*
Y16045D01*
G37*
G36*
Y15045D02*X20675Y15010D01*
X20746Y14977D01*
X20821Y14956D01*
X20900Y14950D01*
X20978Y14956D01*
X21053Y14977D01*
X21100Y14998D01*
Y12880D01*
X21051Y12875D01*
X21004Y12863D01*
X20960Y12842D01*
X20920Y12814D01*
X20885Y12780D01*
X20857Y12740D01*
X20836Y12695D01*
X20824Y12648D01*
X20820Y12600D01*
X20824Y12551D01*
X20836Y12504D01*
X20857Y12460D01*
X20885Y12420D01*
X20920Y12385D01*
X20960Y12357D01*
X21004Y12336D01*
X21051Y12324D01*
X21100Y12320D01*
Y8200D01*
X20850D01*
X20837Y8198D01*
X20824Y8195D01*
X20812Y8190D01*
X20801Y8182D01*
X20792Y8173D01*
X20785Y8162D01*
X20779Y8150D01*
X20776Y8138D01*
X20775Y8125D01*
X20776Y8112D01*
X20779Y8099D01*
X20785Y8087D01*
X20792Y8076D01*
X20801Y8067D01*
X20812Y8060D01*
X20824Y8054D01*
X20837Y8051D01*
X20850Y8050D01*
X21100D01*
Y7450D01*
X20850D01*
X20837Y7448D01*
X20824Y7445D01*
X20812Y7440D01*
X20801Y7432D01*
X20792Y7423D01*
X20785Y7412D01*
X20779Y7400D01*
X20776Y7388D01*
X20775Y7375D01*
X20776Y7362D01*
X20779Y7349D01*
X20785Y7337D01*
X20792Y7326D01*
X20801Y7317D01*
X20812Y7310D01*
X20824Y7304D01*
X20837Y7301D01*
X20850Y7300D01*
X21100D01*
Y300D01*
X20625D01*
Y6244D01*
X20632Y6251D01*
X20640Y6262D01*
X20645Y6274D01*
X20648Y6287D01*
X20650Y6300D01*
Y6600D01*
X20648Y6613D01*
X20645Y6625D01*
X20640Y6637D01*
X20632Y6648D01*
X20625Y6655D01*
Y7525D01*
X20638Y7526D01*
X20650Y7529D01*
X20662Y7535D01*
X20673Y7542D01*
X20682Y7551D01*
X20690Y7562D01*
X20695Y7574D01*
X20698Y7587D01*
X20700Y7600D01*
Y7900D01*
X20698Y7913D01*
X20695Y7925D01*
X20690Y7937D01*
X20682Y7948D01*
X20673Y7957D01*
X20662Y7965D01*
X20650Y7970D01*
X20638Y7973D01*
X20625Y7975D01*
Y11881D01*
X20651Y11874D01*
X20700Y11870D01*
X20748Y11874D01*
X20795Y11886D01*
X20840Y11907D01*
X20880Y11935D01*
X20914Y11970D01*
X20942Y12010D01*
X20963Y12054D01*
X20975Y12101D01*
X20980Y12150D01*
X20975Y12198D01*
X20963Y12245D01*
X20942Y12290D01*
X20914Y12330D01*
X20880Y12364D01*
X20840Y12392D01*
X20795Y12413D01*
X20748Y12425D01*
X20700Y12430D01*
X20651Y12425D01*
X20625Y12418D01*
Y15045D01*
G37*
G36*
X21100Y24700D02*X21375D01*
Y12651D01*
X21363Y12695D01*
X21342Y12740D01*
X21314Y12780D01*
X21280Y12814D01*
X21240Y12842D01*
X21195Y12863D01*
X21148Y12875D01*
X21100Y12880D01*
Y14998D01*
X21125Y15010D01*
X21189Y15055D01*
X21244Y15110D01*
X21289Y15175D01*
X21322Y15246D01*
X21343Y15321D01*
X21350Y15400D01*
X21343Y15478D01*
X21322Y15553D01*
X21289Y15625D01*
X21244Y15689D01*
X21189Y15744D01*
X21125Y15789D01*
X21100Y15801D01*
Y15998D01*
X21125Y16010D01*
X21189Y16055D01*
X21244Y16110D01*
X21289Y16175D01*
X21322Y16246D01*
X21343Y16321D01*
X21350Y16400D01*
X21343Y16478D01*
X21322Y16553D01*
X21289Y16625D01*
X21244Y16689D01*
X21189Y16744D01*
X21125Y16789D01*
X21100Y16801D01*
Y24700D01*
G37*
G36*
X21375Y300D02*X21100D01*
Y7300D01*
X21150D01*
X21163Y7301D01*
X21175Y7304D01*
X21187Y7310D01*
X21198Y7317D01*
X21207Y7326D01*
X21215Y7337D01*
X21220Y7349D01*
X21223Y7362D01*
X21225Y7375D01*
X21223Y7388D01*
X21220Y7400D01*
X21215Y7412D01*
X21207Y7423D01*
X21198Y7432D01*
X21187Y7440D01*
X21175Y7445D01*
X21163Y7448D01*
X21150Y7450D01*
X21100D01*
Y8050D01*
X21150D01*
X21163Y8051D01*
X21175Y8054D01*
X21187Y8060D01*
X21198Y8067D01*
X21207Y8076D01*
X21215Y8087D01*
X21220Y8099D01*
X21223Y8112D01*
X21225Y8125D01*
X21223Y8138D01*
X21220Y8150D01*
X21215Y8162D01*
X21207Y8173D01*
X21198Y8182D01*
X21187Y8190D01*
X21175Y8195D01*
X21163Y8198D01*
X21150Y8200D01*
X21100D01*
Y12320D01*
X21148Y12324D01*
X21195Y12336D01*
X21240Y12357D01*
X21280Y12385D01*
X21314Y12420D01*
X21342Y12460D01*
X21363Y12504D01*
X21375Y12548D01*
Y7975D01*
X21362Y7973D01*
X21349Y7970D01*
X21337Y7965D01*
X21326Y7957D01*
X21317Y7948D01*
X21310Y7937D01*
X21304Y7925D01*
X21301Y7913D01*
X21300Y7900D01*
Y7600D01*
X21301Y7587D01*
X21304Y7574D01*
X21310Y7562D01*
X21317Y7551D01*
X21326Y7542D01*
X21337Y7535D01*
X21349Y7529D01*
X21362Y7526D01*
X21375Y7525D01*
Y300D01*
G37*
G36*
Y24700D02*X22126D01*
Y16788D01*
X22125Y16789D01*
X22053Y16822D01*
X21978Y16843D01*
X21900Y16850D01*
X21821Y16843D01*
X21746Y16822D01*
X21675Y16789D01*
X21610Y16744D01*
X21555Y16689D01*
X21510Y16625D01*
X21477Y16553D01*
X21456Y16478D01*
X21450Y16400D01*
X21456Y16321D01*
X21477Y16246D01*
X21510Y16175D01*
X21555Y16110D01*
X21610Y16055D01*
X21675Y16010D01*
X21746Y15977D01*
X21821Y15956D01*
X21900Y15950D01*
X21978Y15956D01*
X22053Y15977D01*
X22125Y16010D01*
X22126Y16011D01*
Y15788D01*
X22125Y15789D01*
X22053Y15822D01*
X21978Y15843D01*
X21900Y15850D01*
X21821Y15843D01*
X21746Y15822D01*
X21675Y15789D01*
X21610Y15744D01*
X21555Y15689D01*
X21510Y15625D01*
X21477Y15553D01*
X21456Y15478D01*
X21450Y15400D01*
X21456Y15321D01*
X21477Y15246D01*
X21510Y15175D01*
X21555Y15110D01*
X21610Y15055D01*
X21675Y15010D01*
X21746Y14977D01*
X21821Y14956D01*
X21900Y14950D01*
X21978Y14956D01*
X22053Y14977D01*
X22125Y15010D01*
X22126Y15011D01*
Y11578D01*
X22125Y11578D01*
X22116Y11575D01*
X22108Y11572D01*
X22101Y11567D01*
X22095Y11560D01*
X22090Y11553D01*
X22086Y11545D01*
X22079Y11522D01*
X22074Y11498D01*
X22071Y11474D01*
X22070Y11450D01*
X22071Y11425D01*
X22074Y11401D01*
X22079Y11377D01*
X22086Y11354D01*
X22090Y11346D01*
X22095Y11339D01*
X22101Y11333D01*
X22108Y11328D01*
X22116Y11324D01*
X22125Y11322D01*
X22126Y11322D01*
Y10686D01*
X22077Y10652D01*
X22020Y10595D01*
X21974Y10530D01*
X21941Y10457D01*
X21920Y10379D01*
X21913Y10300D01*
X21920Y10220D01*
X21941Y10142D01*
X21974Y10070D01*
X22020Y10004D01*
X22077Y9947D01*
X22126Y9913D01*
Y9328D01*
X22125Y9328D01*
X22116Y9325D01*
X22108Y9322D01*
X22101Y9317D01*
X22095Y9310D01*
X22090Y9303D01*
X22086Y9295D01*
X22079Y9272D01*
X22074Y9248D01*
X22071Y9224D01*
X22070Y9200D01*
X22071Y9175D01*
X22074Y9151D01*
X22079Y9127D01*
X22086Y9104D01*
X22090Y9096D01*
X22095Y9089D01*
X22101Y9083D01*
X22108Y9078D01*
X22116Y9074D01*
X22125Y9072D01*
X22126Y9072D01*
Y8180D01*
X22078Y8193D01*
X22000Y8200D01*
X21921Y8193D01*
X21846Y8172D01*
X21775Y8139D01*
X21710Y8094D01*
X21655Y8039D01*
X21610Y7975D01*
X21577Y7903D01*
X21556Y7828D01*
X21550Y7750D01*
X21556Y7671D01*
X21577Y7596D01*
X21610Y7525D01*
X21655Y7460D01*
X21710Y7405D01*
X21775Y7360D01*
X21846Y7327D01*
X21921Y7306D01*
X22000Y7300D01*
X22078Y7306D01*
X22126Y7319D01*
Y300D01*
X21375D01*
Y7525D01*
X21388Y7526D01*
X21400Y7529D01*
X21412Y7535D01*
X21423Y7542D01*
X21432Y7551D01*
X21440Y7562D01*
X21445Y7574D01*
X21448Y7587D01*
X21450Y7600D01*
Y7900D01*
X21448Y7913D01*
X21445Y7925D01*
X21440Y7937D01*
X21432Y7948D01*
X21423Y7957D01*
X21412Y7965D01*
X21400Y7970D01*
X21388Y7973D01*
X21375Y7975D01*
Y12548D01*
X21375Y12551D01*
X21380Y12600D01*
X21375Y12648D01*
X21375Y12651D01*
Y24700D01*
G37*
G36*
X22126D02*X22350D01*
Y16400D01*
X22343Y16478D01*
X22322Y16553D01*
X22289Y16625D01*
X22244Y16689D01*
X22189Y16744D01*
X22126Y16788D01*
Y24700D01*
G37*
G36*
X22350Y300D02*X22126D01*
Y7319D01*
X22153Y7327D01*
X22225Y7360D01*
X22289Y7405D01*
X22344Y7460D01*
X22350Y7468D01*
Y300D01*
G37*
G36*
Y8031D02*X22344Y8039D01*
X22289Y8094D01*
X22225Y8139D01*
X22153Y8172D01*
X22126Y8180D01*
Y9072D01*
X22133Y9071D01*
X22142Y9072D01*
X22150Y9074D01*
X22158Y9078D01*
X22165Y9083D01*
X22172Y9089D01*
X22177Y9096D01*
X22180Y9104D01*
X22183Y9112D01*
X22183Y9121D01*
X22183Y9130D01*
X22180Y9138D01*
X22176Y9153D01*
X22172Y9168D01*
X22170Y9184D01*
X22170Y9200D01*
X22170Y9215D01*
X22172Y9231D01*
X22176Y9246D01*
X22180Y9261D01*
X22183Y9270D01*
X22183Y9278D01*
X22183Y9287D01*
X22180Y9295D01*
X22177Y9303D01*
X22172Y9310D01*
X22165Y9317D01*
X22158Y9322D01*
X22150Y9325D01*
X22142Y9328D01*
X22133Y9328D01*
X22126Y9328D01*
Y9913D01*
X22143Y9901D01*
X22216Y9867D01*
X22293Y9847D01*
X22350Y9842D01*
Y9480D01*
X22325Y9479D01*
X22301Y9475D01*
X22277Y9470D01*
X22254Y9463D01*
X22246Y9459D01*
X22239Y9454D01*
X22233Y9448D01*
X22228Y9441D01*
X22224Y9433D01*
X22222Y9424D01*
X22221Y9416D01*
X22222Y9407D01*
X22224Y9399D01*
X22228Y9391D01*
X22233Y9384D01*
X22239Y9377D01*
X22246Y9372D01*
X22254Y9369D01*
X22262Y9366D01*
X22271Y9366D01*
X22280Y9366D01*
X22288Y9369D01*
X22303Y9373D01*
X22318Y9377D01*
X22334Y9379D01*
X22350Y9380D01*
Y9020D01*
X22334Y9020D01*
X22318Y9022D01*
X22303Y9026D01*
X22288Y9030D01*
X22280Y9033D01*
X22271Y9033D01*
X22262Y9033D01*
X22254Y9030D01*
X22246Y9027D01*
X22239Y9022D01*
X22233Y9016D01*
X22228Y9008D01*
X22224Y9001D01*
X22222Y8992D01*
X22221Y8983D01*
X22222Y8975D01*
X22224Y8966D01*
X22228Y8958D01*
X22233Y8951D01*
X22239Y8945D01*
X22246Y8940D01*
X22254Y8936D01*
X22277Y8929D01*
X22301Y8924D01*
X22325Y8921D01*
X22350Y8920D01*
Y8031D01*
G37*
G36*
Y10758D02*X22293Y10753D01*
X22216Y10732D01*
X22143Y10698D01*
X22126Y10686D01*
Y11322D01*
X22133Y11321D01*
X22142Y11322D01*
X22150Y11324D01*
X22158Y11328D01*
X22165Y11333D01*
X22172Y11339D01*
X22177Y11346D01*
X22180Y11354D01*
X22183Y11362D01*
X22183Y11371D01*
X22183Y11380D01*
X22180Y11388D01*
X22176Y11403D01*
X22172Y11418D01*
X22170Y11434D01*
X22170Y11450D01*
X22170Y11465D01*
X22172Y11481D01*
X22176Y11496D01*
X22180Y11511D01*
X22183Y11520D01*
X22183Y11528D01*
X22183Y11537D01*
X22180Y11545D01*
X22177Y11553D01*
X22172Y11560D01*
X22165Y11567D01*
X22158Y11572D01*
X22150Y11575D01*
X22142Y11578D01*
X22133Y11578D01*
X22126Y11578D01*
Y15011D01*
X22189Y15055D01*
X22244Y15110D01*
X22289Y15175D01*
X22322Y15246D01*
X22343Y15321D01*
X22350Y15400D01*
Y11730D01*
X22325Y11729D01*
X22301Y11725D01*
X22277Y11720D01*
X22254Y11713D01*
X22246Y11709D01*
X22239Y11704D01*
X22233Y11698D01*
X22228Y11691D01*
X22224Y11683D01*
X22222Y11674D01*
X22221Y11666D01*
X22222Y11657D01*
X22224Y11649D01*
X22228Y11641D01*
X22233Y11634D01*
X22239Y11627D01*
X22246Y11622D01*
X22254Y11619D01*
X22262Y11616D01*
X22271Y11616D01*
X22280Y11616D01*
X22288Y11619D01*
X22303Y11623D01*
X22318Y11627D01*
X22334Y11629D01*
X22350Y11630D01*
Y11270D01*
X22334Y11270D01*
X22318Y11272D01*
X22303Y11276D01*
X22288Y11280D01*
X22280Y11283D01*
X22271Y11283D01*
X22262Y11283D01*
X22254Y11280D01*
X22246Y11277D01*
X22239Y11272D01*
X22233Y11266D01*
X22228Y11258D01*
X22224Y11251D01*
X22222Y11242D01*
X22221Y11233D01*
X22222Y11225D01*
X22224Y11216D01*
X22228Y11208D01*
X22233Y11201D01*
X22239Y11195D01*
X22246Y11190D01*
X22254Y11186D01*
X22277Y11179D01*
X22301Y11174D01*
X22325Y11171D01*
X22350Y11170D01*
Y10758D01*
G37*
G36*
Y15400D02*X22343Y15478D01*
X22322Y15553D01*
X22289Y15625D01*
X22244Y15689D01*
X22189Y15744D01*
X22126Y15788D01*
Y16011D01*
X22189Y16055D01*
X22244Y16110D01*
X22289Y16175D01*
X22322Y16246D01*
X22343Y16321D01*
X22350Y16400D01*
Y15400D01*
G37*
G36*
Y24700D02*X22573D01*
Y16620D01*
X22534Y16659D01*
X22510Y16625D01*
X22477Y16553D01*
X22456Y16478D01*
X22450Y16400D01*
X22456Y16321D01*
X22477Y16246D01*
X22510Y16175D01*
X22534Y16140D01*
X22573Y16179D01*
Y15620D01*
X22534Y15659D01*
X22510Y15625D01*
X22477Y15553D01*
X22456Y15478D01*
X22450Y15400D01*
X22456Y15321D01*
X22477Y15246D01*
X22510Y15175D01*
X22534Y15140D01*
X22573Y15179D01*
Y11578D01*
X22566Y11578D01*
X22557Y11578D01*
X22549Y11575D01*
X22541Y11572D01*
X22534Y11567D01*
X22527Y11560D01*
X22522Y11553D01*
X22519Y11545D01*
X22516Y11537D01*
X22516Y11528D01*
X22516Y11520D01*
X22519Y11511D01*
X22523Y11496D01*
X22527Y11481D01*
X22529Y11465D01*
X22530Y11450D01*
X22529Y11434D01*
X22527Y11418D01*
X22523Y11403D01*
X22519Y11388D01*
X22516Y11380D01*
X22516Y11371D01*
X22516Y11362D01*
X22519Y11354D01*
X22522Y11346D01*
X22527Y11339D01*
X22534Y11333D01*
X22541Y11328D01*
X22549Y11324D01*
X22557Y11322D01*
X22566Y11321D01*
X22573Y11322D01*
Y10712D01*
X22530Y10732D01*
X22453Y10753D01*
X22373Y10760D01*
X22350Y10758D01*
Y11170D01*
X22374Y11171D01*
X22398Y11174D01*
X22422Y11179D01*
X22445Y11186D01*
X22453Y11190D01*
X22460Y11195D01*
X22466Y11201D01*
X22471Y11208D01*
X22475Y11216D01*
X22477Y11225D01*
X22478Y11233D01*
X22477Y11242D01*
X22475Y11251D01*
X22471Y11258D01*
X22466Y11266D01*
X22460Y11272D01*
X22453Y11277D01*
X22445Y11280D01*
X22437Y11283D01*
X22428Y11283D01*
X22419Y11283D01*
X22411Y11280D01*
X22396Y11276D01*
X22381Y11272D01*
X22365Y11270D01*
X22350Y11270D01*
Y11630D01*
X22365Y11629D01*
X22381Y11627D01*
X22396Y11623D01*
X22411Y11619D01*
X22419Y11616D01*
X22428Y11616D01*
X22437Y11616D01*
X22445Y11619D01*
X22453Y11622D01*
X22460Y11627D01*
X22466Y11634D01*
X22471Y11641D01*
X22475Y11649D01*
X22477Y11657D01*
X22478Y11666D01*
X22477Y11674D01*
X22475Y11683D01*
X22471Y11691D01*
X22466Y11698D01*
X22460Y11704D01*
X22453Y11709D01*
X22445Y11713D01*
X22422Y11720D01*
X22398Y11725D01*
X22374Y11729D01*
X22350Y11730D01*
Y24700D01*
G37*
G36*
X22573Y300D02*X22350D01*
Y7468D01*
X22389Y7525D01*
X22422Y7596D01*
X22443Y7671D01*
X22450Y7750D01*
X22443Y7828D01*
X22422Y7903D01*
X22389Y7975D01*
X22350Y8031D01*
Y8920D01*
X22374Y8921D01*
X22398Y8924D01*
X22422Y8929D01*
X22445Y8936D01*
X22453Y8940D01*
X22460Y8945D01*
X22466Y8951D01*
X22471Y8958D01*
X22475Y8966D01*
X22477Y8975D01*
X22478Y8983D01*
X22477Y8992D01*
X22475Y9001D01*
X22471Y9008D01*
X22466Y9016D01*
X22460Y9022D01*
X22453Y9027D01*
X22445Y9030D01*
X22437Y9033D01*
X22428Y9033D01*
X22419Y9033D01*
X22411Y9030D01*
X22396Y9026D01*
X22381Y9022D01*
X22365Y9020D01*
X22350Y9020D01*
Y9380D01*
X22365Y9379D01*
X22381Y9377D01*
X22396Y9373D01*
X22411Y9369D01*
X22419Y9366D01*
X22428Y9366D01*
X22437Y9366D01*
X22445Y9369D01*
X22453Y9372D01*
X22460Y9377D01*
X22466Y9384D01*
X22471Y9391D01*
X22475Y9399D01*
X22477Y9407D01*
X22478Y9416D01*
X22477Y9424D01*
X22475Y9433D01*
X22471Y9441D01*
X22466Y9448D01*
X22460Y9454D01*
X22453Y9459D01*
X22445Y9463D01*
X22422Y9470D01*
X22398Y9475D01*
X22374Y9479D01*
X22350Y9480D01*
Y9842D01*
X22373Y9840D01*
X22453Y9847D01*
X22530Y9867D01*
X22573Y9887D01*
Y9328D01*
X22566Y9328D01*
X22557Y9328D01*
X22549Y9325D01*
X22541Y9322D01*
X22534Y9317D01*
X22527Y9310D01*
X22522Y9303D01*
X22519Y9295D01*
X22516Y9287D01*
X22516Y9278D01*
X22516Y9270D01*
X22519Y9261D01*
X22523Y9246D01*
X22527Y9231D01*
X22529Y9215D01*
X22530Y9200D01*
X22529Y9184D01*
X22527Y9168D01*
X22523Y9153D01*
X22519Y9138D01*
X22516Y9130D01*
X22516Y9121D01*
X22516Y9112D01*
X22519Y9104D01*
X22522Y9096D01*
X22527Y9089D01*
X22534Y9083D01*
X22541Y9078D01*
X22549Y9074D01*
X22557Y9072D01*
X22566Y9071D01*
X22573Y9072D01*
Y7889D01*
X22556Y7828D01*
X22550Y7750D01*
X22556Y7671D01*
X22573Y7611D01*
Y300D01*
G37*
G36*
Y24700D02*X22900D01*
Y16850D01*
X22821Y16843D01*
X22746Y16822D01*
X22675Y16789D01*
X22640Y16765D01*
X22747Y16658D01*
X22750Y16659D01*
X22797Y16681D01*
X22847Y16695D01*
X22900Y16700D01*
Y16100D01*
X22847Y16104D01*
X22797Y16118D01*
X22750Y16140D01*
X22747Y16141D01*
X22640Y16034D01*
X22675Y16010D01*
X22746Y15977D01*
X22821Y15956D01*
X22900Y15950D01*
Y15850D01*
X22821Y15843D01*
X22746Y15822D01*
X22675Y15789D01*
X22640Y15765D01*
X22747Y15658D01*
X22750Y15659D01*
X22797Y15681D01*
X22847Y15695D01*
X22900Y15700D01*
Y15100D01*
X22847Y15104D01*
X22797Y15118D01*
X22750Y15140D01*
X22747Y15141D01*
X22640Y15034D01*
X22675Y15010D01*
X22746Y14977D01*
X22821Y14956D01*
X22900Y14950D01*
Y8187D01*
X22846Y8172D01*
X22775Y8139D01*
X22710Y8094D01*
X22655Y8039D01*
X22610Y7975D01*
X22577Y7903D01*
X22573Y7889D01*
Y9072D01*
X22574Y9072D01*
X22583Y9074D01*
X22591Y9078D01*
X22598Y9083D01*
X22604Y9089D01*
X22609Y9096D01*
X22613Y9104D01*
X22620Y9127D01*
X22625Y9151D01*
X22628Y9175D01*
X22630Y9200D01*
X22628Y9224D01*
X22625Y9248D01*
X22620Y9272D01*
X22613Y9295D01*
X22609Y9303D01*
X22604Y9310D01*
X22598Y9317D01*
X22591Y9322D01*
X22583Y9325D01*
X22574Y9328D01*
X22573Y9328D01*
Y9887D01*
X22603Y9901D01*
X22669Y9947D01*
X22725Y10004D01*
X22771Y10070D01*
X22805Y10142D01*
X22826Y10220D01*
X22833Y10300D01*
X22826Y10379D01*
X22805Y10457D01*
X22771Y10530D01*
X22725Y10595D01*
X22669Y10652D01*
X22603Y10698D01*
X22573Y10712D01*
Y11322D01*
X22574Y11322D01*
X22583Y11324D01*
X22591Y11328D01*
X22598Y11333D01*
X22604Y11339D01*
X22609Y11346D01*
X22613Y11354D01*
X22620Y11377D01*
X22625Y11401D01*
X22628Y11425D01*
X22630Y11450D01*
X22628Y11474D01*
X22625Y11498D01*
X22620Y11522D01*
X22613Y11545D01*
X22609Y11553D01*
X22604Y11560D01*
X22598Y11567D01*
X22591Y11572D01*
X22583Y11575D01*
X22574Y11578D01*
X22573Y11578D01*
Y15179D01*
X22641Y15247D01*
X22640Y15250D01*
X22618Y15297D01*
X22604Y15347D01*
X22600Y15400D01*
X22604Y15452D01*
X22618Y15502D01*
X22640Y15550D01*
X22641Y15552D01*
X22573Y15620D01*
Y16179D01*
X22641Y16247D01*
X22640Y16250D01*
X22618Y16297D01*
X22604Y16347D01*
X22600Y16400D01*
X22604Y16452D01*
X22618Y16502D01*
X22640Y16550D01*
X22641Y16552D01*
X22573Y16620D01*
Y24700D01*
G37*
G36*
X22900Y300D02*X22573D01*
Y7611D01*
X22577Y7596D01*
X22610Y7525D01*
X22655Y7460D01*
X22710Y7405D01*
X22775Y7360D01*
X22846Y7327D01*
X22900Y7312D01*
Y300D01*
G37*
G36*
Y24700D02*X23254D01*
Y16648D01*
X23158Y16552D01*
X23159Y16550D01*
X23181Y16502D01*
X23195Y16452D01*
X23200Y16400D01*
X23195Y16347D01*
X23181Y16297D01*
X23159Y16250D01*
X23158Y16247D01*
X23254Y16151D01*
Y15648D01*
X23158Y15552D01*
X23159Y15550D01*
X23181Y15502D01*
X23195Y15452D01*
X23200Y15400D01*
X23195Y15347D01*
X23181Y15297D01*
X23159Y15250D01*
X23158Y15247D01*
X23254Y15151D01*
Y8119D01*
X23225Y8139D01*
X23153Y8172D01*
X23078Y8193D01*
X23000Y8200D01*
X22921Y8193D01*
X22900Y8187D01*
Y14950D01*
X22978Y14956D01*
X23053Y14977D01*
X23125Y15010D01*
X23159Y15034D01*
X23052Y15141D01*
X23050Y15140D01*
X23002Y15118D01*
X22952Y15104D01*
X22900Y15100D01*
Y15700D01*
X22952Y15695D01*
X23002Y15681D01*
X23050Y15659D01*
X23052Y15658D01*
X23159Y15765D01*
X23125Y15789D01*
X23053Y15822D01*
X22978Y15843D01*
X22900Y15850D01*
Y15950D01*
X22978Y15956D01*
X23053Y15977D01*
X23125Y16010D01*
X23159Y16034D01*
X23052Y16141D01*
X23050Y16140D01*
X23002Y16118D01*
X22952Y16104D01*
X22900Y16100D01*
Y16700D01*
X22952Y16695D01*
X23002Y16681D01*
X23050Y16659D01*
X23052Y16658D01*
X23159Y16765D01*
X23125Y16789D01*
X23053Y16822D01*
X22978Y16843D01*
X22900Y16850D01*
Y24700D01*
G37*
G36*
X23254Y300D02*X22900D01*
Y7312D01*
X22921Y7306D01*
X23000Y7300D01*
X23078Y7306D01*
X23153Y7327D01*
X23225Y7360D01*
X23254Y7380D01*
Y300D01*
G37*
G36*
Y24700D02*X23638D01*
Y7964D01*
X23629Y7961D01*
X23617Y7956D01*
X23606Y7949D01*
X23596Y7940D01*
X23588Y7930D01*
X23582Y7918D01*
X23568Y7877D01*
X23558Y7835D01*
X23552Y7793D01*
X23550Y7750D01*
X23552Y7706D01*
X23558Y7664D01*
X23568Y7622D01*
X23582Y7581D01*
X23588Y7569D01*
X23596Y7559D01*
X23606Y7550D01*
X23617Y7543D01*
X23629Y7538D01*
X23638Y7536D01*
Y300D01*
X23254D01*
Y7380D01*
X23289Y7405D01*
X23344Y7460D01*
X23389Y7525D01*
X23422Y7596D01*
X23443Y7671D01*
X23450Y7750D01*
X23443Y7828D01*
X23422Y7903D01*
X23389Y7975D01*
X23344Y8039D01*
X23289Y8094D01*
X23254Y8119D01*
Y15151D01*
X23265Y15140D01*
X23289Y15175D01*
X23322Y15246D01*
X23343Y15321D01*
X23350Y15400D01*
X23343Y15478D01*
X23322Y15553D01*
X23289Y15625D01*
X23265Y15659D01*
X23254Y15648D01*
Y16151D01*
X23265Y16140D01*
X23289Y16175D01*
X23322Y16246D01*
X23343Y16321D01*
X23350Y16400D01*
X23343Y16478D01*
X23322Y16553D01*
X23289Y16625D01*
X23265Y16659D01*
X23254Y16648D01*
Y24700D01*
G37*
G36*
X23638D02*X24000D01*
Y8200D01*
X23956Y8198D01*
X23914Y8191D01*
X23872Y8181D01*
X23831Y8167D01*
X23819Y8161D01*
X23809Y8153D01*
X23800Y8143D01*
X23793Y8132D01*
X23788Y8120D01*
X23785Y8108D01*
X23784Y8095D01*
X23786Y8082D01*
X23790Y8069D01*
X23795Y8058D01*
X23803Y8047D01*
X23813Y8038D01*
X23824Y8031D01*
X23836Y8026D01*
X23849Y8023D01*
X23862Y8022D01*
X23875Y8024D01*
X23887Y8028D01*
X23914Y8037D01*
X23942Y8044D01*
X23971Y8048D01*
X24000Y8050D01*
Y7450D01*
X23971Y7451D01*
X23942Y7455D01*
X23914Y7462D01*
X23887Y7471D01*
X23875Y7475D01*
X23862Y7477D01*
X23849Y7476D01*
X23836Y7473D01*
X23824Y7468D01*
X23813Y7461D01*
X23803Y7452D01*
X23795Y7442D01*
X23789Y7430D01*
X23786Y7418D01*
X23784Y7405D01*
X23785Y7391D01*
X23788Y7379D01*
X23793Y7367D01*
X23800Y7356D01*
X23809Y7346D01*
X23819Y7338D01*
X23831Y7332D01*
X23872Y7318D01*
X23914Y7308D01*
X23956Y7302D01*
X24000Y7300D01*
Y300D01*
X23638D01*
Y7536D01*
X23641Y7535D01*
X23654Y7534D01*
X23667Y7536D01*
X23680Y7540D01*
X23692Y7546D01*
X23702Y7553D01*
X23711Y7563D01*
X23718Y7574D01*
X23723Y7586D01*
X23726Y7599D01*
X23727Y7612D01*
X23725Y7625D01*
X23721Y7637D01*
X23712Y7664D01*
X23705Y7692D01*
X23701Y7721D01*
X23700Y7750D01*
X23701Y7778D01*
X23705Y7807D01*
X23712Y7835D01*
X23721Y7862D01*
X23725Y7874D01*
X23727Y7887D01*
X23726Y7901D01*
X23723Y7913D01*
X23718Y7925D01*
X23711Y7936D01*
X23702Y7946D01*
X23692Y7954D01*
X23680Y7960D01*
X23667Y7963D01*
X23654Y7965D01*
X23641Y7964D01*
X23638Y7964D01*
Y24700D01*
G37*
G36*
X24000D02*X24361D01*
Y7963D01*
X24358Y7964D01*
X24345Y7965D01*
X24332Y7963D01*
X24319Y7960D01*
X24307Y7954D01*
X24297Y7946D01*
X24288Y7936D01*
X24281Y7925D01*
X24276Y7913D01*
X24273Y7900D01*
X24272Y7887D01*
X24274Y7874D01*
X24278Y7862D01*
X24287Y7835D01*
X24294Y7807D01*
X24298Y7778D01*
X24300Y7750D01*
X24298Y7721D01*
X24294Y7692D01*
X24287Y7664D01*
X24278Y7637D01*
X24274Y7625D01*
X24272Y7612D01*
X24273Y7599D01*
X24276Y7586D01*
X24281Y7574D01*
X24288Y7563D01*
X24297Y7553D01*
X24307Y7545D01*
X24319Y7540D01*
X24332Y7536D01*
X24345Y7534D01*
X24358Y7535D01*
X24361Y7536D01*
Y300D01*
X24000D01*
Y7300D01*
X24043Y7302D01*
X24085Y7308D01*
X24127Y7318D01*
X24168Y7332D01*
X24180Y7338D01*
X24190Y7346D01*
X24199Y7356D01*
X24206Y7367D01*
X24211Y7379D01*
X24214Y7392D01*
X24215Y7405D01*
X24213Y7418D01*
X24209Y7430D01*
X24204Y7442D01*
X24196Y7452D01*
X24186Y7461D01*
X24175Y7468D01*
X24163Y7473D01*
X24150Y7476D01*
X24137Y7477D01*
X24124Y7475D01*
X24112Y7471D01*
X24085Y7462D01*
X24057Y7455D01*
X24028Y7451D01*
X24000Y7450D01*
Y8050D01*
X24028Y8048D01*
X24057Y8044D01*
X24085Y8037D01*
X24112Y8028D01*
X24124Y8024D01*
X24137Y8022D01*
X24150Y8023D01*
X24163Y8026D01*
X24175Y8031D01*
X24186Y8038D01*
X24196Y8047D01*
X24204Y8057D01*
X24210Y8069D01*
X24213Y8082D01*
X24215Y8095D01*
X24214Y8108D01*
X24211Y8120D01*
X24206Y8133D01*
X24199Y8143D01*
X24190Y8153D01*
X24180Y8161D01*
X24168Y8167D01*
X24127Y8181D01*
X24085Y8191D01*
X24043Y8198D01*
X24000Y8200D01*
Y24700D01*
G37*
G36*
X24361D02*X26000D01*
Y24260D01*
X25868Y24248D01*
X25740Y24214D01*
X25620Y24158D01*
X25511Y24082D01*
X25417Y23988D01*
X25341Y23880D01*
X25285Y23759D01*
X25251Y23632D01*
X25240Y23500D01*
X25251Y23368D01*
X25285Y23240D01*
X25341Y23120D01*
X25417Y23011D01*
X25511Y22917D01*
X25620Y22841D01*
X25740Y22785D01*
X25868Y22751D01*
X26000Y22740D01*
Y2260D01*
X25868Y2248D01*
X25740Y2214D01*
X25620Y2158D01*
X25511Y2082D01*
X25417Y1988D01*
X25341Y1880D01*
X25285Y1759D01*
X25251Y1632D01*
X25240Y1500D01*
X25251Y1368D01*
X25285Y1240D01*
X25341Y1120D01*
X25417Y1011D01*
X25511Y917D01*
X25620Y841D01*
X25740Y785D01*
X25868Y751D01*
X26000Y740D01*
Y300D01*
X24361D01*
Y7536D01*
X24370Y7538D01*
X24382Y7543D01*
X24393Y7550D01*
X24403Y7559D01*
X24411Y7569D01*
X24417Y7581D01*
X24431Y7622D01*
X24441Y7664D01*
X24447Y7706D01*
X24450Y7750D01*
X24447Y7793D01*
X24441Y7835D01*
X24431Y7877D01*
X24417Y7918D01*
X24411Y7930D01*
X24403Y7940D01*
X24393Y7949D01*
X24382Y7956D01*
X24370Y7961D01*
X24361Y7963D01*
Y24700D01*
G37*
G36*
X26000D02*X27200D01*
Y300D01*
X26000D01*
Y740D01*
X26132Y751D01*
X26259Y785D01*
X26380Y841D01*
X26488Y917D01*
X26582Y1011D01*
X26658Y1120D01*
X26714Y1240D01*
X26748Y1368D01*
X26760Y1500D01*
X26748Y1632D01*
X26714Y1759D01*
X26658Y1880D01*
X26582Y1988D01*
X26488Y2082D01*
X26380Y2158D01*
X26259Y2214D01*
X26132Y2248D01*
X26000Y2260D01*
Y22740D01*
X26132Y22751D01*
X26259Y22785D01*
X26380Y22841D01*
X26488Y22917D01*
X26582Y23011D01*
X26658Y23120D01*
X26714Y23240D01*
X26748Y23368D01*
X26760Y23500D01*
X26748Y23632D01*
X26714Y23759D01*
X26658Y23880D01*
X26582Y23988D01*
X26488Y24082D01*
X26380Y24158D01*
X26259Y24214D01*
X26132Y24248D01*
X26000Y24260D01*
Y24700D01*
G37*
G36*
X1500Y4200D02*X500D01*
Y24700D01*
X1500D01*
Y24260D01*
X1368Y24248D01*
X1240Y24214D01*
X1120Y24158D01*
X1011Y24082D01*
X917Y23988D01*
X841Y23880D01*
X785Y23759D01*
X751Y23632D01*
X740Y23500D01*
X751Y23368D01*
X785Y23240D01*
X841Y23120D01*
X917Y23011D01*
X1011Y22917D01*
X1120Y22841D01*
X1240Y22785D01*
X1368Y22751D01*
X1500Y22740D01*
Y4200D01*
G37*
G36*
X5500D02*X1500D01*
Y22740D01*
X1632Y22751D01*
X1759Y22785D01*
X1880Y22841D01*
X1988Y22917D01*
X2082Y23011D01*
X2158Y23120D01*
X2214Y23240D01*
X2248Y23368D01*
X2260Y23500D01*
X2248Y23632D01*
X2214Y23759D01*
X2158Y23880D01*
X2082Y23988D01*
X1988Y24082D01*
X1880Y24158D01*
X1759Y24214D01*
X1632Y24248D01*
X1500Y24260D01*
Y24700D01*
X5500D01*
Y6260D01*
X5368Y6248D01*
X5240Y6214D01*
X5120Y6158D01*
X5011Y6082D01*
X4917Y5988D01*
X4841Y5880D01*
X4785Y5759D01*
X4751Y5632D01*
X4740Y5500D01*
X4751Y5368D01*
X4785Y5240D01*
X4841Y5120D01*
X4917Y5011D01*
X5011Y4917D01*
X5120Y4841D01*
X5240Y4785D01*
X5368Y4751D01*
X5500Y4740D01*
Y4200D01*
G37*
G36*
X7025D02*X5500D01*
Y4740D01*
X5632Y4751D01*
X5759Y4785D01*
X5880Y4841D01*
X5988Y4917D01*
X6082Y5011D01*
X6158Y5120D01*
X6214Y5240D01*
X6248Y5368D01*
X6260Y5500D01*
X6248Y5632D01*
X6214Y5759D01*
X6158Y5880D01*
X6082Y5988D01*
X5988Y6082D01*
X5880Y6158D01*
X5759Y6214D01*
X5632Y6248D01*
X5500Y6260D01*
Y24700D01*
X7025D01*
Y13110D01*
X7017Y13106D01*
X7006Y13099D01*
X6996Y13090D01*
X6988Y13080D01*
X6982Y13068D01*
X6968Y13027D01*
X6958Y12985D01*
X6952Y12943D01*
X6950Y12900D01*
X6952Y12856D01*
X6958Y12814D01*
X6968Y12772D01*
X6982Y12731D01*
X6988Y12719D01*
X6996Y12709D01*
X7006Y12700D01*
X7017Y12693D01*
X7025Y12690D01*
Y12146D01*
X7010Y12125D01*
X6977Y12053D01*
X6956Y11978D01*
X6950Y11900D01*
X6956Y11821D01*
X6977Y11746D01*
X7010Y11675D01*
X7025Y11654D01*
Y11146D01*
X7010Y11125D01*
X6977Y11053D01*
X6956Y10978D01*
X6950Y10900D01*
X6956Y10821D01*
X6977Y10746D01*
X7010Y10675D01*
X7025Y10654D01*
Y10125D01*
X7012Y10123D01*
X6999Y10120D01*
X6987Y10115D01*
X6976Y10107D01*
X6967Y10098D01*
X6960Y10087D01*
X6954Y10075D01*
X6951Y10063D01*
X6950Y10050D01*
Y9750D01*
X6951Y9737D01*
X6954Y9724D01*
X6960Y9712D01*
X6967Y9701D01*
X6976Y9692D01*
X6987Y9685D01*
X6999Y9679D01*
X7012Y9676D01*
X7025Y9675D01*
Y4200D01*
G37*
G36*
X7400D02*X7025D01*
Y9675D01*
X7038Y9676D01*
X7050Y9679D01*
X7062Y9685D01*
X7073Y9692D01*
X7082Y9701D01*
X7090Y9712D01*
X7095Y9724D01*
X7098Y9737D01*
X7100Y9750D01*
Y10050D01*
X7098Y10063D01*
X7095Y10075D01*
X7090Y10087D01*
X7082Y10098D01*
X7073Y10107D01*
X7062Y10115D01*
X7050Y10120D01*
X7038Y10123D01*
X7025Y10125D01*
Y10654D01*
X7055Y10610D01*
X7110Y10555D01*
X7175Y10510D01*
X7246Y10477D01*
X7321Y10456D01*
X7400Y10450D01*
Y10350D01*
X7250D01*
X7237Y10348D01*
X7224Y10345D01*
X7212Y10340D01*
X7201Y10332D01*
X7192Y10323D01*
X7185Y10312D01*
X7179Y10300D01*
X7176Y10288D01*
X7175Y10275D01*
X7176Y10262D01*
X7179Y10249D01*
X7185Y10237D01*
X7192Y10226D01*
X7201Y10217D01*
X7212Y10210D01*
X7224Y10204D01*
X7237Y10201D01*
X7250Y10200D01*
X7400D01*
Y9600D01*
X7250D01*
X7237Y9598D01*
X7224Y9595D01*
X7212Y9590D01*
X7201Y9582D01*
X7192Y9573D01*
X7185Y9562D01*
X7179Y9550D01*
X7176Y9538D01*
X7175Y9525D01*
X7176Y9512D01*
X7179Y9499D01*
X7185Y9487D01*
X7192Y9476D01*
X7201Y9467D01*
X7212Y9460D01*
X7224Y9454D01*
X7237Y9451D01*
X7250Y9450D01*
X7400D01*
Y4200D01*
G37*
G36*
Y11350D02*X7321Y11343D01*
X7246Y11322D01*
X7175Y11289D01*
X7110Y11244D01*
X7055Y11189D01*
X7025Y11146D01*
Y11654D01*
X7055Y11610D01*
X7110Y11555D01*
X7175Y11510D01*
X7246Y11477D01*
X7321Y11456D01*
X7400Y11450D01*
Y11350D01*
G37*
G36*
Y12350D02*X7321Y12343D01*
X7246Y12322D01*
X7175Y12289D01*
X7110Y12244D01*
X7055Y12189D01*
X7025Y12146D01*
Y12690D01*
X7029Y12688D01*
X7041Y12685D01*
X7054Y12684D01*
X7067Y12686D01*
X7080Y12690D01*
X7092Y12696D01*
X7102Y12703D01*
X7111Y12713D01*
X7118Y12724D01*
X7123Y12736D01*
X7126Y12749D01*
X7127Y12762D01*
X7125Y12775D01*
X7121Y12787D01*
X7112Y12814D01*
X7105Y12842D01*
X7101Y12871D01*
X7100Y12900D01*
X7101Y12928D01*
X7105Y12957D01*
X7112Y12985D01*
X7121Y13012D01*
X7125Y13024D01*
X7127Y13037D01*
X7126Y13051D01*
X7123Y13063D01*
X7118Y13075D01*
X7111Y13086D01*
X7102Y13096D01*
X7092Y13104D01*
X7080Y13110D01*
X7067Y13113D01*
X7054Y13115D01*
X7041Y13114D01*
X7029Y13111D01*
X7025Y13110D01*
Y24700D01*
X7400D01*
Y13350D01*
X7356Y13348D01*
X7314Y13341D01*
X7272Y13331D01*
X7231Y13317D01*
X7219Y13311D01*
X7209Y13303D01*
X7200Y13293D01*
X7193Y13282D01*
X7188Y13270D01*
X7185Y13258D01*
X7184Y13245D01*
X7186Y13232D01*
X7190Y13219D01*
X7195Y13208D01*
X7203Y13197D01*
X7213Y13188D01*
X7224Y13181D01*
X7236Y13176D01*
X7249Y13173D01*
X7262Y13172D01*
X7275Y13174D01*
X7287Y13178D01*
X7314Y13187D01*
X7342Y13194D01*
X7371Y13198D01*
X7400Y13200D01*
Y12600D01*
X7371Y12601D01*
X7342Y12605D01*
X7314Y12612D01*
X7287Y12621D01*
X7275Y12625D01*
X7262Y12627D01*
X7249Y12626D01*
X7236Y12623D01*
X7224Y12618D01*
X7213Y12611D01*
X7203Y12602D01*
X7195Y12592D01*
X7189Y12580D01*
X7186Y12568D01*
X7184Y12555D01*
X7185Y12541D01*
X7188Y12529D01*
X7193Y12517D01*
X7200Y12506D01*
X7209Y12496D01*
X7219Y12488D01*
X7231Y12482D01*
X7272Y12468D01*
X7314Y12458D01*
X7356Y12452D01*
X7400Y12450D01*
Y12350D01*
G37*
G36*
X7775Y4200D02*X7400D01*
Y9450D01*
X7550D01*
X7563Y9451D01*
X7575Y9454D01*
X7587Y9460D01*
X7598Y9467D01*
X7607Y9476D01*
X7615Y9487D01*
X7620Y9499D01*
X7623Y9512D01*
X7625Y9525D01*
X7623Y9538D01*
X7620Y9550D01*
X7615Y9562D01*
X7607Y9573D01*
X7598Y9582D01*
X7587Y9590D01*
X7575Y9595D01*
X7563Y9598D01*
X7550Y9600D01*
X7400D01*
Y10200D01*
X7550D01*
X7563Y10201D01*
X7575Y10204D01*
X7587Y10210D01*
X7598Y10217D01*
X7607Y10226D01*
X7615Y10237D01*
X7620Y10249D01*
X7623Y10262D01*
X7625Y10275D01*
X7623Y10288D01*
X7620Y10300D01*
X7615Y10312D01*
X7607Y10323D01*
X7598Y10332D01*
X7587Y10340D01*
X7575Y10345D01*
X7563Y10348D01*
X7550Y10350D01*
X7400D01*
Y10450D01*
X7478Y10456D01*
X7553Y10477D01*
X7625Y10510D01*
X7689Y10555D01*
X7744Y10610D01*
X7775Y10654D01*
Y10125D01*
X7762Y10123D01*
X7749Y10120D01*
X7737Y10115D01*
X7726Y10107D01*
X7717Y10098D01*
X7710Y10087D01*
X7704Y10075D01*
X7701Y10063D01*
X7700Y10050D01*
Y9750D01*
X7701Y9737D01*
X7704Y9724D01*
X7710Y9712D01*
X7717Y9701D01*
X7726Y9692D01*
X7737Y9685D01*
X7749Y9679D01*
X7762Y9676D01*
X7775Y9675D01*
Y4200D01*
G37*
G36*
Y11146D02*X7744Y11189D01*
X7689Y11244D01*
X7625Y11289D01*
X7553Y11322D01*
X7478Y11343D01*
X7400Y11350D01*
Y11450D01*
X7478Y11456D01*
X7553Y11477D01*
X7625Y11510D01*
X7689Y11555D01*
X7744Y11610D01*
X7775Y11654D01*
Y11146D01*
G37*
G36*
Y12146D02*X7744Y12189D01*
X7689Y12244D01*
X7625Y12289D01*
X7553Y12322D01*
X7478Y12343D01*
X7400Y12350D01*
Y12450D01*
X7443Y12452D01*
X7485Y12458D01*
X7527Y12468D01*
X7568Y12482D01*
X7580Y12488D01*
X7590Y12496D01*
X7599Y12506D01*
X7606Y12517D01*
X7611Y12529D01*
X7614Y12542D01*
X7615Y12555D01*
X7613Y12568D01*
X7609Y12580D01*
X7604Y12592D01*
X7596Y12602D01*
X7586Y12611D01*
X7575Y12618D01*
X7563Y12623D01*
X7550Y12626D01*
X7537Y12627D01*
X7524Y12625D01*
X7512Y12621D01*
X7485Y12612D01*
X7457Y12605D01*
X7428Y12601D01*
X7400Y12600D01*
Y13200D01*
X7428Y13198D01*
X7457Y13194D01*
X7485Y13187D01*
X7512Y13178D01*
X7524Y13174D01*
X7537Y13172D01*
X7550Y13173D01*
X7563Y13176D01*
X7575Y13181D01*
X7586Y13188D01*
X7596Y13197D01*
X7604Y13207D01*
X7610Y13219D01*
X7613Y13232D01*
X7615Y13245D01*
X7614Y13258D01*
X7611Y13270D01*
X7606Y13283D01*
X7599Y13293D01*
X7590Y13303D01*
X7580Y13311D01*
X7568Y13317D01*
X7527Y13331D01*
X7485Y13341D01*
X7443Y13348D01*
X7400Y13350D01*
Y24700D01*
X7775D01*
Y13110D01*
X7770Y13111D01*
X7758Y13114D01*
X7745Y13115D01*
X7732Y13113D01*
X7719Y13110D01*
X7707Y13104D01*
X7697Y13096D01*
X7688Y13086D01*
X7681Y13075D01*
X7676Y13063D01*
X7673Y13050D01*
X7672Y13037D01*
X7674Y13024D01*
X7678Y13012D01*
X7687Y12985D01*
X7694Y12957D01*
X7698Y12928D01*
X7700Y12900D01*
X7698Y12871D01*
X7694Y12842D01*
X7687Y12814D01*
X7678Y12787D01*
X7674Y12775D01*
X7672Y12762D01*
X7673Y12749D01*
X7676Y12736D01*
X7681Y12724D01*
X7688Y12713D01*
X7697Y12703D01*
X7707Y12695D01*
X7719Y12690D01*
X7732Y12686D01*
X7745Y12684D01*
X7758Y12685D01*
X7770Y12688D01*
X7775Y12690D01*
Y12146D01*
G37*
G36*
X8576Y4200D02*X7775D01*
Y9675D01*
X7788Y9676D01*
X7800Y9679D01*
X7812Y9685D01*
X7823Y9692D01*
X7832Y9701D01*
X7840Y9712D01*
X7845Y9724D01*
X7848Y9737D01*
X7850Y9750D01*
Y10050D01*
X7848Y10063D01*
X7845Y10075D01*
X7840Y10087D01*
X7832Y10098D01*
X7823Y10107D01*
X7812Y10115D01*
X7800Y10120D01*
X7788Y10123D01*
X7775Y10125D01*
Y10654D01*
X7789Y10675D01*
X7822Y10746D01*
X7843Y10821D01*
X7850Y10900D01*
X7843Y10978D01*
X7822Y11053D01*
X7789Y11125D01*
X7775Y11146D01*
Y11654D01*
X7789Y11675D01*
X7822Y11746D01*
X7843Y11821D01*
X7850Y11900D01*
X7843Y11978D01*
X7822Y12053D01*
X7789Y12125D01*
X7775Y12146D01*
Y12690D01*
X7782Y12693D01*
X7793Y12700D01*
X7803Y12709D01*
X7811Y12719D01*
X7817Y12731D01*
X7831Y12772D01*
X7841Y12814D01*
X7847Y12856D01*
X7850Y12900D01*
X7847Y12943D01*
X7841Y12985D01*
X7831Y13027D01*
X7817Y13068D01*
X7811Y13080D01*
X7803Y13090D01*
X7793Y13099D01*
X7782Y13106D01*
X7775Y13110D01*
Y24700D01*
X8576D01*
Y11528D01*
X8575Y11528D01*
X8566Y11525D01*
X8558Y11522D01*
X8551Y11517D01*
X8545Y11510D01*
X8540Y11503D01*
X8536Y11495D01*
X8529Y11472D01*
X8524Y11448D01*
X8521Y11424D01*
X8520Y11400D01*
X8521Y11375D01*
X8524Y11351D01*
X8529Y11327D01*
X8536Y11304D01*
X8540Y11296D01*
X8545Y11289D01*
X8551Y11283D01*
X8558Y11278D01*
X8566Y11274D01*
X8575Y11272D01*
X8576Y11272D01*
Y10682D01*
X8534Y10652D01*
X8477Y10595D01*
X8431Y10530D01*
X8397Y10457D01*
X8377Y10379D01*
X8370Y10300D01*
X8377Y10220D01*
X8397Y10142D01*
X8431Y10070D01*
X8477Y10004D01*
X8534Y9947D01*
X8576Y9917D01*
Y4200D01*
G37*
G36*
X8830D02*X8576D01*
Y9917D01*
X8600Y9901D01*
X8672Y9867D01*
X8750Y9847D01*
X8830Y9840D01*
Y4200D01*
G37*
G36*
X8576Y24700D02*X8830D01*
Y11678D01*
X8824Y11679D01*
X8800Y11680D01*
X8775Y11679D01*
X8751Y11675D01*
X8727Y11670D01*
X8704Y11663D01*
X8696Y11659D01*
X8689Y11654D01*
X8683Y11648D01*
X8678Y11641D01*
X8674Y11633D01*
X8672Y11624D01*
X8671Y11616D01*
X8672Y11607D01*
X8674Y11599D01*
X8678Y11591D01*
X8683Y11584D01*
X8689Y11577D01*
X8696Y11572D01*
X8704Y11569D01*
X8712Y11566D01*
X8721Y11566D01*
X8730Y11566D01*
X8738Y11569D01*
X8753Y11573D01*
X8768Y11577D01*
X8784Y11579D01*
X8800Y11580D01*
X8815Y11579D01*
X8830Y11577D01*
Y11222D01*
X8815Y11220D01*
X8800Y11220D01*
X8784Y11220D01*
X8768Y11222D01*
X8753Y11226D01*
X8738Y11230D01*
X8730Y11233D01*
X8721Y11233D01*
X8712Y11233D01*
X8704Y11230D01*
X8696Y11227D01*
X8689Y11222D01*
X8683Y11216D01*
X8678Y11208D01*
X8674Y11201D01*
X8672Y11192D01*
X8671Y11183D01*
X8672Y11175D01*
X8674Y11166D01*
X8678Y11158D01*
X8683Y11151D01*
X8689Y11145D01*
X8696Y11140D01*
X8704Y11136D01*
X8727Y11129D01*
X8751Y11124D01*
X8775Y11121D01*
X8800Y11120D01*
X8824Y11121D01*
X8830Y11121D01*
Y10760D01*
X8750Y10753D01*
X8672Y10732D01*
X8600Y10698D01*
X8576Y10682D01*
Y11272D01*
X8583Y11271D01*
X8592Y11272D01*
X8600Y11274D01*
X8608Y11278D01*
X8615Y11283D01*
X8622Y11289D01*
X8627Y11296D01*
X8630Y11304D01*
X8633Y11312D01*
X8633Y11321D01*
X8633Y11330D01*
X8630Y11338D01*
X8626Y11353D01*
X8622Y11368D01*
X8620Y11384D01*
X8620Y11400D01*
X8620Y11415D01*
X8622Y11431D01*
X8626Y11446D01*
X8630Y11461D01*
X8633Y11470D01*
X8633Y11478D01*
X8633Y11487D01*
X8630Y11495D01*
X8627Y11503D01*
X8622Y11510D01*
X8615Y11517D01*
X8608Y11522D01*
X8600Y11525D01*
X8592Y11528D01*
X8583Y11528D01*
X8576Y11528D01*
Y24700D01*
G37*
G36*
X9023Y4200D02*X8830D01*
Y9840D01*
X8909Y9847D01*
X8987Y9867D01*
X9023Y9884D01*
Y4200D01*
G37*
G36*
Y10715D02*X8987Y10732D01*
X8909Y10753D01*
X8830Y10760D01*
Y11121D01*
X8848Y11124D01*
X8872Y11129D01*
X8895Y11136D01*
X8903Y11140D01*
X8910Y11145D01*
X8916Y11151D01*
X8921Y11158D01*
X8925Y11166D01*
X8927Y11175D01*
X8928Y11183D01*
X8927Y11192D01*
X8925Y11201D01*
X8921Y11208D01*
X8916Y11216D01*
X8910Y11222D01*
X8903Y11227D01*
X8895Y11230D01*
X8887Y11233D01*
X8878Y11233D01*
X8869Y11233D01*
X8861Y11230D01*
X8846Y11226D01*
X8831Y11222D01*
X8830Y11222D01*
Y11577D01*
X8831Y11577D01*
X8846Y11573D01*
X8861Y11569D01*
X8869Y11566D01*
X8878Y11566D01*
X8887Y11566D01*
X8895Y11569D01*
X8903Y11572D01*
X8910Y11577D01*
X8916Y11584D01*
X8921Y11591D01*
X8925Y11599D01*
X8927Y11607D01*
X8928Y11616D01*
X8927Y11624D01*
X8925Y11633D01*
X8921Y11641D01*
X8916Y11648D01*
X8910Y11654D01*
X8903Y11659D01*
X8895Y11663D01*
X8872Y11670D01*
X8848Y11675D01*
X8830Y11678D01*
Y24700D01*
X9023D01*
Y11528D01*
X9016Y11528D01*
X9007Y11528D01*
X8999Y11525D01*
X8991Y11522D01*
X8984Y11517D01*
X8977Y11510D01*
X8972Y11503D01*
X8969Y11495D01*
X8966Y11487D01*
X8966Y11478D01*
X8966Y11470D01*
X8969Y11461D01*
X8973Y11446D01*
X8977Y11431D01*
X8979Y11415D01*
X8980Y11400D01*
X8979Y11384D01*
X8977Y11368D01*
X8973Y11353D01*
X8969Y11338D01*
X8966Y11330D01*
X8966Y11321D01*
X8966Y11312D01*
X8969Y11304D01*
X8972Y11296D01*
X8977Y11289D01*
X8984Y11283D01*
X8991Y11278D01*
X8999Y11274D01*
X9007Y11272D01*
X9016Y11271D01*
X9023Y11272D01*
Y10715D01*
G37*
G36*
X9775Y4200D02*X9023D01*
Y9884D01*
X9060Y9901D01*
X9125Y9947D01*
X9182Y10004D01*
X9228Y10070D01*
X9262Y10142D01*
X9283Y10220D01*
X9290Y10300D01*
X9283Y10379D01*
X9262Y10457D01*
X9228Y10530D01*
X9182Y10595D01*
X9125Y10652D01*
X9060Y10698D01*
X9023Y10715D01*
Y11272D01*
X9024Y11272D01*
X9033Y11274D01*
X9041Y11278D01*
X9048Y11283D01*
X9054Y11289D01*
X9059Y11296D01*
X9063Y11304D01*
X9070Y11327D01*
X9075Y11351D01*
X9078Y11375D01*
X9080Y11400D01*
X9078Y11424D01*
X9075Y11448D01*
X9070Y11472D01*
X9063Y11495D01*
X9059Y11503D01*
X9054Y11510D01*
X9048Y11517D01*
X9041Y11522D01*
X9033Y11525D01*
X9024Y11528D01*
X9023Y11528D01*
Y24700D01*
X9775D01*
Y13325D01*
X9762Y13323D01*
X9749Y13320D01*
X9737Y13315D01*
X9726Y13307D01*
X9717Y13298D01*
X9710Y13287D01*
X9704Y13275D01*
X9701Y13263D01*
X9700Y13250D01*
Y12950D01*
X9701Y12937D01*
X9704Y12924D01*
X9710Y12912D01*
X9717Y12901D01*
X9726Y12892D01*
X9737Y12885D01*
X9749Y12879D01*
X9762Y12876D01*
X9775Y12875D01*
Y4200D01*
G37*
G36*
X10150D02*X9775D01*
Y12875D01*
X9788Y12876D01*
X9800Y12879D01*
X9812Y12885D01*
X9823Y12892D01*
X9832Y12901D01*
X9840Y12912D01*
X9845Y12924D01*
X9848Y12937D01*
X9850Y12950D01*
Y13250D01*
X9848Y13263D01*
X9845Y13275D01*
X9840Y13287D01*
X9832Y13298D01*
X9823Y13307D01*
X9812Y13315D01*
X9800Y13320D01*
X9788Y13323D01*
X9775Y13325D01*
Y24700D01*
X10150D01*
Y13550D01*
X10000D01*
X9987Y13548D01*
X9974Y13545D01*
X9962Y13540D01*
X9951Y13532D01*
X9942Y13523D01*
X9935Y13512D01*
X9929Y13500D01*
X9926Y13488D01*
X9925Y13475D01*
X9926Y13462D01*
X9929Y13449D01*
X9935Y13437D01*
X9942Y13426D01*
X9951Y13417D01*
X9962Y13410D01*
X9974Y13404D01*
X9987Y13401D01*
X10000Y13400D01*
X10150D01*
Y12800D01*
X10000D01*
X9987Y12798D01*
X9974Y12795D01*
X9962Y12790D01*
X9951Y12782D01*
X9942Y12773D01*
X9935Y12762D01*
X9929Y12750D01*
X9926Y12738D01*
X9925Y12725D01*
X9926Y12712D01*
X9929Y12699D01*
X9935Y12687D01*
X9942Y12676D01*
X9951Y12667D01*
X9962Y12660D01*
X9974Y12654D01*
X9987Y12651D01*
X10000Y12650D01*
X10150D01*
Y4200D01*
G37*
G36*
X10525D02*X10150D01*
Y12650D01*
X10300D01*
X10313Y12651D01*
X10325Y12654D01*
X10337Y12660D01*
X10348Y12667D01*
X10357Y12676D01*
X10365Y12687D01*
X10370Y12699D01*
X10373Y12712D01*
X10375Y12725D01*
X10373Y12738D01*
X10370Y12750D01*
X10365Y12762D01*
X10357Y12773D01*
X10348Y12782D01*
X10337Y12790D01*
X10325Y12795D01*
X10313Y12798D01*
X10300Y12800D01*
X10150D01*
Y13400D01*
X10300D01*
X10313Y13401D01*
X10325Y13404D01*
X10337Y13410D01*
X10348Y13417D01*
X10357Y13426D01*
X10365Y13437D01*
X10370Y13449D01*
X10373Y13462D01*
X10375Y13475D01*
X10373Y13488D01*
X10370Y13500D01*
X10365Y13512D01*
X10357Y13523D01*
X10348Y13532D01*
X10337Y13540D01*
X10325Y13545D01*
X10313Y13548D01*
X10300Y13550D01*
X10150D01*
Y24700D01*
X10525D01*
Y13325D01*
X10512Y13323D01*
X10499Y13320D01*
X10487Y13315D01*
X10476Y13307D01*
X10467Y13298D01*
X10460Y13287D01*
X10454Y13275D01*
X10451Y13263D01*
X10450Y13250D01*
Y12950D01*
X10451Y12937D01*
X10454Y12924D01*
X10460Y12912D01*
X10467Y12901D01*
X10476Y12892D01*
X10487Y12885D01*
X10499Y12879D01*
X10512Y12876D01*
X10525Y12875D01*
Y4200D01*
G37*
G36*
X11150D02*X10525D01*
Y12875D01*
X10538Y12876D01*
X10550Y12879D01*
X10562Y12885D01*
X10573Y12892D01*
X10582Y12901D01*
X10590Y12912D01*
X10595Y12924D01*
X10598Y12937D01*
X10600Y12950D01*
Y13250D01*
X10598Y13263D01*
X10595Y13275D01*
X10590Y13287D01*
X10582Y13298D01*
X10573Y13307D01*
X10562Y13315D01*
X10550Y13320D01*
X10538Y13323D01*
X10525Y13325D01*
Y24700D01*
X11150D01*
Y13550D01*
X11071Y13543D01*
X10996Y13522D01*
X10925Y13489D01*
X10860Y13444D01*
X10805Y13389D01*
X10760Y13325D01*
X10727Y13253D01*
X10706Y13178D01*
X10700Y13100D01*
X10706Y13021D01*
X10727Y12946D01*
X10760Y12875D01*
X10805Y12810D01*
X10860Y12755D01*
X10925Y12710D01*
X10996Y12677D01*
X11071Y12656D01*
X11150Y12650D01*
Y12023D01*
X11142Y12040D01*
X11114Y12080D01*
X11080Y12114D01*
X11040Y12142D01*
X10995Y12163D01*
X10948Y12175D01*
X10900Y12180D01*
X10851Y12175D01*
X10804Y12163D01*
X10760Y12142D01*
X10720Y12114D01*
X10685Y12080D01*
X10657Y12040D01*
X10636Y11995D01*
X10624Y11948D01*
X10620Y11900D01*
X10624Y11851D01*
X10636Y11804D01*
X10657Y11760D01*
X10685Y11720D01*
X10720Y11685D01*
X10760Y11657D01*
X10804Y11636D01*
X10851Y11624D01*
X10900Y11620D01*
X10948Y11624D01*
X10995Y11636D01*
X11040Y11657D01*
X11080Y11685D01*
X11114Y11720D01*
X11142Y11760D01*
X11150Y11776D01*
Y4200D01*
G37*
G36*
X12400D02*X11150D01*
Y11776D01*
X11163Y11804D01*
X11175Y11851D01*
X11180Y11900D01*
X11175Y11948D01*
X11163Y11995D01*
X11150Y12023D01*
Y12650D01*
X11228Y12656D01*
X11303Y12677D01*
X11375Y12710D01*
X11439Y12755D01*
X11494Y12810D01*
X11539Y12875D01*
X11572Y12946D01*
X11593Y13021D01*
X11600Y13100D01*
X11593Y13178D01*
X11572Y13253D01*
X11539Y13325D01*
X11494Y13389D01*
X11439Y13444D01*
X11375Y13489D01*
X11303Y13522D01*
X11228Y13543D01*
X11150Y13550D01*
Y24700D01*
X12400D01*
Y13472D01*
X12375Y13489D01*
X12303Y13522D01*
X12228Y13543D01*
X12150Y13550D01*
X12071Y13543D01*
X11996Y13522D01*
X11925Y13489D01*
X11860Y13444D01*
X11805Y13389D01*
X11760Y13325D01*
X11727Y13253D01*
X11706Y13178D01*
X11700Y13100D01*
X11706Y13021D01*
X11727Y12946D01*
X11760Y12875D01*
X11805Y12810D01*
X11860Y12755D01*
X11925Y12710D01*
X11996Y12677D01*
X12071Y12656D01*
X12150Y12650D01*
X12228Y12656D01*
X12303Y12677D01*
X12375Y12710D01*
X12400Y12727D01*
Y12273D01*
X12386Y12245D01*
X12374Y12198D01*
X12370Y12150D01*
X12374Y12101D01*
X12374Y12099D01*
X12345Y12113D01*
X12298Y12125D01*
X12250Y12130D01*
X12201Y12125D01*
X12154Y12113D01*
X12110Y12092D01*
X12070Y12064D01*
X12035Y12030D01*
X12007Y11990D01*
X11986Y11945D01*
X11974Y11898D01*
X11970Y11850D01*
X11974Y11801D01*
X11986Y11754D01*
X12007Y11710D01*
X12035Y11670D01*
X12070Y11635D01*
X12110Y11607D01*
X12154Y11586D01*
X12201Y11574D01*
X12250Y11570D01*
X12298Y11574D01*
X12345Y11586D01*
X12390Y11607D01*
X12400Y11614D01*
Y7330D01*
X12351Y7325D01*
X12304Y7313D01*
X12260Y7292D01*
X12220Y7264D01*
X12185Y7230D01*
X12157Y7190D01*
X12136Y7145D01*
X12124Y7098D01*
X12120Y7050D01*
X12124Y7001D01*
X12136Y6954D01*
X12157Y6910D01*
X12185Y6870D01*
X12220Y6835D01*
X12260Y6807D01*
X12304Y6786D01*
X12351Y6774D01*
X12400Y6770D01*
Y4200D01*
G37*
G36*
X12788D02*X12400D01*
Y6770D01*
X12448Y6774D01*
X12495Y6786D01*
X12540Y6807D01*
X12580Y6835D01*
X12614Y6870D01*
X12642Y6910D01*
X12663Y6954D01*
X12675Y7001D01*
X12680Y7050D01*
X12675Y7098D01*
X12663Y7145D01*
X12642Y7190D01*
X12614Y7230D01*
X12580Y7264D01*
X12540Y7292D01*
X12495Y7313D01*
X12448Y7325D01*
X12400Y7330D01*
Y11614D01*
X12430Y11635D01*
X12464Y11670D01*
X12492Y11710D01*
X12513Y11754D01*
X12525Y11801D01*
X12530Y11850D01*
X12525Y11898D01*
X12525Y11900D01*
X12554Y11886D01*
X12601Y11874D01*
X12650Y11870D01*
X12698Y11874D01*
X12722Y11880D01*
X12720Y11850D01*
X12724Y11801D01*
X12736Y11754D01*
X12757Y11710D01*
X12785Y11670D01*
X12788Y11666D01*
Y4200D01*
G37*
G36*
Y12393D02*X12745Y12413D01*
X12698Y12425D01*
X12650Y12430D01*
X12601Y12425D01*
X12554Y12413D01*
X12510Y12392D01*
X12470Y12364D01*
X12435Y12330D01*
X12407Y12290D01*
X12400Y12273D01*
Y12727D01*
X12439Y12755D01*
X12494Y12810D01*
X12539Y12875D01*
X12572Y12946D01*
X12593Y13021D01*
X12600Y13100D01*
X12593Y13178D01*
X12572Y13253D01*
X12539Y13325D01*
X12494Y13389D01*
X12439Y13444D01*
X12400Y13472D01*
Y24700D01*
X12788D01*
Y13314D01*
X12779Y13311D01*
X12767Y13306D01*
X12756Y13299D01*
X12746Y13290D01*
X12738Y13280D01*
X12732Y13268D01*
X12718Y13227D01*
X12708Y13185D01*
X12702Y13143D01*
X12700Y13100D01*
X12702Y13056D01*
X12708Y13014D01*
X12718Y12972D01*
X12732Y12931D01*
X12738Y12919D01*
X12746Y12909D01*
X12756Y12900D01*
X12767Y12893D01*
X12779Y12888D01*
X12788Y12886D01*
Y12393D01*
G37*
G36*
X13150Y4200D02*X12788D01*
Y11666D01*
X12820Y11635D01*
X12860Y11607D01*
X12904Y11586D01*
X12951Y11574D01*
X13000Y11570D01*
X13048Y11574D01*
X13095Y11586D01*
X13140Y11607D01*
X13150Y11614D01*
Y4200D01*
G37*
G36*
Y12085D02*X13140Y12092D01*
X13095Y12113D01*
X13048Y12125D01*
X13000Y12130D01*
X12951Y12125D01*
X12927Y12119D01*
X12930Y12150D01*
X12925Y12198D01*
X12913Y12245D01*
X12892Y12290D01*
X12864Y12330D01*
X12830Y12364D01*
X12790Y12392D01*
X12788Y12393D01*
Y12886D01*
X12791Y12885D01*
X12804Y12884D01*
X12817Y12886D01*
X12830Y12890D01*
X12842Y12896D01*
X12852Y12903D01*
X12861Y12913D01*
X12868Y12924D01*
X12873Y12936D01*
X12876Y12949D01*
X12877Y12962D01*
X12875Y12975D01*
X12871Y12987D01*
X12862Y13014D01*
X12855Y13042D01*
X12851Y13071D01*
X12850Y13100D01*
X12851Y13128D01*
X12855Y13157D01*
X12862Y13185D01*
X12871Y13212D01*
X12875Y13224D01*
X12877Y13237D01*
X12876Y13251D01*
X12873Y13263D01*
X12868Y13275D01*
X12861Y13286D01*
X12852Y13296D01*
X12842Y13304D01*
X12830Y13310D01*
X12817Y13313D01*
X12804Y13315D01*
X12791Y13314D01*
X12788Y13314D01*
Y24700D01*
X13150D01*
Y13550D01*
X13106Y13548D01*
X13064Y13541D01*
X13022Y13531D01*
X12981Y13517D01*
X12969Y13511D01*
X12959Y13503D01*
X12950Y13493D01*
X12943Y13482D01*
X12938Y13470D01*
X12935Y13458D01*
X12934Y13445D01*
X12936Y13432D01*
X12940Y13419D01*
X12945Y13408D01*
X12953Y13397D01*
X12963Y13388D01*
X12974Y13381D01*
X12986Y13376D01*
X12999Y13373D01*
X13012Y13372D01*
X13025Y13374D01*
X13037Y13378D01*
X13064Y13387D01*
X13092Y13394D01*
X13121Y13398D01*
X13150Y13400D01*
Y12800D01*
X13121Y12801D01*
X13092Y12805D01*
X13064Y12812D01*
X13037Y12821D01*
X13025Y12825D01*
X13012Y12827D01*
X12999Y12826D01*
X12986Y12823D01*
X12974Y12818D01*
X12963Y12811D01*
X12953Y12802D01*
X12945Y12792D01*
X12939Y12780D01*
X12936Y12768D01*
X12934Y12755D01*
X12935Y12741D01*
X12938Y12729D01*
X12943Y12717D01*
X12950Y12706D01*
X12959Y12696D01*
X12969Y12688D01*
X12981Y12682D01*
X13022Y12668D01*
X13064Y12658D01*
X13106Y12652D01*
X13150Y12650D01*
Y12085D01*
G37*
G36*
X13511Y4200D02*X13150D01*
Y11614D01*
X13180Y11635D01*
X13214Y11670D01*
X13242Y11710D01*
X13259Y11746D01*
X13270Y11735D01*
X13310Y11707D01*
X13354Y11686D01*
X13401Y11674D01*
X13450Y11670D01*
X13498Y11674D01*
X13511Y11677D01*
Y4200D01*
G37*
G36*
Y12222D02*X13498Y12225D01*
X13450Y12230D01*
X13401Y12225D01*
X13354Y12213D01*
X13310Y12192D01*
X13270Y12164D01*
X13235Y12130D01*
X13207Y12090D01*
X13190Y12053D01*
X13180Y12064D01*
X13150Y12085D01*
Y12650D01*
X13193Y12652D01*
X13235Y12658D01*
X13277Y12668D01*
X13318Y12682D01*
X13330Y12688D01*
X13340Y12696D01*
X13349Y12706D01*
X13356Y12717D01*
X13361Y12729D01*
X13364Y12742D01*
X13365Y12755D01*
X13363Y12768D01*
X13359Y12780D01*
X13354Y12792D01*
X13346Y12802D01*
X13336Y12811D01*
X13325Y12818D01*
X13313Y12823D01*
X13300Y12826D01*
X13287Y12827D01*
X13274Y12825D01*
X13262Y12821D01*
X13235Y12812D01*
X13207Y12805D01*
X13178Y12801D01*
X13150Y12800D01*
Y13400D01*
X13178Y13398D01*
X13207Y13394D01*
X13235Y13387D01*
X13262Y13378D01*
X13274Y13374D01*
X13287Y13372D01*
X13300Y13373D01*
X13313Y13376D01*
X13325Y13381D01*
X13336Y13388D01*
X13346Y13397D01*
X13354Y13407D01*
X13360Y13419D01*
X13363Y13432D01*
X13365Y13445D01*
X13364Y13458D01*
X13361Y13470D01*
X13356Y13483D01*
X13349Y13493D01*
X13340Y13503D01*
X13330Y13511D01*
X13318Y13517D01*
X13277Y13531D01*
X13235Y13541D01*
X13193Y13548D01*
X13150Y13550D01*
Y24700D01*
X13511D01*
Y13313D01*
X13508Y13314D01*
X13495Y13315D01*
X13482Y13313D01*
X13469Y13310D01*
X13457Y13304D01*
X13447Y13296D01*
X13438Y13286D01*
X13431Y13275D01*
X13426Y13263D01*
X13423Y13250D01*
X13422Y13237D01*
X13424Y13224D01*
X13428Y13212D01*
X13437Y13185D01*
X13444Y13157D01*
X13448Y13128D01*
X13450Y13100D01*
X13448Y13071D01*
X13444Y13042D01*
X13437Y13014D01*
X13428Y12987D01*
X13424Y12975D01*
X13422Y12962D01*
X13423Y12949D01*
X13426Y12936D01*
X13431Y12924D01*
X13438Y12913D01*
X13447Y12903D01*
X13457Y12895D01*
X13469Y12890D01*
X13482Y12886D01*
X13495Y12884D01*
X13508Y12885D01*
X13511Y12886D01*
Y12222D01*
G37*
G36*
X15975Y4200D02*X13511D01*
Y11677D01*
X13545Y11686D01*
X13590Y11707D01*
X13630Y11735D01*
X13664Y11770D01*
X13692Y11810D01*
X13713Y11854D01*
X13725Y11901D01*
X13730Y11950D01*
X13725Y11998D01*
X13713Y12045D01*
X13692Y12090D01*
X13664Y12130D01*
X13630Y12164D01*
X13590Y12192D01*
X13545Y12213D01*
X13511Y12222D01*
Y12886D01*
X13520Y12888D01*
X13532Y12893D01*
X13543Y12900D01*
X13553Y12909D01*
X13561Y12919D01*
X13567Y12931D01*
X13581Y12972D01*
X13591Y13014D01*
X13597Y13056D01*
X13600Y13100D01*
X13597Y13143D01*
X13591Y13185D01*
X13581Y13227D01*
X13567Y13268D01*
X13561Y13280D01*
X13553Y13290D01*
X13543Y13299D01*
X13532Y13306D01*
X13520Y13311D01*
X13511Y13313D01*
Y24700D01*
X15975D01*
Y13425D01*
X15962Y13423D01*
X15949Y13420D01*
X15937Y13415D01*
X15926Y13407D01*
X15917Y13398D01*
X15910Y13387D01*
X15904Y13375D01*
X15901Y13363D01*
X15900Y13350D01*
Y13050D01*
X15901Y13037D01*
X15904Y13024D01*
X15910Y13012D01*
X15917Y13001D01*
X15926Y12992D01*
X15937Y12985D01*
X15949Y12979D01*
X15962Y12976D01*
X15975Y12975D01*
Y4200D01*
G37*
G36*
X16350D02*X15975D01*
Y12975D01*
X15988Y12976D01*
X16000Y12979D01*
X16012Y12985D01*
X16023Y12992D01*
X16032Y13001D01*
X16040Y13012D01*
X16045Y13024D01*
X16048Y13037D01*
X16050Y13050D01*
Y13350D01*
X16048Y13363D01*
X16045Y13375D01*
X16040Y13387D01*
X16032Y13398D01*
X16023Y13407D01*
X16012Y13415D01*
X16000Y13420D01*
X15988Y13423D01*
X15975Y13425D01*
Y24700D01*
X16350D01*
Y13650D01*
X16200D01*
X16187Y13648D01*
X16174Y13645D01*
X16162Y13640D01*
X16151Y13632D01*
X16142Y13623D01*
X16135Y13612D01*
X16129Y13600D01*
X16126Y13588D01*
X16125Y13575D01*
X16126Y13562D01*
X16129Y13549D01*
X16135Y13537D01*
X16142Y13526D01*
X16151Y13517D01*
X16162Y13510D01*
X16174Y13504D01*
X16187Y13501D01*
X16200Y13500D01*
X16350D01*
Y12900D01*
X16200D01*
X16187Y12898D01*
X16174Y12895D01*
X16162Y12890D01*
X16151Y12882D01*
X16142Y12873D01*
X16135Y12862D01*
X16129Y12850D01*
X16126Y12838D01*
X16125Y12825D01*
X16126Y12812D01*
X16129Y12799D01*
X16135Y12787D01*
X16142Y12776D01*
X16151Y12767D01*
X16162Y12760D01*
X16174Y12754D01*
X16187Y12751D01*
X16200Y12750D01*
X16350D01*
Y4200D01*
G37*
G36*
X16800D02*X16350D01*
Y12750D01*
X16500D01*
X16513Y12751D01*
X16525Y12754D01*
X16537Y12760D01*
X16548Y12767D01*
X16557Y12776D01*
X16565Y12787D01*
X16570Y12799D01*
X16573Y12812D01*
X16575Y12825D01*
X16573Y12838D01*
X16570Y12850D01*
X16565Y12862D01*
X16557Y12873D01*
X16548Y12882D01*
X16537Y12890D01*
X16525Y12895D01*
X16513Y12898D01*
X16500Y12900D01*
X16350D01*
Y13500D01*
X16500D01*
X16513Y13501D01*
X16525Y13504D01*
X16537Y13510D01*
X16548Y13517D01*
X16557Y13526D01*
X16565Y13537D01*
X16570Y13549D01*
X16573Y13562D01*
X16575Y13575D01*
X16573Y13588D01*
X16570Y13600D01*
X16565Y13612D01*
X16557Y13623D01*
X16548Y13632D01*
X16537Y13640D01*
X16525Y13645D01*
X16513Y13648D01*
X16500Y13650D01*
X16350D01*
Y24700D01*
X16800D01*
Y13350D01*
X16798Y13363D01*
X16795Y13375D01*
X16790Y13387D01*
X16782Y13398D01*
X16773Y13407D01*
X16762Y13415D01*
X16750Y13420D01*
X16738Y13423D01*
X16725Y13425D01*
X16712Y13423D01*
X16699Y13420D01*
X16687Y13415D01*
X16676Y13407D01*
X16667Y13398D01*
X16660Y13387D01*
X16654Y13375D01*
X16651Y13363D01*
X16650Y13350D01*
Y13050D01*
X16651Y13037D01*
X16654Y13024D01*
X16660Y13012D01*
X16667Y13001D01*
X16676Y12992D01*
X16687Y12985D01*
X16699Y12979D01*
X16712Y12976D01*
X16725Y12975D01*
X16738Y12976D01*
X16750Y12979D01*
X16762Y12985D01*
X16773Y12992D01*
X16782Y13001D01*
X16790Y13012D01*
X16795Y13024D01*
X16798Y13037D01*
X16800Y13050D01*
Y6643D01*
X16796Y6640D01*
X16788Y6630D01*
X16782Y6618D01*
X16768Y6577D01*
X16758Y6535D01*
X16752Y6493D01*
X16750Y6450D01*
X16752Y6406D01*
X16758Y6364D01*
X16768Y6322D01*
X16782Y6281D01*
X16788Y6269D01*
X16796Y6259D01*
X16800Y6256D01*
Y4200D01*
G37*
G36*
X15000Y300D02*Y3900D01*
X20300D01*
Y300D01*
X15000D01*
G37*
G36*
X500D02*Y4700D01*
X14500D01*
Y300D01*
X500D01*
G37*
G54D13*X21000Y7750D03*
G54D14*X22000D03*
X23000D03*
X24000D03*
G54D13*X20200Y6450D03*
G54D14*X19200D03*
X18200D03*
X17200D03*
G54D13*X7400Y9900D03*
G54D14*Y10900D03*
Y11900D03*
Y12900D03*
G54D13*X10150Y13100D03*
G54D14*X11150D03*
G54D13*X16350Y13200D03*
G54D14*X17350D03*
X18350D03*
X12150Y13100D03*
X13150D03*
X18900Y16400D03*
X19900Y15400D03*
Y16400D03*
X20900D03*
X21900D03*
X22900D03*
X20900Y15400D03*
X21900D03*
X22900D03*
G54D13*X18900D03*
G54D14*X19350Y13200D03*
G54D15*X10900Y11900D03*
X8800Y11400D03*
X13450Y11950D03*
X13000Y11850D03*
X12650Y12150D03*
X12250Y11850D03*
X12400Y7050D03*
X18050Y8600D03*
X19750Y8500D03*
X22350Y9200D03*
Y11450D03*
X20700Y12150D03*
X21100Y12600D03*
G54D17*G54D18*G54D17*G54D18*G54D17*G54D19*G54D17*G54D20*G54D21*G54D20*G54D21*G54D20*G54D21*M02*
