G04 start of page 6 for group -4062 idx -4062
G04 Title: TX Daughterboard, soldermask *
G04 Creator: pcb 20070208 *
G04 CreationDate: Sat Jan 19 00:46:11 2008 UTC *
G04 For: matt *
G04 Format: Gerber/RS-274X *
G04 PCB-Dimensions: 275000 250000 *
G04 PCB-Coordinate-Origin: lower left *
%MOIN*%
%FSLAX24Y24*%
%LNBACKMASK*%
%ADD13R,0.0600X0.0600*%
%ADD14C,0.0600*%
%ADD25R,0.0660X0.0660*%
%ADD26C,0.0660*%
%ADD27C,0.0720*%
%ADD29C,0.0340*%
G54D25*X21000Y7750D03*
G54D26*X22000D03*
X23000D03*
X24000D03*
G54D27*X22373Y10300D03*
G54D25*X20200Y6450D03*
G54D26*X19200D03*
X18200D03*
X17200D03*
G54D27*X8830Y10300D03*
G54D25*X7400Y9900D03*
G54D26*Y10900D03*
Y11900D03*
Y12900D03*
G54D25*X10150Y13100D03*
G54D26*X11150D03*
G54D25*X16350Y13200D03*
G54D26*X17350D03*
X18350D03*
X12150Y13100D03*
X13150D03*
G54D14*X18900Y16400D03*
X19900Y15400D03*
Y16400D03*
X20900D03*
X21900D03*
X22900D03*
X20900Y15400D03*
X21900D03*
X22900D03*
G54D13*X18900D03*
G54D26*X19350Y13200D03*
G54D29*X9499Y10028D02*Y9118D01*
X10286Y10028D02*Y9118D01*
X9893Y10028D02*Y9118D01*
X10680Y10028D02*Y9118D01*
X9499Y11481D02*Y10571D01*
X11074Y10028D02*Y9118D01*
X10286Y11481D02*Y10571D01*
X10680Y11481D02*Y10571D01*
X11074Y11481D02*Y10571D01*
X9893Y11481D02*Y10571D01*
X11467Y10028D02*Y9118D01*
X11861Y10028D02*Y9118D01*
X12255Y10028D02*Y9118D01*
X12648Y10028D02*Y9118D01*
X13042Y10028D02*Y9118D01*
X13436Y10028D02*Y9118D01*
X11467Y11481D02*Y10571D01*
X11861Y11481D02*Y10571D01*
X12255Y11481D02*Y10571D01*
X12648Y11481D02*Y10571D01*
X13042Y11481D02*Y10571D01*
X13436Y11481D02*Y10571D01*
X13830Y11481D02*Y10571D01*
Y10028D02*Y9118D01*
X14223Y10028D02*Y9118D01*
X14617Y10028D02*Y9118D01*
X15011Y10028D02*Y9118D01*
X15404Y10028D02*Y9118D01*
X21704Y11481D02*Y10571D01*
Y10028D02*Y9118D01*
X14223Y11481D02*Y10571D01*
X14617Y11481D02*Y10571D01*
X15011Y11481D02*Y10571D01*
X15404Y11481D02*Y10571D01*
X15798Y11481D02*Y10571D01*
X16192Y11481D02*Y10571D01*
X16585Y11481D02*Y10571D01*
X16979Y11481D02*Y10571D01*
X17373Y11481D02*Y10571D01*
X17767Y11481D02*Y10571D01*
X18160Y11481D02*Y10571D01*
X18554Y11481D02*Y10571D01*
X18948Y11481D02*Y10571D01*
X19341Y11481D02*Y10571D01*
X19735Y11481D02*Y10571D01*
X20129Y11481D02*Y10571D01*
X20522Y11481D02*Y10571D01*
X20916Y11481D02*Y10571D01*
X21310Y11481D02*Y10571D01*
X15798Y10028D02*Y9118D01*
X16192Y10028D02*Y9118D01*
X16585Y10028D02*Y9118D01*
X16979Y10028D02*Y9118D01*
X17373Y10028D02*Y9118D01*
X17767Y10028D02*Y9118D01*
X18160Y10028D02*Y9118D01*
X18554Y10028D02*Y9118D01*
X18948Y10028D02*Y9118D01*
X19341Y10028D02*Y9118D01*
X19735Y10028D02*Y9118D01*
X20129Y10028D02*Y9118D01*
X20522Y10028D02*Y9118D01*
X20916Y10028D02*Y9118D01*
X21310Y10028D02*Y9118D01*
M02*
