G04 CAM350 PRO V6.0 Date:  Tue Oct 11 09:42:12 2005 *
G04 Database: (Untitled) *
G04 Layer 6: b-mask.pho *
%FSLAX23Y23*%
%MOIN*%
%SFA1.000B1.000*%

%MIA0B0*%
%IPPOS*%
%ADD10C,0.01000*%
%ADD71R,0.07000X0.07000*%
%ADD72C,0.07000*%
%ADD57C,0.13500*%
%ADD58R,0.04000X0.04000*%
%ADD63C,0.10300*%
%ADD64C,0.10800*%
%ADD67C,0.06500*%
%ADD75R,0.03400X0.03400*%
%LNb-mask.pho*%
%SRX1Y1I0J0*%
%LPD*%
G54D57*
X19175Y17149D03*
X18775Y18949D03*
X21226Y18948D03*
X21225Y16749D03*
Y15849D03*
Y13649D03*
X18775D03*
X19175Y15449D03*
G54D63*
X21029Y17218D03*
X20692Y16184D03*
G54D64*
X21129Y17318D03*
X20929D03*
Y17118D03*
X21129D03*
X20592Y16084D03*
X20792D03*
Y16284D03*
X20592D03*
G54D67*
X19508Y14969D03*
X20862D03*
X19508Y17629D03*
X20862D03*
G54D71*
X20650Y13751D03*
X20515D03*
X19781Y18671D03*
Y18536D03*
X18765Y15199D03*
Y18134D03*
X19811Y18225D03*
X20795Y13769D03*
G54D72*
X18865Y15199D03*
X18765Y15099D03*
X18865D03*
X18765Y14999D03*
X18865D03*
X18765Y14899D03*
X18865D03*
X18765Y14799D03*
X18865D03*
X18765Y14699D03*
X18865D03*
X18765Y14599D03*
X18865D03*
X18765Y14499D03*
X18865D03*
Y18134D03*
X18765Y18034D03*
X18865D03*
X18765Y17934D03*
X18865D03*
X18765Y17834D03*
X18865D03*
X18765Y17734D03*
X18865D03*
X18765Y17634D03*
X18865D03*
X18765Y17534D03*
X18865D03*
X18765Y17434D03*
X18865D03*
X19711Y18225D03*
X20895Y13769D03*
G54D10*
X18625Y13499D02*
G01Y19099D01*
Y19099D02*
G01X21375D01*
Y19099D02*
G01Y13499D01*
Y13499D02*
G01X18625D01*
X19261Y12956D02*
G01X19256Y12962D01*
Y12962D02*
G01X19249Y12966D01*
Y12966D02*
G01X19240D01*
Y12966D02*
G01X19233Y12962D01*
Y12962D02*
G01X19229Y12956D01*
Y12956D02*
G01Y12950D01*
X19231Y12944*
Y12944D02*
G01X19233Y12941D01*
Y12941D02*
G01X19238Y12937D01*
Y12937D02*
G01X19252Y12931D01*
Y12931D02*
G01X19256Y12928D01*
Y12928D02*
G01X19258Y12925D01*
Y12925D02*
G01X19261Y12919D01*
Y12909*
Y12909D02*
G01X19256Y12903D01*
Y12903D02*
G01X19249Y12900D01*
Y12900D02*
G01X19240D01*
Y12900D02*
G01X19233Y12903D01*
Y12903D02*
G01X19229Y12909D01*
X19295Y12966D02*
G01X19290Y12962D01*
Y12962D02*
G01X19286Y12956D01*
Y12956D02*
G01X19283Y12950D01*
Y12950D02*
G01X19281Y12941D01*
Y12941D02*
G01Y12925D01*
Y12925D02*
G01X19283Y12916D01*
Y12916D02*
G01X19286Y12909D01*
Y12909D02*
G01X19290Y12903D01*
Y12903D02*
G01X19295Y12900D01*
X19304*
X19308Y12903*
Y12903D02*
G01X19313Y12909D01*
Y12909D02*
G01X19315Y12916D01*
Y12916D02*
G01X19317Y12925D01*
Y12925D02*
G01Y12941D01*
Y12941D02*
G01X19315Y12950D01*
Y12950D02*
G01X19313Y12956D01*
Y12956D02*
G01X19308Y12962D01*
Y12962D02*
G01X19304Y12966D01*
X19295*
X19338D02*
G01Y12900D01*
X19365*
X19386Y12966D02*
G01Y12900D01*
Y12966D02*
G01X19402D01*
X19408Y12962*
Y12962D02*
G01X19413Y12956D01*
Y12956D02*
G01X19415Y12950D01*
Y12950D02*
G01X19417Y12941D01*
Y12941D02*
G01Y12925D01*
Y12925D02*
G01X19415Y12916D01*
Y12916D02*
G01X19413Y12909D01*
Y12909D02*
G01X19408Y12903D01*
Y12903D02*
G01X19402Y12900D01*
X19386*
X19438Y12966D02*
G01Y12900D01*
Y12966D02*
G01X19467D01*
X19438Y12934D02*
G01X19456D01*
X19438Y12900D02*
G01X19467D01*
X19488Y12966D02*
G01Y12900D01*
Y12966D02*
G01X19508D01*
Y12966D02*
G01X19515Y12962D01*
Y12962D02*
G01X19517Y12959D01*
Y12959D02*
G01X19520Y12953D01*
Y12953D02*
G01Y12947D01*
X19517Y12941*
Y12941D02*
G01X19515Y12937D01*
Y12937D02*
G01X19508Y12934D01*
Y12934D02*
G01X19488D01*
X19504D02*
G01X19520Y12900D01*
X19613Y12956D02*
G01X19608Y12962D01*
Y12962D02*
G01X19602Y12966D01*
X19592*
Y12966D02*
G01X19586Y12962D01*
Y12962D02*
G01X19581Y12956D01*
Y12956D02*
G01Y12950D01*
Y12950D02*
G01X19583Y12944D01*
Y12944D02*
G01X19586Y12941D01*
X19590Y12937*
Y12937D02*
G01X19604Y12931D01*
Y12931D02*
G01X19608Y12928D01*
Y12928D02*
G01X19611Y12925D01*
X19613Y12919*
Y12909*
Y12909D02*
G01X19608Y12903D01*
Y12903D02*
G01X19602Y12900D01*
X19592*
Y12900D02*
G01X19586Y12903D01*
Y12903D02*
G01X19581Y12909D01*
X19633Y12966D02*
G01Y12900D01*
X19654Y12966D02*
G01Y12900D01*
Y12966D02*
G01X19670D01*
X19677Y12962*
Y12962D02*
G01X19681Y12956D01*
Y12956D02*
G01X19683Y12950D01*
Y12950D02*
G01X19686Y12941D01*
Y12925*
X19683Y12916*
Y12916D02*
G01X19681Y12909D01*
Y12909D02*
G01X19677Y12903D01*
Y12903D02*
G01X19670Y12900D01*
X19654*
X19706Y12966D02*
G01Y12900D01*
Y12966D02*
G01X19736D01*
X19706Y12934D02*
G01X19724D01*
X19706Y12900D02*
G01X19736D01*
X19797Y12966D02*
G01Y12900D01*
Y12966D02*
G01X19815Y12900D01*
X19833Y12966D02*
G01X19815Y12900D01*
X19833Y12966D02*
G01Y12900D01*
X19872Y12966D02*
G01X19854Y12900D01*
X19872Y12966D02*
G01X19890Y12900D01*
X19861Y12922D02*
G01X19883D01*
X19942Y12956D02*
G01X19938Y12962D01*
Y12962D02*
G01X19931Y12966D01*
Y12966D02*
G01X19922D01*
Y12966D02*
G01X19915Y12962D01*
Y12962D02*
G01X19911Y12956D01*
Y12956D02*
G01Y12950D01*
X19913Y12944*
X19915Y12941*
Y12941D02*
G01X19920Y12937D01*
Y12937D02*
G01X19933Y12931D01*
Y12931D02*
G01X19938Y12928D01*
Y12928D02*
G01X19940Y12925D01*
Y12925D02*
G01X19942Y12919D01*
Y12919D02*
G01Y12909D01*
Y12909D02*
G01X19938Y12903D01*
Y12903D02*
G01X19931Y12900D01*
Y12900D02*
G01X19922D01*
Y12900D02*
G01X19915Y12903D01*
Y12903D02*
G01X19911Y12909D01*
X19963Y12966D02*
G01Y12900D01*
X19995Y12966D02*
G01X19963Y12922D01*
X19974Y12937D02*
G01X19995Y12900D01*
X19960Y18479D02*
G01X20040D01*
Y18479D02*
G01Y18399D01*
Y18399D02*
G01X19960D01*
Y18399D02*
G01Y18479D01*
X20496Y13974D02*
G01X20586D01*
Y13974D02*
G01Y13884D01*
Y13884D02*
G01X20496D01*
Y13884D02*
G01Y13974D01*
X19960Y18471D02*
G01X20040D01*
X19960Y18462D02*
G01X20040D01*
X19960Y18453D02*
G01X20040D01*
X19960Y18444D02*
G01X20040D01*
X19960Y18435D02*
G01X20040D01*
X19960Y18426D02*
G01X20040D01*
X19960Y18417D02*
G01X20040D01*
X19960Y18408D02*
G01X20040D01*
X20496Y13974D02*
G01X20586D01*
X20496Y13965D02*
G01X20586D01*
X20496Y13956D02*
G01X20586D01*
X20496Y13947D02*
G01X20586D01*
X20496Y13938D02*
G01X20586D01*
X20496Y13929D02*
G01X20586D01*
X20496Y13920D02*
G01X20586D01*
X20496Y13911D02*
G01X20586D01*
X20496Y13902D02*
G01X20586D01*
X20496Y13893D02*
G01X20586D01*
G54D58*
X19873Y18580D02*
G01Y18588D01*
Y18642D02*
G01Y18650D01*
X20421Y13772D02*
G01Y13764D01*
Y13710D02*
G01Y13702D01*
X20491Y14086D02*
G01X20483D01*
X20429D02*
G01X20421D01*
X20405Y14644D02*
G01Y14636D01*
Y14582D02*
G01Y14574D01*
X20635Y14519D02*
G01Y14527D01*
Y14581D02*
G01Y14589D01*
Y14729D02*
G01Y14721D01*
Y14667D02*
G01Y14659D01*
X19965Y18279D02*
G01Y18271D01*
Y18217D02*
G01Y18209D01*
X20190Y18284D02*
G01X20182D01*
X20128D02*
G01X20120D01*
X20100Y17922D02*
G01Y17914D01*
Y17860D02*
G01Y17852D01*
X20225Y17922D02*
G01Y17914D01*
Y17860D02*
G01Y17852D01*
X20115Y17389D02*
G01Y17381D01*
Y17327D02*
G01Y17319D01*
X20175Y17389D02*
G01Y17381D01*
Y17327D02*
G01Y17319D01*
X20050Y17389D02*
G01Y17381D01*
Y17327D02*
G01Y17319D01*
X20160Y17922D02*
G01Y17914D01*
Y17860D02*
G01Y17852D01*
X20095Y14644D02*
G01Y14652D01*
Y14706D02*
G01Y14714D01*
X20210Y14649D02*
G01Y14657D01*
Y14711D02*
G01Y14719D01*
X20145Y15224D02*
G01Y15232D01*
Y15286D02*
G01Y15294D01*
X20230Y15219D02*
G01Y15227D01*
Y15281D02*
G01Y15289D01*
X20090Y15224D02*
G01Y15232D01*
Y15286D02*
G01Y15294D01*
X20150Y14649D02*
G01Y14657D01*
Y14711D02*
G01Y14719D01*
X20559Y14085D02*
G01X20567D01*
X20621D02*
G01X20629D01*
G54D75*
X19575Y14929D02*
G01Y14861D01*
Y15077D02*
G01Y15009D01*
X19614Y14929D02*
G01Y14861D01*
Y15077D02*
G01Y15009D01*
X19653Y14929D02*
G01Y14861D01*
Y15077D02*
G01Y15009D01*
X19693Y14929D02*
G01Y14861D01*
Y15077D02*
G01Y15009D01*
X19732Y14929D02*
G01Y14861D01*
Y15077D02*
G01Y15009D01*
X19771Y14929D02*
G01Y14861D01*
Y15077D02*
G01Y15009D01*
X19811Y14929D02*
G01Y14861D01*
Y15077D02*
G01Y15009D01*
X19850Y14929D02*
G01Y14861D01*
Y15077D02*
G01Y15009D01*
X19889Y14929D02*
G01Y14861D01*
Y15077D02*
G01Y15009D01*
X19929Y14929D02*
G01Y14861D01*
Y15077D02*
G01Y15009D01*
X19968Y14929D02*
G01Y14861D01*
Y15077D02*
G01Y15009D01*
X20008Y14929D02*
G01Y14861D01*
Y15077D02*
G01Y15009D01*
X20047Y14929D02*
G01Y14861D01*
Y15077D02*
G01Y15009D01*
X20086Y14929D02*
G01Y14861D01*
Y15077D02*
G01Y15009D01*
X20126Y14929D02*
G01Y14861D01*
Y15077D02*
G01Y15009D01*
X20165Y14929D02*
G01Y14861D01*
Y15077D02*
G01Y15009D01*
X20204Y14929D02*
G01Y14861D01*
Y15077D02*
G01Y15009D01*
X20244Y14929D02*
G01Y14861D01*
Y15077D02*
G01Y15009D01*
X20283Y14929D02*
G01Y14861D01*
Y15077D02*
G01Y15009D01*
X20323Y14929D02*
G01Y14861D01*
Y15077D02*
G01Y15009D01*
X20362Y14929D02*
G01Y14861D01*
Y15077D02*
G01Y15009D01*
X20401Y14929D02*
G01Y14861D01*
Y15077D02*
G01Y15009D01*
X20441Y14929D02*
G01Y14861D01*
Y15077D02*
G01Y15009D01*
X20480Y14929D02*
G01Y14861D01*
Y15077D02*
G01Y15009D01*
X20519Y14929D02*
G01Y14861D01*
Y15077D02*
G01Y15009D01*
X20559Y14929D02*
G01Y14861D01*
Y15077D02*
G01Y15009D01*
X20598Y14929D02*
G01Y14861D01*
Y15077D02*
G01Y15009D01*
X20637Y14929D02*
G01Y14861D01*
Y15077D02*
G01Y15009D01*
X20677Y14929D02*
G01Y14861D01*
Y15077D02*
G01Y15009D01*
X20716Y14929D02*
G01Y14861D01*
Y15077D02*
G01Y15009D01*
X20756Y14929D02*
G01Y14861D01*
Y15077D02*
G01Y15009D01*
X20795Y14929D02*
G01Y14861D01*
Y15077D02*
G01Y15009D01*
X19575Y17589D02*
G01Y17521D01*
Y17737D02*
G01Y17669D01*
X19614Y17589D02*
G01Y17521D01*
Y17737D02*
G01Y17669D01*
X19653Y17589D02*
G01Y17521D01*
Y17737D02*
G01Y17669D01*
X19693Y17589D02*
G01Y17521D01*
Y17737D02*
G01Y17669D01*
X19732Y17589D02*
G01Y17521D01*
Y17737D02*
G01Y17669D01*
X19771Y17589D02*
G01Y17521D01*
Y17737D02*
G01Y17669D01*
X19811Y17589D02*
G01Y17521D01*
Y17737D02*
G01Y17669D01*
X19850Y17589D02*
G01Y17521D01*
Y17737D02*
G01Y17669D01*
X19889Y17589D02*
G01Y17521D01*
Y17737D02*
G01Y17669D01*
X19929Y17589D02*
G01Y17521D01*
Y17737D02*
G01Y17669D01*
X19968Y17589D02*
G01Y17521D01*
Y17737D02*
G01Y17669D01*
X20008Y17589D02*
G01Y17521D01*
Y17737D02*
G01Y17669D01*
X20047Y17589D02*
G01Y17521D01*
Y17737D02*
G01Y17669D01*
X20086Y17589D02*
G01Y17521D01*
Y17737D02*
G01Y17669D01*
X20126Y17589D02*
G01Y17521D01*
Y17737D02*
G01Y17669D01*
X20165Y17589D02*
G01Y17521D01*
Y17737D02*
G01Y17669D01*
X20204Y17589D02*
G01Y17521D01*
Y17737D02*
G01Y17669D01*
X20244Y17589D02*
G01Y17521D01*
Y17737D02*
G01Y17669D01*
X20283Y17589D02*
G01Y17521D01*
Y17737D02*
G01Y17669D01*
X20323Y17589D02*
G01Y17521D01*
Y17737D02*
G01Y17669D01*
X20362Y17589D02*
G01Y17521D01*
Y17737D02*
G01Y17669D01*
X20401Y17589D02*
G01Y17521D01*
Y17737D02*
G01Y17669D01*
X20441Y17589D02*
G01Y17521D01*
Y17737D02*
G01Y17669D01*
X20480Y17589D02*
G01Y17521D01*
Y17737D02*
G01Y17669D01*
X20519Y17589D02*
G01Y17521D01*
Y17737D02*
G01Y17669D01*
X20559Y17589D02*
G01Y17521D01*
Y17737D02*
G01Y17669D01*
X20598Y17589D02*
G01Y17521D01*
Y17737D02*
G01Y17669D01*
X20637Y17589D02*
G01Y17521D01*
Y17737D02*
G01Y17669D01*
X20677Y17589D02*
G01Y17521D01*
Y17737D02*
G01Y17669D01*
X20716Y17589D02*
G01Y17521D01*
Y17737D02*
G01Y17669D01*
X20756Y17589D02*
G01Y17521D01*
Y17737D02*
G01Y17669D01*
X20795Y17589D02*
G01Y17521D01*
Y17737D02*
G01Y17669D01*
M02*
