G04 CAM350 PRO V6.0 Date:  Tue Oct 11 09:42:12 2005 *
G04 Database: (Untitled) *
G04 Layer 5: b-paste.pho *
%FSLAX23Y23*%
%MOIN*%
%SFA1.000B1.000*%

%MIA0B0*%
%IPPOS*%
%ADD10C,0.01000*%
%ADD20R,0.03000X0.03800*%
%ADD22R,0.03800X0.03000*%
%ADD37R,0.06000X0.06000*%
%ADD49R,0.02400X0.09200*%
%LNb-paste.pho*%
%SRX1Y1I0J0*%
%LPD*%
G54D20*
X19873Y18584D03*
Y18646D03*
X20421Y13768D03*
Y13706D03*
X20405Y14640D03*
Y14578D03*
X20635Y14523D03*
Y14585D03*
Y14725D03*
Y14663D03*
X19965Y18275D03*
Y18213D03*
X20100Y17918D03*
Y17856D03*
X20225Y17918D03*
Y17856D03*
X20115Y17385D03*
Y17323D03*
X20175Y17385D03*
Y17323D03*
X20050Y17385D03*
Y17323D03*
X20160Y17918D03*
Y17856D03*
X20095Y14648D03*
Y14710D03*
X20210Y14653D03*
Y14715D03*
X20145Y15228D03*
Y15290D03*
X20230Y15223D03*
Y15285D03*
X20090Y15228D03*
Y15290D03*
X20150Y14653D03*
Y14715D03*
G54D22*
X20487Y14086D03*
X20425D03*
X20186Y18284D03*
X20124D03*
X20563Y14085D03*
X20625D03*
G54D37*
X20650Y13751D03*
X20515D03*
X19781Y18671D03*
Y18536D03*
G54D49*
X19575Y14895D03*
Y15043D03*
X19614Y14895D03*
Y15043D03*
X19653Y14895D03*
Y15043D03*
X19693Y14895D03*
Y15043D03*
X19732Y14895D03*
Y15043D03*
X19771Y14895D03*
Y15043D03*
X19811Y14895D03*
Y15043D03*
X19850Y14895D03*
Y15043D03*
X19889Y14895D03*
Y15043D03*
X19929Y14895D03*
Y15043D03*
X19968Y14895D03*
Y15043D03*
X20008Y14895D03*
Y15043D03*
X20047Y14895D03*
Y15043D03*
X20086Y14895D03*
Y15043D03*
X20126Y14895D03*
Y15043D03*
X20165Y14895D03*
Y15043D03*
X20204Y14895D03*
Y15043D03*
X20244Y14895D03*
Y15043D03*
X20283Y14895D03*
Y15043D03*
X20323Y14895D03*
Y15043D03*
X20362Y14895D03*
Y15043D03*
X20401Y14895D03*
Y15043D03*
X20441Y14895D03*
Y15043D03*
X20480Y14895D03*
Y15043D03*
X20519Y14895D03*
Y15043D03*
X20559Y14895D03*
Y15043D03*
X20598Y14895D03*
Y15043D03*
X20637Y14895D03*
Y15043D03*
X20677Y14895D03*
Y15043D03*
X20716Y14895D03*
Y15043D03*
X20756Y14895D03*
Y15043D03*
X20795Y14895D03*
Y15043D03*
X19575Y17555D03*
Y17703D03*
X19614Y17555D03*
Y17703D03*
X19653Y17555D03*
Y17703D03*
X19693Y17555D03*
Y17703D03*
X19732Y17555D03*
Y17703D03*
X19771Y17555D03*
Y17703D03*
X19811Y17555D03*
Y17703D03*
X19850Y17555D03*
Y17703D03*
X19889Y17555D03*
Y17703D03*
X19929Y17555D03*
Y17703D03*
X19968Y17555D03*
Y17703D03*
X20008Y17555D03*
Y17703D03*
X20047Y17555D03*
Y17703D03*
X20086Y17555D03*
Y17703D03*
X20126Y17555D03*
Y17703D03*
X20165Y17555D03*
Y17703D03*
X20204Y17555D03*
Y17703D03*
X20244Y17555D03*
Y17703D03*
X20283Y17555D03*
Y17703D03*
X20323Y17555D03*
Y17703D03*
X20362Y17555D03*
Y17703D03*
X20401Y17555D03*
Y17703D03*
X20441Y17555D03*
Y17703D03*
X20480Y17555D03*
Y17703D03*
X20519Y17555D03*
Y17703D03*
X20559Y17555D03*
Y17703D03*
X20598Y17555D03*
Y17703D03*
X20637Y17555D03*
Y17703D03*
X20677Y17555D03*
Y17703D03*
X20716Y17555D03*
Y17703D03*
X20756Y17555D03*
Y17703D03*
X20795Y17555D03*
Y17703D03*
G54D10*
X18625Y13499D02*
G01Y19099D01*
Y19099D02*
G01X21375D01*
Y19099D02*
G01Y13499D01*
Y13499D02*
G01X18625D01*
X19229Y12966D02*
G01Y12900D01*
Y12966D02*
G01X19249D01*
Y12966D02*
G01X19256Y12962D01*
Y12962D02*
G01X19258Y12959D01*
Y12959D02*
G01X19261Y12953D01*
Y12953D02*
G01Y12944D01*
X19258Y12937*
Y12937D02*
G01X19256Y12934D01*
Y12934D02*
G01X19249Y12931D01*
Y12931D02*
G01X19229D01*
X19299Y12966D02*
G01X19281Y12900D01*
X19299Y12966D02*
G01X19317Y12900D01*
X19288Y12922D02*
G01X19311D01*
X19370Y12956D02*
G01X19365Y12962D01*
Y12962D02*
G01X19358Y12966D01*
Y12966D02*
G01X19349D01*
Y12966D02*
G01X19342Y12962D01*
Y12962D02*
G01X19338Y12956D01*
Y12956D02*
G01Y12950D01*
X19340Y12944*
Y12944D02*
G01X19342Y12941D01*
Y12941D02*
G01X19347Y12937D01*
Y12937D02*
G01X19361Y12931D01*
Y12931D02*
G01X19365Y12928D01*
Y12928D02*
G01X19367Y12925D01*
Y12925D02*
G01X19370Y12919D01*
Y12909*
Y12909D02*
G01X19365Y12903D01*
Y12903D02*
G01X19358Y12900D01*
Y12900D02*
G01X19349D01*
Y12900D02*
G01X19342Y12903D01*
Y12903D02*
G01X19338Y12909D01*
X19406Y12966D02*
G01Y12900D01*
X19390Y12966D02*
G01X19422D01*
X19442D02*
G01Y12900D01*
Y12966D02*
G01X19472D01*
X19442Y12934D02*
G01X19461D01*
X19442Y12900D02*
G01X19472D01*
X19533Y12966D02*
G01Y12900D01*
Y12966D02*
G01X19552Y12900D01*
X19570Y12966D02*
G01X19552Y12900D01*
X19570Y12966D02*
G01Y12900D01*
X19608Y12966D02*
G01X19590Y12900D01*
X19608Y12966D02*
G01X19627Y12900D01*
X19597Y12922D02*
G01X19620D01*
X19679Y12956D02*
G01X19674Y12962D01*
Y12962D02*
G01X19667Y12966D01*
Y12966D02*
G01X19658D01*
Y12966D02*
G01X19652Y12962D01*
Y12962D02*
G01X19647Y12956D01*
Y12956D02*
G01Y12950D01*
Y12950D02*
G01X19649Y12944D01*
Y12944D02*
G01X19652Y12941D01*
X19656Y12937*
Y12937D02*
G01X19670Y12931D01*
Y12931D02*
G01X19674Y12928D01*
Y12928D02*
G01X19677Y12925D01*
X19679Y12919*
Y12909*
Y12909D02*
G01X19674Y12903D01*
Y12903D02*
G01X19667Y12900D01*
Y12900D02*
G01X19658D01*
Y12900D02*
G01X19652Y12903D01*
Y12903D02*
G01X19647Y12909D01*
X19699Y12966D02*
G01Y12900D01*
X19731Y12966D02*
G01X19699Y12922D01*
X19711Y12937D02*
G01X19731Y12900D01*
X19792Y12966D02*
G01Y12900D01*
Y12966D02*
G01X19813D01*
X19820Y12962*
Y12962D02*
G01X19822Y12959D01*
Y12959D02*
G01X19824Y12953D01*
Y12953D02*
G01Y12947D01*
Y12947D02*
G01X19822Y12941D01*
Y12941D02*
G01X19820Y12937D01*
Y12937D02*
G01X19813Y12934D01*
X19792D02*
G01X19813D01*
Y12934D02*
G01X19820Y12931D01*
Y12931D02*
G01X19822Y12928D01*
Y12928D02*
G01X19824Y12922D01*
Y12922D02*
G01Y12912D01*
Y12912D02*
G01X19822Y12906D01*
Y12906D02*
G01X19820Y12903D01*
Y12903D02*
G01X19813Y12900D01*
X19792*
X19858Y12966D02*
G01X19854Y12962D01*
Y12962D02*
G01X19849Y12956D01*
Y12956D02*
G01X19847Y12950D01*
Y12950D02*
G01X19845Y12941D01*
Y12925*
X19847Y12916*
Y12916D02*
G01X19849Y12909D01*
Y12909D02*
G01X19854Y12903D01*
Y12903D02*
G01X19858Y12900D01*
Y12900D02*
G01X19867D01*
Y12900D02*
G01X19872Y12903D01*
Y12903D02*
G01X19877Y12909D01*
Y12909D02*
G01X19879Y12916D01*
X19881Y12925*
Y12925D02*
G01Y12941D01*
Y12941D02*
G01X19879Y12950D01*
X19877Y12956*
Y12956D02*
G01X19872Y12962D01*
Y12962D02*
G01X19867Y12966D01*
Y12966D02*
G01X19858D01*
X19917D02*
G01Y12900D01*
X19902Y12966D02*
G01X19933D01*
X19970D02*
G01Y12900D01*
X19954Y12966D02*
G01X19986D01*
X20020D02*
G01X20015Y12962D01*
Y12962D02*
G01X20011Y12956D01*
Y12956D02*
G01X20008Y12950D01*
Y12950D02*
G01X20006Y12941D01*
Y12941D02*
G01Y12925D01*
Y12925D02*
G01X20008Y12916D01*
Y12916D02*
G01X20011Y12909D01*
Y12909D02*
G01X20015Y12903D01*
Y12903D02*
G01X20020Y12900D01*
X20029*
X20033Y12903*
Y12903D02*
G01X20038Y12909D01*
Y12909D02*
G01X20040Y12916D01*
Y12916D02*
G01X20042Y12925D01*
Y12925D02*
G01Y12941D01*
Y12941D02*
G01X20040Y12950D01*
Y12950D02*
G01X20038Y12956D01*
Y12956D02*
G01X20033Y12962D01*
Y12962D02*
G01X20029Y12966D01*
X20020*
X20063D02*
G01Y12900D01*
Y12966D02*
G01X20081Y12900D01*
X20099Y12966D02*
G01X20081Y12900D01*
X20099Y12966D02*
G01Y12900D01*
M02*
