G04 CAM350 PRO V6.0 Date:  Tue Oct 11 09:42:13 2005 *
G04 Database: (Untitled) *
G04 Layer 8: t-mask.pho *
%FSLAX23Y23*%
%MOIN*%
%SFA1.000B1.000*%

%MIA0B0*%
%IPPOS*%
%ADD10C,0.01000*%
%ADD70R,0.09268X0.09268*%
%ADD71R,0.07000X0.07000*%
%ADD72C,0.07000*%
%ADD73R,0.03756X0.03756*%
%ADD50C,0.03500*%
%ADD57C,0.13500*%
%ADD58R,0.04000X0.04000*%
%ADD59R,0.04400X0.04400*%
%ADD60C,0.02300*%
%ADD61R,0.12024X0.12024*%
%ADD62C,0.03362*%
%ADD63C,0.10300*%
%ADD64C,0.10800*%
%ADD65R,0.02600X0.02600*%
%ADD66R,0.02575X0.02575*%
%ADD67C,0.06500*%
%ADD68R,0.02614X0.02614*%
%ADD69R,0.02181X0.02181*%
%ADD74R,0.08200X0.08200*%
%LNt-mask.pho*%
%SRX1Y1I0J0*%
%LPD*%
G54D57*
X19175Y17149D03*
X18775Y18949D03*
X21226Y18948D03*
X21225Y16749D03*
Y15849D03*
Y13649D03*
X18775D03*
X19175Y15449D03*
G54D61*
X20527Y18241D03*
G54D63*
X21029Y17218D03*
X20692Y16184D03*
G54D64*
X21129Y17318D03*
X20929D03*
Y17118D03*
X21129D03*
X20592Y16084D03*
X20792D03*
Y16284D03*
X20592D03*
G54D67*
X19508Y14969D03*
X20862D03*
X19508Y17629D03*
X20862D03*
G54D70*
X19998Y18437D03*
X20544Y13932D03*
G54D71*
X18765Y15199D03*
Y18134D03*
X19811Y18225D03*
X20795Y13769D03*
X19115Y18587D03*
Y18722D03*
X19786Y17992D03*
Y17857D03*
X19948Y18879D03*
Y18744D03*
X19605Y15977D03*
Y15842D03*
X19610Y14812D03*
Y14677D03*
X19925Y14090D03*
Y13955D03*
X19425Y13817D03*
Y13682D03*
X19605Y17852D03*
Y17987D03*
X20254Y18878D03*
X20119D03*
X18990Y18462D03*
X18855D03*
X19292Y15974D03*
X19427D03*
X19596Y14088D03*
X19731D03*
X19395Y14824D03*
Y14689D03*
X19675Y13817D03*
Y13952D03*
G54D72*
X18865Y15199D03*
X18765Y15099D03*
X18865D03*
X18765Y14999D03*
X18865D03*
X18765Y14899D03*
X18865D03*
X18765Y14799D03*
X18865D03*
X18765Y14699D03*
X18865D03*
X18765Y14599D03*
X18865D03*
X18765Y14499D03*
X18865D03*
Y18134D03*
X18765Y18034D03*
X18865D03*
X18765Y17934D03*
X18865D03*
X18765Y17834D03*
X18865D03*
X18765Y17734D03*
X18865D03*
X18765Y17634D03*
X18865D03*
X18765Y17534D03*
X18865D03*
X18765Y17434D03*
X18865D03*
X19711Y18225D03*
X20895Y13769D03*
G54D10*
X18625Y13499D02*
G01Y19099D01*
Y19099D02*
G01X21375D01*
Y19099D02*
G01Y13499D01*
Y13499D02*
G01X18625D01*
X20464Y17218D02*
G01X20537D01*
Y17218D02*
G01Y17235D01*
X20642*
Y17168*
X20537*
Y17184*
Y17184D02*
G01X20464D01*
Y17184D02*
G01Y17218D01*
X20537Y17168D02*
G01X20642D01*
X20537Y17178D02*
G01X20642D01*
X20464Y17188D02*
G01X20642D01*
X20464Y17198D02*
G01X20642D01*
X20464Y17208D02*
G01X20642D01*
X20464Y17218D02*
G01X20642D01*
X20537Y17228D02*
G01X20642D01*
X20464Y17184D02*
G01Y17218D01*
X20474Y17184D02*
G01Y17218D01*
X20484Y17184D02*
G01Y17218D01*
X20494Y17184D02*
G01Y17218D01*
X20504Y17184D02*
G01Y17218D01*
X20514Y17184D02*
G01Y17218D01*
X20524Y17184D02*
G01Y17218D01*
X20534Y17184D02*
G01Y17218D01*
X20544Y17168D02*
G01Y17235D01*
X20554Y17168D02*
G01Y17235D01*
X20564Y17168D02*
G01Y17235D01*
X20574Y17168D02*
G01Y17235D01*
X20584Y17168D02*
G01Y17235D01*
X20594Y17168D02*
G01Y17235D01*
X20604Y17168D02*
G01Y17235D01*
X20614Y17168D02*
G01Y17235D01*
X20624Y17168D02*
G01Y17235D01*
X20634Y17168D02*
G01Y17235D01*
X20464Y17861D02*
G01X20537D01*
Y17861D02*
G01Y17878D01*
X20642*
Y17811*
X20537*
Y17827*
Y17827D02*
G01X20464D01*
Y17827D02*
G01Y17861D01*
X20537Y17811D02*
G01X20642D01*
X20537Y17821D02*
G01X20642D01*
X20464Y17831D02*
G01X20642D01*
X20464Y17841D02*
G01X20642D01*
X20464Y17851D02*
G01X20642D01*
X20464Y17861D02*
G01X20642D01*
X20537Y17871D02*
G01X20642D01*
X20464Y17827D02*
G01Y17861D01*
X20474Y17827D02*
G01Y17861D01*
X20484Y17827D02*
G01Y17861D01*
X20494Y17827D02*
G01Y17861D01*
X20504Y17827D02*
G01Y17861D01*
X20514Y17827D02*
G01Y17861D01*
X20524Y17827D02*
G01Y17861D01*
X20534Y17827D02*
G01Y17861D01*
X20544Y17811D02*
G01Y17878D01*
X20554Y17811D02*
G01Y17878D01*
X20564Y17811D02*
G01Y17878D01*
X20574Y17811D02*
G01Y17878D01*
X20584Y17811D02*
G01Y17878D01*
X20594Y17811D02*
G01Y17878D01*
X20604Y17811D02*
G01Y17878D01*
X20614Y17811D02*
G01Y17878D01*
X20624Y17811D02*
G01Y17878D01*
X20634Y17811D02*
G01Y17878D01*
X19263Y12950D02*
G01X19261Y12956D01*
Y12956D02*
G01X19256Y12962D01*
Y12962D02*
G01X19252Y12966D01*
X19242*
Y12966D02*
G01X19238Y12962D01*
Y12962D02*
G01X19233Y12956D01*
Y12956D02*
G01X19231Y12950D01*
Y12950D02*
G01X19229Y12941D01*
Y12925*
X19231Y12916*
Y12916D02*
G01X19233Y12909D01*
Y12909D02*
G01X19238Y12903D01*
Y12903D02*
G01X19242Y12900D01*
Y12900D02*
G01X19252D01*
X19256Y12903*
Y12903D02*
G01X19261Y12909D01*
Y12909D02*
G01X19263Y12916D01*
X19297Y12966D02*
G01X19292Y12962D01*
Y12962D02*
G01X19288Y12956D01*
Y12956D02*
G01X19286Y12950D01*
X19283Y12941*
Y12941D02*
G01Y12925D01*
Y12925D02*
G01X19286Y12916D01*
X19288Y12909*
Y12909D02*
G01X19292Y12903D01*
Y12903D02*
G01X19297Y12900D01*
Y12900D02*
G01X19306D01*
Y12900D02*
G01X19311Y12903D01*
Y12903D02*
G01X19315Y12909D01*
Y12909D02*
G01X19317Y12916D01*
Y12916D02*
G01X19320Y12925D01*
Y12941*
X19317Y12950*
Y12950D02*
G01X19315Y12956D01*
Y12956D02*
G01X19311Y12962D01*
Y12962D02*
G01X19306Y12966D01*
Y12966D02*
G01X19297D01*
X19340D02*
G01Y12900D01*
Y12966D02*
G01X19358Y12900D01*
X19377Y12966D02*
G01X19358Y12900D01*
X19377Y12966D02*
G01Y12900D01*
X19397Y12966D02*
G01Y12900D01*
Y12966D02*
G01X19417D01*
Y12966D02*
G01X19424Y12962D01*
Y12962D02*
G01X19427Y12959D01*
Y12959D02*
G01X19429Y12953D01*
Y12953D02*
G01Y12944D01*
X19427Y12937*
Y12937D02*
G01X19424Y12934D01*
Y12934D02*
G01X19417Y12931D01*
Y12931D02*
G01X19397D01*
X19463Y12966D02*
G01X19458Y12962D01*
Y12962D02*
G01X19454Y12956D01*
Y12956D02*
G01X19452Y12950D01*
X19449Y12941*
Y12941D02*
G01Y12925D01*
Y12925D02*
G01X19452Y12916D01*
X19454Y12909*
Y12909D02*
G01X19458Y12903D01*
Y12903D02*
G01X19463Y12900D01*
X19472*
Y12900D02*
G01X19477Y12903D01*
Y12903D02*
G01X19481Y12909D01*
Y12909D02*
G01X19483Y12916D01*
Y12916D02*
G01X19486Y12925D01*
Y12941*
X19483Y12950*
Y12950D02*
G01X19481Y12956D01*
Y12956D02*
G01X19477Y12962D01*
Y12962D02*
G01X19472Y12966D01*
Y12966D02*
G01X19463D01*
X19506D02*
G01Y12900D01*
Y12966D02*
G01X19538Y12900D01*
Y12966D02*
G01Y12900D01*
X19558Y12966D02*
G01Y12900D01*
Y12966D02*
G01X19588D01*
X19558Y12934D02*
G01X19577D01*
X19558Y12900D02*
G01X19588D01*
X19608Y12966D02*
G01Y12900D01*
Y12966D02*
G01X19640Y12900D01*
Y12966D02*
G01Y12900D01*
X19677Y12966D02*
G01Y12900D01*
X19661Y12966D02*
G01X19692D01*
X19786Y12956D02*
G01X19781Y12962D01*
Y12962D02*
G01X19774Y12966D01*
Y12966D02*
G01X19765D01*
Y12966D02*
G01X19758Y12962D01*
Y12962D02*
G01X19754Y12956D01*
Y12956D02*
G01Y12950D01*
X19756Y12944*
Y12944D02*
G01X19758Y12941D01*
Y12941D02*
G01X19763Y12937D01*
Y12937D02*
G01X19777Y12931D01*
Y12931D02*
G01X19781Y12928D01*
Y12928D02*
G01X19783Y12925D01*
Y12925D02*
G01X19786Y12919D01*
Y12909*
Y12909D02*
G01X19781Y12903D01*
Y12903D02*
G01X19774Y12900D01*
Y12900D02*
G01X19765D01*
Y12900D02*
G01X19758Y12903D01*
Y12903D02*
G01X19754Y12909D01*
X19806Y12966D02*
G01Y12900D01*
X19827Y12966D02*
G01Y12900D01*
Y12966D02*
G01X19842D01*
Y12966D02*
G01X19849Y12962D01*
Y12962D02*
G01X19854Y12956D01*
Y12956D02*
G01X19856Y12950D01*
Y12950D02*
G01X19858Y12941D01*
Y12941D02*
G01Y12925D01*
Y12925D02*
G01X19856Y12916D01*
Y12916D02*
G01X19854Y12909D01*
Y12909D02*
G01X19849Y12903D01*
Y12903D02*
G01X19842Y12900D01*
Y12900D02*
G01X19827D01*
X19879Y12966D02*
G01Y12900D01*
Y12966D02*
G01X19908D01*
X19879Y12934D02*
G01X19897D01*
X19879Y12900D02*
G01X19908D01*
X19970Y12966D02*
G01Y12900D01*
Y12966D02*
G01X19988Y12900D01*
X20006Y12966D02*
G01X19988Y12900D01*
X20006Y12966D02*
G01Y12900D01*
X20045Y12966D02*
G01X20027Y12900D01*
X20045Y12966D02*
G01X20063Y12900D01*
X20033Y12922D02*
G01X20056D01*
X20115Y12956D02*
G01X20111Y12962D01*
Y12962D02*
G01X20104Y12966D01*
X20095*
X20088Y12962*
Y12962D02*
G01X20083Y12956D01*
Y12956D02*
G01Y12950D01*
Y12950D02*
G01X20086Y12944D01*
X20088Y12941*
X20092Y12937*
Y12937D02*
G01X20106Y12931D01*
Y12931D02*
G01X20111Y12928D01*
Y12928D02*
G01X20113Y12925D01*
X20115Y12919*
Y12919D02*
G01Y12909D01*
Y12909D02*
G01X20111Y12903D01*
Y12903D02*
G01X20104Y12900D01*
X20095*
X20088Y12903*
Y12903D02*
G01X20083Y12909D01*
X20136Y12966D02*
G01Y12900D01*
X20167Y12966D02*
G01X20136Y12922D01*
X20147Y12937D02*
G01X20167Y12900D01*
X20739Y15442D02*
G01X20789D01*
Y15442D02*
G01Y15392D01*
Y15392D02*
G01X20739D01*
Y15392D02*
G01Y15442D01*
X20851Y15478D02*
G01X20791D01*
Y15478D02*
G01Y15538D01*
Y15538D02*
G01X20851D01*
Y15538D02*
G01Y15478D01*
X20739Y15437D02*
G01X20789D01*
X20739Y15428D02*
G01X20789D01*
X20739Y15419D02*
G01X20789D01*
X20739Y15410D02*
G01X20789D01*
X20739Y15401D02*
G01X20789D01*
X20791Y15532D02*
G01X20851D01*
X20791Y15523D02*
G01X20851D01*
X20791Y15514D02*
G01X20851D01*
X20791Y15505D02*
G01X20851D01*
X20791Y15496D02*
G01X20851D01*
X20791Y15487D02*
G01X20851D01*
G54D50*
X19679Y16599D02*
G01X19729D01*
X19679Y16549D02*
G01X19729D01*
X19679Y16499D02*
G01X19729D01*
X19679Y16449D02*
G01X19729D01*
X19679Y16399D02*
G01X19729D01*
X19679Y16349D02*
G01X19729D01*
X19679Y16299D02*
G01X19729D01*
X19883D02*
G01X19933D01*
X19883Y16349D02*
G01X19933D01*
X19883Y16399D02*
G01X19933D01*
X19883Y16449D02*
G01X19933D01*
X19883Y16499D02*
G01X19933D01*
X19883Y16549D02*
G01X19933D01*
X19883Y16599D02*
G01X19933D01*
G54D58*
X20298Y17069D02*
G01Y17061D01*
Y17007D02*
G01Y16999D01*
X20359Y17068D02*
G01Y17060D01*
Y17006D02*
G01Y16998D01*
X20489Y17432D02*
G01Y17424D01*
Y17370D02*
G01Y17362D01*
X20239Y17691D02*
G01Y17699D01*
Y17753D02*
G01Y17761D01*
X20489Y17001D02*
G01Y16993D01*
Y16939D02*
G01Y16931D01*
Y17623D02*
G01Y17615D01*
Y17561D02*
G01Y17553D01*
X20488Y18051D02*
G01Y18043D01*
Y17989D02*
G01Y17981D01*
X20675Y18064D02*
G01Y18056D01*
Y18002D02*
G01Y17994D01*
X21195Y18004D02*
G01Y17996D01*
Y17942D02*
G01Y17934D01*
X21130Y18004D02*
G01X21122D01*
X21068D02*
G01X21060D01*
Y18074D02*
G01X21068D01*
X21122D02*
G01X21130D01*
X20650Y18439D02*
G01X20642D01*
X20588D02*
G01X20580D01*
X19965Y18279D02*
G01Y18271D01*
Y18217D02*
G01Y18209D01*
X20610Y18944D02*
G01X20618D01*
X20672D02*
G01X20680D01*
X20580Y18879D02*
G01Y18871D01*
Y18817D02*
G01Y18809D01*
X20640Y18804D02*
G01Y18812D01*
Y18866D02*
G01Y18874D01*
X19730Y18434D02*
G01Y18426D01*
Y18372D02*
G01Y18364D01*
X20276Y18136D02*
G01X20268D01*
X20214D02*
G01X20206D01*
X20780Y14121D02*
G01X20772D01*
X20718D02*
G01X20710D01*
X20380Y18024D02*
G01Y18016D01*
Y17962D02*
G01Y17954D01*
X20807Y14667D02*
G01X20799D01*
X20745D02*
G01X20737D01*
X20807Y14725D02*
G01X20799D01*
X20745D02*
G01X20737D01*
X20220Y14914D02*
G01X20212D01*
X20158D02*
G01X20150D01*
X20395Y14864D02*
G01Y14872D01*
Y14926D02*
G01Y14934D01*
X20740Y14779D02*
G01X20748D01*
X20802D02*
G01X20810D01*
X19975Y14584D02*
G01Y14592D01*
Y14646D02*
G01Y14654D01*
X20485Y13768D02*
G01X20493D01*
X20547D02*
G01X20555D01*
X20416Y13749D02*
G01Y13741D01*
Y13687D02*
G01Y13679D01*
X20259Y13744D02*
G01X20267D01*
X20321D02*
G01X20329D01*
X20259Y13798D02*
G01X20267D01*
X20321D02*
G01X20329D01*
X20853Y13997D02*
G01Y14005D01*
Y14059D02*
G01Y14067D01*
X20355Y14086D02*
G01X20347D01*
X20293D02*
G01X20285D01*
X20380Y18337D02*
G01Y18329D01*
Y18275D02*
G01Y18267D01*
X20712Y14063D02*
G01X20720D01*
X20774D02*
G01X20782D01*
X20712Y14006D02*
G01X20720D01*
X20774D02*
G01X20782D01*
X20716Y13944D02*
G01X20724D01*
X20778D02*
G01X20786D01*
X20649Y14152D02*
G01Y14160D01*
Y14214D02*
G01Y14222D01*
X20716Y13859D02*
G01X20724D01*
X20778D02*
G01X20786D01*
X20210Y14444D02*
G01X20218D01*
X20272D02*
G01X20280D01*
X20558Y18058D02*
G01Y18050D01*
Y17996D02*
G01Y17988D01*
X20380Y18094D02*
G01Y18102D01*
Y18156D02*
G01Y18164D01*
X20191Y18281D02*
G01X20183D01*
X20129D02*
G01X20121D01*
X20167Y18621D02*
G01X20175D01*
X20229D02*
G01X20237D01*
X20080Y18209D02*
G01Y18201D01*
Y18147D02*
G01Y18139D01*
X20140Y18208D02*
G01Y18200D01*
Y18146D02*
G01Y18138D01*
X20166Y18679D02*
G01X20174D01*
X20228D02*
G01X20236D01*
X19768Y18568D02*
G01X19776D01*
X19830D02*
G01X19838D01*
X20335Y14864D02*
G01Y14872D01*
Y14926D02*
G01Y14934D01*
X20274Y18203D02*
G01X20266D01*
X20212D02*
G01X20204D01*
X20340Y18494D02*
G01X20348D01*
X20402D02*
G01X20410D01*
X20340Y18434D02*
G01X20348D01*
X20402D02*
G01X20410D01*
X20134Y18491D02*
G01Y18499D01*
Y18553D02*
G01Y18561D01*
X20135Y18424D02*
G01Y18416D01*
Y18362D02*
G01Y18354D01*
X20881Y15326D02*
G01X20873D01*
X20819D02*
G01X20811D01*
X20558Y14085D02*
G01X20566D01*
X20620D02*
G01X20628D01*
X20491Y14086D02*
G01X20483D01*
X20429D02*
G01X20421D01*
X20487Y14281D02*
G01Y14289D01*
Y14343D02*
G01Y14351D01*
X20562Y14282D02*
G01Y14290D01*
Y14344D02*
G01Y14352D01*
X20423Y17696D02*
G01X20431D01*
X20485D02*
G01X20493D01*
X20485Y17493D02*
G01X20493D01*
X20547D02*
G01X20555D01*
X20485Y16870D02*
G01X20493D01*
X20547D02*
G01X20555D01*
X20205Y18434D02*
G01X20213D01*
X20267D02*
G01X20275D01*
X20200Y18494D02*
G01X20208D01*
X20262D02*
G01X20270D01*
X20562Y14150D02*
G01Y14158D01*
Y14212D02*
G01Y14220D01*
X20487Y14149D02*
G01Y14157D01*
Y14211D02*
G01Y14219D01*
X20280Y14619D02*
G01X20272D01*
X20218D02*
G01X20210D01*
X20065Y14439D02*
G01Y14447D01*
Y14501D02*
G01Y14509D01*
X20100Y15248D02*
G01Y15240D01*
Y15186D02*
G01Y15178D01*
X20348Y15039D02*
G01X20340D01*
X20286D02*
G01X20278D01*
X20835Y14534D02*
G01X20827D01*
X20773D02*
G01X20765D01*
X20835Y14474D02*
G01X20827D01*
X20773D02*
G01X20765D01*
X20616Y15039D02*
G01X20624D01*
X20678D02*
G01X20686D01*
X20480D02*
G01X20488D01*
X20542D02*
G01X20550D01*
X20811Y15233D02*
G01X20819D01*
X20873D02*
G01X20881D01*
X20956Y15330D02*
G01X20964D01*
X21018D02*
G01X21026D01*
X20956Y15395D02*
G01X20964D01*
X21018D02*
G01X21026D01*
X19825Y14694D02*
G01Y14686D01*
Y14632D02*
G01Y14624D01*
X19765D02*
G01Y14632D01*
Y14686D02*
G01Y14694D01*
X19490Y18429D02*
G01X19482D01*
X19428D02*
G01X19420D01*
X20420Y16485D02*
G01Y16493D01*
Y16547D02*
G01Y16555D01*
X21055Y15040D02*
G01X21047D01*
X20993D02*
G01X20985D01*
X20450Y15324D02*
G01X20442D01*
X20388D02*
G01X20380D01*
X20162Y13865D02*
G01Y13873D01*
Y13927D02*
G01Y13935D01*
X20176Y13796D02*
G01X20168D01*
X20114D02*
G01X20106D01*
X20240Y15324D02*
G01X20248D01*
X20302D02*
G01X20310D01*
X20590D02*
G01X20582D01*
X20528D02*
G01X20520D01*
X20210Y14799D02*
G01X20218D01*
X20272D02*
G01X20280D01*
X20140Y15039D02*
G01X20148D01*
X20202D02*
G01X20210D01*
X20765Y14589D02*
G01X20773D01*
X20827D02*
G01X20835D01*
X20210Y14684D02*
G01X20218D01*
X20272D02*
G01X20280D01*
X20459Y14932D02*
G01Y14924D01*
Y14870D02*
G01Y14862D01*
X20150Y14854D02*
G01X20158D01*
X20212D02*
G01X20220D01*
X20020Y18279D02*
G01Y18271D01*
Y18217D02*
G01Y18209D01*
X20749Y16636D02*
G01X20757D01*
X20811D02*
G01X20819D01*
X20489Y16741D02*
G01Y16749D01*
Y16803D02*
G01Y16811D01*
X20210Y14559D02*
G01X20218D01*
X20272D02*
G01X20280D01*
X20210Y14499D02*
G01X20218D01*
X20272D02*
G01X20280D01*
X20835Y14359D02*
G01X20827D01*
X20773D02*
G01X20765D01*
X20835Y14419D02*
G01X20827D01*
X20773D02*
G01X20765D01*
X19420Y18364D02*
G01X19428D01*
X19482D02*
G01X19490D01*
X20990Y14820D02*
G01Y14828D01*
Y14882D02*
G01Y14890D01*
X19954Y14292D02*
G01Y14284D01*
Y14230D02*
G01Y14222D01*
X19703Y15079D02*
G01Y15071D01*
Y15017D02*
G01Y15009D01*
X19961Y18120D02*
G01Y18112D01*
Y18058D02*
G01Y18050D01*
X19739Y18659D02*
G01Y18667D01*
Y18721D02*
G01Y18729D01*
X19505Y17909D02*
G01X19497D01*
X19443D02*
G01X19435D01*
X20415Y18886D02*
G01Y18878D01*
Y18824D02*
G01Y18816D01*
X20350Y18886D02*
G01Y18878D01*
Y18824D02*
G01Y18816D01*
X19505Y17854D02*
G01X19497D01*
X19443D02*
G01X19435D01*
X19696Y17994D02*
G01Y17986D01*
Y17932D02*
G01Y17924D01*
X20034Y18882D02*
G01Y18874D01*
Y18820D02*
G01Y18812D01*
X18990Y18582D02*
G01Y18590D01*
Y18644D02*
G01Y18652D01*
X18933Y18582D02*
G01Y18590D01*
Y18644D02*
G01Y18652D01*
X19600Y18429D02*
G01X19608D01*
X19662D02*
G01X19670D01*
X19790D02*
G01X19798D01*
X19852D02*
G01X19860D01*
X20645Y18749D02*
G01X20637D01*
X20583D02*
G01X20575D01*
X20650Y18494D02*
G01X20642D01*
X20588D02*
G01X20580D01*
X20995Y18074D02*
G01Y18066D01*
Y18012D02*
G01Y18004D01*
X20735Y18064D02*
G01Y18056D01*
Y18002D02*
G01Y17994D01*
X20480Y18881D02*
G01Y18873D01*
Y18819D02*
G01Y18811D01*
X19544Y18433D02*
G01Y18425D01*
Y18371D02*
G01Y18363D01*
X19505Y17974D02*
G01X19497D01*
X19443D02*
G01X19435D01*
X19273Y14915D02*
G01Y14923D01*
Y14977D02*
G01Y14985D01*
X19060Y15979D02*
G01Y15971D01*
Y15917D02*
G01Y15909D01*
X19130Y15979D02*
G01Y15971D01*
Y15917D02*
G01Y15909D01*
X20075Y16199D02*
G01Y16191D01*
Y16137D02*
G01Y16129D01*
X20460Y16189D02*
G01X20452D01*
X20398D02*
G01X20390D01*
X19200Y15979D02*
G01Y15971D01*
Y15917D02*
G01Y15909D01*
X19520Y15979D02*
G01Y15971D01*
Y15917D02*
G01Y15909D01*
X19640Y16167D02*
G01Y16159D01*
Y16105D02*
G01Y16097D01*
X19695Y14694D02*
G01Y14686D01*
Y14632D02*
G01Y14624D01*
X19364Y14093D02*
G01Y14085D01*
Y14031D02*
G01Y14023D01*
X19429Y14093D02*
G01Y14085D01*
Y14031D02*
G01Y14023D01*
X19338Y14915D02*
G01Y14923D01*
Y14977D02*
G01Y14985D01*
X20217Y13866D02*
G01Y13874D01*
Y13928D02*
G01Y13936D01*
X19395Y14915D02*
G01Y14923D01*
Y14977D02*
G01Y14985D01*
X19820Y14092D02*
G01Y14084D01*
Y14030D02*
G01Y14022D01*
X19494Y14093D02*
G01Y14085D01*
Y14031D02*
G01Y14023D01*
X19522Y14775D02*
G01Y14767D01*
Y14713D02*
G01Y14705D01*
X20284Y14028D02*
G01X20292D01*
X20346D02*
G01X20354D01*
X19515Y13820D02*
G01Y13812D01*
Y13758D02*
G01Y13750D01*
X19580Y13820D02*
G01Y13812D01*
Y13758D02*
G01Y13750D01*
X20423Y17065D02*
G01X20431D01*
X20485D02*
G01X20493D01*
X20699Y15565D02*
G01X20707D01*
X20761D02*
G01X20769D01*
X19800Y18660D02*
G01Y18668D01*
Y18722D02*
G01Y18730D01*
X19901Y18118D02*
G01Y18110D01*
Y18056D02*
G01Y18048D01*
X18990Y18364D02*
G01Y18356D01*
Y18302D02*
G01Y18294D01*
X19676Y18727D02*
G01Y18719D01*
Y18665D02*
G01Y18657D01*
X20021Y18051D02*
G01Y18059D01*
Y18113D02*
G01Y18121D01*
X19726Y18084D02*
G01X19734D01*
X19788D02*
G01X19796D01*
X18915Y18299D02*
G01X18907D01*
X18853D02*
G01X18845D01*
X19766Y16169D02*
G01Y16161D01*
Y16107D02*
G01Y16099D01*
X19701D02*
G01Y16107D01*
Y16161D02*
G01Y16169D01*
X19991Y16384D02*
G01Y16392D01*
Y16446D02*
G01Y16454D01*
X19616Y16465D02*
G01Y16457D01*
Y16403D02*
G01Y16395D01*
X20980Y14594D02*
G01X20972D01*
X20918D02*
G01X20910D01*
X20006Y14292D02*
G01Y14284D01*
Y14230D02*
G01Y14222D01*
X19759Y15079D02*
G01Y15071D01*
Y15017D02*
G01Y15009D01*
X19700Y13714D02*
G01Y13706D01*
Y13652D02*
G01Y13644D01*
X20735Y15324D02*
G01X20727D01*
X20673D02*
G01X20665D01*
X20064Y14223D02*
G01Y14231D01*
Y14285D02*
G01Y14293D01*
X19819Y15009D02*
G01Y15017D01*
Y15071D02*
G01Y15079D01*
X19885D02*
G01Y15071D01*
Y15017D02*
G01Y15009D01*
X19630Y13649D02*
G01X19622D01*
X19568D02*
G01X19560D01*
X20210Y14744D02*
G01X20218D01*
X20272D02*
G01X20280D01*
X19975Y14439D02*
G01Y14447D01*
Y14501D02*
G01Y14509D01*
X20297Y17691D02*
G01Y17699D01*
Y17753D02*
G01Y17761D01*
X20356Y17691D02*
G01Y17699D01*
Y17753D02*
G01Y17761D01*
X20175D02*
G01Y17753D01*
Y17699D02*
G01Y17691D01*
X21056Y16571D02*
G01Y16579D01*
Y16633D02*
G01Y16641D01*
X20768Y16851D02*
G01Y16843D01*
Y16789D02*
G01Y16781D01*
X21095Y16948D02*
G01X21087D01*
X21033D02*
G01X21025D01*
X20879Y16632D02*
G01Y16640D01*
Y16694D02*
G01Y16702D01*
X20938Y16783D02*
G01Y16791D01*
Y16845D02*
G01Y16853D01*
X20996Y16571D02*
G01Y16579D01*
Y16633D02*
G01Y16641D01*
X20826Y16851D02*
G01Y16843D01*
Y16789D02*
G01Y16781D01*
X21095Y17011D02*
G01X21087D01*
X21033D02*
G01X21025D01*
X20938Y16632D02*
G01Y16640D01*
Y16694D02*
G01Y16702D01*
X20884Y16783D02*
G01Y16791D01*
Y16845D02*
G01Y16853D01*
X19850Y15844D02*
G01X19842D01*
X19788D02*
G01X19780D01*
X19765Y17554D02*
G01X19757D01*
X19703D02*
G01X19695D01*
X19795Y15269D02*
G01X19787D01*
X19733D02*
G01X19725D01*
G54D59*
X20481Y17260D02*
G01X20497D01*
X20481Y17142D02*
G01X20497D01*
X20481Y17903D02*
G01X20497D01*
X20481Y17785D02*
G01X20497D01*
G54D60*
X20615Y18375D02*
G01Y18313D01*
X20590Y18375D02*
G01Y18313D01*
X20565Y18375D02*
G01Y18313D01*
X20540Y18375D02*
G01Y18313D01*
X20515Y18375D02*
G01Y18313D01*
X20490Y18375D02*
G01Y18313D01*
X20465Y18375D02*
G01Y18313D01*
X20440Y18375D02*
G01Y18313D01*
Y18170D02*
G01Y18108D01*
X20465Y18170D02*
G01Y18108D01*
X20490Y18170D02*
G01Y18108D01*
X20515Y18170D02*
G01Y18108D01*
X20540Y18170D02*
G01Y18108D01*
X20565Y18170D02*
G01Y18108D01*
X20590Y18170D02*
G01Y18108D01*
X20615Y18170D02*
G01Y18108D01*
G54D62*
X19085Y17905D02*
G01Y17968D01*
X19135Y17905D02*
G01Y17968D01*
X19185Y17905D02*
G01Y17968D01*
X19235Y17905D02*
G01Y17968D01*
Y18101D02*
G01Y18164D01*
X19185Y18101D02*
G01Y18164D01*
X19135Y18101D02*
G01Y18164D01*
X19085Y18101D02*
G01Y18164D01*
X19078Y14472D02*
G01Y14535D01*
X19128Y14472D02*
G01Y14535D01*
X19178Y14472D02*
G01Y14535D01*
X19228Y14472D02*
G01Y14535D01*
Y14668D02*
G01Y14731D01*
X19178Y14668D02*
G01Y14731D01*
X19128Y14668D02*
G01Y14731D01*
X19078Y14668D02*
G01Y14731D01*
X19889Y14404D02*
G01X19826D01*
X19889Y14454D02*
G01X19826D01*
X19889Y14504D02*
G01X19826D01*
X19889Y14554D02*
G01X19826D01*
X19693D02*
G01X19630D01*
X19693Y14504D02*
G01X19630D01*
X19693Y14454D02*
G01X19630D01*
X19693Y14404D02*
G01X19630D01*
G54D65*
X20816Y15499D02*
G01Y15480D01*
X20790Y15499D02*
G01Y15480D01*
X20764Y15499D02*
G01Y15480D01*
Y15424D02*
G01Y15405D01*
X20790Y15424D02*
G01Y15405D01*
X20816Y15424D02*
G01Y15405D01*
G54D66*
X20664Y14468D02*
G01X20609D01*
X20664Y14493D02*
G01X20609D01*
X20664Y14519D02*
G01X20609D01*
X20664Y14544D02*
G01X20609D01*
X20664Y14570D02*
G01X20609D01*
X20664Y14596D02*
G01X20609D01*
X20664Y14621D02*
G01X20609D01*
X20664Y14647D02*
G01X20609D01*
X20664Y14672D02*
G01X20609D01*
X20664Y14698D02*
G01X20609D01*
X20664Y14724D02*
G01X20609D01*
X20664Y14749D02*
G01X20609D01*
X20664Y14775D02*
G01X20609D01*
X20664Y14800D02*
G01X20609D01*
X20430D02*
G01X20375D01*
X20430Y14775D02*
G01X20375D01*
X20430Y14749D02*
G01X20375D01*
X20430Y14724D02*
G01X20375D01*
X20430Y14698D02*
G01X20375D01*
X20430Y14672D02*
G01X20375D01*
X20430Y14647D02*
G01X20375D01*
X20430Y14621D02*
G01X20375D01*
X20430Y14596D02*
G01X20375D01*
X20430Y14570D02*
G01X20375D01*
X20430Y14544D02*
G01X20375D01*
X20430Y14519D02*
G01X20375D01*
X20430Y14493D02*
G01X20375D01*
X20430Y14468D02*
G01X20375D01*
G54D68*
X20690Y16585D02*
G01X20665D01*
X20690Y16611D02*
G01X20665D01*
X20690Y16636D02*
G01X20665D01*
X20690Y16662D02*
G01X20665D01*
X20501D02*
G01X20477D01*
X20501Y16636D02*
G01X20477D01*
X20501Y16611D02*
G01X20477D01*
X20501Y16585D02*
G01X20477D01*
X20207Y14074D02*
G01X20183D01*
X20207Y14099D02*
G01X20183D01*
X20207Y14125D02*
G01X20183D01*
X20207Y14150D02*
G01X20183D01*
X20018D02*
G01X19994D01*
X20018Y14125D02*
G01X19994D01*
X20018Y14099D02*
G01X19994D01*
X20018Y14074D02*
G01X19994D01*
X20142Y16444D02*
G01X20166D01*
X20142Y16419D02*
G01X20166D01*
X20142Y16393D02*
G01X20166D01*
X20142Y16368D02*
G01X20166D01*
X20331D02*
G01X20355D01*
X20331Y16393D02*
G01X20355D01*
X20331Y16419D02*
G01X20355D01*
X20331Y16444D02*
G01X20355D01*
X19650Y18878D02*
G01X19674D01*
X19650Y18853D02*
G01X19674D01*
X19650Y18827D02*
G01X19674D01*
X19650Y18802D02*
G01X19674D01*
X19839D02*
G01X19863D01*
X19839Y18827D02*
G01X19863D01*
X19839Y18853D02*
G01X19863D01*
X19839Y18878D02*
G01X19863D01*
X20077Y17904D02*
G01X20053D01*
X20077Y17929D02*
G01X20053D01*
X20077Y17955D02*
G01X20053D01*
X20077Y17980D02*
G01X20053D01*
X19888D02*
G01X19864D01*
X19888Y17955D02*
G01X19864D01*
X19888Y17929D02*
G01X19864D01*
X19888Y17904D02*
G01X19864D01*
X19901Y15951D02*
G01X19877D01*
X19901Y15976D02*
G01X19877D01*
X19901Y16002D02*
G01X19877D01*
X19901Y16027D02*
G01X19877D01*
X19712D02*
G01X19688D01*
X19712Y16002D02*
G01X19688D01*
X19712Y15976D02*
G01X19688D01*
X19712Y15951D02*
G01X19688D01*
X19896Y14826D02*
G01X19872D01*
X19896Y14851D02*
G01X19872D01*
X19896Y14877D02*
G01X19872D01*
X19896Y14902D02*
G01X19872D01*
X19707D02*
G01X19683D01*
X19707Y14877D02*
G01X19683D01*
X19707Y14851D02*
G01X19683D01*
X19707Y14826D02*
G01X19683D01*
G54D69*
X20077Y18390D02*
G01X20063D01*
X20077Y18410D02*
G01X20063D01*
X20077Y18430D02*
G01X20063D01*
X20077Y18449D02*
G01X20063D01*
X20077Y18469D02*
G01X20063D01*
X20077Y18489D02*
G01X20063D01*
X20048Y18518D02*
G01Y18504D01*
X20028Y18518D02*
G01Y18504D01*
X20008Y18518D02*
G01Y18504D01*
X19989Y18518D02*
G01Y18504D01*
X19969Y18518D02*
G01Y18504D01*
X19949Y18518D02*
G01Y18504D01*
X19933Y18489D02*
G01X19920D01*
X19933Y18469D02*
G01X19920D01*
X19933Y18449D02*
G01X19920D01*
X19933Y18430D02*
G01X19920D01*
X19933Y18410D02*
G01X19920D01*
X19933Y18390D02*
G01X19920D01*
X19949Y18374D02*
G01Y18361D01*
X19969Y18374D02*
G01Y18361D01*
X19989Y18374D02*
G01Y18361D01*
X20008Y18374D02*
G01Y18361D01*
X20028Y18374D02*
G01Y18361D01*
X20048Y18374D02*
G01Y18361D01*
X20591Y14010D02*
G01Y13997D01*
X20571Y14010D02*
G01Y13997D01*
X20552Y14010D02*
G01Y13997D01*
X20532Y14010D02*
G01Y13997D01*
X20512Y14010D02*
G01Y13997D01*
X20493Y14010D02*
G01Y13997D01*
X20463Y13981D02*
G01X20477D01*
X20463Y13961D02*
G01X20477D01*
X20463Y13942D02*
G01X20477D01*
X20463Y13922D02*
G01X20477D01*
X20463Y13902D02*
G01X20477D01*
X20463Y13882D02*
G01X20477D01*
X20493Y13867D02*
G01Y13853D01*
X20512Y13867D02*
G01Y13853D01*
X20532Y13867D02*
G01Y13853D01*
X20552Y13867D02*
G01Y13853D01*
X20571Y13867D02*
G01Y13853D01*
X20591Y13867D02*
G01Y13853D01*
X20607Y13882D02*
G01X20621D01*
X20607Y13902D02*
G01X20621D01*
X20607Y13922D02*
G01X20621D01*
X20607Y13942D02*
G01X20621D01*
X20607Y13961D02*
G01X20621D01*
X20607Y13981D02*
G01X20621D01*
G54D71*
X20435Y15134D02*
G01X20415D01*
X20435Y15244D02*
G01X20415D01*
X20320Y15134D02*
G01X20300D01*
X20320Y15244D02*
G01X20300D01*
X20556Y15134D02*
G01X20536D01*
X20556Y15244D02*
G01X20536D01*
X20170D02*
G01X20190D01*
X20170Y15134D02*
G01X20190D01*
X20670Y18684D02*
G01X20690D01*
X20670Y18574D02*
G01X20690D01*
X20530Y18684D02*
G01X20550D01*
X20530Y18574D02*
G01X20550D01*
X20930Y18109D02*
G01Y18089D01*
X20820Y18109D02*
G01Y18089D01*
X20930Y17984D02*
G01Y17964D01*
X20820Y17984D02*
G01Y17964D01*
G54D73*
X20070Y18590D02*
G01X20077D01*
X20018D02*
G01X20025D01*
X19970Y18636D02*
G01Y18644D01*
Y18584D02*
G01Y18592D01*
X20395Y13972D02*
G01Y13980D01*
Y13920D02*
G01Y13928D01*
X20343Y13884D02*
G01X20336D01*
X20395D02*
G01X20388D01*
X20026Y18635D02*
G01X20019D01*
X20078D02*
G01X20071D01*
X19928Y18636D02*
G01Y18644D01*
Y18584D02*
G01Y18592D01*
X20350Y13928D02*
G01Y13920D01*
Y13980D02*
G01Y13972D01*
X20343Y13844D02*
G01X20336D01*
X20395D02*
G01X20388D01*
G54D74*
X19803Y13647D02*
G01Y13655D01*
X20003Y13647D02*
G01Y13655D01*
Y13813D02*
G01Y13821D01*
X19803Y13813D02*
G01Y13821D01*
X19115Y18292D02*
G01Y18300D01*
X19315Y18292D02*
G01Y18300D01*
Y18458D02*
G01Y18466D01*
X19115Y18458D02*
G01Y18466D01*
M02*
