*
*
G04 PowerPCB (Build Number 501.037) generated Gerber (RS-274-X) file*
G04 PC Version=2.1*
*
%IN "FLEX-2400 Rev 1.1.pcb"*%
*
%MOIN*%
*
%FSLAX35Y35*%
*
*
*
*
G04 PC Standard Apertures*
*
*
G04 Thermal Relief Aperture macro.*
%AMTER*
1,1,$1,0,0*
1,0,$1-$2,0,0*
21,0,$3,$4,0,0,45*
21,0,$3,$4,0,0,135*
%
*
*
G04 Annular Aperture macro.*
%AMANN*
1,1,$1,0,0*
1,0,$2,0,0*
%
*
*
G04 Odd Aperture macro.*
%AMODD*
1,1,$1,0,0*
1,0,$1-0.005,0,0*
%
*
*
G04 PC Custom Aperture Macros*
*
*
*
*
*
*
G04 PC Aperture Table*
*
%ADD010C,0.01*%
%ADD022R,0.03X0.038*%
%ADD023R,0.038X0.03*%
%ADD038R,0.06X0.06*%
%ADD052R,0.024X0.092*%
*
*
*
*
G04 PC Custom Flashes*
G04 Layer Name FLEX-2400 Rev 1.1.pcb - flashes*
%LPD*%
*
*
G04 PC Circuitry*
G04 Layer Name FLEX-2400 Rev 1.1.pcb - circuitry*
%LPD*%
*
G54D10*
G01X1862500Y1349953D02*
Y1909953D01*
X2137500*
Y1349953*
X1862500*
X1922931Y1296609D02*
Y1290046D01*
Y1296609D02*
X1924977D01*
X1925659Y1296296*
X1925659D02*
X1925886Y1295984D01*
X1926113Y1295359*
X1926113D02*
Y1294421D01*
X1926113D02*
X1925886Y1293796D01*
X1925886D02*
X1925659Y1293484D01*
X1924977Y1293171*
X1924977D02*
X1922931D01*
X1929977Y1296609D02*
X1928159Y1290046D01*
X1929977Y1296609D02*
X1931795Y1290046D01*
X1928840Y1292234D02*
X1931113D01*
X1937022Y1295671D02*
X1936568Y1296296D01*
X1936568D02*
X1935886Y1296609D01*
X1934977*
X1934295Y1296296*
X1934295D02*
X1933840Y1295671D01*
X1933840D02*
Y1295046D01*
X1933840D02*
X1934068Y1294421D01*
X1934068D02*
X1934295Y1294109D01*
X1934750Y1293796*
X1934750D02*
X1936113Y1293171D01*
X1936113D02*
X1936568Y1292859D01*
X1936795Y1292546*
X1936795D02*
X1937022Y1291921D01*
X1937022D02*
Y1290984D01*
X1937022D02*
X1936568Y1290359D01*
X1935886Y1290046*
X1935886D02*
X1934977D01*
X1934977D02*
X1934295Y1290359D01*
X1933840Y1290984*
X1940659Y1296609D02*
Y1290046D01*
X1939068Y1296609D02*
X1942250D01*
X1944295D02*
Y1290046D01*
Y1296609D02*
X1947250D01*
X1944295Y1293484D02*
X1946113D01*
X1944295Y1290046D02*
X1947250D01*
X1953386Y1296609D02*
Y1290046D01*
Y1296609D02*
X1955204Y1290046D01*
X1957022Y1296609D02*
X1955204Y1290046D01*
X1957022Y1296609D02*
Y1290046D01*
X1960886Y1296609D02*
X1959068Y1290046D01*
X1960886Y1296609D02*
X1962704Y1290046D01*
X1959750Y1292234D02*
X1962022D01*
X1967931Y1295671D02*
X1967477Y1296296D01*
X1967477D02*
X1966795Y1296609D01*
X1965886*
X1965204Y1296296*
X1965204D02*
X1964750Y1295671D01*
X1964750D02*
Y1295046D01*
X1964750D02*
X1964977Y1294421D01*
X1964977D02*
X1965204Y1294109D01*
X1965204D02*
X1965659Y1293796D01*
X1965659D02*
X1967022Y1293171D01*
X1967022D02*
X1967477Y1292859D01*
X1967704Y1292546*
X1967704D02*
X1967931Y1291921D01*
X1967931D02*
Y1290984D01*
X1967931D02*
X1967477Y1290359D01*
X1966795Y1290046*
X1966795D02*
X1965886D01*
X1965886D02*
X1965204Y1290359D01*
X1965204D02*
X1964750Y1290984D01*
X1969977Y1296609D02*
Y1290046D01*
X1973159Y1296609D02*
X1969977Y1292234D01*
X1971113Y1293796D02*
X1973159Y1290046D01*
X1979295Y1296609D02*
Y1290046D01*
Y1296609D02*
X1981340D01*
X1981340D02*
X1982022Y1296296D01*
X1982022D02*
X1982250Y1295984D01*
X1982477Y1295359*
Y1294734*
X1982250Y1294109*
X1982022Y1293796*
X1982022D02*
X1981340Y1293484D01*
X1979295D02*
X1981340D01*
X1981340D02*
X1982022Y1293171D01*
X1982022D02*
X1982250Y1292859D01*
X1982477Y1292234*
Y1291296*
X1982477D02*
X1982250Y1290671D01*
X1982250D02*
X1982022Y1290359D01*
X1982022D02*
X1981340Y1290046D01*
X1981340D02*
X1979295D01*
X1985886Y1296609D02*
X1985431Y1296296D01*
X1985431D02*
X1984977Y1295671D01*
X1984977D02*
X1984750Y1295046D01*
X1984750D02*
X1984522Y1294109D01*
X1984522D02*
Y1292546D01*
X1984522D02*
X1984750Y1291609D01*
X1984977Y1290984*
X1985431Y1290359*
X1985431D02*
X1985886Y1290046D01*
X1985886D02*
X1986795D01*
X1986795D02*
X1987250Y1290359D01*
X1987704Y1290984*
X1987704D02*
X1987931Y1291609D01*
X1987931D02*
X1988159Y1292546D01*
X1988159D02*
Y1294109D01*
X1987931Y1295046*
X1987931D02*
X1987704Y1295671D01*
X1987704D02*
X1987250Y1296296D01*
X1987250D02*
X1986795Y1296609D01*
X1985886*
X1991795D02*
Y1290046D01*
X1990204Y1296609D02*
X1993386D01*
X1997022D02*
Y1290046D01*
X1995431Y1296609D02*
X1998613D01*
X2002022D02*
X2001568Y1296296D01*
X2001568D02*
X2001113Y1295671D01*
X2001113D02*
X2000886Y1295046D01*
X2000886D02*
X2000659Y1294109D01*
Y1292546*
X2000659D02*
X2000886Y1291609D01*
X2001113Y1290984*
X2001113D02*
X2001568Y1290359D01*
X2002022Y1290046*
X2002022D02*
X2002931D01*
X2002931D02*
X2003386Y1290359D01*
X2003840Y1290984*
X2003840D02*
X2004068Y1291609D01*
X2004295Y1292546*
X2004295D02*
Y1294109D01*
X2004068Y1295046*
X2004068D02*
X2003840Y1295671D01*
X2003840D02*
X2003386Y1296296D01*
X2003386D02*
X2002931Y1296609D01*
X2002931D02*
X2002022D01*
X2006340D02*
Y1290046D01*
Y1296609D02*
X2008159Y1290046D01*
X2009977Y1296609D02*
X2008159Y1290046D01*
X2009977Y1296609D02*
Y1290046D01*
G54D22*
X1987300Y1858453D03*
Y1864653D03*
X2042100Y1376853D03*
Y1370653D03*
X2040500Y1464053D03*
Y1457853D03*
X2062000Y1475053D03*
Y1468853D03*
X1996500Y1827553D03*
Y1821353D03*
X2021500Y1448353D03*
Y1454553D03*
X2010000Y1791853D03*
Y1785653D03*
X2022500Y1791853D03*
Y1785653D03*
X2011500Y1738553D03*
Y1732353D03*
X2017500Y1738553D03*
Y1732353D03*
X2005000Y1738553D03*
Y1732353D03*
X2016000Y1791853D03*
Y1785653D03*
X2007000Y1467353D03*
Y1473553D03*
X2019000Y1467353D03*
Y1473553D03*
X2014500Y1522853D03*
Y1529053D03*
X2023000Y1522353D03*
Y1528553D03*
X2009000Y1522853D03*
Y1529053D03*
X2013000Y1467353D03*
Y1473553D03*
X2062000Y1455353D03*
Y1461553D03*
X2040500Y1450553D03*
Y1444353D03*
G54D23*
X2048700Y1408653D03*
X2042500D03*
X2059900Y1447953D03*
X2066100D03*
X2018600Y1828453D03*
X2012400D03*
X2056300Y1408553D03*
X2062500D03*
X2045600Y1470953D03*
X2039400D03*
G54D38*
X2065081Y1375145D03*
X2051581D03*
X1978100Y1867103D03*
Y1853603D03*
G54D52*
X1957500Y1489556D03*
Y1504320D03*
X1961437Y1489556D03*
Y1504320D03*
X1965374Y1489556D03*
Y1504320D03*
X1969311Y1489556D03*
Y1504320D03*
X1973248Y1489556D03*
Y1504320D03*
X1977185Y1489556D03*
Y1504320D03*
X1981122Y1489556D03*
Y1504320D03*
X1985059Y1489556D03*
Y1504320D03*
X1988996Y1489556D03*
Y1504320D03*
X1992933Y1489556D03*
Y1504320D03*
X1996870Y1489556D03*
Y1504320D03*
X2000807Y1489556D03*
Y1504320D03*
X2004744Y1489556D03*
Y1504320D03*
X2008681Y1489556D03*
Y1504320D03*
X2012618Y1489556D03*
Y1504320D03*
X2016555Y1489556D03*
Y1504320D03*
X2020492Y1489556D03*
Y1504320D03*
X2024429Y1489556D03*
Y1504320D03*
X2028366Y1489556D03*
Y1504320D03*
X2032303Y1489556D03*
Y1504320D03*
X2036240Y1489556D03*
Y1504320D03*
X2040177Y1489556D03*
Y1504320D03*
X2044114Y1489556D03*
Y1504320D03*
X2048051Y1489556D03*
Y1504320D03*
X2051988Y1489556D03*
Y1504320D03*
X2055925Y1489556D03*
Y1504320D03*
X2059862Y1489556D03*
Y1504320D03*
X2063799Y1489556D03*
Y1504320D03*
X2067736Y1489556D03*
Y1504320D03*
X2071673Y1489556D03*
Y1504320D03*
X2075610Y1489556D03*
Y1504320D03*
X2079547Y1489556D03*
Y1504320D03*
X1957500Y1755559D03*
Y1770323D03*
X1961437Y1755559D03*
Y1770323D03*
X1965374Y1755559D03*
Y1770323D03*
X1969311Y1755559D03*
Y1770323D03*
X1973248Y1755559D03*
Y1770323D03*
X1977185Y1755559D03*
Y1770323D03*
X1981122Y1755559D03*
Y1770323D03*
X1985059Y1755559D03*
Y1770323D03*
X1988996Y1755559D03*
Y1770323D03*
X1992933Y1755559D03*
Y1770323D03*
X1996870Y1755559D03*
Y1770323D03*
X2000807Y1755559D03*
Y1770323D03*
X2004744Y1755559D03*
Y1770323D03*
X2008681Y1755559D03*
Y1770323D03*
X2012618Y1755559D03*
Y1770323D03*
X2016555Y1755559D03*
Y1770323D03*
X2020492Y1755559D03*
Y1770323D03*
X2024429Y1755559D03*
Y1770323D03*
X2028366Y1755559D03*
Y1770323D03*
X2032303Y1755559D03*
Y1770323D03*
X2036240Y1755559D03*
Y1770323D03*
X2040177Y1755559D03*
Y1770323D03*
X2044114Y1755559D03*
Y1770323D03*
X2048051Y1755559D03*
Y1770323D03*
X2051988Y1755559D03*
Y1770323D03*
X2055925Y1755559D03*
Y1770323D03*
X2059862Y1755559D03*
Y1770323D03*
X2063799Y1755559D03*
Y1770323D03*
X2067736Y1755559D03*
Y1770323D03*
X2071673Y1755559D03*
Y1770323D03*
X2075610Y1755559D03*
Y1770323D03*
X2079547Y1755559D03*
Y1770323D03*
X0Y0D02*
M02*
