*
*
G04 PowerPCB (Build Number 501.037) generated Gerber (RS-274-X) file*
G04 PC Version=2.1*
*
%IN "FLEX-2400 Rev 1.1.pcb"*%
*
%MOIN*%
*
%FSLAX35Y35*%
*
*
*
*
G04 PC Standard Apertures*
*
*
G04 Thermal Relief Aperture macro.*
%AMTER*
1,1,$1,0,0*
1,0,$1-$2,0,0*
21,0,$3,$4,0,0,45*
21,0,$3,$4,0,0,135*
%
*
*
G04 Annular Aperture macro.*
%AMANN*
1,1,$1,0,0*
1,0,$2,0,0*
%
*
*
G04 Odd Aperture macro.*
%AMODD*
1,1,$1,0,0*
1,0,$1-0.005,0,0*
%
*
*
G04 PC Custom Aperture Macros*
*
*
*
*
*
*
G04 PC Aperture Table*
*
%ADD010C,0.01*%
%ADD028C,0.098*%
%ADD039C,0.06*%
%ADD051C,0.03*%
*
*
*
*
G04 PC Custom Flashes*
G04 Layer Name FLEX-2400 Rev 1.1.pcb - flashes*
%LPD*%
*
*
G04 PC Circuitry*
G04 Layer Name FLEX-2400 Rev 1.1.pcb - circuitry*
%LPD*%
*
G54D10*
G01X1862500Y1348000D02*
Y1908000D01*
X2137500*
Y1348000*
X1862500*
X1926909Y1293250D02*
X1926681Y1293875D01*
X1926681D02*
X1926227Y1294500D01*
X1925772Y1294812*
X1925772D02*
X1924863D01*
X1924863D02*
X1924409Y1294500D01*
X1923954Y1293875*
X1923954D02*
X1923727Y1293250D01*
X1923500Y1292312*
X1923500D02*
Y1290750D01*
X1923727Y1289812*
X1923727D02*
X1923954Y1289187D01*
X1923954D02*
X1924409Y1288562D01*
X1924409D02*
X1924863Y1288250D01*
X1924863D02*
X1925772D01*
X1925772D02*
X1926227Y1288562D01*
X1926227D02*
X1926681Y1289187D01*
X1926681D02*
X1926909Y1289812D01*
X1926909D02*
Y1290750D01*
X1925772D02*
X1926909D01*
X1928954Y1294812D02*
Y1288250D01*
Y1294812D02*
X1931000D01*
X1931000D02*
X1931681Y1294500D01*
X1931681D02*
X1931909Y1294187D01*
X1931909D02*
X1932136Y1293562D01*
X1932136D02*
Y1292937D01*
X1932136D02*
X1931909Y1292312D01*
X1931909D02*
X1931681Y1292000D01*
X1931681D02*
X1931000Y1291687D01*
X1931000D02*
X1928954D01*
X1930545D02*
X1932136Y1288250D01*
X1935545Y1294812D02*
X1935090Y1294500D01*
X1935090D02*
X1934636Y1293875D01*
X1934409Y1293250*
X1934181Y1292312*
X1934181D02*
Y1290750D01*
X1934181D02*
X1934409Y1289812D01*
X1934409D02*
X1934636Y1289187D01*
X1934636D02*
X1935090Y1288562D01*
X1935090D02*
X1935545Y1288250D01*
X1936454*
X1936454D02*
X1936909Y1288562D01*
X1936909D02*
X1937363Y1289187D01*
X1937363D02*
X1937590Y1289812D01*
X1937590D02*
X1937818Y1290750D01*
Y1292312*
X1937818D02*
X1937590Y1293250D01*
X1937590D02*
X1937363Y1293875D01*
X1937363D02*
X1936909Y1294500D01*
X1936454Y1294812*
X1936454D02*
X1935545D01*
X1939863D02*
Y1290125D01*
X1939863D02*
X1940090Y1289187D01*
X1940090D02*
X1940545Y1288562D01*
X1940545D02*
X1941227Y1288250D01*
X1941681*
X1941681D02*
X1942363Y1288562D01*
X1942363D02*
X1942818Y1289187D01*
X1942818D02*
X1943045Y1290125D01*
Y1294812*
X1945090D02*
Y1288250D01*
Y1294812D02*
X1948272Y1288250D01*
Y1294812D02*
Y1288250D01*
X1950318Y1294812D02*
Y1288250D01*
Y1294812D02*
X1951909D01*
X1951909D02*
X1952590Y1294500D01*
X1952590D02*
X1953045Y1293875D01*
X1953272Y1293250*
X1953272D02*
X1953500Y1292312D01*
X1953500D02*
Y1290750D01*
X1953272Y1289812*
X1953272D02*
X1953045Y1289187D01*
X1953045D02*
X1952590Y1288562D01*
X1952590D02*
X1951909Y1288250D01*
X1950318*
X1959636Y1294812D02*
Y1288250D01*
Y1294812D02*
X1961681D01*
X1961681D02*
X1962363Y1294500D01*
X1962363D02*
X1962590Y1294187D01*
X1962590D02*
X1962818Y1293562D01*
X1962818D02*
Y1292625D01*
X1962590Y1292000*
X1962590D02*
X1962363Y1291687D01*
X1962363D02*
X1961681Y1291375D01*
X1961681D02*
X1959636D01*
X1964863Y1294812D02*
Y1288250D01*
X1964863D02*
X1967590D01*
X1971454Y1294812D02*
X1969636Y1288250D01*
X1971454Y1294812D02*
X1973272Y1288250D01*
X1970318Y1290437D02*
X1972590D01*
X1975318Y1294812D02*
Y1288250D01*
Y1294812D02*
X1978500Y1288250D01*
Y1294812D02*
Y1288250D01*
X1980545Y1294812D02*
Y1288250D01*
Y1294812D02*
X1983500D01*
X1980545Y1291687D02*
X1982363D01*
X1980545Y1288250D02*
X1983500D01*
X1989636Y1294812D02*
Y1288250D01*
X1992363*
X1996227Y1294812D02*
X1994409Y1288250D01*
X1996227Y1294812D02*
X1998045Y1288250D01*
X1995090Y1290437D02*
X1997363D01*
X2000090Y1294812D02*
X2001909Y1291687D01*
X2001909D02*
Y1288250D01*
X2003727Y1294812D02*
X2001909Y1291687D01*
X2005772Y1294812D02*
Y1288250D01*
Y1294812D02*
X2008727D01*
X2005772Y1291687D02*
X2007590D01*
X2005772Y1288250D02*
X2008727D01*
X2010772Y1294812D02*
Y1288250D01*
Y1294812D02*
X2012818D01*
X2012818D02*
X2013500Y1294500D01*
X2013727Y1294187*
X2013727D02*
X2013954Y1293562D01*
X2013954D02*
Y1292937D01*
X2013954D02*
X2013727Y1292312D01*
X2013727D02*
X2013500Y1292000D01*
X2012818Y1291687*
X2012818D02*
X2010772D01*
X2012363D02*
X2013954Y1288250D01*
X2020318Y1293250D02*
Y1293562D01*
X2020318D02*
X2020545Y1294187D01*
X2020545D02*
X2020772Y1294500D01*
X2020772D02*
X2021227Y1294812D01*
X2021227D02*
X2022136D01*
X2022136D02*
X2022590Y1294500D01*
X2022590D02*
X2022818Y1294187D01*
X2022818D02*
X2023045Y1293562D01*
X2023045D02*
Y1292937D01*
X2023045D02*
X2022818Y1292312D01*
X2022818D02*
X2022363Y1291375D01*
X2022363D02*
X2020090Y1288250D01*
X2020090D02*
X2023272D01*
X1881000Y1741500D02*
G75*
G03X1881000I-4500D01*
G01Y1751500D02*
G03X1881000I-4500D01*
G01Y1761500D02*
G03X1881000I-4500D01*
G01Y1771500D02*
G03X1881000I-4500D01*
G01Y1781500D02*
G03X1881000I-4500D01*
G01Y1791500D02*
G03X1881000I-4500D01*
G01Y1801500D02*
G03X1881000I-4500D01*
G01X1933000Y1500500D02*
G03X1933000I-3000D01*
G01X1925800Y1457600D02*
G03X1925800I-3000D01*
G01X1920800Y1461200D02*
G03X1920800I-3000D01*
G01X1911100Y1474700D02*
G03X1911100I-3500D01*
G01X1881000Y1448000D02*
G03X1881000I-4500D01*
G01Y1458000D02*
G03X1881000I-4500D01*
G01Y1468000D02*
G03X1881000I-4500D01*
G01Y1478000D02*
G03X1881000I-4500D01*
G01Y1488000D02*
G03X1881000I-4500D01*
G01Y1498000D02*
G03X1881000I-4500D01*
G01Y1508000D02*
G03X1881000I-4500D01*
G01X2130250Y1363000D02*
G03X2130250I-7750D01*
G01X2117500Y1419500D02*
G03X2117500I-3500D01*
G01X2123500Y1426500D02*
G03X2123500I-3500D01*
G01X2111000D02*
G03X2111000I-3500D01*
G01X2116500Y1447500D02*
G03X2116500I-3000D01*
G01X2130250Y1583000D02*
G03X2130250I-7750D01*
G01Y1673000D02*
G03X2130250I-7750D01*
G01X2130413Y1892929D02*
G03X2130413I-7749D01*
G01X2103800Y1443700D02*
G03X2103800I-3000D01*
G01X2111550Y1719900D02*
G03X2111550I-8650D01*
G01X2111900Y1793100D02*
G03X2111900I-5500D01*
G01Y1810200D02*
G03X2111900I-5500D01*
G01X2091500Y1432500D02*
G03X2091500I-3000D01*
G01X2092000Y1438500D02*
G03X2092000I-3000D01*
G01X2091000Y1446500D02*
G03X2091000I-3000D01*
G01X2084000Y1375000D02*
G03X2084000I-4500D01*
G01X2090490Y1494985D02*
G03X2090490I-4249D01*
G01Y1760988D02*
G03X2090490I-4249D01*
G01X2096500Y1776000D02*
G03X2096500I-3500D01*
G01X2068500Y1367500D02*
G03X2068500I-3500D01*
G01X2074100Y1373200D02*
G03X2074100I-3500D01*
G01X2075500Y1387500D02*
G03X2075500I-3500D01*
G01X2080700Y1413800D02*
G03X2080700I-3000D01*
G01X2070600Y1392500D02*
G03X2070600I-3500D01*
G01X2070500Y1406600D02*
G03X2070500I-3500D01*
G01X2075200Y1455105D02*
G03X2075200I-3000D01*
G01X2080500Y1480500D02*
G03X2080500I-3000D01*
G01X2073000Y1480000D02*
G03X2073000I-3000D01*
G01Y1494500D02*
G03X2073000I-3000D01*
G01X2057100Y1365000D02*
G03X2057100I-3000D01*
G01X2060700Y1402300D02*
G03X2060700I-3500D01*
G01X2064800Y1413800D02*
G03X2064800I-3500D01*
G01X2050600Y1402500D02*
G03X2050600I-3500D01*
G01X2046000Y1410500D02*
G03X2046000I-3500D01*
G01X2051000Y1462000D02*
G03X2051000I-3500D01*
G01X2057000Y1463500D02*
G03X2057000I-3000D01*
G01X2061000Y1471000D02*
G03X2061000I-3500D01*
G01X2064000Y1480500D02*
G03X2064000I-3000D01*
G01X2077850Y1616500D02*
G03X2077850I-8650D01*
G01X2052900Y1480500D02*
G03X2052900I-3000D01*
G01X2076300Y1667300D02*
G03X2076300I-3500D01*
G01X2071600Y1878900D02*
G03X2071600I-3000D01*
G01X2063200Y1800500D02*
G03X2063200I-3500D01*
G01X2056800Y1879700D02*
G03X2056800I-3000D01*
G01X2047600Y1535400D02*
G03X2047600I-3000D01*
G01X2038100Y1411300D02*
G03X2038100I-3000D01*
G01X2034500Y1457000D02*
G03X2034500I-3000D01*
G01X2037500Y1467000D02*
G03X2037500I-3000D01*
G01X2037000Y1473500D02*
G03X2037000I-3500D01*
G01X2043000Y1708500D02*
G03X2043000I-3500D01*
G01X2045400Y1800100D02*
G03X2045400I-3500D01*
G01X2031400Y1494800D02*
G03X2031400I-3000D01*
G01X2017550Y1429500D02*
G03X2017550I-3000D01*
G01X2024500Y1458000D02*
G03X2024500I-3000D01*
G01X2030000Y1570500D02*
G03X2030000I-3000D01*
G01X2014500Y1459000D02*
G03X2014500I-3000D01*
G01X2018500Y1478500D02*
G03X2018500I-3000D01*
G01X2024600Y1634900D02*
G03X2024600I-3500D01*
G01X2031300Y1745000D02*
G03X2031300I-3000D01*
G01X2021100Y1833900D02*
G03X2021100I-3500D01*
G01X2029000Y1880700D02*
G03X2029000I-3500D01*
G01X2028900Y1890800D02*
G03X2028900I-3500D01*
G01X2020000Y1870100D02*
G03X2020000I-3000D01*
G01X1976500Y1393000D02*
G03X1976500I-3500D01*
G01X1982000Y1495500D02*
G03X1982000I-3000D01*
G01X1981000Y1516400D02*
G03X1981000I-3500D01*
G01X1988000Y1589500D02*
G03X1988000I-3500D01*
G01X1987500Y1614500D02*
G03X1987500I-3500D01*
G01X1994000Y1672500D02*
G03X1994000I-3500D01*
G01X1991000Y1727500D02*
G03X1991000I-3000D01*
G01X1995500Y1740500D02*
G03X1995500I-3000D01*
G01X2000000Y1761000D02*
G03X2000000I-3000D01*
G01X2002300Y1780300D02*
G03X2002300I-3000D01*
G01X2013000Y1848000D02*
G03X2013000I-3500D01*
G01X1965000Y1393000D02*
G03X1965000I-3500D01*
G01X1971000Y1398500D02*
G03X1971000I-3500D01*
G01X1976000Y1529000D02*
G03X1976000I-3000D01*
G01X1986500Y1731500D02*
G03X1986500I-3000D01*
G01X1989500Y1809500D02*
G03X1989500I-3500D01*
G01X1963000Y1401500D02*
G03X1963000I-3500D01*
G01Y1414000D02*
G03X1963000I-3500D01*
G01X1969500Y1435000D02*
G03X1969500I-3500D01*
G01X1972000Y1534000D02*
G03X1972000I-3000D01*
G01X1972500Y1573500D02*
G03X1972500I-3000D01*
G01X1977500Y1724000D02*
G03X1977500I-3000D01*
G01X1978500Y1760500D02*
G03X1978500I-3000D01*
G01X1981500Y1809000D02*
G03X1981500I-3000D01*
G01X1985600Y1820600D02*
G03X1985600I-4500D01*
G01X1986000Y1831000D02*
G03X1986000I-3000D01*
G01X1983000Y1880500D02*
G03X1983000I-3000D01*
G01X1967500Y1619500D02*
G03X1967500I-3500D01*
G01X1973400Y1885900D02*
G03X1973400I-3500D01*
G01X1965000Y1648500D02*
G03X1965000I-3500D01*
G01X1965500Y1775500D02*
G03X1965500I-3500D01*
G01X1966300Y1883400D02*
G03X1966300I-3500D01*
G01X1951800Y1480500D02*
G03X1951800I-3500D01*
G01X1955057Y1494985D02*
G03X1955057I-4249D01*
G01Y1760988D02*
G03X1955057I-4249D01*
G01X1885250Y1363000D02*
G03X1885250I-7750D01*
G01X1925250Y1543000D02*
G03X1925250I-7750D01*
G01Y1713000D02*
G03X1925250I-7750D01*
G01X1901000Y1534500D02*
G03X1901000I-3000D01*
G01X1889000Y1838200D02*
G03X1889000I-3500D01*
G01X1882800Y1844300D02*
G03X1882800I-3500D01*
G01X1889000Y1850200D02*
G03X1889000I-3500D01*
G01X1885250Y1893000D02*
G03X1885250I-7750D01*
G01X2019000Y1743500D02*
G03X2019000I-3000D01*
G01X2007000Y1389000D02*
G03X2007000I-5500D01*
G01X2005500Y1448500D02*
G03X2005500I-3000D01*
G01X2005800Y1456000D02*
G03X2005800I-3000D01*
G01X2006000Y1463000D02*
G03X2006000I-3000D01*
G01X1995200Y1426800D02*
G03X1995200I-3500D01*
G01X1994500Y1460500D02*
G03X1994500I-5500D01*
G01X2000150Y1469650D02*
G03X2000150I-3000D01*
G01X1991500Y1521500D02*
G03X1991500I-3000D01*
G01X2000800Y1658000D02*
G03X2000800I-3500D01*
G01X2001500Y1735500D02*
G03X2001500I-3000D01*
G01X2020700Y1803400D02*
G03X2020700I-3000D01*
G01X1930999Y1735500D02*
Y1818499D01*
X1930999D02*
X1866000D01*
X1866000D02*
Y1735500D01*
X1930999*
X1934499Y1437500D02*
Y1525999D01*
X1934499D02*
X1866000D01*
X1866000D02*
Y1437500D01*
X1904901*
X1909868Y1439664D02*
G03X1904901Y1437500I-1968J-2264D01*
G01X1913877D02*
G03X1909868Y1439664I-1077J2800D01*
G01X1913877Y1437500D02*
X1934499D01*
X2135900Y1349600D02*
Y1906400D01*
X1864100*
Y1820500*
X1865990*
X1866000D02*
G03X1865990Y1820499I0J-2000D01*
G01X1866000Y1820500D02*
X1931000D01*
X1931009Y1820499D02*
G03X1931000Y1820500I-9J-1999D01*
G01X1931009D02*
X1933000D01*
Y1818509*
Y1818500D02*
G03X1932999Y1818509I-2000J0D01*
G01X1933000Y1818500D02*
Y1735500D01*
X1932999Y1735490D02*
G03X1933000Y1735500I-1999J10D01*
G01Y1735490D02*
Y1733500D01*
X1931009*
X1931000Y1733499D02*
G03X1931009Y1733500I0J2001D01*
G01X1931000Y1733499D02*
X1866000D01*
X1865990Y1733500D02*
G03X1866000Y1733499I10J2000D01*
G01X1865990Y1733500D02*
X1864100D01*
Y1528000*
X1865990*
X1866000D02*
G03X1865990Y1527999I0J-2000D01*
G01X1866000Y1528000D02*
X1883473D01*
X1887017Y1532826D02*
G03X1883473Y1528000I-1617J-2526D01*
G01X1888777Y1535239D02*
G03X1887017Y1532826I1223J-2739D01*
G01X1892722Y1533760D02*
G03X1888777Y1535239I-1222J2740D01*
G01X1888382Y1529973D02*
G03X1892722Y1533760I1618J2527D01*
G01X1887326Y1528000D02*
G03X1888382Y1529973I-1926J2300D01*
G01X1887326Y1528000D02*
X1934500D01*
X1934509Y1527999D02*
G03X1934500Y1528000I-9J-1999D01*
G01X1934509D02*
X1936500D01*
Y1526009*
Y1526000D02*
G03X1936499Y1526009I-2000J0D01*
G01X1936500Y1526000D02*
Y1437500D01*
X1936499Y1437490D02*
G03X1936500Y1437500I-1999J10D01*
G01Y1437490D02*
Y1435500D01*
X1934509*
X1934500Y1435499D02*
G03X1934509Y1435500I0J2001D01*
G01X1934500Y1435499D02*
X1910221D01*
X1905578D02*
G03X1910221I2322J1901D01*
G01X1905578D02*
X1866000D01*
X1865990Y1435500D02*
G03X1866000Y1435499I10J2000D01*
G01X1865990Y1435500D02*
X1864100D01*
Y1349600*
X2135900*
X1920133Y1781651D02*
G03X1920266Y1786448I1867J2349D01*
G01X1920266D02*
G03X1920133Y1781651I-1866J-2348D01*
G01X1911474Y1796504D02*
G03X1911325Y1800095I2326J1896D01*
G01X1911325D02*
G03X1911474Y1796504I-2325J-1895D01*
G01X1921872Y1802101D02*
G03X1921327Y1806098I1928J2299D01*
G01X1921327D02*
G03X1921872Y1802101I-1927J-2298D01*
G01X1904816Y1808386D02*
G03X1903283Y1808413I-716J2914D01*
G01X1903283D02*
G03X1904816Y1808386I717J-2913D01*
G01X1881000Y1741500D02*
G03X1881000I-4500D01*
G01Y1751500D02*
G03X1881000I-4500D01*
G01Y1761500D02*
G03X1881000I-4500D01*
G01Y1771500D02*
G03X1881000I-4500D01*
G01Y1781500D02*
G03X1881000I-4500D01*
G01Y1791500D02*
G03X1881000I-4500D01*
G01Y1801500D02*
G03X1881000I-4500D01*
G01Y1815500D02*
Y1807500D01*
X1880500Y1806999D02*
G03X1881000Y1807500I0J501D01*
G01X1880500Y1806999D02*
X1872500D01*
X1871999Y1807500D02*
G03X1872500Y1806999I501J0D01*
G01X1871999Y1807500D02*
Y1815500D01*
X1872500Y1816000D02*
G03X1871999Y1815500I0J-500D01*
G01X1872500Y1816000D02*
X1880500D01*
X1881000Y1815500D02*
G03X1880500Y1816000I-500J0D01*
G01X1933000Y1500500D02*
G03X1933000I-3000D01*
G01X1925800Y1457600D02*
G03X1925800I-3000D01*
G01X1920800Y1461200D02*
G03X1920800I-3000D01*
G01X1924114Y1492710D02*
G03X1919785Y1492789I-2114J2790D01*
G01X1919785D02*
G03X1924114Y1492710I2115J-2789D01*
G01X1911100Y1474700D02*
G03X1911100I-3500D01*
G01X1881000Y1448000D02*
G03X1881000I-4500D01*
G01Y1458000D02*
G03X1881000I-4500D01*
G01Y1468000D02*
G03X1881000I-4500D01*
G01Y1478000D02*
G03X1881000I-4500D01*
G01Y1488000D02*
G03X1881000I-4500D01*
G01Y1498000D02*
G03X1881000I-4500D01*
G01Y1508000D02*
G03X1881000I-4500D01*
G01Y1522000D02*
Y1514000D01*
X1880500Y1513499D02*
G03X1881000Y1514000I0J501D01*
G01X1880500Y1513499D02*
X1872500D01*
X1871999Y1514000D02*
G03X1872500Y1513499I501J0D01*
G01X1871999Y1514000D02*
Y1522000D01*
X1872500Y1522500D02*
G03X1871999Y1522000I0J-500D01*
G01X1872500Y1522500D02*
X1880500D01*
X1881000Y1522000D02*
G03X1880500Y1522500I-500J0D01*
G01X2130250Y1363000D02*
G03X2130250I-7750D01*
G01X2117500Y1419500D02*
G03X2117500I-3500D01*
G01X2123500Y1426500D02*
G03X2123500I-3500D01*
G01X2111000D02*
G03X2111000I-3500D01*
G01X2116500Y1447500D02*
G03X2116500I-3000D01*
G01X2130250Y1583000D02*
G03X2130250I-7750D01*
G01Y1673000D02*
G03X2130250I-7750D01*
G01X2130413Y1892929D02*
G03X2130413I-7749D01*
G01X2103800Y1443700D02*
G03X2103800I-3000D01*
G01X2111550Y1719900D02*
G03X2111550I-8650D01*
G01X2111900Y1793100D02*
G03X2111900I-5500D01*
G01Y1810200D02*
G03X2111900I-5500D01*
G01X2091500Y1432500D02*
G03X2091500I-3000D01*
G01X2092000Y1438500D02*
G03X2092000I-3000D01*
G01X2091000Y1446500D02*
G03X2091000I-3000D01*
G01X2088271Y1454008D02*
G03X2090728Y1454991I2229J-2008D01*
X2088271Y1454008I-2228J2009*
G01X2084000Y1375000D02*
G03X2084000I-4500D01*
G01X2090490Y1494985D02*
G03X2090490I-4249D01*
G01Y1760988D02*
G03X2090490I-4249D01*
G01X2096500Y1776000D02*
G03X2096500I-3500D01*
G01X2068500Y1367500D02*
G03X2068500I-3500D01*
G01X2074100Y1373200D02*
G03X2074100I-3500D01*
G01X2075500Y1387500D02*
G03X2075500I-3500D01*
G01X2080700Y1413800D02*
G03X2080700I-3000D01*
G01X2062187Y1377954D02*
G03X2063412Y1381545I2813J1046D01*
X2062187Y1377954I-2812J-1045*
G01X2070600Y1392500D02*
G03X2070600I-3500D01*
G01X2070500Y1406600D02*
G03X2070500I-3500D01*
G01X2075200Y1455105D02*
G03X2075200I-3000D01*
G01X2080500Y1480500D02*
G03X2080500I-3000D01*
G01X2073000Y1480000D02*
G03X2073000I-3000D01*
G01Y1494500D02*
G03X2073000I-3000D01*
G01X2057100Y1365000D02*
G03X2057100I-3000D01*
G01X2048510Y1377585D02*
G03X2048789Y1381014I2590J1515D01*
G01X2048789D02*
G03X2048510Y1377585I-2589J-1514D01*
G01X2060700Y1402300D02*
G03X2060700I-3500D01*
G01X2064800Y1413800D02*
G03X2064800I-3500D01*
G01X2057783Y1449011D02*
G03X2055716Y1449488I-283J3489D01*
G01X2055716D02*
G03X2057783Y1449011I284J-3488D01*
G01X2050600Y1402500D02*
G03X2050600I-3500D01*
G01X2046000Y1410500D02*
G03X2046000I-3500D01*
G01X2049515Y1450277D02*
G03X2044676Y1451487I-2015J2223D01*
X2049515Y1450277I1824J-2987*
G01X2051000Y1462000D02*
G03X2051000I-3500D01*
G01X2057000Y1463500D02*
G03X2057000I-3000D01*
G01X2061000Y1471000D02*
G03X2061000I-3500D01*
G01X2064000Y1480500D02*
G03X2064000I-3000D01*
G01X2077850Y1616500D02*
G03X2077850I-8650D01*
G01X2047885Y1471471D02*
G03X2052114Y1472528I2615J-1471D01*
G01X2052114D02*
G03X2047885Y1471471I-2614J1472D01*
G01X2052900Y1480500D02*
G03X2052900I-3000D01*
G01X2054500Y1493841D02*
G03Y1497158I2500J1659D01*
X2054499Y1493841I-2500J-1658*
G01X2063956Y1646156D02*
G03X2065793Y1650093I2794J1094D01*
G01X2065793D02*
G03X2063956Y1646156I-2793J-1093D01*
G01X2076300Y1667300D02*
G03X2076300I-3500D01*
G01X2071600Y1878900D02*
G03X2071600I-3000D01*
G01X2063200Y1800500D02*
G03X2063200I-3500D01*
G01X2056800Y1879700D02*
G03X2056800I-3000D01*
G01X2047600Y1535400D02*
G03X2047600I-3000D01*
G01X2038100Y1411300D02*
G03X2038100I-3000D01*
G01X2021966Y1402359D02*
G03X2026833Y1403840I3134J-1559D01*
G01X2021353Y1407996D02*
G03X2021966Y1402359I2347J-2596D01*
G01X2026146Y1407903D02*
G03X2021353Y1407996I-2346J2597D01*
G01X2026833Y1403840D02*
G03X2026146Y1407903I-3133J1560D01*
G01X2034500Y1457000D02*
G03X2034500I-3000D01*
G01X2037500Y1467000D02*
G03X2037500I-3000D01*
G01X2037000Y1473500D02*
G03X2037000I-3500D01*
G01X2043000Y1708500D02*
G03X2043000I-3500D01*
G01X2045400Y1800100D02*
G03X2045400I-3500D01*
G01X2031400Y1494800D02*
G03X2031400I-3000D01*
G01X2017550Y1429500D02*
G03X2017550I-3000D01*
G01X2018129Y1437556D02*
G03X2018332Y1439988I3371J944D01*
G01X2013927Y1441555D02*
G03X2018129Y1437556I1573J-2555D01*
G01X2012515Y1446749D02*
G03X2013927Y1441555I1985J-2249D01*
G01X2016484Y1446750D02*
G03X2012515I-1984J2250D01*
G01X2016072Y1441944D02*
G03X2016484Y1446749I-1572J2556D01*
G01X2018332Y1439988D02*
G03X2016072Y1441944I-2832J-988D01*
G01X2024500Y1458000D02*
G03X2024500I-3000D01*
G01X2030000Y1570500D02*
G03X2030000I-3000D01*
G01X2014500Y1459000D02*
G03X2014500I-3000D01*
G01X2018500Y1478500D02*
G03X2018500I-3000D01*
G01X2015636Y1535893D02*
G03X2016363Y1537106I2864J-893D01*
G01X2016363D02*
G03X2015636Y1535893I-2863J894D01*
G01X2024600Y1634900D02*
G03X2024600I-3500D01*
G01X2029565Y1714641D02*
G03X2029734Y1718058I3135J1559D01*
G01X2023688Y1714557D02*
G03X2029565Y1714641I2912J1943D01*
G01X2023411Y1717942D02*
G03X2023688Y1714557I-2911J-1942D01*
G01X2029734Y1718058D02*
G03X2023411Y1717942I-3134J-1558D01*
G01X2031300Y1745000D02*
G03X2031300I-3000D01*
G01X2025644Y1823414D02*
G03X2026808Y1825306I2956J-514D01*
G01X2026808D02*
G03X2025644Y1823414I-3408J794D01*
G01X2031658Y1833131D02*
G03X2036327Y1834498I3042J-1731D01*
G01X2036327D02*
G03X2031658Y1833131I-2827J1002D01*
G01X2021100Y1833900D02*
G03X2021100I-3500D01*
G01X2020728Y1854501D02*
G03X2015071Y1856498I-2228J2699D01*
X2020728Y1854501I2229J-2698*
G01X2029000Y1880700D02*
G03X2029000I-3500D01*
G01X2044750Y1888200D02*
G03Y1890799I3250J1300D01*
G01X2038250Y1888200D02*
G03X2044749I3250J1300D01*
G01X2034299Y1886070D02*
G03X2038249Y1888200I701J3430D01*
G01X2031500Y1889429D02*
G03X2034299Y1886070I-700J-3429D01*
G01X2038250Y1890799D02*
G03X2031500Y1889429I-3250J-1299D01*
G01X2044749Y1890799D02*
G03X2038250I-3249J-1299D01*
G01X2028900Y1890800D02*
G03X2028900I-3500D01*
G01X2020000Y1870100D02*
G03X2020000I-3000D01*
G01X1976500Y1393000D02*
G03X1976500I-3500D01*
G01X1982000Y1495500D02*
G03X1982000I-3000D01*
G01X1981000Y1516400D02*
G03X1981000I-3500D01*
G01X1988000Y1589500D02*
G03X1988000I-3500D01*
G01X1987500Y1614500D02*
G03X1987500I-3500D01*
G01X1994000Y1672500D02*
G03X1994000I-3500D01*
G01X1991000Y1727500D02*
G03X1991000I-3000D01*
G01X1995500Y1740500D02*
G03X1995500I-3000D01*
G01X2000000Y1761000D02*
G03X2000000I-3000D01*
G01X2002300Y1780300D02*
G03X2002300I-3000D01*
G01X2004075Y1790381D02*
G03X1999389Y1792464I-1375J3219D01*
X2004075Y1790381I1711J-2464*
G01X2000821Y1827428D02*
G03X1999678Y1832571I1679J3072D01*
G01X1999678D02*
G03X2000821Y1827428I-1678J-3071D01*
G01X2013000Y1848000D02*
G03X2013000I-3500D01*
G01X1965000Y1393000D02*
G03X1965000I-3500D01*
G01X1971000Y1398500D02*
G03X1971000I-3500D01*
G01X1976000Y1529000D02*
G03X1976000I-3000D01*
G01X1975449Y1645189D02*
G03X1978550Y1645810I2051J-2189D01*
X1975449Y1645189I-2050J2190*
G01X1986500Y1731500D02*
G03X1986500I-3000D01*
G01X1989500Y1809500D02*
G03X1989500I-3500D01*
G01X1991374Y1828333D02*
G03X1987625Y1829166I-1374J2667D01*
G01X1987625D02*
G03X1991374Y1828333I1375J-2666D01*
G01X1963000Y1401500D02*
G03X1963000I-3500D01*
G01Y1414000D02*
G03X1963000I-3500D01*
G01X1969500Y1435000D02*
G03X1969500I-3500D01*
G01X1972000Y1534000D02*
G03X1972000I-3000D01*
G01X1972500Y1573500D02*
G03X1972500I-3000D01*
G01X1977500Y1724000D02*
G03X1977500I-3000D01*
G01X1978500Y1760500D02*
G03X1978500I-3000D01*
G01X1981500Y1809000D02*
G03X1981500I-3000D01*
G01X1985600Y1820600D02*
G03X1985600I-4500D01*
G01X1986000Y1831000D02*
G03X1986000I-3000D01*
G01X1989775Y1847637D02*
G03X1986524Y1849462I-475J2963D01*
X1989775Y1847637I476J-2962*
G01X1980000Y1857127D02*
G03Y1862872I2000J2873D01*
G01X1976000Y1857127D02*
G03X1979999I2000J2873D01*
G01X1975999Y1862872D02*
G03Y1857127I-1999J-2872D01*
G01X1979999Y1862872D02*
G03X1976000I-1999J-2872D01*
G01X1983000Y1880500D02*
G03X1983000I-3000D01*
G01X1967500Y1619500D02*
G03X1967500I-3500D01*
G01X1973400Y1885900D02*
G03X1973400I-3500D01*
G01X1965000Y1648500D02*
G03X1965000I-3500D01*
G01X1965500Y1775500D02*
G03X1965500I-3500D01*
G01X1966300Y1883400D02*
G03X1966300I-3500D01*
G01X1946347Y1410478D02*
G03X1946152Y1413021I3153J1522D01*
G01X1939750Y1410200D02*
G03X1946347Y1410478I3250J1300D01*
G01X1939749Y1412799D02*
G03Y1410200I-3249J-1299D01*
G01X1946152Y1413021D02*
G03X1939750Y1412799I-3152J-1521D01*
G01X1951800Y1480500D02*
G03X1951800I-3500D01*
G01X1955057Y1494985D02*
G03X1955057I-4249D01*
G01Y1760988D02*
G03X1955057I-4249D01*
G01X1885250Y1363000D02*
G03X1885250I-7750D01*
G01X1925250Y1543000D02*
G03X1925250I-7750D01*
G01X1917560Y1603510D02*
G03X1922239Y1603689I2440J-2510D01*
G01X1922239D02*
G03X1917560Y1603510I-2439J2511D01*
G01X1925250Y1713000D02*
G03X1925250I-7750D01*
G01X1901000Y1534500D02*
G03X1901000I-3000D01*
G01X1889000Y1838200D02*
G03X1889000I-3500D01*
G01X1882800Y1844300D02*
G03X1882800I-3500D01*
G01X1889000Y1850200D02*
G03X1889000I-3500D01*
G01X1885250Y1893000D02*
G03X1885250I-7750D01*
G01X2019000Y1743500D02*
G03X2019000I-3000D01*
G01X2007000Y1389000D02*
G03X2007000I-5500D01*
G01X2005500Y1448500D02*
G03X2005500I-3000D01*
G01X2005800Y1456000D02*
G03X2005800I-3000D01*
G01X2006000Y1463000D02*
G03X2006000I-3000D01*
G01X1995200Y1426800D02*
G03X1995200I-3500D01*
G01X1994500Y1460500D02*
G03X1994500I-5500D01*
G01X2000150Y1469650D02*
G03X2000150I-3000D01*
G01X1985737Y1473329D02*
G03X1984762Y1474670I2263J2671D01*
G01X1984762D02*
G03X1985737Y1473329I-2262J-2670D01*
G01X1991500Y1521500D02*
G03X1991500I-3000D01*
G01X2001323Y1534612D02*
G03X1998776Y1536587I277J2988D01*
G01X1998288Y1530607D02*
G03X2001323Y1534612I212J2993D01*
G01X1992517Y1529177D02*
G03X1998288Y1530607I2983J323D01*
G01X1994482Y1532322D02*
G03X1992517Y1529177I-2982J-322D01*
G01X1995711Y1532492D02*
G03X1994482Y1532322I-211J-2992D01*
G01X1998776Y1536587D02*
G03X1995711Y1532492I-276J-2987D01*
G01X1995393Y1590356D02*
G03X1989706Y1592143I-2293J2644D01*
G01X1989706D02*
G03X1995393Y1590356I2294J-2643D01*
G01X2000429Y1628147D02*
G03X1996570Y1630352I-929J2853D01*
G01X1996570D02*
G03X2000429Y1628147I930J-2852D01*
G01X2001977Y1640179D02*
G03X2004205Y1640252I1223J-3279D01*
G01X2004205D02*
G03X2001977Y1640179I-1205J2748D01*
G01X2000800Y1658000D02*
G03X2000800I-3500D01*
G01X2001500Y1735500D02*
G03X2001500I-3000D01*
G01X2004991Y1742771D02*
G03X2004008Y1745228I2009J2229D01*
G01X2004008D02*
G03X2004991Y1742771I-2008J-2228D01*
G01X2012017Y1796977D02*
G03X2013982Y1800122I2983J323D01*
G01X2013982D02*
G03X2012017Y1796977I-2982J-322D01*
G01X2020700Y1803400D02*
G03X2020700I-3000D01*
G01X1866000Y1818298D02*
X1930999D01*
X1866000Y1817398D02*
X1930999D01*
X1866000Y1816498D02*
X1930999D01*
X1880990Y1815598D02*
X1930999D01*
X1881000Y1814698D02*
X1930999D01*
X1905760Y1813798D02*
X1930999D01*
X1906638Y1812898D02*
X1930999D01*
X1907017Y1811998D02*
X1930999D01*
X1907093Y1811098D02*
X1930999D01*
X1906890Y1810198D02*
X1930999D01*
X1906334Y1809298D02*
X1930999D01*
X1904863Y1808398D02*
X1930999D01*
X1906237Y1807498D02*
X1930999D01*
X1925841Y1806598D02*
X1930999D01*
X1926504Y1805698D02*
X1930999D01*
X1926773Y1804798D02*
X1930999D01*
X1926757Y1803898D02*
X1930999D01*
X1926452Y1802998D02*
X1930999D01*
X1925724Y1802098D02*
X1930999D01*
X1920894Y1801198D02*
X1930999D01*
X1916122Y1800298D02*
X1930999D01*
X1916628Y1799398D02*
X1930999D01*
X1916798Y1798498D02*
X1930999D01*
X1916691Y1797598D02*
X1930999D01*
X1916270Y1796698D02*
X1930999D01*
X1915294Y1795798D02*
X1930999D01*
X1879449Y1794898D02*
X1930999D01*
X1880242Y1793998D02*
X1930999D01*
X1880706Y1793098D02*
X1930999D01*
X1880945Y1792198D02*
X1930999D01*
X1880995Y1791298D02*
X1930999D01*
X1880863Y1790398D02*
X1930999D01*
X1880530Y1789498D02*
X1930999D01*
X1879939Y1788598D02*
X1930999D01*
X1878908Y1787698D02*
X1930999D01*
X1923080Y1786798D02*
X1930999D01*
X1924322Y1785898D02*
X1930999D01*
X1924828Y1784998D02*
X1930999D01*
X1924998Y1784098D02*
X1930999D01*
X1924891Y1783198D02*
X1930999D01*
X1924470Y1782298D02*
X1930999D01*
X1923494Y1781398D02*
X1930999D01*
X1880887Y1780498D02*
X1930999D01*
X1880578Y1779598D02*
X1930999D01*
X1880021Y1778698D02*
X1930999D01*
X1879059Y1777798D02*
X1930999D01*
X1866000Y1776898D02*
X1930999D01*
X1876609Y1775998D02*
X1930999D01*
X1879201Y1775098D02*
X1930999D01*
X1880101Y1774198D02*
X1930999D01*
X1880624Y1773298D02*
X1930999D01*
X1880909Y1772398D02*
X1930999D01*
X1881000Y1771498D02*
X1930999D01*
X1880908Y1770598D02*
X1930999D01*
X1880623Y1769698D02*
X1930999D01*
X1880099Y1768798D02*
X1930999D01*
X1879198Y1767898D02*
X1930999D01*
X1866000Y1766998D02*
X1930999D01*
X1866000Y1766098D02*
X1930999D01*
X1879063Y1765198D02*
X1930999D01*
X1880023Y1764298D02*
X1930999D01*
X1880579Y1763398D02*
X1930999D01*
X1880887Y1762498D02*
X1930999D01*
X1880998Y1761598D02*
X1930999D01*
X1880928Y1760698D02*
X1930999D01*
X1880666Y1759798D02*
X1930999D01*
X1880171Y1758898D02*
X1930999D01*
X1879326Y1757998D02*
X1930999D01*
X1877437Y1757098D02*
X1930999D01*
X1866000Y1756198D02*
X1930999D01*
X1878912Y1755298D02*
X1930999D01*
X1879942Y1754398D02*
X1930999D01*
X1880531Y1753498D02*
X1930999D01*
X1880863Y1752598D02*
X1930999D01*
X1880995Y1751698D02*
X1930999D01*
X1880945Y1750798D02*
X1930999D01*
X1880705Y1749898D02*
X1930999D01*
X1880240Y1748998D02*
X1930999D01*
X1879446Y1748098D02*
X1930999D01*
X1877822Y1747198D02*
X1930999D01*
X1866000Y1746298D02*
X1930999D01*
X1878747Y1745398D02*
X1930999D01*
X1879855Y1744498D02*
X1930999D01*
X1880480Y1743598D02*
X1930999D01*
X1880837Y1742698D02*
X1930999D01*
X1880990Y1741798D02*
X1930999D01*
X1880959Y1740898D02*
X1930999D01*
X1880742Y1739998D02*
X1930999D01*
X1880305Y1739098D02*
X1930999D01*
X1879558Y1738198D02*
X1930999D01*
X1878112Y1737298D02*
X1930999D01*
X1866000Y1736398D02*
X1930999D01*
X1921870Y1802098D02*
X1921875D01*
X1920480Y1806598D02*
X1921758D01*
X1919710Y1786798D02*
X1920919D01*
X1919705Y1781398D02*
X1920505D01*
X1906791Y1806598D02*
X1918319D01*
X1914880Y1801198D02*
X1917905D01*
X1880998Y1781398D02*
X1917094D01*
X1866000Y1786798D02*
X1917089D01*
X1906993Y1805698D02*
X1917077D01*
X1880960Y1802098D02*
X1916929D01*
X1906916Y1804798D02*
X1916571D01*
X1905656Y1802998D02*
X1916508D01*
X1906536Y1803898D02*
X1916401D01*
X1880928Y1782298D02*
X1916000D01*
X1877449Y1785898D02*
X1915998D01*
X1880667Y1783198D02*
X1915538D01*
X1879330Y1784998D02*
X1915537D01*
X1880173Y1784098D02*
X1915399D01*
X1909089Y1801198D02*
X1912719D01*
X1910798Y1795798D02*
X1912305D01*
X1911143Y1800298D02*
X1911477D01*
X1880989Y1801198D02*
X1908910D01*
X1877830Y1795798D02*
X1907201D01*
X1880836Y1800298D02*
X1906856D01*
X1866000Y1796698D02*
X1906402D01*
X1880479Y1799398D02*
X1906249D01*
X1878742Y1797598D02*
X1906060D01*
X1879852Y1798498D02*
X1906014D01*
X1881000Y1808398D02*
X1903226D01*
X1881000Y1813798D02*
X1902439D01*
X1880743Y1802998D02*
X1902343D01*
X1881000Y1809298D02*
X1901865D01*
X1881000Y1807498D02*
X1901762D01*
X1881000Y1812898D02*
X1901561D01*
X1880307Y1803898D02*
X1901463D01*
X1881000Y1810198D02*
X1901309D01*
X1866000Y1806598D02*
X1901208D01*
X1881000Y1811998D02*
X1901182D01*
X1881000Y1811098D02*
X1901106D01*
X1879560Y1804798D02*
X1901083D01*
X1878119Y1805698D02*
X1901006D01*
X1866000Y1775998D02*
X1876390D01*
X1866000Y1757098D02*
X1875562D01*
X1866000Y1785898D02*
X1875550D01*
X1866000Y1747198D02*
X1875177D01*
X1866000Y1795798D02*
X1875169D01*
X1866000Y1737298D02*
X1874887D01*
X1866000Y1805698D02*
X1874880D01*
X1866000Y1797598D02*
X1874257D01*
X1866000Y1745398D02*
X1874252D01*
X1866000Y1787698D02*
X1874091D01*
X1866000Y1755298D02*
X1874087D01*
X1866000Y1777798D02*
X1873940D01*
X1866000Y1765198D02*
X1873936D01*
X1866000Y1767898D02*
X1873801D01*
X1866000Y1775098D02*
X1873798D01*
X1866000Y1757998D02*
X1873673D01*
X1866000Y1784998D02*
X1873669D01*
X1866000Y1748098D02*
X1873553D01*
X1866000Y1794898D02*
X1873550D01*
X1866000Y1738198D02*
X1873441D01*
X1866000Y1804798D02*
X1873439D01*
X1866000Y1798498D02*
X1873147D01*
X1866000Y1744498D02*
X1873144D01*
X1866000Y1788598D02*
X1873060D01*
X1866000Y1754398D02*
X1873057D01*
X1866000Y1778698D02*
X1872978D01*
X1866000Y1764298D02*
X1872976D01*
X1866000Y1768798D02*
X1872900D01*
X1866000Y1774198D02*
X1872898D01*
X1866000Y1758898D02*
X1872828D01*
X1866000Y1784098D02*
X1872826D01*
X1866000Y1748998D02*
X1872759D01*
X1866000Y1793998D02*
X1872757D01*
X1866000Y1739098D02*
X1872694D01*
X1866000Y1803898D02*
X1872692D01*
X1866000Y1799398D02*
X1872520D01*
X1866000Y1743598D02*
X1872519D01*
X1866000Y1789498D02*
X1872469D01*
X1866000Y1753498D02*
X1872468D01*
X1866000Y1779598D02*
X1872421D01*
X1866000Y1763398D02*
X1872420D01*
X1866000Y1769698D02*
X1872376D01*
X1866000Y1773298D02*
X1872375D01*
X1866000Y1759798D02*
X1872333D01*
X1866000Y1783198D02*
X1872332D01*
X1866000Y1749898D02*
X1872294D01*
X1866000Y1793098D02*
X1872293D01*
X1866000Y1739998D02*
X1872257D01*
X1866000Y1802998D02*
X1872256D01*
X1866000Y1800298D02*
X1872163D01*
X1866000Y1742698D02*
X1872162D01*
X1866000Y1790398D02*
X1872136D01*
X1866000Y1752598D02*
X1872136D01*
X1866000Y1780498D02*
X1872112D01*
X1866000Y1762498D02*
X1872112D01*
X1866000Y1770598D02*
X1872091D01*
X1866000Y1772398D02*
X1872090D01*
X1866000Y1760698D02*
X1872071D01*
X1866000Y1782298D02*
X1872071D01*
X1866000Y1750798D02*
X1872054D01*
X1866000Y1792198D02*
X1872054D01*
X1866000Y1740898D02*
X1872040D01*
X1866000Y1802098D02*
X1872039D01*
X1866000Y1801198D02*
X1872010D01*
X1866000Y1741798D02*
X1872009D01*
X1866000Y1815598D02*
X1872009D01*
X1866000Y1791298D02*
X1872004D01*
X1866000Y1751698D02*
X1872004D01*
X1866000Y1781398D02*
X1872001D01*
X1866000Y1761598D02*
X1872001D01*
X1866000Y1807498D02*
X1871999D01*
X1866000Y1814698D02*
X1871999D01*
X1866000Y1813798D02*
X1871999D01*
X1866000Y1812898D02*
X1871999D01*
X1866000Y1811998D02*
X1871999D01*
X1866000Y1811098D02*
X1871999D01*
X1866000Y1810198D02*
X1871999D01*
X1866000Y1809298D02*
X1871999D01*
X1866000Y1808398D02*
X1871999D01*
X1866000Y1771498D02*
X1871999D01*
X1866000Y1525698D02*
X1934499D01*
X1866000Y1524798D02*
X1934499D01*
X1866000Y1523898D02*
X1934499D01*
X1866000Y1522998D02*
X1934499D01*
X1880990Y1522098D02*
X1934499D01*
X1881000Y1521198D02*
X1934499D01*
X1881000Y1520298D02*
X1934499D01*
X1881000Y1519398D02*
X1934499D01*
X1881000Y1518498D02*
X1934499D01*
X1881000Y1517598D02*
X1934499D01*
X1881000Y1516698D02*
X1934499D01*
X1881000Y1515798D02*
X1934499D01*
X1881000Y1514898D02*
X1934499D01*
X1881000Y1513998D02*
X1934499D01*
X1866000Y1513098D02*
X1934499D01*
X1878119Y1512198D02*
X1934499D01*
X1879560Y1511298D02*
X1934499D01*
X1880307Y1510398D02*
X1934499D01*
X1880743Y1509498D02*
X1934499D01*
X1880960Y1508598D02*
X1934499D01*
X1880989Y1507698D02*
X1934499D01*
X1880836Y1506798D02*
X1934499D01*
X1880479Y1505898D02*
X1934499D01*
X1879852Y1504998D02*
X1934499D01*
X1878742Y1504098D02*
X1934499D01*
X1931310Y1503198D02*
X1934499D01*
X1932401Y1502298D02*
X1934499D01*
X1932862Y1501398D02*
X1934499D01*
X1933000Y1500498D02*
X1934499D01*
X1932861Y1499598D02*
X1934499D01*
X1932399Y1498698D02*
X1934499D01*
X1931305Y1497798D02*
X1934499D01*
X1925208Y1496898D02*
X1934499D01*
X1925464Y1495998D02*
X1934499D01*
X1925476Y1495098D02*
X1934499D01*
X1925249Y1494198D02*
X1934499D01*
X1924721Y1493298D02*
X1934499D01*
X1924448Y1492398D02*
X1934499D01*
X1925062Y1491498D02*
X1934499D01*
X1925348Y1490598D02*
X1934499D01*
X1925387Y1489698D02*
X1934499D01*
X1925187Y1488798D02*
X1934499D01*
X1924699Y1487898D02*
X1934499D01*
X1923700Y1486998D02*
X1934499D01*
X1880578Y1486098D02*
X1934499D01*
X1880021Y1485198D02*
X1934499D01*
X1879059Y1484298D02*
X1934499D01*
X1866000Y1483398D02*
X1934499D01*
X1876609Y1482498D02*
X1934499D01*
X1879201Y1481598D02*
X1934499D01*
X1880101Y1480698D02*
X1934499D01*
X1880624Y1479798D02*
X1934499D01*
X1880909Y1478898D02*
X1934499D01*
X1908769Y1477998D02*
X1934499D01*
X1910148Y1477098D02*
X1934499D01*
X1910762Y1476198D02*
X1934499D01*
X1911048Y1475298D02*
X1934499D01*
X1911087Y1474398D02*
X1934499D01*
X1910887Y1473498D02*
X1934499D01*
X1910399Y1472598D02*
X1934499D01*
X1909400Y1471698D02*
X1934499D01*
X1880023Y1470798D02*
X1934499D01*
X1880579Y1469898D02*
X1934499D01*
X1880887Y1468998D02*
X1934499D01*
X1880998Y1468098D02*
X1934499D01*
X1880928Y1467198D02*
X1934499D01*
X1880666Y1466298D02*
X1934499D01*
X1880171Y1465398D02*
X1934499D01*
X1879326Y1464498D02*
X1934499D01*
X1919601Y1463598D02*
X1934499D01*
X1920398Y1462698D02*
X1934499D01*
X1920739Y1461798D02*
X1934499D01*
X1920784Y1460898D02*
X1934499D01*
X1924601Y1459998D02*
X1934499D01*
X1925398Y1459098D02*
X1934499D01*
X1925739Y1458198D02*
X1934499D01*
X1925784Y1457298D02*
X1934499D01*
X1925548Y1456398D02*
X1934499D01*
X1924941Y1455498D02*
X1934499D01*
X1879446Y1454598D02*
X1934499D01*
X1877822Y1453698D02*
X1934499D01*
X1866000Y1452798D02*
X1934499D01*
X1878747Y1451898D02*
X1934499D01*
X1879855Y1450998D02*
X1934499D01*
X1880480Y1450098D02*
X1934499D01*
X1880837Y1449198D02*
X1934499D01*
X1880990Y1448298D02*
X1934499D01*
X1880959Y1447398D02*
X1934499D01*
X1880742Y1446498D02*
X1934499D01*
X1880305Y1445598D02*
X1934499D01*
X1879558Y1444698D02*
X1934499D01*
X1878112Y1443798D02*
X1934499D01*
X1914298Y1442898D02*
X1934499D01*
X1915272Y1441998D02*
X1934499D01*
X1915691Y1441098D02*
X1934499D01*
X1915798Y1440198D02*
X1934499D01*
X1915627Y1439298D02*
X1934499D01*
X1915120Y1438398D02*
X1934499D01*
X1924639Y1497798D02*
X1928694D01*
X1866000Y1503198D02*
X1928689D01*
X1923420Y1498698D02*
X1927600D01*
X1877830Y1502298D02*
X1927598D01*
X1880706Y1499598D02*
X1927138D01*
X1879449Y1501398D02*
X1927137D01*
X1880242Y1500498D02*
X1926999D01*
X1920548Y1459998D02*
X1920998D01*
X1880240Y1455498D02*
X1920658D01*
X1880945Y1498698D02*
X1920579D01*
X1919941Y1459098D02*
X1920201D01*
X1880887Y1486998D02*
X1920099D01*
X1880705Y1456398D02*
X1920051D01*
X1880995Y1458198D02*
X1919860D01*
X1880945Y1457298D02*
X1919815D01*
X1880995Y1497798D02*
X1919360D01*
X1877449Y1492398D02*
X1919351D01*
X1866000Y1493298D02*
X1919278D01*
X1880998Y1487898D02*
X1919100D01*
X1880863Y1496898D02*
X1918791D01*
X1878908Y1494198D02*
X1918750D01*
X1879330Y1491498D02*
X1918737D01*
X1880928Y1488798D02*
X1918612D01*
X1880530Y1495998D02*
X1918535D01*
X1879939Y1495098D02*
X1918523D01*
X1880173Y1490598D02*
X1918451D01*
X1880667Y1489698D02*
X1918412D01*
X1877437Y1463598D02*
X1915998D01*
X1880863Y1459098D02*
X1915658D01*
X1866000Y1462698D02*
X1915201D01*
X1880531Y1459998D02*
X1915051D01*
X1878912Y1461798D02*
X1914860D01*
X1879942Y1460898D02*
X1914815D01*
X1866000Y1442898D02*
X1911301D01*
X1866000Y1441998D02*
X1910327D01*
X1866000Y1441098D02*
X1909908D01*
X1908980Y1440198D02*
X1909801D01*
X1866000D02*
X1906819D01*
X1881000Y1477998D02*
X1906430D01*
X1879063Y1471698D02*
X1905799D01*
X1866000Y1439298D02*
X1905577D01*
X1866000Y1438398D02*
X1905071D01*
X1880908Y1477098D02*
X1905051D01*
X1866000Y1472598D02*
X1904800D01*
X1880623Y1476198D02*
X1904437D01*
X1866000Y1473498D02*
X1904312D01*
X1880099Y1475298D02*
X1904151D01*
X1879198Y1474398D02*
X1904112D01*
X1866000Y1482498D02*
X1876390D01*
X1866000Y1463598D02*
X1875562D01*
X1866000Y1492398D02*
X1875550D01*
X1866000Y1453698D02*
X1875177D01*
X1866000Y1502298D02*
X1875169D01*
X1866000Y1443798D02*
X1874887D01*
X1866000Y1512198D02*
X1874880D01*
X1866000Y1504098D02*
X1874257D01*
X1866000Y1451898D02*
X1874252D01*
X1866000Y1494198D02*
X1874091D01*
X1866000Y1461798D02*
X1874087D01*
X1866000Y1484298D02*
X1873940D01*
X1866000Y1471698D02*
X1873936D01*
X1866000Y1474398D02*
X1873801D01*
X1866000Y1481598D02*
X1873798D01*
X1866000Y1464498D02*
X1873673D01*
X1866000Y1491498D02*
X1873669D01*
X1866000Y1454598D02*
X1873553D01*
X1866000Y1501398D02*
X1873550D01*
X1866000Y1444698D02*
X1873441D01*
X1866000Y1511298D02*
X1873439D01*
X1866000Y1504998D02*
X1873147D01*
X1866000Y1450998D02*
X1873144D01*
X1866000Y1495098D02*
X1873060D01*
X1866000Y1460898D02*
X1873057D01*
X1866000Y1485198D02*
X1872978D01*
X1866000Y1470798D02*
X1872976D01*
X1866000Y1475298D02*
X1872900D01*
X1866000Y1480698D02*
X1872898D01*
X1866000Y1465398D02*
X1872828D01*
X1866000Y1490598D02*
X1872826D01*
X1866000Y1455498D02*
X1872759D01*
X1866000Y1500498D02*
X1872757D01*
X1866000Y1445598D02*
X1872694D01*
X1866000Y1510398D02*
X1872692D01*
X1866000Y1505898D02*
X1872520D01*
X1866000Y1450098D02*
X1872519D01*
X1866000Y1495998D02*
X1872469D01*
X1866000Y1459998D02*
X1872468D01*
X1866000Y1486098D02*
X1872421D01*
X1866000Y1469898D02*
X1872420D01*
X1866000Y1476198D02*
X1872376D01*
X1866000Y1479798D02*
X1872375D01*
X1866000Y1466298D02*
X1872333D01*
X1866000Y1489698D02*
X1872332D01*
X1866000Y1456398D02*
X1872294D01*
X1866000Y1499598D02*
X1872293D01*
X1866000Y1446498D02*
X1872257D01*
X1866000Y1509498D02*
X1872256D01*
X1866000Y1506798D02*
X1872163D01*
X1866000Y1449198D02*
X1872162D01*
X1866000Y1496898D02*
X1872136D01*
X1866000Y1459098D02*
X1872136D01*
X1866000Y1486998D02*
X1872112D01*
X1866000Y1468998D02*
X1872112D01*
X1866000Y1477098D02*
X1872091D01*
X1866000Y1478898D02*
X1872090D01*
X1866000Y1467198D02*
X1872071D01*
X1866000Y1488798D02*
X1872071D01*
X1866000Y1457298D02*
X1872054D01*
X1866000Y1498698D02*
X1872054D01*
X1866000Y1447398D02*
X1872040D01*
X1866000Y1508598D02*
X1872039D01*
X1866000Y1507698D02*
X1872010D01*
X1866000Y1448298D02*
X1872009D01*
X1866000Y1522098D02*
X1872009D01*
X1866000Y1497798D02*
X1872004D01*
X1866000Y1458198D02*
X1872004D01*
X1866000Y1487898D02*
X1872001D01*
X1866000Y1468098D02*
X1872001D01*
X1866000Y1513998D02*
X1871999D01*
X1866000Y1521198D02*
X1871999D01*
X1866000Y1520298D02*
X1871999D01*
X1866000Y1519398D02*
X1871999D01*
X1866000Y1518498D02*
X1871999D01*
X1866000Y1517598D02*
X1871999D01*
X1866000Y1516698D02*
X1871999D01*
X1866000Y1515798D02*
X1871999D01*
X1866000Y1514898D02*
X1871999D01*
X1866000Y1477998D02*
X1871999D01*
X1864100Y1905798D02*
X2135900D01*
X1864100Y1904898D02*
X2135900D01*
X1864100Y1903998D02*
X2135900D01*
X1864100Y1903098D02*
X2135900D01*
X1864100Y1902198D02*
X2135900D01*
X1864100Y1901298D02*
X2135900D01*
X2124728Y1900398D02*
X2135900D01*
X2126774Y1899498D02*
X2135900D01*
X2127946Y1898598D02*
X2135900D01*
X2128771Y1897698D02*
X2135900D01*
X2129377Y1896798D02*
X2135900D01*
X2129821Y1895898D02*
X2135900D01*
X2130131Y1894998D02*
X2135900D01*
X2130324Y1894098D02*
X2135900D01*
X2130408Y1893198D02*
X2135900D01*
X2130387Y1892298D02*
X2135900D01*
X2130260Y1891398D02*
X2135900D01*
X2130022Y1890498D02*
X2135900D01*
X2129660Y1889598D02*
X2135900D01*
X2129156Y1888698D02*
X2135900D01*
X2128471Y1887798D02*
X2135900D01*
X2127531Y1886898D02*
X2135900D01*
X2126131Y1885998D02*
X2135900D01*
X2034181Y1885098D02*
X2135900D01*
X2033800Y1884198D02*
X2135900D01*
X2033025Y1883298D02*
X2135900D01*
X2055110Y1882398D02*
X2135900D01*
X2070098Y1881498D02*
X2135900D01*
X2071072Y1880598D02*
X2135900D01*
X2071491Y1879698D02*
X2135900D01*
X2071598Y1878798D02*
X2135900D01*
X2071427Y1877898D02*
X2135900D01*
X2070920Y1876998D02*
X2135900D01*
X2069673Y1876098D02*
X2135900D01*
X1864100Y1875198D02*
X2135900D01*
X1864100Y1874298D02*
X2135900D01*
X1864100Y1873398D02*
X2135900D01*
X2018801Y1872498D02*
X2135900D01*
X2019598Y1871598D02*
X2135900D01*
X2019939Y1870698D02*
X2135900D01*
X2019984Y1869798D02*
X2135900D01*
X2019748Y1868898D02*
X2135900D01*
X2019141Y1867998D02*
X2135900D01*
X1864100Y1867098D02*
X2135900D01*
X1864100Y1866198D02*
X2135900D01*
X1864100Y1865298D02*
X2135900D01*
X1864100Y1864398D02*
X2135900D01*
X1982096Y1863498D02*
X2135900D01*
X1984344Y1862598D02*
X2135900D01*
X1985060Y1861698D02*
X2135900D01*
X1985407Y1860798D02*
X2135900D01*
X2020728Y1859898D02*
X2135900D01*
X2021502Y1858998D02*
X2135900D01*
X2021882Y1858098D02*
X2135900D01*
X2022000Y1857198D02*
X2135900D01*
X2021881Y1856298D02*
X2135900D01*
X2021500Y1855398D02*
X2135900D01*
X2020729Y1854498D02*
X2135900D01*
X2020794Y1853598D02*
X2135900D01*
X2020622Y1852698D02*
X2135900D01*
X2020171Y1851798D02*
X2135900D01*
X2019257Y1850898D02*
X2135900D01*
X2012373Y1849998D02*
X2135900D01*
X2012823Y1849098D02*
X2135900D01*
X2012994Y1848198D02*
X2135900D01*
X2012929Y1847298D02*
X2135900D01*
X2012612Y1846398D02*
X2135900D01*
X2011948Y1845498D02*
X2135900D01*
X2010325Y1844598D02*
X2135900D01*
X1988073Y1843698D02*
X2135900D01*
X1882461Y1842798D02*
X2135900D01*
X1881846Y1841898D02*
X2135900D01*
X1887601Y1840998D02*
X2135900D01*
X1888440Y1840098D02*
X2135900D01*
X1888854Y1839198D02*
X2135900D01*
X2034580Y1838298D02*
X2135900D01*
X2035822Y1837398D02*
X2135900D01*
X2036328Y1836498D02*
X2135900D01*
X2036498Y1835598D02*
X2135900D01*
X2036391Y1834698D02*
X2135900D01*
X2037248Y1833798D02*
X2135900D01*
X2037862Y1832898D02*
X2135900D01*
X2038148Y1831998D02*
X2135900D01*
X2038187Y1831098D02*
X2135900D01*
X2037987Y1830198D02*
X2135900D01*
X2037499Y1829298D02*
X2135900D01*
X2036500Y1828398D02*
X2135900D01*
X2026608Y1827498D02*
X2135900D01*
X2026864Y1826598D02*
X2135900D01*
X2029680Y1825698D02*
X2135900D01*
X2030922Y1824798D02*
X2135900D01*
X2031428Y1823898D02*
X2135900D01*
X2031598Y1822998D02*
X2135900D01*
X2031491Y1822098D02*
X2135900D01*
X2031070Y1821198D02*
X2135900D01*
X2030094Y1820298D02*
X2135900D01*
X1985436Y1819398D02*
X2135900D01*
X1985079Y1818498D02*
X2135900D01*
X1984452Y1817598D02*
X2135900D01*
X1983342Y1816698D02*
X2135900D01*
X1933000Y1815798D02*
X2135900D01*
X2109258Y1814898D02*
X2135900D01*
X2110377Y1813998D02*
X2135900D01*
X2111074Y1813098D02*
X2135900D01*
X2111524Y1812198D02*
X2135900D01*
X2111789Y1811298D02*
X2135900D01*
X2111896Y1810398D02*
X2135900D01*
X2111855Y1809498D02*
X2135900D01*
X2111661Y1808598D02*
X2135900D01*
X2111298Y1807698D02*
X2135900D01*
X2110722Y1806798D02*
X2135900D01*
X2109827Y1805898D02*
X2135900D01*
X2108187Y1804998D02*
X2135900D01*
X2020617Y1804098D02*
X2135900D01*
X2061928Y1803198D02*
X2135900D01*
X2062702Y1802298D02*
X2135900D01*
X2063082Y1801398D02*
X2135900D01*
X2063200Y1800498D02*
X2135900D01*
X2063081Y1799598D02*
X2135900D01*
X2062700Y1798698D02*
X2135900D01*
X2109258Y1797798D02*
X2135900D01*
X2110377Y1796898D02*
X2135900D01*
X2111074Y1795998D02*
X2135900D01*
X2111524Y1795098D02*
X2135900D01*
X2111789Y1794198D02*
X2135900D01*
X2111896Y1793298D02*
X2135900D01*
X2111855Y1792398D02*
X2135900D01*
X2111661Y1791498D02*
X2135900D01*
X2111298Y1790598D02*
X2135900D01*
X2110722Y1789698D02*
X2135900D01*
X2109827Y1788798D02*
X2135900D01*
X2108187Y1787898D02*
X2135900D01*
X1933000Y1786998D02*
X2135900D01*
X1933000Y1786098D02*
X2135900D01*
X1933000Y1785198D02*
X2135900D01*
X1933000Y1784298D02*
X2135900D01*
X1933000Y1783398D02*
X2135900D01*
X2001341Y1782498D02*
X2135900D01*
X2002004Y1781598D02*
X2135900D01*
X2002273Y1780698D02*
X2135900D01*
X2002257Y1779798D02*
X2135900D01*
X2094961Y1778898D02*
X2135900D01*
X2095873Y1777998D02*
X2135900D01*
X2096323Y1777098D02*
X2135900D01*
X2096494Y1776198D02*
X2135900D01*
X2096429Y1775298D02*
X2135900D01*
X2096112Y1774398D02*
X2135900D01*
X2095448Y1773498D02*
X2135900D01*
X2093825Y1772598D02*
X2135900D01*
X1933000Y1771698D02*
X2135900D01*
X1933000Y1770798D02*
X2135900D01*
X1933000Y1769898D02*
X2135900D01*
X1933000Y1768998D02*
X2135900D01*
X1933000Y1768098D02*
X2135900D01*
X1933000Y1767198D02*
X2135900D01*
X1933000Y1766298D02*
X2135900D01*
X1933000Y1765398D02*
X2135900D01*
X2088635Y1764498D02*
X2135900D01*
X2089593Y1763598D02*
X2135900D01*
X2090130Y1762698D02*
X2135900D01*
X2090412Y1761798D02*
X2135900D01*
X2090489Y1760898D02*
X2135900D01*
X2090373Y1759998D02*
X2135900D01*
X2090047Y1759098D02*
X2135900D01*
X2089446Y1758198D02*
X2135900D01*
X2088349Y1757298D02*
X2135900D01*
X1933000Y1756398D02*
X2135900D01*
X1933000Y1755498D02*
X2135900D01*
X1933000Y1754598D02*
X2135900D01*
X1933000Y1753698D02*
X2135900D01*
X1933000Y1752798D02*
X2135900D01*
X1933000Y1751898D02*
X2135900D01*
X1933000Y1750998D02*
X2135900D01*
X1933000Y1750098D02*
X2135900D01*
X1933000Y1749198D02*
X2135900D01*
X1933000Y1748298D02*
X2135900D01*
X2030101Y1747398D02*
X2135900D01*
X2030898Y1746498D02*
X2135900D01*
X2031239Y1745598D02*
X2135900D01*
X2031284Y1744698D02*
X2135900D01*
X2031048Y1743798D02*
X2135900D01*
X2030441Y1742898D02*
X2135900D01*
X2018597Y1741998D02*
X2135900D01*
X2017798Y1741098D02*
X2135900D01*
X2003073Y1740198D02*
X2135900D01*
X1995248Y1739298D02*
X2135900D01*
X1999273Y1738398D02*
X2135900D01*
X2000737Y1737498D02*
X2135900D01*
X2001291Y1736598D02*
X2135900D01*
X2001493Y1735698D02*
X2135900D01*
X2001416Y1734798D02*
X2135900D01*
X2001036Y1733898D02*
X2135900D01*
X2000156Y1732998D02*
X2135900D01*
X1986439Y1732098D02*
X2135900D01*
X1986484Y1731198D02*
X2135900D01*
X1989080Y1730298D02*
X2135900D01*
X1990322Y1729398D02*
X2135900D01*
X2103840Y1728498D02*
X2135900D01*
X2106843Y1727598D02*
X2135900D01*
X2108247Y1726698D02*
X2135900D01*
X2109226Y1725798D02*
X2135900D01*
X2109959Y1724898D02*
X2135900D01*
X2110517Y1723998D02*
X2135900D01*
X2110936Y1723098D02*
X2135900D01*
X2111238Y1722198D02*
X2135900D01*
X2111436Y1721298D02*
X2135900D01*
X2111535Y1720398D02*
X2135900D01*
X2111540Y1719498D02*
X2135900D01*
X2111451Y1718598D02*
X2135900D01*
X2111265Y1717698D02*
X2135900D01*
X2110974Y1716798D02*
X2135900D01*
X2110568Y1715898D02*
X2135900D01*
X2110027Y1714998D02*
X2135900D01*
X2109316Y1714098D02*
X2135900D01*
X2108369Y1713198D02*
X2135900D01*
X2107028Y1712298D02*
X2135900D01*
X2104497Y1711398D02*
X2135900D01*
X2042373Y1710498D02*
X2135900D01*
X2042823Y1709598D02*
X2135900D01*
X2042994Y1708698D02*
X2135900D01*
X2042929Y1707798D02*
X2135900D01*
X2042612Y1706898D02*
X2135900D01*
X2041948Y1705998D02*
X2135900D01*
X2040325Y1705098D02*
X2135900D01*
X1864100Y1704198D02*
X2135900D01*
X1864100Y1703298D02*
X2135900D01*
X1864100Y1702398D02*
X2135900D01*
X1864100Y1701498D02*
X2135900D01*
X1864100Y1700598D02*
X2135900D01*
X1864100Y1699698D02*
X2135900D01*
X1864100Y1698798D02*
X2135900D01*
X1864100Y1697898D02*
X2135900D01*
X1864100Y1696998D02*
X2135900D01*
X1864100Y1696098D02*
X2135900D01*
X1864100Y1695198D02*
X2135900D01*
X1864100Y1694298D02*
X2135900D01*
X1864100Y1693398D02*
X2135900D01*
X1864100Y1692498D02*
X2135900D01*
X1864100Y1691598D02*
X2135900D01*
X1864100Y1690698D02*
X2135900D01*
X1864100Y1689798D02*
X2135900D01*
X1864100Y1688898D02*
X2135900D01*
X1864100Y1687998D02*
X2135900D01*
X1864100Y1687098D02*
X2135900D01*
X1864100Y1686198D02*
X2135900D01*
X1864100Y1685298D02*
X2135900D01*
X1864100Y1684398D02*
X2135900D01*
X1864100Y1683498D02*
X2135900D01*
X1864100Y1682598D02*
X2135900D01*
X1864100Y1681698D02*
X2135900D01*
X1864100Y1680798D02*
X2135900D01*
X2126031Y1679898D02*
X2135900D01*
X2127406Y1678998D02*
X2135900D01*
X2128336Y1678098D02*
X2135900D01*
X2129014Y1677198D02*
X2135900D01*
X2129512Y1676298D02*
X2135900D01*
X2129869Y1675398D02*
X2135900D01*
X2130103Y1674498D02*
X2135900D01*
X2130226Y1673598D02*
X2135900D01*
X2130244Y1672698D02*
X2135900D01*
X2130156Y1671798D02*
X2135900D01*
X2129959Y1670898D02*
X2135900D01*
X2129645Y1669998D02*
X2135900D01*
X2129196Y1669098D02*
X2135900D01*
X2128583Y1668198D02*
X2135900D01*
X2127749Y1667298D02*
X2135900D01*
X2126560Y1666398D02*
X2135900D01*
X2124447Y1665498D02*
X2135900D01*
X2075025Y1664598D02*
X2135900D01*
X1864100Y1663698D02*
X2135900D01*
X1864100Y1662798D02*
X2135900D01*
X1864100Y1661898D02*
X2135900D01*
X1999104Y1660998D02*
X2135900D01*
X2000101Y1660098D02*
X2135900D01*
X2000588Y1659198D02*
X2135900D01*
X2000787Y1658298D02*
X2135900D01*
X2000747Y1657398D02*
X2135900D01*
X2000461Y1656498D02*
X2135900D01*
X1999846Y1655598D02*
X2135900D01*
X1998462Y1654698D02*
X2135900D01*
X1864100Y1653798D02*
X2135900D01*
X1864100Y1652898D02*
X2135900D01*
X2063089Y1651998D02*
X2135900D01*
X2065143Y1651098D02*
X2135900D01*
X2067302Y1650198D02*
X2135900D01*
X2068941Y1649298D02*
X2135900D01*
X2069521Y1648398D02*
X2135900D01*
X2069739Y1647498D02*
X2135900D01*
X2069678Y1646598D02*
X2135900D01*
X2069317Y1645698D02*
X2135900D01*
X2068479Y1644798D02*
X2135900D01*
X2005862Y1643898D02*
X2135900D01*
X2006000Y1642998D02*
X2135900D01*
X2005861Y1642098D02*
X2135900D01*
X2005399Y1641198D02*
X2135900D01*
X2004305Y1640298D02*
X2135900D01*
X2005650Y1639398D02*
X2135900D01*
X2006313Y1638498D02*
X2135900D01*
X2023328Y1637598D02*
X2135900D01*
X2024102Y1636698D02*
X2135900D01*
X2024482Y1635798D02*
X2135900D01*
X2024600Y1634898D02*
X2135900D01*
X2024481Y1633998D02*
X2135900D01*
X2024100Y1633098D02*
X2135900D01*
X2023325Y1632198D02*
X2135900D01*
X2002485Y1631298D02*
X2135900D01*
X2002439Y1630398D02*
X2135900D01*
X2002097Y1629498D02*
X2135900D01*
X2001298Y1628598D02*
X2135900D01*
X2000493Y1627698D02*
X2135900D01*
X2000416Y1626798D02*
X2135900D01*
X2000036Y1625898D02*
X2135900D01*
X2070810Y1624998D02*
X2135900D01*
X2073333Y1624098D02*
X2135900D01*
X2074672Y1623198D02*
X2135900D01*
X2075618Y1622298D02*
X2135900D01*
X2076329Y1621398D02*
X2135900D01*
X2076870Y1620498D02*
X2135900D01*
X2077275Y1619598D02*
X2135900D01*
X2077565Y1618698D02*
X2135900D01*
X2077751Y1617798D02*
X2135900D01*
X2077840Y1616898D02*
X2135900D01*
X2077835Y1615998D02*
X2135900D01*
X2077735Y1615098D02*
X2135900D01*
X2077538Y1614198D02*
X2135900D01*
X2077235Y1613298D02*
X2135900D01*
X2076815Y1612398D02*
X2135900D01*
X2076257Y1611498D02*
X2135900D01*
X2075524Y1610598D02*
X2135900D01*
X2074544Y1609698D02*
X2135900D01*
X2073138Y1608798D02*
X2135900D01*
X2070116Y1607898D02*
X2135900D01*
X1923207Y1606998D02*
X2135900D01*
X1923298Y1606098D02*
X2135900D01*
X1923153Y1605198D02*
X2135900D01*
X1922738Y1604298D02*
X2135900D01*
X1922548Y1603398D02*
X2135900D01*
X1923162Y1602498D02*
X2135900D01*
X1923448Y1601598D02*
X2135900D01*
X1923487Y1600698D02*
X2135900D01*
X1923287Y1599798D02*
X2135900D01*
X1922799Y1598898D02*
X2135900D01*
X1921800Y1597998D02*
X2135900D01*
X1864100Y1597098D02*
X2135900D01*
X1994520Y1596198D02*
X2135900D01*
X1995739Y1595298D02*
X2135900D01*
X1996308Y1594398D02*
X2135900D01*
X1996564Y1593498D02*
X2135900D01*
X1996576Y1592598D02*
X2135900D01*
X1996349Y1591698D02*
X2135900D01*
X1995821Y1590798D02*
X2135900D01*
X2126031Y1589898D02*
X2135900D01*
X2127406Y1588998D02*
X2135900D01*
X2128336Y1588098D02*
X2135900D01*
X2129014Y1587198D02*
X2135900D01*
X2129512Y1586298D02*
X2135900D01*
X2129869Y1585398D02*
X2135900D01*
X2130103Y1584498D02*
X2135900D01*
X2130226Y1583598D02*
X2135900D01*
X2130244Y1582698D02*
X2135900D01*
X2130156Y1581798D02*
X2135900D01*
X2129959Y1580898D02*
X2135900D01*
X2129645Y1579998D02*
X2135900D01*
X2129196Y1579098D02*
X2135900D01*
X2128583Y1578198D02*
X2135900D01*
X2127749Y1577298D02*
X2135900D01*
X2126560Y1576398D02*
X2135900D01*
X2124447Y1575498D02*
X2135900D01*
X1972291Y1574598D02*
X2135900D01*
X1972493Y1573698D02*
X2135900D01*
X2028927Y1572798D02*
X2135900D01*
X2029654Y1571898D02*
X2135900D01*
X2029958Y1570998D02*
X2135900D01*
X2029973Y1570098D02*
X2135900D01*
X2029703Y1569198D02*
X2135900D01*
X2029038Y1568298D02*
X2135900D01*
X1864100Y1567398D02*
X2135900D01*
X1864100Y1566498D02*
X2135900D01*
X1864100Y1565598D02*
X2135900D01*
X1864100Y1564698D02*
X2135900D01*
X1864100Y1563798D02*
X2135900D01*
X1864100Y1562898D02*
X2135900D01*
X1864100Y1561998D02*
X2135900D01*
X1864100Y1561098D02*
X2135900D01*
X1864100Y1560198D02*
X2135900D01*
X1864100Y1559298D02*
X2135900D01*
X1864100Y1558398D02*
X2135900D01*
X1864100Y1557498D02*
X2135900D01*
X1864100Y1556598D02*
X2135900D01*
X1864100Y1555698D02*
X2135900D01*
X1864100Y1554798D02*
X2135900D01*
X1864100Y1553898D02*
X2135900D01*
X1864100Y1552998D02*
X2135900D01*
X1864100Y1552098D02*
X2135900D01*
X1864100Y1551198D02*
X2135900D01*
X1920106Y1550298D02*
X2135900D01*
X1921872Y1549398D02*
X2135900D01*
X1922961Y1548498D02*
X2135900D01*
X1923738Y1547598D02*
X2135900D01*
X1924310Y1546698D02*
X2135900D01*
X1924727Y1545798D02*
X2135900D01*
X1925013Y1544898D02*
X2135900D01*
X1925185Y1543998D02*
X2135900D01*
X1925249Y1543098D02*
X2135900D01*
X1925208Y1542198D02*
X2135900D01*
X1925060Y1541298D02*
X2135900D01*
X2015301Y1540398D02*
X2135900D01*
X2016098Y1539498D02*
X2135900D01*
X2016439Y1538598D02*
X2135900D01*
X2046527Y1537698D02*
X2135900D01*
X2047254Y1536798D02*
X2135900D01*
X2047558Y1535898D02*
X2135900D01*
X2047573Y1534998D02*
X2135900D01*
X2047303Y1534098D02*
X2135900D01*
X2046638Y1533198D02*
X2135900D01*
X2019805Y1532298D02*
X2135900D01*
X2000538Y1531398D02*
X2135900D01*
X1998328Y1530498D02*
X2135900D01*
X1998498Y1529598D02*
X2135900D01*
X1998391Y1528698D02*
X2135900D01*
X1997970Y1527798D02*
X2135900D01*
X1996994Y1526898D02*
X2135900D01*
X1936500Y1525998D02*
X2135900D01*
X1936500Y1525098D02*
X2135900D01*
X1989810Y1524198D02*
X2135900D01*
X1990901Y1523298D02*
X2135900D01*
X1991362Y1522398D02*
X2135900D01*
X1991500Y1521498D02*
X2135900D01*
X1991361Y1520598D02*
X2135900D01*
X1990899Y1519698D02*
X2135900D01*
X1989805Y1518798D02*
X2135900D01*
X1980662Y1517898D02*
X2135900D01*
X1980948Y1516998D02*
X2135900D01*
X1980987Y1516098D02*
X2135900D01*
X1980787Y1515198D02*
X2135900D01*
X1980299Y1514298D02*
X2135900D01*
X1979300Y1513398D02*
X2135900D01*
X1936500Y1512498D02*
X2135900D01*
X1936500Y1511598D02*
X2135900D01*
X1936500Y1510698D02*
X2135900D01*
X1936500Y1509798D02*
X2135900D01*
X1936500Y1508898D02*
X2135900D01*
X1936500Y1507998D02*
X2135900D01*
X1936500Y1507098D02*
X2135900D01*
X1936500Y1506198D02*
X2135900D01*
X1936500Y1505298D02*
X2135900D01*
X1936500Y1504398D02*
X2135900D01*
X1936500Y1503498D02*
X2135900D01*
X1936500Y1502598D02*
X2135900D01*
X1936500Y1501698D02*
X2135900D01*
X1936500Y1500798D02*
X2135900D01*
X1936500Y1499898D02*
X2135900D01*
X2087637Y1498998D02*
X2135900D01*
X2089132Y1498098D02*
X2135900D01*
X2089868Y1497198D02*
X2135900D01*
X2090282Y1496298D02*
X2135900D01*
X2090470Y1495398D02*
X2135900D01*
X2090462Y1494498D02*
X2135900D01*
X2090257Y1493598D02*
X2135900D01*
X2089822Y1492698D02*
X2135900D01*
X2089052Y1491798D02*
X2135900D01*
X2087407Y1490898D02*
X2135900D01*
X1936500Y1489998D02*
X2135900D01*
X1936500Y1489098D02*
X2135900D01*
X1936500Y1488198D02*
X2135900D01*
X1936500Y1487298D02*
X2135900D01*
X1936500Y1486398D02*
X2135900D01*
X1936500Y1485498D02*
X2135900D01*
X1936500Y1484598D02*
X2135900D01*
X1949720Y1483698D02*
X2135900D01*
X2079427Y1482798D02*
X2135900D01*
X2080154Y1481898D02*
X2135900D01*
X2080458Y1480998D02*
X2135900D01*
X2080473Y1480098D02*
X2135900D01*
X2080203Y1479198D02*
X2135900D01*
X2079538Y1478298D02*
X2135900D01*
X2071494Y1477398D02*
X2135900D01*
X2051160Y1476498D02*
X2135900D01*
X2052038Y1475598D02*
X2135900D01*
X2052417Y1474698D02*
X2135900D01*
X2059601Y1473798D02*
X2135900D01*
X2060440Y1472898D02*
X2135900D01*
X2060854Y1471998D02*
X2135900D01*
X2060998Y1471098D02*
X2135900D01*
X2060907Y1470198D02*
X2135900D01*
X2060558Y1469298D02*
X2135900D01*
X2059841Y1468398D02*
X2135900D01*
X2052156Y1467498D02*
X2135900D01*
X2037473Y1466598D02*
X2135900D01*
X2056041Y1465698D02*
X2135900D01*
X2056704Y1464798D02*
X2135900D01*
X2056973Y1463898D02*
X2135900D01*
X2056957Y1462998D02*
X2135900D01*
X2056652Y1462098D02*
X2135900D01*
X2055924Y1461198D02*
X2135900D01*
X2050558Y1460298D02*
X2135900D01*
X2090301Y1459398D02*
X2135900D01*
X2091098Y1458498D02*
X2135900D01*
X2091439Y1457598D02*
X2135900D01*
X2091484Y1456698D02*
X2135900D01*
X2091248Y1455798D02*
X2135900D01*
X2091273Y1454898D02*
X2135900D01*
X2092737Y1453998D02*
X2135900D01*
X2093291Y1453098D02*
X2135900D01*
X2093493Y1452198D02*
X2135900D01*
X2093416Y1451298D02*
X2135900D01*
X2114273Y1450398D02*
X2135900D01*
X2115737Y1449498D02*
X2135900D01*
X2116291Y1448598D02*
X2135900D01*
X2116493Y1447698D02*
X2135900D01*
X2116416Y1446798D02*
X2135900D01*
X2116036Y1445898D02*
X2135900D01*
X2115156Y1444998D02*
X2135900D01*
X2103773Y1444098D02*
X2135900D01*
X2103757Y1443198D02*
X2135900D01*
X2103452Y1442298D02*
X2135900D01*
X2102724Y1441398D02*
X2135900D01*
X2091237Y1440498D02*
X2135900D01*
X2091791Y1439598D02*
X2135900D01*
X2091993Y1438698D02*
X2135900D01*
X2091916Y1437798D02*
X2135900D01*
X2091536Y1436898D02*
X2135900D01*
X2090656Y1435998D02*
X2135900D01*
X2089998Y1435098D02*
X2135900D01*
X2090972Y1434198D02*
X2135900D01*
X2091391Y1433298D02*
X2135900D01*
X2091498Y1432398D02*
X2135900D01*
X2091327Y1431498D02*
X2135900D01*
X2090820Y1430598D02*
X2135900D01*
X2121420Y1429698D02*
X2135900D01*
X2122639Y1428798D02*
X2135900D01*
X2123208Y1427898D02*
X2135900D01*
X2123464Y1426998D02*
X2135900D01*
X2123476Y1426098D02*
X2135900D01*
X2123249Y1425198D02*
X2135900D01*
X2122721Y1424298D02*
X2135900D01*
X2121622Y1423398D02*
X2135900D01*
X2115804Y1422498D02*
X2135900D01*
X2116801Y1421598D02*
X2135900D01*
X2117288Y1420698D02*
X2135900D01*
X2117487Y1419798D02*
X2135900D01*
X2117447Y1418898D02*
X2135900D01*
X2117161Y1417998D02*
X2135900D01*
X2116546Y1417098D02*
X2135900D01*
X2115162Y1416198D02*
X2135900D01*
X2080298Y1415298D02*
X2135900D01*
X2080639Y1414398D02*
X2135900D01*
X2080684Y1413498D02*
X2135900D01*
X2080448Y1412598D02*
X2135900D01*
X2079841Y1411698D02*
X2135900D01*
X2063100Y1410798D02*
X2135900D01*
X2068169Y1409898D02*
X2135900D01*
X2069548Y1408998D02*
X2135900D01*
X2070162Y1408098D02*
X2135900D01*
X2070448Y1407198D02*
X2135900D01*
X2070487Y1406298D02*
X2135900D01*
X2070287Y1405398D02*
X2135900D01*
X2069799Y1404498D02*
X2135900D01*
X2068800Y1403598D02*
X2135900D01*
X2060677Y1402698D02*
X2135900D01*
X2060663Y1401798D02*
X2135900D01*
X2060407Y1400898D02*
X2135900D01*
X2059837Y1399998D02*
X2135900D01*
X2058614Y1399098D02*
X2135900D01*
X2027441Y1398198D02*
X2135900D01*
X1970787Y1397298D02*
X2135900D01*
X1973836Y1396398D02*
X2135900D01*
X2068904Y1395498D02*
X2135900D01*
X2069901Y1394598D02*
X2135900D01*
X2070388Y1393698D02*
X2135900D01*
X2070587Y1392798D02*
X2135900D01*
X2070547Y1391898D02*
X2135900D01*
X2072096Y1390998D02*
X2135900D01*
X2074344Y1390098D02*
X2135900D01*
X2075060Y1389198D02*
X2135900D01*
X2075407Y1388298D02*
X2135900D01*
X2075498Y1387398D02*
X2135900D01*
X2075353Y1386498D02*
X2135900D01*
X2074938Y1385598D02*
X2135900D01*
X2074098Y1384698D02*
X2135900D01*
X2003287Y1383798D02*
X2135900D01*
X2062401Y1382898D02*
X2135900D01*
X2065089Y1381998D02*
X2135900D01*
X2067143Y1381098D02*
X2135900D01*
X2067750Y1380198D02*
X2135900D01*
X2080830Y1379298D02*
X2135900D01*
X2082449Y1378398D02*
X2135900D01*
X2083242Y1377498D02*
X2135900D01*
X2083706Y1376598D02*
X2135900D01*
X2083945Y1375698D02*
X2135900D01*
X2083995Y1374798D02*
X2135900D01*
X2083863Y1373898D02*
X2135900D01*
X2083530Y1372998D02*
X2135900D01*
X2082939Y1372098D02*
X2135900D01*
X2081908Y1371198D02*
X2135900D01*
X2125106Y1370298D02*
X2135900D01*
X2126872Y1369398D02*
X2135900D01*
X2127961Y1368498D02*
X2135900D01*
X2128738Y1367598D02*
X2135900D01*
X2129310Y1366698D02*
X2135900D01*
X2129727Y1365798D02*
X2135900D01*
X2130013Y1364898D02*
X2135900D01*
X2130185Y1363998D02*
X2135900D01*
X2130249Y1363098D02*
X2135900D01*
X2130208Y1362198D02*
X2135900D01*
X2130060Y1361298D02*
X2135900D01*
X2129800Y1360398D02*
X2135900D01*
X2129414Y1359498D02*
X2135900D01*
X2128878Y1358598D02*
X2135900D01*
X2128153Y1357698D02*
X2135900D01*
X2127148Y1356798D02*
X2135900D01*
X2125603Y1355898D02*
X2135900D01*
X1864100Y1354998D02*
X2135900D01*
X1864100Y1354098D02*
X2135900D01*
X1864100Y1353198D02*
X2135900D01*
X1864100Y1352298D02*
X2135900D01*
X1864100Y1351398D02*
X2135900D01*
X1864100Y1350498D02*
X2135900D01*
X1879807Y1900398D02*
X2120597D01*
X2075800Y1665498D02*
X2120552D01*
X1971737Y1575498D02*
X2120552D01*
X2072557Y1370298D02*
X2119893D01*
X1880603Y1355898D02*
X2119396D01*
X2034300Y1885998D02*
X2119194D01*
X1864100Y1679898D02*
X2118968D01*
X1995477Y1589898D02*
X2118968D01*
X2108920Y1429698D02*
X2118579D01*
X1881722Y1899498D02*
X2118551D01*
X2076181Y1666398D02*
X2118439D01*
X1970273Y1576398D02*
X2118439D01*
X2109122Y1423398D02*
X2118377D01*
X2067940Y1369398D02*
X2118127D01*
X1882148Y1356798D02*
X2117851D01*
X2050341Y1886898D02*
X2117794D01*
X1864100Y1678998D02*
X2117593D01*
X1995463Y1588998D02*
X2117593D01*
X1882858Y1898598D02*
X2117379D01*
X2110139Y1428798D02*
X2117360D01*
X2110221Y1424298D02*
X2117278D01*
X2076300Y1667298D02*
X2117250D01*
X1864100Y1577298D02*
X2117250D01*
X2068354Y1368498D02*
X2117038D01*
X2051058Y1887798D02*
X2116854D01*
X1883153Y1357698D02*
X2116846D01*
X2110708Y1427898D02*
X2116791D01*
X2110749Y1425198D02*
X2116750D01*
X1864100Y1678098D02*
X2116663D01*
X1995207Y1588098D02*
X2116663D01*
X1883663Y1897698D02*
X2116554D01*
X2110964Y1426998D02*
X2116535D01*
X2110976Y1426098D02*
X2116523D01*
X2076182Y1668198D02*
X2116416D01*
X1864100Y1578198D02*
X2116416D01*
X2068498Y1367598D02*
X2116261D01*
X2051407Y1888698D02*
X2116169D01*
X1883878Y1358598D02*
X2116121D01*
X1864100Y1677198D02*
X2115985D01*
X1994637Y1587198D02*
X2115985D01*
X1884255Y1896798D02*
X2115948D01*
X2075802Y1669098D02*
X2115803D01*
X1864100Y1579098D02*
X2115803D01*
X2068407Y1366698D02*
X2115689D01*
X2051498Y1889598D02*
X2115665D01*
X1884414Y1359498D02*
X2115585D01*
X1884687Y1895898D02*
X2115504D01*
X1864100Y1676298D02*
X2115487D01*
X1993414Y1586298D02*
X2115487D01*
X2075028Y1669998D02*
X2115354D01*
X1864100Y1579998D02*
X2115354D01*
X2051354Y1890498D02*
X2115303D01*
X2068058Y1365798D02*
X2115272D01*
X1884800Y1360398D02*
X2115199D01*
X1884987Y1894998D02*
X2115194D01*
X1992461Y1675398D02*
X2115130D01*
X1864100Y1585398D02*
X2115130D01*
X2050940Y1891398D02*
X2115065D01*
X1993612Y1670898D02*
X2115040D01*
X1864100Y1580898D02*
X2115040D01*
X2026569Y1894098D02*
X2115001D01*
X2067341Y1364898D02*
X2114986D01*
X1885060Y1361298D02*
X2114939D01*
X2050101Y1892298D02*
X2114938D01*
X2027948Y1893198D02*
X2114917D01*
X1993373Y1674498D02*
X2114896D01*
X1864100Y1584498D02*
X2114896D01*
X1993929Y1671798D02*
X2114843D01*
X1864100Y1581798D02*
X2114843D01*
X2056927Y1363998D02*
X2114814D01*
X2055173Y1362198D02*
X2114791D01*
X1993823Y1673598D02*
X2114773D01*
X1864100Y1583598D02*
X2114773D01*
X1993994Y1672698D02*
X2114755D01*
X1864100Y1582698D02*
X2114755D01*
X2056420Y1363098D02*
X2114750D01*
X2079501Y1416198D02*
X2112837D01*
X2093036Y1450398D02*
X2112726D01*
X1864100Y1422498D02*
X2112195D01*
X2103504Y1444998D02*
X2111843D01*
X2062469Y1417098D02*
X2111453D01*
X2092156Y1449498D02*
X2111262D01*
X1864100Y1421598D02*
X2111198D01*
X2102841Y1445898D02*
X2110963D01*
X1864100Y1417998D02*
X2110838D01*
X1864100Y1420698D02*
X2110711D01*
X2090143Y1448598D02*
X2110708D01*
X2090985Y1446798D02*
X2110583D01*
X1864100Y1418898D02*
X2110552D01*
X1864100Y1419798D02*
X2110512D01*
X2090750Y1447698D02*
X2110506D01*
X2089573Y1429698D02*
X2106079D01*
X1992525Y1423398D02*
X2105877D01*
X2017466Y1428798D02*
X2104860D01*
X1994148Y1424298D02*
X2104778D01*
X2020238Y1804998D02*
X2104612D01*
X2003241Y1787898D02*
X2104612D01*
X2017086Y1427898D02*
X2104291D01*
X1994812Y1425198D02*
X2104250D01*
X2016206Y1426998D02*
X2104035D01*
X1995129Y1426098D02*
X2104023D01*
X1933000Y1814898D02*
X2103541D01*
X2061925Y1797798D02*
X2103541D01*
X2019360Y1805898D02*
X2102972D01*
X2003848Y1788798D02*
X2102972D01*
X1933000Y1813998D02*
X2102422D01*
X2043314Y1796898D02*
X2102422D01*
X1988225Y1806798D02*
X2102077D01*
X2004084Y1789698D02*
X2102077D01*
X1990828Y1728498D02*
X2101959D01*
X1933000Y1813098D02*
X2101725D01*
X2017703Y1795998D02*
X2101725D01*
X1989000Y1807698D02*
X2101501D01*
X2004500Y1790598D02*
X2101501D01*
X2041461Y1711398D02*
X2101302D01*
X1988228Y1812198D02*
X2101275D01*
X2017038Y1795098D02*
X2101275D01*
X1989381Y1808598D02*
X2101138D01*
X2005499Y1791498D02*
X2101138D01*
X1989002Y1811298D02*
X2101010D01*
X2006148Y1794198D02*
X2101010D01*
X1989500Y1809498D02*
X2100944D01*
X2005987Y1792398D02*
X2100944D01*
X1989382Y1810398D02*
X2100903D01*
X2006187Y1793298D02*
X2100903D01*
X1990998Y1727598D02*
X2098956D01*
X2089773Y1441398D02*
X2098875D01*
X1925218Y1712298D02*
X2098771D01*
X2090939Y1445898D02*
X2098758D01*
X2016538Y1442298D02*
X2098147D01*
X2090597Y1444998D02*
X2098095D01*
X2058098Y1443198D02*
X2097842D01*
X2089798Y1444098D02*
X2097826D01*
X1990891Y1726698D02*
X2097552D01*
X2034500Y1713198D02*
X2097430D01*
X1990470Y1725798D02*
X2096573D01*
X2035499Y1714098D02*
X2096483D01*
X1989494Y1724898D02*
X2095840D01*
X2035987Y1714998D02*
X2095772D01*
X1977500Y1723998D02*
X2095282D01*
X2036187Y1715898D02*
X2095231D01*
X1977361Y1723098D02*
X2094863D01*
X2036148Y1716798D02*
X2094825D01*
X1976899Y1722198D02*
X2094561D01*
X2035862Y1717698D02*
X2094534D01*
X1975805Y1721298D02*
X2094363D01*
X2035248Y1718598D02*
X2094348D01*
X1919807Y1720398D02*
X2094264D01*
X2033869Y1719498D02*
X2094259D01*
X1963957Y1772598D02*
X2092174D01*
X2001952Y1778898D02*
X2091038D01*
X1964871Y1773498D02*
X2090551D01*
X2001224Y1777998D02*
X2090126D01*
X1965322Y1774398D02*
X2089887D01*
X1965113Y1777098D02*
X2089676D01*
X1965494Y1775298D02*
X2089570D01*
X1965429Y1776198D02*
X2089505D01*
X2088089Y1449498D02*
X2088843D01*
X2074988Y1453998D02*
X2088262D01*
X2023461Y1441398D02*
X2088226D01*
X2060299Y1450398D02*
X2087963D01*
X2059300Y1449498D02*
X2087910D01*
X2074430Y1453098D02*
X2087708D01*
X2060787Y1451298D02*
X2087583D01*
X2072942Y1452198D02*
X2087506D01*
X2017543Y1429698D02*
X2087426D01*
X2023948Y1435998D02*
X2087343D01*
X2022325Y1435098D02*
X2087001D01*
X2024373Y1440498D02*
X2086762D01*
X2049841Y1459398D02*
X2086698D01*
X2024612Y1436898D02*
X2086463D01*
X2075192Y1454898D02*
X2086358D01*
X2024823Y1439598D02*
X2086208D01*
X2058938Y1444098D02*
X2086201D01*
X2017341Y1430598D02*
X2086179D01*
X2024929Y1437798D02*
X2086083D01*
X1969407Y1434198D02*
X2086027D01*
X2024994Y1438698D02*
X2086006D01*
X2034098Y1458498D02*
X2085901D01*
X2058344Y1448598D02*
X2085856D01*
X2075118Y1455798D02*
X2085751D01*
X2016787Y1431498D02*
X2085672D01*
X1969058Y1433298D02*
X2085608D01*
X2073868Y1457598D02*
X2085560D01*
X2074741Y1456698D02*
X2085515D01*
X2015323Y1432398D02*
X2085501D01*
X2059353Y1444998D02*
X2085402D01*
X2059060Y1447698D02*
X2085249D01*
X1951974Y1490898D02*
X2085072D01*
X2059498Y1445898D02*
X2085060D01*
X2059407Y1446798D02*
X2085014D01*
X1952204Y1498998D02*
X2084842D01*
X1952916Y1757298D02*
X2084130D01*
X1953202Y1764498D02*
X2083844D01*
X2071305Y1491798D02*
X2083427D01*
X2058498Y1498098D02*
X2083347D01*
X1998073Y1758198D02*
X2083033D01*
X1998498Y1763598D02*
X2082886D01*
X2072399Y1492698D02*
X2082657D01*
X2071310Y1497198D02*
X2082612D01*
X1999320Y1759098D02*
X2082433D01*
X1999472Y1762698D02*
X2082349D01*
X2072861Y1493598D02*
X2082222D01*
X2072401Y1496298D02*
X2082198D01*
X1999827Y1759998D02*
X2082106D01*
X1999891Y1761798D02*
X2082068D01*
X2073000Y1494498D02*
X2082018D01*
X2072862Y1495398D02*
X2082010D01*
X1999998Y1760898D02*
X2081991D01*
X2067985Y1379298D02*
X2078169D01*
X2073471Y1371198D02*
X2077091D01*
X2067939Y1378398D02*
X2076550D01*
X2073922Y1372098D02*
X2076060D01*
X2063848Y1416198D02*
X2075898D01*
X2067597Y1377498D02*
X2075757D01*
X2071080Y1482798D02*
X2075572D01*
X2064099Y1411698D02*
X2075558D01*
X2074094Y1372998D02*
X2075469D01*
X2072470Y1478298D02*
X2075461D01*
X2071436Y1376598D02*
X2075293D01*
X2074029Y1373898D02*
X2075136D01*
X2064462Y1415298D02*
X2075101D01*
X2073050Y1375698D02*
X2075054D01*
X2073713Y1374798D02*
X2075004D01*
X2064587Y1412598D02*
X2074951D01*
X2072322Y1481898D02*
X2074845D01*
X2072891Y1479198D02*
X2074796D01*
X2064748Y1414398D02*
X2074760D01*
X2064787Y1413498D02*
X2074715D01*
X2072828Y1480998D02*
X2074541D01*
X2072998Y1480098D02*
X2074526D01*
X2070261Y1390998D02*
X2071903D01*
X2060987Y1452198D02*
X2071457D01*
X1864100Y1664598D02*
X2070574D01*
X1992948Y1669998D02*
X2070571D01*
X2034439Y1457598D02*
X2070531D01*
X2060948Y1453098D02*
X2069969D01*
X2004927Y1384698D02*
X2069901D01*
X1864100Y1665498D02*
X2069799D01*
X1991325Y1669098D02*
X2069797D01*
X2066798Y1376598D02*
X2069763D01*
X2034484Y1456698D02*
X2069658D01*
X2069646Y1390098D02*
X2069655D01*
X1864100Y1666398D02*
X2069418D01*
X1864100Y1668198D02*
X2069417D01*
X2060662Y1453998D02*
X2069411D01*
X1864100Y1667298D02*
X2069299D01*
X2058669Y1455798D02*
X2069281D01*
X2060048Y1454898D02*
X2069207D01*
X2005822Y1385598D02*
X2069061D01*
X2068262Y1389198D02*
X2068939D01*
X2062927Y1482798D02*
X2068919D01*
X1953619Y1491798D02*
X2068694D01*
X2059472Y1497198D02*
X2068689D01*
X2006398Y1386498D02*
X2068646D01*
X2067101Y1370298D02*
X2068642D01*
X2006955Y1388298D02*
X2068592D01*
X2018290Y1477398D02*
X2068505D01*
X2006761Y1387398D02*
X2068501D01*
X1922860Y1607898D02*
X2068283D01*
X1864100Y1375698D02*
X2068149D01*
X1864100Y1371198D02*
X2067728D01*
X2063654Y1481898D02*
X2067677D01*
X2058073Y1492698D02*
X2067600D01*
X2059891Y1496298D02*
X2067598D01*
X1999156Y1624998D02*
X2067589D01*
X2063038Y1478298D02*
X2067529D01*
X1864100Y1876098D02*
X2067526D01*
X1864100Y1374798D02*
X2067486D01*
X1864100Y1372098D02*
X2067277D01*
X2063958Y1480998D02*
X2067171D01*
X1864100Y1373898D02*
X2067170D01*
X2059320Y1493598D02*
X2067138D01*
X2059998Y1495398D02*
X2067137D01*
X2063703Y1479198D02*
X2067108D01*
X1864100Y1372998D02*
X2067105D01*
X2056201Y1881498D02*
X2067101D01*
X2063973Y1480098D02*
X2067001D01*
X2059827Y1494498D02*
X2066999D01*
X2055105Y1876998D02*
X2066279D01*
X2065750Y1650198D02*
X2066197D01*
X2056662Y1880598D02*
X2066127D01*
X2006996Y1389198D02*
X2065937D01*
X2045947Y1409898D02*
X2065830D01*
X2056199Y1877898D02*
X2065772D01*
X2056800Y1879698D02*
X2065708D01*
X2056661Y1878798D02*
X2065601D01*
X1975450Y1395498D02*
X2065295D01*
X1922144Y1608798D02*
X2065261D01*
X2060450Y1403598D02*
X2065199D01*
X1864100Y1624098D02*
X2065066D01*
X2005401Y1644798D02*
X2065020D01*
X2063198Y1381998D02*
X2064910D01*
X2006889Y1390098D02*
X2064553D01*
X2045661Y1408998D02*
X2064451D01*
X1976113Y1394598D02*
X2064298D01*
X2059923Y1404498D02*
X2064200D01*
X2004310Y1645698D02*
X2064182D01*
X2006624Y1390998D02*
X2063938D01*
X1919896Y1609698D02*
X2063855D01*
X2045046Y1408098D02*
X2063837D01*
X2004358Y1393698D02*
X2063811D01*
X1864100Y1623198D02*
X2063727D01*
X2058827Y1405398D02*
X2063712D01*
X2006174Y1391898D02*
X2063652D01*
X2005477Y1392798D02*
X2063612D01*
X2043662Y1407198D02*
X2063551D01*
X2027082Y1406298D02*
X2063512D01*
X2052756Y1376598D02*
X2063201D01*
X1961596Y1651998D02*
X2062910D01*
X1880106Y1370298D02*
X2062898D01*
X1864100Y1610598D02*
X2062875D01*
X1966101Y1622298D02*
X2062781D01*
X2057098Y1364898D02*
X2062658D01*
X2053636Y1377498D02*
X2062402D01*
X1985800Y1611498D02*
X2062142D01*
X1966940Y1621398D02*
X2062070D01*
X1881872Y1369398D02*
X2062059D01*
X2056991Y1365798D02*
X2061941D01*
X1882961Y1368498D02*
X2061645D01*
X2056572Y1366698D02*
X2061592D01*
X1986799Y1612398D02*
X2061584D01*
X1967354Y1620498D02*
X2061529D01*
X2055598Y1367598D02*
X2061501D01*
X1979152Y1646598D02*
X2061201D01*
X1987287Y1613298D02*
X2061164D01*
X1967498Y1619598D02*
X2061124D01*
X1987487Y1614198D02*
X2060861D01*
X1963844Y1651098D02*
X2060856D01*
X1967407Y1618698D02*
X2060834D01*
X1987448Y1615098D02*
X2060664D01*
X1985169Y1617798D02*
X2060648D01*
X1987162Y1615998D02*
X2060564D01*
X1986548Y1616898D02*
X2060559D01*
X1979457Y1647498D02*
X2060402D01*
X1978541Y1650198D02*
X2060249D01*
X1961127Y1417098D02*
X2060130D01*
X1979473Y1648398D02*
X2060060D01*
X1979204Y1649298D02*
X2060014D01*
X2045987Y1410798D02*
X2059499D01*
X2051827Y1482798D02*
X2059072D01*
X2051938Y1478298D02*
X2058961D01*
X1864100Y1382898D02*
X2058798D01*
X1962223Y1416198D02*
X2058751D01*
X2045788Y1411698D02*
X2058500D01*
X2054016Y1378398D02*
X2058458D01*
X2052554Y1481898D02*
X2058345D01*
X2052603Y1479198D02*
X2058296D01*
X1962750Y1415298D02*
X2058137D01*
X2052858Y1480998D02*
X2058041D01*
X2052873Y1480098D02*
X2058026D01*
X2045301Y1412598D02*
X2058012D01*
X2051873Y1381998D02*
X2058001D01*
X1962977Y1414398D02*
X2057851D01*
X2054093Y1379298D02*
X2057851D01*
X2044304Y1413498D02*
X2057812D01*
X2053337Y1381098D02*
X2057660D01*
X2053891Y1380198D02*
X2057615D01*
X2044537Y1797798D02*
X2057474D01*
X2043527Y1803198D02*
X2057471D01*
X2045107Y1798698D02*
X2056699D01*
X2044623Y1802298D02*
X2056697D01*
X2034248Y1455798D02*
X2056330D01*
X2045363Y1799598D02*
X2056318D01*
X2045150Y1801398D02*
X2056317D01*
X2045377Y1800498D02*
X2056199D01*
X2053073Y1492698D02*
X2055926D01*
X2047925Y1399098D02*
X2055785D01*
X2049854Y1449498D02*
X2055699D01*
X2049061Y1405398D02*
X2055572D01*
X2053498Y1498098D02*
X2055501D01*
X2052493Y1473798D02*
X2055398D01*
X2053036Y1468398D02*
X2055158D01*
X2049301Y1454898D02*
X2054951D01*
X2049641Y1450398D02*
X2054700D01*
X2054320Y1493598D02*
X2054679D01*
X2049548Y1399998D02*
X2054562D01*
X2052290Y1472898D02*
X2054559D01*
X2054472Y1497198D02*
X2054527D01*
X2049973Y1404498D02*
X2054476D01*
X2053416Y1469298D02*
X2054441D01*
X2050098Y1453998D02*
X2054337D01*
X2050248Y1451298D02*
X2054212D01*
X2052737Y1471998D02*
X2054145D01*
X2053493Y1470198D02*
X2054092D01*
X2050439Y1453098D02*
X2054051D01*
X2050484Y1452198D02*
X2054012D01*
X2053291Y1471098D02*
X2054001D01*
X2050212Y1400898D02*
X2053992D01*
X2050423Y1403598D02*
X2053949D01*
X2017203Y1443198D02*
X2053901D01*
X2050529Y1401798D02*
X2053736D01*
X2050594Y1402698D02*
X2053722D01*
X2049998Y1448598D02*
X2053655D01*
X2017473Y1444098D02*
X2053061D01*
X1885208Y1362198D02*
X2053026D01*
X2049907Y1447698D02*
X2052939D01*
X2017458Y1444998D02*
X2052646D01*
X1883738Y1367598D02*
X2052601D01*
X2049558Y1446798D02*
X2052592D01*
X2048841Y1445898D02*
X2052501D01*
X1864100Y1876998D02*
X2052494D01*
X2028560Y1882398D02*
X2052489D01*
X2050907Y1461198D02*
X2052075D01*
X2037203Y1465698D02*
X2051958D01*
X1885249Y1363098D02*
X2051779D01*
X1884310Y1366698D02*
X2051627D01*
X2027598Y1877898D02*
X2051400D01*
X2028907Y1881498D02*
X2051398D01*
X2050998Y1462098D02*
X2051347D01*
X2049601Y1464798D02*
X2051295D01*
X1885185Y1363998D02*
X2051272D01*
X1884727Y1365798D02*
X2051208D01*
X1885013Y1364898D02*
X2051101D01*
X2050854Y1462998D02*
X2051042D01*
X2050440Y1463898D02*
X2051026D01*
X2028438Y1878798D02*
X2050938D01*
X2028998Y1880598D02*
X2050937D01*
X2030541Y1492698D02*
X2050926D01*
X2028853Y1879698D02*
X2050799D01*
X1980498Y1498098D02*
X2050501D01*
X2047860Y1381998D02*
X2050326D01*
X2031148Y1493598D02*
X2049679D01*
X2030201Y1497198D02*
X2049527D01*
X2046963Y1376598D02*
X2049443D01*
X2031384Y1494498D02*
X2049172D01*
X2030998Y1496298D02*
X2049108D01*
X2031339Y1495398D02*
X2049001D01*
X2048738Y1381098D02*
X2048862D01*
X2037458Y1467498D02*
X2048843D01*
X2048434Y1377498D02*
X2048563D01*
X1950939Y1482798D02*
X2047972D01*
X2037154Y1468398D02*
X2047963D01*
X2018493Y1478298D02*
X2047861D01*
X2035304Y1476498D02*
X2047839D01*
X2036046Y1471098D02*
X2047708D01*
X2036427Y1469298D02*
X2047583D01*
X2034662Y1470198D02*
X2047506D01*
X2036661Y1471998D02*
X2047265D01*
X1951508Y1481898D02*
X2047245D01*
X2018417Y1479198D02*
X2047196D01*
X2036301Y1475598D02*
X2046961D01*
X2017160Y1480998D02*
X2046941D01*
X2018038Y1480098D02*
X2046926D01*
X2036947Y1472898D02*
X2046709D01*
X2036788Y1474698D02*
X2046582D01*
X2036987Y1473798D02*
X2046506D01*
X2028158Y1399098D02*
X2046274D01*
X2043601Y1892298D02*
X2045898D01*
X2033641Y1454898D02*
X2045698D01*
X2043841Y1886898D02*
X2045658D01*
X1864100Y1376598D02*
X2045436D01*
X2036538Y1464798D02*
X2045398D01*
X2033301Y1459398D02*
X2045158D01*
X2027200Y1405398D02*
X2045138D01*
X2044440Y1891398D02*
X2045059D01*
X2044558Y1887798D02*
X2044941D01*
X2005034Y1453998D02*
X2044901D01*
X2028507Y1399998D02*
X2044651D01*
X2003563Y1453098D02*
X2044560D01*
X2005862Y1463898D02*
X2044559D01*
X1864100Y1381998D02*
X2044539D01*
X1936500Y1452198D02*
X2044515D01*
X2023427Y1460298D02*
X2044441D01*
X2016427Y1451298D02*
X2044398D01*
X2027081Y1404498D02*
X2044226D01*
X2017154Y1445898D02*
X2044158D01*
X2006000Y1462998D02*
X2044145D01*
X2013541Y1461198D02*
X2044092D01*
X2005861Y1462098D02*
X2044001D01*
X2028598Y1400898D02*
X2043987D01*
X1864100Y1377498D02*
X2043965D01*
X2027201Y1403598D02*
X2043776D01*
X2028454Y1401798D02*
X2043670D01*
X1864100Y1381098D02*
X2043661D01*
X2028040Y1402698D02*
X2043605D01*
X2017154Y1450398D02*
X2043559D01*
X2016538Y1446798D02*
X2043441D01*
X1864100Y1378398D02*
X2043409D01*
X1864100Y1380198D02*
X2043282D01*
X1864100Y1379298D02*
X2043206D01*
X2017458Y1449498D02*
X2043145D01*
X2017203Y1447698D02*
X2043092D01*
X2017473Y1448598D02*
X2043001D01*
X2019810Y1537698D02*
X2042672D01*
X2020899Y1533198D02*
X2042561D01*
X2020901Y1536798D02*
X2041945D01*
X2021361Y1534098D02*
X2041896D01*
X2021362Y1535898D02*
X2041641D01*
X2021500Y1534998D02*
X2041626D01*
X2026702Y1407198D02*
X2041337D01*
X2037141Y1413498D02*
X2040695D01*
X2017973Y1796898D02*
X2040485D01*
X2020693Y1803198D02*
X2040272D01*
X2026346Y1408098D02*
X2039953D01*
X2037804Y1412598D02*
X2039698D01*
X2037101Y1892298D02*
X2039398D01*
X2037024Y1408998D02*
X2039338D01*
X2017958Y1797798D02*
X2039262D01*
X2038073Y1411698D02*
X2039211D01*
X2020490Y1802298D02*
X2039176D01*
X2037341Y1886898D02*
X2039158D01*
X2037752Y1409898D02*
X2039052D01*
X2038057Y1410798D02*
X2039012D01*
X2017654Y1798698D02*
X2038692D01*
X1864100Y1705098D02*
X2038674D01*
X2019934Y1801398D02*
X2038649D01*
X2037940Y1891398D02*
X2038559D01*
X2038058Y1887798D02*
X2038441D01*
X2016927Y1799598D02*
X2038436D01*
X2018463Y1800498D02*
X2038422D01*
X1925082Y1711398D02*
X2037538D01*
X1920823Y1705998D02*
X2037051D01*
X1924835Y1710498D02*
X2036626D01*
X1922278Y1706898D02*
X2036387D01*
X1924463Y1709598D02*
X2036176D01*
X1923245Y1707798D02*
X2036070D01*
X1923946Y1708698D02*
X2036005D01*
X2026961Y1408998D02*
X2033175D01*
X2025604Y1413498D02*
X2033058D01*
X2026039Y1828398D02*
X2032899D01*
X2028562Y1892298D02*
X2032898D01*
X2000129Y1469298D02*
X2032572D01*
X2005401Y1464798D02*
X2032461D01*
X2027247Y1409898D02*
X2032447D01*
X1888998Y1838298D02*
X2032419D01*
X2026601Y1412598D02*
X2032395D01*
X2000099Y1470198D02*
X2032337D01*
X2027287Y1410798D02*
X2032142D01*
X2027088Y1411698D02*
X2032126D01*
X2028848Y1891398D02*
X2032059D01*
X2024820Y1829298D02*
X2031900D01*
X1999876Y1468398D02*
X2031845D01*
X2004310Y1465698D02*
X2031796D01*
X2017734Y1476498D02*
X2031695D01*
X2028887Y1890498D02*
X2031645D01*
X1999240Y1467498D02*
X2031541D01*
X2020953Y1832898D02*
X2031537D01*
X2028404Y1719498D02*
X2031530D01*
X1936500Y1466598D02*
X2031526D01*
X2028687Y1889598D02*
X2031501D01*
X2005987Y1830198D02*
X2031412D01*
X2020538Y1831998D02*
X2031251D01*
X2019698Y1831098D02*
X2031212D01*
X2017696Y1837398D02*
X2031177D01*
X2021098Y1833798D02*
X2031029D01*
X1999777Y1471098D02*
X2030953D01*
X2027762Y1713198D02*
X2030899D01*
X2016263Y1475598D02*
X2030698D01*
X2019944Y1836498D02*
X2030671D01*
X2021007Y1834698D02*
X2030608D01*
X2020660Y1835598D02*
X2030501D01*
X1999016Y1471998D02*
X2030338D01*
X1991249Y1474698D02*
X2030211D01*
X2029401Y1718598D02*
X2030151D01*
X1989622Y1472898D02*
X2030052D01*
X1990721Y1473798D02*
X2030012D01*
X2029146Y1714098D02*
X2029900D01*
X2024154Y1459398D02*
X2029698D01*
X2005590Y1454898D02*
X2029358D01*
X2024458Y1458498D02*
X2028901D01*
X2023538Y1455798D02*
X2028751D01*
X2027844Y1883298D02*
X2028574D01*
X2028199Y1888698D02*
X2028571D01*
X2024473Y1457598D02*
X2028560D01*
X2024203Y1456698D02*
X2028515D01*
X2025596Y1884198D02*
X2027799D01*
X2027200Y1887798D02*
X2027797D01*
X2026876Y1825698D02*
X2027519D01*
X1973307Y1885098D02*
X2027418D01*
X1973254Y1886898D02*
X2027417D01*
X1973398Y1885998D02*
X2027299D01*
X1985589Y1820298D02*
X2027105D01*
X1981472Y1497198D02*
X2026598D01*
X2008801Y1747398D02*
X2026498D01*
X1980073Y1492698D02*
X2026258D01*
X2018939Y1742898D02*
X2026158D01*
X1985560Y1821198D02*
X2026129D01*
X1981891Y1496298D02*
X2025801D01*
X1985343Y1822098D02*
X2025708D01*
X2016089Y1746498D02*
X2025701D01*
X1981320Y1493598D02*
X2025651D01*
X2025022Y1822998D02*
X2025601D01*
X2018985Y1743798D02*
X2025551D01*
X1981998Y1495398D02*
X2025460D01*
X2022598Y1713198D02*
X2025437D01*
X1981827Y1494498D02*
X2025415D01*
X1972958Y1884198D02*
X2025403D01*
X2018143Y1745598D02*
X2025360D01*
X2018750Y1744698D02*
X2025315D01*
X1972416Y1572798D02*
X2025072D01*
X1864100Y1568298D02*
X2024961D01*
X2020596Y1719498D02*
X2024795D01*
X1972036Y1571898D02*
X2024345D01*
X1864100Y1569198D02*
X2024296D01*
X1885171Y1894098D02*
X2024230D01*
X2023438Y1714098D02*
X2024053D01*
X1971156Y1570998D02*
X2024041D01*
X1864100Y1570098D02*
X2024026D01*
X2022844Y1718598D02*
X2023798D01*
X1972840Y1887798D02*
X2023599D01*
X1981494Y1877898D02*
X2023401D01*
X1981080Y1883298D02*
X2023155D01*
X1885247Y1893198D02*
X2022851D01*
X1970987Y1398198D02*
X2022758D01*
X1972001Y1888698D02*
X2022600D01*
X1982470Y1878798D02*
X2022561D01*
X1982322Y1882398D02*
X2022439D01*
X1885218Y1892298D02*
X2022237D01*
X1982891Y1879698D02*
X2022146D01*
X1884463Y1889598D02*
X2022112D01*
X1982828Y1881498D02*
X2022092D01*
X1970948Y1399098D02*
X2022041D01*
X1982998Y1880598D02*
X2022001D01*
X1962963Y1413498D02*
X2021995D01*
X2005787Y1829298D02*
X2021979D01*
X1885082Y1891398D02*
X2021951D01*
X1884835Y1890498D02*
X2021912D01*
X1984907Y1822998D02*
X2021777D01*
X1968669Y1401798D02*
X2021745D01*
X1970662Y1399998D02*
X2021692D01*
X1970048Y1400898D02*
X2021601D01*
X1962788Y1402698D02*
X2021474D01*
X1943825Y1408098D02*
X2021253D01*
X1962707Y1412598D02*
X2020998D01*
X2005299Y1828398D02*
X2020760D01*
X1962301Y1403598D02*
X2020699D01*
X1864100Y1407198D02*
X2020697D01*
X1990494Y1823898D02*
X2020678D01*
X1969498Y1435098D02*
X2020674D01*
X1951300Y1408998D02*
X2020638D01*
X1962137Y1411698D02*
X2020511D01*
X1921722Y1719498D02*
X2020403D01*
X1952299Y1409898D02*
X2020352D01*
X1961304Y1404498D02*
X2020318D01*
X1864100Y1406298D02*
X2020317D01*
X1960914Y1410798D02*
X2020312D01*
X1864100Y1405398D02*
X2020199D01*
X2004300Y1827498D02*
X2020191D01*
X1991470Y1824798D02*
X2020150D01*
X1999957Y1826598D02*
X2019935D01*
X1991891Y1825698D02*
X2019923D01*
X2014204Y1460298D02*
X2019572D01*
X2017301Y1441398D02*
X2019538D01*
X2005793Y1455798D02*
X2019461D01*
X1969354Y1435998D02*
X2019051D01*
X2002250Y1632198D02*
X2018874D01*
X2006629Y1637598D02*
X2018871D01*
X2014473Y1459398D02*
X2018845D01*
X2013424Y1456698D02*
X2018796D01*
X2018098Y1440498D02*
X2018626D01*
X2014457Y1458498D02*
X2018541D01*
X2014152Y1457598D02*
X2018526D01*
X1925247Y1713198D02*
X2018401D01*
X2017641Y1436898D02*
X2018387D01*
X1922858Y1718598D02*
X2018155D01*
X2001643Y1633098D02*
X2018099D01*
X2006694Y1636698D02*
X2018097D01*
X2005157Y1633998D02*
X2017718D01*
X2006522Y1635798D02*
X2017717D01*
X2006071Y1634898D02*
X2017599D01*
X1925171Y1714098D02*
X2017561D01*
X1888907Y1837398D02*
X2017503D01*
X1923663Y1717698D02*
X2017439D01*
X2001203Y1532298D02*
X2017194D01*
X2016484Y1537698D02*
X2017189D01*
X1924987Y1714998D02*
X2017146D01*
X1924255Y1716798D02*
X2017092D01*
X1924687Y1715898D02*
X2017001D01*
X2013917Y1800498D02*
X2016936D01*
X1985498Y1859898D02*
X2016271D01*
X2001473Y1533198D02*
X2016100D01*
X1933000Y1805898D02*
X2016039D01*
X2009598Y1746498D02*
X2015910D01*
X2001458Y1534098D02*
X2015638D01*
X2005948Y1831098D02*
X2015501D01*
X2003094Y1534998D02*
X2015499D01*
X1985353Y1858998D02*
X2015497D01*
X2013538Y1801398D02*
X2015465D01*
X2011461Y1850898D02*
X2015342D01*
X1888558Y1836498D02*
X2015255D01*
X1864100Y1872498D02*
X2015198D01*
X1933000Y1804998D02*
X2015161D01*
X1984938Y1858098D02*
X2015117D01*
X1984098Y1857198D02*
X2014999D01*
X2012660Y1802298D02*
X2014909D01*
X1864100Y1867998D02*
X2014858D01*
X1864100Y1856298D02*
X2014849D01*
X1933000Y1804098D02*
X2014782D01*
X1991476Y1475598D02*
X2014736D01*
X1933000Y1803198D02*
X2014706D01*
X2005662Y1831998D02*
X2014661D01*
X1887841Y1835598D02*
X2014539D01*
X1992050Y1851798D02*
X2014428D01*
X1864100Y1871598D02*
X2014401D01*
X1864100Y1868898D02*
X2014251D01*
X2005048Y1832898D02*
X2014246D01*
X2004320Y1741098D02*
X2014201D01*
X1864100Y1834698D02*
X2014192D01*
X1864100Y1855398D02*
X2014186D01*
X2003669Y1833798D02*
X2014101D01*
X1864100Y1870698D02*
X2014060D01*
X1864100Y1869798D02*
X2014015D01*
X1991443Y1852698D02*
X2013977D01*
X1864100Y1854498D02*
X2013870D01*
X2009939Y1745598D02*
X2013856D01*
X1951764Y1480998D02*
X2013839D01*
X1989389Y1853598D02*
X2013805D01*
X1968341Y1432398D02*
X2013776D01*
X1936500Y1441398D02*
X2013698D01*
X2004827Y1741998D02*
X2013402D01*
X1968940Y1436898D02*
X2013358D01*
X1991464Y1476498D02*
X2013265D01*
X2009984Y1744698D02*
X2013249D01*
X2009141Y1742898D02*
X2013060D01*
X2009748Y1743798D02*
X2013014D01*
X2005862Y1795098D02*
X2012961D01*
X1951776Y1480098D02*
X2012961D01*
X1936500Y1440498D02*
X2012901D01*
X1995194Y1426998D02*
X2012893D01*
X1968101Y1437798D02*
X2012751D01*
X1991208Y1477398D02*
X2012709D01*
X1989420Y1479198D02*
X2012582D01*
X2003580Y1451298D02*
X2012572D01*
X1936500Y1439598D02*
X2012560D01*
X1936500Y1438698D02*
X2012515D01*
X1990639Y1478298D02*
X2012506D01*
X2004970Y1446798D02*
X2012461D01*
X1936500Y1442298D02*
X2012461D01*
X1864100Y1431498D02*
X2012312D01*
X2005248Y1795998D02*
X2012296D01*
X2011763Y1796898D02*
X2012026D01*
X1995023Y1427898D02*
X2012013D01*
X2004822Y1450398D02*
X2011845D01*
X2003994Y1445898D02*
X2011845D01*
X2005391Y1447698D02*
X2011796D01*
X1936500Y1443198D02*
X2011796D01*
X1864100Y1430598D02*
X2011758D01*
X2002680Y1540398D02*
X2011698D01*
X1994573Y1428798D02*
X2011633D01*
X1993661Y1429698D02*
X2011556D01*
X2005328Y1449498D02*
X2011541D01*
X1936500Y1444998D02*
X2011541D01*
X2005498Y1448598D02*
X2011526D01*
X1936500Y1444098D02*
X2011526D01*
X2004070Y1535898D02*
X2011358D01*
X2003922Y1539498D02*
X2010901D01*
X2004491Y1536798D02*
X2010751D01*
X2004428Y1538598D02*
X2010560D01*
X2004598Y1537698D02*
X2010515D01*
X2003869Y1796898D02*
X2010236D01*
X2005717Y1456698D02*
X2009575D01*
X2005399Y1461198D02*
X2009458D01*
X1933000Y1802298D02*
X2009339D01*
X2005338Y1457598D02*
X2008847D01*
X2004305Y1460298D02*
X2008795D01*
X1933000Y1797798D02*
X2008765D01*
X1989320Y1844598D02*
X2008674D01*
X2004460Y1458498D02*
X2008542D01*
X1994388Y1459398D02*
X2008526D01*
X1933000Y1801398D02*
X2008461D01*
X1933000Y1798698D02*
X2008209D01*
X1933000Y1800498D02*
X2008082D01*
X1933000Y1799598D02*
X2008006D01*
X1992285Y1850898D02*
X2007538D01*
X1989827Y1845498D02*
X2007051D01*
X1992239Y1849998D02*
X2006626D01*
X1989998Y1846398D02*
X2006387D01*
X1991897Y1849098D02*
X2006176D01*
X1989891Y1847298D02*
X2006070D01*
X1991098Y1848198D02*
X2006005D01*
X1933000Y1747398D02*
X2005198D01*
X1933000Y1746498D02*
X2004401D01*
X2003498Y1745598D02*
X2004060D01*
X1936500Y1453098D02*
X2002036D01*
X1978805Y1640298D02*
X2001694D01*
X1994496Y1460298D02*
X2001694D01*
X1978810Y1645698D02*
X2001689D01*
X1990795Y1465698D02*
X2001689D01*
X1933000Y1796898D02*
X2001530D01*
X1936500Y1451298D02*
X2001419D01*
X1991080Y1833798D02*
X2001330D01*
X1999589Y1633998D02*
X2001242D01*
X1994122Y1458498D02*
X2001139D01*
X1936500Y1445898D02*
X2001005D01*
X1995484Y1740198D02*
X2000926D01*
X1864100Y1639398D02*
X2000749D01*
X1979899Y1641198D02*
X2000600D01*
X1994455Y1461198D02*
X2000600D01*
X1979901Y1644798D02*
X2000598D01*
X1992430Y1464798D02*
X2000598D01*
X1936500Y1453998D02*
X2000565D01*
X1924800Y1540398D02*
X2000519D01*
X1933000Y1745598D02*
X2000501D01*
X1864100Y1634898D02*
X2000328D01*
X1993672Y1457598D02*
X2000261D01*
X1936500Y1450398D02*
X2000177D01*
X1933000Y1795998D02*
X2000151D01*
X1980361Y1642098D02*
X2000138D01*
X1994262Y1462098D02*
X2000138D01*
X1980362Y1643898D02*
X2000137D01*
X1993324Y1463898D02*
X2000137D01*
X1864100Y1638498D02*
X2000086D01*
X1936500Y1446798D02*
X2000029D01*
X1936500Y1454898D02*
X2000009D01*
X1980500Y1642998D02*
X1999999D01*
X1993899Y1462998D02*
X1999999D01*
X1998836Y1832898D02*
X1999951D01*
X1992974Y1456698D02*
X1999882D01*
X1864100Y1635798D02*
X1999877D01*
X1991854Y1455798D02*
X1999806D01*
X1864100Y1637598D02*
X1999770D01*
X1864100Y1383798D02*
X1999712D01*
X1864100Y1636698D02*
X1999705D01*
X1995439Y1741098D02*
X1999679D01*
X1936500Y1449498D02*
X1999671D01*
X1936500Y1447698D02*
X1999608D01*
X1933000Y1795098D02*
X1999537D01*
X1933000Y1744698D02*
X1999527D01*
X1936500Y1448598D02*
X1999501D01*
X1864100Y1633998D02*
X1999410D01*
X1933000Y1792398D02*
X1999298D01*
X1924414Y1539498D02*
X1999277D01*
X1933000Y1794198D02*
X1999251D01*
X1933000Y1793298D02*
X1999212D01*
X1995098Y1741998D02*
X1999172D01*
X1933000Y1743798D02*
X1999108D01*
X1994301Y1742898D02*
X1999001D01*
X1933000Y1787898D02*
X1998958D01*
X1923878Y1538598D02*
X1998771D01*
X1970080Y1536798D02*
X1998708D01*
X1976429Y1393698D02*
X1998641D01*
X1923153Y1537698D02*
X1998601D01*
X1933000Y1791498D02*
X1998501D01*
X1933000Y1788798D02*
X1998351D01*
X1933000Y1790598D02*
X1998160D01*
X1933000Y1789698D02*
X1998115D01*
X1864100Y1384698D02*
X1998072D01*
X1994641Y1738398D02*
X1997726D01*
X1976494Y1392798D02*
X1997522D01*
X1964450Y1777998D02*
X1997375D01*
X1864100Y1633098D02*
X1997356D01*
X1933000Y1782498D02*
X1997258D01*
X1864100Y1385598D02*
X1997177D01*
X1992322Y1832898D02*
X1997163D01*
X1986098Y1732998D02*
X1996843D01*
X1976322Y1391898D02*
X1996825D01*
X1864100Y1632198D02*
X1996749D01*
X1962836Y1778898D02*
X1996647D01*
X1864100Y1386498D02*
X1996601D01*
X1933000Y1781598D02*
X1996595D01*
X1971322Y1535898D02*
X1996572D01*
X1864100Y1630398D02*
X1996560D01*
X1864100Y1631298D02*
X1996514D01*
X1975871Y1390998D02*
X1996375D01*
X1933000Y1779798D02*
X1996342D01*
X1933000Y1780698D02*
X1996326D01*
X1933000Y1737498D02*
X1996262D01*
X1864100Y1387398D02*
X1996238D01*
X1864100Y1654698D02*
X1996137D01*
X1974957Y1390098D02*
X1996110D01*
X1864100Y1388298D02*
X1996044D01*
X1991998Y1826598D02*
X1996042D01*
X1864100Y1389198D02*
X1996003D01*
X1985301Y1733898D02*
X1995963D01*
X1977424Y1758198D02*
X1995926D01*
X1991589Y1534998D02*
X1995845D01*
X1864100Y1624998D02*
X1995843D01*
X1933000Y1736598D02*
X1995708D01*
X1933000Y1734798D02*
X1995583D01*
X1992828Y1831998D02*
X1995549D01*
X1993643Y1534098D02*
X1995541D01*
X1994250Y1533198D02*
X1995526D01*
X1933000Y1735698D02*
X1995506D01*
X1954160Y1763598D02*
X1995501D01*
X1864100Y1660998D02*
X1995495D01*
X1986000Y1471998D02*
X1995283D01*
X1864100Y1629498D02*
X1995262D01*
X1991828Y1827498D02*
X1995128D01*
X1936500Y1467498D02*
X1995059D01*
X1864100Y1625898D02*
X1994963D01*
X1992998Y1831098D02*
X1994886D01*
X1864100Y1655598D02*
X1994753D01*
X1864100Y1628598D02*
X1994708D01*
X1978152Y1759098D02*
X1994679D01*
X1991494Y1828398D02*
X1994677D01*
X1864100Y1626798D02*
X1994583D01*
X1992891Y1830198D02*
X1994570D01*
X1977541Y1762698D02*
X1994527D01*
X1985881Y1471098D02*
X1994522D01*
X1864100Y1627698D02*
X1994506D01*
X1992470Y1829298D02*
X1994505D01*
X1864100Y1660098D02*
X1994498D01*
X1936500Y1468398D02*
X1994423D01*
X1985500Y1470198D02*
X1994200D01*
X1978457Y1759998D02*
X1994172D01*
X1984725Y1469298D02*
X1994170D01*
X1864100Y1656498D02*
X1994138D01*
X1978204Y1761798D02*
X1994108D01*
X1864100Y1659198D02*
X1994011D01*
X1975141Y1526898D02*
X1994005D01*
X1978473Y1760898D02*
X1994001D01*
X1864100Y1657398D02*
X1993852D01*
X1864100Y1658298D02*
X1993812D01*
X1975748Y1527798D02*
X1993029D01*
X1975984Y1528698D02*
X1992608D01*
X1864100Y1596198D02*
X1991679D01*
X1971828Y1534998D02*
X1991410D01*
X1864100Y1423398D02*
X1990874D01*
X1933000Y1742898D02*
X1990698D01*
X1985914Y1586298D02*
X1990585D01*
X1864100Y1595298D02*
X1990460D01*
X1933000Y1738398D02*
X1990358D01*
X1933000Y1741998D02*
X1989901D01*
X1864100Y1594398D02*
X1989891D01*
X1933000Y1739298D02*
X1989751D01*
X1864100Y1429698D02*
X1989738D01*
X1975939Y1529598D02*
X1989701D01*
X1864100Y1669098D02*
X1989674D01*
X1864100Y1593498D02*
X1989635D01*
X1986127Y1592598D02*
X1989623D01*
X1933000Y1741098D02*
X1989560D01*
X1933000Y1740198D02*
X1989515D01*
X1987137Y1587198D02*
X1989362D01*
X1971998Y1534098D02*
X1989356D01*
X1987223Y1591698D02*
X1989276D01*
X1864100Y1424298D02*
X1989251D01*
X1886336Y1853598D02*
X1989210D01*
X1984080Y1833798D02*
X1988919D01*
X1975598Y1530498D02*
X1988902D01*
X1864100Y1428798D02*
X1988826D01*
X1987707Y1588098D02*
X1988792D01*
X1971891Y1533198D02*
X1988749D01*
X1987750Y1590798D02*
X1988749D01*
X1864100Y1425198D02*
X1988587D01*
X1974801Y1531398D02*
X1988560D01*
X1864100Y1675398D02*
X1988538D01*
X1987963Y1588998D02*
X1988536D01*
X1987977Y1589898D02*
X1988522D01*
X1971470Y1532298D02*
X1988514D01*
X1864100Y1427898D02*
X1988376D01*
X1864100Y1426098D02*
X1988270D01*
X1864100Y1426998D02*
X1988205D01*
X1864100Y1669998D02*
X1988051D01*
X1985322Y1832898D02*
X1987677D01*
X1864100Y1674498D02*
X1987626D01*
X1985470Y1829298D02*
X1987529D01*
X1984160Y1823898D02*
X1987505D01*
X1864100Y1670898D02*
X1987387D01*
X1936500Y1465698D02*
X1987204D01*
X1980048Y1518798D02*
X1987194D01*
X1936500Y1524198D02*
X1987189D01*
X1864100Y1673598D02*
X1987176D01*
X1985828Y1831998D02*
X1987171D01*
X1887950Y1852698D02*
X1987156D01*
X1985891Y1830198D02*
X1987108D01*
X1864100Y1671798D02*
X1987070D01*
X1864100Y1672698D02*
X1987005D01*
X1985998Y1831098D02*
X1987001D01*
X1986248Y1730298D02*
X1986919D01*
X1984494Y1828398D02*
X1986677D01*
X1951549Y1479198D02*
X1986579D01*
X1888613Y1851798D02*
X1986549D01*
X1982719Y1824798D02*
X1986529D01*
X1977362Y1724898D02*
X1986505D01*
X1985882Y1472898D02*
X1986377D01*
X1888994Y1849998D02*
X1986360D01*
X1888929Y1850898D02*
X1986314D01*
X1864100Y1827498D02*
X1986171D01*
X1936500Y1455798D02*
X1986145D01*
X1864100Y1825698D02*
X1986108D01*
X1978669Y1519698D02*
X1986100D01*
X1936500Y1523298D02*
X1986098D01*
X1864100Y1826598D02*
X1986001D01*
X1882747Y1843698D02*
X1985926D01*
X1985641Y1729398D02*
X1985677D01*
X1936500Y1520598D02*
X1985638D01*
X1936500Y1522398D02*
X1985637D01*
X1936500Y1464798D02*
X1985569D01*
X1976901Y1725798D02*
X1985529D01*
X1888822Y1849098D02*
X1985501D01*
X1936500Y1521498D02*
X1985499D01*
X1951021Y1478298D02*
X1985360D01*
X1864100Y1728498D02*
X1985171D01*
X1975810Y1726698D02*
X1985108D01*
X1936500Y1456698D02*
X1985025D01*
X1864100Y1727598D02*
X1985001D01*
X1949922Y1477398D02*
X1984791D01*
X1984728Y1474698D02*
X1984750D01*
X1882787Y1844598D02*
X1984679D01*
X1936500Y1463898D02*
X1984675D01*
X1936500Y1476498D02*
X1984535D01*
X1888371Y1848198D02*
X1984527D01*
X1936500Y1475598D02*
X1984523D01*
X1936500Y1457598D02*
X1984327D01*
X1882588Y1845498D02*
X1984172D01*
X1887457Y1847298D02*
X1984108D01*
X1936500Y1462998D02*
X1984100D01*
X1882101Y1846398D02*
X1984001D01*
X1936500Y1458498D02*
X1983877D01*
X1980538Y1806798D02*
X1983774D01*
X1933000Y1812198D02*
X1983771D01*
X1936500Y1462098D02*
X1983737D01*
X1936500Y1459398D02*
X1983611D01*
X1936500Y1461198D02*
X1983544D01*
X1936500Y1460298D02*
X1983503D01*
X1864100Y1586298D02*
X1983085D01*
X1981203Y1807698D02*
X1982999D01*
X1980427Y1811298D02*
X1982997D01*
X1864100Y1592598D02*
X1982872D01*
X1967058Y1617798D02*
X1982830D01*
X1981473Y1808598D02*
X1982618D01*
X1981154Y1810398D02*
X1982617D01*
X1981458Y1809498D02*
X1982499D01*
X1864100Y1611498D02*
X1982199D01*
X1864100Y1833798D02*
X1981919D01*
X1978096Y1863498D02*
X1981903D01*
X1864100Y1587198D02*
X1981862D01*
X1864100Y1591698D02*
X1981776D01*
X1933000Y1733898D02*
X1981698D01*
X1864100Y1828398D02*
X1981505D01*
X1966341Y1616898D02*
X1981451D01*
X1864100Y1729398D02*
X1981358D01*
X1864100Y1588098D02*
X1981292D01*
X1864100Y1590798D02*
X1981249D01*
X1864100Y1612398D02*
X1981200D01*
X1864100Y1588998D02*
X1981036D01*
X1864100Y1589898D02*
X1981022D01*
X1864100Y1732998D02*
X1980901D01*
X1864100Y1615998D02*
X1980837D01*
X1864100Y1730298D02*
X1980751D01*
X1864100Y1613298D02*
X1980712D01*
X1864100Y1832898D02*
X1980677D01*
X1864100Y1732098D02*
X1980560D01*
X1864100Y1615098D02*
X1980551D01*
X1864100Y1829298D02*
X1980529D01*
X1864100Y1731198D02*
X1980515D01*
X1864100Y1614198D02*
X1980512D01*
X1936500Y1469298D02*
X1980274D01*
X1936500Y1474698D02*
X1980271D01*
X1864100Y1831998D02*
X1980171D01*
X1864100Y1830198D02*
X1980108D01*
X1864100Y1831098D02*
X1980001D01*
X1936500Y1470198D02*
X1979499D01*
X1936500Y1473798D02*
X1979497D01*
X1864100Y1824798D02*
X1979480D01*
X1936500Y1471098D02*
X1979118D01*
X1936500Y1472898D02*
X1979117D01*
X1936500Y1471998D02*
X1978999D01*
X1972241Y1883298D02*
X1978919D01*
X1933000Y1816698D02*
X1978857D01*
X1864100Y1877898D02*
X1978505D01*
X1864100Y1823898D02*
X1978039D01*
X1954389Y1492698D02*
X1977926D01*
X1974096Y1863498D02*
X1977903D01*
X1933000Y1817598D02*
X1977747D01*
X1966153Y1882398D02*
X1977677D01*
X1864100Y1878798D02*
X1977529D01*
X1953699Y1498098D02*
X1977501D01*
X1864100Y1822998D02*
X1977292D01*
X1965738Y1881498D02*
X1977171D01*
X1933000Y1818498D02*
X1977120D01*
X1864100Y1879698D02*
X1977108D01*
X1964898Y1880598D02*
X1977001D01*
X1864100Y1822098D02*
X1976856D01*
X1933000Y1819398D02*
X1976763D01*
X1954824Y1493598D02*
X1976679D01*
X1864100Y1821198D02*
X1976639D01*
X1933000Y1820298D02*
X1976610D01*
X1933000Y1811298D02*
X1976572D01*
X1954435Y1497198D02*
X1976527D01*
X1933000Y1806798D02*
X1976461D01*
X1936500Y1519698D02*
X1976330D01*
X1864100Y1640298D02*
X1976194D01*
X1955029Y1494498D02*
X1976172D01*
X1954849Y1496298D02*
X1976108D01*
X1955036Y1495398D02*
X1976001D01*
X1933000Y1810398D02*
X1975845D01*
X1933000Y1807698D02*
X1975796D01*
X1936500Y1513398D02*
X1975699D01*
X1933000Y1809498D02*
X1975541D01*
X1933000Y1808598D02*
X1975526D01*
X1864100Y1641198D02*
X1975100D01*
X1864100Y1644798D02*
X1975098D01*
X1936500Y1518798D02*
X1974951D01*
X1936500Y1514298D02*
X1974700D01*
X1864100Y1642098D02*
X1974638D01*
X1864100Y1643898D02*
X1974637D01*
X1963598Y1645698D02*
X1974575D01*
X1864100Y1642998D02*
X1974499D01*
X1964560Y1650198D02*
X1974458D01*
X1936500Y1517898D02*
X1974337D01*
X1936500Y1515198D02*
X1974212D01*
X1936500Y1516998D02*
X1974051D01*
X1936500Y1516098D02*
X1974012D01*
X1864100Y1863498D02*
X1973903D01*
X1964438Y1646598D02*
X1973847D01*
X1964907Y1649298D02*
X1973795D01*
X1954013Y1758198D02*
X1973575D01*
X1964853Y1647498D02*
X1973542D01*
X1964998Y1648398D02*
X1973526D01*
X1954697Y1762698D02*
X1973458D01*
X1864100Y1721298D02*
X1973194D01*
X1864100Y1726698D02*
X1973189D01*
X1954614Y1759098D02*
X1972847D01*
X1954979Y1761798D02*
X1972795D01*
X1954940Y1759998D02*
X1972542D01*
X1955056Y1760898D02*
X1972526D01*
X1970299Y1396398D02*
X1972163D01*
X1864100Y1722198D02*
X1972100D01*
X1864100Y1725798D02*
X1972098D01*
X1864100Y1857198D02*
X1971901D01*
X1864100Y1862598D02*
X1971655D01*
X1864100Y1723098D02*
X1971638D01*
X1864100Y1724898D02*
X1971637D01*
X1864100Y1723998D02*
X1971499D01*
X1970494Y1531398D02*
X1971198D01*
X1864100Y1858098D02*
X1971061D01*
X1963457Y1390098D02*
X1971042D01*
X1864100Y1861698D02*
X1970939D01*
X1936500Y1526898D02*
X1970858D01*
X1864100Y1858998D02*
X1970646D01*
X1864100Y1860798D02*
X1970592D01*
X1969300Y1395498D02*
X1970549D01*
X1864100Y1859898D02*
X1970501D01*
X1892234Y1530498D02*
X1970401D01*
X1936500Y1527798D02*
X1970251D01*
X1964371Y1390998D02*
X1970128D01*
X1890763Y1529598D02*
X1970060D01*
X1887936Y1528698D02*
X1970015D01*
X1964613Y1394598D02*
X1969886D01*
X1964822Y1391898D02*
X1969677D01*
X1964929Y1393698D02*
X1969570D01*
X1964994Y1392798D02*
X1969505D01*
X1864100Y1576398D02*
X1968726D01*
X1922148Y1536798D02*
X1967919D01*
X1864100Y1570998D02*
X1967843D01*
X1883946Y1888698D02*
X1967798D01*
X1966298Y1883298D02*
X1967558D01*
X1892790Y1531398D02*
X1967505D01*
X1864100Y1575498D02*
X1967262D01*
X1864100Y1571898D02*
X1966963D01*
X1883245Y1887798D02*
X1966959D01*
X1966207Y1884198D02*
X1966841D01*
X1864100Y1574598D02*
X1966708D01*
X1920603Y1535898D02*
X1966677D01*
X1864100Y1572798D02*
X1966583D01*
X1962896Y1886898D02*
X1966545D01*
X1900038Y1532298D02*
X1966529D01*
X1864100Y1573698D02*
X1966506D01*
X1965860Y1885098D02*
X1966492D01*
X1965144Y1885998D02*
X1966401D01*
X1962987Y1401798D02*
X1966330D01*
X1900958Y1534998D02*
X1966171D01*
X1900703Y1533198D02*
X1966108D01*
X1900973Y1534098D02*
X1966001D01*
X1963950Y1395498D02*
X1965699D01*
X1962947Y1400898D02*
X1964951D01*
X1962336Y1396398D02*
X1964700D01*
X1962661Y1399998D02*
X1964337D01*
X1864100Y1397298D02*
X1964212D01*
X1962046Y1399098D02*
X1964051D01*
X1960662Y1398198D02*
X1964012D01*
X1936500Y1437798D02*
X1963898D01*
X1864100Y1432398D02*
X1963658D01*
X1936500Y1436898D02*
X1963059D01*
X1864100Y1433298D02*
X1962941D01*
X1882278Y1886898D02*
X1962703D01*
X1936500Y1435998D02*
X1962645D01*
X1864100Y1434198D02*
X1962592D01*
X1909824Y1435098D02*
X1962501D01*
X1864100Y1622298D02*
X1961898D01*
X1864100Y1616898D02*
X1961658D01*
X1864100Y1651998D02*
X1961403D01*
X1933000Y1778898D02*
X1961163D01*
X1864100Y1621398D02*
X1961059D01*
X1864100Y1617798D02*
X1960941D01*
X1864100Y1880598D02*
X1960701D01*
X1864100Y1396398D02*
X1960663D01*
X1864100Y1620498D02*
X1960645D01*
X1864100Y1618698D02*
X1960592D01*
X1864100Y1619598D02*
X1960501D01*
X1880823Y1885998D02*
X1960455D01*
X1933000Y1772598D02*
X1960042D01*
X1864100Y1881498D02*
X1959861D01*
X1864100Y1885098D02*
X1959739D01*
X1933000Y1777998D02*
X1959549D01*
X1864100Y1390098D02*
X1959542D01*
X1864100Y1882398D02*
X1959446D01*
X1864100Y1645698D02*
X1959401D01*
X1864100Y1884198D02*
X1959392D01*
X1864100Y1883298D02*
X1959301D01*
X1864100Y1651098D02*
X1959155D01*
X1933000Y1773498D02*
X1959128D01*
X1864100Y1395498D02*
X1959049D01*
X1933000Y1777098D02*
X1958886D01*
X1933000Y1774398D02*
X1958677D01*
X1864100Y1390998D02*
X1958628D01*
X1933000Y1776198D02*
X1958570D01*
X1864100Y1646598D02*
X1958561D01*
X1933000Y1775298D02*
X1958505D01*
X1864100Y1650198D02*
X1958439D01*
X1864100Y1394598D02*
X1958386D01*
X1864100Y1398198D02*
X1958337D01*
X1864100Y1391898D02*
X1958177D01*
X1864100Y1647498D02*
X1958146D01*
X1864100Y1649298D02*
X1958092D01*
X1952787Y1410798D02*
X1958085D01*
X1864100Y1393698D02*
X1958070D01*
X1864100Y1392798D02*
X1958005D01*
X1864100Y1648398D02*
X1958001D01*
X1864100Y1417098D02*
X1957872D01*
X1864100Y1404498D02*
X1957695D01*
X1864100Y1399098D02*
X1956953D01*
X1952987Y1411698D02*
X1956862D01*
X1864100Y1416198D02*
X1956776D01*
X1864100Y1403598D02*
X1956698D01*
X1864100Y1399998D02*
X1956338D01*
X1952948Y1412598D02*
X1956292D01*
X1950669Y1415298D02*
X1956249D01*
X1864100Y1402698D02*
X1956211D01*
X1864100Y1400898D02*
X1956052D01*
X1952662Y1413498D02*
X1956036D01*
X1952048Y1414398D02*
X1956022D01*
X1864100Y1401798D02*
X1956012D01*
X1936500Y1490898D02*
X1949639D01*
X1936500Y1498998D02*
X1949409D01*
X1933000Y1757298D02*
X1948697D01*
X1933000Y1764498D02*
X1948411D01*
X1864100Y1415298D02*
X1948330D01*
X1936500Y1491798D02*
X1947994D01*
X1936500Y1498098D02*
X1947914D01*
X1945448Y1408998D02*
X1947699D01*
X1933000Y1758198D02*
X1947600D01*
X1933000Y1763598D02*
X1947453D01*
X1936500Y1492698D02*
X1947224D01*
X1936500Y1497198D02*
X1947179D01*
X1933000Y1759098D02*
X1947000D01*
X1944961Y1414398D02*
X1946951D01*
X1933000Y1762698D02*
X1946916D01*
X1936500Y1483698D02*
X1946879D01*
X1936500Y1493598D02*
X1946789D01*
X1936500Y1496298D02*
X1946765D01*
X1946112Y1409898D02*
X1946700D01*
X1936500Y1477398D02*
X1946677D01*
X1933000Y1759998D02*
X1946673D01*
X1933000Y1761798D02*
X1946635D01*
X1936500Y1494498D02*
X1946584D01*
X1936500Y1495398D02*
X1946577D01*
X1933000Y1760898D02*
X1946558D01*
X1945873Y1413498D02*
X1946337D01*
X1936500Y1482798D02*
X1945660D01*
X1936500Y1478298D02*
X1945578D01*
X1936500Y1481898D02*
X1945091D01*
X1936500Y1479198D02*
X1945050D01*
X1936500Y1480998D02*
X1944835D01*
X1936500Y1480098D02*
X1944823D01*
X1937325Y1408098D02*
X1942174D01*
X1938461Y1414398D02*
X1941038D01*
X1938948Y1408998D02*
X1940551D01*
X1939373Y1413498D02*
X1940126D01*
X1939612Y1409898D02*
X1939887D01*
X1864100Y1408098D02*
X1935674D01*
X1864100Y1414398D02*
X1934538D01*
X1864100Y1408998D02*
X1934051D01*
X1864100Y1413498D02*
X1933626D01*
X1864100Y1409898D02*
X1933387D01*
X1864100Y1412598D02*
X1933176D01*
X1864100Y1410798D02*
X1933070D01*
X1864100Y1411698D02*
X1933005D01*
X1864100Y1609698D02*
X1919703D01*
X1864100Y1597998D02*
X1918199D01*
X1864100Y1608798D02*
X1917455D01*
X1864100Y1603398D02*
X1917451D01*
X1864100Y1598898D02*
X1917200D01*
X1864100Y1604298D02*
X1916861D01*
X1864100Y1602498D02*
X1916837D01*
X1864100Y1607898D02*
X1916739D01*
X1864100Y1599798D02*
X1916712D01*
X1864100Y1601598D02*
X1916551D01*
X1864100Y1600698D02*
X1916512D01*
X1864100Y1605198D02*
X1916446D01*
X1864100Y1606998D02*
X1916392D01*
X1864100Y1606098D02*
X1916301D01*
X1864100Y1720398D02*
X1915193D01*
X1864100Y1550298D02*
X1914893D01*
X1900654Y1535898D02*
X1914396D01*
X1864100Y1705998D02*
X1914176D01*
X1864100Y1719498D02*
X1913277D01*
X1864100Y1549398D02*
X1913127D01*
X1899927Y1536798D02*
X1912851D01*
X1864100Y1706898D02*
X1912721D01*
X1864100Y1718598D02*
X1912141D01*
X1864100Y1548498D02*
X1912038D01*
X1894250Y1537698D02*
X1911846D01*
X1864100Y1707798D02*
X1911754D01*
X1864100Y1717698D02*
X1911336D01*
X1864100Y1547598D02*
X1911261D01*
X1893643Y1538598D02*
X1911121D01*
X1864100Y1708698D02*
X1911053D01*
X1864100Y1716798D02*
X1910744D01*
X1864100Y1546698D02*
X1910689D01*
X1891589Y1539498D02*
X1910585D01*
X1864100Y1709598D02*
X1910536D01*
X1864100Y1715898D02*
X1910312D01*
X1864100Y1545798D02*
X1910272D01*
X1864100Y1540398D02*
X1910199D01*
X1864100Y1710498D02*
X1910164D01*
X1864100Y1714998D02*
X1910012D01*
X1864100Y1544898D02*
X1909986D01*
X1864100Y1541298D02*
X1909939D01*
X1864100Y1711398D02*
X1909917D01*
X1864100Y1714098D02*
X1909828D01*
X1864100Y1543998D02*
X1909814D01*
X1864100Y1542198D02*
X1909791D01*
X1864100Y1712298D02*
X1909781D01*
X1864100Y1713198D02*
X1909752D01*
X1864100Y1543098D02*
X1909750D01*
X1864100Y1435098D02*
X1905975D01*
X1894485Y1536798D02*
X1896072D01*
X1892993Y1532298D02*
X1895961D01*
X1894439Y1535898D02*
X1895345D01*
X1892917Y1533198D02*
X1895296D01*
X1894097Y1534998D02*
X1895041D01*
X1893298Y1534098D02*
X1895026D01*
X1864100Y1539498D02*
X1891410D01*
X1864100Y1538598D02*
X1889356D01*
X1888316Y1529598D02*
X1889236D01*
X1864100Y1537698D02*
X1888749D01*
X1864100Y1535898D02*
X1888560D01*
X1864100Y1536798D02*
X1888514D01*
X1864100Y1534998D02*
X1888339D01*
X1864100Y1534098D02*
X1887461D01*
X1886173Y1533198D02*
X1887082D01*
X1864100Y1853598D02*
X1884663D01*
X1864100Y1533198D02*
X1884626D01*
X1881104Y1847298D02*
X1883542D01*
X1880462Y1840998D02*
X1883398D01*
X1864100Y1532298D02*
X1883162D01*
X1864100Y1835598D02*
X1883158D01*
X1864100Y1852698D02*
X1883049D01*
X1864100Y1528698D02*
X1882863D01*
X1864100Y1848198D02*
X1882628D01*
X1864100Y1531398D02*
X1882608D01*
X1864100Y1840098D02*
X1882559D01*
X1864100Y1529598D02*
X1882483D01*
X1864100Y1836498D02*
X1882441D01*
X1864100Y1530498D02*
X1882406D01*
X1864100Y1851798D02*
X1882386D01*
X1864100Y1849098D02*
X1882177D01*
X1864100Y1839198D02*
X1882145D01*
X1864100Y1837398D02*
X1882092D01*
X1864100Y1850898D02*
X1882070D01*
X1864100Y1849998D02*
X1882005D01*
X1864100Y1838298D02*
X1882001D01*
X1864100Y1840998D02*
X1878137D01*
X1864100Y1847298D02*
X1877495D01*
X1864100Y1841898D02*
X1876753D01*
X1864100Y1846398D02*
X1876498D01*
X1864100Y1842798D02*
X1876138D01*
X1864100Y1845498D02*
X1876011D01*
X1864100Y1843698D02*
X1875852D01*
X1864100Y1844598D02*
X1875812D01*
X1864100Y1900398D02*
X1875193D01*
X1864100Y1370298D02*
X1874893D01*
X1864100Y1355898D02*
X1874396D01*
X1864100Y1885998D02*
X1874176D01*
X1864100Y1899498D02*
X1873277D01*
X1864100Y1369398D02*
X1873127D01*
X1864100Y1356798D02*
X1872851D01*
X1864100Y1886898D02*
X1872721D01*
X1864100Y1898598D02*
X1872141D01*
X1864100Y1368498D02*
X1872038D01*
X1864100Y1357698D02*
X1871846D01*
X1864100Y1887798D02*
X1871754D01*
X1864100Y1897698D02*
X1871336D01*
X1864100Y1367598D02*
X1871261D01*
X1864100Y1358598D02*
X1871121D01*
X1864100Y1888698D02*
X1871053D01*
X1864100Y1896798D02*
X1870744D01*
X1864100Y1366698D02*
X1870689D01*
X1864100Y1359498D02*
X1870585D01*
X1864100Y1889598D02*
X1870536D01*
X1864100Y1895898D02*
X1870312D01*
X1864100Y1365798D02*
X1870272D01*
X1864100Y1360398D02*
X1870199D01*
X1864100Y1890498D02*
X1870164D01*
X1864100Y1894998D02*
X1870012D01*
X1864100Y1364898D02*
X1869986D01*
X1864100Y1361298D02*
X1869939D01*
X1864100Y1891398D02*
X1869917D01*
X1864100Y1894098D02*
X1869828D01*
X1864100Y1363998D02*
X1869814D01*
X1864100Y1362198D02*
X1869791D01*
X1864100Y1892298D02*
X1869781D01*
X1864100Y1893198D02*
X1869752D01*
X1864100Y1363098D02*
X1869750D01*
G54D28*
X2112900Y1729900D03*
X2092900D03*
Y1709900D03*
X2112900D03*
X2059200Y1606500D03*
X2079200D03*
Y1626500D03*
X2059200D03*
G54D39*
X1886500Y1518000D03*
Y1508000D03*
Y1498000D03*
Y1488000D03*
Y1478000D03*
Y1468000D03*
Y1458000D03*
Y1448000D03*
Y1811500D03*
Y1801500D03*
Y1791500D03*
Y1781500D03*
Y1771500D03*
Y1761500D03*
Y1751500D03*
Y1741500D03*
X1971100Y1820600D03*
X2089500Y1375000D03*
G54D51*
X1896000Y1365700D03*
X1910500Y1366000D03*
X1885500Y1353000D03*
X1901500D03*
X1918500D03*
X1942500Y1359000D03*
X1936000Y1366000D03*
X1927500D03*
X1942500D03*
X1949000D03*
X1934500Y1353000D03*
X1949500D03*
X1956500Y1358500D03*
X2000500Y1357000D03*
X1966500Y1353000D03*
X1983500D03*
X1999500D03*
X1989500Y1365000D03*
X2007000Y1363000D03*
X2017500Y1353000D03*
X2034500D03*
X2051500D03*
X2068000D03*
X2087000D03*
X1870500Y1395000D03*
X1891500Y1396000D03*
X1911500D03*
X1901500Y1382000D03*
X1917500D03*
X1949500Y1395500D03*
X1936500Y1396000D03*
X1951500Y1369000D03*
X1943000Y1396500D03*
X1927500Y1395500D03*
X1933500Y1381000D03*
X1958000Y1369000D03*
X1987300Y1393500D03*
X1992500Y1387400D03*
X1997600Y1393500D03*
X1982000Y1396500D03*
X2035000Y1395000D03*
X2022000Y1395400D03*
X2026300Y1381500D03*
X2037400Y1366300D03*
X2050500Y1388500D03*
X2051000Y1392000D03*
X2053500Y1387500D03*
X2058000Y1392000D03*
X2062500Y1402700D03*
X2083100Y1392500D03*
X2082600Y1384000D03*
X2057000Y1388100D03*
X2081600Y1398500D03*
X2046100Y1368500D03*
X2054400Y1391100D03*
X2055100Y1394500D03*
X2051600D03*
X2089600Y1398000D03*
X2103000Y1389000D03*
Y1405000D03*
X2130500Y1389000D03*
X1869000Y1425500D03*
X1870500Y1409000D03*
X1922800Y1442200D03*
X1884500Y1408000D03*
X1901500Y1409000D03*
X1917500Y1408000D03*
X1892500Y1426000D03*
X1907500D03*
X1929500D03*
X1963000D03*
X1945500D03*
X1978000D03*
X2019500Y1416300D03*
X2006500Y1431500D03*
X2028900Y1410400D03*
X2033000Y1443000D03*
X2032500Y1419000D03*
X2042500Y1421500D03*
X2032300Y1429500D03*
X2042500D03*
X2036500Y1441000D03*
X2066000D03*
X2064900Y1424000D03*
X2073500Y1422500D03*
X2062500Y1430000D03*
Y1438500D03*
X2084000Y1420500D03*
X2093500Y1426500D03*
X2102500Y1420000D03*
X2130500D03*
X1912900Y1474600D03*
X1930200Y1476900D03*
X1961000Y1460400D03*
X1955500Y1461000D03*
X1958900Y1450000D03*
X1952200Y1464300D03*
X1993500Y1463000D03*
X1976500Y1472000D03*
X1969500D03*
X1992500Y1453500D03*
X2048000Y1457500D03*
X2058000Y1464500D03*
X2057500Y1460000D03*
X2122000Y1454500D03*
X2121500Y1475000D03*
X2102000Y1466500D03*
X2085000Y1476000D03*
X2086500Y1465500D03*
X2102000Y1474500D03*
X2103000Y1462300D03*
X2090500Y1481000D03*
X2092100Y1465200D03*
X2101500Y1480500D03*
X2090000Y1476000D03*
X2130500Y1450000D03*
Y1482000D03*
X1930600Y1505500D03*
X1939500Y1499600D03*
X1983500Y1512500D03*
X1990500Y1495000D03*
X2039500D03*
X2018000D03*
X2034000D03*
X2081500Y1522500D03*
X2083000Y1487500D03*
X2047700Y1495200D03*
X2080600Y1509300D03*
X2064000Y1512000D03*
X2101500Y1508000D03*
X2102000Y1520500D03*
X2121000Y1504500D03*
X2101500Y1487000D03*
X2090500Y1508500D03*
X2090000Y1522000D03*
X2101500Y1494500D03*
Y1503000D03*
X2109000Y1518500D03*
X2130500Y1512000D03*
X1876500Y1551500D03*
X1903500Y1551000D03*
X1890000D03*
X1955000Y1536000D03*
X1947000Y1529000D03*
X1949500Y1552000D03*
X1963000Y1551500D03*
X1932200Y1551700D03*
X1982000Y1535500D03*
X1976500Y1551500D03*
X2002000Y1560000D03*
X2010500Y1563000D03*
X2008500Y1552500D03*
X2020000Y1548500D03*
X2033000Y1545500D03*
X2035000Y1554500D03*
X2034500Y1565500D03*
X2026000D03*
X2015500Y1558000D03*
X2025500Y1554500D03*
X2056000Y1536000D03*
X2068500Y1532500D03*
X2081500D03*
X2080000Y1543000D03*
X2070500Y1544000D03*
X2055500Y1554500D03*
X2081500Y1565500D03*
X2063000D03*
X2046000Y1545500D03*
X2058000Y1545000D03*
X2045000Y1554500D03*
X2074500D03*
X2072500Y1565500D03*
X2065000Y1554500D03*
X2044000Y1565500D03*
X2053000D03*
X2081500Y1551500D03*
X2121500Y1531500D03*
Y1553000D03*
X2109500Y1530500D03*
X2106000Y1554500D03*
X2090000Y1559000D03*
X2098500Y1563000D03*
X2096500Y1552500D03*
X2109500Y1544000D03*
X2101500Y1545500D03*
X2087500Y1546000D03*
X2101500Y1537000D03*
X2090500Y1538000D03*
X2102000Y1527500D03*
X2089500Y1530000D03*
X2130500Y1540000D03*
X1869000Y1594000D03*
X1882500Y1593500D03*
X1872000Y1569500D03*
X1896000Y1593500D03*
X1899000Y1569000D03*
X1885500D03*
X1913400Y1569300D03*
X1920000Y1584400D03*
X1913000Y1585000D03*
X1906000Y1583700D03*
X1928500Y1569000D03*
X1957500Y1569500D03*
X1955200Y1582200D03*
X1960500Y1576400D03*
X1952000Y1584600D03*
X1973500Y1582500D03*
X1984500Y1569000D03*
X1971000D03*
X2002500Y1578500D03*
X2002000Y1599500D03*
X1993300Y1600800D03*
X1966000Y1582200D03*
X2000500Y1571000D03*
X2002000Y1592000D03*
X2018000Y1585500D03*
X2038500Y1581000D03*
X2038000Y1574500D03*
X2004000Y1583000D03*
X2038500Y1588500D03*
X2006000Y1571000D03*
X2020500Y1568500D03*
X2042000Y1595000D03*
X2027600Y1593200D03*
X2035200Y1602700D03*
X2022200D03*
X2013500Y1601000D03*
X2014000Y1595000D03*
X2018500Y1580000D03*
X2016400Y1591700D03*
X2010200Y1586500D03*
X2007200Y1578300D03*
X2075500Y1571500D03*
X2061500D03*
X2050000D03*
X2076000Y1595500D03*
X2060000D03*
X2069500Y1583000D03*
X2053000D03*
X2047400Y1602700D03*
X2101500Y1595500D03*
X2089000D03*
X2113500Y1569000D03*
X2090000Y1570000D03*
X2085300Y1583000D03*
X2101500Y1582700D03*
X2116000Y1595500D03*
X2130500Y1569000D03*
X2131500Y1606000D03*
Y1594000D03*
X1879000Y1618500D03*
X1869500Y1633000D03*
X1898500Y1618500D03*
X1914100Y1618400D03*
X1897000Y1632500D03*
X1883500Y1633000D03*
X1910500Y1632500D03*
X1959300Y1618100D03*
X1945900Y1618400D03*
X1929600D03*
X1924000Y1632600D03*
X1955500D03*
X1939200D03*
X1970100Y1619700D03*
X1963400Y1628000D03*
X1986800Y1618500D03*
X2002000Y1606500D03*
Y1623000D03*
X2001000Y1615000D03*
X2022500Y1623500D03*
X2034000Y1624000D03*
X2033000Y1614000D03*
X2042000Y1610500D03*
X2029900Y1640200D03*
X2041500Y1637000D03*
X2013000Y1623000D03*
X2013500Y1607000D03*
X2013000Y1631000D03*
X2014000Y1614500D03*
X2022500Y1614000D03*
X2044500Y1633500D03*
X2080500Y1642000D03*
X2048000Y1643000D03*
X2045000Y1623500D03*
X2050500Y1611500D03*
X2051000Y1622500D03*
X2119500Y1630000D03*
X2098000Y1642000D03*
X2093500Y1606500D03*
X2098000Y1630000D03*
X2115000Y1642000D03*
X2112500Y1606500D03*
X2094000Y1619500D03*
X2131000Y1638500D03*
X2131500Y1621500D03*
X1873700Y1652600D03*
X1881500Y1667500D03*
X1868000Y1668000D03*
X1889000Y1652600D03*
X1918300Y1652900D03*
X1903500Y1652500D03*
X1912000Y1667500D03*
X1897800Y1667800D03*
X1948400Y1652600D03*
X1934500Y1653000D03*
X1940500Y1666500D03*
X1927000Y1667000D03*
X1995000Y1668500D03*
X1980500Y1668000D03*
X1966500Y1667500D03*
X1973000Y1680500D03*
X1990000Y1680000D03*
X2028900Y1648600D03*
X2018500Y1648500D03*
X2035500D03*
X2037500Y1668000D03*
X2036500Y1680000D03*
X2035500Y1655500D03*
X2025500Y1657000D03*
X2011000D03*
X2025500Y1668500D03*
X2011000Y1669000D03*
X2003500Y1679500D03*
X2018500D03*
X2042000Y1661500D03*
X2074500Y1649500D03*
X2069000Y1686000D03*
X2079000Y1671500D03*
X2081000Y1682000D03*
X2058800Y1659300D03*
X2048500Y1650500D03*
X2059500Y1671000D03*
X2081000Y1667500D03*
X2058500Y1652000D03*
X2053000Y1648000D03*
X2069000Y1678500D03*
X2048000Y1662000D03*
X2047500Y1681500D03*
X2080000Y1656000D03*
X2060500Y1677500D03*
X2068500Y1671000D03*
X2048500Y1668500D03*
X2060500Y1684500D03*
X2048500Y1674500D03*
X2087500Y1649500D03*
X2105000Y1650500D03*
X2089000Y1671500D03*
X2085500Y1676500D03*
X2122500Y1650500D03*
X2108500Y1674500D03*
X2097500Y1656500D03*
X2113000Y1659500D03*
X2096000Y1669500D03*
X2089500Y1667500D03*
X2103500Y1661500D03*
X2108500Y1668000D03*
X2088500Y1656000D03*
X2109500Y1680500D03*
X2095500Y1678500D03*
X2130500Y1659500D03*
X1875000Y1688000D03*
X1881000Y1702000D03*
X1867500Y1702500D03*
X1871500Y1722500D03*
X1919000Y1687000D03*
X1905500Y1687500D03*
X1888500D03*
X1885000Y1722000D03*
X1908000Y1701500D03*
X1894500Y1702000D03*
X1948000Y1686500D03*
X1934500Y1687000D03*
X1944500Y1703000D03*
X1931000Y1703500D03*
X1962000Y1715500D03*
X1981000Y1716000D03*
X1995000Y1716500D03*
X2003000Y1706000D03*
X1988500Y1705500D03*
X1971500D03*
X1964500Y1693000D03*
X1980500D03*
X1997000Y1693500D03*
X2020500Y1700000D03*
X2035500Y1724500D03*
X2032700Y1699500D03*
X2026700Y1699400D03*
X2039800Y1719500D03*
X2040000Y1698000D03*
X2010500Y1715000D03*
Y1693000D03*
X2023000D03*
X2037000Y1689000D03*
X2073000Y1697500D03*
X2082000Y1690500D03*
X2065800Y1711800D03*
X2077000Y1718200D03*
X2047500Y1718300D03*
Y1706500D03*
X2048000Y1690500D03*
X2066500Y1692000D03*
X2047500Y1698000D03*
X2071300Y1712300D03*
X2059500Y1707000D03*
X2070900Y1724900D03*
X2059500Y1691500D03*
X2066500Y1702500D03*
X2071400Y1718300D03*
X2065300Y1724400D03*
X2120500Y1688000D03*
X2095500Y1686500D03*
X2121500Y1697500D03*
X2109500Y1687000D03*
X2108500Y1700500D03*
X2109000Y1694000D03*
X2097500Y1694500D03*
X2086500Y1699000D03*
X2130000Y1689600D03*
X2130500Y1706900D03*
X2129500Y1722000D03*
X1924000Y1738500D03*
X2039800Y1728600D03*
X2036200Y1745900D03*
X2036500Y1739000D03*
X2069000Y1733500D03*
X2079000Y1760500D03*
X2073500Y1761000D03*
X2067500D03*
X2068000Y1745500D03*
X2044000Y1761400D03*
X2048500Y1731000D03*
X2083000Y1750500D03*
X2043600Y1745600D03*
X2048500Y1744500D03*
X2059500Y1730000D03*
X2059900Y1760500D03*
X2048500Y1737500D03*
X2059500Y1736000D03*
X2077000Y1734000D03*
X2115000Y1764500D03*
X2129800Y1737800D03*
X2129500Y1759000D03*
X1940000Y1795500D03*
Y1789000D03*
X1927100Y1791700D03*
Y1774200D03*
X1969600Y1785600D03*
X1978500Y1778500D03*
X2033100Y1797200D03*
X2036000Y1775500D03*
X2006600Y1799500D03*
X2038000Y1789500D03*
X2039000Y1782500D03*
X2061500Y1794000D03*
X2060000Y1785000D03*
X2051500Y1783500D03*
X2057500Y1787500D03*
X2044500Y1779500D03*
X2048000Y1775500D03*
X2055900Y1793100D03*
X2044000Y1794500D03*
Y1787500D03*
X2060000Y1777500D03*
X2068500Y1787500D03*
X2044000Y1806000D03*
X2068500Y1778000D03*
X2115000Y1792000D03*
Y1779500D03*
X2119200Y1805400D03*
X2119500Y1787400D03*
X2124000Y1792000D03*
X2129500Y1779000D03*
Y1799000D03*
X1880000Y1828000D03*
X1869000Y1833500D03*
X1931500Y1822300D03*
X1937600Y1827700D03*
X1954400Y1830500D03*
X1961700Y1819200D03*
X1935000Y1814000D03*
X1962400Y1808600D03*
X1963000Y1835500D03*
X1949300Y1818900D03*
X2001000Y1839000D03*
X2001800Y1844900D03*
X2003100Y1839700D03*
X1996500Y1815300D03*
X2002000Y1815000D03*
X1973000Y1830500D03*
X1976200Y1812100D03*
X1963500Y1829000D03*
X1996500Y1843000D03*
X1980500Y1835500D03*
X2027300Y1807800D03*
X2038000Y1821400D03*
X2008800Y1826300D03*
X2008000Y1808000D03*
X2038000Y1818000D03*
X2029000Y1835000D03*
X2021500D03*
X2075100Y1818800D03*
X2066700Y1818700D03*
X2043500Y1822000D03*
X2079000Y1826500D03*
X2055100Y1838300D03*
X2052500Y1821500D03*
X2056500Y1817500D03*
Y1826000D03*
X2057700Y1821700D03*
X2049200Y1818300D03*
X2050000Y1826000D03*
X2067000D03*
X2067500Y1833000D03*
X2067000Y1811000D03*
X2070000Y1837000D03*
X2074000Y1811000D03*
X2111500Y1828500D03*
X2107100Y1817100D03*
X2111500Y1843000D03*
X2089200Y1818900D03*
X2096200Y1843100D03*
X2098000Y1829500D03*
X2129500Y1828500D03*
X2130000Y1817000D03*
X2129000Y1843200D03*
X1869000Y1855000D03*
Y1873000D03*
X1899000Y1867500D03*
X1905500Y1870000D03*
X1917300Y1870200D03*
X1893500Y1867500D03*
X1886500Y1856100D03*
X1920500Y1858000D03*
X1885700Y1871800D03*
X1962700Y1878300D03*
X1934000Y1873000D03*
X1934200Y1857900D03*
X1946200D03*
X1956500Y1857700D03*
X1954800Y1873600D03*
X1944000Y1847500D03*
X1959500D03*
X1951500D03*
X2002600Y1852600D03*
X1996900Y1852800D03*
X1990200Y1872200D03*
X1966500Y1858000D03*
X1969000Y1847500D03*
X2000400Y1872200D03*
X1972500Y1855000D03*
X1963800Y1864200D03*
X1987500Y1867500D03*
X2035000Y1874800D03*
X2041500Y1876100D03*
X2027600Y1860200D03*
X2011500Y1876000D03*
X2041900Y1872500D03*
X2030500Y1869000D03*
X2003500Y1874700D03*
X2027400Y1866000D03*
X2021500Y1876000D03*
X2034000Y1858200D03*
X2022500Y1853500D03*
X2030000D03*
X2037500D03*
X2048000Y1874900D03*
X2078600Y1860200D03*
X2076600Y1850800D03*
X2045000Y1853500D03*
X2073400Y1885500D03*
X2045400Y1858500D03*
X2045100Y1865600D03*
X2051500Y1847500D03*
X2073700Y1872700D03*
X2114200Y1860000D03*
X2114000Y1877300D03*
X2099000Y1860000D03*
X2095000Y1877500D03*
X2129500Y1861000D03*
X2129000Y1878000D03*
X1933700Y1890900D03*
X1959000Y1898500D03*
X1949900Y1891900D03*
X1999600Y1901000D03*
X1981000Y1900900D03*
X1990200Y1891400D03*
X1971300Y1892100D03*
X2017500Y1901300D03*
X2033400Y1901200D03*
X2018600Y1891400D03*
X2007000Y1891600D03*
X2039300Y1892600D03*
X2071900Y1892500D03*
X2047300Y1901200D03*
X2075000D03*
X2054400Y1891900D03*
X2061600Y1901200D03*
X2089700Y1900800D03*
X2104500Y1901000D03*
G74*
X0Y0D02*
M02*
