G04 start of page 2 for group 0 idx 0
G04 Title: RX Daughterboard, solder *
G04 Creator: pcb-bin 1.99u *
G04 CreationDate: Sun Jan  7 00:01:30 2007 UTC *
G04 For: matt *
G04 Format: Gerber/RS-274X *
G04 PCB-Dimensions: 275000 250000 *
G04 PCB-Coordinate-Origin: lower left *
%MOIN*%
%FSLAX24Y24*%
%LNBACK*%
%ADD11C,0.0200*%
%ADD12C,0.0250*%
%ADD13C,0.0080*%
%ADD14C,0.0140*%
%ADD15C,0.0400*%
%ADD16C,0.0050*%
%ADD17R,0.0600X0.0600*%
%ADD18C,0.0600*%
%ADD19C,0.0800*%
%ADD20C,0.0360*%
%ADD21C,0.0350*%
%ADD22C,0.0600*%
%ADD23C,0.0310*%
%ADD24R,0.0240X0.0240*%
%ADD25R,0.0970X0.0970*%
%ADD26R,0.0480X0.0480*%
%ADD27C,0.0240*%
%ADD28R,0.0560X0.0560*%
%ADD29R,0.1220X0.1220*%
%ADD30R,0.0200X0.0200*%
%ADD31R,0.0295X0.0295*%
%ADD32C,0.0400*%
%ADD33C,0.0580*%
%ADD34C,0.1280*%
%ADD35C,0.0180*%
%ADD36C,0.0150*%
G54D11*G36*
X17900Y6500D02*Y9100D01*
X18615D01*
Y8227D01*
X18608Y8234D01*
X18596Y8217D01*
X18579Y8180D01*
X18568Y8140D01*
X18565Y8100D01*
X18568Y8059D01*
X18579Y8019D01*
X18596Y7982D01*
X18608Y7965D01*
X18615Y7972D01*
Y7877D01*
X18608Y7884D01*
X18596Y7867D01*
X18579Y7830D01*
X18568Y7790D01*
X18565Y7750D01*
X18568Y7709D01*
X18579Y7669D01*
X18596Y7632D01*
X18608Y7615D01*
X18615Y7622D01*
Y7527D01*
X18608Y7534D01*
X18596Y7517D01*
X18579Y7480D01*
X18568Y7440D01*
X18565Y7400D01*
X18568Y7359D01*
X18579Y7319D01*
X18596Y7282D01*
X18608Y7265D01*
X18615Y7272D01*
Y7177D01*
X18608Y7184D01*
X18596Y7167D01*
X18579Y7130D01*
X18568Y7090D01*
X18565Y7050D01*
X18568Y7009D01*
X18579Y6969D01*
X18596Y6932D01*
X18608Y6915D01*
X18615Y6922D01*
Y6500D01*
X18117D01*
X18095Y6505D01*
X18050Y6509D01*
X18004Y6505D01*
X17983Y6500D01*
X17900D01*
G37*
G36*
X18615Y9100D02*X18800D01*
Y8334D01*
X18759Y8331D01*
X18719Y8320D01*
X18682Y8303D01*
X18665Y8291D01*
X18722Y8234D01*
X18722Y8234D01*
X18747Y8245D01*
X18773Y8252D01*
X18800Y8254D01*
Y7984D01*
X18759Y7981D01*
X18719Y7970D01*
X18682Y7953D01*
X18665Y7941D01*
X18681Y7925D01*
X18665Y7908D01*
X18682Y7896D01*
X18719Y7879D01*
X18759Y7868D01*
X18800Y7865D01*
Y7634D01*
X18759Y7631D01*
X18719Y7620D01*
X18682Y7603D01*
X18665Y7591D01*
X18681Y7575D01*
X18665Y7558D01*
X18682Y7546D01*
X18719Y7529D01*
X18759Y7518D01*
X18800Y7515D01*
Y7284D01*
X18759Y7281D01*
X18719Y7270D01*
X18682Y7253D01*
X18665Y7241D01*
X18681Y7225D01*
X18665Y7208D01*
X18682Y7196D01*
X18719Y7179D01*
X18759Y7168D01*
X18800Y7165D01*
Y6895D01*
X18773Y6897D01*
X18747Y6904D01*
X18722Y6915D01*
X18722Y6916D01*
X18665Y6858D01*
X18682Y6846D01*
X18719Y6829D01*
X18759Y6818D01*
X18800Y6815D01*
Y6500D01*
X18615D01*
Y6922D01*
X18666Y6972D01*
X18665Y6972D01*
X18654Y6997D01*
X18647Y7023D01*
X18645Y7050D01*
X18647Y7076D01*
X18654Y7103D01*
X18665Y7127D01*
X18666Y7127D01*
X18615Y7177D01*
Y7272D01*
X18666Y7322D01*
X18665Y7322D01*
X18654Y7347D01*
X18647Y7373D01*
X18645Y7400D01*
X18647Y7426D01*
X18654Y7453D01*
X18665Y7477D01*
X18666Y7477D01*
X18615Y7527D01*
Y7622D01*
X18666Y7672D01*
X18665Y7672D01*
X18654Y7697D01*
X18647Y7723D01*
X18645Y7750D01*
X18647Y7776D01*
X18654Y7803D01*
X18665Y7827D01*
X18666Y7827D01*
X18615Y7877D01*
Y7972D01*
X18666Y8022D01*
X18665Y8022D01*
X18654Y8047D01*
X18647Y8073D01*
X18645Y8100D01*
X18647Y8126D01*
X18654Y8153D01*
X18665Y8177D01*
X18666Y8177D01*
X18615Y8227D01*
Y9100D01*
G37*
G36*
X18800D02*X19084D01*
Y8183D01*
X19059Y8181D01*
X19022Y8171D01*
X19020Y8180D01*
X19003Y8217D01*
X18991Y8234D01*
X18934Y8177D01*
X18934Y8177D01*
X18945Y8153D01*
X18952Y8126D01*
X18954Y8100D01*
X18952Y8073D01*
X18945Y8047D01*
X18908Y8084D01*
X18896Y8067D01*
X18879Y8030D01*
X18868Y7990D01*
X18867Y7974D01*
X18840Y7981D01*
X18800Y7984D01*
Y8254D01*
X18826Y8252D01*
X18853Y8245D01*
X18877Y8234D01*
X18877Y8234D01*
X18934Y8291D01*
X18917Y8303D01*
X18880Y8320D01*
X18840Y8331D01*
X18800Y8334D01*
Y9100D01*
G37*
G36*
Y7865D02*X18840Y7868D01*
X18877Y7878D01*
X18879Y7869D01*
X18896Y7832D01*
X18908Y7815D01*
X18966Y7872D01*
X18965Y7872D01*
X18954Y7897D01*
X18947Y7923D01*
X18945Y7950D01*
X18947Y7976D01*
X18954Y8002D01*
X18991Y7965D01*
X19003Y7982D01*
X19020Y8019D01*
X19031Y8059D01*
X19033Y8089D01*
X19047Y8095D01*
X19073Y8102D01*
X19084Y8103D01*
Y7796D01*
X19073Y7797D01*
X19047Y7804D01*
X19024Y7814D01*
X19020Y7830D01*
X19003Y7867D01*
X18991Y7884D01*
X18934Y7827D01*
X18934Y7827D01*
X18945Y7803D01*
X18952Y7776D01*
X18954Y7750D01*
X18952Y7723D01*
X18945Y7697D01*
X18934Y7672D01*
X18934Y7672D01*
X18991Y7615D01*
X19003Y7632D01*
X19020Y7669D01*
X19024Y7685D01*
X19047Y7695D01*
X19073Y7702D01*
X19084Y7703D01*
Y7433D01*
X19059Y7431D01*
X19032Y7424D01*
X19031Y7440D01*
X19020Y7480D01*
X19003Y7517D01*
X18991Y7534D01*
X18954Y7497D01*
X18947Y7523D01*
X18945Y7550D01*
X18947Y7576D01*
X18954Y7603D01*
X18965Y7627D01*
X18966Y7627D01*
X18908Y7684D01*
X18896Y7667D01*
X18879Y7630D01*
X18877Y7621D01*
X18840Y7631D01*
X18800Y7634D01*
Y7865D01*
G37*
G36*
Y7515D02*X18840Y7518D01*
X18867Y7526D01*
X18868Y7509D01*
X18879Y7469D01*
X18896Y7432D01*
X18908Y7415D01*
X18945Y7452D01*
X18952Y7426D01*
X18954Y7400D01*
X18952Y7373D01*
X18945Y7347D01*
X18934Y7322D01*
X18934Y7322D01*
X18991Y7265D01*
X19003Y7282D01*
X19020Y7319D01*
X19022Y7328D01*
X19059Y7318D01*
X19084Y7316D01*
Y7046D01*
X19073Y7047D01*
X19047Y7054D01*
X19033Y7060D01*
X19031Y7090D01*
X19020Y7130D01*
X19003Y7167D01*
X18991Y7184D01*
X18954Y7147D01*
X18947Y7173D01*
X18945Y7200D01*
X18947Y7226D01*
X18954Y7253D01*
X18965Y7277D01*
X18966Y7277D01*
X18908Y7334D01*
X18896Y7317D01*
X18879Y7280D01*
X18877Y7271D01*
X18840Y7281D01*
X18800Y7284D01*
Y7515D01*
G37*
G36*
Y7165D02*X18840Y7168D01*
X18867Y7176D01*
X18868Y7159D01*
X18879Y7119D01*
X18896Y7082D01*
X18908Y7065D01*
X18945Y7102D01*
X18952Y7076D01*
X18954Y7050D01*
X18952Y7023D01*
X18945Y6997D01*
X18934Y6972D01*
X18934Y6972D01*
X18991Y6915D01*
X19003Y6932D01*
X19020Y6969D01*
X19022Y6978D01*
X19059Y6968D01*
X19084Y6966D01*
Y6500D01*
X18800D01*
Y6815D01*
X18840Y6818D01*
X18880Y6829D01*
X18917Y6846D01*
X18934Y6858D01*
X18877Y6916D01*
X18877Y6915D01*
X18853Y6904D01*
X18826Y6897D01*
X18800Y6895D01*
Y7165D01*
G37*
G36*
X19084Y9100D02*X19350D01*
Y8384D01*
X19309Y8381D01*
X19269Y8370D01*
X19232Y8353D01*
X19215Y8341D01*
X19272Y8284D01*
X19272Y8284D01*
X19297Y8295D01*
X19323Y8302D01*
X19350Y8304D01*
Y7995D01*
X19329Y7996D01*
X19320Y8030D01*
X19303Y8067D01*
X19291Y8084D01*
X19234Y8027D01*
X19234Y8027D01*
X19245Y8003D01*
X19248Y7992D01*
X19215Y7958D01*
X19227Y7950D01*
X19215Y7941D01*
X19248Y7907D01*
X19245Y7897D01*
X19234Y7872D01*
X19234Y7872D01*
X19291Y7815D01*
X19303Y7832D01*
X19320Y7869D01*
X19329Y7903D01*
X19350Y7904D01*
Y7595D01*
X19329Y7596D01*
X19320Y7630D01*
X19303Y7667D01*
X19291Y7684D01*
X19234Y7627D01*
X19234Y7627D01*
X19245Y7603D01*
X19248Y7592D01*
X19215Y7558D01*
X19232Y7546D01*
X19253Y7536D01*
X19252Y7523D01*
X19245Y7497D01*
X19234Y7472D01*
X19234Y7472D01*
X19291Y7415D01*
X19303Y7432D01*
X19320Y7469D01*
X19324Y7485D01*
X19347Y7495D01*
X19350Y7496D01*
Y7234D01*
X19331Y7233D01*
X19331Y7240D01*
X19320Y7280D01*
X19303Y7317D01*
X19291Y7334D01*
X19254Y7297D01*
X19247Y7323D01*
X19245Y7350D01*
X19247Y7376D01*
X19254Y7403D01*
X19265Y7427D01*
X19266Y7427D01*
X19208Y7484D01*
X19196Y7467D01*
X19179Y7430D01*
X19177Y7421D01*
X19140Y7431D01*
X19100Y7434D01*
X19084Y7433D01*
Y7703D01*
X19100Y7704D01*
X19120Y7703D01*
X19129Y7669D01*
X19146Y7632D01*
X19158Y7615D01*
X19216Y7672D01*
X19215Y7672D01*
X19204Y7697D01*
X19201Y7707D01*
X19234Y7741D01*
X19222Y7750D01*
X19234Y7758D01*
X19201Y7792D01*
X19204Y7803D01*
X19215Y7827D01*
X19216Y7827D01*
X19158Y7884D01*
X19146Y7867D01*
X19129Y7830D01*
X19120Y7796D01*
X19100Y7795D01*
X19084Y7796D01*
Y8103D01*
X19100Y8104D01*
X19120Y8103D01*
X19129Y8069D01*
X19146Y8032D01*
X19158Y8015D01*
X19216Y8072D01*
X19215Y8072D01*
X19204Y8097D01*
X19201Y8107D01*
X19234Y8141D01*
X19217Y8153D01*
X19196Y8163D01*
X19197Y8176D01*
X19204Y8203D01*
X19215Y8227D01*
X19216Y8227D01*
X19158Y8284D01*
X19146Y8267D01*
X19129Y8230D01*
X19118Y8190D01*
X19118Y8183D01*
X19100Y8184D01*
X19084Y8183D01*
Y9100D01*
G37*
G36*
Y7316D02*X19100Y7315D01*
X19140Y7318D01*
X19167Y7326D01*
X19168Y7309D01*
X19179Y7269D01*
X19196Y7232D01*
X19208Y7215D01*
X19245Y7252D01*
X19252Y7226D01*
X19253Y7213D01*
X19232Y7203D01*
X19215Y7191D01*
X19248Y7157D01*
X19245Y7147D01*
X19234Y7122D01*
X19234Y7122D01*
X19291Y7065D01*
X19303Y7082D01*
X19320Y7119D01*
X19322Y7128D01*
X19350Y7121D01*
Y6845D01*
X19323Y6847D01*
X19297Y6854D01*
X19272Y6865D01*
X19272Y6866D01*
X19215Y6808D01*
X19232Y6796D01*
X19269Y6779D01*
X19309Y6768D01*
X19350Y6765D01*
Y6500D01*
X19084D01*
Y6966D01*
X19100Y6965D01*
X19118Y6966D01*
X19118Y6959D01*
X19129Y6919D01*
X19146Y6882D01*
X19158Y6865D01*
X19216Y6922D01*
X19215Y6922D01*
X19204Y6947D01*
X19197Y6973D01*
X19196Y6986D01*
X19217Y6996D01*
X19234Y7008D01*
X19201Y7042D01*
X19204Y7053D01*
X19215Y7077D01*
X19216Y7077D01*
X19158Y7134D01*
X19146Y7117D01*
X19129Y7080D01*
X19120Y7046D01*
X19100Y7045D01*
X19084Y7046D01*
Y7316D01*
G37*
G36*
X19350Y9100D02*X19650D01*
Y8178D01*
X19640Y8181D01*
X19600Y8184D01*
X19581Y8183D01*
X19581Y8190D01*
X19570Y8230D01*
X19553Y8267D01*
X19541Y8284D01*
X19484Y8227D01*
X19484Y8227D01*
X19495Y8203D01*
X19502Y8176D01*
X19503Y8163D01*
X19482Y8153D01*
X19465Y8141D01*
X19498Y8107D01*
X19495Y8097D01*
X19484Y8072D01*
X19484Y8072D01*
X19541Y8015D01*
X19553Y8032D01*
X19570Y8069D01*
X19579Y8103D01*
X19600Y8104D01*
X19626Y8102D01*
X19650Y8096D01*
Y7803D01*
X19626Y7797D01*
X19600Y7795D01*
X19579Y7796D01*
X19570Y7830D01*
X19553Y7867D01*
X19541Y7884D01*
X19484Y7827D01*
X19484Y7827D01*
X19495Y7803D01*
X19498Y7792D01*
X19465Y7758D01*
X19482Y7746D01*
X19503Y7736D01*
X19502Y7723D01*
X19495Y7697D01*
X19484Y7672D01*
X19484Y7672D01*
X19541Y7615D01*
X19553Y7632D01*
X19570Y7669D01*
X19574Y7685D01*
X19597Y7695D01*
X19623Y7702D01*
X19650Y7704D01*
Y7395D01*
X19629Y7396D01*
X19620Y7430D01*
X19603Y7467D01*
X19591Y7484D01*
X19534Y7427D01*
X19534Y7427D01*
X19545Y7403D01*
X19548Y7392D01*
X19515Y7358D01*
X19527Y7350D01*
X19515Y7341D01*
X19548Y7307D01*
X19545Y7297D01*
X19534Y7272D01*
X19534Y7272D01*
X19591Y7215D01*
X19603Y7232D01*
X19620Y7269D01*
X19629Y7303D01*
X19650Y7304D01*
Y6995D01*
X19623Y6997D01*
X19597Y7004D01*
X19583Y7010D01*
X19581Y7040D01*
X19570Y7080D01*
X19553Y7117D01*
X19541Y7134D01*
X19504Y7097D01*
X19497Y7123D01*
X19496Y7136D01*
X19517Y7146D01*
X19534Y7158D01*
X19501Y7192D01*
X19504Y7203D01*
X19515Y7227D01*
X19516Y7227D01*
X19458Y7284D01*
X19446Y7267D01*
X19429Y7230D01*
X19427Y7221D01*
X19390Y7231D01*
X19350Y7234D01*
Y7496D01*
X19373Y7502D01*
X19400Y7504D01*
X19420Y7503D01*
X19429Y7469D01*
X19446Y7432D01*
X19458Y7415D01*
X19516Y7472D01*
X19515Y7472D01*
X19504Y7497D01*
X19501Y7507D01*
X19534Y7541D01*
X19517Y7553D01*
X19496Y7563D01*
X19497Y7576D01*
X19504Y7603D01*
X19515Y7627D01*
X19516Y7627D01*
X19458Y7684D01*
X19446Y7667D01*
X19429Y7630D01*
X19425Y7614D01*
X19403Y7604D01*
X19376Y7597D01*
X19350Y7595D01*
Y7904D01*
X19370Y7903D01*
X19379Y7869D01*
X19396Y7832D01*
X19408Y7815D01*
X19466Y7872D01*
X19465Y7872D01*
X19454Y7897D01*
X19451Y7907D01*
X19484Y7941D01*
X19472Y7950D01*
X19484Y7958D01*
X19451Y7992D01*
X19454Y8003D01*
X19465Y8027D01*
X19466Y8027D01*
X19408Y8084D01*
X19396Y8067D01*
X19379Y8030D01*
X19370Y7996D01*
X19350Y7995D01*
Y8304D01*
X19376Y8302D01*
X19403Y8295D01*
X19427Y8284D01*
X19427Y8284D01*
X19484Y8341D01*
X19467Y8353D01*
X19430Y8370D01*
X19390Y8381D01*
X19350Y8384D01*
Y9100D01*
G37*
G36*
X19650D02*X19900D01*
Y8334D01*
X19859Y8331D01*
X19819Y8320D01*
X19782Y8303D01*
X19765Y8291D01*
X19822Y8234D01*
X19822Y8234D01*
X19847Y8245D01*
X19873Y8252D01*
X19900Y8254D01*
Y7984D01*
X19859Y7981D01*
X19832Y7974D01*
X19831Y7990D01*
X19820Y8030D01*
X19803Y8067D01*
X19791Y8084D01*
X19754Y8047D01*
X19747Y8073D01*
X19745Y8100D01*
X19747Y8126D01*
X19754Y8153D01*
X19765Y8177D01*
X19766Y8177D01*
X19708Y8234D01*
X19696Y8217D01*
X19679Y8180D01*
X19677Y8171D01*
X19650Y8178D01*
Y9100D01*
G37*
G36*
X19900Y7228D02*X19872Y7221D01*
X19870Y7230D01*
X19853Y7267D01*
X19841Y7284D01*
X19784Y7227D01*
X19784Y7227D01*
X19795Y7203D01*
X19798Y7192D01*
X19765Y7158D01*
X19782Y7146D01*
X19803Y7136D01*
X19802Y7123D01*
X19795Y7097D01*
X19758Y7134D01*
X19746Y7117D01*
X19729Y7080D01*
X19718Y7040D01*
X19716Y7010D01*
X19703Y7004D01*
X19676Y6997D01*
X19650Y6995D01*
Y7304D01*
X19670Y7303D01*
X19679Y7269D01*
X19696Y7232D01*
X19708Y7215D01*
X19766Y7272D01*
X19765Y7272D01*
X19754Y7297D01*
X19751Y7307D01*
X19784Y7341D01*
X19772Y7350D01*
X19784Y7358D01*
X19751Y7392D01*
X19754Y7403D01*
X19765Y7427D01*
X19766Y7427D01*
X19708Y7484D01*
X19696Y7467D01*
X19679Y7430D01*
X19670Y7396D01*
X19650Y7395D01*
Y7704D01*
X19670Y7703D01*
X19679Y7669D01*
X19696Y7632D01*
X19708Y7615D01*
X19766Y7672D01*
X19765Y7672D01*
X19754Y7697D01*
X19751Y7707D01*
X19784Y7741D01*
X19767Y7753D01*
X19746Y7763D01*
X19747Y7776D01*
X19754Y7803D01*
X19765Y7827D01*
X19766Y7827D01*
X19708Y7884D01*
X19696Y7867D01*
X19679Y7830D01*
X19675Y7814D01*
X19653Y7804D01*
X19650Y7803D01*
Y8096D01*
X19653Y8095D01*
X19666Y8089D01*
X19668Y8059D01*
X19679Y8019D01*
X19696Y7982D01*
X19708Y7965D01*
X19745Y8002D01*
X19752Y7976D01*
X19754Y7950D01*
X19752Y7923D01*
X19745Y7897D01*
X19734Y7872D01*
X19734Y7872D01*
X19791Y7815D01*
X19803Y7832D01*
X19820Y7869D01*
X19822Y7878D01*
X19859Y7868D01*
X19900Y7865D01*
Y7595D01*
X19879Y7596D01*
X19870Y7630D01*
X19853Y7667D01*
X19841Y7684D01*
X19784Y7627D01*
X19784Y7627D01*
X19795Y7603D01*
X19798Y7592D01*
X19765Y7558D01*
X19777Y7550D01*
X19765Y7541D01*
X19798Y7507D01*
X19795Y7497D01*
X19784Y7472D01*
X19784Y7472D01*
X19841Y7415D01*
X19853Y7432D01*
X19870Y7469D01*
X19879Y7503D01*
X19900Y7504D01*
Y7228D01*
G37*
G36*
Y9100D02*X20084D01*
Y8228D01*
X20034Y8177D01*
X20034Y8177D01*
X20045Y8153D01*
X20052Y8126D01*
X20054Y8100D01*
X20052Y8073D01*
X20045Y8047D01*
X20034Y8022D01*
X20034Y8022D01*
X20084Y7972D01*
Y7878D01*
X20034Y7827D01*
X20034Y7827D01*
X20045Y7803D01*
X20052Y7776D01*
X20054Y7750D01*
X20052Y7723D01*
X20045Y7697D01*
X20034Y7672D01*
X20034Y7672D01*
X20084Y7622D01*
Y7478D01*
X20034Y7427D01*
X20034Y7427D01*
X20045Y7403D01*
X20052Y7376D01*
X20054Y7350D01*
X20052Y7323D01*
X20045Y7297D01*
X20034Y7272D01*
X20034Y7272D01*
X20084Y7222D01*
Y7191D01*
X20067Y7203D01*
X20030Y7220D01*
X19990Y7231D01*
X19950Y7234D01*
X19909Y7231D01*
X19900Y7228D01*
Y7504D01*
X19926Y7502D01*
X19953Y7495D01*
X19977Y7484D01*
X19977Y7484D01*
X20034Y7541D01*
X20022Y7550D01*
X20034Y7558D01*
X19977Y7616D01*
X19977Y7615D01*
X19953Y7604D01*
X19926Y7597D01*
X19900Y7595D01*
Y7865D01*
X19940Y7868D01*
X19980Y7879D01*
X20017Y7896D01*
X20034Y7908D01*
X20018Y7925D01*
X20034Y7941D01*
X20017Y7953D01*
X19980Y7970D01*
X19940Y7981D01*
X19900Y7984D01*
Y8254D01*
X19926Y8252D01*
X19953Y8245D01*
X19977Y8234D01*
X19977Y8234D01*
X20034Y8291D01*
X20017Y8303D01*
X19980Y8320D01*
X19940Y8331D01*
X19900Y8334D01*
Y9100D01*
G37*
G36*
X19350Y7121D02*X19359Y7118D01*
X19400Y7115D01*
X19418Y7116D01*
X19418Y7109D01*
X19429Y7069D01*
X19446Y7032D01*
X19458Y7015D01*
X19495Y7052D01*
X19502Y7026D01*
X19504Y7000D01*
X19502Y6973D01*
X19495Y6947D01*
X19484Y6922D01*
X19484Y6922D01*
X19541Y6865D01*
X19553Y6882D01*
X19570Y6919D01*
X19572Y6928D01*
X19609Y6918D01*
X19650Y6915D01*
X19690Y6918D01*
X19727Y6928D01*
X19729Y6919D01*
X19746Y6882D01*
X19758Y6865D01*
X19816Y6922D01*
X19815Y6922D01*
X19804Y6947D01*
X19797Y6973D01*
X19795Y7000D01*
X19797Y7026D01*
X19804Y7052D01*
X19841Y7015D01*
X19853Y7032D01*
X19870Y7069D01*
X19881Y7109D01*
X19881Y7116D01*
X19900Y7115D01*
X19940Y7118D01*
X19980Y7129D01*
X20009Y7142D01*
X20027Y7134D01*
X20027Y7134D01*
X20084Y7190D01*
Y7078D01*
X20084Y7077D01*
X20084Y7077D01*
X20084Y7076D01*
Y6923D01*
X20084Y6922D01*
X20084Y6922D01*
X20084Y6922D01*
Y6809D01*
X20027Y6866D01*
X20027Y6865D01*
X20003Y6854D01*
X19976Y6847D01*
X19950Y6845D01*
X19923Y6847D01*
X19897Y6854D01*
X19872Y6865D01*
X19872Y6866D01*
X19815Y6808D01*
X19832Y6796D01*
X19869Y6779D01*
X19909Y6768D01*
X19950Y6765D01*
X19990Y6768D01*
X20030Y6779D01*
X20067Y6796D01*
X20084Y6808D01*
Y6500D01*
X19350D01*
Y6765D01*
X19390Y6768D01*
X19430Y6779D01*
X19467Y6796D01*
X19484Y6808D01*
X19427Y6866D01*
X19427Y6865D01*
X19403Y6854D01*
X19376Y6847D01*
X19350Y6845D01*
Y7121D01*
G37*
G36*
X20084Y9100D02*X20150D01*
Y7122D01*
X20141Y7134D01*
X20084Y7078D01*
Y7190D01*
X20084Y7191D01*
X20084Y7191D01*
Y7222D01*
X20091Y7215D01*
X20103Y7232D01*
X20120Y7269D01*
X20131Y7309D01*
X20134Y7350D01*
X20131Y7390D01*
X20120Y7430D01*
X20103Y7467D01*
X20091Y7484D01*
X20084Y7478D01*
Y7622D01*
X20091Y7615D01*
X20103Y7632D01*
X20120Y7669D01*
X20131Y7709D01*
X20134Y7750D01*
X20131Y7790D01*
X20120Y7830D01*
X20103Y7867D01*
X20091Y7884D01*
X20084Y7878D01*
Y7972D01*
X20091Y7965D01*
X20103Y7982D01*
X20120Y8019D01*
X20131Y8059D01*
X20134Y8100D01*
X20131Y8140D01*
X20120Y8180D01*
X20103Y8217D01*
X20091Y8234D01*
X20084Y8228D01*
Y9100D01*
G37*
G36*
Y7076D02*X20095Y7053D01*
X20102Y7026D01*
X20104Y7000D01*
X20102Y6973D01*
X20095Y6947D01*
X20084Y6923D01*
Y7076D01*
G37*
G36*
Y6922D02*X20141Y6865D01*
X20150Y6877D01*
Y6500D01*
X20084D01*
Y6808D01*
X20084Y6808D01*
X20084Y6809D01*
Y6922D01*
G37*
G36*
X19750Y6500D02*Y6877D01*
X19758Y6865D01*
X19816Y6922D01*
X19815Y6922D01*
X19804Y6947D01*
X19797Y6973D01*
X19795Y7000D01*
X19797Y7026D01*
X19804Y7052D01*
X19841Y7015D01*
X19853Y7032D01*
X19870Y7069D01*
X19881Y7109D01*
X19881Y7116D01*
X19900Y7115D01*
X19940Y7118D01*
X19980Y7129D01*
X20009Y7142D01*
X20027Y7134D01*
X20027Y7134D01*
X20084Y7190D01*
Y7078D01*
X20084Y7077D01*
X20084Y7077D01*
X20084Y7076D01*
Y6923D01*
X20084Y6922D01*
X20084Y6922D01*
X20084Y6922D01*
Y6809D01*
X20027Y6866D01*
X20027Y6865D01*
X20003Y6854D01*
X19976Y6847D01*
X19950Y6845D01*
X19923Y6847D01*
X19897Y6854D01*
X19872Y6865D01*
X19872Y6866D01*
X19815Y6808D01*
X19832Y6796D01*
X19869Y6779D01*
X19909Y6768D01*
X19950Y6765D01*
X19990Y6768D01*
X20030Y6779D01*
X20067Y6796D01*
X20084Y6808D01*
Y6500D01*
X19750D01*
G37*
G36*
X19900Y7228D02*X19872Y7221D01*
X19870Y7230D01*
X19853Y7267D01*
X19841Y7284D01*
X19784Y7227D01*
X19784Y7227D01*
X19795Y7203D01*
X19798Y7192D01*
X19765Y7158D01*
X19782Y7146D01*
X19803Y7136D01*
X19802Y7123D01*
X19795Y7097D01*
X19758Y7134D01*
X19750Y7122D01*
Y7256D01*
X19766Y7272D01*
X19765Y7272D01*
X19754Y7297D01*
X19751Y7307D01*
X19784Y7341D01*
X19772Y7350D01*
X19784Y7358D01*
X19751Y7392D01*
X19754Y7403D01*
X19765Y7427D01*
X19766Y7427D01*
X19750Y7443D01*
Y7656D01*
X19766Y7672D01*
X19765Y7672D01*
X19754Y7697D01*
X19751Y7707D01*
X19784Y7741D01*
X19767Y7753D01*
X19750Y7761D01*
Y7786D01*
X19754Y7803D01*
X19765Y7827D01*
X19766Y7827D01*
X19750Y7843D01*
Y7856D01*
X19791Y7815D01*
X19803Y7832D01*
X19820Y7869D01*
X19822Y7878D01*
X19859Y7868D01*
X19900Y7865D01*
Y7595D01*
X19879Y7596D01*
X19870Y7630D01*
X19853Y7667D01*
X19841Y7684D01*
X19784Y7627D01*
X19784Y7627D01*
X19795Y7603D01*
X19798Y7592D01*
X19765Y7558D01*
X19777Y7550D01*
X19765Y7541D01*
X19798Y7507D01*
X19795Y7497D01*
X19784Y7472D01*
X19784Y7472D01*
X19841Y7415D01*
X19853Y7432D01*
X19870Y7469D01*
X19879Y7503D01*
X19900Y7504D01*
Y7228D01*
G37*
G36*
Y7984D02*X19859Y7981D01*
X19832Y7974D01*
X19831Y7990D01*
X19820Y8030D01*
X19803Y8067D01*
X19791Y8084D01*
X19754Y8047D01*
X19750Y8063D01*
Y8136D01*
X19754Y8153D01*
X19765Y8177D01*
X19766Y8177D01*
X19750Y8193D01*
Y8800D01*
X19900D01*
Y8334D01*
X19859Y8331D01*
X19819Y8320D01*
X19782Y8303D01*
X19765Y8291D01*
X19822Y8234D01*
X19822Y8234D01*
X19847Y8245D01*
X19873Y8252D01*
X19900Y8254D01*
Y7984D01*
G37*
G36*
X20084Y7191D02*X20067Y7203D01*
X20030Y7220D01*
X19990Y7231D01*
X19950Y7234D01*
X19909Y7231D01*
X19900Y7228D01*
Y7504D01*
X19926Y7502D01*
X19953Y7495D01*
X19977Y7484D01*
X19977Y7484D01*
X20034Y7541D01*
X20022Y7550D01*
X20034Y7558D01*
X19977Y7616D01*
X19977Y7615D01*
X19953Y7604D01*
X19926Y7597D01*
X19900Y7595D01*
Y7865D01*
X19940Y7868D01*
X19980Y7879D01*
X20017Y7896D01*
X20034Y7908D01*
X20018Y7925D01*
X20034Y7941D01*
X20017Y7953D01*
X19980Y7970D01*
X19940Y7981D01*
X19900Y7984D01*
Y8254D01*
X19926Y8252D01*
X19953Y8245D01*
X19977Y8234D01*
X19977Y8234D01*
X20034Y8291D01*
X20017Y8303D01*
X19980Y8320D01*
X19940Y8331D01*
X19900Y8334D01*
Y8800D01*
X20084D01*
Y8228D01*
X20034Y8177D01*
X20034Y8177D01*
X20045Y8153D01*
X20052Y8126D01*
X20054Y8100D01*
X20052Y8073D01*
X20045Y8047D01*
X20034Y8022D01*
X20034Y8022D01*
X20084Y7972D01*
Y7878D01*
X20034Y7827D01*
X20034Y7827D01*
X20045Y7803D01*
X20052Y7776D01*
X20054Y7750D01*
X20052Y7723D01*
X20045Y7697D01*
X20034Y7672D01*
X20034Y7672D01*
X20084Y7622D01*
Y7478D01*
X20034Y7427D01*
X20034Y7427D01*
X20045Y7403D01*
X20052Y7376D01*
X20054Y7350D01*
X20052Y7323D01*
X20045Y7297D01*
X20034Y7272D01*
X20034Y7272D01*
X20084Y7222D01*
Y7191D01*
G37*
G36*
Y7190D02*X20084Y7191D01*
X20084Y7191D01*
Y7222D01*
X20091Y7215D01*
X20103Y7232D01*
X20120Y7269D01*
X20131Y7309D01*
X20134Y7350D01*
X20131Y7390D01*
X20120Y7430D01*
X20103Y7467D01*
X20091Y7484D01*
X20084Y7478D01*
Y7622D01*
X20091Y7615D01*
X20103Y7632D01*
X20120Y7669D01*
X20131Y7709D01*
X20134Y7750D01*
X20131Y7790D01*
X20120Y7830D01*
X20103Y7867D01*
X20091Y7884D01*
X20084Y7878D01*
Y7972D01*
X20091Y7965D01*
X20103Y7982D01*
X20120Y8019D01*
X20131Y8059D01*
X20134Y8100D01*
X20131Y8140D01*
X20120Y8180D01*
X20103Y8217D01*
X20091Y8234D01*
X20084Y8228D01*
Y8800D01*
X20600D01*
Y7217D01*
X20594Y7195D01*
X20590Y7150D01*
X20594Y7104D01*
X20600Y7083D01*
Y6500D01*
X20084D01*
Y6808D01*
X20084Y6808D01*
X20084Y6809D01*
Y6922D01*
X20141Y6865D01*
X20153Y6882D01*
X20170Y6919D01*
X20181Y6959D01*
X20184Y7000D01*
X20181Y7040D01*
X20170Y7080D01*
X20153Y7117D01*
X20141Y7134D01*
X20084Y7078D01*
Y7190D01*
G37*
G36*
Y7076D02*X20095Y7053D01*
X20102Y7026D01*
X20104Y7000D01*
X20102Y6973D01*
X20095Y6947D01*
X20084Y6923D01*
Y7076D01*
G37*
G36*
X18450Y5350D02*Y6600D01*
X20400D01*
Y5350D01*
X18450D01*
G37*
G54D12*X16585Y14428D02*X16600Y14443D01*
Y15400D01*
G54D13*X15798Y15881D02*X15800Y15882D01*
G54D12*X16585Y15881D02*Y15964D01*
G54D13*X15404Y15881D02*X15450Y15926D01*
X17373Y14428D02*X17350Y14452D01*
Y15250D01*
G54D14*X17373Y14428D02*X17400Y14455D01*
Y15100D01*
X17350D01*
G54D13*X14600Y16036D02*Y15550D01*
X15050Y15900D02*Y15650D01*
X15404Y15881D02*X14400Y16885D01*
X16200Y15900D02*Y16200D01*
X16600Y15950D02*Y16700D01*
X16550Y16750D01*
X15011Y15881D02*X15000Y15892D01*
X15798Y15881D02*X14600Y17079D01*
X16450Y22350D02*Y22600D01*
X14450D02*X14400D01*
X14450Y22450D02*Y22550D01*
X15450Y22600D02*X14400Y21550D01*
X16450Y22600D02*X14600Y20750D01*
Y20700D01*
X14400Y16900D02*Y21550D01*
X14600Y17079D02*Y20750D01*
X15800Y17750D02*X15250D01*
X15200Y17700D01*
Y17100D02*X14750Y17550D01*
Y17950D01*
X15000Y18200D01*
X15200D01*
X15800Y18300D02*X16393D01*
X15800Y18800D02*Y18250D01*
X15200Y19450D02*X15800D01*
X15850Y19400D01*
Y19300D01*
X16393Y18300D02*X16394Y18299D01*
X18160Y19960D02*X19350Y21150D01*
X19450Y20050D02*X18850Y19450D01*
Y17700D01*
X19750Y18000D02*Y21350D01*
X19500Y21600D01*
X16200Y16200D02*X15700Y16700D01*
X16450Y17200D02*X15900D01*
X15800D02*Y17800D01*
X18160Y15881D02*Y19960D01*
X15893Y18200D02*X15899Y18205D01*
X15905Y18200D02*X15899Y18205D01*
X15850Y18200D02*X15893D01*
X16950Y18300D02*X17350D01*
X17650Y18600D01*
G54D12*X10310Y6090D02*X10400Y6180D01*
Y6850D01*
X10310Y5610D02*X10350Y5570D01*
X10860Y4940D02*X10820Y4900D01*
X10400D01*
X11340Y4940D02*X11400Y5000D01*
Y5700D01*
X10350Y5570D02*Y2500D01*
G54D15*Y2450D02*X11700D01*
X11650Y1500D02*X11950D01*
X14400Y3950D01*
X26380Y14110D02*X26450Y14040D01*
X26400Y14790D02*Y16750D01*
X26380Y14770D02*X26400Y14790D01*
X26450Y14040D02*Y13300D01*
X25020Y12000D02*X25450Y12430D01*
Y14400D01*
X24570Y14770D02*X24450Y14890D01*
Y15950D01*
X25020Y12000D02*X25350Y11670D01*
Y10800D01*
G54D13*X20522Y14971D02*X20550Y14944D01*
G54D12*X23260Y14960D02*X23200Y14900D01*
X23740Y15140D02*X23780Y15100D01*
X24500D01*
G54D13*X20550Y14944D02*Y14700D01*
G54D14*Y14944D02*Y14750D01*
G54D15*X21704Y13518D02*X21722Y13500D01*
X22500D01*
G54D12*X23200Y14900D02*Y14400D01*
G54D13*X20916Y15881D02*X20950Y15914D01*
X21310Y15881D02*X21300Y15891D01*
Y16750D01*
X20950Y15914D02*Y17070D01*
X21360Y16840D02*X21350Y16850D01*
Y17250D01*
X20500Y16620D02*Y15750D01*
X21704Y15881D02*X21700Y15885D01*
Y16650D01*
X21800Y16750D01*
X21840D01*
X21704Y14428D02*X21700Y14432D01*
Y15200D01*
X19735Y15881D02*X19750Y15895D01*
Y16750D01*
X19341Y15881D02*X19300Y15922D01*
Y16750D01*
X19735Y14971D02*X19750Y14956D01*
G54D14*X21700Y14432D02*Y15150D01*
G54D13*X19260Y12390D02*X19300Y12430D01*
Y13600D01*
X18554Y14428D02*X18550Y14433D01*
X21700Y14700D02*X18550D01*
G54D12*X17767Y14428D02*X17800Y14461D01*
G54D13*X18550Y14433D02*Y15150D01*
G54D14*Y14433D02*Y15200D01*
G54D12*X17800Y14461D02*Y15050D01*
X18100D01*
Y14350D01*
G54D13*X19750Y14956D02*Y14700D01*
G54D14*Y14956D02*Y14750D01*
G54D12*X18100Y14350D02*X17850D01*
X17767Y13518D02*X17800Y13485D01*
G54D13*X19500Y10780D02*Y11050D01*
X19410Y10690D02*X19500Y10780D01*
X21150Y11350D02*X21950Y10550D01*
X21850Y12140D02*X22850Y11140D01*
Y10900D01*
X22800Y10000D02*X23200D01*
X22850Y10900D02*Y11100D01*
X21950Y10550D02*X22250D01*
X22800Y10000D01*
X21850Y12150D02*X18950D01*
G54D15*X19950Y6800D02*X19250D01*
X19600D02*X19950D01*
X20100Y6850D02*X19950Y7000D01*
G54D13*X17250Y6750D02*Y6350D01*
G54D15*X18950Y7450D02*X19600Y6800D01*
X19350Y7450D02*X18950D01*
X19800Y7300D02*X19050D01*
X19950Y7000D02*X18650D01*
X18750Y7100D01*
X19850Y7250D02*X19800Y7300D01*
G54D13*X17260Y6760D02*X17250Y6750D01*
X17260Y7240D02*X16920Y6900D01*
X16850D01*
X15950Y9600D02*X16850Y8700D01*
Y6900D01*
X20850Y7150D02*Y11200D01*
Y11300D02*Y11150D01*
G54D15*X18500Y8100D02*X18600Y8200D01*
X20050D01*
X20100Y8150D01*
X18800Y7850D02*X19850D01*
G54D13*X19550Y9450D02*X19500Y10200D01*
G54D15*X19450Y7550D02*X19350Y7450D01*
X19300Y7550D02*X19450D01*
X20100Y8150D02*Y6850D01*
X19850Y7850D02*Y7250D01*
X18750Y7100D02*Y7800D01*
X19050Y7300D02*X19300Y7550D01*
X18750Y7800D02*X18800Y7850D01*
G54D13*X11500Y13600D02*Y12650D01*
G54D14*X13150Y13411D02*Y12400D01*
G54D12*X11890Y11640D02*X11700Y11730D01*
X11830Y11700D02*X11700Y11600D01*
X12590Y11160D02*X11800D01*
X13250Y10500D02*X12590Y11160D01*
G54D15*X11710Y11640D02*X11920Y11850D01*
G54D13*X14100Y13000D02*X16800D01*
X16740Y11510D02*X17030Y11800D01*
X13750Y12350D02*X15650Y10450D01*
X14300Y12550D02*X15800Y11050D01*
X16750Y11500D02*X16700Y11450D01*
X15900D01*
X17700D02*X20700D01*
X15650Y10450D02*X20550D01*
X17900Y11050D02*X18850D01*
X20700Y11450D02*X20850Y11300D01*
X18950Y12150D02*X18899Y12099D01*
X18900Y12100D02*X18850Y12050D01*
X17300D01*
X17200Y12150D01*
X17150D01*
X19260Y11910D02*X19150Y11800D01*
X17030D01*
X15800Y11050D02*X18050D01*
G54D12*X17800Y13485D02*Y12650D01*
G54D13*X17350Y13495D02*Y12500D01*
X17373Y13518D02*X17350Y13495D01*
X17650Y12200D02*X17929D01*
X18550Y12820D02*Y13550D01*
X18554Y13518D02*X18550Y13550D01*
X17000Y12300D02*X17150Y12150D01*
X16800Y13000D02*X17000Y12800D01*
Y12300D01*
X17350Y12500D02*X17550Y12299D01*
X17550Y12300D02*X17650Y12200D01*
X17929D02*X18550Y12820D01*
X18950Y12850D02*X18900Y12900D01*
X18550D01*
X19310Y16840D02*X19300Y16750D01*
X20760Y17260D02*X20950Y17070D01*
X19310Y16840D02*X19300Y16850D01*
Y17200D01*
X20460Y16660D02*X20500Y16620D01*
X18890Y17260D02*X18900Y17250D01*
Y16750D01*
X18410Y16660D02*X18550Y16520D01*
Y15900D01*
X18890Y16660D02*X18950Y16600D01*
Y15850D01*
X19490Y17740D02*X19750Y18000D01*
G54D15*X23500Y17100D02*Y15900D01*
G54D13*X19750Y16300D02*X20500D01*
G54D15*X26490Y18890D02*X26800Y19200D01*
Y20050D01*
X25710Y18890D02*X25450Y19150D01*
Y20300D01*
G54D13*X24400Y19950D02*X22150Y17700D01*
X21500D01*
X21000Y19450D02*X20900Y19350D01*
Y17800D01*
G54D15*X23600Y17200D02*X23500Y17100D01*
G54D13*X6000Y21350D02*X11100Y16250D01*
X8350Y17850D02*X10300Y15900D01*
G54D14*X6050Y15450D02*X6500D01*
X7300Y15950D02*X6590D01*
G54D13*X1800Y22600D02*X3450Y20950D01*
X800Y22600D02*X3550Y19850D01*
X2800Y22600D02*X4050Y21350D01*
X3550Y19850D02*Y19150D01*
X4850Y17850D01*
X3450Y20950D02*X5700D01*
X4050Y21350D02*X6000D01*
X4800Y22600D02*X5550Y21850D01*
X6250D01*
X3800Y22600D02*X4850Y21550D01*
X6800Y22600D02*X12650Y16750D01*
X5800Y22600D02*X12250Y16150D01*
X6250Y21850D02*X11900Y16200D01*
X6100Y21550D02*X11500Y16150D01*
X7800Y22600D02*X7850Y22550D01*
X7800Y22600D02*X7900Y22500D01*
Y21800D01*
X13050Y16650D01*
Y16350D01*
X10450Y22600D02*X10400Y22550D01*
X12750Y21900D02*Y17886D01*
X10400Y22550D02*Y19600D01*
X11450Y22600D02*Y18762D01*
X12450Y22600D02*Y17974D01*
X13450Y22600D02*X12750Y21900D01*
X13900D02*X14450Y22450D01*
X13900Y16992D02*Y21900D01*
X5700Y20950D02*X10700Y15950D01*
X4850Y17850D02*X8350D01*
G54D12*X9280Y16100D02*X8800D01*
G54D13*X4850Y21550D02*X6100D01*
G54D14*X6450Y14950D02*X5850D01*
X4410Y14450D02*X6500D01*
X5200Y14940D02*Y14450D01*
X5900Y15600D02*X6050Y15450D01*
X4410Y15950D02*X4400Y15960D01*
Y16500D01*
X4690Y15450D02*X5200Y14940D01*
X4000Y14300D02*Y14600D01*
X4400Y15000D01*
G54D13*X11500Y16150D02*Y15750D01*
X12650Y16750D02*Y15700D01*
X12250Y16150D02*Y15600D01*
X11900Y16200D02*Y15850D01*
X13042Y15881D02*X13050Y15888D01*
Y16400D01*
X10400Y19600D02*X13450Y16550D01*
X11450Y18762D02*X13850Y16362D01*
X13450Y16550D02*Y15700D01*
X13850Y16362D02*Y15700D01*
X12450Y17974D02*X14200Y16224D01*
Y15750D01*
X9500Y14700D02*X16600D01*
X12750Y17886D02*X14600Y16036D01*
X15011Y15881D02*X13900Y16992D01*
G54D14*X12255Y13518D02*X12250Y13513D01*
Y12950D01*
X12648Y13518D02*X12750Y13417D01*
Y12700D01*
X13042Y13518D02*X13150Y13411D01*
G54D12*X10960Y11750D02*X11850Y11600D01*
X11700Y11700D02*X11050Y11600D01*
G54D15*X11920Y11850D02*X13000D01*
G54D12*X9499Y14428D02*Y15426D01*
G54D13*X11100Y16250D02*Y15700D01*
X10700Y15950D02*Y15650D01*
X10300Y15900D02*Y15750D01*
G54D12*X9499Y15881D02*X9280Y16100D01*
X9499Y13518D02*X9468Y13550D01*
X9450Y12780D02*Y13550D01*
X9468D02*X8800D01*
G54D14*X6450Y13700D02*X6400Y13750D01*
Y14500D01*
Y14450D01*
X11074Y13518D02*X11043Y13550D01*
X11074Y13518D02*X11000Y13444D01*
X11074Y13518D02*X10900Y13344D01*
Y12700D01*
G54D12*X10880Y11830D02*X10960Y11750D01*
G54D14*X11043Y13550D02*X10650D01*
G54D12*X9893Y13518D02*X9974Y13600D01*
X10300D01*
X9893Y13518D02*X9911Y13500D01*
X10100D01*
X9900Y13300D01*
X9360Y12690D02*X9450Y12780D01*
X9900Y13300D02*Y11750D01*
X10050D01*
X10000Y11800D01*
Y13450D01*
G54D16*X21200Y22750D02*X21250Y22800D01*
X21050Y22750D02*X21200D01*
X21000Y22800D02*X21050Y22750D01*
X21000Y22800D02*Y22900D01*
X21050Y22950D01*
X21200D01*
X21250Y23000D01*
Y23100D01*
X21200Y23150D02*X21250Y23100D01*
X21050Y23150D02*X21200D01*
X21000Y23100D02*X21050Y23150D01*
X21370Y22800D02*Y23100D01*
Y22800D02*X21420Y22750D01*
X21520D01*
X21570Y22800D01*
Y23100D01*
X21520Y23150D02*X21570Y23100D01*
X21420Y23150D02*X21520D01*
X21370Y23100D02*X21420Y23150D01*
X21690Y22750D02*Y23150D01*
X21890D01*
X22060Y22750D02*Y23150D01*
X22210Y22750D02*X22260Y22800D01*
Y23100D01*
X22210Y23150D02*X22260Y23100D01*
X22010Y23150D02*X22210D01*
X22010Y22750D02*X22210D01*
X22380Y22950D02*X22530D01*
X22380Y23150D02*X22580D01*
X22380Y22750D02*Y23150D01*
Y22750D02*X22580D01*
X22700D02*X22900D01*
X22950Y22800D01*
Y22900D01*
X22900Y22950D02*X22950Y22900D01*
X22750Y22950D02*X22900D01*
X22750Y22750D02*Y23150D01*
Y22950D02*X22950Y23150D01*
X23450Y22750D02*X23500Y22800D01*
X23300Y22750D02*X23450D01*
X23250Y22800D02*X23300Y22750D01*
X23250Y22800D02*Y22900D01*
X23300Y22950D01*
X23450D01*
X23500Y23000D01*
Y23100D01*
X23450Y23150D02*X23500Y23100D01*
X23300Y23150D02*X23450D01*
X23250Y23100D02*X23300Y23150D01*
X23620Y22750D02*X23720D01*
X23670D02*Y23150D01*
X23620D02*X23720D01*
X23890Y22750D02*Y23150D01*
X24040Y22750D02*X24090Y22800D01*
Y23100D01*
X24040Y23150D02*X24090Y23100D01*
X23840Y23150D02*X24040D01*
X23840Y22750D02*X24040D01*
X24210Y22950D02*X24360D01*
X24210Y23150D02*X24410D01*
X24210Y22750D02*Y23150D01*
Y22750D02*X24410D01*
G54D17*X10350Y2500D03*
G54D18*Y1500D03*
G54D19*X9400Y7900D03*
Y5900D03*
G54D17*X10450Y22600D03*
G54D18*X11450D03*
X12450D03*
X13450D03*
X14450D03*
X15450D03*
X16450D03*
X17450D03*
G54D19*X10400Y6900D03*
X11400Y7900D03*
Y5900D03*
G54D17*X11650Y2500D03*
G54D18*Y1500D03*
G54D17*X800Y22600D03*
G54D18*Y23600D03*
X1800Y22600D03*
Y23600D03*
X2800Y22600D03*
Y23600D03*
X3800Y22600D03*
Y23600D03*
X4800Y22600D03*
X5800D03*
X6800D03*
X7800D03*
X4800Y23600D03*
X5800D03*
X6800D03*
X7800D03*
X10450D03*
X11450D03*
X12450D03*
X13450D03*
X14450D03*
X15450D03*
X16450D03*
X17450D03*
G54D20*X16850Y6900D03*
X17250Y6350D03*
G54D21*X15650Y6000D03*
G54D20*X18050Y6250D03*
G54D22*X17850Y1400D03*
G54D20*X18450Y3050D03*
X18500Y4550D03*
X17400Y3650D03*
G54D22*X14500Y1300D03*
X14550Y4000D03*
G54D23*X15050Y6100D03*
X13650Y5700D03*
X14550Y5850D03*
X14000Y5150D03*
X14700Y5050D03*
X15450Y4900D03*
X14100Y6500D03*
X14700Y6600D03*
X15150Y6500D03*
G54D20*X20800Y5350D03*
X22350Y5650D03*
X21250Y4850D03*
X20750Y5850D03*
X23200Y6650D03*
X21700Y8500D03*
X20850Y7150D03*
G54D23*X19900Y8100D03*
Y7750D03*
X19600Y7950D03*
X18800Y7050D03*
X19100Y7200D03*
X19350Y8150D03*
X18800Y8100D03*
Y7750D03*
Y7400D03*
X19100Y7550D03*
Y7950D03*
X19350Y7750D03*
X19400Y7350D03*
X19350Y7000D03*
X19650Y7150D03*
X19950Y7000D03*
X19900Y7350D03*
X19650Y7550D03*
G54D21*X4400Y16500D03*
X4000Y14300D03*
G54D22*X8800Y16100D03*
G54D21*X5850Y14950D03*
X5900Y15600D03*
X7300Y15950D03*
G54D22*X8800Y13500D03*
G54D21*X6450Y13700D03*
G54D22*X26800Y20050D03*
X25450Y20300D03*
X26400Y15550D03*
X23250Y21000D03*
G54D20*X21650Y20500D03*
X24400Y19950D03*
X21000Y19450D03*
G54D22*X23600Y17200D03*
X24150Y20750D03*
G54D20*X19350Y21150D03*
X19500Y21600D03*
X19450Y20050D03*
X18750Y20000D03*
X20100Y16350D03*
G54D22*X17800Y12650D03*
G54D20*X14100Y13000D03*
X14300Y12550D03*
X17050Y20500D03*
X13900Y17500D03*
X17650Y18600D03*
X15200Y17100D03*
Y19450D03*
G54D22*X22500Y13500D03*
X23200Y14400D03*
X26450Y13300D03*
G54D20*X19500Y11100D03*
X19550Y9450D03*
X18800D03*
X18850Y11050D03*
X21150Y11350D03*
X20550Y10450D03*
G54D22*X25350Y10800D03*
G54D20*X23200Y10000D03*
X22850Y10900D03*
X23950Y9050D03*
X18950Y12850D03*
X20450Y9100D03*
X17700Y11450D03*
G54D22*X13250Y10500D03*
X13000Y11850D03*
G54D20*X15950Y11350D03*
G54D22*X14000Y9100D03*
G54D21*X15650Y8600D03*
G54D20*X17550Y8300D03*
X15950Y9600D03*
X11500Y12650D03*
G54D21*X12750Y12700D03*
X10900D03*
X13150Y12400D03*
X12250Y12950D03*
G54D20*X13750Y12350D03*
X12700Y8800D03*
G54D23*X11150Y8950D03*
X11850D03*
X12200Y8450D03*
G54D20*X12700Y8250D03*
G54D23*X12300Y7550D03*
X12950D03*
G54D24*X19410Y10690D02*X19590D01*
X19410Y10210D02*X19590D01*
G54D25*X25710Y18890D02*X26490D01*
G54D24*X20760Y17740D02*X20940D01*
X20760Y17260D02*X20940D01*
X21360Y16840D02*Y16660D01*
Y17740D02*X21540D01*
X21360Y17260D02*X21540D01*
X20940Y16840D02*Y16660D01*
G54D25*X25710Y17010D02*X26490D01*
G54D26*X23470Y16230D02*Y15870D01*
X24430Y16230D02*Y15870D01*
G54D24*X23260Y15140D02*Y14960D01*
X23740Y15140D02*Y14960D01*
X21840Y16840D02*Y16660D01*
G54D27*X21704Y15881D02*Y14971D01*
X20522Y15881D02*Y14971D01*
X20916Y15881D02*Y14971D01*
G54D24*X20460Y16840D02*Y16660D01*
G54D28*X24570Y14770D02*Y14110D01*
X25470Y14770D02*Y14110D01*
X26380Y14770D02*Y14110D01*
G54D29*X25020Y12000D02*X25920D01*
G54D27*X9499Y14428D02*Y13518D01*
X10286Y14428D02*Y13518D01*
X9893Y14428D02*Y13518D01*
X10680Y14428D02*Y13518D01*
X11074Y14428D02*Y13518D01*
X9499Y15881D02*Y14971D01*
X10286Y15881D02*Y14971D01*
X10680Y15881D02*Y14971D01*
X11074Y15881D02*Y14971D01*
X9893Y15881D02*Y14971D01*
G54D26*X9920Y11830D02*Y11470D01*
X10880Y11830D02*Y11470D01*
G54D24*X11710Y11160D02*X11890D01*
X11710Y11640D02*X11890D01*
X9360Y12690D02*Y12510D01*
X9840Y12690D02*Y12510D01*
G54D27*X11467Y14428D02*Y13518D01*
X11861Y14428D02*Y13518D01*
X12255Y14428D02*Y13518D01*
X12648Y14428D02*Y13518D01*
X13042Y14428D02*Y13518D01*
X13436Y14428D02*Y13518D01*
X11467Y15881D02*Y14971D01*
X11861Y15881D02*Y14971D01*
X12255Y15881D02*Y14971D01*
X13830Y14428D02*Y13518D01*
X14223Y14428D02*Y13518D01*
X14617Y14428D02*Y13518D01*
X15011Y14428D02*Y13518D01*
X15404Y14428D02*Y13518D01*
X15798Y14428D02*Y13518D01*
X16192Y14428D02*Y13518D01*
X16585Y14428D02*Y13518D01*
G54D30*X4410Y14450D02*X4690D01*
X6450D02*X6730D01*
X4410Y14950D02*X4690D01*
X6450D02*X6730D01*
X4410Y15450D02*X4690D01*
X4410Y15950D02*X4690D01*
X6450D02*X6730D01*
X6450Y15450D02*X6730D01*
G54D27*X16979Y14428D02*Y13518D01*
X17373Y14428D02*Y13518D01*
X17767Y14428D02*Y13518D01*
X18160Y14428D02*Y13518D01*
X18554Y14428D02*Y13518D01*
X18948Y14428D02*Y13518D01*
X19341Y14428D02*Y13518D01*
X19735Y14428D02*Y13518D01*
X20129Y14428D02*Y13518D01*
G54D24*X19260Y11910D02*X19440D01*
X19260Y12390D02*X19440D01*
G54D27*X20522Y14428D02*Y13518D01*
X20916Y14428D02*Y13518D01*
X21310Y14428D02*Y13518D01*
X21704Y14428D02*Y13518D01*
X21310Y15881D02*Y14971D01*
G54D24*X10310Y5610D02*X10490D01*
X10310Y6090D02*X10490D01*
X11340Y4940D02*Y4760D01*
X10860Y4940D02*Y4760D01*
X17260Y6760D02*X17440D01*
X17260Y7240D02*X17440D01*
G54D27*X12648Y15881D02*Y14971D01*
X13042Y15881D02*Y14971D01*
X13436Y15881D02*Y14971D01*
X13830Y15881D02*Y14971D01*
X14223Y15881D02*Y14971D01*
X14617Y15881D02*Y14971D01*
X15011Y15881D02*Y14971D01*
X15404Y15881D02*Y14971D01*
X15798Y15881D02*Y14971D01*
X16192Y15881D02*Y14971D01*
X16585Y15881D02*Y14971D01*
X16979Y15881D02*Y14971D01*
G54D24*X18890Y16840D02*Y16660D01*
X18410Y16840D02*Y16660D01*
X19310Y16840D02*Y16660D01*
X19790Y16840D02*Y16660D01*
G54D27*X17373Y15881D02*Y14971D01*
X17767Y15881D02*Y14971D01*
X18160Y15881D02*Y14971D01*
X18554Y15881D02*Y14971D01*
X19341Y15881D02*Y14971D01*
X18948Y15881D02*Y14971D01*
X19735Y15881D02*Y14971D01*
X20129Y15881D02*Y14971D01*
G54D24*X19310Y17260D02*X19490D01*
X18710Y17740D02*X18890D01*
X18710Y17260D02*X18890D01*
X19310Y17740D02*X19490D01*
X15710Y18810D02*X15890D01*
G54D31*X16905Y18299D02*Y18200D01*
G54D24*X15710Y19290D02*X15890D01*
X16410Y17190D02*X16590D01*
X15760D02*X15940D01*
X16410Y16710D02*X16590D01*
X15760D02*X15940D01*
X15060Y17710D02*X15240D01*
X15060Y18190D02*X15240D01*
G54D31*X15750Y17744D02*X15849D01*
X15750Y18255D02*X15849D01*
X16394Y18299D02*Y18200D01*
G54D32*G54D33*G54D32*G54D33*G54D32*G54D34*G54D35*G54D36*G54D35*G54D21*G54D35*G54D21*G54D36*G54D35*G54D36*G54D34*G54D36*G54D34*G54D21*G54D36*G54D21*G54D36*G54D34*G54D21*G54D35*G54D21*G54D35*G54D21*G54D35*G54D21*G54D35*G54D21*G54D35*G54D21*G54D35*G54D21*G54D36*G54D35*G54D36*G54D35*G54D36*G54D35*G54D36*M02*
