G04 start of page 4 for group 2 idx 1
G04 Title: RX Daughterboard, GND *
G04 Creator: pcb-bin 1.99u *
G04 CreationDate: Sun Jan  7 00:01:30 2007 UTC *
G04 For: matt *
G04 Format: Gerber/RS-274X *
G04 PCB-Dimensions: 275000 250000 *
G04 PCB-Coordinate-Origin: lower left *
%MOIN*%
%FSLAX24Y24*%
%LNGROUP2*%
%ADD11C,0.0200*%
%ADD12C,0.0100*%
%ADD13C,0.0400*%
%ADD14R,0.0600X0.0600*%
%ADD15C,0.0600*%
%ADD16C,0.0800*%
%ADD17C,0.0360*%
%ADD18C,0.0350*%
%ADD19C,0.0600*%
%ADD20C,0.0310*%
%ADD21C,0.0400*%
%ADD22C,0.0580*%
%ADD23C,0.1280*%
%ADD24C,0.0180*%
%ADD25C,0.0150*%
G54D11*G36*
X15100Y21050D02*X16844D01*
Y20649D01*
X16841Y20652D01*
X16825Y20629D01*
X16806Y20588D01*
X16794Y20545D01*
X16790Y20500D01*
X16794Y20454D01*
X16806Y20411D01*
X16825Y20370D01*
X16841Y20347D01*
X16844Y20350D01*
Y18000D01*
X15100D01*
Y19211D01*
X15111Y19205D01*
X15154Y19194D01*
X15200Y19190D01*
X15245Y19194D01*
X15288Y19205D01*
X15329Y19225D01*
X15367Y19251D01*
X15399Y19283D01*
X15425Y19320D01*
X15444Y19361D01*
X15455Y19404D01*
X15459Y19450D01*
X15455Y19495D01*
X15444Y19538D01*
X15425Y19579D01*
X15399Y19617D01*
X15367Y19649D01*
X15329Y19675D01*
X15288Y19694D01*
X15245Y19705D01*
X15200Y19709D01*
X15154Y19705D01*
X15111Y19694D01*
X15100Y19688D01*
Y21050D01*
G37*
G36*
X16844D02*X17050D01*
Y20759D01*
X17004Y20755D01*
X16961Y20744D01*
X16920Y20724D01*
X16897Y20709D01*
X16954Y20651D01*
X16960Y20655D01*
X16988Y20669D01*
X17018Y20677D01*
X17050Y20679D01*
Y20320D01*
X17018Y20322D01*
X16988Y20330D01*
X16960Y20344D01*
X16954Y20348D01*
X16897Y20291D01*
X16920Y20275D01*
X16961Y20256D01*
X17004Y20244D01*
X17050Y20240D01*
Y18000D01*
X16844D01*
Y20350D01*
X16898Y20404D01*
X16894Y20410D01*
X16880Y20438D01*
X16872Y20468D01*
X16870Y20500D01*
X16872Y20531D01*
X16880Y20561D01*
X16894Y20590D01*
X16898Y20595D01*
X16844Y20649D01*
Y21050D01*
G37*
G36*
X17050D02*X17255D01*
Y20649D01*
X17201Y20595D01*
X17205Y20590D01*
X17219Y20561D01*
X17227Y20531D01*
X17229Y20500D01*
X17227Y20468D01*
X17219Y20438D01*
X17205Y20410D01*
X17201Y20404D01*
X17255Y20350D01*
Y18000D01*
X17050D01*
Y20240D01*
X17095Y20244D01*
X17138Y20256D01*
X17179Y20275D01*
X17202Y20291D01*
X17145Y20348D01*
X17140Y20344D01*
X17111Y20330D01*
X17081Y20322D01*
X17050Y20320D01*
Y20679D01*
X17081Y20677D01*
X17111Y20669D01*
X17140Y20655D01*
X17145Y20651D01*
X17202Y20709D01*
X17179Y20724D01*
X17138Y20744D01*
X17095Y20755D01*
X17050Y20759D01*
Y21050D01*
G37*
G36*
X17255D02*X17439D01*
Y18728D01*
X17438Y18727D01*
X17431Y18725D01*
X17425Y18721D01*
X17420Y18717D01*
X17416Y18711D01*
X17412Y18705D01*
X17403Y18683D01*
X17397Y18659D01*
X17392Y18636D01*
X17390Y18612D01*
Y18588D01*
X17392Y18563D01*
X17397Y18540D01*
X17403Y18516D01*
X17412Y18494D01*
X17416Y18488D01*
X17420Y18482D01*
X17425Y18478D01*
X17431Y18474D01*
X17438Y18472D01*
X17439Y18471D01*
Y18000D01*
X17255D01*
Y20350D01*
X17259Y20347D01*
X17274Y20370D01*
X17294Y20411D01*
X17305Y20454D01*
X17309Y20500D01*
X17305Y20545D01*
X17294Y20588D01*
X17274Y20629D01*
X17259Y20652D01*
X17255Y20649D01*
Y21050D01*
G37*
G36*
X17439D02*X17650D01*
Y18859D01*
X17637D01*
X17613Y18857D01*
X17590Y18852D01*
X17566Y18846D01*
X17544Y18837D01*
X17538Y18833D01*
X17532Y18829D01*
X17528Y18824D01*
X17524Y18818D01*
X17522Y18811D01*
X17520Y18804D01*
X17520Y18797D01*
X17521Y18791D01*
X17524Y18784D01*
X17527Y18778D01*
X17531Y18773D01*
X17537Y18768D01*
X17543Y18764D01*
X17549Y18762D01*
X17556Y18761D01*
X17563Y18761D01*
X17570Y18762D01*
X17576Y18764D01*
X17592Y18770D01*
X17608Y18775D01*
X17624Y18778D01*
X17641Y18779D01*
X17650D01*
Y18420D01*
X17641D01*
X17624Y18421D01*
X17608Y18425D01*
X17592Y18429D01*
X17576Y18435D01*
X17570Y18438D01*
X17563Y18439D01*
X17556Y18439D01*
X17549Y18437D01*
X17543Y18435D01*
X17537Y18431D01*
X17531Y18427D01*
X17527Y18421D01*
X17524Y18415D01*
X17521Y18408D01*
X17520Y18402D01*
X17520Y18395D01*
X17522Y18388D01*
X17524Y18381D01*
X17528Y18375D01*
X17532Y18370D01*
X17538Y18366D01*
X17544Y18362D01*
X17566Y18354D01*
X17590Y18347D01*
X17613Y18342D01*
X17637Y18340D01*
X17650D01*
Y18000D01*
X17439D01*
Y18471D01*
X17445Y18470D01*
X17452Y18470D01*
X17458Y18471D01*
X17465Y18474D01*
X17471Y18477D01*
X17477Y18482D01*
X17481Y18487D01*
X17485Y18493D01*
X17487Y18499D01*
X17488Y18506D01*
X17489Y18513D01*
X17487Y18520D01*
X17485Y18526D01*
X17479Y18542D01*
X17474Y18558D01*
X17471Y18575D01*
X17470Y18591D01*
Y18608D01*
X17471Y18625D01*
X17474Y18641D01*
X17479Y18657D01*
X17485Y18673D01*
X17488Y18679D01*
X17489Y18686D01*
X17488Y18693D01*
X17487Y18700D01*
X17485Y18707D01*
X17481Y18713D01*
X17476Y18718D01*
X17471Y18722D01*
X17465Y18726D01*
X17458Y18728D01*
X17451Y18729D01*
X17445Y18729D01*
X17439Y18728D01*
Y21050D01*
G37*
G36*
X17650D02*X17860D01*
Y18728D01*
X17854Y18729D01*
X17847Y18729D01*
X17841Y18728D01*
X17834Y18725D01*
X17828Y18722D01*
X17822Y18718D01*
X17818Y18712D01*
X17814Y18706D01*
X17812Y18700D01*
X17811Y18693D01*
X17810Y18686D01*
X17812Y18679D01*
X17814Y18673D01*
X17820Y18657D01*
X17825Y18641D01*
X17828Y18625D01*
X17829Y18608D01*
Y18591D01*
X17828Y18575D01*
X17825Y18558D01*
X17820Y18542D01*
X17814Y18526D01*
X17811Y18520D01*
X17810Y18513D01*
X17811Y18506D01*
X17812Y18499D01*
X17814Y18493D01*
X17818Y18487D01*
X17823Y18481D01*
X17828Y18477D01*
X17834Y18474D01*
X17841Y18471D01*
X17848Y18470D01*
X17854Y18470D01*
X17860Y18471D01*
Y18000D01*
X17650D01*
Y18340D01*
X17662D01*
X17686Y18342D01*
X17709Y18347D01*
X17733Y18354D01*
X17755Y18362D01*
X17761Y18366D01*
X17767Y18370D01*
X17771Y18375D01*
X17775Y18381D01*
X17777Y18388D01*
X17779Y18395D01*
X17779Y18402D01*
X17778Y18409D01*
X17775Y18415D01*
X17772Y18421D01*
X17768Y18427D01*
X17762Y18431D01*
X17756Y18435D01*
X17750Y18437D01*
X17743Y18439D01*
X17736Y18439D01*
X17729Y18438D01*
X17723Y18435D01*
X17707Y18429D01*
X17691Y18425D01*
X17675Y18421D01*
X17658Y18420D01*
X17650D01*
Y18779D01*
X17658D01*
X17675Y18778D01*
X17691Y18775D01*
X17707Y18770D01*
X17723Y18764D01*
X17729Y18762D01*
X17736Y18761D01*
X17743Y18761D01*
X17750Y18762D01*
X17756Y18764D01*
X17762Y18768D01*
X17768Y18773D01*
X17772Y18778D01*
X17775Y18784D01*
X17778Y18791D01*
X17779Y18798D01*
X17779Y18805D01*
X17777Y18811D01*
X17775Y18818D01*
X17771Y18824D01*
X17767Y18829D01*
X17761Y18833D01*
X17755Y18837D01*
X17733Y18846D01*
X17709Y18852D01*
X17686Y18857D01*
X17662Y18859D01*
X17650D01*
Y21050D01*
G37*
G36*
X17860D02*X18000D01*
Y18000D01*
X17860D01*
Y18471D01*
X17861Y18472D01*
X17868Y18474D01*
X17874Y18478D01*
X17879Y18482D01*
X17883Y18488D01*
X17887Y18494D01*
X17896Y18516D01*
X17902Y18540D01*
X17907Y18563D01*
X17909Y18588D01*
Y18612D01*
X17907Y18636D01*
X17902Y18659D01*
X17896Y18683D01*
X17887Y18705D01*
X17883Y18711D01*
X17879Y18717D01*
X17874Y18721D01*
X17868Y18725D01*
X17861Y18727D01*
X17860Y18728D01*
Y21050D01*
G37*
G36*
X2800Y21400D02*X2350D01*
Y22600D01*
X2356Y22521D01*
X2377Y22446D01*
X2410Y22375D01*
X2455Y22310D01*
X2510Y22255D01*
X2575Y22210D01*
X2646Y22177D01*
X2721Y22156D01*
X2800Y22150D01*
Y21400D01*
G37*
G36*
Y23050D02*X2721Y23043D01*
X2646Y23022D01*
X2575Y22989D01*
X2510Y22944D01*
X2455Y22889D01*
X2410Y22825D01*
X2377Y22753D01*
X2356Y22678D01*
X2350Y22600D01*
Y23600D01*
X2356Y23521D01*
X2377Y23446D01*
X2410Y23375D01*
X2434Y23340D01*
X2541Y23447D01*
X2540Y23450D01*
X2518Y23497D01*
X2504Y23547D01*
X2500Y23600D01*
X2504Y23652D01*
X2518Y23702D01*
X2540Y23750D01*
X2541Y23752D01*
X2434Y23859D01*
X2410Y23825D01*
X2377Y23753D01*
X2356Y23678D01*
X2350Y23600D01*
Y24850D01*
X2800D01*
Y24050D01*
X2721Y24043D01*
X2646Y24022D01*
X2575Y23989D01*
X2540Y23965D01*
X2647Y23858D01*
X2650Y23859D01*
X2697Y23881D01*
X2747Y23895D01*
X2800Y23900D01*
Y23300D01*
X2747Y23304D01*
X2697Y23318D01*
X2650Y23340D01*
X2647Y23341D01*
X2540Y23234D01*
X2575Y23210D01*
X2646Y23177D01*
X2721Y23156D01*
X2800Y23150D01*
Y23050D01*
G37*
G36*
X3154Y21400D02*X2800D01*
Y22150D01*
X2878Y22156D01*
X2953Y22177D01*
X3025Y22210D01*
X3089Y22255D01*
X3144Y22310D01*
X3154Y22324D01*
Y21400D01*
G37*
G36*
Y22875D02*X3144Y22889D01*
X3089Y22944D01*
X3025Y22989D01*
X2953Y23022D01*
X2878Y23043D01*
X2800Y23050D01*
Y23150D01*
X2878Y23156D01*
X2953Y23177D01*
X3025Y23210D01*
X3059Y23234D01*
X2952Y23341D01*
X2950Y23340D01*
X2902Y23318D01*
X2852Y23304D01*
X2800Y23300D01*
Y23900D01*
X2852Y23895D01*
X2902Y23881D01*
X2950Y23859D01*
X2952Y23858D01*
X3059Y23965D01*
X3025Y23989D01*
X2953Y24022D01*
X2878Y24043D01*
X2800Y24050D01*
Y24850D01*
X3154D01*
Y23848D01*
X3058Y23752D01*
X3059Y23750D01*
X3081Y23702D01*
X3095Y23652D01*
X3100Y23600D01*
X3095Y23547D01*
X3081Y23497D01*
X3059Y23450D01*
X3058Y23447D01*
X3154Y23351D01*
Y22875D01*
G37*
G36*
X3445Y21400D02*X3154D01*
Y22324D01*
X3189Y22375D01*
X3222Y22446D01*
X3243Y22521D01*
X3250Y22600D01*
X3243Y22678D01*
X3222Y22753D01*
X3189Y22825D01*
X3154Y22875D01*
Y23351D01*
X3165Y23340D01*
X3189Y23375D01*
X3222Y23446D01*
X3243Y23521D01*
X3250Y23600D01*
X3243Y23678D01*
X3222Y23753D01*
X3189Y23825D01*
X3165Y23859D01*
X3154Y23848D01*
Y24850D01*
X3445D01*
Y23848D01*
X3434Y23859D01*
X3410Y23825D01*
X3377Y23753D01*
X3356Y23678D01*
X3350Y23600D01*
X3356Y23521D01*
X3377Y23446D01*
X3410Y23375D01*
X3434Y23340D01*
X3445Y23352D01*
Y22875D01*
X3410Y22825D01*
X3377Y22753D01*
X3356Y22678D01*
X3350Y22600D01*
X3356Y22521D01*
X3377Y22446D01*
X3410Y22375D01*
X3445Y22324D01*
Y21400D01*
G37*
G36*
X3800D02*X3445D01*
Y22324D01*
X3455Y22310D01*
X3510Y22255D01*
X3575Y22210D01*
X3646Y22177D01*
X3721Y22156D01*
X3800Y22150D01*
Y21400D01*
G37*
G36*
X3445Y24850D02*X3800D01*
Y24050D01*
X3721Y24043D01*
X3646Y24022D01*
X3575Y23989D01*
X3540Y23965D01*
X3647Y23858D01*
X3650Y23859D01*
X3697Y23881D01*
X3747Y23895D01*
X3800Y23900D01*
Y23300D01*
X3747Y23304D01*
X3697Y23318D01*
X3650Y23340D01*
X3647Y23341D01*
X3540Y23234D01*
X3575Y23210D01*
X3646Y23177D01*
X3721Y23156D01*
X3800Y23150D01*
Y23050D01*
X3721Y23043D01*
X3646Y23022D01*
X3575Y22989D01*
X3510Y22944D01*
X3455Y22889D01*
X3445Y22875D01*
Y23352D01*
X3541Y23447D01*
X3540Y23450D01*
X3518Y23497D01*
X3504Y23547D01*
X3500Y23600D01*
X3504Y23652D01*
X3518Y23702D01*
X3540Y23750D01*
X3541Y23752D01*
X3445Y23848D01*
Y24850D01*
G37*
G36*
X4154Y21400D02*X3800D01*
Y22150D01*
X3878Y22156D01*
X3953Y22177D01*
X4025Y22210D01*
X4089Y22255D01*
X4144Y22310D01*
X4154Y22324D01*
Y21400D01*
G37*
G36*
Y22875D02*X4144Y22889D01*
X4089Y22944D01*
X4025Y22989D01*
X3953Y23022D01*
X3878Y23043D01*
X3800Y23050D01*
Y23150D01*
X3878Y23156D01*
X3953Y23177D01*
X4025Y23210D01*
X4059Y23234D01*
X3952Y23341D01*
X3950Y23340D01*
X3902Y23318D01*
X3852Y23304D01*
X3800Y23300D01*
Y23900D01*
X3852Y23895D01*
X3902Y23881D01*
X3950Y23859D01*
X3952Y23858D01*
X4059Y23965D01*
X4025Y23989D01*
X3953Y24022D01*
X3878Y24043D01*
X3800Y24050D01*
Y24850D01*
X4154D01*
Y23848D01*
X4058Y23752D01*
X4059Y23750D01*
X4081Y23702D01*
X4095Y23652D01*
X4100Y23600D01*
X4095Y23547D01*
X4081Y23497D01*
X4059Y23450D01*
X4058Y23447D01*
X4154Y23351D01*
Y22875D01*
G37*
G36*
X4445Y21400D02*X4154D01*
Y22324D01*
X4189Y22375D01*
X4222Y22446D01*
X4243Y22521D01*
X4250Y22600D01*
X4243Y22678D01*
X4222Y22753D01*
X4189Y22825D01*
X4154Y22875D01*
Y23351D01*
X4165Y23340D01*
X4189Y23375D01*
X4222Y23446D01*
X4243Y23521D01*
X4250Y23600D01*
X4243Y23678D01*
X4222Y23753D01*
X4189Y23825D01*
X4165Y23859D01*
X4154Y23848D01*
Y24850D01*
X4445D01*
Y23848D01*
X4434Y23859D01*
X4410Y23825D01*
X4377Y23753D01*
X4356Y23678D01*
X4350Y23600D01*
X4356Y23521D01*
X4377Y23446D01*
X4410Y23375D01*
X4434Y23340D01*
X4445Y23352D01*
Y22875D01*
X4410Y22825D01*
X4377Y22753D01*
X4356Y22678D01*
X4350Y22600D01*
X4356Y22521D01*
X4377Y22446D01*
X4410Y22375D01*
X4445Y22324D01*
Y21400D01*
G37*
G36*
X4800D02*X4445D01*
Y22324D01*
X4455Y22310D01*
X4510Y22255D01*
X4575Y22210D01*
X4646Y22177D01*
X4721Y22156D01*
X4800Y22150D01*
Y21400D01*
G37*
G36*
X4445Y24850D02*X4800D01*
Y24050D01*
X4721Y24043D01*
X4646Y24022D01*
X4575Y23989D01*
X4540Y23965D01*
X4647Y23858D01*
X4650Y23859D01*
X4697Y23881D01*
X4747Y23895D01*
X4800Y23900D01*
Y23300D01*
X4747Y23304D01*
X4697Y23318D01*
X4650Y23340D01*
X4647Y23341D01*
X4540Y23234D01*
X4575Y23210D01*
X4646Y23177D01*
X4721Y23156D01*
X4800Y23150D01*
Y23050D01*
X4721Y23043D01*
X4646Y23022D01*
X4575Y22989D01*
X4510Y22944D01*
X4455Y22889D01*
X4445Y22875D01*
Y23352D01*
X4541Y23447D01*
X4540Y23450D01*
X4518Y23497D01*
X4504Y23547D01*
X4500Y23600D01*
X4504Y23652D01*
X4518Y23702D01*
X4540Y23750D01*
X4541Y23752D01*
X4445Y23848D01*
Y24850D01*
G37*
G36*
X5154Y21400D02*X4800D01*
Y22150D01*
X4878Y22156D01*
X4953Y22177D01*
X5025Y22210D01*
X5089Y22255D01*
X5144Y22310D01*
X5154Y22324D01*
Y21400D01*
G37*
G36*
Y22875D02*X5144Y22889D01*
X5089Y22944D01*
X5025Y22989D01*
X4953Y23022D01*
X4878Y23043D01*
X4800Y23050D01*
Y23150D01*
X4878Y23156D01*
X4953Y23177D01*
X5025Y23210D01*
X5059Y23234D01*
X4952Y23341D01*
X4950Y23340D01*
X4902Y23318D01*
X4852Y23304D01*
X4800Y23300D01*
Y23900D01*
X4852Y23895D01*
X4902Y23881D01*
X4950Y23859D01*
X4952Y23858D01*
X5059Y23965D01*
X5025Y23989D01*
X4953Y24022D01*
X4878Y24043D01*
X4800Y24050D01*
Y24850D01*
X5154D01*
Y23848D01*
X5058Y23752D01*
X5059Y23750D01*
X5081Y23702D01*
X5095Y23652D01*
X5100Y23600D01*
X5095Y23547D01*
X5081Y23497D01*
X5059Y23450D01*
X5058Y23447D01*
X5154Y23351D01*
Y22875D01*
G37*
G36*
X5445Y21400D02*X5154D01*
Y22324D01*
X5189Y22375D01*
X5222Y22446D01*
X5243Y22521D01*
X5250Y22600D01*
X5243Y22678D01*
X5222Y22753D01*
X5189Y22825D01*
X5154Y22875D01*
Y23351D01*
X5165Y23340D01*
X5189Y23375D01*
X5222Y23446D01*
X5243Y23521D01*
X5250Y23600D01*
X5243Y23678D01*
X5222Y23753D01*
X5189Y23825D01*
X5165Y23859D01*
X5154Y23848D01*
Y24850D01*
X5445D01*
Y23848D01*
X5434Y23859D01*
X5410Y23825D01*
X5377Y23753D01*
X5356Y23678D01*
X5350Y23600D01*
X5356Y23521D01*
X5377Y23446D01*
X5410Y23375D01*
X5434Y23340D01*
X5445Y23352D01*
Y22875D01*
X5410Y22825D01*
X5377Y22753D01*
X5356Y22678D01*
X5350Y22600D01*
X5356Y22521D01*
X5377Y22446D01*
X5410Y22375D01*
X5445Y22324D01*
Y21400D01*
G37*
G36*
X5800D02*X5445D01*
Y22324D01*
X5455Y22310D01*
X5510Y22255D01*
X5575Y22210D01*
X5646Y22177D01*
X5721Y22156D01*
X5800Y22150D01*
Y21400D01*
G37*
G36*
X5445Y24850D02*X5800D01*
Y24050D01*
X5721Y24043D01*
X5646Y24022D01*
X5575Y23989D01*
X5540Y23965D01*
X5647Y23858D01*
X5650Y23859D01*
X5697Y23881D01*
X5747Y23895D01*
X5800Y23900D01*
Y23300D01*
X5747Y23304D01*
X5697Y23318D01*
X5650Y23340D01*
X5647Y23341D01*
X5540Y23234D01*
X5575Y23210D01*
X5646Y23177D01*
X5721Y23156D01*
X5800Y23150D01*
Y23050D01*
X5721Y23043D01*
X5646Y23022D01*
X5575Y22989D01*
X5510Y22944D01*
X5455Y22889D01*
X5445Y22875D01*
Y23352D01*
X5541Y23447D01*
X5540Y23450D01*
X5518Y23497D01*
X5504Y23547D01*
X5500Y23600D01*
X5504Y23652D01*
X5518Y23702D01*
X5540Y23750D01*
X5541Y23752D01*
X5445Y23848D01*
Y24850D01*
G37*
G36*
X6154Y21400D02*X5800D01*
Y22150D01*
X5878Y22156D01*
X5953Y22177D01*
X6025Y22210D01*
X6089Y22255D01*
X6144Y22310D01*
X6154Y22324D01*
Y21400D01*
G37*
G36*
Y22875D02*X6144Y22889D01*
X6089Y22944D01*
X6025Y22989D01*
X5953Y23022D01*
X5878Y23043D01*
X5800Y23050D01*
Y23150D01*
X5878Y23156D01*
X5953Y23177D01*
X6025Y23210D01*
X6059Y23234D01*
X5952Y23341D01*
X5950Y23340D01*
X5902Y23318D01*
X5852Y23304D01*
X5800Y23300D01*
Y23900D01*
X5852Y23895D01*
X5902Y23881D01*
X5950Y23859D01*
X5952Y23858D01*
X6059Y23965D01*
X6025Y23989D01*
X5953Y24022D01*
X5878Y24043D01*
X5800Y24050D01*
Y24850D01*
X6154D01*
Y23848D01*
X6058Y23752D01*
X6059Y23750D01*
X6081Y23702D01*
X6095Y23652D01*
X6100Y23600D01*
X6095Y23547D01*
X6081Y23497D01*
X6059Y23450D01*
X6058Y23447D01*
X6154Y23351D01*
Y22875D01*
G37*
G36*
X6445Y21400D02*X6154D01*
Y22324D01*
X6189Y22375D01*
X6222Y22446D01*
X6243Y22521D01*
X6250Y22600D01*
X6243Y22678D01*
X6222Y22753D01*
X6189Y22825D01*
X6154Y22875D01*
Y23351D01*
X6165Y23340D01*
X6189Y23375D01*
X6222Y23446D01*
X6243Y23521D01*
X6250Y23600D01*
X6243Y23678D01*
X6222Y23753D01*
X6189Y23825D01*
X6165Y23859D01*
X6154Y23848D01*
Y24850D01*
X6445D01*
Y23848D01*
X6434Y23859D01*
X6410Y23825D01*
X6377Y23753D01*
X6356Y23678D01*
X6350Y23600D01*
X6356Y23521D01*
X6377Y23446D01*
X6410Y23375D01*
X6434Y23340D01*
X6445Y23352D01*
Y22875D01*
X6410Y22825D01*
X6377Y22753D01*
X6356Y22678D01*
X6350Y22600D01*
X6356Y22521D01*
X6377Y22446D01*
X6410Y22375D01*
X6445Y22324D01*
Y21400D01*
G37*
G36*
X6800D02*X6445D01*
Y22324D01*
X6455Y22310D01*
X6510Y22255D01*
X6575Y22210D01*
X6646Y22177D01*
X6721Y22156D01*
X6800Y22150D01*
Y21400D01*
G37*
G36*
X6445Y24850D02*X6800D01*
Y24050D01*
X6721Y24043D01*
X6646Y24022D01*
X6575Y23989D01*
X6540Y23965D01*
X6647Y23858D01*
X6650Y23859D01*
X6697Y23881D01*
X6747Y23895D01*
X6800Y23900D01*
Y23300D01*
X6747Y23304D01*
X6697Y23318D01*
X6650Y23340D01*
X6647Y23341D01*
X6540Y23234D01*
X6575Y23210D01*
X6646Y23177D01*
X6721Y23156D01*
X6800Y23150D01*
Y23050D01*
X6721Y23043D01*
X6646Y23022D01*
X6575Y22989D01*
X6510Y22944D01*
X6455Y22889D01*
X6445Y22875D01*
Y23352D01*
X6541Y23447D01*
X6540Y23450D01*
X6518Y23497D01*
X6504Y23547D01*
X6500Y23600D01*
X6504Y23652D01*
X6518Y23702D01*
X6540Y23750D01*
X6541Y23752D01*
X6445Y23848D01*
Y24850D01*
G37*
G36*
X7154Y21400D02*X6800D01*
Y22150D01*
X6878Y22156D01*
X6953Y22177D01*
X7025Y22210D01*
X7089Y22255D01*
X7144Y22310D01*
X7154Y22324D01*
Y21400D01*
G37*
G36*
Y22875D02*X7144Y22889D01*
X7089Y22944D01*
X7025Y22989D01*
X6953Y23022D01*
X6878Y23043D01*
X6800Y23050D01*
Y23150D01*
X6878Y23156D01*
X6953Y23177D01*
X7025Y23210D01*
X7059Y23234D01*
X6952Y23341D01*
X6950Y23340D01*
X6902Y23318D01*
X6852Y23304D01*
X6800Y23300D01*
Y23900D01*
X6852Y23895D01*
X6902Y23881D01*
X6950Y23859D01*
X6952Y23858D01*
X7059Y23965D01*
X7025Y23989D01*
X6953Y24022D01*
X6878Y24043D01*
X6800Y24050D01*
Y24850D01*
X7154D01*
Y23848D01*
X7058Y23752D01*
X7059Y23750D01*
X7081Y23702D01*
X7095Y23652D01*
X7100Y23600D01*
X7095Y23547D01*
X7081Y23497D01*
X7059Y23450D01*
X7058Y23447D01*
X7154Y23351D01*
Y22875D01*
G37*
G36*
X7445Y21400D02*X7154D01*
Y22324D01*
X7189Y22375D01*
X7222Y22446D01*
X7243Y22521D01*
X7250Y22600D01*
X7243Y22678D01*
X7222Y22753D01*
X7189Y22825D01*
X7154Y22875D01*
Y23351D01*
X7165Y23340D01*
X7189Y23375D01*
X7222Y23446D01*
X7243Y23521D01*
X7250Y23600D01*
X7243Y23678D01*
X7222Y23753D01*
X7189Y23825D01*
X7165Y23859D01*
X7154Y23848D01*
Y24850D01*
X7445D01*
Y23848D01*
X7434Y23859D01*
X7410Y23825D01*
X7377Y23753D01*
X7356Y23678D01*
X7350Y23600D01*
X7356Y23521D01*
X7377Y23446D01*
X7410Y23375D01*
X7434Y23340D01*
X7445Y23352D01*
Y22875D01*
X7410Y22825D01*
X7377Y22753D01*
X7356Y22678D01*
X7350Y22600D01*
X7356Y22521D01*
X7377Y22446D01*
X7410Y22375D01*
X7445Y22324D01*
Y21400D01*
G37*
G36*
X7800D02*X7445D01*
Y22324D01*
X7455Y22310D01*
X7510Y22255D01*
X7575Y22210D01*
X7646Y22177D01*
X7721Y22156D01*
X7800Y22150D01*
Y21400D01*
G37*
G36*
X7445Y24850D02*X7800D01*
Y24050D01*
X7721Y24043D01*
X7646Y24022D01*
X7575Y23989D01*
X7540Y23965D01*
X7647Y23858D01*
X7650Y23859D01*
X7697Y23881D01*
X7747Y23895D01*
X7800Y23900D01*
Y23300D01*
X7747Y23304D01*
X7697Y23318D01*
X7650Y23340D01*
X7647Y23341D01*
X7540Y23234D01*
X7575Y23210D01*
X7646Y23177D01*
X7721Y23156D01*
X7800Y23150D01*
Y23050D01*
X7721Y23043D01*
X7646Y23022D01*
X7575Y22989D01*
X7510Y22944D01*
X7455Y22889D01*
X7445Y22875D01*
Y23352D01*
X7541Y23447D01*
X7540Y23450D01*
X7518Y23497D01*
X7504Y23547D01*
X7500Y23600D01*
X7504Y23652D01*
X7518Y23702D01*
X7540Y23750D01*
X7541Y23752D01*
X7445Y23848D01*
Y24850D01*
G37*
G36*
X8154Y21400D02*X7800D01*
Y22150D01*
X7878Y22156D01*
X7953Y22177D01*
X8025Y22210D01*
X8089Y22255D01*
X8144Y22310D01*
X8154Y22324D01*
Y21400D01*
G37*
G36*
Y22875D02*X8144Y22889D01*
X8089Y22944D01*
X8025Y22989D01*
X7953Y23022D01*
X7878Y23043D01*
X7800Y23050D01*
Y23150D01*
X7878Y23156D01*
X7953Y23177D01*
X8025Y23210D01*
X8059Y23234D01*
X7952Y23341D01*
X7950Y23340D01*
X7902Y23318D01*
X7852Y23304D01*
X7800Y23300D01*
Y23900D01*
X7852Y23895D01*
X7902Y23881D01*
X7950Y23859D01*
X7952Y23858D01*
X8059Y23965D01*
X8025Y23989D01*
X7953Y24022D01*
X7878Y24043D01*
X7800Y24050D01*
Y24850D01*
X8154D01*
Y23848D01*
X8058Y23752D01*
X8059Y23750D01*
X8081Y23702D01*
X8095Y23652D01*
X8100Y23600D01*
X8095Y23547D01*
X8081Y23497D01*
X8059Y23450D01*
X8058Y23447D01*
X8154Y23351D01*
Y22875D01*
G37*
G36*
X10095Y21400D02*X8154D01*
Y22324D01*
X8189Y22375D01*
X8222Y22446D01*
X8243Y22521D01*
X8250Y22600D01*
X8243Y22678D01*
X8222Y22753D01*
X8189Y22825D01*
X8154Y22875D01*
Y23351D01*
X8165Y23340D01*
X8189Y23375D01*
X8222Y23446D01*
X8243Y23521D01*
X8250Y23600D01*
X8243Y23678D01*
X8222Y23753D01*
X8189Y23825D01*
X8165Y23859D01*
X8154Y23848D01*
Y24850D01*
X10095D01*
Y23848D01*
X10084Y23859D01*
X10060Y23825D01*
X10027Y23753D01*
X10006Y23678D01*
X10000Y23600D01*
X10006Y23521D01*
X10027Y23446D01*
X10060Y23375D01*
X10084Y23340D01*
X10095Y23352D01*
Y23039D01*
X10075Y23029D01*
X10053Y23014D01*
X10035Y22996D01*
X10020Y22975D01*
X10009Y22951D01*
X10002Y22926D01*
X10000Y22900D01*
X10002Y22274D01*
X10009Y22248D01*
X10020Y22225D01*
X10035Y22203D01*
X10053Y22185D01*
X10075Y22170D01*
X10095Y22160D01*
Y21400D01*
G37*
G36*
X10450D02*X10095D01*
Y22160D01*
X10098Y22159D01*
X10124Y22152D01*
X10150Y22150D01*
X10450Y22151D01*
Y21400D01*
G37*
G36*
X10095Y24850D02*X10450D01*
Y24050D01*
X10371Y24043D01*
X10296Y24022D01*
X10225Y23989D01*
X10190Y23965D01*
X10297Y23858D01*
X10300Y23859D01*
X10347Y23881D01*
X10397Y23895D01*
X10450Y23900D01*
Y23300D01*
X10397Y23304D01*
X10347Y23318D01*
X10300Y23340D01*
X10297Y23341D01*
X10190Y23234D01*
X10225Y23210D01*
X10296Y23177D01*
X10371Y23156D01*
X10450Y23150D01*
Y23048D01*
X10124Y23047D01*
X10098Y23041D01*
X10095Y23039D01*
Y23352D01*
X10191Y23447D01*
X10190Y23450D01*
X10168Y23497D01*
X10154Y23547D01*
X10150Y23600D01*
X10154Y23652D01*
X10168Y23702D01*
X10190Y23750D01*
X10191Y23752D01*
X10095Y23848D01*
Y24850D01*
G37*
G36*
X10804Y21400D02*X10450D01*
Y22151D01*
X10776Y22152D01*
X10801Y22159D01*
X10804Y22160D01*
Y21400D01*
G37*
G36*
Y23039D02*X10801Y23041D01*
X10776Y23047D01*
X10750Y23050D01*
X10450Y23048D01*
Y23150D01*
X10528Y23156D01*
X10603Y23177D01*
X10675Y23210D01*
X10709Y23234D01*
X10602Y23341D01*
X10600Y23340D01*
X10552Y23318D01*
X10502Y23304D01*
X10450Y23300D01*
Y23900D01*
X10502Y23895D01*
X10552Y23881D01*
X10600Y23859D01*
X10602Y23858D01*
X10709Y23965D01*
X10675Y23989D01*
X10603Y24022D01*
X10528Y24043D01*
X10450Y24050D01*
Y24850D01*
X10804D01*
Y23848D01*
X10708Y23752D01*
X10709Y23750D01*
X10731Y23702D01*
X10745Y23652D01*
X10750Y23600D01*
X10745Y23547D01*
X10731Y23497D01*
X10709Y23450D01*
X10708Y23447D01*
X10804Y23351D01*
Y23039D01*
G37*
G36*
X11095Y21400D02*X10804D01*
Y22160D01*
X10825Y22170D01*
X10846Y22185D01*
X10864Y22203D01*
X10879Y22225D01*
X10891Y22248D01*
X10897Y22274D01*
X10900Y22300D01*
X10897Y22926D01*
X10891Y22951D01*
X10879Y22975D01*
X10864Y22996D01*
X10846Y23014D01*
X10825Y23029D01*
X10804Y23039D01*
Y23351D01*
X10815Y23340D01*
X10839Y23375D01*
X10872Y23446D01*
X10893Y23521D01*
X10900Y23600D01*
X10893Y23678D01*
X10872Y23753D01*
X10839Y23825D01*
X10815Y23859D01*
X10804Y23848D01*
Y24850D01*
X11095D01*
Y23848D01*
X11084Y23859D01*
X11060Y23825D01*
X11027Y23753D01*
X11006Y23678D01*
X11000Y23600D01*
X11006Y23521D01*
X11027Y23446D01*
X11060Y23375D01*
X11084Y23340D01*
X11095Y23352D01*
Y22875D01*
X11060Y22825D01*
X11027Y22753D01*
X11006Y22678D01*
X11000Y22600D01*
X11006Y22521D01*
X11027Y22446D01*
X11060Y22375D01*
X11095Y22324D01*
Y21400D01*
G37*
G36*
X11450D02*X11095D01*
Y22324D01*
X11105Y22310D01*
X11160Y22255D01*
X11225Y22210D01*
X11296Y22177D01*
X11371Y22156D01*
X11450Y22150D01*
Y21400D01*
G37*
G36*
X11095Y24850D02*X11450D01*
Y24050D01*
X11371Y24043D01*
X11296Y24022D01*
X11225Y23989D01*
X11190Y23965D01*
X11297Y23858D01*
X11300Y23859D01*
X11347Y23881D01*
X11397Y23895D01*
X11450Y23900D01*
Y23300D01*
X11397Y23304D01*
X11347Y23318D01*
X11300Y23340D01*
X11297Y23341D01*
X11190Y23234D01*
X11225Y23210D01*
X11296Y23177D01*
X11371Y23156D01*
X11450Y23150D01*
Y23050D01*
X11371Y23043D01*
X11296Y23022D01*
X11225Y22989D01*
X11160Y22944D01*
X11105Y22889D01*
X11095Y22875D01*
Y23352D01*
X11191Y23447D01*
X11190Y23450D01*
X11168Y23497D01*
X11154Y23547D01*
X11150Y23600D01*
X11154Y23652D01*
X11168Y23702D01*
X11190Y23750D01*
X11191Y23752D01*
X11095Y23848D01*
Y24850D01*
G37*
G36*
X11804Y21400D02*X11450D01*
Y22150D01*
X11528Y22156D01*
X11603Y22177D01*
X11675Y22210D01*
X11739Y22255D01*
X11794Y22310D01*
X11804Y22324D01*
Y21400D01*
G37*
G36*
Y22875D02*X11794Y22889D01*
X11739Y22944D01*
X11675Y22989D01*
X11603Y23022D01*
X11528Y23043D01*
X11450Y23050D01*
Y23150D01*
X11528Y23156D01*
X11603Y23177D01*
X11675Y23210D01*
X11709Y23234D01*
X11602Y23341D01*
X11600Y23340D01*
X11552Y23318D01*
X11502Y23304D01*
X11450Y23300D01*
Y23900D01*
X11502Y23895D01*
X11552Y23881D01*
X11600Y23859D01*
X11602Y23858D01*
X11709Y23965D01*
X11675Y23989D01*
X11603Y24022D01*
X11528Y24043D01*
X11450Y24050D01*
Y24850D01*
X11804D01*
Y23848D01*
X11708Y23752D01*
X11709Y23750D01*
X11731Y23702D01*
X11745Y23652D01*
X11750Y23600D01*
X11745Y23547D01*
X11731Y23497D01*
X11709Y23450D01*
X11708Y23447D01*
X11804Y23351D01*
Y22875D01*
G37*
G36*
X12095Y21400D02*X11804D01*
Y22324D01*
X11839Y22375D01*
X11872Y22446D01*
X11893Y22521D01*
X11900Y22600D01*
X11893Y22678D01*
X11872Y22753D01*
X11839Y22825D01*
X11804Y22875D01*
Y23351D01*
X11815Y23340D01*
X11839Y23375D01*
X11872Y23446D01*
X11893Y23521D01*
X11900Y23600D01*
X11893Y23678D01*
X11872Y23753D01*
X11839Y23825D01*
X11815Y23859D01*
X11804Y23848D01*
Y24850D01*
X12095D01*
Y23848D01*
X12084Y23859D01*
X12060Y23825D01*
X12027Y23753D01*
X12006Y23678D01*
X12000Y23600D01*
X12006Y23521D01*
X12027Y23446D01*
X12060Y23375D01*
X12084Y23340D01*
X12095Y23352D01*
Y22875D01*
X12060Y22825D01*
X12027Y22753D01*
X12006Y22678D01*
X12000Y22600D01*
X12006Y22521D01*
X12027Y22446D01*
X12060Y22375D01*
X12095Y22324D01*
Y21400D01*
G37*
G36*
X12450D02*X12095D01*
Y22324D01*
X12105Y22310D01*
X12160Y22255D01*
X12225Y22210D01*
X12296Y22177D01*
X12371Y22156D01*
X12450Y22150D01*
Y21400D01*
G37*
G36*
X12095Y24850D02*X12450D01*
Y24050D01*
X12371Y24043D01*
X12296Y24022D01*
X12225Y23989D01*
X12190Y23965D01*
X12297Y23858D01*
X12300Y23859D01*
X12347Y23881D01*
X12397Y23895D01*
X12450Y23900D01*
Y23300D01*
X12397Y23304D01*
X12347Y23318D01*
X12300Y23340D01*
X12297Y23341D01*
X12190Y23234D01*
X12225Y23210D01*
X12296Y23177D01*
X12371Y23156D01*
X12450Y23150D01*
Y23050D01*
X12371Y23043D01*
X12296Y23022D01*
X12225Y22989D01*
X12160Y22944D01*
X12105Y22889D01*
X12095Y22875D01*
Y23352D01*
X12191Y23447D01*
X12190Y23450D01*
X12168Y23497D01*
X12154Y23547D01*
X12150Y23600D01*
X12154Y23652D01*
X12168Y23702D01*
X12190Y23750D01*
X12191Y23752D01*
X12095Y23848D01*
Y24850D01*
G37*
G36*
X12804Y21400D02*X12450D01*
Y22150D01*
X12528Y22156D01*
X12603Y22177D01*
X12675Y22210D01*
X12739Y22255D01*
X12794Y22310D01*
X12804Y22324D01*
Y21400D01*
G37*
G36*
Y22875D02*X12794Y22889D01*
X12739Y22944D01*
X12675Y22989D01*
X12603Y23022D01*
X12528Y23043D01*
X12450Y23050D01*
Y23150D01*
X12528Y23156D01*
X12603Y23177D01*
X12675Y23210D01*
X12709Y23234D01*
X12602Y23341D01*
X12600Y23340D01*
X12552Y23318D01*
X12502Y23304D01*
X12450Y23300D01*
Y23900D01*
X12502Y23895D01*
X12552Y23881D01*
X12600Y23859D01*
X12602Y23858D01*
X12709Y23965D01*
X12675Y23989D01*
X12603Y24022D01*
X12528Y24043D01*
X12450Y24050D01*
Y24850D01*
X12804D01*
Y23848D01*
X12708Y23752D01*
X12709Y23750D01*
X12731Y23702D01*
X12745Y23652D01*
X12750Y23600D01*
X12745Y23547D01*
X12731Y23497D01*
X12709Y23450D01*
X12708Y23447D01*
X12804Y23351D01*
Y22875D01*
G37*
G36*
X13095Y21400D02*X12804D01*
Y22324D01*
X12839Y22375D01*
X12872Y22446D01*
X12893Y22521D01*
X12900Y22600D01*
X12893Y22678D01*
X12872Y22753D01*
X12839Y22825D01*
X12804Y22875D01*
Y23351D01*
X12815Y23340D01*
X12839Y23375D01*
X12872Y23446D01*
X12893Y23521D01*
X12900Y23600D01*
X12893Y23678D01*
X12872Y23753D01*
X12839Y23825D01*
X12815Y23859D01*
X12804Y23848D01*
Y24850D01*
X13095D01*
Y23848D01*
X13084Y23859D01*
X13060Y23825D01*
X13027Y23753D01*
X13006Y23678D01*
X13000Y23600D01*
X13006Y23521D01*
X13027Y23446D01*
X13060Y23375D01*
X13084Y23340D01*
X13095Y23352D01*
Y22875D01*
X13060Y22825D01*
X13027Y22753D01*
X13006Y22678D01*
X13000Y22600D01*
X13006Y22521D01*
X13027Y22446D01*
X13060Y22375D01*
X13095Y22324D01*
Y21400D01*
G37*
G36*
X13450D02*X13095D01*
Y22324D01*
X13105Y22310D01*
X13160Y22255D01*
X13225Y22210D01*
X13296Y22177D01*
X13371Y22156D01*
X13450Y22150D01*
Y21400D01*
G37*
G36*
X13095Y24850D02*X13450D01*
Y24050D01*
X13371Y24043D01*
X13296Y24022D01*
X13225Y23989D01*
X13190Y23965D01*
X13297Y23858D01*
X13300Y23859D01*
X13347Y23881D01*
X13397Y23895D01*
X13450Y23900D01*
Y23300D01*
X13397Y23304D01*
X13347Y23318D01*
X13300Y23340D01*
X13297Y23341D01*
X13190Y23234D01*
X13225Y23210D01*
X13296Y23177D01*
X13371Y23156D01*
X13450Y23150D01*
Y23050D01*
X13371Y23043D01*
X13296Y23022D01*
X13225Y22989D01*
X13160Y22944D01*
X13105Y22889D01*
X13095Y22875D01*
Y23352D01*
X13191Y23447D01*
X13190Y23450D01*
X13168Y23497D01*
X13154Y23547D01*
X13150Y23600D01*
X13154Y23652D01*
X13168Y23702D01*
X13190Y23750D01*
X13191Y23752D01*
X13095Y23848D01*
Y24850D01*
G37*
G36*
X13804Y21400D02*X13450D01*
Y22150D01*
X13528Y22156D01*
X13603Y22177D01*
X13675Y22210D01*
X13739Y22255D01*
X13794Y22310D01*
X13804Y22324D01*
Y21400D01*
G37*
G36*
Y22875D02*X13794Y22889D01*
X13739Y22944D01*
X13675Y22989D01*
X13603Y23022D01*
X13528Y23043D01*
X13450Y23050D01*
Y23150D01*
X13528Y23156D01*
X13603Y23177D01*
X13675Y23210D01*
X13709Y23234D01*
X13602Y23341D01*
X13600Y23340D01*
X13552Y23318D01*
X13502Y23304D01*
X13450Y23300D01*
Y23900D01*
X13502Y23895D01*
X13552Y23881D01*
X13600Y23859D01*
X13602Y23858D01*
X13709Y23965D01*
X13675Y23989D01*
X13603Y24022D01*
X13528Y24043D01*
X13450Y24050D01*
Y24850D01*
X13804D01*
Y23848D01*
X13708Y23752D01*
X13709Y23750D01*
X13731Y23702D01*
X13745Y23652D01*
X13750Y23600D01*
X13745Y23547D01*
X13731Y23497D01*
X13709Y23450D01*
X13708Y23447D01*
X13804Y23351D01*
Y22875D01*
G37*
G36*
X14095Y21400D02*X13804D01*
Y22324D01*
X13839Y22375D01*
X13872Y22446D01*
X13893Y22521D01*
X13900Y22600D01*
X13893Y22678D01*
X13872Y22753D01*
X13839Y22825D01*
X13804Y22875D01*
Y23351D01*
X13815Y23340D01*
X13839Y23375D01*
X13872Y23446D01*
X13893Y23521D01*
X13900Y23600D01*
X13893Y23678D01*
X13872Y23753D01*
X13839Y23825D01*
X13815Y23859D01*
X13804Y23848D01*
Y24850D01*
X14095D01*
Y23848D01*
X14084Y23859D01*
X14060Y23825D01*
X14027Y23753D01*
X14006Y23678D01*
X14000Y23600D01*
X14006Y23521D01*
X14027Y23446D01*
X14060Y23375D01*
X14084Y23340D01*
X14095Y23352D01*
Y22875D01*
X14060Y22825D01*
X14027Y22753D01*
X14006Y22678D01*
X14000Y22600D01*
X14006Y22521D01*
X14027Y22446D01*
X14060Y22375D01*
X14095Y22324D01*
Y21400D01*
G37*
G36*
X14450D02*X14095D01*
Y22324D01*
X14105Y22310D01*
X14160Y22255D01*
X14225Y22210D01*
X14296Y22177D01*
X14371Y22156D01*
X14450Y22150D01*
Y21400D01*
G37*
G36*
X14095Y24850D02*X14450D01*
Y24050D01*
X14371Y24043D01*
X14296Y24022D01*
X14225Y23989D01*
X14190Y23965D01*
X14297Y23858D01*
X14300Y23859D01*
X14347Y23881D01*
X14397Y23895D01*
X14450Y23900D01*
Y23300D01*
X14397Y23304D01*
X14347Y23318D01*
X14300Y23340D01*
X14297Y23341D01*
X14190Y23234D01*
X14225Y23210D01*
X14296Y23177D01*
X14371Y23156D01*
X14450Y23150D01*
Y23050D01*
X14371Y23043D01*
X14296Y23022D01*
X14225Y22989D01*
X14160Y22944D01*
X14105Y22889D01*
X14095Y22875D01*
Y23352D01*
X14191Y23447D01*
X14190Y23450D01*
X14168Y23497D01*
X14154Y23547D01*
X14150Y23600D01*
X14154Y23652D01*
X14168Y23702D01*
X14190Y23750D01*
X14191Y23752D01*
X14095Y23848D01*
Y24850D01*
G37*
G36*
X14804Y21400D02*X14450D01*
Y22150D01*
X14528Y22156D01*
X14603Y22177D01*
X14675Y22210D01*
X14739Y22255D01*
X14794Y22310D01*
X14804Y22324D01*
Y21400D01*
G37*
G36*
Y22875D02*X14794Y22889D01*
X14739Y22944D01*
X14675Y22989D01*
X14603Y23022D01*
X14528Y23043D01*
X14450Y23050D01*
Y23150D01*
X14528Y23156D01*
X14603Y23177D01*
X14675Y23210D01*
X14709Y23234D01*
X14602Y23341D01*
X14600Y23340D01*
X14552Y23318D01*
X14502Y23304D01*
X14450Y23300D01*
Y23900D01*
X14502Y23895D01*
X14552Y23881D01*
X14600Y23859D01*
X14602Y23858D01*
X14709Y23965D01*
X14675Y23989D01*
X14603Y24022D01*
X14528Y24043D01*
X14450Y24050D01*
Y24850D01*
X14804D01*
Y23848D01*
X14708Y23752D01*
X14709Y23750D01*
X14731Y23702D01*
X14745Y23652D01*
X14750Y23600D01*
X14745Y23547D01*
X14731Y23497D01*
X14709Y23450D01*
X14708Y23447D01*
X14804Y23351D01*
Y22875D01*
G37*
G36*
X15095Y21400D02*X14804D01*
Y22324D01*
X14839Y22375D01*
X14872Y22446D01*
X14893Y22521D01*
X14900Y22600D01*
X14893Y22678D01*
X14872Y22753D01*
X14839Y22825D01*
X14804Y22875D01*
Y23351D01*
X14815Y23340D01*
X14839Y23375D01*
X14872Y23446D01*
X14893Y23521D01*
X14900Y23600D01*
X14893Y23678D01*
X14872Y23753D01*
X14839Y23825D01*
X14815Y23859D01*
X14804Y23848D01*
Y24850D01*
X15095D01*
Y23848D01*
X15084Y23859D01*
X15060Y23825D01*
X15027Y23753D01*
X15006Y23678D01*
X15000Y23600D01*
X15006Y23521D01*
X15027Y23446D01*
X15060Y23375D01*
X15084Y23340D01*
X15095Y23352D01*
Y22875D01*
X15060Y22825D01*
X15027Y22753D01*
X15006Y22678D01*
X15000Y22600D01*
X15006Y22521D01*
X15027Y22446D01*
X15060Y22375D01*
X15095Y22324D01*
Y21400D01*
G37*
G36*
X15450D02*X15095D01*
Y22324D01*
X15105Y22310D01*
X15160Y22255D01*
X15225Y22210D01*
X15296Y22177D01*
X15371Y22156D01*
X15450Y22150D01*
Y21400D01*
G37*
G36*
X15095Y24850D02*X15450D01*
Y24050D01*
X15371Y24043D01*
X15296Y24022D01*
X15225Y23989D01*
X15190Y23965D01*
X15297Y23858D01*
X15300Y23859D01*
X15347Y23881D01*
X15397Y23895D01*
X15450Y23900D01*
Y23300D01*
X15397Y23304D01*
X15347Y23318D01*
X15300Y23340D01*
X15297Y23341D01*
X15190Y23234D01*
X15225Y23210D01*
X15296Y23177D01*
X15371Y23156D01*
X15450Y23150D01*
Y23050D01*
X15371Y23043D01*
X15296Y23022D01*
X15225Y22989D01*
X15160Y22944D01*
X15105Y22889D01*
X15095Y22875D01*
Y23352D01*
X15191Y23447D01*
X15190Y23450D01*
X15168Y23497D01*
X15154Y23547D01*
X15150Y23600D01*
X15154Y23652D01*
X15168Y23702D01*
X15190Y23750D01*
X15191Y23752D01*
X15095Y23848D01*
Y24850D01*
G37*
G36*
X15804Y21400D02*X15450D01*
Y22150D01*
X15528Y22156D01*
X15603Y22177D01*
X15675Y22210D01*
X15739Y22255D01*
X15794Y22310D01*
X15804Y22324D01*
Y21400D01*
G37*
G36*
Y22875D02*X15794Y22889D01*
X15739Y22944D01*
X15675Y22989D01*
X15603Y23022D01*
X15528Y23043D01*
X15450Y23050D01*
Y23150D01*
X15528Y23156D01*
X15603Y23177D01*
X15675Y23210D01*
X15709Y23234D01*
X15602Y23341D01*
X15600Y23340D01*
X15552Y23318D01*
X15502Y23304D01*
X15450Y23300D01*
Y23900D01*
X15502Y23895D01*
X15552Y23881D01*
X15600Y23859D01*
X15602Y23858D01*
X15709Y23965D01*
X15675Y23989D01*
X15603Y24022D01*
X15528Y24043D01*
X15450Y24050D01*
Y24850D01*
X15804D01*
Y23848D01*
X15708Y23752D01*
X15709Y23750D01*
X15731Y23702D01*
X15745Y23652D01*
X15750Y23600D01*
X15745Y23547D01*
X15731Y23497D01*
X15709Y23450D01*
X15708Y23447D01*
X15804Y23351D01*
Y22875D01*
G37*
G36*
X16095Y21400D02*X15804D01*
Y22324D01*
X15839Y22375D01*
X15872Y22446D01*
X15893Y22521D01*
X15900Y22600D01*
X15893Y22678D01*
X15872Y22753D01*
X15839Y22825D01*
X15804Y22875D01*
Y23351D01*
X15815Y23340D01*
X15839Y23375D01*
X15872Y23446D01*
X15893Y23521D01*
X15900Y23600D01*
X15893Y23678D01*
X15872Y23753D01*
X15839Y23825D01*
X15815Y23859D01*
X15804Y23848D01*
Y24850D01*
X16095D01*
Y23848D01*
X16084Y23859D01*
X16060Y23825D01*
X16027Y23753D01*
X16006Y23678D01*
X16000Y23600D01*
X16006Y23521D01*
X16027Y23446D01*
X16060Y23375D01*
X16084Y23340D01*
X16095Y23352D01*
Y22875D01*
X16060Y22825D01*
X16027Y22753D01*
X16006Y22678D01*
X16000Y22600D01*
X16006Y22521D01*
X16027Y22446D01*
X16060Y22375D01*
X16095Y22324D01*
Y21400D01*
G37*
G36*
X16450D02*X16095D01*
Y22324D01*
X16105Y22310D01*
X16160Y22255D01*
X16225Y22210D01*
X16296Y22177D01*
X16371Y22156D01*
X16450Y22150D01*
Y21400D01*
G37*
G36*
X16095Y24850D02*X16450D01*
Y24050D01*
X16371Y24043D01*
X16296Y24022D01*
X16225Y23989D01*
X16190Y23965D01*
X16297Y23858D01*
X16300Y23859D01*
X16347Y23881D01*
X16397Y23895D01*
X16450Y23900D01*
Y23300D01*
X16397Y23304D01*
X16347Y23318D01*
X16300Y23340D01*
X16297Y23341D01*
X16190Y23234D01*
X16225Y23210D01*
X16296Y23177D01*
X16371Y23156D01*
X16450Y23150D01*
Y23050D01*
X16371Y23043D01*
X16296Y23022D01*
X16225Y22989D01*
X16160Y22944D01*
X16105Y22889D01*
X16095Y22875D01*
Y23352D01*
X16191Y23447D01*
X16190Y23450D01*
X16168Y23497D01*
X16154Y23547D01*
X16150Y23600D01*
X16154Y23652D01*
X16168Y23702D01*
X16190Y23750D01*
X16191Y23752D01*
X16095Y23848D01*
Y24850D01*
G37*
G36*
X16804Y21400D02*X16450D01*
Y22150D01*
X16528Y22156D01*
X16603Y22177D01*
X16675Y22210D01*
X16739Y22255D01*
X16794Y22310D01*
X16804Y22324D01*
Y21400D01*
G37*
G36*
Y22875D02*X16794Y22889D01*
X16739Y22944D01*
X16675Y22989D01*
X16603Y23022D01*
X16528Y23043D01*
X16450Y23050D01*
Y23150D01*
X16528Y23156D01*
X16603Y23177D01*
X16675Y23210D01*
X16709Y23234D01*
X16602Y23341D01*
X16600Y23340D01*
X16552Y23318D01*
X16502Y23304D01*
X16450Y23300D01*
Y23900D01*
X16502Y23895D01*
X16552Y23881D01*
X16600Y23859D01*
X16602Y23858D01*
X16709Y23965D01*
X16675Y23989D01*
X16603Y24022D01*
X16528Y24043D01*
X16450Y24050D01*
Y24850D01*
X16804D01*
Y23848D01*
X16708Y23752D01*
X16709Y23750D01*
X16731Y23702D01*
X16745Y23652D01*
X16750Y23600D01*
X16745Y23547D01*
X16731Y23497D01*
X16709Y23450D01*
X16708Y23447D01*
X16804Y23351D01*
Y22875D01*
G37*
G36*
X17095Y21400D02*X16804D01*
Y22324D01*
X16839Y22375D01*
X16872Y22446D01*
X16893Y22521D01*
X16900Y22600D01*
X16893Y22678D01*
X16872Y22753D01*
X16839Y22825D01*
X16804Y22875D01*
Y23351D01*
X16815Y23340D01*
X16839Y23375D01*
X16872Y23446D01*
X16893Y23521D01*
X16900Y23600D01*
X16893Y23678D01*
X16872Y23753D01*
X16839Y23825D01*
X16815Y23859D01*
X16804Y23848D01*
Y24850D01*
X17095D01*
Y23848D01*
X17084Y23859D01*
X17060Y23825D01*
X17027Y23753D01*
X17006Y23678D01*
X17000Y23600D01*
X17006Y23521D01*
X17027Y23446D01*
X17060Y23375D01*
X17084Y23340D01*
X17095Y23352D01*
Y22875D01*
X17060Y22825D01*
X17027Y22753D01*
X17006Y22678D01*
X17000Y22600D01*
X17006Y22521D01*
X17027Y22446D01*
X17060Y22375D01*
X17095Y22324D01*
Y21400D01*
G37*
G36*
X17450D02*X17095D01*
Y22324D01*
X17105Y22310D01*
X17160Y22255D01*
X17225Y22210D01*
X17296Y22177D01*
X17371Y22156D01*
X17450Y22150D01*
Y21400D01*
G37*
G36*
X17095Y24850D02*X17450D01*
Y24050D01*
X17371Y24043D01*
X17296Y24022D01*
X17225Y23989D01*
X17190Y23965D01*
X17297Y23858D01*
X17300Y23859D01*
X17347Y23881D01*
X17397Y23895D01*
X17450Y23900D01*
Y23300D01*
X17397Y23304D01*
X17347Y23318D01*
X17300Y23340D01*
X17297Y23341D01*
X17190Y23234D01*
X17225Y23210D01*
X17296Y23177D01*
X17371Y23156D01*
X17450Y23150D01*
Y23050D01*
X17371Y23043D01*
X17296Y23022D01*
X17225Y22989D01*
X17160Y22944D01*
X17105Y22889D01*
X17095Y22875D01*
Y23352D01*
X17191Y23447D01*
X17190Y23450D01*
X17168Y23497D01*
X17154Y23547D01*
X17150Y23600D01*
X17154Y23652D01*
X17168Y23702D01*
X17190Y23750D01*
X17191Y23752D01*
X17095Y23848D01*
Y24850D01*
G37*
G36*
X17804Y21400D02*X17450D01*
Y22150D01*
X17528Y22156D01*
X17603Y22177D01*
X17675Y22210D01*
X17739Y22255D01*
X17794Y22310D01*
X17804Y22324D01*
Y21400D01*
G37*
G36*
Y22875D02*X17794Y22889D01*
X17739Y22944D01*
X17675Y22989D01*
X17603Y23022D01*
X17528Y23043D01*
X17450Y23050D01*
Y23150D01*
X17528Y23156D01*
X17603Y23177D01*
X17675Y23210D01*
X17709Y23234D01*
X17602Y23341D01*
X17600Y23340D01*
X17552Y23318D01*
X17502Y23304D01*
X17450Y23300D01*
Y23900D01*
X17502Y23895D01*
X17552Y23881D01*
X17600Y23859D01*
X17602Y23858D01*
X17709Y23965D01*
X17675Y23989D01*
X17603Y24022D01*
X17528Y24043D01*
X17450Y24050D01*
Y24850D01*
X17804D01*
Y23848D01*
X17708Y23752D01*
X17709Y23750D01*
X17731Y23702D01*
X17745Y23652D01*
X17750Y23600D01*
X17745Y23547D01*
X17731Y23497D01*
X17709Y23450D01*
X17708Y23447D01*
X17804Y23351D01*
Y22875D01*
G37*
G36*
X20700Y21400D02*X19665D01*
X19667Y21401D01*
X19699Y21433D01*
X19725Y21470D01*
X19744Y21511D01*
X19755Y21554D01*
X19759Y21600D01*
X19755Y21645D01*
X19744Y21688D01*
X19725Y21729D01*
X19699Y21767D01*
X19667Y21799D01*
X19629Y21825D01*
X19588Y21844D01*
X19545Y21855D01*
X19500Y21859D01*
X19454Y21855D01*
X19411Y21844D01*
X19370Y21825D01*
X19333Y21799D01*
X19301Y21767D01*
X19275Y21729D01*
X19255Y21688D01*
X19244Y21645D01*
X19240Y21600D01*
X19244Y21554D01*
X19255Y21511D01*
X19275Y21470D01*
X19301Y21433D01*
X19326Y21407D01*
X19304Y21405D01*
X19283Y21400D01*
X17804D01*
Y22324D01*
X17839Y22375D01*
X17872Y22446D01*
X17893Y22521D01*
X17900Y22600D01*
X17893Y22678D01*
X17872Y22753D01*
X17839Y22825D01*
X17804Y22875D01*
Y23351D01*
X17815Y23340D01*
X17839Y23375D01*
X17872Y23446D01*
X17893Y23521D01*
X17900Y23600D01*
X17893Y23678D01*
X17872Y23753D01*
X17839Y23825D01*
X17815Y23859D01*
X17804Y23848D01*
Y24850D01*
X20700D01*
Y21400D01*
G37*
G36*
X12950Y21600D02*X15000D01*
Y19615D01*
X14975Y19579D01*
X14955Y19538D01*
X14944Y19495D01*
X14940Y19450D01*
X14944Y19404D01*
X14955Y19361D01*
X14975Y19320D01*
X15000Y19284D01*
Y17300D01*
X14065D01*
X14067Y17301D01*
X14099Y17333D01*
X14125Y17370D01*
X14144Y17411D01*
X14155Y17454D01*
X14159Y17500D01*
X14155Y17545D01*
X14144Y17588D01*
X14125Y17629D01*
X14099Y17667D01*
X14067Y17699D01*
X14029Y17725D01*
X13988Y17744D01*
X13945Y17755D01*
X13900Y17759D01*
X13854Y17755D01*
X13811Y17744D01*
X13770Y17725D01*
X13733Y17699D01*
X13701Y17667D01*
X13675Y17629D01*
X13655Y17588D01*
X13644Y17545D01*
X13640Y17500D01*
X13644Y17454D01*
X13655Y17411D01*
X13675Y17370D01*
X13701Y17333D01*
X13733Y17301D01*
X13734Y17300D01*
X12950D01*
Y21600D01*
G37*
G36*
X13850Y14550D02*Y17245D01*
X13854Y17244D01*
X13900Y17240D01*
X13945Y17244D01*
X13988Y17255D01*
X14029Y17275D01*
X14067Y17301D01*
X14099Y17333D01*
X14110Y17350D01*
X15133D01*
X15111Y17344D01*
X15070Y17325D01*
X15033Y17299D01*
X15001Y17267D01*
X14975Y17229D01*
X14955Y17188D01*
X14944Y17145D01*
X14940Y17100D01*
X14944Y17054D01*
X14955Y17011D01*
X14975Y16970D01*
X15001Y16933D01*
X15033Y16901D01*
X15070Y16875D01*
X15111Y16855D01*
X15154Y16844D01*
X15200Y16840D01*
X15245Y16844D01*
X15288Y16855D01*
X15329Y16875D01*
X15367Y16901D01*
X15399Y16933D01*
X15425Y16970D01*
X15444Y17011D01*
X15455Y17054D01*
X15459Y17100D01*
X15455Y17145D01*
X15444Y17188D01*
X15425Y17229D01*
X15399Y17267D01*
X15367Y17299D01*
X15329Y17325D01*
X15288Y17344D01*
X15267Y17350D01*
X16650D01*
Y14550D01*
X13850D01*
G37*
G36*
X200Y9100D02*X1500D01*
Y2260D01*
X1368Y2248D01*
X1240Y2214D01*
X1120Y2158D01*
X1011Y2082D01*
X917Y1988D01*
X841Y1880D01*
X785Y1759D01*
X751Y1632D01*
X740Y1500D01*
X751Y1368D01*
X785Y1240D01*
X841Y1120D01*
X917Y1011D01*
X1011Y917D01*
X1120Y841D01*
X1240Y785D01*
X1368Y751D01*
X1500Y740D01*
Y100D01*
X200D01*
Y9100D01*
G37*
G36*
X1500D02*X8960D01*
Y8227D01*
X8923Y8175D01*
X8883Y8088D01*
X8858Y7995D01*
X8850Y7900D01*
X8858Y7804D01*
X8883Y7711D01*
X8923Y7625D01*
X8960Y7573D01*
Y6227D01*
X8923Y6175D01*
X8883Y6088D01*
X8858Y5995D01*
X8850Y5900D01*
X8858Y5804D01*
X8883Y5711D01*
X8923Y5625D01*
X8960Y5573D01*
Y100D01*
X1500D01*
Y740D01*
X1632Y751D01*
X1759Y785D01*
X1880Y841D01*
X1988Y917D01*
X2082Y1011D01*
X2158Y1120D01*
X2214Y1240D01*
X2248Y1368D01*
X2260Y1500D01*
X2248Y1632D01*
X2214Y1759D01*
X2158Y1880D01*
X2082Y1988D01*
X1988Y2082D01*
X1880Y2158D01*
X1759Y2214D01*
X1632Y2248D01*
X1500Y2260D01*
Y9100D01*
G37*
G36*
X8960D02*X9400D01*
Y8450D01*
X9304Y8441D01*
X9211Y8416D01*
X9125Y8376D01*
X9069Y8337D01*
X9176Y8229D01*
X9200Y8246D01*
X9263Y8275D01*
X9330Y8293D01*
X9400Y8300D01*
Y7500D01*
X9330Y7506D01*
X9263Y7524D01*
X9200Y7553D01*
X9176Y7570D01*
X9069Y7462D01*
X9125Y7423D01*
X9211Y7383D01*
X9304Y7358D01*
X9400Y7350D01*
Y6450D01*
X9304Y6441D01*
X9211Y6416D01*
X9125Y6376D01*
X9069Y6337D01*
X9176Y6229D01*
X9200Y6246D01*
X9263Y6275D01*
X9330Y6293D01*
X9400Y6300D01*
Y5500D01*
X9330Y5506D01*
X9263Y5524D01*
X9200Y5553D01*
X9176Y5570D01*
X9069Y5462D01*
X9125Y5423D01*
X9211Y5383D01*
X9304Y5358D01*
X9400Y5350D01*
Y100D01*
X8960D01*
Y5573D01*
X8962Y5569D01*
X9070Y5676D01*
X9053Y5700D01*
X9024Y5763D01*
X9006Y5830D01*
X9000Y5900D01*
X9006Y5969D01*
X9024Y6036D01*
X9053Y6100D01*
X9070Y6123D01*
X8962Y6231D01*
X8960Y6227D01*
Y7573D01*
X8962Y7569D01*
X9070Y7676D01*
X9053Y7700D01*
X9024Y7763D01*
X9006Y7830D01*
X9000Y7900D01*
X9006Y7969D01*
X9024Y8036D01*
X9053Y8100D01*
X9070Y8123D01*
X8962Y8231D01*
X8960Y8227D01*
Y9100D01*
G37*
G36*
X9400D02*X9839D01*
Y8227D01*
X9837Y8231D01*
X9729Y8123D01*
X9746Y8100D01*
X9775Y8036D01*
X9793Y7969D01*
X9800Y7900D01*
X9793Y7830D01*
X9775Y7763D01*
X9746Y7700D01*
X9729Y7676D01*
X9837Y7569D01*
X9839Y7573D01*
Y6227D01*
X9837Y6231D01*
X9729Y6123D01*
X9746Y6100D01*
X9775Y6036D01*
X9793Y5969D01*
X9800Y5900D01*
X9793Y5830D01*
X9775Y5763D01*
X9746Y5700D01*
X9729Y5676D01*
X9837Y5569D01*
X9839Y5573D01*
Y100D01*
X9400D01*
Y5350D01*
X9495Y5358D01*
X9588Y5383D01*
X9675Y5423D01*
X9731Y5462D01*
X9623Y5570D01*
X9600Y5553D01*
X9536Y5524D01*
X9469Y5506D01*
X9400Y5500D01*
Y6300D01*
X9469Y6293D01*
X9536Y6275D01*
X9600Y6246D01*
X9623Y6229D01*
X9731Y6337D01*
X9675Y6376D01*
X9588Y6416D01*
X9495Y6441D01*
X9400Y6450D01*
Y7350D01*
X9495Y7358D01*
X9588Y7383D01*
X9675Y7423D01*
X9731Y7462D01*
X9623Y7570D01*
X9600Y7553D01*
X9536Y7524D01*
X9469Y7506D01*
X9400Y7500D01*
Y8300D01*
X9469Y8293D01*
X9536Y8275D01*
X9600Y8246D01*
X9623Y8229D01*
X9731Y8337D01*
X9675Y8376D01*
X9588Y8416D01*
X9495Y8441D01*
X9400Y8450D01*
Y9100D01*
G37*
G36*
X9839D02*X9995D01*
Y7270D01*
X9978Y7253D01*
X9923Y7175D01*
X9883Y7088D01*
X9858Y6995D01*
X9850Y6900D01*
X9858Y6804D01*
X9883Y6711D01*
X9923Y6625D01*
X9978Y6546D01*
X9995Y6529D01*
Y2939D01*
X9975Y2929D01*
X9953Y2914D01*
X9935Y2896D01*
X9920Y2875D01*
X9909Y2851D01*
X9902Y2826D01*
X9900Y2800D01*
X9902Y2174D01*
X9909Y2148D01*
X9920Y2125D01*
X9935Y2103D01*
X9953Y2085D01*
X9975Y2070D01*
X9995Y2060D01*
Y1748D01*
X9984Y1759D01*
X9960Y1725D01*
X9927Y1653D01*
X9906Y1578D01*
X9900Y1500D01*
X9906Y1421D01*
X9927Y1346D01*
X9960Y1275D01*
X9984Y1240D01*
X9995Y1252D01*
Y100D01*
X9839D01*
Y5573D01*
X9876Y5625D01*
X9916Y5711D01*
X9941Y5804D01*
X9950Y5900D01*
X9941Y5995D01*
X9916Y6088D01*
X9876Y6175D01*
X9839Y6227D01*
Y7573D01*
X9876Y7625D01*
X9916Y7711D01*
X9941Y7804D01*
X9950Y7900D01*
X9941Y7995D01*
X9916Y8088D01*
X9876Y8175D01*
X9839Y8227D01*
Y9100D01*
G37*
G36*
X9995D02*X10400D01*
Y7450D01*
X10304Y7441D01*
X10211Y7416D01*
X10125Y7376D01*
X10046Y7321D01*
X9995Y7270D01*
Y9100D01*
G37*
G36*
Y6529D02*X10046Y6478D01*
X10125Y6423D01*
X10211Y6383D01*
X10304Y6358D01*
X10400Y6350D01*
Y2949D01*
X10024Y2947D01*
X9998Y2941D01*
X9995Y2939D01*
Y6529D01*
G37*
G36*
Y2060D02*X9998Y2059D01*
X10024Y2052D01*
X10050Y2050D01*
X10400Y2051D01*
Y1945D01*
X10350Y1950D01*
X10271Y1943D01*
X10196Y1922D01*
X10125Y1889D01*
X10090Y1865D01*
X10197Y1758D01*
X10200Y1759D01*
X10247Y1781D01*
X10297Y1795D01*
X10350Y1800D01*
X10400Y1795D01*
Y1204D01*
X10350Y1200D01*
X10297Y1204D01*
X10247Y1218D01*
X10200Y1240D01*
X10197Y1241D01*
X10090Y1134D01*
X10125Y1110D01*
X10196Y1077D01*
X10271Y1056D01*
X10350Y1050D01*
X10400Y1054D01*
Y100D01*
X9995D01*
Y1252D01*
X10091Y1347D01*
X10090Y1350D01*
X10068Y1397D01*
X10054Y1447D01*
X10050Y1500D01*
X10054Y1552D01*
X10068Y1602D01*
X10090Y1650D01*
X10091Y1652D01*
X9995Y1748D01*
Y2060D01*
G37*
G36*
X10400Y9100D02*X10704D01*
Y7355D01*
X10675Y7376D01*
X10588Y7416D01*
X10495Y7441D01*
X10400Y7450D01*
Y9100D01*
G37*
G36*
X10704Y100D02*X10400D01*
Y1054D01*
X10428Y1056D01*
X10503Y1077D01*
X10575Y1110D01*
X10609Y1134D01*
X10502Y1241D01*
X10500Y1240D01*
X10452Y1218D01*
X10402Y1204D01*
X10400Y1204D01*
Y1795D01*
X10402Y1795D01*
X10452Y1781D01*
X10500Y1759D01*
X10502Y1758D01*
X10609Y1865D01*
X10575Y1889D01*
X10503Y1922D01*
X10428Y1943D01*
X10400Y1945D01*
Y2051D01*
X10676Y2052D01*
X10701Y2059D01*
X10704Y2060D01*
Y1748D01*
X10608Y1652D01*
X10609Y1650D01*
X10631Y1602D01*
X10645Y1552D01*
X10650Y1500D01*
X10645Y1447D01*
X10631Y1397D01*
X10609Y1350D01*
X10608Y1347D01*
X10704Y1251D01*
Y100D01*
G37*
G36*
Y2939D02*X10701Y2941D01*
X10676Y2947D01*
X10650Y2950D01*
X10400Y2949D01*
Y6350D01*
X10495Y6358D01*
X10588Y6383D01*
X10675Y6423D01*
X10704Y6444D01*
Y2939D01*
G37*
G36*
Y9100D02*X10965D01*
Y9077D01*
X10958Y9084D01*
X10946Y9067D01*
X10929Y9030D01*
X10918Y8990D01*
X10915Y8950D01*
X10918Y8909D01*
X10929Y8869D01*
X10946Y8832D01*
X10958Y8815D01*
X10965Y8822D01*
Y8228D01*
X10962Y8231D01*
X10923Y8175D01*
X10883Y8088D01*
X10858Y7995D01*
X10850Y7900D01*
X10858Y7804D01*
X10883Y7711D01*
X10923Y7625D01*
X10962Y7569D01*
X10965Y7571D01*
Y6228D01*
X10962Y6231D01*
X10923Y6175D01*
X10883Y6088D01*
X10858Y5995D01*
X10850Y5900D01*
X10858Y5804D01*
X10883Y5711D01*
X10923Y5625D01*
X10962Y5569D01*
X10965Y5571D01*
Y100D01*
X10704D01*
Y1251D01*
X10715Y1240D01*
X10739Y1275D01*
X10772Y1346D01*
X10793Y1421D01*
X10800Y1500D01*
X10793Y1578D01*
X10772Y1653D01*
X10739Y1725D01*
X10715Y1759D01*
X10704Y1748D01*
Y2060D01*
X10725Y2070D01*
X10746Y2085D01*
X10764Y2103D01*
X10779Y2125D01*
X10791Y2148D01*
X10797Y2174D01*
X10800Y2200D01*
X10797Y2826D01*
X10791Y2851D01*
X10779Y2875D01*
X10764Y2896D01*
X10746Y2914D01*
X10725Y2929D01*
X10704Y2939D01*
Y6444D01*
X10753Y6478D01*
X10821Y6546D01*
X10876Y6625D01*
X10916Y6711D01*
X10941Y6804D01*
X10950Y6900D01*
X10941Y6995D01*
X10916Y7088D01*
X10876Y7175D01*
X10821Y7253D01*
X10753Y7321D01*
X10704Y7355D01*
Y9100D01*
G37*
G36*
X10965D02*X11056D01*
X11072Y9084D01*
X11072Y9084D01*
X11097Y9095D01*
X11113Y9100D01*
X11150D01*
Y8795D01*
X11123Y8797D01*
X11097Y8804D01*
X11072Y8815D01*
X11072Y8816D01*
X11015Y8758D01*
X11032Y8746D01*
X11069Y8729D01*
X11109Y8718D01*
X11150Y8715D01*
Y8388D01*
X11125Y8376D01*
X11069Y8337D01*
X11150Y8256D01*
Y7543D01*
X11069Y7462D01*
X11125Y7423D01*
X11150Y7412D01*
Y6388D01*
X11125Y6376D01*
X11069Y6337D01*
X11150Y6256D01*
Y5543D01*
X11069Y5462D01*
X11125Y5423D01*
X11150Y5412D01*
Y100D01*
X10965D01*
Y5571D01*
X11070Y5676D01*
X11053Y5700D01*
X11024Y5763D01*
X11006Y5830D01*
X11000Y5900D01*
X11006Y5969D01*
X11024Y6036D01*
X11053Y6100D01*
X11070Y6123D01*
X10965Y6228D01*
Y7571D01*
X11070Y7676D01*
X11053Y7700D01*
X11024Y7763D01*
X11006Y7830D01*
X11000Y7900D01*
X11006Y7969D01*
X11024Y8036D01*
X11053Y8100D01*
X11070Y8123D01*
X10965Y8228D01*
Y8822D01*
X11016Y8872D01*
X11015Y8872D01*
X11004Y8897D01*
X10997Y8923D01*
X10995Y8950D01*
X10997Y8976D01*
X11004Y9003D01*
X11015Y9027D01*
X11016Y9027D01*
X10965Y9077D01*
Y9100D01*
G37*
G36*
X11150D02*X11186D01*
X11203Y9095D01*
X11227Y9084D01*
X11227Y9084D01*
X11243Y9100D01*
X11334D01*
Y9078D01*
X11284Y9027D01*
X11284Y9027D01*
X11295Y9003D01*
X11302Y8976D01*
X11304Y8950D01*
X11302Y8923D01*
X11295Y8897D01*
X11284Y8872D01*
X11284Y8872D01*
X11334Y8822D01*
Y8444D01*
X11304Y8441D01*
X11211Y8416D01*
X11150Y8388D01*
Y8715D01*
X11190Y8718D01*
X11230Y8729D01*
X11267Y8746D01*
X11284Y8758D01*
X11227Y8816D01*
X11227Y8815D01*
X11203Y8804D01*
X11176Y8797D01*
X11150Y8795D01*
Y9100D01*
G37*
G36*
Y8256D02*X11176Y8229D01*
X11200Y8246D01*
X11263Y8275D01*
X11330Y8293D01*
X11334Y8294D01*
Y7505D01*
X11330Y7506D01*
X11263Y7524D01*
X11200Y7553D01*
X11176Y7570D01*
X11150Y7543D01*
Y8256D01*
G37*
G36*
Y7412D02*X11211Y7383D01*
X11304Y7358D01*
X11334Y7355D01*
Y6444D01*
X11304Y6441D01*
X11211Y6416D01*
X11150Y6388D01*
Y7412D01*
G37*
G36*
Y6256D02*X11176Y6229D01*
X11200Y6246D01*
X11263Y6275D01*
X11330Y6293D01*
X11334Y6294D01*
Y5505D01*
X11330Y5506D01*
X11263Y5524D01*
X11200Y5553D01*
X11176Y5570D01*
X11150Y5543D01*
Y6256D01*
G37*
G36*
Y5412D02*X11211Y5383D01*
X11304Y5358D01*
X11334Y5355D01*
Y2947D01*
X11324D01*
X11298Y2941D01*
X11275Y2929D01*
X11253Y2914D01*
X11235Y2896D01*
X11220Y2875D01*
X11209Y2851D01*
X11202Y2826D01*
X11200Y2800D01*
X11202Y2174D01*
X11209Y2148D01*
X11220Y2125D01*
X11235Y2103D01*
X11253Y2085D01*
X11275Y2070D01*
X11298Y2059D01*
X11324Y2052D01*
X11334Y2051D01*
Y1818D01*
X11305Y1789D01*
X11260Y1725D01*
X11227Y1653D01*
X11206Y1578D01*
X11200Y1500D01*
X11206Y1421D01*
X11227Y1346D01*
X11260Y1275D01*
X11305Y1210D01*
X11334Y1181D01*
Y100D01*
X11150D01*
Y5412D01*
G37*
G36*
X11334Y9100D02*X11650D01*
Y9072D01*
X11646Y9067D01*
X11629Y9030D01*
X11618Y8990D01*
X11615Y8950D01*
X11618Y8909D01*
X11629Y8869D01*
X11646Y8832D01*
X11650Y8827D01*
Y8388D01*
X11588Y8416D01*
X11495Y8441D01*
X11400Y8450D01*
X11334Y8444D01*
Y8822D01*
X11341Y8815D01*
X11353Y8832D01*
X11370Y8869D01*
X11381Y8909D01*
X11384Y8950D01*
X11381Y8990D01*
X11370Y9030D01*
X11353Y9067D01*
X11341Y9084D01*
X11334Y9078D01*
Y9100D01*
G37*
G36*
Y8294D02*X11400Y8300D01*
X11469Y8293D01*
X11536Y8275D01*
X11600Y8246D01*
X11623Y8229D01*
X11650Y8256D01*
Y7543D01*
X11623Y7570D01*
X11600Y7553D01*
X11536Y7524D01*
X11469Y7506D01*
X11400Y7500D01*
X11334Y7505D01*
Y8294D01*
G37*
G36*
Y7355D02*X11400Y7350D01*
X11495Y7358D01*
X11588Y7383D01*
X11650Y7412D01*
Y6388D01*
X11588Y6416D01*
X11495Y6441D01*
X11400Y6450D01*
X11334Y6444D01*
Y7355D01*
G37*
G36*
Y6294D02*X11400Y6300D01*
X11469Y6293D01*
X11536Y6275D01*
X11600Y6246D01*
X11623Y6229D01*
X11650Y6256D01*
Y5543D01*
X11623Y5570D01*
X11600Y5553D01*
X11536Y5524D01*
X11469Y5506D01*
X11400Y5500D01*
X11334Y5505D01*
Y6294D01*
G37*
G36*
Y5355D02*X11400Y5350D01*
X11495Y5358D01*
X11588Y5383D01*
X11650Y5412D01*
Y2948D01*
X11334Y2947D01*
Y5355D01*
G37*
G36*
Y2051D02*X11350Y2050D01*
X11650Y2051D01*
Y1950D01*
X11571Y1943D01*
X11496Y1922D01*
X11425Y1889D01*
X11360Y1844D01*
X11334Y1818D01*
Y2051D01*
G37*
G36*
Y1181D02*X11360Y1155D01*
X11425Y1110D01*
X11496Y1077D01*
X11571Y1056D01*
X11650Y1050D01*
Y100D01*
X11334D01*
Y1181D01*
G37*
G36*
X11650Y9100D02*X11756D01*
X11772Y9084D01*
X11772Y9084D01*
X11797Y9095D01*
X11813Y9100D01*
X11850D01*
Y8795D01*
X11823Y8797D01*
X11797Y8804D01*
X11772Y8815D01*
X11772Y8816D01*
X11715Y8758D01*
X11732Y8746D01*
X11769Y8729D01*
X11809Y8718D01*
X11850Y8715D01*
Y8212D01*
X11837Y8231D01*
X11729Y8123D01*
X11746Y8100D01*
X11775Y8036D01*
X11793Y7969D01*
X11800Y7900D01*
X11793Y7830D01*
X11775Y7763D01*
X11746Y7700D01*
X11729Y7676D01*
X11837Y7569D01*
X11850Y7587D01*
Y6212D01*
X11837Y6231D01*
X11729Y6123D01*
X11746Y6100D01*
X11775Y6036D01*
X11793Y5969D01*
X11800Y5900D01*
X11793Y5830D01*
X11775Y5763D01*
X11746Y5700D01*
X11729Y5676D01*
X11837Y5569D01*
X11850Y5587D01*
Y2949D01*
X11650Y2948D01*
Y5412D01*
X11675Y5423D01*
X11731Y5462D01*
X11650Y5543D01*
Y6256D01*
X11731Y6337D01*
X11675Y6376D01*
X11650Y6388D01*
Y7412D01*
X11675Y7423D01*
X11731Y7462D01*
X11650Y7543D01*
Y8256D01*
X11731Y8337D01*
X11675Y8376D01*
X11650Y8388D01*
Y8827D01*
X11658Y8815D01*
X11716Y8872D01*
X11715Y8872D01*
X11704Y8897D01*
X11697Y8923D01*
X11695Y8950D01*
X11697Y8976D01*
X11704Y9003D01*
X11715Y9027D01*
X11716Y9027D01*
X11658Y9084D01*
X11650Y9072D01*
Y9100D01*
G37*
G36*
X11850D02*X11886D01*
X11903Y9095D01*
X11927Y9084D01*
X11927Y9084D01*
X11943Y9100D01*
X12034D01*
Y9078D01*
X11984Y9027D01*
X11984Y9027D01*
X11995Y9003D01*
X12002Y8976D01*
X12004Y8950D01*
X12002Y8923D01*
X11995Y8897D01*
X11984Y8872D01*
X11984Y8872D01*
X12034Y8822D01*
Y8559D01*
X12008Y8584D01*
X11996Y8567D01*
X11979Y8530D01*
X11968Y8490D01*
X11965Y8450D01*
X11968Y8409D01*
X11979Y8369D01*
X11996Y8332D01*
X12008Y8315D01*
X12034Y8340D01*
Y2923D01*
X12025Y2929D01*
X12001Y2941D01*
X11976Y2947D01*
X11950Y2950D01*
X11850Y2949D01*
Y5587D01*
X11876Y5625D01*
X11916Y5711D01*
X11941Y5804D01*
X11950Y5900D01*
X11941Y5995D01*
X11916Y6088D01*
X11876Y6175D01*
X11850Y6212D01*
Y7587D01*
X11876Y7625D01*
X11916Y7711D01*
X11941Y7804D01*
X11950Y7900D01*
X11941Y7995D01*
X11916Y8088D01*
X11876Y8175D01*
X11850Y8212D01*
Y8715D01*
X11890Y8718D01*
X11930Y8729D01*
X11967Y8746D01*
X11984Y8758D01*
X11927Y8816D01*
X11927Y8815D01*
X11903Y8804D01*
X11876Y8797D01*
X11850Y8795D01*
Y9100D01*
G37*
G36*
X12034Y100D02*X11650D01*
Y1050D01*
X11728Y1056D01*
X11803Y1077D01*
X11875Y1110D01*
X11939Y1155D01*
X11994Y1210D01*
X12034Y1267D01*
Y100D01*
G37*
G36*
Y1732D02*X11994Y1789D01*
X11939Y1844D01*
X11875Y1889D01*
X11803Y1922D01*
X11728Y1943D01*
X11650Y1950D01*
Y2051D01*
X11976Y2052D01*
X12001Y2059D01*
X12025Y2070D01*
X12034Y2076D01*
Y1732D01*
G37*
G36*
Y9100D02*X12115D01*
Y8668D01*
X12082Y8653D01*
X12065Y8641D01*
X12115Y8590D01*
Y8309D01*
X12065Y8258D01*
X12082Y8246D01*
X12115Y8231D01*
Y7677D01*
X12108Y7684D01*
X12096Y7667D01*
X12079Y7630D01*
X12068Y7590D01*
X12065Y7550D01*
X12068Y7509D01*
X12079Y7469D01*
X12096Y7432D01*
X12108Y7415D01*
X12115Y7422D01*
Y100D01*
X12034D01*
Y1267D01*
X12039Y1275D01*
X12072Y1346D01*
X12093Y1421D01*
X12100Y1500D01*
X12093Y1578D01*
X12072Y1653D01*
X12039Y1725D01*
X12034Y1732D01*
Y2076D01*
X12046Y2085D01*
X12064Y2103D01*
X12079Y2125D01*
X12091Y2148D01*
X12097Y2174D01*
X12100Y2200D01*
X12097Y2826D01*
X12091Y2851D01*
X12079Y2875D01*
X12064Y2896D01*
X12046Y2914D01*
X12034Y2923D01*
Y8340D01*
X12066Y8372D01*
X12065Y8372D01*
X12054Y8397D01*
X12047Y8423D01*
X12045Y8450D01*
X12047Y8476D01*
X12054Y8503D01*
X12065Y8527D01*
X12066Y8527D01*
X12034Y8559D01*
Y8822D01*
X12041Y8815D01*
X12053Y8832D01*
X12070Y8869D01*
X12081Y8909D01*
X12084Y8950D01*
X12081Y8990D01*
X12070Y9030D01*
X12053Y9067D01*
X12041Y9084D01*
X12034Y9078D01*
Y9100D01*
G37*
G36*
X12115D02*X12200D01*
Y8684D01*
X12159Y8681D01*
X12119Y8670D01*
X12115Y8668D01*
Y9100D01*
G37*
G36*
Y8590D02*X12122Y8584D01*
X12122Y8584D01*
X12147Y8595D01*
X12173Y8602D01*
X12200Y8604D01*
Y8295D01*
X12173Y8297D01*
X12147Y8304D01*
X12122Y8315D01*
X12122Y8316D01*
X12115Y8309D01*
Y8590D01*
G37*
G36*
Y8231D02*X12119Y8229D01*
X12159Y8218D01*
X12200Y8215D01*
Y7761D01*
X12182Y7753D01*
X12165Y7741D01*
X12200Y7706D01*
Y7393D01*
X12165Y7358D01*
X12182Y7346D01*
X12200Y7338D01*
Y100D01*
X12115D01*
Y7422D01*
X12166Y7472D01*
X12165Y7472D01*
X12154Y7497D01*
X12147Y7523D01*
X12145Y7550D01*
X12147Y7576D01*
X12154Y7603D01*
X12165Y7627D01*
X12166Y7627D01*
X12115Y7677D01*
Y8231D01*
G37*
G36*
X12200Y9100D02*X12384D01*
Y8578D01*
X12334Y8527D01*
X12334Y8527D01*
X12345Y8503D01*
X12352Y8476D01*
X12354Y8450D01*
X12352Y8423D01*
X12345Y8397D01*
X12334Y8372D01*
X12334Y8372D01*
X12384Y8322D01*
Y7768D01*
X12380Y7770D01*
X12340Y7781D01*
X12300Y7784D01*
X12259Y7781D01*
X12219Y7770D01*
X12200Y7761D01*
Y8215D01*
X12240Y8218D01*
X12280Y8229D01*
X12317Y8246D01*
X12334Y8258D01*
X12277Y8316D01*
X12277Y8315D01*
X12253Y8304D01*
X12226Y8297D01*
X12200Y8295D01*
Y8604D01*
X12226Y8602D01*
X12253Y8595D01*
X12277Y8584D01*
X12277Y8584D01*
X12334Y8641D01*
X12317Y8653D01*
X12280Y8670D01*
X12240Y8681D01*
X12200Y8684D01*
Y9100D01*
G37*
G36*
Y7706D02*X12222Y7684D01*
X12222Y7684D01*
X12247Y7695D01*
X12273Y7702D01*
X12300Y7704D01*
X12326Y7702D01*
X12353Y7695D01*
X12377Y7684D01*
X12377Y7684D01*
X12384Y7690D01*
Y7409D01*
X12377Y7416D01*
X12377Y7415D01*
X12353Y7404D01*
X12326Y7397D01*
X12300Y7395D01*
X12273Y7397D01*
X12247Y7404D01*
X12222Y7415D01*
X12222Y7416D01*
X12200Y7393D01*
Y7706D01*
G37*
G36*
Y7338D02*X12219Y7329D01*
X12259Y7318D01*
X12300Y7315D01*
X12340Y7318D01*
X12380Y7329D01*
X12384Y7331D01*
Y100D01*
X12200D01*
Y7338D01*
G37*
G36*
X12384Y9100D02*X12494D01*
Y8949D01*
X12491Y8952D01*
X12475Y8929D01*
X12456Y8888D01*
X12444Y8845D01*
X12440Y8800D01*
X12444Y8754D01*
X12456Y8711D01*
X12475Y8670D01*
X12491Y8647D01*
X12494Y8650D01*
Y8399D01*
X12491Y8402D01*
X12475Y8379D01*
X12456Y8338D01*
X12444Y8295D01*
X12440Y8250D01*
X12444Y8204D01*
X12456Y8161D01*
X12475Y8120D01*
X12491Y8097D01*
X12494Y8100D01*
Y7680D01*
X12491Y7684D01*
X12434Y7627D01*
X12434Y7627D01*
X12445Y7603D01*
X12452Y7576D01*
X12454Y7550D01*
X12452Y7523D01*
X12445Y7497D01*
X12434Y7472D01*
X12434Y7472D01*
X12491Y7415D01*
X12494Y7419D01*
Y100D01*
X12384D01*
Y7331D01*
X12417Y7346D01*
X12434Y7358D01*
X12384Y7409D01*
Y7690D01*
X12434Y7741D01*
X12417Y7753D01*
X12384Y7768D01*
Y8322D01*
X12391Y8315D01*
X12403Y8332D01*
X12420Y8369D01*
X12431Y8409D01*
X12434Y8450D01*
X12431Y8490D01*
X12420Y8530D01*
X12403Y8567D01*
X12391Y8584D01*
X12384Y8578D01*
Y9100D01*
G37*
G36*
X12494D02*X12700D01*
Y9059D01*
X12654Y9055D01*
X12611Y9044D01*
X12570Y9024D01*
X12547Y9009D01*
X12604Y8951D01*
X12610Y8955D01*
X12638Y8969D01*
X12668Y8977D01*
X12700Y8979D01*
Y8620D01*
X12668Y8622D01*
X12638Y8630D01*
X12610Y8644D01*
X12604Y8648D01*
X12547Y8591D01*
X12570Y8575D01*
X12611Y8556D01*
X12654Y8544D01*
X12700Y8540D01*
Y8509D01*
X12654Y8505D01*
X12611Y8494D01*
X12570Y8474D01*
X12547Y8459D01*
X12604Y8401D01*
X12610Y8405D01*
X12638Y8419D01*
X12668Y8427D01*
X12700Y8429D01*
Y8070D01*
X12668Y8072D01*
X12638Y8080D01*
X12610Y8094D01*
X12604Y8098D01*
X12547Y8041D01*
X12570Y8025D01*
X12611Y8006D01*
X12654Y7994D01*
X12700Y7990D01*
Y100D01*
X12494D01*
Y7419D01*
X12503Y7432D01*
X12520Y7469D01*
X12531Y7509D01*
X12534Y7550D01*
X12531Y7590D01*
X12520Y7630D01*
X12503Y7667D01*
X12494Y7680D01*
Y8100D01*
X12548Y8154D01*
X12544Y8160D01*
X12530Y8188D01*
X12522Y8218D01*
X12520Y8250D01*
X12522Y8281D01*
X12530Y8311D01*
X12544Y8340D01*
X12548Y8345D01*
X12494Y8399D01*
Y8650D01*
X12548Y8704D01*
X12544Y8710D01*
X12530Y8738D01*
X12522Y8768D01*
X12520Y8800D01*
X12522Y8831D01*
X12530Y8861D01*
X12544Y8890D01*
X12548Y8895D01*
X12494Y8949D01*
Y9100D01*
G37*
G36*
X12700D02*X12765D01*
Y9050D01*
X12745Y9055D01*
X12700Y9059D01*
Y9100D01*
G37*
G36*
X12765Y100D02*X12700D01*
Y7990D01*
X12745Y7994D01*
X12765Y7999D01*
Y7677D01*
X12758Y7684D01*
X12746Y7667D01*
X12729Y7630D01*
X12718Y7590D01*
X12715Y7550D01*
X12718Y7509D01*
X12729Y7469D01*
X12746Y7432D01*
X12758Y7415D01*
X12765Y7422D01*
Y100D01*
G37*
G36*
Y8082D02*X12761Y8080D01*
X12731Y8072D01*
X12700Y8070D01*
Y8429D01*
X12731Y8427D01*
X12761Y8419D01*
X12765Y8417D01*
Y8082D01*
G37*
G36*
Y8500D02*X12745Y8505D01*
X12700Y8509D01*
Y8540D01*
X12745Y8544D01*
X12765Y8549D01*
Y8500D01*
G37*
G36*
Y8632D02*X12761Y8630D01*
X12731Y8622D01*
X12700Y8620D01*
Y8979D01*
X12731Y8977D01*
X12761Y8969D01*
X12765Y8967D01*
Y8632D01*
G37*
G36*
Y9100D02*X12905D01*
Y8949D01*
X12851Y8895D01*
X12855Y8890D01*
X12869Y8861D01*
X12877Y8831D01*
X12879Y8800D01*
X12877Y8768D01*
X12869Y8738D01*
X12855Y8710D01*
X12851Y8704D01*
X12905Y8650D01*
Y8399D01*
X12851Y8345D01*
X12855Y8340D01*
X12869Y8311D01*
X12877Y8281D01*
X12879Y8250D01*
X12877Y8218D01*
X12869Y8188D01*
X12855Y8160D01*
X12851Y8154D01*
X12905Y8100D01*
Y7780D01*
X12869Y7770D01*
X12832Y7753D01*
X12815Y7741D01*
X12872Y7684D01*
X12872Y7684D01*
X12897Y7695D01*
X12905Y7697D01*
Y7402D01*
X12897Y7404D01*
X12872Y7415D01*
X12872Y7416D01*
X12815Y7358D01*
X12832Y7346D01*
X12869Y7329D01*
X12905Y7319D01*
Y100D01*
X12765D01*
Y7422D01*
X12816Y7472D01*
X12815Y7472D01*
X12804Y7497D01*
X12797Y7523D01*
X12795Y7550D01*
X12797Y7576D01*
X12804Y7603D01*
X12815Y7627D01*
X12816Y7627D01*
X12765Y7677D01*
Y7999D01*
X12788Y8006D01*
X12829Y8025D01*
X12852Y8041D01*
X12795Y8098D01*
X12790Y8094D01*
X12765Y8082D01*
Y8417D01*
X12790Y8405D01*
X12795Y8401D01*
X12852Y8459D01*
X12829Y8474D01*
X12788Y8494D01*
X12765Y8500D01*
Y8549D01*
X12788Y8556D01*
X12829Y8575D01*
X12852Y8591D01*
X12795Y8648D01*
X12790Y8644D01*
X12765Y8632D01*
Y8967D01*
X12790Y8955D01*
X12795Y8951D01*
X12852Y9009D01*
X12829Y9024D01*
X12788Y9044D01*
X12765Y9050D01*
Y9100D01*
G37*
G36*
X12905D02*X13134D01*
Y7678D01*
X13084Y7627D01*
X13084Y7627D01*
X13095Y7603D01*
X13102Y7576D01*
X13104Y7550D01*
X13102Y7523D01*
X13095Y7497D01*
X13084Y7472D01*
X13084Y7472D01*
X13134Y7422D01*
Y100D01*
X12905D01*
Y7319D01*
X12909Y7318D01*
X12950Y7315D01*
X12990Y7318D01*
X13030Y7329D01*
X13067Y7346D01*
X13084Y7358D01*
X13027Y7416D01*
X13027Y7415D01*
X13003Y7404D01*
X12976Y7397D01*
X12950Y7395D01*
X12923Y7397D01*
X12905Y7402D01*
Y7697D01*
X12923Y7702D01*
X12950Y7704D01*
X12976Y7702D01*
X13003Y7695D01*
X13027Y7684D01*
X13027Y7684D01*
X13084Y7741D01*
X13067Y7753D01*
X13030Y7770D01*
X12990Y7781D01*
X12950Y7784D01*
X12909Y7781D01*
X12905Y7780D01*
Y8100D01*
X12909Y8097D01*
X12924Y8120D01*
X12944Y8161D01*
X12955Y8204D01*
X12959Y8250D01*
X12955Y8295D01*
X12944Y8338D01*
X12924Y8379D01*
X12909Y8402D01*
X12905Y8399D01*
Y8650D01*
X12909Y8647D01*
X12924Y8670D01*
X12944Y8711D01*
X12955Y8754D01*
X12959Y8800D01*
X12955Y8845D01*
X12944Y8888D01*
X12924Y8929D01*
X12909Y8952D01*
X12905Y8949D01*
Y9100D01*
G37*
G36*
X13134D02*X13465D01*
Y5827D01*
X13458Y5834D01*
X13446Y5817D01*
X13429Y5780D01*
X13418Y5740D01*
X13415Y5700D01*
X13418Y5659D01*
X13429Y5619D01*
X13446Y5582D01*
X13458Y5565D01*
X13465Y5572D01*
Y100D01*
X13134D01*
Y7422D01*
X13141Y7415D01*
X13153Y7432D01*
X13170Y7469D01*
X13181Y7509D01*
X13184Y7550D01*
X13181Y7590D01*
X13170Y7630D01*
X13153Y7667D01*
X13141Y7684D01*
X13134Y7678D01*
Y9100D01*
G37*
G36*
X13465D02*X13600D01*
X13606Y9030D01*
X13624Y8963D01*
X13650Y8907D01*
Y5934D01*
X13609Y5931D01*
X13569Y5920D01*
X13532Y5903D01*
X13515Y5891D01*
X13572Y5834D01*
X13572Y5834D01*
X13597Y5845D01*
X13623Y5852D01*
X13650Y5854D01*
Y5545D01*
X13623Y5547D01*
X13597Y5554D01*
X13572Y5565D01*
X13572Y5566D01*
X13515Y5508D01*
X13532Y5496D01*
X13569Y5479D01*
X13609Y5468D01*
X13650Y5465D01*
Y100D01*
X13465D01*
Y5572D01*
X13516Y5622D01*
X13515Y5622D01*
X13504Y5647D01*
X13497Y5673D01*
X13495Y5700D01*
X13497Y5726D01*
X13504Y5753D01*
X13515Y5777D01*
X13516Y5777D01*
X13465Y5827D01*
Y9100D01*
G37*
G36*
X13650Y8907D02*X13653Y8900D01*
X13693Y8842D01*
X13742Y8793D01*
X13800Y8753D01*
X13815Y8746D01*
Y5809D01*
X13784Y5777D01*
X13784Y5777D01*
X13795Y5753D01*
X13802Y5726D01*
X13804Y5700D01*
X13802Y5673D01*
X13795Y5647D01*
X13784Y5622D01*
X13784Y5622D01*
X13815Y5590D01*
Y5277D01*
X13808Y5284D01*
X13796Y5267D01*
X13779Y5230D01*
X13768Y5190D01*
X13765Y5150D01*
X13768Y5109D01*
X13779Y5069D01*
X13796Y5032D01*
X13808Y5015D01*
X13815Y5022D01*
Y100D01*
X13650D01*
Y5465D01*
X13690Y5468D01*
X13730Y5479D01*
X13767Y5496D01*
X13784Y5508D01*
X13727Y5566D01*
X13727Y5565D01*
X13703Y5554D01*
X13676Y5547D01*
X13650Y5545D01*
Y5854D01*
X13676Y5852D01*
X13703Y5845D01*
X13727Y5834D01*
X13727Y5834D01*
X13784Y5891D01*
X13767Y5903D01*
X13730Y5920D01*
X13690Y5931D01*
X13650Y5934D01*
Y8907D01*
G37*
G36*
X13815Y8746D02*X13863Y8724D01*
X13915Y8710D01*
Y6627D01*
X13908Y6634D01*
X13896Y6617D01*
X13879Y6580D01*
X13868Y6540D01*
X13865Y6500D01*
X13868Y6459D01*
X13879Y6419D01*
X13896Y6382D01*
X13908Y6365D01*
X13915Y6372D01*
Y5368D01*
X13882Y5353D01*
X13865Y5341D01*
X13915Y5290D01*
Y5009D01*
X13865Y4958D01*
X13882Y4946D01*
X13915Y4931D01*
Y100D01*
X13815D01*
Y5022D01*
X13866Y5072D01*
X13865Y5072D01*
X13854Y5097D01*
X13847Y5123D01*
X13845Y5150D01*
X13847Y5176D01*
X13854Y5203D01*
X13865Y5227D01*
X13866Y5227D01*
X13815Y5277D01*
Y5590D01*
X13841Y5565D01*
X13853Y5582D01*
X13870Y5619D01*
X13881Y5659D01*
X13884Y5700D01*
X13881Y5740D01*
X13870Y5780D01*
X13853Y5817D01*
X13841Y5834D01*
X13815Y5809D01*
Y8746D01*
G37*
G36*
X13915Y8710D02*X13930Y8706D01*
X14000Y8700D01*
X14069Y8706D01*
X14100Y8714D01*
Y6734D01*
X14059Y6731D01*
X14019Y6720D01*
X13982Y6703D01*
X13965Y6691D01*
X14022Y6634D01*
X14022Y6634D01*
X14047Y6645D01*
X14073Y6652D01*
X14100Y6654D01*
Y6345D01*
X14073Y6347D01*
X14047Y6354D01*
X14022Y6365D01*
X14022Y6366D01*
X13965Y6308D01*
X13982Y6296D01*
X14019Y6279D01*
X14059Y6268D01*
X14100Y6265D01*
Y5361D01*
X14080Y5370D01*
X14040Y5381D01*
X14000Y5384D01*
X13959Y5381D01*
X13919Y5370D01*
X13915Y5368D01*
Y6372D01*
X13966Y6422D01*
X13965Y6422D01*
X13954Y6447D01*
X13947Y6473D01*
X13945Y6500D01*
X13947Y6526D01*
X13954Y6553D01*
X13965Y6577D01*
X13966Y6577D01*
X13915Y6627D01*
Y8710D01*
G37*
G36*
X14100Y100D02*X13915D01*
Y4931D01*
X13919Y4929D01*
X13959Y4918D01*
X14000Y4915D01*
X14040Y4918D01*
X14080Y4929D01*
X14100Y4938D01*
Y100D01*
G37*
G36*
Y4993D02*X14077Y5016D01*
X14077Y5015D01*
X14053Y5004D01*
X14026Y4997D01*
X14000Y4995D01*
X13973Y4997D01*
X13947Y5004D01*
X13922Y5015D01*
X13922Y5016D01*
X13915Y5009D01*
Y5290D01*
X13922Y5284D01*
X13922Y5284D01*
X13947Y5295D01*
X13973Y5302D01*
X14000Y5304D01*
X14026Y5302D01*
X14053Y5295D01*
X14077Y5284D01*
X14077Y5284D01*
X14100Y5306D01*
Y4993D01*
G37*
G36*
Y8714D02*X14136Y8724D01*
X14184Y8746D01*
Y6718D01*
X14180Y6720D01*
X14140Y6731D01*
X14100Y6734D01*
Y8714D01*
G37*
G36*
X14184Y4158D02*X14174Y4136D01*
X14156Y4069D01*
X14150Y4000D01*
X14156Y3930D01*
X14174Y3863D01*
X14184Y3841D01*
Y1543D01*
X14153Y1499D01*
X14124Y1436D01*
X14106Y1369D01*
X14100Y1300D01*
X14106Y1230D01*
X14124Y1163D01*
X14153Y1100D01*
X14184Y1056D01*
Y100D01*
X14100D01*
Y4938D01*
X14117Y4946D01*
X14134Y4958D01*
X14100Y4993D01*
Y5306D01*
X14134Y5341D01*
X14117Y5353D01*
X14100Y5361D01*
Y6265D01*
X14140Y6268D01*
X14180Y6279D01*
X14184Y6281D01*
Y5278D01*
X14134Y5227D01*
X14134Y5227D01*
X14145Y5203D01*
X14152Y5176D01*
X14154Y5150D01*
X14152Y5123D01*
X14145Y5097D01*
X14134Y5072D01*
X14134Y5072D01*
X14184Y5022D01*
Y4158D01*
G37*
G36*
Y6359D02*X14177Y6366D01*
X14177Y6365D01*
X14153Y6354D01*
X14126Y6347D01*
X14100Y6345D01*
Y6654D01*
X14126Y6652D01*
X14153Y6645D01*
X14177Y6634D01*
X14177Y6634D01*
X14184Y6640D01*
Y6359D01*
G37*
G36*
Y8746D02*X14200Y8753D01*
X14257Y8793D01*
X14284Y8821D01*
Y6628D01*
X14234Y6577D01*
X14234Y6577D01*
X14245Y6553D01*
X14252Y6526D01*
X14254Y6500D01*
X14252Y6473D01*
X14245Y6447D01*
X14234Y6422D01*
X14234Y6422D01*
X14284Y6372D01*
Y4297D01*
X14243Y4257D01*
X14203Y4199D01*
X14184Y4158D01*
Y5022D01*
X14191Y5015D01*
X14203Y5032D01*
X14220Y5069D01*
X14231Y5109D01*
X14234Y5150D01*
X14231Y5190D01*
X14220Y5230D01*
X14203Y5267D01*
X14191Y5284D01*
X14184Y5278D01*
Y6281D01*
X14217Y6296D01*
X14234Y6308D01*
X14184Y6359D01*
Y6640D01*
X14234Y6691D01*
X14217Y6703D01*
X14184Y6718D01*
Y8746D01*
G37*
G36*
Y3841D02*X14203Y3800D01*
X14243Y3743D01*
X14284Y3702D01*
Y1635D01*
X14255Y1615D01*
X14284Y1586D01*
Y1013D01*
X14255Y985D01*
X14284Y964D01*
Y100D01*
X14184D01*
Y1056D01*
X14185Y1055D01*
X14256Y1127D01*
X14240Y1150D01*
X14218Y1197D01*
X14204Y1247D01*
X14200Y1300D01*
X14204Y1352D01*
X14218Y1402D01*
X14240Y1450D01*
X14256Y1473D01*
X14185Y1544D01*
X14184Y1543D01*
Y3841D01*
G37*
G36*
X14284Y8821D02*X14306Y8842D01*
X14346Y8900D01*
X14365Y8941D01*
Y5977D01*
X14358Y5984D01*
X14346Y5967D01*
X14329Y5930D01*
X14318Y5890D01*
X14315Y5850D01*
X14318Y5809D01*
X14329Y5769D01*
X14346Y5732D01*
X14358Y5715D01*
X14365Y5722D01*
Y4353D01*
X14350Y4346D01*
X14293Y4306D01*
X14284Y4297D01*
Y6372D01*
X14291Y6365D01*
X14303Y6382D01*
X14320Y6419D01*
X14331Y6459D01*
X14334Y6500D01*
X14331Y6540D01*
X14320Y6580D01*
X14303Y6617D01*
X14291Y6634D01*
X14284Y6628D01*
Y8821D01*
G37*
G36*
X14365Y8941D02*X14375Y8963D01*
X14393Y9030D01*
X14399Y9100D01*
X14515D01*
Y6727D01*
X14508Y6734D01*
X14496Y6717D01*
X14479Y6680D01*
X14468Y6640D01*
X14465Y6600D01*
X14468Y6559D01*
X14479Y6519D01*
X14496Y6482D01*
X14508Y6465D01*
X14515Y6472D01*
Y6081D01*
X14509Y6081D01*
X14469Y6070D01*
X14432Y6053D01*
X14415Y6041D01*
X14472Y5984D01*
X14472Y5984D01*
X14497Y5995D01*
X14515Y6000D01*
Y5699D01*
X14497Y5704D01*
X14472Y5715D01*
X14472Y5716D01*
X14415Y5658D01*
X14432Y5646D01*
X14469Y5629D01*
X14509Y5618D01*
X14515Y5618D01*
Y5177D01*
X14508Y5184D01*
X14496Y5167D01*
X14479Y5130D01*
X14468Y5090D01*
X14465Y5050D01*
X14468Y5009D01*
X14479Y4969D01*
X14496Y4932D01*
X14508Y4915D01*
X14515Y4922D01*
Y4396D01*
X14480Y4393D01*
X14413Y4375D01*
X14365Y4353D01*
Y5722D01*
X14416Y5772D01*
X14415Y5772D01*
X14404Y5797D01*
X14397Y5823D01*
X14395Y5850D01*
X14397Y5876D01*
X14404Y5903D01*
X14415Y5927D01*
X14416Y5927D01*
X14365Y5977D01*
Y8941D01*
G37*
G36*
X14284Y3702D02*X14293Y3693D01*
X14350Y3653D01*
X14413Y3624D01*
X14480Y3606D01*
X14515Y3603D01*
Y1698D01*
X14500Y1699D01*
X14430Y1693D01*
X14363Y1675D01*
X14300Y1646D01*
X14284Y1635D01*
Y3702D01*
G37*
G36*
Y1586D02*X14327Y1543D01*
X14350Y1559D01*
X14397Y1581D01*
X14447Y1595D01*
X14500Y1599D01*
X14515Y1598D01*
Y1001D01*
X14500Y1000D01*
X14447Y1004D01*
X14397Y1018D01*
X14350Y1040D01*
X14327Y1056D01*
X14284Y1013D01*
Y1586D01*
G37*
G36*
Y964D02*X14300Y953D01*
X14363Y924D01*
X14430Y906D01*
X14500Y900D01*
X14515Y901D01*
Y100D01*
X14284D01*
Y964D01*
G37*
G36*
X14515Y9100D02*X14700D01*
Y6834D01*
X14659Y6831D01*
X14619Y6820D01*
X14582Y6803D01*
X14565Y6791D01*
X14622Y6734D01*
X14622Y6734D01*
X14647Y6745D01*
X14673Y6752D01*
X14700Y6754D01*
Y6445D01*
X14673Y6447D01*
X14647Y6454D01*
X14622Y6465D01*
X14622Y6466D01*
X14565Y6408D01*
X14582Y6396D01*
X14619Y6379D01*
X14659Y6368D01*
X14700Y6365D01*
Y5943D01*
X14684Y5927D01*
X14684Y5927D01*
X14695Y5903D01*
X14700Y5886D01*
Y5813D01*
X14695Y5797D01*
X14684Y5772D01*
X14684Y5772D01*
X14700Y5756D01*
Y5284D01*
X14659Y5281D01*
X14619Y5270D01*
X14582Y5253D01*
X14565Y5241D01*
X14622Y5184D01*
X14622Y5184D01*
X14647Y5195D01*
X14673Y5202D01*
X14700Y5204D01*
Y4895D01*
X14673Y4897D01*
X14647Y4904D01*
X14622Y4915D01*
X14622Y4916D01*
X14565Y4858D01*
X14582Y4846D01*
X14619Y4829D01*
X14659Y4818D01*
X14700Y4815D01*
Y4369D01*
X14686Y4375D01*
X14619Y4393D01*
X14550Y4399D01*
X14515Y4396D01*
Y4922D01*
X14566Y4972D01*
X14565Y4972D01*
X14554Y4997D01*
X14547Y5023D01*
X14545Y5050D01*
X14547Y5076D01*
X14554Y5103D01*
X14565Y5127D01*
X14566Y5127D01*
X14515Y5177D01*
Y5618D01*
X14550Y5615D01*
X14590Y5618D01*
X14630Y5629D01*
X14667Y5646D01*
X14684Y5658D01*
X14627Y5716D01*
X14627Y5715D01*
X14603Y5704D01*
X14576Y5697D01*
X14550Y5695D01*
X14523Y5697D01*
X14515Y5699D01*
Y6000D01*
X14523Y6002D01*
X14550Y6004D01*
X14576Y6002D01*
X14603Y5995D01*
X14627Y5984D01*
X14627Y5984D01*
X14684Y6041D01*
X14667Y6053D01*
X14630Y6070D01*
X14590Y6081D01*
X14550Y6084D01*
X14515Y6081D01*
Y6472D01*
X14566Y6522D01*
X14565Y6522D01*
X14554Y6547D01*
X14547Y6573D01*
X14545Y6600D01*
X14547Y6626D01*
X14554Y6653D01*
X14565Y6677D01*
X14566Y6677D01*
X14515Y6727D01*
Y9100D01*
G37*
G36*
X14700Y100D02*X14515D01*
Y901D01*
X14569Y906D01*
X14636Y924D01*
X14699Y953D01*
X14700Y953D01*
Y100D01*
G37*
G36*
Y1029D02*X14673Y1056D01*
X14650Y1040D01*
X14602Y1018D01*
X14552Y1004D01*
X14515Y1001D01*
Y1598D01*
X14552Y1595D01*
X14602Y1581D01*
X14650Y1559D01*
X14673Y1543D01*
X14700Y1570D01*
Y1029D01*
G37*
G36*
Y1646D02*X14699Y1646D01*
X14636Y1675D01*
X14569Y1693D01*
X14515Y1698D01*
Y3603D01*
X14550Y3600D01*
X14619Y3606D01*
X14686Y3624D01*
X14700Y3630D01*
Y1646D01*
G37*
G36*
Y9100D02*X14865D01*
Y6709D01*
X14834Y6677D01*
X14834Y6677D01*
X14845Y6653D01*
X14852Y6626D01*
X14854Y6600D01*
X14852Y6573D01*
X14845Y6547D01*
X14834Y6522D01*
X14834Y6522D01*
X14865Y6490D01*
Y6227D01*
X14858Y6234D01*
X14846Y6217D01*
X14829Y6180D01*
X14818Y6140D01*
X14815Y6100D01*
X14818Y6059D01*
X14829Y6019D01*
X14846Y5982D01*
X14858Y5965D01*
X14865Y5972D01*
Y5159D01*
X14834Y5127D01*
X14834Y5127D01*
X14845Y5103D01*
X14852Y5076D01*
X14854Y5050D01*
X14852Y5023D01*
X14845Y4997D01*
X14834Y4972D01*
X14834Y4972D01*
X14865Y4940D01*
Y4243D01*
X14856Y4257D01*
X14807Y4306D01*
X14749Y4346D01*
X14700Y4369D01*
Y4815D01*
X14740Y4818D01*
X14780Y4829D01*
X14817Y4846D01*
X14834Y4858D01*
X14777Y4916D01*
X14777Y4915D01*
X14753Y4904D01*
X14726Y4897D01*
X14700Y4895D01*
Y5204D01*
X14726Y5202D01*
X14753Y5195D01*
X14777Y5184D01*
X14777Y5184D01*
X14834Y5241D01*
X14817Y5253D01*
X14780Y5270D01*
X14740Y5281D01*
X14700Y5284D01*
Y5756D01*
X14741Y5715D01*
X14753Y5732D01*
X14770Y5769D01*
X14781Y5809D01*
X14784Y5850D01*
X14781Y5890D01*
X14770Y5930D01*
X14753Y5967D01*
X14741Y5984D01*
X14700Y5943D01*
Y6365D01*
X14740Y6368D01*
X14780Y6379D01*
X14817Y6396D01*
X14834Y6408D01*
X14777Y6466D01*
X14777Y6465D01*
X14753Y6454D01*
X14726Y6447D01*
X14700Y6445D01*
Y6754D01*
X14726Y6752D01*
X14753Y6745D01*
X14777Y6734D01*
X14777Y6734D01*
X14834Y6791D01*
X14817Y6803D01*
X14780Y6820D01*
X14740Y6831D01*
X14700Y6834D01*
Y9100D01*
G37*
G36*
X14865D02*X14925D01*
Y6663D01*
X14920Y6680D01*
X14903Y6717D01*
X14891Y6734D01*
X14865Y6709D01*
Y9100D01*
G37*
G36*
Y6490D02*X14891Y6465D01*
X14903Y6482D01*
X14916Y6510D01*
X14915Y6500D01*
X14918Y6459D01*
X14925Y6436D01*
Y6297D01*
X14915Y6291D01*
X14925Y6281D01*
Y5918D01*
X14915Y5908D01*
X14925Y5902D01*
Y5113D01*
X14920Y5130D01*
X14903Y5167D01*
X14891Y5184D01*
X14865Y5159D01*
Y5972D01*
X14916Y6022D01*
X14915Y6022D01*
X14904Y6047D01*
X14897Y6073D01*
X14895Y6100D01*
X14897Y6126D01*
X14904Y6153D01*
X14915Y6177D01*
X14916Y6177D01*
X14865Y6227D01*
Y6490D01*
G37*
G36*
Y4940D02*X14891Y4915D01*
X14903Y4932D01*
X14920Y4969D01*
X14925Y4986D01*
Y4138D01*
X14896Y4199D01*
X14865Y4243D01*
Y4940D01*
G37*
G36*
X14821Y100D02*X14700D01*
Y953D01*
X14744Y985D01*
X14700Y1029D01*
Y1570D01*
X14744Y1615D01*
X14700Y1646D01*
Y3630D01*
X14749Y3653D01*
X14807Y3693D01*
X14821Y3708D01*
Y1534D01*
X14815Y1544D01*
X14743Y1473D01*
X14759Y1450D01*
X14781Y1402D01*
X14795Y1352D01*
X14799Y1300D01*
X14795Y1247D01*
X14781Y1197D01*
X14759Y1150D01*
X14743Y1127D01*
X14815Y1055D01*
X14821Y1065D01*
Y100D01*
G37*
G36*
X14925D02*X14821D01*
Y1065D01*
X14846Y1100D01*
X14875Y1163D01*
X14893Y1230D01*
X14899Y1300D01*
X14893Y1369D01*
X14875Y1436D01*
X14846Y1499D01*
X14821Y1534D01*
Y3708D01*
X14856Y3743D01*
X14896Y3800D01*
X14925Y3861D01*
Y100D01*
G37*
G36*
Y9100D02*X15150D01*
Y6734D01*
X15109Y6731D01*
X15069Y6720D01*
X15032Y6703D01*
X15015Y6691D01*
X15072Y6634D01*
X15072Y6634D01*
X15097Y6645D01*
X15123Y6652D01*
X15150Y6654D01*
Y6345D01*
X15123Y6347D01*
X15097Y6354D01*
X15072Y6365D01*
X15072Y6366D01*
X15040Y6333D01*
X15009Y6331D01*
X14969Y6320D01*
X14932Y6303D01*
X14925Y6297D01*
Y6436D01*
X14929Y6419D01*
X14946Y6382D01*
X14958Y6365D01*
X15016Y6422D01*
X15015Y6422D01*
X15004Y6447D01*
X14997Y6473D01*
X14995Y6500D01*
X14997Y6526D01*
X15004Y6553D01*
X15015Y6577D01*
X15016Y6577D01*
X14958Y6634D01*
X14946Y6617D01*
X14933Y6589D01*
X14934Y6600D01*
X14931Y6640D01*
X14925Y6663D01*
Y9100D01*
G37*
G36*
Y6281D02*X14972Y6234D01*
X14972Y6234D01*
X14997Y6245D01*
X15023Y6252D01*
X15050Y6254D01*
X15076Y6252D01*
X15103Y6245D01*
X15127Y6234D01*
X15127Y6234D01*
X15150Y6256D01*
Y5943D01*
X15127Y5966D01*
X15127Y5965D01*
X15103Y5954D01*
X15076Y5947D01*
X15050Y5945D01*
X15023Y5947D01*
X14997Y5954D01*
X14972Y5965D01*
X14972Y5966D01*
X14925Y5918D01*
Y6281D01*
G37*
G36*
Y5902D02*X14932Y5896D01*
X14969Y5879D01*
X15009Y5868D01*
X15050Y5865D01*
X15090Y5868D01*
X15130Y5879D01*
X15150Y5888D01*
Y100D01*
X14925D01*
Y3861D01*
X14925Y3863D01*
X14943Y3930D01*
X14949Y4000D01*
X14943Y4069D01*
X14925Y4136D01*
X14925Y4138D01*
Y4986D01*
X14931Y5009D01*
X14934Y5050D01*
X14931Y5090D01*
X14925Y5113D01*
Y5902D01*
G37*
G36*
X14700Y5886D02*X14702Y5876D01*
X14704Y5850D01*
X14702Y5823D01*
X14700Y5813D01*
Y5886D01*
G37*
G36*
X15150Y9100D02*X15265D01*
Y6704D01*
X15230Y6720D01*
X15190Y6731D01*
X15150Y6734D01*
Y9100D01*
G37*
G36*
X15265Y100D02*X15150D01*
Y5888D01*
X15167Y5896D01*
X15184Y5908D01*
X15150Y5943D01*
Y6256D01*
X15159Y6266D01*
X15190Y6268D01*
X15230Y6279D01*
X15265Y6295D01*
Y6190D01*
X15253Y6217D01*
X15241Y6234D01*
X15184Y6177D01*
X15184Y6177D01*
X15195Y6153D01*
X15202Y6126D01*
X15204Y6100D01*
X15202Y6073D01*
X15195Y6047D01*
X15184Y6022D01*
X15184Y6022D01*
X15241Y5965D01*
X15253Y5982D01*
X15265Y6009D01*
Y5027D01*
X15258Y5034D01*
X15246Y5017D01*
X15229Y4980D01*
X15218Y4940D01*
X15215Y4900D01*
X15218Y4859D01*
X15229Y4819D01*
X15246Y4782D01*
X15258Y4765D01*
X15265Y4772D01*
Y100D01*
G37*
G36*
Y6327D02*X15227Y6366D01*
X15227Y6365D01*
X15203Y6354D01*
X15176Y6347D01*
X15150Y6345D01*
Y6654D01*
X15176Y6652D01*
X15203Y6645D01*
X15227Y6634D01*
X15227Y6634D01*
X15265Y6672D01*
Y6327D01*
G37*
G36*
Y9100D02*X15334D01*
Y6628D01*
X15284Y6577D01*
X15284Y6577D01*
X15295Y6553D01*
X15302Y6526D01*
X15304Y6500D01*
X15302Y6473D01*
X15295Y6447D01*
X15284Y6422D01*
X15284Y6422D01*
X15334Y6372D01*
Y5104D01*
X15332Y5103D01*
X15315Y5091D01*
X15334Y5072D01*
Y4728D01*
X15315Y4708D01*
X15332Y4696D01*
X15334Y4695D01*
Y100D01*
X15265D01*
Y4772D01*
X15316Y4822D01*
X15315Y4822D01*
X15304Y4847D01*
X15297Y4873D01*
X15295Y4900D01*
X15297Y4926D01*
X15304Y4953D01*
X15315Y4977D01*
X15316Y4977D01*
X15265Y5027D01*
Y6009D01*
X15270Y6019D01*
X15281Y6059D01*
X15284Y6100D01*
X15281Y6140D01*
X15270Y6180D01*
X15265Y6190D01*
Y6295D01*
X15267Y6296D01*
X15284Y6308D01*
X15265Y6327D01*
Y6672D01*
X15284Y6691D01*
X15267Y6703D01*
X15265Y6704D01*
Y9100D01*
G37*
G36*
X15334D02*X15448D01*
Y8745D01*
X15444Y8749D01*
X15429Y8727D01*
X15410Y8687D01*
X15399Y8644D01*
X15395Y8600D01*
X15399Y8555D01*
X15410Y8512D01*
X15429Y8472D01*
X15444Y8450D01*
X15448Y8454D01*
Y6145D01*
X15444Y6149D01*
X15429Y6127D01*
X15410Y6087D01*
X15399Y6044D01*
X15395Y6000D01*
X15399Y5955D01*
X15410Y5912D01*
X15429Y5872D01*
X15444Y5850D01*
X15448Y5854D01*
Y5134D01*
X15409Y5131D01*
X15369Y5120D01*
X15334Y5104D01*
Y6372D01*
X15341Y6365D01*
X15353Y6382D01*
X15370Y6419D01*
X15381Y6459D01*
X15384Y6500D01*
X15381Y6540D01*
X15370Y6580D01*
X15353Y6617D01*
X15341Y6634D01*
X15334Y6628D01*
Y9100D01*
G37*
G36*
X15448Y100D02*X15334D01*
Y4695D01*
X15369Y4679D01*
X15409Y4668D01*
X15448Y4665D01*
Y100D01*
G37*
G36*
Y4745D02*X15423Y4747D01*
X15397Y4754D01*
X15372Y4765D01*
X15372Y4766D01*
X15334Y4728D01*
Y5072D01*
X15372Y5034D01*
X15372Y5034D01*
X15397Y5045D01*
X15423Y5052D01*
X15448Y5054D01*
Y4745D01*
G37*
G36*
Y9100D02*X15634D01*
Y8853D01*
X15605Y8850D01*
X15562Y8839D01*
X15522Y8820D01*
X15500Y8805D01*
X15558Y8748D01*
X15562Y8751D01*
X15590Y8764D01*
X15619Y8772D01*
X15634Y8773D01*
Y8426D01*
X15619Y8427D01*
X15590Y8435D01*
X15562Y8448D01*
X15558Y8451D01*
X15500Y8394D01*
X15522Y8379D01*
X15562Y8360D01*
X15605Y8349D01*
X15634Y8346D01*
Y6253D01*
X15605Y6250D01*
X15562Y6239D01*
X15522Y6220D01*
X15500Y6205D01*
X15558Y6148D01*
X15562Y6151D01*
X15590Y6164D01*
X15619Y6172D01*
X15634Y6173D01*
Y5826D01*
X15619Y5827D01*
X15590Y5835D01*
X15562Y5848D01*
X15558Y5851D01*
X15500Y5794D01*
X15522Y5779D01*
X15562Y5760D01*
X15605Y5749D01*
X15634Y5746D01*
Y5028D01*
X15584Y4977D01*
X15584Y4977D01*
X15595Y4953D01*
X15602Y4926D01*
X15604Y4900D01*
X15602Y4873D01*
X15595Y4847D01*
X15584Y4822D01*
X15584Y4822D01*
X15634Y4772D01*
Y100D01*
X15448D01*
Y4665D01*
X15450Y4665D01*
X15490Y4668D01*
X15530Y4679D01*
X15567Y4696D01*
X15584Y4708D01*
X15527Y4766D01*
X15527Y4765D01*
X15503Y4754D01*
X15476Y4747D01*
X15450Y4745D01*
X15448Y4745D01*
Y5054D01*
X15450Y5054D01*
X15476Y5052D01*
X15503Y5045D01*
X15527Y5034D01*
X15527Y5034D01*
X15584Y5091D01*
X15567Y5103D01*
X15530Y5120D01*
X15490Y5131D01*
X15450Y5134D01*
X15448Y5134D01*
Y5854D01*
X15501Y5908D01*
X15498Y5912D01*
X15485Y5940D01*
X15477Y5969D01*
X15475Y6000D01*
X15477Y6030D01*
X15485Y6059D01*
X15498Y6087D01*
X15501Y6092D01*
X15448Y6145D01*
Y8454D01*
X15501Y8508D01*
X15498Y8512D01*
X15485Y8540D01*
X15477Y8569D01*
X15475Y8600D01*
X15477Y8630D01*
X15485Y8659D01*
X15498Y8687D01*
X15501Y8692D01*
X15448Y8745D01*
Y9100D01*
G37*
G36*
X15634D02*X15851D01*
Y8745D01*
X15798Y8692D01*
X15801Y8687D01*
X15814Y8659D01*
X15822Y8630D01*
X15824Y8600D01*
X15822Y8569D01*
X15814Y8540D01*
X15801Y8512D01*
X15798Y8508D01*
X15851Y8454D01*
Y6145D01*
X15798Y6092D01*
X15801Y6087D01*
X15814Y6059D01*
X15822Y6030D01*
X15824Y6000D01*
X15822Y5969D01*
X15814Y5940D01*
X15801Y5912D01*
X15798Y5908D01*
X15851Y5854D01*
Y100D01*
X15634D01*
Y4772D01*
X15641Y4765D01*
X15653Y4782D01*
X15670Y4819D01*
X15681Y4859D01*
X15684Y4900D01*
X15681Y4940D01*
X15670Y4980D01*
X15653Y5017D01*
X15641Y5034D01*
X15634Y5028D01*
Y5746D01*
X15650Y5745D01*
X15694Y5749D01*
X15737Y5760D01*
X15777Y5779D01*
X15799Y5794D01*
X15742Y5851D01*
X15737Y5848D01*
X15709Y5835D01*
X15680Y5827D01*
X15650Y5825D01*
X15634Y5826D01*
Y6173D01*
X15650Y6174D01*
X15680Y6172D01*
X15709Y6164D01*
X15737Y6151D01*
X15742Y6148D01*
X15799Y6205D01*
X15777Y6220D01*
X15737Y6239D01*
X15694Y6250D01*
X15650Y6254D01*
X15634Y6253D01*
Y8346D01*
X15650Y8345D01*
X15694Y8349D01*
X15737Y8360D01*
X15777Y8379D01*
X15799Y8394D01*
X15742Y8451D01*
X15737Y8448D01*
X15709Y8435D01*
X15680Y8427D01*
X15650Y8425D01*
X15634Y8426D01*
Y8773D01*
X15650Y8774D01*
X15680Y8772D01*
X15709Y8764D01*
X15737Y8751D01*
X15742Y8748D01*
X15799Y8805D01*
X15777Y8820D01*
X15737Y8839D01*
X15694Y8850D01*
X15650Y8854D01*
X15634Y8853D01*
Y9100D01*
G37*
G36*
X15851D02*X16850D01*
Y7159D01*
X16804Y7155D01*
X16761Y7144D01*
X16720Y7125D01*
X16683Y7099D01*
X16651Y7067D01*
X16625Y7029D01*
X16605Y6988D01*
X16594Y6945D01*
X16590Y6900D01*
X16594Y6854D01*
X16605Y6811D01*
X16625Y6770D01*
X16651Y6733D01*
X16683Y6701D01*
X16720Y6675D01*
X16761Y6655D01*
X16804Y6644D01*
X16850Y6640D01*
Y100D01*
X15851D01*
Y5854D01*
X15855Y5850D01*
X15870Y5872D01*
X15889Y5912D01*
X15900Y5955D01*
X15904Y6000D01*
X15900Y6044D01*
X15889Y6087D01*
X15870Y6127D01*
X15855Y6149D01*
X15851Y6145D01*
Y8454D01*
X15855Y8450D01*
X15870Y8472D01*
X15889Y8512D01*
X15900Y8555D01*
X15904Y8600D01*
X15900Y8644D01*
X15889Y8687D01*
X15870Y8727D01*
X15855Y8749D01*
X15851Y8745D01*
Y9100D01*
G37*
G36*
X16850D02*X17150D01*
Y6588D01*
X17120Y6575D01*
X17083Y6549D01*
X17051Y6517D01*
X17025Y6479D01*
X17005Y6438D01*
X16994Y6395D01*
X16990Y6350D01*
X16994Y6304D01*
X17005Y6261D01*
X17025Y6220D01*
X17051Y6183D01*
X17083Y6151D01*
X17120Y6125D01*
X17150Y6111D01*
Y3717D01*
X17144Y3695D01*
X17140Y3650D01*
X17144Y3604D01*
X17150Y3583D01*
Y100D01*
X16850D01*
Y6640D01*
X16895Y6644D01*
X16938Y6655D01*
X16979Y6675D01*
X17017Y6701D01*
X17049Y6733D01*
X17075Y6770D01*
X17094Y6811D01*
X17105Y6854D01*
X17109Y6900D01*
X17105Y6945D01*
X17094Y6988D01*
X17075Y7029D01*
X17049Y7067D01*
X17017Y7099D01*
X16979Y7125D01*
X16938Y7144D01*
X16895Y7155D01*
X16850Y7159D01*
Y9100D01*
G37*
G36*
X445Y13150D02*X50D01*
Y24850D01*
X445D01*
Y23848D01*
X434Y23859D01*
X410Y23825D01*
X377Y23753D01*
X356Y23678D01*
X350Y23600D01*
X356Y23521D01*
X377Y23446D01*
X410Y23375D01*
X434Y23340D01*
X445Y23352D01*
Y23039D01*
X425Y23029D01*
X403Y23014D01*
X385Y22996D01*
X370Y22975D01*
X359Y22951D01*
X352Y22926D01*
X350Y22900D01*
X352Y22274D01*
X359Y22248D01*
X370Y22225D01*
X385Y22203D01*
X403Y22185D01*
X425Y22170D01*
X445Y22160D01*
Y13150D01*
G37*
G36*
X800D02*X445D01*
Y22160D01*
X448Y22159D01*
X474Y22152D01*
X500Y22150D01*
X800Y22151D01*
Y13150D01*
G37*
G36*
Y23048D02*X474Y23047D01*
X448Y23041D01*
X445Y23039D01*
Y23352D01*
X541Y23447D01*
X540Y23450D01*
X518Y23497D01*
X504Y23547D01*
X500Y23600D01*
X504Y23652D01*
X518Y23702D01*
X540Y23750D01*
X541Y23752D01*
X445Y23848D01*
Y24850D01*
X800D01*
Y24050D01*
X721Y24043D01*
X646Y24022D01*
X575Y23989D01*
X540Y23965D01*
X647Y23858D01*
X650Y23859D01*
X697Y23881D01*
X747Y23895D01*
X800Y23900D01*
Y23300D01*
X747Y23304D01*
X697Y23318D01*
X650Y23340D01*
X647Y23341D01*
X540Y23234D01*
X575Y23210D01*
X646Y23177D01*
X721Y23156D01*
X800Y23150D01*
Y23048D01*
G37*
G36*
X1154Y13150D02*X800D01*
Y22151D01*
X1126Y22152D01*
X1151Y22159D01*
X1154Y22160D01*
Y13150D01*
G37*
G36*
Y23039D02*X1151Y23041D01*
X1126Y23047D01*
X1100Y23050D01*
X800Y23048D01*
Y23150D01*
X878Y23156D01*
X953Y23177D01*
X1025Y23210D01*
X1059Y23234D01*
X952Y23341D01*
X950Y23340D01*
X902Y23318D01*
X852Y23304D01*
X800Y23300D01*
Y23900D01*
X852Y23895D01*
X902Y23881D01*
X950Y23859D01*
X952Y23858D01*
X1059Y23965D01*
X1025Y23989D01*
X953Y24022D01*
X878Y24043D01*
X800Y24050D01*
Y24850D01*
X1154D01*
Y23848D01*
X1058Y23752D01*
X1059Y23750D01*
X1081Y23702D01*
X1095Y23652D01*
X1100Y23600D01*
X1095Y23547D01*
X1081Y23497D01*
X1059Y23450D01*
X1058Y23447D01*
X1154Y23351D01*
Y23039D01*
G37*
G36*
X1445Y13150D02*X1154D01*
Y22160D01*
X1175Y22170D01*
X1196Y22185D01*
X1214Y22203D01*
X1229Y22225D01*
X1241Y22248D01*
X1247Y22274D01*
X1250Y22300D01*
X1247Y22926D01*
X1241Y22951D01*
X1229Y22975D01*
X1214Y22996D01*
X1196Y23014D01*
X1175Y23029D01*
X1154Y23039D01*
Y23351D01*
X1165Y23340D01*
X1189Y23375D01*
X1222Y23446D01*
X1243Y23521D01*
X1250Y23600D01*
X1243Y23678D01*
X1222Y23753D01*
X1189Y23825D01*
X1165Y23859D01*
X1154Y23848D01*
Y24850D01*
X1445D01*
Y23848D01*
X1434Y23859D01*
X1410Y23825D01*
X1377Y23753D01*
X1356Y23678D01*
X1350Y23600D01*
X1356Y23521D01*
X1377Y23446D01*
X1410Y23375D01*
X1434Y23340D01*
X1445Y23352D01*
Y22875D01*
X1410Y22825D01*
X1377Y22753D01*
X1356Y22678D01*
X1350Y22600D01*
X1356Y22521D01*
X1377Y22446D01*
X1410Y22375D01*
X1445Y22324D01*
Y13150D01*
G37*
G36*
X1800D02*X1445D01*
Y22324D01*
X1455Y22310D01*
X1510Y22255D01*
X1575Y22210D01*
X1646Y22177D01*
X1721Y22156D01*
X1800Y22150D01*
Y13150D01*
G37*
G36*
X1445Y24850D02*X1800D01*
Y24050D01*
X1721Y24043D01*
X1646Y24022D01*
X1575Y23989D01*
X1540Y23965D01*
X1647Y23858D01*
X1650Y23859D01*
X1697Y23881D01*
X1747Y23895D01*
X1800Y23900D01*
Y23300D01*
X1747Y23304D01*
X1697Y23318D01*
X1650Y23340D01*
X1647Y23341D01*
X1540Y23234D01*
X1575Y23210D01*
X1646Y23177D01*
X1721Y23156D01*
X1800Y23150D01*
Y23050D01*
X1721Y23043D01*
X1646Y23022D01*
X1575Y22989D01*
X1510Y22944D01*
X1455Y22889D01*
X1445Y22875D01*
Y23352D01*
X1541Y23447D01*
X1540Y23450D01*
X1518Y23497D01*
X1504Y23547D01*
X1500Y23600D01*
X1504Y23652D01*
X1518Y23702D01*
X1540Y23750D01*
X1541Y23752D01*
X1445Y23848D01*
Y24850D01*
G37*
G36*
X2154Y13150D02*X1800D01*
Y22150D01*
X1878Y22156D01*
X1953Y22177D01*
X2025Y22210D01*
X2089Y22255D01*
X2144Y22310D01*
X2154Y22324D01*
Y13150D01*
G37*
G36*
Y22875D02*X2144Y22889D01*
X2089Y22944D01*
X2025Y22989D01*
X1953Y23022D01*
X1878Y23043D01*
X1800Y23050D01*
Y23150D01*
X1878Y23156D01*
X1953Y23177D01*
X2025Y23210D01*
X2059Y23234D01*
X1952Y23341D01*
X1950Y23340D01*
X1902Y23318D01*
X1852Y23304D01*
X1800Y23300D01*
Y23900D01*
X1852Y23895D01*
X1902Y23881D01*
X1950Y23859D01*
X1952Y23858D01*
X2059Y23965D01*
X2025Y23989D01*
X1953Y24022D01*
X1878Y24043D01*
X1800Y24050D01*
Y24850D01*
X2154D01*
Y23848D01*
X2058Y23752D01*
X2059Y23750D01*
X2081Y23702D01*
X2095Y23652D01*
X2100Y23600D01*
X2095Y23547D01*
X2081Y23497D01*
X2059Y23450D01*
X2058Y23447D01*
X2154Y23351D01*
Y22875D01*
G37*
G36*
X2445Y22875D02*X2410Y22825D01*
X2377Y22753D01*
X2356Y22678D01*
X2350Y22600D01*
X2356Y22521D01*
X2377Y22446D01*
X2410Y22375D01*
X2445Y22324D01*
Y13150D01*
X2154D01*
Y22324D01*
X2189Y22375D01*
X2222Y22446D01*
X2243Y22521D01*
X2250Y22600D01*
X2243Y22678D01*
X2222Y22753D01*
X2189Y22825D01*
X2154Y22875D01*
Y23351D01*
X2165Y23340D01*
X2189Y23375D01*
X2222Y23446D01*
X2243Y23521D01*
X2250Y23600D01*
X2243Y23678D01*
X2222Y23753D01*
X2189Y23825D01*
X2165Y23859D01*
X2154Y23848D01*
Y24850D01*
X2445D01*
Y23848D01*
X2434Y23859D01*
X2410Y23825D01*
X2377Y23753D01*
X2356Y23678D01*
X2350Y23600D01*
X2356Y23521D01*
X2377Y23446D01*
X2410Y23375D01*
X2434Y23340D01*
X2445Y23352D01*
Y22875D01*
G37*
G36*
X2550Y24850D02*Y23972D01*
X2540Y23965D01*
X2550Y23956D01*
Y23243D01*
X2540Y23234D01*
X2550Y23227D01*
Y22972D01*
X2510Y22944D01*
X2455Y22889D01*
X2445Y22875D01*
Y23352D01*
X2541Y23447D01*
X2540Y23450D01*
X2518Y23497D01*
X2504Y23547D01*
X2500Y23600D01*
X2504Y23652D01*
X2518Y23702D01*
X2540Y23750D01*
X2541Y23752D01*
X2445Y23848D01*
Y24850D01*
X2550D01*
G37*
G36*
X2445Y22324D02*X2455Y22310D01*
X2510Y22255D01*
X2550Y22227D01*
Y13150D01*
X2445D01*
Y22324D01*
G37*
G36*
X2300Y14650D02*Y21500D01*
X4198D01*
Y16645D01*
X4194Y16649D01*
X4179Y16627D01*
X4160Y16587D01*
X4149Y16544D01*
X4145Y16500D01*
X4149Y16455D01*
X4160Y16412D01*
X4179Y16372D01*
X4194Y16351D01*
X4198Y16355D01*
Y14650D01*
X2300D01*
G37*
G36*
X4198Y21500D02*X4400D01*
Y16754D01*
X4355Y16750D01*
X4312Y16739D01*
X4272Y16720D01*
X4251Y16705D01*
X4308Y16648D01*
X4312Y16651D01*
X4340Y16664D01*
X4369Y16672D01*
X4400Y16674D01*
Y16325D01*
X4369Y16327D01*
X4340Y16335D01*
X4312Y16348D01*
X4308Y16351D01*
X4251Y16294D01*
X4272Y16279D01*
X4312Y16260D01*
X4355Y16249D01*
X4400Y16245D01*
Y14650D01*
X4198D01*
Y16355D01*
X4251Y16408D01*
X4248Y16412D01*
X4235Y16440D01*
X4227Y16469D01*
X4225Y16500D01*
X4227Y16530D01*
X4235Y16559D01*
X4248Y16587D01*
X4251Y16591D01*
X4198Y16645D01*
Y21500D01*
G37*
G36*
X4400D02*X4601D01*
Y16645D01*
X4548Y16591D01*
X4551Y16587D01*
X4564Y16559D01*
X4572Y16530D01*
X4574Y16500D01*
X4572Y16469D01*
X4564Y16440D01*
X4551Y16412D01*
X4548Y16408D01*
X4601Y16354D01*
Y14650D01*
X4400D01*
Y16245D01*
X4444Y16249D01*
X4487Y16260D01*
X4527Y16279D01*
X4549Y16294D01*
X4491Y16351D01*
X4487Y16348D01*
X4459Y16335D01*
X4430Y16327D01*
X4400Y16325D01*
Y16674D01*
X4430Y16672D01*
X4459Y16664D01*
X4487Y16651D01*
X4491Y16648D01*
X4549Y16705D01*
X4527Y16720D01*
X4487Y16739D01*
X4444Y16750D01*
X4400Y16754D01*
Y21500D01*
G37*
G36*
X4601D02*X5500D01*
Y20260D01*
X5368Y20248D01*
X5240Y20214D01*
X5120Y20158D01*
X5011Y20082D01*
X4917Y19988D01*
X4841Y19880D01*
X4785Y19759D01*
X4751Y19632D01*
X4740Y19500D01*
X4751Y19368D01*
X4785Y19240D01*
X4841Y19120D01*
X4917Y19011D01*
X5011Y18917D01*
X5120Y18841D01*
X5240Y18785D01*
X5368Y18751D01*
X5500Y18740D01*
Y14650D01*
X4601D01*
Y16354D01*
X4605Y16351D01*
X4620Y16372D01*
X4639Y16412D01*
X4650Y16455D01*
X4654Y16500D01*
X4650Y16544D01*
X4639Y16587D01*
X4620Y16627D01*
X4605Y16649D01*
X4601Y16645D01*
Y21500D01*
G37*
G36*
X5500D02*X6051D01*
Y20019D01*
X5988Y20082D01*
X5880Y20158D01*
X5759Y20214D01*
X5632Y20248D01*
X5500Y20260D01*
Y21500D01*
G37*
G36*
X5648Y14650D02*X5500D01*
Y18740D01*
X5632Y18751D01*
X5648Y18755D01*
Y15637D01*
X5645Y15600D01*
X5648Y15562D01*
Y15095D01*
X5644Y15099D01*
X5629Y15077D01*
X5610Y15037D01*
X5599Y14994D01*
X5595Y14950D01*
X5599Y14905D01*
X5610Y14862D01*
X5629Y14822D01*
X5644Y14801D01*
X5648Y14805D01*
Y14650D01*
G37*
G36*
X5850D02*X5648D01*
Y14805D01*
X5701Y14858D01*
X5698Y14862D01*
X5685Y14890D01*
X5677Y14919D01*
X5675Y14950D01*
X5677Y14980D01*
X5685Y15009D01*
X5698Y15037D01*
X5701Y15041D01*
X5648Y15095D01*
Y15562D01*
X5649Y15555D01*
X5660Y15512D01*
X5679Y15472D01*
X5704Y15436D01*
X5736Y15404D01*
X5772Y15379D01*
X5812Y15360D01*
X5850Y15350D01*
Y15204D01*
X5805Y15200D01*
X5762Y15189D01*
X5722Y15170D01*
X5701Y15155D01*
X5758Y15098D01*
X5762Y15101D01*
X5790Y15114D01*
X5819Y15122D01*
X5850Y15124D01*
Y14775D01*
X5819Y14777D01*
X5790Y14785D01*
X5762Y14798D01*
X5758Y14801D01*
X5701Y14744D01*
X5722Y14729D01*
X5762Y14710D01*
X5805Y14699D01*
X5850Y14695D01*
Y14650D01*
G37*
G36*
X5648Y18755D02*X5759Y18785D01*
X5850Y18827D01*
Y15849D01*
X5812Y15839D01*
X5772Y15820D01*
X5736Y15795D01*
X5704Y15763D01*
X5679Y15727D01*
X5660Y15687D01*
X5649Y15644D01*
X5648Y15637D01*
Y18755D01*
G37*
G36*
X6051Y14650D02*X5850D01*
Y14695D01*
X5894Y14699D01*
X5937Y14710D01*
X5977Y14729D01*
X5999Y14744D01*
X5941Y14801D01*
X5937Y14798D01*
X5909Y14785D01*
X5880Y14777D01*
X5850Y14775D01*
Y15124D01*
X5880Y15122D01*
X5909Y15114D01*
X5937Y15101D01*
X5941Y15098D01*
X5999Y15155D01*
X5977Y15170D01*
X5937Y15189D01*
X5894Y15200D01*
X5850Y15204D01*
Y15350D01*
X5855Y15349D01*
X5900Y15345D01*
X5944Y15349D01*
X5987Y15360D01*
X6027Y15379D01*
X6051Y15396D01*
Y15095D01*
X5998Y15041D01*
X6001Y15037D01*
X6014Y15009D01*
X6022Y14980D01*
X6024Y14950D01*
X6022Y14919D01*
X6014Y14890D01*
X6001Y14862D01*
X5998Y14858D01*
X6051Y14804D01*
Y14650D01*
G37*
G36*
X5850Y18827D02*X5880Y18841D01*
X5988Y18917D01*
X6051Y18980D01*
Y15803D01*
X6027Y15820D01*
X5987Y15839D01*
X5944Y15850D01*
X5900Y15854D01*
X5855Y15850D01*
X5850Y15849D01*
Y18827D01*
G37*
G36*
X6051Y21500D02*X7300D01*
Y16204D01*
X7255Y16200D01*
X7212Y16189D01*
X7172Y16170D01*
X7136Y16145D01*
X7104Y16113D01*
X7079Y16077D01*
X7060Y16037D01*
X7049Y15994D01*
X7045Y15950D01*
X7049Y15905D01*
X7060Y15862D01*
X7079Y15822D01*
X7104Y15786D01*
X7136Y15754D01*
X7172Y15729D01*
X7212Y15710D01*
X7255Y15699D01*
X7300Y15695D01*
Y14650D01*
X6051D01*
Y14804D01*
X6055Y14801D01*
X6070Y14822D01*
X6089Y14862D01*
X6100Y14905D01*
X6104Y14950D01*
X6100Y14994D01*
X6089Y15037D01*
X6070Y15077D01*
X6055Y15099D01*
X6051Y15095D01*
Y15396D01*
X6063Y15404D01*
X6095Y15436D01*
X6120Y15472D01*
X6139Y15512D01*
X6150Y15555D01*
X6154Y15600D01*
X6150Y15644D01*
X6139Y15687D01*
X6120Y15727D01*
X6095Y15763D01*
X6063Y15795D01*
X6051Y15803D01*
Y18980D01*
X6082Y19011D01*
X6158Y19120D01*
X6214Y19240D01*
X6248Y19368D01*
X6260Y19500D01*
X6248Y19632D01*
X6214Y19759D01*
X6158Y19880D01*
X6082Y19988D01*
X6051Y20019D01*
Y21500D01*
G37*
G36*
X7300D02*X8478D01*
Y16335D01*
X8453Y16299D01*
X8424Y16236D01*
X8406Y16169D01*
X8400Y16100D01*
X8406Y16030D01*
X8424Y15963D01*
X8453Y15900D01*
X8478Y15864D01*
Y14996D01*
X8477Y14995D01*
X8431Y14930D01*
X8397Y14857D01*
X8377Y14779D01*
X8370Y14700D01*
X8374Y14650D01*
X7300D01*
Y15695D01*
X7344Y15699D01*
X7387Y15710D01*
X7427Y15729D01*
X7463Y15754D01*
X7495Y15786D01*
X7520Y15822D01*
X7539Y15862D01*
X7550Y15905D01*
X7554Y15950D01*
X7550Y15994D01*
X7539Y16037D01*
X7520Y16077D01*
X7495Y16113D01*
X7463Y16145D01*
X7427Y16170D01*
X7387Y16189D01*
X7344Y16200D01*
X7300Y16204D01*
Y21500D01*
G37*
G36*
X8478D02*X8800D01*
Y16499D01*
X8730Y16493D01*
X8663Y16475D01*
X8600Y16446D01*
X8555Y16415D01*
X8627Y16343D01*
X8650Y16359D01*
X8697Y16381D01*
X8747Y16395D01*
X8800Y16399D01*
Y15800D01*
X8747Y15804D01*
X8697Y15818D01*
X8650Y15840D01*
X8627Y15856D01*
X8555Y15785D01*
X8600Y15753D01*
X8663Y15724D01*
X8730Y15706D01*
X8800Y15700D01*
Y15157D01*
X8750Y15153D01*
X8672Y15132D01*
X8600Y15098D01*
X8534Y15052D01*
X8478Y14996D01*
Y15864D01*
X8485Y15855D01*
X8556Y15927D01*
X8540Y15950D01*
X8518Y15997D01*
X8504Y16047D01*
X8500Y16100D01*
X8504Y16152D01*
X8518Y16202D01*
X8540Y16250D01*
X8556Y16273D01*
X8485Y16344D01*
X8478Y16335D01*
Y21500D01*
G37*
G36*
X8800D02*X9121D01*
Y16334D01*
X9115Y16344D01*
X9043Y16273D01*
X9059Y16250D01*
X9081Y16202D01*
X9095Y16152D01*
X9099Y16100D01*
X9095Y16047D01*
X9081Y15997D01*
X9059Y15950D01*
X9043Y15927D01*
X9115Y15855D01*
X9121Y15865D01*
Y15055D01*
X9060Y15098D01*
X8987Y15132D01*
X8909Y15153D01*
X8830Y15160D01*
X8800Y15157D01*
Y15700D01*
X8869Y15706D01*
X8936Y15724D01*
X8999Y15753D01*
X9044Y15785D01*
X8973Y15856D01*
X8950Y15840D01*
X8902Y15818D01*
X8852Y15804D01*
X8800Y15800D01*
Y16399D01*
X8852Y16395D01*
X8902Y16381D01*
X8950Y16359D01*
X8973Y16343D01*
X9044Y16415D01*
X8999Y16446D01*
X8936Y16475D01*
X8869Y16493D01*
X8800Y16499D01*
Y21500D01*
G37*
G36*
X9121D02*X13950D01*
Y17754D01*
X13945Y17755D01*
X13900Y17759D01*
X13854Y17755D01*
X13811Y17744D01*
X13770Y17725D01*
X13733Y17699D01*
X13701Y17667D01*
X13675Y17629D01*
X13655Y17588D01*
X13644Y17545D01*
X13640Y17500D01*
X13644Y17454D01*
X13655Y17411D01*
X13675Y17370D01*
X13701Y17333D01*
X13733Y17301D01*
X13770Y17275D01*
X13811Y17255D01*
X13854Y17244D01*
X13900Y17240D01*
X13945Y17244D01*
X13950Y17245D01*
Y14650D01*
X9285D01*
X9290Y14700D01*
X9283Y14779D01*
X9262Y14857D01*
X9228Y14930D01*
X9182Y14995D01*
X9125Y15052D01*
X9121Y15055D01*
Y15865D01*
X9146Y15900D01*
X9175Y15963D01*
X9193Y16030D01*
X9199Y16100D01*
X9193Y16169D01*
X9175Y16236D01*
X9146Y16299D01*
X9121Y16334D01*
Y21500D01*
G37*
G36*
X2300Y13150D02*Y14850D01*
X4000D01*
Y14554D01*
X3955Y14550D01*
X3912Y14539D01*
X3872Y14520D01*
X3836Y14495D01*
X3804Y14463D01*
X3779Y14427D01*
X3760Y14387D01*
X3749Y14344D01*
X3745Y14300D01*
X3749Y14255D01*
X3760Y14212D01*
X3779Y14172D01*
X3804Y14136D01*
X3836Y14104D01*
X3872Y14079D01*
X3912Y14060D01*
X3955Y14049D01*
X4000Y14045D01*
Y13150D01*
X2300D01*
G37*
G36*
X4000Y14850D02*X5616D01*
X5629Y14822D01*
X5644Y14801D01*
X5693Y14850D01*
X5850D01*
Y14775D01*
X5819Y14777D01*
X5790Y14785D01*
X5762Y14798D01*
X5758Y14801D01*
X5701Y14744D01*
X5722Y14729D01*
X5762Y14710D01*
X5805Y14699D01*
X5850Y14695D01*
Y13150D01*
X4000D01*
Y14045D01*
X4044Y14049D01*
X4087Y14060D01*
X4127Y14079D01*
X4163Y14104D01*
X4195Y14136D01*
X4220Y14172D01*
X4239Y14212D01*
X4250Y14255D01*
X4254Y14300D01*
X4250Y14344D01*
X4239Y14387D01*
X4220Y14427D01*
X4195Y14463D01*
X4163Y14495D01*
X4127Y14520D01*
X4087Y14539D01*
X4044Y14550D01*
X4000Y14554D01*
Y14850D01*
G37*
G36*
X5850D02*X6006D01*
X6055Y14801D01*
X6070Y14822D01*
X6083Y14850D01*
X6450D01*
Y13954D01*
X6405Y13950D01*
X6362Y13939D01*
X6322Y13920D01*
X6286Y13895D01*
X6254Y13863D01*
X6229Y13827D01*
X6210Y13787D01*
X6199Y13744D01*
X6195Y13700D01*
X6199Y13655D01*
X6210Y13612D01*
X6229Y13572D01*
X6254Y13536D01*
X6286Y13504D01*
X6322Y13479D01*
X6362Y13460D01*
X6405Y13449D01*
X6450Y13445D01*
Y13150D01*
X5850D01*
Y14695D01*
X5894Y14699D01*
X5937Y14710D01*
X5977Y14729D01*
X5999Y14744D01*
X5941Y14801D01*
X5937Y14798D01*
X5909Y14785D01*
X5880Y14777D01*
X5850Y14775D01*
Y14850D01*
G37*
G36*
X6450D02*X8395D01*
X8377Y14779D01*
X8370Y14700D01*
X8377Y14620D01*
X8397Y14542D01*
X8431Y14470D01*
X8477Y14404D01*
X8478Y14403D01*
Y13735D01*
X8453Y13699D01*
X8424Y13636D01*
X8406Y13569D01*
X8400Y13500D01*
X8406Y13430D01*
X8424Y13363D01*
X8453Y13300D01*
X8478Y13264D01*
Y13150D01*
X6450D01*
Y13445D01*
X6494Y13449D01*
X6537Y13460D01*
X6577Y13479D01*
X6613Y13504D01*
X6645Y13536D01*
X6670Y13572D01*
X6689Y13612D01*
X6700Y13655D01*
X6704Y13700D01*
X6700Y13744D01*
X6689Y13787D01*
X6670Y13827D01*
X6645Y13863D01*
X6613Y13895D01*
X6577Y13920D01*
X6537Y13939D01*
X6494Y13950D01*
X6450Y13954D01*
Y14850D01*
G37*
G36*
X8478Y14403D02*X8534Y14347D01*
X8600Y14301D01*
X8672Y14267D01*
X8750Y14247D01*
X8800Y14242D01*
Y13899D01*
X8730Y13893D01*
X8663Y13875D01*
X8600Y13846D01*
X8555Y13815D01*
X8627Y13743D01*
X8650Y13759D01*
X8697Y13781D01*
X8747Y13795D01*
X8800Y13799D01*
Y13200D01*
X8747Y13204D01*
X8697Y13218D01*
X8650Y13240D01*
X8627Y13256D01*
X8555Y13185D01*
X8600Y13153D01*
X8608Y13150D01*
X8478D01*
Y13264D01*
X8485Y13255D01*
X8556Y13327D01*
X8540Y13350D01*
X8518Y13397D01*
X8504Y13447D01*
X8500Y13500D01*
X8504Y13552D01*
X8518Y13602D01*
X8540Y13650D01*
X8556Y13673D01*
X8485Y13744D01*
X8478Y13735D01*
Y14403D01*
G37*
G36*
X8800Y14242D02*X8830Y14240D01*
X8909Y14247D01*
X8987Y14267D01*
X9060Y14301D01*
X9121Y14344D01*
Y13734D01*
X9115Y13744D01*
X9043Y13673D01*
X9059Y13650D01*
X9081Y13602D01*
X9095Y13552D01*
X9099Y13500D01*
X9095Y13447D01*
X9081Y13397D01*
X9059Y13350D01*
X9043Y13327D01*
X9115Y13255D01*
X9121Y13265D01*
Y13150D01*
X8991D01*
X8999Y13153D01*
X9044Y13185D01*
X8973Y13256D01*
X8950Y13240D01*
X8902Y13218D01*
X8852Y13204D01*
X8800Y13200D01*
Y13799D01*
X8852Y13795D01*
X8902Y13781D01*
X8950Y13759D01*
X8973Y13743D01*
X9044Y13815D01*
X8999Y13846D01*
X8936Y13875D01*
X8869Y13893D01*
X8800Y13899D01*
Y14242D01*
G37*
G36*
X9121Y14344D02*X9125Y14347D01*
X9182Y14404D01*
X9228Y14470D01*
X9262Y14542D01*
X9283Y14620D01*
X9290Y14700D01*
X9283Y14779D01*
X9264Y14850D01*
X16700D01*
Y13150D01*
X14310D01*
X14299Y13167D01*
X14267Y13199D01*
X14229Y13225D01*
X14188Y13244D01*
X14145Y13255D01*
X14100Y13259D01*
X14054Y13255D01*
X14011Y13244D01*
X13970Y13225D01*
X13933Y13199D01*
X13901Y13167D01*
X13889Y13150D01*
X12406D01*
X12377Y13170D01*
X12337Y13189D01*
X12294Y13200D01*
X12250Y13204D01*
X12205Y13200D01*
X12162Y13189D01*
X12122Y13170D01*
X12093Y13150D01*
X9121D01*
Y13265D01*
X9146Y13300D01*
X9175Y13363D01*
X9193Y13430D01*
X9199Y13500D01*
X9193Y13569D01*
X9175Y13636D01*
X9146Y13699D01*
X9121Y13734D01*
Y14344D01*
G37*
G36*
X20850Y20950D02*Y24850D01*
X23250D01*
Y21399D01*
X23180Y21393D01*
X23113Y21375D01*
X23050Y21346D01*
X23005Y21315D01*
X23077Y21243D01*
X23100Y21259D01*
X23147Y21281D01*
X23197Y21295D01*
X23250Y21299D01*
Y20950D01*
X22954D01*
X22950Y21000D01*
X22954Y21052D01*
X22968Y21102D01*
X22990Y21150D01*
X23006Y21173D01*
X22935Y21244D01*
X22903Y21199D01*
X22874Y21136D01*
X22856Y21069D01*
X22850Y21000D01*
X22854Y20950D01*
X20850D01*
G37*
G36*
X23250Y24850D02*X26000D01*
Y24260D01*
X25868Y24248D01*
X25740Y24214D01*
X25620Y24158D01*
X25511Y24082D01*
X25417Y23988D01*
X25341Y23880D01*
X25285Y23759D01*
X25251Y23632D01*
X25240Y23500D01*
X25251Y23368D01*
X25285Y23240D01*
X25341Y23120D01*
X25417Y23011D01*
X25511Y22917D01*
X25620Y22841D01*
X25740Y22785D01*
X25868Y22751D01*
X26000Y22740D01*
Y20950D01*
X24496D01*
X24456Y21007D01*
X24407Y21056D01*
X24350Y21096D01*
X24286Y21125D01*
X24219Y21143D01*
X24150Y21149D01*
X24080Y21143D01*
X24013Y21125D01*
X23950Y21096D01*
X23892Y21056D01*
X23843Y21007D01*
X23803Y20950D01*
X23645D01*
X23649Y21000D01*
X23643Y21069D01*
X23625Y21136D01*
X23596Y21199D01*
X23565Y21244D01*
X23493Y21173D01*
X23509Y21150D01*
X23531Y21102D01*
X23545Y21052D01*
X23549Y21000D01*
X23545Y20950D01*
X23250D01*
Y21299D01*
X23302Y21295D01*
X23352Y21281D01*
X23400Y21259D01*
X23423Y21243D01*
X23494Y21315D01*
X23449Y21346D01*
X23386Y21375D01*
X23319Y21393D01*
X23250Y21399D01*
Y24850D01*
G37*
G36*
X26000D02*X27350D01*
Y20950D01*
X26000D01*
Y22740D01*
X26132Y22751D01*
X26259Y22785D01*
X26380Y22841D01*
X26488Y22917D01*
X26582Y23011D01*
X26658Y23120D01*
X26714Y23240D01*
X26748Y23368D01*
X26760Y23500D01*
X26748Y23632D01*
X26714Y23759D01*
X26658Y23880D01*
X26582Y23988D01*
X26488Y24082D01*
X26380Y24158D01*
X26259Y24214D01*
X26132Y24248D01*
X26000Y24260D01*
Y24850D01*
G37*
G36*
X12850Y11000D02*X12928D01*
Y10735D01*
X12903Y10699D01*
X12874Y10636D01*
X12856Y10569D01*
X12850Y10500D01*
X12856Y10430D01*
X12874Y10363D01*
X12903Y10300D01*
X12928Y10264D01*
Y8950D01*
X12910D01*
X12909Y8952D01*
X12906Y8950D01*
X12850D01*
Y9006D01*
X12852Y9009D01*
X12850Y9010D01*
Y11000D01*
G37*
G36*
X12928D02*X13250D01*
Y10899D01*
X13180Y10893D01*
X13113Y10875D01*
X13050Y10846D01*
X13005Y10815D01*
X13077Y10743D01*
X13100Y10759D01*
X13147Y10781D01*
X13197Y10795D01*
X13250Y10799D01*
Y10200D01*
X13197Y10204D01*
X13147Y10218D01*
X13100Y10240D01*
X13077Y10256D01*
X13005Y10185D01*
X13050Y10153D01*
X13113Y10124D01*
X13180Y10106D01*
X13250Y10100D01*
Y8950D01*
X12928D01*
Y10264D01*
X12935Y10255D01*
X13006Y10327D01*
X12990Y10350D01*
X12968Y10397D01*
X12954Y10447D01*
X12950Y10500D01*
X12954Y10552D01*
X12968Y10602D01*
X12990Y10650D01*
X13006Y10673D01*
X12935Y10744D01*
X12928Y10735D01*
Y11000D01*
G37*
G36*
X13250D02*X13571D01*
Y10734D01*
X13565Y10744D01*
X13493Y10673D01*
X13509Y10650D01*
X13531Y10602D01*
X13545Y10552D01*
X13549Y10500D01*
X13545Y10447D01*
X13531Y10397D01*
X13509Y10350D01*
X13493Y10327D01*
X13565Y10255D01*
X13571Y10265D01*
Y8950D01*
X13250D01*
Y10100D01*
X13319Y10106D01*
X13386Y10124D01*
X13449Y10153D01*
X13494Y10185D01*
X13423Y10256D01*
X13400Y10240D01*
X13352Y10218D01*
X13302Y10204D01*
X13250Y10200D01*
Y10799D01*
X13302Y10795D01*
X13352Y10781D01*
X13400Y10759D01*
X13423Y10743D01*
X13494Y10815D01*
X13449Y10846D01*
X13386Y10875D01*
X13319Y10893D01*
X13250Y10899D01*
Y11000D01*
G37*
G36*
X13571D02*X15950D01*
Y9859D01*
X15904Y9855D01*
X15861Y9844D01*
X15820Y9825D01*
X15783Y9799D01*
X15751Y9767D01*
X15725Y9729D01*
X15705Y9688D01*
X15694Y9645D01*
X15690Y9600D01*
X15694Y9554D01*
X15705Y9511D01*
X15725Y9470D01*
X15751Y9433D01*
X15783Y9401D01*
X15820Y9375D01*
X15861Y9355D01*
X15904Y9344D01*
X15950Y9340D01*
Y8950D01*
X14369D01*
X14375Y8963D01*
X14393Y9030D01*
X14399Y9100D01*
X14393Y9169D01*
X14375Y9236D01*
X14346Y9300D01*
X14306Y9357D01*
X14257Y9406D01*
X14200Y9446D01*
X14136Y9475D01*
X14069Y9493D01*
X14000Y9499D01*
X13930Y9493D01*
X13863Y9475D01*
X13800Y9446D01*
X13742Y9406D01*
X13693Y9357D01*
X13653Y9300D01*
X13624Y9236D01*
X13606Y9169D01*
X13600Y9100D01*
X13606Y9030D01*
X13624Y8963D01*
X13630Y8950D01*
X13571D01*
Y10265D01*
X13596Y10300D01*
X13625Y10363D01*
X13643Y10430D01*
X13649Y10500D01*
X13643Y10569D01*
X13625Y10636D01*
X13596Y10699D01*
X13571Y10734D01*
Y11000D01*
G37*
G36*
X15950D02*X17050D01*
Y8950D01*
X15950D01*
Y9340D01*
X15995Y9344D01*
X16038Y9355D01*
X16079Y9375D01*
X16117Y9401D01*
X16149Y9433D01*
X16175Y9470D01*
X16194Y9511D01*
X16205Y9554D01*
X16209Y9600D01*
X16205Y9645D01*
X16194Y9688D01*
X16175Y9729D01*
X16149Y9767D01*
X16117Y9799D01*
X16079Y9825D01*
X16038Y9844D01*
X15995Y9855D01*
X15950Y9859D01*
Y11000D01*
G37*
G36*
X17050Y100D02*Y6184D01*
X17051Y6183D01*
X17083Y6151D01*
X17120Y6125D01*
X17161Y6105D01*
X17204Y6094D01*
X17250Y6090D01*
X17295Y6094D01*
X17338Y6105D01*
X17379Y6125D01*
X17400Y6139D01*
Y3909D01*
X17354Y3905D01*
X17311Y3894D01*
X17270Y3875D01*
X17233Y3849D01*
X17201Y3817D01*
X17175Y3779D01*
X17155Y3738D01*
X17144Y3695D01*
X17140Y3650D01*
X17144Y3604D01*
X17155Y3561D01*
X17175Y3520D01*
X17201Y3483D01*
X17233Y3451D01*
X17270Y3425D01*
X17311Y3405D01*
X17354Y3394D01*
X17400Y3390D01*
Y100D01*
X17050D01*
G37*
G36*
X17255Y6609D02*X17250Y6609D01*
X17204Y6605D01*
X17161Y6594D01*
X17120Y6575D01*
X17083Y6549D01*
X17051Y6517D01*
X17050Y6515D01*
Y6734D01*
X17075Y6770D01*
X17094Y6811D01*
X17105Y6854D01*
X17109Y6900D01*
X17105Y6945D01*
X17094Y6988D01*
X17075Y7029D01*
X17050Y7065D01*
Y20240D01*
X17095Y20244D01*
X17138Y20256D01*
X17179Y20275D01*
X17202Y20291D01*
X17145Y20348D01*
X17140Y20344D01*
X17111Y20330D01*
X17081Y20322D01*
X17050Y20320D01*
Y20679D01*
X17081Y20677D01*
X17111Y20669D01*
X17140Y20655D01*
X17145Y20651D01*
X17202Y20709D01*
X17179Y20724D01*
X17138Y20744D01*
X17095Y20755D01*
X17050Y20759D01*
Y21100D01*
X17255D01*
Y20649D01*
X17201Y20595D01*
X17205Y20590D01*
X17219Y20561D01*
X17227Y20531D01*
X17229Y20500D01*
X17227Y20468D01*
X17219Y20438D01*
X17205Y20410D01*
X17201Y20404D01*
X17255Y20350D01*
Y6609D01*
G37*
G36*
X17400Y6560D02*X17379Y6575D01*
X17338Y6594D01*
X17295Y6605D01*
X17255Y6609D01*
Y20350D01*
X17259Y20347D01*
X17274Y20370D01*
X17294Y20411D01*
X17305Y20454D01*
X17309Y20500D01*
X17305Y20545D01*
X17294Y20588D01*
X17274Y20629D01*
X17259Y20652D01*
X17255Y20649D01*
Y21100D01*
X17400D01*
Y18669D01*
X17397Y18659D01*
X17392Y18636D01*
X17390Y18612D01*
Y18588D01*
X17392Y18563D01*
X17397Y18540D01*
X17400Y18530D01*
Y8510D01*
X17383Y8499D01*
X17351Y8467D01*
X17325Y8429D01*
X17305Y8388D01*
X17294Y8345D01*
X17290Y8300D01*
X17294Y8254D01*
X17305Y8211D01*
X17325Y8170D01*
X17351Y8133D01*
X17383Y8101D01*
X17400Y8089D01*
Y6560D01*
G37*
G36*
Y6139D02*X17417Y6151D01*
X17449Y6183D01*
X17475Y6220D01*
X17494Y6261D01*
X17505Y6304D01*
X17509Y6350D01*
X17505Y6395D01*
X17494Y6438D01*
X17475Y6479D01*
X17449Y6517D01*
X17417Y6549D01*
X17400Y6560D01*
Y8089D01*
X17420Y8075D01*
X17461Y8055D01*
X17504Y8044D01*
X17528Y8042D01*
Y3875D01*
X17488Y3894D01*
X17445Y3905D01*
X17400Y3909D01*
Y6139D01*
G37*
G36*
X17528Y100D02*X17400D01*
Y3390D01*
X17445Y3394D01*
X17488Y3405D01*
X17528Y3424D01*
Y1635D01*
X17503Y1599D01*
X17474Y1536D01*
X17456Y1469D01*
X17450Y1400D01*
X17456Y1330D01*
X17474Y1263D01*
X17503Y1200D01*
X17528Y1164D01*
Y100D01*
G37*
G36*
Y8042D02*X17550Y8040D01*
X17595Y8044D01*
X17638Y8055D01*
X17679Y8075D01*
X17700Y8089D01*
Y1769D01*
X17650Y1746D01*
X17605Y1715D01*
X17677Y1643D01*
X17700Y1659D01*
Y1140D01*
X17677Y1156D01*
X17605Y1085D01*
X17650Y1053D01*
X17700Y1030D01*
Y100D01*
X17528D01*
Y1164D01*
X17535Y1155D01*
X17606Y1227D01*
X17590Y1250D01*
X17568Y1297D01*
X17554Y1347D01*
X17550Y1400D01*
X17554Y1452D01*
X17568Y1502D01*
X17590Y1550D01*
X17606Y1573D01*
X17535Y1644D01*
X17528Y1635D01*
Y3424D01*
X17529Y3425D01*
X17567Y3451D01*
X17599Y3483D01*
X17625Y3520D01*
X17644Y3561D01*
X17655Y3604D01*
X17659Y3650D01*
X17655Y3695D01*
X17644Y3738D01*
X17625Y3779D01*
X17599Y3817D01*
X17567Y3849D01*
X17529Y3875D01*
X17528Y3875D01*
Y8042D01*
G37*
G36*
X17400Y21100D02*X17700D01*
Y18854D01*
X17686Y18857D01*
X17662Y18859D01*
X17637D01*
X17613Y18857D01*
X17590Y18852D01*
X17566Y18846D01*
X17544Y18837D01*
X17538Y18833D01*
X17532Y18829D01*
X17528Y18824D01*
X17524Y18818D01*
X17522Y18811D01*
X17520Y18804D01*
X17520Y18797D01*
X17521Y18791D01*
X17524Y18784D01*
X17527Y18778D01*
X17531Y18773D01*
X17537Y18768D01*
X17543Y18764D01*
X17549Y18762D01*
X17556Y18761D01*
X17563Y18761D01*
X17570Y18762D01*
X17576Y18764D01*
X17592Y18770D01*
X17608Y18775D01*
X17624Y18778D01*
X17641Y18779D01*
X17658D01*
X17675Y18778D01*
X17691Y18775D01*
X17700Y18772D01*
Y18427D01*
X17691Y18425D01*
X17675Y18421D01*
X17658Y18420D01*
X17641D01*
X17624Y18421D01*
X17608Y18425D01*
X17592Y18429D01*
X17576Y18435D01*
X17570Y18438D01*
X17563Y18439D01*
X17556Y18439D01*
X17549Y18437D01*
X17543Y18435D01*
X17537Y18431D01*
X17531Y18427D01*
X17527Y18421D01*
X17524Y18415D01*
X17521Y18408D01*
X17520Y18402D01*
X17520Y18395D01*
X17522Y18388D01*
X17524Y18381D01*
X17528Y18375D01*
X17532Y18370D01*
X17538Y18366D01*
X17544Y18362D01*
X17566Y18354D01*
X17590Y18347D01*
X17613Y18342D01*
X17637Y18340D01*
X17662D01*
X17686Y18342D01*
X17700Y18345D01*
Y13035D01*
X17663Y13025D01*
X17600Y12996D01*
X17542Y12956D01*
X17493Y12907D01*
X17453Y12850D01*
X17424Y12786D01*
X17406Y12719D01*
X17400Y12650D01*
X17406Y12580D01*
X17424Y12513D01*
X17453Y12450D01*
X17493Y12392D01*
X17542Y12343D01*
X17600Y12303D01*
X17663Y12274D01*
X17700Y12264D01*
Y11709D01*
X17654Y11705D01*
X17611Y11694D01*
X17570Y11675D01*
X17533Y11649D01*
X17501Y11617D01*
X17475Y11579D01*
X17455Y11538D01*
X17444Y11495D01*
X17440Y11450D01*
X17444Y11404D01*
X17455Y11361D01*
X17475Y11320D01*
X17501Y11283D01*
X17533Y11251D01*
X17570Y11225D01*
X17611Y11205D01*
X17654Y11194D01*
X17700Y11190D01*
Y8510D01*
X17679Y8525D01*
X17638Y8544D01*
X17595Y8555D01*
X17550Y8559D01*
X17504Y8555D01*
X17461Y8544D01*
X17420Y8525D01*
X17400Y8510D01*
Y18530D01*
X17403Y18516D01*
X17412Y18494D01*
X17416Y18488D01*
X17420Y18482D01*
X17425Y18478D01*
X17431Y18474D01*
X17438Y18472D01*
X17445Y18470D01*
X17452Y18470D01*
X17458Y18471D01*
X17465Y18474D01*
X17471Y18477D01*
X17477Y18482D01*
X17481Y18487D01*
X17485Y18493D01*
X17487Y18499D01*
X17488Y18506D01*
X17489Y18513D01*
X17487Y18520D01*
X17485Y18526D01*
X17479Y18542D01*
X17474Y18558D01*
X17471Y18575D01*
X17470Y18591D01*
Y18608D01*
X17471Y18625D01*
X17474Y18641D01*
X17479Y18657D01*
X17485Y18673D01*
X17488Y18679D01*
X17489Y18686D01*
X17488Y18693D01*
X17487Y18700D01*
X17485Y18707D01*
X17481Y18713D01*
X17476Y18718D01*
X17471Y18722D01*
X17465Y18726D01*
X17458Y18728D01*
X17451Y18729D01*
X17445Y18729D01*
X17438Y18727D01*
X17431Y18725D01*
X17425Y18721D01*
X17420Y18717D01*
X17416Y18711D01*
X17412Y18705D01*
X17403Y18683D01*
X17400Y18669D01*
Y21100D01*
G37*
G36*
X17700D02*X17860D01*
Y18728D01*
X17854Y18729D01*
X17847Y18729D01*
X17841Y18728D01*
X17834Y18725D01*
X17828Y18722D01*
X17822Y18718D01*
X17818Y18712D01*
X17814Y18706D01*
X17812Y18700D01*
X17811Y18693D01*
X17810Y18686D01*
X17812Y18679D01*
X17814Y18673D01*
X17820Y18657D01*
X17825Y18641D01*
X17828Y18625D01*
X17829Y18608D01*
Y18591D01*
X17828Y18575D01*
X17825Y18558D01*
X17820Y18542D01*
X17814Y18526D01*
X17811Y18520D01*
X17810Y18513D01*
X17811Y18506D01*
X17812Y18499D01*
X17814Y18493D01*
X17818Y18487D01*
X17823Y18481D01*
X17828Y18477D01*
X17834Y18474D01*
X17841Y18471D01*
X17848Y18470D01*
X17854Y18470D01*
X17860Y18471D01*
Y13044D01*
X17800Y13049D01*
X17730Y13043D01*
X17700Y13035D01*
Y18345D01*
X17709Y18347D01*
X17733Y18354D01*
X17755Y18362D01*
X17761Y18366D01*
X17767Y18370D01*
X17771Y18375D01*
X17775Y18381D01*
X17777Y18388D01*
X17779Y18395D01*
X17779Y18402D01*
X17778Y18409D01*
X17775Y18415D01*
X17772Y18421D01*
X17768Y18427D01*
X17762Y18431D01*
X17756Y18435D01*
X17750Y18437D01*
X17743Y18439D01*
X17736Y18439D01*
X17729Y18438D01*
X17723Y18435D01*
X17707Y18429D01*
X17700Y18427D01*
Y18772D01*
X17707Y18770D01*
X17723Y18764D01*
X17729Y18762D01*
X17736Y18761D01*
X17743Y18761D01*
X17750Y18762D01*
X17756Y18764D01*
X17762Y18768D01*
X17768Y18773D01*
X17772Y18778D01*
X17775Y18784D01*
X17778Y18791D01*
X17779Y18798D01*
X17779Y18805D01*
X17777Y18811D01*
X17775Y18818D01*
X17771Y18824D01*
X17767Y18829D01*
X17761Y18833D01*
X17755Y18837D01*
X17733Y18846D01*
X17709Y18852D01*
X17700Y18854D01*
Y21100D01*
G37*
G36*
X17860D02*X18171D01*
Y12795D01*
X18146Y12850D01*
X18106Y12907D01*
X18057Y12956D01*
X18000Y12996D01*
X17936Y13025D01*
X17869Y13043D01*
X17860Y13044D01*
Y18471D01*
X17861Y18472D01*
X17868Y18474D01*
X17874Y18478D01*
X17879Y18482D01*
X17883Y18488D01*
X17887Y18494D01*
X17896Y18516D01*
X17902Y18540D01*
X17907Y18563D01*
X17909Y18588D01*
Y18612D01*
X17907Y18636D01*
X17902Y18659D01*
X17896Y18683D01*
X17887Y18705D01*
X17883Y18711D01*
X17879Y18717D01*
X17874Y18721D01*
X17868Y18725D01*
X17861Y18727D01*
X17860Y18728D01*
Y21100D01*
G37*
G36*
X18171Y6478D02*X18138Y6494D01*
X18095Y6505D01*
X18050Y6509D01*
X18004Y6505D01*
X17961Y6494D01*
X17920Y6475D01*
X17883Y6449D01*
X17851Y6417D01*
X17825Y6379D01*
X17805Y6338D01*
X17794Y6295D01*
X17790Y6250D01*
X17794Y6204D01*
X17805Y6161D01*
X17825Y6120D01*
X17851Y6083D01*
X17883Y6051D01*
X17920Y6025D01*
X17961Y6005D01*
X18004Y5994D01*
X18050Y5990D01*
X18095Y5994D01*
X18138Y6005D01*
X18171Y6021D01*
Y1634D01*
X18165Y1644D01*
X18093Y1573D01*
X18109Y1550D01*
X18131Y1502D01*
X18145Y1452D01*
X18149Y1400D01*
X18145Y1347D01*
X18131Y1297D01*
X18109Y1250D01*
X18093Y1227D01*
X18165Y1155D01*
X18171Y1165D01*
Y100D01*
X17700D01*
Y1030D01*
X17713Y1024D01*
X17780Y1006D01*
X17850Y1000D01*
X17919Y1006D01*
X17986Y1024D01*
X18049Y1053D01*
X18094Y1085D01*
X18023Y1156D01*
X18000Y1140D01*
X17952Y1118D01*
X17902Y1104D01*
X17850Y1100D01*
X17797Y1104D01*
X17747Y1118D01*
X17700Y1140D01*
Y1659D01*
X17747Y1681D01*
X17797Y1695D01*
X17850Y1699D01*
X17902Y1695D01*
X17952Y1681D01*
X18000Y1659D01*
X18023Y1643D01*
X18094Y1715D01*
X18049Y1746D01*
X17986Y1775D01*
X17919Y1793D01*
X17850Y1799D01*
X17780Y1793D01*
X17713Y1775D01*
X17700Y1769D01*
Y8089D01*
X17717Y8101D01*
X17749Y8133D01*
X17775Y8170D01*
X17794Y8211D01*
X17805Y8254D01*
X17809Y8300D01*
X17805Y8345D01*
X17794Y8388D01*
X17775Y8429D01*
X17749Y8467D01*
X17717Y8499D01*
X17700Y8510D01*
Y11190D01*
X17745Y11194D01*
X17788Y11205D01*
X17829Y11225D01*
X17867Y11251D01*
X17899Y11283D01*
X17925Y11320D01*
X17944Y11361D01*
X17955Y11404D01*
X17959Y11450D01*
X17955Y11495D01*
X17944Y11538D01*
X17925Y11579D01*
X17899Y11617D01*
X17867Y11649D01*
X17829Y11675D01*
X17788Y11694D01*
X17745Y11705D01*
X17700Y11709D01*
Y12264D01*
X17730Y12256D01*
X17800Y12250D01*
X17869Y12256D01*
X17936Y12274D01*
X18000Y12303D01*
X18057Y12343D01*
X18106Y12392D01*
X18146Y12450D01*
X18171Y12504D01*
Y6478D01*
G37*
G36*
Y21100D02*X18294D01*
Y6338D01*
X18294Y6338D01*
X18275Y6379D01*
X18249Y6417D01*
X18217Y6449D01*
X18179Y6475D01*
X18171Y6478D01*
Y12504D01*
X18175Y12513D01*
X18193Y12580D01*
X18199Y12650D01*
X18193Y12719D01*
X18175Y12786D01*
X18171Y12795D01*
Y21100D01*
G37*
G36*
Y6021D02*X18179Y6025D01*
X18217Y6051D01*
X18249Y6083D01*
X18275Y6120D01*
X18294Y6161D01*
X18294Y6161D01*
Y4699D01*
X18291Y4702D01*
X18275Y4679D01*
X18256Y4638D01*
X18244Y4595D01*
X18240Y4550D01*
X18244Y4504D01*
X18256Y4461D01*
X18275Y4420D01*
X18291Y4397D01*
X18294Y4400D01*
Y3149D01*
X18241Y3202D01*
X18225Y3179D01*
X18206Y3138D01*
X18194Y3095D01*
X18190Y3050D01*
X18194Y3004D01*
X18206Y2961D01*
X18225Y2920D01*
X18241Y2897D01*
X18294Y2950D01*
Y100D01*
X18171D01*
Y1165D01*
X18196Y1200D01*
X18225Y1263D01*
X18243Y1330D01*
X18249Y1400D01*
X18243Y1469D01*
X18225Y1536D01*
X18196Y1599D01*
X18171Y1634D01*
Y6021D01*
G37*
G36*
X18294Y2960D02*X18280Y2988D01*
X18272Y3018D01*
X18270Y3050D01*
X18272Y3081D01*
X18280Y3111D01*
X18294Y3140D01*
Y2960D01*
G37*
G36*
Y21100D02*X18450D01*
Y4804D01*
X18411Y4794D01*
X18370Y4774D01*
X18347Y4759D01*
X18404Y4701D01*
X18410Y4705D01*
X18438Y4719D01*
X18450Y4722D01*
Y4377D01*
X18438Y4380D01*
X18410Y4394D01*
X18404Y4398D01*
X18347Y4341D01*
X18370Y4325D01*
X18411Y4306D01*
X18450Y4295D01*
Y3309D01*
X18404Y3305D01*
X18361Y3294D01*
X18320Y3274D01*
X18297Y3259D01*
X18354Y3201D01*
X18360Y3205D01*
X18388Y3219D01*
X18418Y3227D01*
X18450Y3229D01*
Y2870D01*
X18418Y2872D01*
X18388Y2880D01*
X18360Y2894D01*
X18354Y2898D01*
X18297Y2841D01*
X18320Y2825D01*
X18361Y2806D01*
X18404Y2794D01*
X18450Y2790D01*
Y100D01*
X18294D01*
Y2950D01*
X18298Y2954D01*
X18294Y2960D01*
Y3140D01*
X18298Y3145D01*
X18294Y3149D01*
Y4400D01*
X18348Y4454D01*
X18344Y4460D01*
X18330Y4488D01*
X18322Y4518D01*
X18320Y4550D01*
X18322Y4581D01*
X18330Y4611D01*
X18344Y4640D01*
X18348Y4645D01*
X18294Y4699D01*
Y6161D01*
X18305Y6204D01*
X18309Y6250D01*
X18305Y6295D01*
X18294Y6338D01*
Y21100D01*
G37*
G36*
X18450D02*X18615D01*
Y20221D01*
X18583Y20199D01*
X18551Y20167D01*
X18525Y20129D01*
X18505Y20088D01*
X18494Y20045D01*
X18490Y20000D01*
X18494Y19954D01*
X18505Y19911D01*
X18525Y19870D01*
X18551Y19833D01*
X18583Y19801D01*
X18615Y19778D01*
Y11159D01*
X18605Y11138D01*
X18594Y11095D01*
X18590Y11050D01*
X18594Y11004D01*
X18605Y10961D01*
X18615Y10940D01*
Y9631D01*
X18601Y9617D01*
X18575Y9579D01*
X18555Y9538D01*
X18544Y9495D01*
X18540Y9450D01*
X18544Y9404D01*
X18555Y9361D01*
X18575Y9320D01*
X18601Y9283D01*
X18615Y9268D01*
Y8227D01*
X18608Y8234D01*
X18596Y8217D01*
X18579Y8180D01*
X18568Y8140D01*
X18565Y8100D01*
X18568Y8059D01*
X18579Y8019D01*
X18596Y7982D01*
X18608Y7965D01*
X18615Y7972D01*
Y7877D01*
X18608Y7884D01*
X18596Y7867D01*
X18579Y7830D01*
X18568Y7790D01*
X18565Y7750D01*
X18568Y7709D01*
X18579Y7669D01*
X18596Y7632D01*
X18608Y7615D01*
X18615Y7622D01*
Y7527D01*
X18608Y7534D01*
X18596Y7517D01*
X18579Y7480D01*
X18568Y7440D01*
X18565Y7400D01*
X18568Y7359D01*
X18579Y7319D01*
X18596Y7282D01*
X18608Y7265D01*
X18615Y7272D01*
Y7177D01*
X18608Y7184D01*
X18596Y7167D01*
X18579Y7130D01*
X18568Y7090D01*
X18565Y7050D01*
X18568Y7009D01*
X18579Y6969D01*
X18596Y6932D01*
X18608Y6915D01*
X18615Y6922D01*
Y4781D01*
X18588Y4794D01*
X18545Y4805D01*
X18500Y4809D01*
X18454Y4805D01*
X18450Y4804D01*
Y21100D01*
G37*
G36*
Y4722D02*X18468Y4727D01*
X18500Y4729D01*
X18531Y4727D01*
X18561Y4719D01*
X18590Y4705D01*
X18595Y4701D01*
X18615Y4722D01*
Y4377D01*
X18595Y4398D01*
X18590Y4394D01*
X18561Y4380D01*
X18531Y4372D01*
X18500Y4370D01*
X18468Y4372D01*
X18450Y4377D01*
Y4722D01*
G37*
G36*
Y4295D02*X18454Y4294D01*
X18500Y4290D01*
X18545Y4294D01*
X18588Y4306D01*
X18615Y4318D01*
Y3159D01*
X18601Y3145D01*
X18605Y3140D01*
X18615Y3118D01*
Y2981D01*
X18605Y2960D01*
X18601Y2954D01*
X18615Y2940D01*
Y100D01*
X18450D01*
Y2790D01*
X18495Y2794D01*
X18538Y2806D01*
X18579Y2825D01*
X18602Y2841D01*
X18545Y2898D01*
X18540Y2894D01*
X18511Y2880D01*
X18481Y2872D01*
X18450Y2870D01*
Y3229D01*
X18481Y3227D01*
X18511Y3219D01*
X18540Y3205D01*
X18545Y3201D01*
X18602Y3259D01*
X18579Y3274D01*
X18538Y3294D01*
X18495Y3305D01*
X18450Y3309D01*
Y4295D01*
G37*
G36*
X18615Y21100D02*X18744D01*
Y20259D01*
X18704Y20255D01*
X18661Y20244D01*
X18620Y20225D01*
X18615Y20221D01*
Y21100D01*
G37*
G36*
Y19778D02*X18620Y19775D01*
X18661Y19755D01*
X18704Y19744D01*
X18744Y19740D01*
Y12999D01*
X18741Y13002D01*
X18725Y12979D01*
X18706Y12938D01*
X18694Y12895D01*
X18690Y12850D01*
X18694Y12804D01*
X18706Y12761D01*
X18725Y12720D01*
X18741Y12697D01*
X18744Y12700D01*
Y11286D01*
X18720Y11275D01*
X18683Y11249D01*
X18651Y11217D01*
X18625Y11179D01*
X18615Y11159D01*
Y19778D01*
G37*
G36*
Y10940D02*X18625Y10920D01*
X18651Y10883D01*
X18683Y10851D01*
X18720Y10825D01*
X18744Y10813D01*
Y9703D01*
X18711Y9694D01*
X18670Y9675D01*
X18633Y9649D01*
X18615Y9631D01*
Y10940D01*
G37*
G36*
Y9268D02*X18633Y9251D01*
X18670Y9225D01*
X18711Y9205D01*
X18744Y9197D01*
Y8327D01*
X18719Y8320D01*
X18682Y8303D01*
X18665Y8291D01*
X18722Y8234D01*
X18722Y8234D01*
X18744Y8244D01*
Y7977D01*
X18719Y7970D01*
X18682Y7953D01*
X18665Y7941D01*
X18681Y7925D01*
X18665Y7908D01*
X18682Y7896D01*
X18719Y7879D01*
X18744Y7872D01*
Y7627D01*
X18719Y7620D01*
X18682Y7603D01*
X18665Y7591D01*
X18681Y7575D01*
X18665Y7558D01*
X18682Y7546D01*
X18719Y7529D01*
X18744Y7522D01*
Y7277D01*
X18719Y7270D01*
X18682Y7253D01*
X18665Y7241D01*
X18681Y7225D01*
X18665Y7208D01*
X18682Y7196D01*
X18719Y7179D01*
X18744Y7172D01*
Y6905D01*
X18722Y6915D01*
X18722Y6916D01*
X18665Y6858D01*
X18682Y6846D01*
X18719Y6829D01*
X18744Y6822D01*
Y4638D01*
X18744Y4638D01*
X18724Y4679D01*
X18709Y4702D01*
X18651Y4645D01*
X18655Y4640D01*
X18669Y4611D01*
X18677Y4581D01*
X18679Y4550D01*
X18677Y4518D01*
X18669Y4488D01*
X18655Y4460D01*
X18651Y4454D01*
X18709Y4397D01*
X18724Y4420D01*
X18744Y4461D01*
X18744Y4461D01*
Y100D01*
X18615D01*
Y2940D01*
X18659Y2897D01*
X18674Y2920D01*
X18694Y2961D01*
X18705Y3004D01*
X18709Y3050D01*
X18705Y3095D01*
X18694Y3138D01*
X18674Y3179D01*
X18659Y3202D01*
X18615Y3159D01*
Y4318D01*
X18629Y4325D01*
X18652Y4341D01*
X18615Y4377D01*
Y4722D01*
X18652Y4759D01*
X18629Y4774D01*
X18615Y4781D01*
Y6922D01*
X18666Y6972D01*
X18665Y6972D01*
X18654Y6997D01*
X18647Y7023D01*
X18645Y7050D01*
X18647Y7076D01*
X18654Y7103D01*
X18665Y7127D01*
X18666Y7127D01*
X18615Y7177D01*
Y7272D01*
X18666Y7322D01*
X18665Y7322D01*
X18654Y7347D01*
X18647Y7373D01*
X18645Y7400D01*
X18647Y7426D01*
X18654Y7453D01*
X18665Y7477D01*
X18666Y7477D01*
X18615Y7527D01*
Y7622D01*
X18666Y7672D01*
X18665Y7672D01*
X18654Y7697D01*
X18647Y7723D01*
X18645Y7750D01*
X18647Y7776D01*
X18654Y7803D01*
X18665Y7827D01*
X18666Y7827D01*
X18615Y7877D01*
Y7972D01*
X18666Y8022D01*
X18665Y8022D01*
X18654Y8047D01*
X18647Y8073D01*
X18645Y8100D01*
X18647Y8126D01*
X18654Y8153D01*
X18665Y8177D01*
X18666Y8177D01*
X18615Y8227D01*
Y9268D01*
G37*
G36*
Y3118D02*X18619Y3111D01*
X18627Y3081D01*
X18629Y3050D01*
X18627Y3018D01*
X18619Y2988D01*
X18615Y2981D01*
Y3118D01*
G37*
G36*
X18744Y21100D02*X18950D01*
Y20165D01*
X18949Y20167D01*
X18917Y20199D01*
X18879Y20225D01*
X18838Y20244D01*
X18795Y20255D01*
X18750Y20259D01*
X18744Y20259D01*
Y21100D01*
G37*
G36*
X18950Y100D02*X18744D01*
Y4461D01*
X18755Y4504D01*
X18759Y4550D01*
X18755Y4595D01*
X18744Y4638D01*
Y6822D01*
X18759Y6818D01*
X18800Y6815D01*
X18840Y6818D01*
X18880Y6829D01*
X18917Y6846D01*
X18934Y6858D01*
X18877Y6916D01*
X18877Y6915D01*
X18853Y6904D01*
X18826Y6897D01*
X18800Y6895D01*
X18773Y6897D01*
X18747Y6904D01*
X18744Y6905D01*
Y7172D01*
X18759Y7168D01*
X18800Y7165D01*
X18840Y7168D01*
X18867Y7176D01*
X18868Y7159D01*
X18879Y7119D01*
X18896Y7082D01*
X18908Y7065D01*
X18945Y7102D01*
X18950Y7086D01*
Y7013D01*
X18945Y6997D01*
X18934Y6972D01*
X18934Y6972D01*
X18950Y6956D01*
Y100D01*
G37*
G36*
Y7163D02*X18947Y7173D01*
X18945Y7200D01*
X18947Y7226D01*
X18950Y7236D01*
Y7163D01*
G37*
G36*
Y7293D02*X18908Y7334D01*
X18896Y7317D01*
X18879Y7280D01*
X18877Y7271D01*
X18840Y7281D01*
X18800Y7284D01*
X18759Y7281D01*
X18744Y7277D01*
Y7522D01*
X18759Y7518D01*
X18800Y7515D01*
X18840Y7518D01*
X18867Y7526D01*
X18868Y7509D01*
X18879Y7469D01*
X18896Y7432D01*
X18908Y7415D01*
X18945Y7452D01*
X18950Y7436D01*
Y7363D01*
X18945Y7347D01*
X18934Y7322D01*
X18934Y7322D01*
X18950Y7306D01*
Y7293D01*
G37*
G36*
Y7513D02*X18947Y7523D01*
X18945Y7550D01*
X18947Y7576D01*
X18950Y7586D01*
Y7513D01*
G37*
G36*
Y7643D02*X18908Y7684D01*
X18896Y7667D01*
X18879Y7630D01*
X18877Y7621D01*
X18840Y7631D01*
X18800Y7634D01*
X18759Y7631D01*
X18744Y7627D01*
Y7872D01*
X18759Y7868D01*
X18800Y7865D01*
X18840Y7868D01*
X18877Y7878D01*
X18879Y7869D01*
X18896Y7832D01*
X18908Y7815D01*
X18950Y7856D01*
Y7843D01*
X18934Y7827D01*
X18934Y7827D01*
X18945Y7803D01*
X18950Y7786D01*
Y7713D01*
X18945Y7697D01*
X18934Y7672D01*
X18934Y7672D01*
X18950Y7656D01*
Y7643D01*
G37*
G36*
Y7913D02*X18947Y7923D01*
X18945Y7950D01*
X18947Y7976D01*
X18950Y7986D01*
Y7913D01*
G37*
G36*
Y8193D02*X18934Y8177D01*
X18934Y8177D01*
X18945Y8153D01*
X18950Y8136D01*
Y8063D01*
X18945Y8047D01*
X18908Y8084D01*
X18896Y8067D01*
X18879Y8030D01*
X18868Y7990D01*
X18867Y7974D01*
X18840Y7981D01*
X18800Y7984D01*
X18759Y7981D01*
X18744Y7977D01*
Y8244D01*
X18747Y8245D01*
X18773Y8252D01*
X18800Y8254D01*
X18826Y8252D01*
X18853Y8245D01*
X18877Y8234D01*
X18877Y8234D01*
X18934Y8291D01*
X18917Y8303D01*
X18880Y8320D01*
X18840Y8331D01*
X18800Y8334D01*
X18759Y8331D01*
X18744Y8327D01*
Y9197D01*
X18754Y9194D01*
X18800Y9190D01*
X18845Y9194D01*
X18888Y9205D01*
X18929Y9225D01*
X18950Y9239D01*
Y8193D01*
G37*
G36*
Y9660D02*X18929Y9675D01*
X18888Y9694D01*
X18845Y9705D01*
X18800Y9709D01*
X18754Y9705D01*
X18744Y9703D01*
Y10813D01*
X18761Y10805D01*
X18804Y10794D01*
X18850Y10790D01*
X18895Y10794D01*
X18938Y10805D01*
X18950Y10811D01*
Y9660D01*
G37*
G36*
Y11288D02*X18938Y11294D01*
X18895Y11305D01*
X18850Y11309D01*
X18804Y11305D01*
X18761Y11294D01*
X18744Y11286D01*
Y12700D01*
X18798Y12754D01*
X18794Y12760D01*
X18780Y12788D01*
X18772Y12818D01*
X18770Y12850D01*
X18772Y12881D01*
X18780Y12911D01*
X18794Y12940D01*
X18798Y12945D01*
X18744Y12999D01*
Y19740D01*
X18750Y19740D01*
X18795Y19744D01*
X18838Y19755D01*
X18879Y19775D01*
X18917Y19801D01*
X18949Y19833D01*
X18950Y19834D01*
Y13109D01*
X18904Y13105D01*
X18861Y13094D01*
X18820Y13074D01*
X18797Y13059D01*
X18854Y13001D01*
X18860Y13005D01*
X18888Y13019D01*
X18918Y13027D01*
X18950Y13029D01*
Y12670D01*
X18918Y12672D01*
X18888Y12680D01*
X18860Y12694D01*
X18854Y12698D01*
X18797Y12641D01*
X18820Y12625D01*
X18861Y12606D01*
X18904Y12594D01*
X18950Y12590D01*
Y11288D01*
G37*
G36*
Y21100D02*X19095D01*
X19105Y21061D01*
X19125Y21020D01*
X19151Y20983D01*
X19155Y20978D01*
Y12999D01*
X19101Y12945D01*
X19105Y12940D01*
X19119Y12911D01*
X19127Y12881D01*
X19129Y12850D01*
X19127Y12818D01*
X19119Y12788D01*
X19105Y12760D01*
X19101Y12754D01*
X19155Y12700D01*
Y8280D01*
X19146Y8267D01*
X19129Y8230D01*
X19118Y8190D01*
X19118Y8183D01*
X19100Y8184D01*
X19059Y8181D01*
X19022Y8171D01*
X19020Y8180D01*
X19003Y8217D01*
X18991Y8234D01*
X18950Y8193D01*
Y9239D01*
X18967Y9251D01*
X18999Y9283D01*
X19025Y9320D01*
X19044Y9361D01*
X19055Y9404D01*
X19059Y9450D01*
X19055Y9495D01*
X19044Y9538D01*
X19025Y9579D01*
X18999Y9617D01*
X18967Y9649D01*
X18950Y9660D01*
Y10811D01*
X18979Y10825D01*
X19017Y10851D01*
X19049Y10883D01*
X19075Y10920D01*
X19094Y10961D01*
X19105Y11004D01*
X19109Y11050D01*
X19105Y11095D01*
X19094Y11138D01*
X19075Y11179D01*
X19049Y11217D01*
X19017Y11249D01*
X18979Y11275D01*
X18950Y11288D01*
Y12590D01*
X18995Y12594D01*
X19038Y12606D01*
X19079Y12625D01*
X19102Y12641D01*
X19045Y12698D01*
X19040Y12694D01*
X19011Y12680D01*
X18981Y12672D01*
X18950Y12670D01*
Y13029D01*
X18981Y13027D01*
X19011Y13019D01*
X19040Y13005D01*
X19045Y13001D01*
X19102Y13059D01*
X19079Y13074D01*
X19038Y13094D01*
X18995Y13105D01*
X18950Y13109D01*
Y19834D01*
X18975Y19870D01*
X18994Y19911D01*
X19005Y19954D01*
X19009Y20000D01*
X19005Y20045D01*
X18994Y20088D01*
X18975Y20129D01*
X18950Y20165D01*
Y21100D01*
G37*
G36*
X19155Y100D02*X18950D01*
Y6956D01*
X18991Y6915D01*
X19003Y6932D01*
X19020Y6969D01*
X19022Y6978D01*
X19059Y6968D01*
X19100Y6965D01*
X19118Y6966D01*
X19118Y6959D01*
X19129Y6919D01*
X19146Y6882D01*
X19155Y6869D01*
Y100D01*
G37*
G36*
Y7130D02*X19146Y7117D01*
X19129Y7080D01*
X19120Y7046D01*
X19100Y7045D01*
X19073Y7047D01*
X19047Y7054D01*
X19033Y7060D01*
X19031Y7090D01*
X19020Y7130D01*
X19003Y7167D01*
X18991Y7184D01*
X18954Y7147D01*
X18950Y7163D01*
Y7236D01*
X18954Y7253D01*
X18965Y7277D01*
X18966Y7277D01*
X18950Y7293D01*
Y7306D01*
X18991Y7265D01*
X19003Y7282D01*
X19020Y7319D01*
X19022Y7328D01*
X19059Y7318D01*
X19100Y7315D01*
X19140Y7318D01*
X19155Y7322D01*
Y7130D01*
G37*
G36*
Y7427D02*X19140Y7431D01*
X19100Y7434D01*
X19059Y7431D01*
X19032Y7424D01*
X19031Y7440D01*
X19020Y7480D01*
X19003Y7517D01*
X18991Y7534D01*
X18954Y7497D01*
X18950Y7513D01*
Y7586D01*
X18954Y7603D01*
X18965Y7627D01*
X18966Y7627D01*
X18950Y7643D01*
Y7656D01*
X18991Y7615D01*
X19003Y7632D01*
X19020Y7669D01*
X19024Y7685D01*
X19047Y7695D01*
X19073Y7702D01*
X19100Y7704D01*
X19120Y7703D01*
X19129Y7669D01*
X19146Y7632D01*
X19155Y7619D01*
Y7427D01*
G37*
G36*
Y7880D02*X19146Y7867D01*
X19129Y7830D01*
X19120Y7796D01*
X19100Y7795D01*
X19073Y7797D01*
X19047Y7804D01*
X19024Y7814D01*
X19020Y7830D01*
X19003Y7867D01*
X18991Y7884D01*
X18950Y7843D01*
Y7856D01*
X18966Y7872D01*
X18965Y7872D01*
X18954Y7897D01*
X18950Y7913D01*
Y7986D01*
X18954Y8002D01*
X18991Y7965D01*
X19003Y7982D01*
X19020Y8019D01*
X19031Y8059D01*
X19033Y8089D01*
X19047Y8095D01*
X19073Y8102D01*
X19100Y8104D01*
X19120Y8103D01*
X19129Y8069D01*
X19146Y8032D01*
X19155Y8019D01*
Y7880D01*
G37*
G36*
Y20978D02*X19183Y20951D01*
X19220Y20925D01*
X19261Y20905D01*
X19294Y20897D01*
Y20256D01*
X19283Y20249D01*
X19251Y20217D01*
X19225Y20179D01*
X19205Y20138D01*
X19194Y20095D01*
X19190Y20050D01*
X19194Y20004D01*
X19205Y19961D01*
X19225Y19920D01*
X19251Y19883D01*
X19283Y19851D01*
X19294Y19843D01*
Y11249D01*
X19291Y11252D01*
X19275Y11229D01*
X19256Y11188D01*
X19244Y11145D01*
X19240Y11100D01*
X19244Y11054D01*
X19256Y11011D01*
X19275Y10970D01*
X19291Y10947D01*
X19294Y10950D01*
Y9495D01*
X19294Y9495D01*
X19290Y9450D01*
X19294Y9404D01*
X19294Y9404D01*
Y8377D01*
X19269Y8370D01*
X19232Y8353D01*
X19215Y8341D01*
X19272Y8284D01*
X19272Y8284D01*
X19294Y8294D01*
Y8080D01*
X19291Y8084D01*
X19234Y8027D01*
X19234Y8027D01*
X19245Y8003D01*
X19248Y7992D01*
X19215Y7958D01*
X19227Y7950D01*
X19215Y7941D01*
X19248Y7907D01*
X19245Y7897D01*
X19234Y7872D01*
X19234Y7872D01*
X19291Y7815D01*
X19294Y7819D01*
Y7680D01*
X19291Y7684D01*
X19234Y7627D01*
X19234Y7627D01*
X19245Y7603D01*
X19248Y7592D01*
X19215Y7558D01*
X19232Y7546D01*
X19253Y7536D01*
X19252Y7523D01*
X19245Y7497D01*
X19234Y7472D01*
X19234Y7472D01*
X19291Y7415D01*
X19294Y7419D01*
Y7330D01*
X19291Y7334D01*
X19254Y7297D01*
X19247Y7323D01*
X19245Y7350D01*
X19247Y7376D01*
X19254Y7403D01*
X19265Y7427D01*
X19266Y7427D01*
X19208Y7484D01*
X19196Y7467D01*
X19179Y7430D01*
X19177Y7421D01*
X19155Y7427D01*
Y7619D01*
X19158Y7615D01*
X19216Y7672D01*
X19215Y7672D01*
X19204Y7697D01*
X19201Y7707D01*
X19234Y7741D01*
X19222Y7750D01*
X19234Y7758D01*
X19201Y7792D01*
X19204Y7803D01*
X19215Y7827D01*
X19216Y7827D01*
X19158Y7884D01*
X19155Y7880D01*
Y8019D01*
X19158Y8015D01*
X19216Y8072D01*
X19215Y8072D01*
X19204Y8097D01*
X19201Y8107D01*
X19234Y8141D01*
X19217Y8153D01*
X19196Y8163D01*
X19197Y8176D01*
X19204Y8203D01*
X19215Y8227D01*
X19216Y8227D01*
X19158Y8284D01*
X19155Y8280D01*
Y12700D01*
X19159Y12697D01*
X19174Y12720D01*
X19194Y12761D01*
X19205Y12804D01*
X19209Y12850D01*
X19205Y12895D01*
X19194Y12938D01*
X19174Y12979D01*
X19159Y13002D01*
X19155Y12999D01*
Y20978D01*
G37*
G36*
X19294Y20897D02*X19304Y20894D01*
X19350Y20890D01*
X19395Y20894D01*
X19438Y20905D01*
X19479Y20925D01*
X19517Y20951D01*
X19549Y20983D01*
X19550Y20984D01*
Y20288D01*
X19538Y20294D01*
X19495Y20305D01*
X19450Y20309D01*
X19404Y20305D01*
X19361Y20294D01*
X19320Y20275D01*
X19294Y20256D01*
Y20897D01*
G37*
G36*
Y19843D02*X19320Y19825D01*
X19361Y19805D01*
X19404Y19794D01*
X19450Y19790D01*
X19495Y19794D01*
X19538Y19805D01*
X19550Y19811D01*
Y11354D01*
X19545Y11355D01*
X19500Y11359D01*
X19454Y11355D01*
X19411Y11344D01*
X19370Y11324D01*
X19347Y11309D01*
X19404Y11251D01*
X19410Y11255D01*
X19438Y11269D01*
X19468Y11277D01*
X19500Y11279D01*
X19531Y11277D01*
X19550Y11272D01*
Y10927D01*
X19531Y10922D01*
X19500Y10920D01*
X19468Y10922D01*
X19438Y10930D01*
X19410Y10944D01*
X19404Y10948D01*
X19347Y10891D01*
X19370Y10875D01*
X19411Y10856D01*
X19454Y10844D01*
X19500Y10840D01*
X19545Y10844D01*
X19550Y10845D01*
Y9709D01*
X19504Y9705D01*
X19461Y9694D01*
X19420Y9675D01*
X19383Y9649D01*
X19351Y9617D01*
X19325Y9579D01*
X19305Y9538D01*
X19294Y9495D01*
Y10950D01*
X19348Y11004D01*
X19344Y11010D01*
X19330Y11038D01*
X19322Y11068D01*
X19320Y11100D01*
X19322Y11131D01*
X19330Y11161D01*
X19344Y11190D01*
X19348Y11195D01*
X19294Y11249D01*
Y19843D01*
G37*
G36*
Y9404D02*X19305Y9361D01*
X19325Y9320D01*
X19351Y9283D01*
X19383Y9251D01*
X19420Y9225D01*
X19461Y9205D01*
X19504Y9194D01*
X19550Y9190D01*
Y8272D01*
X19541Y8284D01*
X19484Y8227D01*
X19484Y8227D01*
X19495Y8203D01*
X19502Y8176D01*
X19503Y8163D01*
X19482Y8153D01*
X19465Y8141D01*
X19498Y8107D01*
X19495Y8097D01*
X19484Y8072D01*
X19484Y8072D01*
X19541Y8015D01*
X19550Y8027D01*
Y7872D01*
X19541Y7884D01*
X19484Y7827D01*
X19484Y7827D01*
X19495Y7803D01*
X19498Y7792D01*
X19465Y7758D01*
X19482Y7746D01*
X19503Y7736D01*
X19502Y7723D01*
X19495Y7697D01*
X19484Y7672D01*
X19484Y7672D01*
X19541Y7615D01*
X19550Y7627D01*
Y7443D01*
X19534Y7427D01*
X19534Y7427D01*
X19545Y7403D01*
X19548Y7392D01*
X19515Y7358D01*
X19527Y7350D01*
X19515Y7341D01*
X19548Y7307D01*
X19545Y7297D01*
X19534Y7272D01*
X19534Y7272D01*
X19550Y7256D01*
Y7122D01*
X19541Y7134D01*
X19504Y7097D01*
X19497Y7123D01*
X19496Y7136D01*
X19517Y7146D01*
X19534Y7158D01*
X19501Y7192D01*
X19504Y7203D01*
X19515Y7227D01*
X19516Y7227D01*
X19458Y7284D01*
X19446Y7267D01*
X19429Y7230D01*
X19427Y7221D01*
X19390Y7231D01*
X19350Y7234D01*
X19331Y7233D01*
X19331Y7240D01*
X19320Y7280D01*
X19303Y7317D01*
X19294Y7330D01*
Y7419D01*
X19303Y7432D01*
X19320Y7469D01*
X19324Y7485D01*
X19347Y7495D01*
X19373Y7502D01*
X19400Y7504D01*
X19420Y7503D01*
X19429Y7469D01*
X19446Y7432D01*
X19458Y7415D01*
X19516Y7472D01*
X19515Y7472D01*
X19504Y7497D01*
X19501Y7507D01*
X19534Y7541D01*
X19517Y7553D01*
X19496Y7563D01*
X19497Y7576D01*
X19504Y7603D01*
X19515Y7627D01*
X19516Y7627D01*
X19458Y7684D01*
X19446Y7667D01*
X19429Y7630D01*
X19425Y7614D01*
X19403Y7604D01*
X19376Y7597D01*
X19350Y7595D01*
X19329Y7596D01*
X19320Y7630D01*
X19303Y7667D01*
X19294Y7680D01*
Y7819D01*
X19303Y7832D01*
X19320Y7869D01*
X19329Y7903D01*
X19350Y7904D01*
X19370Y7903D01*
X19379Y7869D01*
X19396Y7832D01*
X19408Y7815D01*
X19466Y7872D01*
X19465Y7872D01*
X19454Y7897D01*
X19451Y7907D01*
X19484Y7941D01*
X19472Y7950D01*
X19484Y7958D01*
X19451Y7992D01*
X19454Y8003D01*
X19465Y8027D01*
X19466Y8027D01*
X19408Y8084D01*
X19396Y8067D01*
X19379Y8030D01*
X19370Y7996D01*
X19350Y7995D01*
X19329Y7996D01*
X19320Y8030D01*
X19303Y8067D01*
X19294Y8080D01*
Y8294D01*
X19297Y8295D01*
X19323Y8302D01*
X19350Y8304D01*
X19376Y8302D01*
X19403Y8295D01*
X19427Y8284D01*
X19427Y8284D01*
X19484Y8341D01*
X19467Y8353D01*
X19430Y8370D01*
X19390Y8381D01*
X19350Y8384D01*
X19309Y8381D01*
X19294Y8377D01*
Y9404D01*
G37*
G36*
X19350Y100D02*X19155D01*
Y6869D01*
X19158Y6865D01*
X19216Y6922D01*
X19215Y6922D01*
X19204Y6947D01*
X19197Y6973D01*
X19196Y6986D01*
X19217Y6996D01*
X19234Y7008D01*
X19201Y7042D01*
X19204Y7053D01*
X19215Y7077D01*
X19216Y7077D01*
X19158Y7134D01*
X19155Y7130D01*
Y7322D01*
X19167Y7326D01*
X19168Y7309D01*
X19179Y7269D01*
X19196Y7232D01*
X19208Y7215D01*
X19245Y7252D01*
X19252Y7226D01*
X19253Y7213D01*
X19232Y7203D01*
X19215Y7191D01*
X19248Y7157D01*
X19245Y7147D01*
X19234Y7122D01*
X19234Y7122D01*
X19291Y7065D01*
X19303Y7082D01*
X19320Y7119D01*
X19322Y7128D01*
X19350Y7121D01*
Y6845D01*
X19323Y6847D01*
X19297Y6854D01*
X19272Y6865D01*
X19272Y6866D01*
X19215Y6808D01*
X19232Y6796D01*
X19269Y6779D01*
X19309Y6768D01*
X19350Y6765D01*
Y100D01*
G37*
G36*
X19550D02*X19350D01*
Y6765D01*
X19390Y6768D01*
X19430Y6779D01*
X19467Y6796D01*
X19484Y6808D01*
X19427Y6866D01*
X19427Y6865D01*
X19403Y6854D01*
X19376Y6847D01*
X19350Y6845D01*
Y7121D01*
X19359Y7118D01*
X19400Y7115D01*
X19418Y7116D01*
X19418Y7109D01*
X19429Y7069D01*
X19446Y7032D01*
X19458Y7015D01*
X19495Y7052D01*
X19502Y7026D01*
X19504Y7000D01*
X19502Y6973D01*
X19495Y6947D01*
X19484Y6922D01*
X19484Y6922D01*
X19541Y6865D01*
X19550Y6877D01*
Y100D01*
G37*
G36*
Y20984D02*X19575Y21020D01*
X19594Y21061D01*
X19604Y21100D01*
X19705D01*
Y20095D01*
X19694Y20138D01*
X19675Y20179D01*
X19649Y20217D01*
X19617Y20249D01*
X19579Y20275D01*
X19550Y20288D01*
Y20984D01*
G37*
G36*
X19705Y100D02*X19550D01*
Y6877D01*
X19553Y6882D01*
X19570Y6919D01*
X19572Y6928D01*
X19609Y6918D01*
X19650Y6915D01*
X19690Y6918D01*
X19705Y6922D01*
Y100D01*
G37*
G36*
Y7005D02*X19703Y7004D01*
X19676Y6997D01*
X19650Y6995D01*
X19623Y6997D01*
X19597Y7004D01*
X19583Y7010D01*
X19581Y7040D01*
X19570Y7080D01*
X19553Y7117D01*
X19550Y7122D01*
Y7256D01*
X19591Y7215D01*
X19603Y7232D01*
X19620Y7269D01*
X19629Y7303D01*
X19650Y7304D01*
X19670Y7303D01*
X19679Y7269D01*
X19696Y7232D01*
X19705Y7219D01*
Y7005D01*
G37*
G36*
Y7480D02*X19696Y7467D01*
X19679Y7430D01*
X19670Y7396D01*
X19650Y7395D01*
X19629Y7396D01*
X19620Y7430D01*
X19603Y7467D01*
X19591Y7484D01*
X19550Y7443D01*
Y7627D01*
X19553Y7632D01*
X19570Y7669D01*
X19574Y7685D01*
X19597Y7695D01*
X19623Y7702D01*
X19650Y7704D01*
X19670Y7703D01*
X19679Y7669D01*
X19696Y7632D01*
X19705Y7619D01*
Y7480D01*
G37*
G36*
Y7880D02*X19696Y7867D01*
X19679Y7830D01*
X19675Y7814D01*
X19653Y7804D01*
X19626Y7797D01*
X19600Y7795D01*
X19579Y7796D01*
X19570Y7830D01*
X19553Y7867D01*
X19550Y7872D01*
Y8027D01*
X19553Y8032D01*
X19570Y8069D01*
X19579Y8103D01*
X19600Y8104D01*
X19626Y8102D01*
X19653Y8095D01*
X19666Y8089D01*
X19668Y8059D01*
X19679Y8019D01*
X19696Y7982D01*
X19705Y7969D01*
Y7880D01*
G37*
G36*
Y8230D02*X19696Y8217D01*
X19679Y8180D01*
X19677Y8171D01*
X19640Y8181D01*
X19600Y8184D01*
X19581Y8183D01*
X19581Y8190D01*
X19570Y8230D01*
X19553Y8267D01*
X19550Y8272D01*
Y9190D01*
X19595Y9194D01*
X19638Y9205D01*
X19679Y9225D01*
X19705Y9243D01*
Y8230D01*
G37*
G36*
Y9656D02*X19679Y9675D01*
X19638Y9694D01*
X19595Y9705D01*
X19550Y9709D01*
Y10845D01*
X19588Y10856D01*
X19629Y10875D01*
X19652Y10891D01*
X19595Y10948D01*
X19590Y10944D01*
X19561Y10930D01*
X19550Y10927D01*
Y11272D01*
X19561Y11269D01*
X19590Y11255D01*
X19595Y11251D01*
X19652Y11309D01*
X19629Y11324D01*
X19588Y11344D01*
X19550Y11354D01*
Y19811D01*
X19579Y19825D01*
X19617Y19851D01*
X19649Y19883D01*
X19675Y19920D01*
X19694Y19961D01*
X19705Y20004D01*
Y11249D01*
X19651Y11195D01*
X19655Y11190D01*
X19669Y11161D01*
X19677Y11131D01*
X19679Y11100D01*
X19677Y11068D01*
X19669Y11038D01*
X19655Y11010D01*
X19651Y11004D01*
X19705Y10950D01*
Y9656D01*
G37*
G36*
Y21100D02*X19894D01*
Y16499D01*
X19891Y16502D01*
X19875Y16479D01*
X19856Y16438D01*
X19844Y16395D01*
X19840Y16350D01*
X19844Y16304D01*
X19856Y16261D01*
X19875Y16220D01*
X19891Y16197D01*
X19894Y16200D01*
Y8334D01*
X19859Y8331D01*
X19819Y8320D01*
X19782Y8303D01*
X19765Y8291D01*
X19822Y8234D01*
X19822Y8234D01*
X19847Y8245D01*
X19873Y8252D01*
X19894Y8254D01*
Y7984D01*
X19859Y7981D01*
X19832Y7974D01*
X19831Y7990D01*
X19820Y8030D01*
X19803Y8067D01*
X19791Y8084D01*
X19754Y8047D01*
X19747Y8073D01*
X19745Y8100D01*
X19747Y8126D01*
X19754Y8153D01*
X19765Y8177D01*
X19766Y8177D01*
X19708Y8234D01*
X19705Y8230D01*
Y9243D01*
X19717Y9251D01*
X19749Y9283D01*
X19775Y9320D01*
X19794Y9361D01*
X19805Y9404D01*
X19809Y9450D01*
X19805Y9495D01*
X19794Y9538D01*
X19775Y9579D01*
X19749Y9617D01*
X19717Y9649D01*
X19705Y9656D01*
Y10950D01*
X19709Y10947D01*
X19724Y10970D01*
X19744Y11011D01*
X19755Y11054D01*
X19759Y11100D01*
X19755Y11145D01*
X19744Y11188D01*
X19724Y11229D01*
X19709Y11252D01*
X19705Y11249D01*
Y20004D01*
X19705Y20004D01*
X19709Y20050D01*
X19705Y20095D01*
X19705Y20095D01*
Y21100D01*
G37*
G36*
X19894Y100D02*X19705D01*
Y6922D01*
X19727Y6928D01*
X19729Y6919D01*
X19746Y6882D01*
X19758Y6865D01*
X19816Y6922D01*
X19815Y6922D01*
X19804Y6947D01*
X19797Y6973D01*
X19795Y7000D01*
X19797Y7026D01*
X19804Y7052D01*
X19841Y7015D01*
X19853Y7032D01*
X19870Y7069D01*
X19881Y7109D01*
X19881Y7116D01*
X19894Y7115D01*
Y6855D01*
X19872Y6865D01*
X19872Y6866D01*
X19815Y6808D01*
X19832Y6796D01*
X19869Y6779D01*
X19894Y6772D01*
Y100D01*
G37*
G36*
Y7227D02*X19872Y7221D01*
X19870Y7230D01*
X19853Y7267D01*
X19841Y7284D01*
X19784Y7227D01*
X19784Y7227D01*
X19795Y7203D01*
X19798Y7192D01*
X19765Y7158D01*
X19782Y7146D01*
X19803Y7136D01*
X19802Y7123D01*
X19795Y7097D01*
X19758Y7134D01*
X19746Y7117D01*
X19729Y7080D01*
X19718Y7040D01*
X19716Y7010D01*
X19705Y7005D01*
Y7219D01*
X19708Y7215D01*
X19766Y7272D01*
X19765Y7272D01*
X19754Y7297D01*
X19751Y7307D01*
X19784Y7341D01*
X19772Y7350D01*
X19784Y7358D01*
X19751Y7392D01*
X19754Y7403D01*
X19765Y7427D01*
X19766Y7427D01*
X19708Y7484D01*
X19705Y7480D01*
Y7619D01*
X19708Y7615D01*
X19766Y7672D01*
X19765Y7672D01*
X19754Y7697D01*
X19751Y7707D01*
X19784Y7741D01*
X19767Y7753D01*
X19746Y7763D01*
X19747Y7776D01*
X19754Y7803D01*
X19765Y7827D01*
X19766Y7827D01*
X19708Y7884D01*
X19705Y7880D01*
Y7969D01*
X19708Y7965D01*
X19745Y8002D01*
X19752Y7976D01*
X19754Y7950D01*
X19752Y7923D01*
X19745Y7897D01*
X19734Y7872D01*
X19734Y7872D01*
X19791Y7815D01*
X19803Y7832D01*
X19820Y7869D01*
X19822Y7878D01*
X19859Y7868D01*
X19894Y7865D01*
Y7595D01*
X19879Y7596D01*
X19870Y7630D01*
X19853Y7667D01*
X19841Y7684D01*
X19784Y7627D01*
X19784Y7627D01*
X19795Y7603D01*
X19798Y7592D01*
X19765Y7558D01*
X19777Y7550D01*
X19765Y7541D01*
X19798Y7507D01*
X19795Y7497D01*
X19784Y7472D01*
X19784Y7472D01*
X19841Y7415D01*
X19853Y7432D01*
X19870Y7469D01*
X19879Y7503D01*
X19894Y7504D01*
Y7227D01*
G37*
G36*
Y21100D02*X20084D01*
Y16608D01*
X20054Y16605D01*
X20011Y16594D01*
X19970Y16574D01*
X19947Y16559D01*
X20004Y16501D01*
X20010Y16505D01*
X20038Y16519D01*
X20068Y16527D01*
X20084Y16528D01*
Y16171D01*
X20068Y16172D01*
X20038Y16180D01*
X20010Y16194D01*
X20004Y16198D01*
X19947Y16141D01*
X19970Y16125D01*
X20011Y16106D01*
X20054Y16094D01*
X20084Y16091D01*
Y8228D01*
X20034Y8177D01*
X20034Y8177D01*
X20045Y8153D01*
X20052Y8126D01*
X20054Y8100D01*
X20052Y8073D01*
X20045Y8047D01*
X20034Y8022D01*
X20034Y8022D01*
X20084Y7972D01*
Y7878D01*
X20034Y7827D01*
X20034Y7827D01*
X20045Y7803D01*
X20052Y7776D01*
X20054Y7750D01*
X20052Y7723D01*
X20045Y7697D01*
X20034Y7672D01*
X20034Y7672D01*
X20084Y7622D01*
Y7478D01*
X20034Y7427D01*
X20034Y7427D01*
X20045Y7403D01*
X20052Y7376D01*
X20054Y7350D01*
X20052Y7323D01*
X20045Y7297D01*
X20034Y7272D01*
X20034Y7272D01*
X20084Y7222D01*
Y7191D01*
X20067Y7203D01*
X20030Y7220D01*
X19990Y7231D01*
X19950Y7234D01*
X19909Y7231D01*
X19894Y7227D01*
Y7504D01*
X19900Y7504D01*
X19926Y7502D01*
X19953Y7495D01*
X19977Y7484D01*
X19977Y7484D01*
X20034Y7541D01*
X20022Y7550D01*
X20034Y7558D01*
X19977Y7616D01*
X19977Y7615D01*
X19953Y7604D01*
X19926Y7597D01*
X19900Y7595D01*
X19894Y7595D01*
Y7865D01*
X19900Y7865D01*
X19940Y7868D01*
X19980Y7879D01*
X20017Y7896D01*
X20034Y7908D01*
X20018Y7925D01*
X20034Y7941D01*
X20017Y7953D01*
X19980Y7970D01*
X19940Y7981D01*
X19900Y7984D01*
X19894Y7984D01*
Y8254D01*
X19900Y8254D01*
X19926Y8252D01*
X19953Y8245D01*
X19977Y8234D01*
X19977Y8234D01*
X20034Y8291D01*
X20017Y8303D01*
X19980Y8320D01*
X19940Y8331D01*
X19900Y8334D01*
X19894Y8334D01*
Y16200D01*
X19948Y16254D01*
X19944Y16260D01*
X19930Y16288D01*
X19922Y16318D01*
X19920Y16350D01*
X19922Y16381D01*
X19930Y16411D01*
X19944Y16440D01*
X19948Y16445D01*
X19894Y16499D01*
Y21100D01*
G37*
G36*
X20084Y100D02*X19894D01*
Y6772D01*
X19909Y6768D01*
X19950Y6765D01*
X19990Y6768D01*
X20030Y6779D01*
X20067Y6796D01*
X20084Y6808D01*
Y100D01*
G37*
G36*
Y6809D02*X20027Y6866D01*
X20027Y6865D01*
X20003Y6854D01*
X19976Y6847D01*
X19950Y6845D01*
X19923Y6847D01*
X19897Y6854D01*
X19894Y6855D01*
Y7115D01*
X19900Y7115D01*
X19940Y7118D01*
X19980Y7129D01*
X20009Y7142D01*
X20027Y7134D01*
X20027Y7134D01*
X20084Y7190D01*
Y7078D01*
X20084Y7077D01*
X20084Y7077D01*
X20084Y7076D01*
Y6923D01*
X20084Y6922D01*
X20084Y6922D01*
X20084Y6922D01*
Y6809D01*
G37*
G36*
Y21100D02*X20244D01*
Y16564D01*
X20229Y16574D01*
X20188Y16594D01*
X20145Y16605D01*
X20100Y16609D01*
X20084Y16608D01*
Y21100D01*
G37*
G36*
Y16528D02*X20100Y16529D01*
X20131Y16527D01*
X20161Y16519D01*
X20190Y16505D01*
X20195Y16501D01*
X20244Y16550D01*
Y16149D01*
X20195Y16198D01*
X20190Y16194D01*
X20161Y16180D01*
X20131Y16172D01*
X20100Y16170D01*
X20084Y16171D01*
Y16528D01*
G37*
G36*
Y16091D02*X20100Y16090D01*
X20145Y16094D01*
X20188Y16106D01*
X20229Y16125D01*
X20244Y16135D01*
Y9249D01*
X20241Y9252D01*
X20225Y9229D01*
X20206Y9188D01*
X20194Y9145D01*
X20190Y9100D01*
X20194Y9054D01*
X20206Y9011D01*
X20225Y8970D01*
X20241Y8947D01*
X20244Y8950D01*
Y100D01*
X20084D01*
Y6808D01*
X20084Y6808D01*
X20084Y6809D01*
Y6922D01*
X20141Y6865D01*
X20153Y6882D01*
X20170Y6919D01*
X20181Y6959D01*
X20184Y7000D01*
X20181Y7040D01*
X20170Y7080D01*
X20153Y7117D01*
X20141Y7134D01*
X20084Y7078D01*
Y7190D01*
X20084Y7191D01*
X20084Y7191D01*
Y7222D01*
X20091Y7215D01*
X20103Y7232D01*
X20120Y7269D01*
X20131Y7309D01*
X20134Y7350D01*
X20131Y7390D01*
X20120Y7430D01*
X20103Y7467D01*
X20091Y7484D01*
X20084Y7478D01*
Y7622D01*
X20091Y7615D01*
X20103Y7632D01*
X20120Y7669D01*
X20131Y7709D01*
X20134Y7750D01*
X20131Y7790D01*
X20120Y7830D01*
X20103Y7867D01*
X20091Y7884D01*
X20084Y7878D01*
Y7972D01*
X20091Y7965D01*
X20103Y7982D01*
X20120Y8019D01*
X20131Y8059D01*
X20134Y8100D01*
X20131Y8140D01*
X20120Y8180D01*
X20103Y8217D01*
X20091Y8234D01*
X20084Y8228D01*
Y16091D01*
G37*
G36*
Y7076D02*X20095Y7053D01*
X20102Y7026D01*
X20104Y7000D01*
X20102Y6973D01*
X20095Y6947D01*
X20084Y6923D01*
Y7076D01*
G37*
G36*
X18950Y7086D02*X18952Y7076D01*
X18954Y7050D01*
X18952Y7023D01*
X18950Y7013D01*
Y7086D01*
G37*
G36*
Y7436D02*X18952Y7426D01*
X18954Y7400D01*
X18952Y7373D01*
X18950Y7363D01*
Y7436D01*
G37*
G36*
Y8136D02*X18952Y8126D01*
X18954Y8100D01*
X18952Y8073D01*
X18950Y8063D01*
Y8136D01*
G37*
G36*
Y7786D02*X18952Y7776D01*
X18954Y7750D01*
X18952Y7723D01*
X18950Y7713D01*
Y7786D01*
G37*
G36*
X20244Y21100D02*X20305D01*
Y16499D01*
X20251Y16445D01*
X20255Y16440D01*
X20269Y16411D01*
X20277Y16381D01*
X20279Y16350D01*
X20277Y16318D01*
X20269Y16288D01*
X20255Y16260D01*
X20251Y16254D01*
X20305Y16200D01*
Y10538D01*
X20294Y10495D01*
X20290Y10450D01*
X20294Y10404D01*
X20305Y10361D01*
Y9314D01*
X20297Y9309D01*
X20305Y9300D01*
Y8899D01*
X20297Y8891D01*
X20305Y8885D01*
Y100D01*
X20244D01*
Y8950D01*
X20298Y9004D01*
X20294Y9010D01*
X20280Y9038D01*
X20272Y9068D01*
X20270Y9100D01*
X20272Y9131D01*
X20280Y9161D01*
X20294Y9190D01*
X20298Y9195D01*
X20244Y9249D01*
Y16135D01*
X20252Y16141D01*
X20244Y16149D01*
Y16550D01*
X20252Y16559D01*
X20244Y16564D01*
Y21100D01*
G37*
G36*
X20305D02*X20450D01*
Y10688D01*
X20420Y10675D01*
X20383Y10649D01*
X20351Y10617D01*
X20325Y10579D01*
X20305Y10538D01*
X20305Y10538D01*
Y16200D01*
X20309Y16197D01*
X20324Y16220D01*
X20344Y16261D01*
X20355Y16304D01*
X20359Y16350D01*
X20355Y16395D01*
X20344Y16438D01*
X20324Y16479D01*
X20309Y16502D01*
X20305Y16499D01*
Y21100D01*
G37*
G36*
Y10361D02*X20305Y10361D01*
X20325Y10320D01*
X20351Y10283D01*
X20383Y10251D01*
X20420Y10225D01*
X20450Y10211D01*
Y9359D01*
X20404Y9355D01*
X20361Y9344D01*
X20320Y9324D01*
X20305Y9314D01*
Y10361D01*
G37*
G36*
Y9300D02*X20354Y9251D01*
X20360Y9255D01*
X20388Y9269D01*
X20418Y9277D01*
X20450Y9279D01*
Y8920D01*
X20418Y8922D01*
X20388Y8930D01*
X20360Y8944D01*
X20354Y8948D01*
X20305Y8899D01*
Y9300D01*
G37*
G36*
Y8885D02*X20320Y8875D01*
X20361Y8856D01*
X20404Y8844D01*
X20450Y8840D01*
Y100D01*
X20305D01*
Y8885D01*
G37*
G36*
X20450Y21100D02*X20655D01*
Y10686D01*
X20638Y10694D01*
X20595Y10705D01*
X20550Y10709D01*
X20504Y10705D01*
X20461Y10694D01*
X20450Y10688D01*
Y21100D01*
G37*
G36*
X20594Y100D02*X20450D01*
Y8840D01*
X20495Y8844D01*
X20538Y8856D01*
X20579Y8875D01*
X20594Y8885D01*
Y7195D01*
X20594Y7195D01*
X20590Y7150D01*
X20594Y7104D01*
X20594Y7104D01*
Y6056D01*
X20583Y6049D01*
X20551Y6017D01*
X20525Y5979D01*
X20505Y5938D01*
X20494Y5895D01*
X20490Y5850D01*
X20494Y5804D01*
X20505Y5761D01*
X20525Y5720D01*
X20551Y5683D01*
X20583Y5651D01*
X20594Y5643D01*
Y5499D01*
X20591Y5502D01*
X20575Y5479D01*
X20556Y5438D01*
X20544Y5395D01*
X20540Y5350D01*
X20544Y5304D01*
X20556Y5261D01*
X20575Y5220D01*
X20591Y5197D01*
X20594Y5200D01*
Y100D01*
G37*
G36*
Y8899D02*X20545Y8948D01*
X20540Y8944D01*
X20511Y8930D01*
X20481Y8922D01*
X20450Y8920D01*
Y9279D01*
X20481Y9277D01*
X20511Y9269D01*
X20540Y9255D01*
X20545Y9251D01*
X20594Y9300D01*
Y8899D01*
G37*
G36*
Y9314D02*X20579Y9324D01*
X20538Y9344D01*
X20495Y9355D01*
X20450Y9359D01*
Y10211D01*
X20461Y10205D01*
X20504Y10194D01*
X20550Y10190D01*
X20594Y10194D01*
Y9314D01*
G37*
G36*
X20655Y100D02*X20594D01*
Y5200D01*
X20648Y5254D01*
X20644Y5260D01*
X20630Y5288D01*
X20622Y5318D01*
X20620Y5350D01*
X20622Y5381D01*
X20630Y5411D01*
X20644Y5440D01*
X20648Y5445D01*
X20594Y5499D01*
Y5643D01*
X20620Y5625D01*
X20655Y5608D01*
Y5564D01*
X20647Y5559D01*
X20655Y5550D01*
Y5149D01*
X20647Y5141D01*
X20655Y5135D01*
Y100D01*
G37*
G36*
X20594Y8885D02*X20602Y8891D01*
X20594Y8899D01*
Y9300D01*
X20602Y9309D01*
X20594Y9314D01*
Y10194D01*
X20595Y10194D01*
X20638Y10205D01*
X20655Y10213D01*
Y9249D01*
X20601Y9195D01*
X20605Y9190D01*
X20619Y9161D01*
X20627Y9131D01*
X20629Y9100D01*
X20627Y9068D01*
X20619Y9038D01*
X20605Y9010D01*
X20601Y9004D01*
X20655Y8950D01*
Y7321D01*
X20651Y7317D01*
X20625Y7279D01*
X20605Y7238D01*
X20594Y7195D01*
Y8885D01*
G37*
G36*
Y7104D02*X20605Y7061D01*
X20625Y7020D01*
X20651Y6983D01*
X20655Y6978D01*
Y6091D01*
X20620Y6075D01*
X20594Y6056D01*
Y7104D01*
G37*
G36*
X20655Y21100D02*X21000D01*
Y19709D01*
X20954Y19705D01*
X20911Y19694D01*
X20870Y19675D01*
X20833Y19649D01*
X20801Y19617D01*
X20775Y19579D01*
X20755Y19538D01*
X20744Y19495D01*
X20740Y19450D01*
X20744Y19404D01*
X20755Y19361D01*
X20775Y19320D01*
X20801Y19283D01*
X20833Y19251D01*
X20870Y19225D01*
X20911Y19205D01*
X20954Y19194D01*
X21000Y19190D01*
Y11560D01*
X20983Y11549D01*
X20951Y11517D01*
X20925Y11479D01*
X20905Y11438D01*
X20894Y11395D01*
X20890Y11350D01*
X20894Y11304D01*
X20905Y11261D01*
X20925Y11220D01*
X20951Y11183D01*
X20983Y11151D01*
X21000Y11139D01*
Y7360D01*
X20979Y7375D01*
X20938Y7394D01*
X20895Y7405D01*
X20850Y7409D01*
X20804Y7405D01*
X20761Y7394D01*
X20720Y7375D01*
X20683Y7349D01*
X20655Y7321D01*
Y8950D01*
X20659Y8947D01*
X20674Y8970D01*
X20694Y9011D01*
X20705Y9054D01*
X20709Y9100D01*
X20705Y9145D01*
X20694Y9188D01*
X20674Y9229D01*
X20659Y9252D01*
X20655Y9249D01*
Y10213D01*
X20679Y10225D01*
X20717Y10251D01*
X20749Y10283D01*
X20775Y10320D01*
X20794Y10361D01*
X20805Y10404D01*
X20809Y10450D01*
X20805Y10495D01*
X20794Y10538D01*
X20775Y10579D01*
X20749Y10617D01*
X20717Y10649D01*
X20679Y10675D01*
X20655Y10686D01*
Y21100D01*
G37*
G36*
X21000Y100D02*X20655D01*
Y5135D01*
X20670Y5125D01*
X20711Y5106D01*
X20754Y5094D01*
X20800Y5090D01*
X20845Y5094D01*
X20888Y5106D01*
X20929Y5125D01*
X20952Y5141D01*
X20895Y5198D01*
X20890Y5194D01*
X20861Y5180D01*
X20831Y5172D01*
X20800Y5170D01*
X20768Y5172D01*
X20738Y5180D01*
X20710Y5194D01*
X20704Y5198D01*
X20655Y5149D01*
Y5550D01*
X20704Y5501D01*
X20710Y5505D01*
X20738Y5519D01*
X20768Y5527D01*
X20800Y5529D01*
X20831Y5527D01*
X20861Y5519D01*
X20890Y5505D01*
X20895Y5501D01*
X20952Y5559D01*
X20929Y5574D01*
X20888Y5594D01*
X20845Y5605D01*
X20839Y5606D01*
X20879Y5625D01*
X20917Y5651D01*
X20949Y5683D01*
X20975Y5720D01*
X20994Y5761D01*
X21000Y5783D01*
Y5493D01*
X20951Y5445D01*
X20955Y5440D01*
X20969Y5411D01*
X20977Y5381D01*
X20979Y5350D01*
X20977Y5318D01*
X20969Y5288D01*
X20955Y5260D01*
X20951Y5254D01*
X21000Y5206D01*
Y4917D01*
X20994Y4895D01*
X20990Y4850D01*
X20994Y4804D01*
X21000Y4783D01*
Y100D01*
G37*
G36*
Y5917D02*X20994Y5938D01*
X20975Y5979D01*
X20949Y6017D01*
X20917Y6049D01*
X20879Y6075D01*
X20838Y6094D01*
X20795Y6105D01*
X20750Y6109D01*
X20704Y6105D01*
X20661Y6094D01*
X20655Y6091D01*
Y6978D01*
X20683Y6951D01*
X20720Y6925D01*
X20761Y6905D01*
X20804Y6894D01*
X20850Y6890D01*
X20895Y6894D01*
X20938Y6905D01*
X20979Y6925D01*
X21000Y6939D01*
Y5917D01*
G37*
G36*
Y21100D02*X21444D01*
Y20649D01*
X21441Y20652D01*
X21425Y20629D01*
X21406Y20588D01*
X21394Y20545D01*
X21390Y20500D01*
X21394Y20454D01*
X21406Y20411D01*
X21425Y20370D01*
X21441Y20347D01*
X21444Y20350D01*
Y8545D01*
X21444Y8545D01*
X21440Y8500D01*
X21444Y8454D01*
X21444Y8454D01*
Y5021D01*
X21417Y5049D01*
X21379Y5075D01*
X21338Y5094D01*
X21295Y5105D01*
X21250Y5109D01*
X21204Y5105D01*
X21161Y5094D01*
X21120Y5075D01*
X21083Y5049D01*
X21051Y5017D01*
X21025Y4979D01*
X21005Y4938D01*
X21000Y4917D01*
Y5206D01*
X21009Y5197D01*
X21024Y5220D01*
X21044Y5261D01*
X21055Y5304D01*
X21059Y5350D01*
X21055Y5395D01*
X21044Y5438D01*
X21024Y5479D01*
X21009Y5502D01*
X21000Y5493D01*
Y5783D01*
X21005Y5804D01*
X21009Y5850D01*
X21005Y5895D01*
X21000Y5917D01*
Y6939D01*
X21017Y6951D01*
X21049Y6983D01*
X21075Y7020D01*
X21094Y7061D01*
X21105Y7104D01*
X21109Y7150D01*
X21105Y7195D01*
X21094Y7238D01*
X21075Y7279D01*
X21049Y7317D01*
X21017Y7349D01*
X21000Y7360D01*
Y11139D01*
X21020Y11125D01*
X21061Y11105D01*
X21104Y11094D01*
X21150Y11090D01*
X21195Y11094D01*
X21238Y11105D01*
X21279Y11125D01*
X21317Y11151D01*
X21349Y11183D01*
X21375Y11220D01*
X21394Y11261D01*
X21405Y11304D01*
X21409Y11350D01*
X21405Y11395D01*
X21394Y11438D01*
X21375Y11479D01*
X21349Y11517D01*
X21317Y11549D01*
X21279Y11575D01*
X21238Y11594D01*
X21195Y11605D01*
X21150Y11609D01*
X21104Y11605D01*
X21061Y11594D01*
X21020Y11575D01*
X21000Y11560D01*
Y19190D01*
X21045Y19194D01*
X21088Y19205D01*
X21129Y19225D01*
X21167Y19251D01*
X21199Y19283D01*
X21225Y19320D01*
X21244Y19361D01*
X21255Y19404D01*
X21259Y19450D01*
X21255Y19495D01*
X21244Y19538D01*
X21225Y19579D01*
X21199Y19617D01*
X21167Y19649D01*
X21129Y19675D01*
X21088Y19694D01*
X21045Y19705D01*
X21000Y19709D01*
Y21100D01*
G37*
G36*
X21444Y100D02*X21000D01*
Y4783D01*
X21005Y4761D01*
X21025Y4720D01*
X21051Y4683D01*
X21083Y4651D01*
X21120Y4625D01*
X21161Y4605D01*
X21204Y4594D01*
X21250Y4590D01*
X21295Y4594D01*
X21338Y4605D01*
X21379Y4625D01*
X21417Y4651D01*
X21444Y4678D01*
Y100D01*
G37*
G36*
Y21100D02*X21700D01*
Y20754D01*
X21695Y20755D01*
X21650Y20759D01*
X21604Y20755D01*
X21561Y20744D01*
X21520Y20724D01*
X21497Y20709D01*
X21554Y20651D01*
X21560Y20655D01*
X21588Y20669D01*
X21618Y20677D01*
X21650Y20679D01*
X21681Y20677D01*
X21700Y20672D01*
Y20327D01*
X21681Y20322D01*
X21650Y20320D01*
X21618Y20322D01*
X21588Y20330D01*
X21560Y20344D01*
X21554Y20348D01*
X21497Y20291D01*
X21520Y20275D01*
X21561Y20256D01*
X21604Y20244D01*
X21650Y20240D01*
X21695Y20244D01*
X21700Y20245D01*
Y8759D01*
X21654Y8755D01*
X21611Y8744D01*
X21570Y8725D01*
X21533Y8699D01*
X21501Y8667D01*
X21475Y8629D01*
X21455Y8588D01*
X21444Y8545D01*
Y20350D01*
X21498Y20404D01*
X21494Y20410D01*
X21480Y20438D01*
X21472Y20468D01*
X21470Y20500D01*
X21472Y20531D01*
X21480Y20561D01*
X21494Y20590D01*
X21498Y20595D01*
X21444Y20649D01*
Y21100D01*
G37*
G36*
Y8454D02*X21455Y8411D01*
X21475Y8370D01*
X21501Y8333D01*
X21533Y8301D01*
X21570Y8275D01*
X21611Y8255D01*
X21654Y8244D01*
X21700Y8240D01*
Y100D01*
X21444D01*
Y4678D01*
X21449Y4683D01*
X21475Y4720D01*
X21494Y4761D01*
X21505Y4804D01*
X21509Y4850D01*
X21505Y4895D01*
X21494Y4938D01*
X21475Y4979D01*
X21449Y5017D01*
X21444Y5021D01*
Y8454D01*
G37*
G36*
X21700Y21100D02*X21855D01*
Y20649D01*
X21801Y20595D01*
X21805Y20590D01*
X21819Y20561D01*
X21827Y20531D01*
X21829Y20500D01*
X21827Y20468D01*
X21819Y20438D01*
X21805Y20410D01*
X21801Y20404D01*
X21855Y20350D01*
Y8706D01*
X21829Y8725D01*
X21788Y8744D01*
X21745Y8755D01*
X21700Y8759D01*
Y20245D01*
X21738Y20256D01*
X21779Y20275D01*
X21802Y20291D01*
X21745Y20348D01*
X21740Y20344D01*
X21711Y20330D01*
X21700Y20327D01*
Y20672D01*
X21711Y20669D01*
X21740Y20655D01*
X21745Y20651D01*
X21802Y20709D01*
X21779Y20724D01*
X21738Y20744D01*
X21700Y20754D01*
Y21100D01*
G37*
G36*
X21855Y100D02*X21700D01*
Y8240D01*
X21745Y8244D01*
X21788Y8255D01*
X21829Y8275D01*
X21855Y8293D01*
Y100D01*
G37*
G36*
Y21100D02*X22144D01*
Y15098D01*
X22143Y15098D01*
X22077Y15052D01*
X22020Y14995D01*
X21974Y14930D01*
X21941Y14857D01*
X21920Y14779D01*
X21913Y14700D01*
X21920Y14620D01*
X21941Y14542D01*
X21974Y14470D01*
X22020Y14404D01*
X22077Y14347D01*
X22143Y14301D01*
X22144Y14301D01*
Y13679D01*
X22124Y13636D01*
X22106Y13569D01*
X22100Y13500D01*
X22106Y13430D01*
X22124Y13363D01*
X22144Y13320D01*
Y5799D01*
X22141Y5802D01*
X22125Y5779D01*
X22106Y5738D01*
X22094Y5695D01*
X22090Y5650D01*
X22094Y5604D01*
X22106Y5561D01*
X22125Y5520D01*
X22141Y5497D01*
X22144Y5500D01*
Y100D01*
X21855D01*
Y8293D01*
X21867Y8301D01*
X21899Y8333D01*
X21925Y8370D01*
X21944Y8411D01*
X21955Y8454D01*
X21959Y8500D01*
X21955Y8545D01*
X21944Y8588D01*
X21925Y8629D01*
X21899Y8667D01*
X21867Y8699D01*
X21855Y8706D01*
Y20350D01*
X21859Y20347D01*
X21874Y20370D01*
X21894Y20411D01*
X21905Y20454D01*
X21909Y20500D01*
X21905Y20545D01*
X21894Y20588D01*
X21874Y20629D01*
X21859Y20652D01*
X21855Y20649D01*
Y21100D01*
G37*
G36*
X22144D02*X22373D01*
Y15160D01*
X22293Y15153D01*
X22216Y15132D01*
X22144Y15098D01*
Y21100D01*
G37*
G36*
Y14301D02*X22216Y14267D01*
X22293Y14247D01*
X22373Y14240D01*
Y13878D01*
X22363Y13875D01*
X22300Y13846D01*
X22255Y13815D01*
X22327Y13743D01*
X22350Y13759D01*
X22373Y13770D01*
Y13229D01*
X22350Y13240D01*
X22327Y13256D01*
X22255Y13185D01*
X22300Y13153D01*
X22363Y13124D01*
X22373Y13121D01*
Y5907D01*
X22350Y5909D01*
X22304Y5905D01*
X22261Y5894D01*
X22220Y5874D01*
X22197Y5859D01*
X22254Y5801D01*
X22260Y5805D01*
X22288Y5819D01*
X22318Y5827D01*
X22350Y5829D01*
X22373Y5827D01*
Y5472D01*
X22350Y5470D01*
X22318Y5472D01*
X22288Y5480D01*
X22260Y5494D01*
X22254Y5498D01*
X22197Y5441D01*
X22220Y5425D01*
X22261Y5406D01*
X22304Y5394D01*
X22350Y5390D01*
X22373Y5392D01*
Y100D01*
X22144D01*
Y5500D01*
X22198Y5554D01*
X22194Y5560D01*
X22180Y5588D01*
X22172Y5618D01*
X22170Y5650D01*
X22172Y5681D01*
X22180Y5711D01*
X22194Y5740D01*
X22198Y5745D01*
X22144Y5799D01*
Y13320D01*
X22153Y13300D01*
X22185Y13255D01*
X22256Y13327D01*
X22240Y13350D01*
X22218Y13397D01*
X22204Y13447D01*
X22200Y13500D01*
X22204Y13552D01*
X22218Y13602D01*
X22240Y13650D01*
X22256Y13673D01*
X22185Y13744D01*
X22153Y13699D01*
X22144Y13679D01*
Y14301D01*
G37*
G36*
X20655Y5608D02*X20661Y5605D01*
X20704Y5594D01*
X20710Y5593D01*
X20670Y5574D01*
X20655Y5564D01*
Y5608D01*
G37*
G36*
X22373Y21100D02*X22555D01*
Y15120D01*
X22530Y15132D01*
X22453Y15153D01*
X22373Y15160D01*
Y21100D01*
G37*
G36*
X22555Y100D02*X22373D01*
Y5392D01*
X22395Y5394D01*
X22438Y5406D01*
X22479Y5425D01*
X22502Y5441D01*
X22445Y5498D01*
X22440Y5494D01*
X22411Y5480D01*
X22381Y5472D01*
X22373Y5472D01*
Y5827D01*
X22381Y5827D01*
X22411Y5819D01*
X22440Y5805D01*
X22445Y5801D01*
X22502Y5859D01*
X22479Y5874D01*
X22438Y5894D01*
X22395Y5905D01*
X22373Y5907D01*
Y13121D01*
X22430Y13106D01*
X22500Y13100D01*
X22555Y13105D01*
Y5799D01*
X22501Y5745D01*
X22505Y5740D01*
X22519Y5711D01*
X22527Y5681D01*
X22529Y5650D01*
X22527Y5618D01*
X22519Y5588D01*
X22505Y5560D01*
X22501Y5554D01*
X22555Y5500D01*
Y100D01*
G37*
G36*
Y13205D02*X22552Y13204D01*
X22500Y13200D01*
X22447Y13204D01*
X22397Y13218D01*
X22373Y13229D01*
Y13770D01*
X22397Y13781D01*
X22447Y13795D01*
X22500Y13799D01*
X22552Y13795D01*
X22555Y13794D01*
Y13205D01*
G37*
G36*
Y13894D02*X22500Y13899D01*
X22430Y13893D01*
X22373Y13878D01*
Y14240D01*
X22453Y14247D01*
X22530Y14267D01*
X22555Y14279D01*
Y13894D01*
G37*
G36*
Y21100D02*X22850D01*
Y14591D01*
X22824Y14536D01*
X22806Y14469D01*
X22800Y14400D01*
X22806Y14330D01*
X22824Y14263D01*
X22850Y14208D01*
Y13691D01*
X22846Y13699D01*
X22815Y13744D01*
X22743Y13673D01*
X22759Y13650D01*
X22781Y13602D01*
X22795Y13552D01*
X22799Y13500D01*
X22795Y13447D01*
X22781Y13397D01*
X22759Y13350D01*
X22743Y13327D01*
X22815Y13255D01*
X22846Y13300D01*
X22850Y13308D01*
Y11159D01*
X22804Y11155D01*
X22761Y11144D01*
X22720Y11125D01*
X22683Y11099D01*
X22651Y11067D01*
X22625Y11029D01*
X22605Y10988D01*
X22594Y10945D01*
X22590Y10900D01*
X22594Y10854D01*
X22605Y10811D01*
X22625Y10770D01*
X22651Y10733D01*
X22683Y10701D01*
X22720Y10675D01*
X22761Y10655D01*
X22804Y10644D01*
X22850Y10640D01*
Y100D01*
X22555D01*
Y5500D01*
X22559Y5497D01*
X22574Y5520D01*
X22594Y5561D01*
X22605Y5604D01*
X22609Y5650D01*
X22605Y5695D01*
X22594Y5738D01*
X22574Y5779D01*
X22559Y5802D01*
X22555Y5799D01*
Y13105D01*
X22569Y13106D01*
X22636Y13124D01*
X22699Y13153D01*
X22744Y13185D01*
X22673Y13256D01*
X22650Y13240D01*
X22602Y13218D01*
X22555Y13205D01*
Y13794D01*
X22602Y13781D01*
X22650Y13759D01*
X22673Y13743D01*
X22744Y13815D01*
X22699Y13846D01*
X22636Y13875D01*
X22569Y13893D01*
X22555Y13894D01*
Y14279D01*
X22603Y14301D01*
X22669Y14347D01*
X22725Y14404D01*
X22771Y14470D01*
X22805Y14542D01*
X22826Y14620D01*
X22833Y14700D01*
X22826Y14779D01*
X22805Y14857D01*
X22771Y14930D01*
X22725Y14995D01*
X22669Y15052D01*
X22603Y15098D01*
X22555Y15120D01*
Y21100D01*
G37*
G36*
X22850D02*X22864D01*
X22856Y21069D01*
X22850Y21000D01*
X22856Y20930D01*
X22874Y20863D01*
X22903Y20800D01*
X22935Y20755D01*
X22994Y20814D01*
Y14742D01*
X22955Y14715D01*
X22994Y14676D01*
Y14123D01*
X22955Y14085D01*
X22994Y14057D01*
Y11115D01*
X22979Y11125D01*
X22938Y11144D01*
X22895Y11155D01*
X22850Y11159D01*
Y13308D01*
X22875Y13363D01*
X22893Y13430D01*
X22899Y13500D01*
X22893Y13569D01*
X22875Y13636D01*
X22850Y13691D01*
Y14208D01*
X22853Y14200D01*
X22885Y14155D01*
X22956Y14227D01*
X22940Y14250D01*
X22918Y14297D01*
X22904Y14347D01*
X22900Y14400D01*
X22904Y14452D01*
X22918Y14502D01*
X22940Y14550D01*
X22956Y14573D01*
X22885Y14644D01*
X22853Y14599D01*
X22850Y14591D01*
Y21100D01*
G37*
G36*
X22994Y20844D02*X22990Y20850D01*
X22968Y20897D01*
X22954Y20947D01*
X22950Y21000D01*
X22954Y21052D01*
X22967Y21100D01*
X22994D01*
Y20844D01*
G37*
G36*
Y100D02*X22850D01*
Y10640D01*
X22895Y10644D01*
X22938Y10655D01*
X22979Y10675D01*
X22994Y10685D01*
Y10157D01*
X22975Y10129D01*
X22955Y10088D01*
X22944Y10045D01*
X22940Y10000D01*
X22944Y9954D01*
X22955Y9911D01*
X22975Y9870D01*
X22994Y9842D01*
Y6799D01*
X22991Y6802D01*
X22975Y6779D01*
X22956Y6738D01*
X22944Y6695D01*
X22940Y6650D01*
X22944Y6604D01*
X22956Y6561D01*
X22975Y6520D01*
X22991Y6497D01*
X22994Y6500D01*
Y100D01*
G37*
G36*
Y20814D02*X23006Y20827D01*
X22994Y20844D01*
Y21100D01*
X23200D01*
Y20704D01*
X23197Y20704D01*
X23147Y20718D01*
X23100Y20740D01*
X23077Y20756D01*
X23005Y20685D01*
X23050Y20653D01*
X23113Y20624D01*
X23180Y20606D01*
X23200Y20604D01*
Y14799D01*
X23130Y14793D01*
X23063Y14775D01*
X23000Y14746D01*
X22994Y14742D01*
Y20814D01*
G37*
G36*
X23200Y100D02*X22994D01*
Y6500D01*
X23048Y6554D01*
X23044Y6560D01*
X23030Y6588D01*
X23022Y6618D01*
X23020Y6650D01*
X23022Y6681D01*
X23030Y6711D01*
X23044Y6740D01*
X23048Y6745D01*
X22994Y6799D01*
Y9842D01*
X23001Y9833D01*
X23033Y9801D01*
X23070Y9775D01*
X23111Y9755D01*
X23154Y9744D01*
X23200Y9740D01*
Y6909D01*
X23154Y6905D01*
X23111Y6894D01*
X23070Y6874D01*
X23047Y6859D01*
X23104Y6801D01*
X23110Y6805D01*
X23138Y6819D01*
X23168Y6827D01*
X23200Y6829D01*
Y6470D01*
X23168Y6472D01*
X23138Y6480D01*
X23110Y6494D01*
X23104Y6498D01*
X23047Y6441D01*
X23070Y6425D01*
X23111Y6406D01*
X23154Y6394D01*
X23200Y6390D01*
Y100D01*
G37*
G36*
Y10259D02*X23154Y10255D01*
X23111Y10244D01*
X23070Y10225D01*
X23033Y10199D01*
X23001Y10167D01*
X22994Y10157D01*
Y10685D01*
X23017Y10701D01*
X23049Y10733D01*
X23075Y10770D01*
X23094Y10811D01*
X23105Y10854D01*
X23109Y10900D01*
X23105Y10945D01*
X23094Y10988D01*
X23075Y11029D01*
X23049Y11067D01*
X23017Y11099D01*
X22994Y11115D01*
Y14057D01*
X23000Y14053D01*
X23063Y14024D01*
X23130Y14006D01*
X23200Y14000D01*
Y10259D01*
G37*
G36*
Y14100D02*X23147Y14104D01*
X23097Y14118D01*
X23050Y14140D01*
X23027Y14156D01*
X22994Y14123D01*
Y14676D01*
X23027Y14643D01*
X23050Y14659D01*
X23097Y14681D01*
X23147Y14695D01*
X23200Y14699D01*
Y14100D01*
G37*
G36*
Y21100D02*X23405D01*
Y20744D01*
X23400Y20740D01*
X23352Y20718D01*
X23302Y20704D01*
X23250Y20700D01*
X23200Y20704D01*
Y21100D01*
G37*
G36*
X23405Y100D02*X23200D01*
Y6390D01*
X23245Y6394D01*
X23288Y6406D01*
X23329Y6425D01*
X23352Y6441D01*
X23295Y6498D01*
X23290Y6494D01*
X23261Y6480D01*
X23231Y6472D01*
X23200Y6470D01*
Y6829D01*
X23231Y6827D01*
X23261Y6819D01*
X23290Y6805D01*
X23295Y6801D01*
X23352Y6859D01*
X23329Y6874D01*
X23288Y6894D01*
X23245Y6905D01*
X23200Y6909D01*
Y9740D01*
X23245Y9744D01*
X23288Y9755D01*
X23329Y9775D01*
X23367Y9801D01*
X23399Y9833D01*
X23405Y9842D01*
Y6799D01*
X23351Y6745D01*
X23355Y6740D01*
X23369Y6711D01*
X23377Y6681D01*
X23379Y6650D01*
X23377Y6618D01*
X23369Y6588D01*
X23355Y6560D01*
X23351Y6554D01*
X23405Y6500D01*
Y100D01*
G37*
G36*
Y10157D02*X23399Y10167D01*
X23367Y10199D01*
X23329Y10225D01*
X23288Y10244D01*
X23245Y10255D01*
X23200Y10259D01*
Y14000D01*
X23269Y14006D01*
X23336Y14024D01*
X23399Y14053D01*
X23405Y14057D01*
Y10157D01*
G37*
G36*
Y14123D02*X23373Y14156D01*
X23350Y14140D01*
X23302Y14118D01*
X23252Y14104D01*
X23200Y14100D01*
Y14699D01*
X23252Y14695D01*
X23302Y14681D01*
X23350Y14659D01*
X23373Y14643D01*
X23405Y14676D01*
Y14123D01*
G37*
G36*
Y14742D02*X23399Y14746D01*
X23336Y14775D01*
X23269Y14793D01*
X23200Y14799D01*
Y20604D01*
X23250Y20600D01*
X23319Y20606D01*
X23386Y20624D01*
X23405Y20633D01*
Y17548D01*
X23400Y17546D01*
X23343Y17506D01*
X23293Y17457D01*
X23253Y17399D01*
X23224Y17336D01*
X23206Y17269D01*
X23200Y17200D01*
X23206Y17130D01*
X23224Y17063D01*
X23253Y17000D01*
X23293Y16943D01*
X23343Y16893D01*
X23400Y16853D01*
X23405Y16851D01*
Y14742D01*
G37*
G36*
Y21100D02*X23521D01*
Y20875D01*
X23509Y20850D01*
X23493Y20827D01*
X23521Y20798D01*
Y17591D01*
X23463Y17575D01*
X23405Y17548D01*
Y20633D01*
X23449Y20653D01*
X23494Y20685D01*
X23423Y20756D01*
X23405Y20744D01*
Y21100D01*
G37*
G36*
X23521Y100D02*X23405D01*
Y6500D01*
X23409Y6497D01*
X23424Y6520D01*
X23444Y6561D01*
X23455Y6604D01*
X23459Y6650D01*
X23455Y6695D01*
X23444Y6738D01*
X23424Y6779D01*
X23409Y6802D01*
X23405Y6799D01*
Y9842D01*
X23425Y9870D01*
X23444Y9911D01*
X23455Y9954D01*
X23459Y10000D01*
X23455Y10045D01*
X23444Y10088D01*
X23425Y10129D01*
X23405Y10157D01*
Y14057D01*
X23444Y14085D01*
X23405Y14123D01*
Y14676D01*
X23444Y14715D01*
X23405Y14742D01*
Y16851D01*
X23463Y16824D01*
X23521Y16808D01*
Y14634D01*
X23515Y14644D01*
X23443Y14573D01*
X23459Y14550D01*
X23481Y14502D01*
X23495Y14452D01*
X23499Y14400D01*
X23495Y14347D01*
X23481Y14297D01*
X23459Y14250D01*
X23443Y14227D01*
X23515Y14155D01*
X23521Y14165D01*
Y100D01*
G37*
G36*
Y21100D02*X23532D01*
X23545Y21052D01*
X23549Y21000D01*
X23545Y20947D01*
X23531Y20897D01*
X23521Y20875D01*
Y21100D01*
G37*
G36*
Y20798D02*X23565Y20755D01*
X23596Y20800D01*
X23625Y20863D01*
X23643Y20930D01*
X23649Y21000D01*
X23643Y21069D01*
X23635Y21100D01*
X23950D01*
Y21096D01*
X23892Y21056D01*
X23843Y21007D01*
X23803Y20950D01*
X23774Y20886D01*
X23756Y20819D01*
X23750Y20750D01*
X23756Y20680D01*
X23774Y20613D01*
X23803Y20550D01*
X23843Y20492D01*
X23892Y20443D01*
X23950Y20403D01*
Y17391D01*
X23946Y17399D01*
X23906Y17457D01*
X23857Y17506D01*
X23799Y17546D01*
X23736Y17575D01*
X23669Y17593D01*
X23600Y17599D01*
X23530Y17593D01*
X23521Y17591D01*
Y20798D01*
G37*
G36*
X23950Y100D02*X23521D01*
Y14165D01*
X23546Y14200D01*
X23575Y14263D01*
X23593Y14330D01*
X23599Y14400D01*
X23593Y14469D01*
X23575Y14536D01*
X23546Y14599D01*
X23521Y14634D01*
Y16808D01*
X23530Y16806D01*
X23600Y16800D01*
X23669Y16806D01*
X23736Y16824D01*
X23799Y16853D01*
X23857Y16893D01*
X23906Y16943D01*
X23946Y17000D01*
X23950Y17008D01*
Y9309D01*
X23904Y9305D01*
X23861Y9294D01*
X23820Y9275D01*
X23783Y9249D01*
X23751Y9217D01*
X23725Y9179D01*
X23705Y9138D01*
X23694Y9095D01*
X23690Y9050D01*
X23694Y9004D01*
X23705Y8961D01*
X23725Y8920D01*
X23751Y8883D01*
X23783Y8851D01*
X23820Y8825D01*
X23861Y8805D01*
X23904Y8794D01*
X23950Y8790D01*
Y100D01*
G37*
G36*
Y21100D02*X23957D01*
X23950Y21096D01*
Y21100D01*
G37*
G36*
Y20403D02*X24013Y20374D01*
X24080Y20356D01*
X24150Y20350D01*
X24219Y20356D01*
X24286Y20374D01*
X24350Y20403D01*
X24400Y20438D01*
Y20209D01*
X24354Y20205D01*
X24311Y20194D01*
X24270Y20175D01*
X24233Y20149D01*
X24201Y20117D01*
X24175Y20079D01*
X24155Y20038D01*
X24144Y19995D01*
X24140Y19950D01*
X24144Y19904D01*
X24155Y19861D01*
X24175Y19820D01*
X24201Y19783D01*
X24233Y19751D01*
X24270Y19725D01*
X24311Y19705D01*
X24354Y19694D01*
X24400Y19690D01*
Y100D01*
X23950D01*
Y8790D01*
X23995Y8794D01*
X24038Y8805D01*
X24079Y8825D01*
X24117Y8851D01*
X24149Y8883D01*
X24175Y8920D01*
X24194Y8961D01*
X24205Y9004D01*
X24209Y9050D01*
X24205Y9095D01*
X24194Y9138D01*
X24175Y9179D01*
X24149Y9217D01*
X24117Y9249D01*
X24079Y9275D01*
X24038Y9294D01*
X23995Y9305D01*
X23950Y9309D01*
Y17008D01*
X23975Y17063D01*
X23993Y17130D01*
X23999Y17200D01*
X23993Y17269D01*
X23975Y17336D01*
X23950Y17391D01*
Y20403D01*
G37*
G36*
X24400Y21061D02*X24350Y21096D01*
X24342Y21100D01*
X24400D01*
Y21061D01*
G37*
G36*
Y20438D02*X24407Y20443D01*
X24456Y20492D01*
X24496Y20550D01*
X24525Y20613D01*
X24543Y20680D01*
X24549Y20750D01*
X24543Y20819D01*
X24525Y20886D01*
X24496Y20950D01*
X24456Y21007D01*
X24407Y21056D01*
X24400Y21061D01*
Y21100D01*
X25028D01*
Y11035D01*
X25003Y10999D01*
X24974Y10936D01*
X24956Y10869D01*
X24950Y10800D01*
X24956Y10730D01*
X24974Y10663D01*
X25003Y10600D01*
X25028Y10565D01*
Y100D01*
X24400D01*
Y19690D01*
X24445Y19694D01*
X24488Y19705D01*
X24529Y19725D01*
X24567Y19751D01*
X24599Y19783D01*
X24625Y19820D01*
X24644Y19861D01*
X24655Y19904D01*
X24659Y19950D01*
X24655Y19995D01*
X24644Y20038D01*
X24625Y20079D01*
X24599Y20117D01*
X24567Y20149D01*
X24529Y20175D01*
X24488Y20194D01*
X24445Y20205D01*
X24400Y20209D01*
Y20438D01*
G37*
G36*
X25028Y21100D02*X25128D01*
Y20535D01*
X25103Y20499D01*
X25074Y20436D01*
X25056Y20369D01*
X25050Y20300D01*
X25056Y20230D01*
X25074Y20163D01*
X25103Y20100D01*
X25128Y20065D01*
Y11131D01*
X25105Y11115D01*
X25128Y11092D01*
Y10507D01*
X25105Y10485D01*
X25128Y10469D01*
Y100D01*
X25028D01*
Y10565D01*
X25035Y10555D01*
X25106Y10627D01*
X25090Y10650D01*
X25068Y10697D01*
X25054Y10747D01*
X25050Y10800D01*
X25054Y10852D01*
X25068Y10902D01*
X25090Y10950D01*
X25106Y10973D01*
X25035Y11044D01*
X25028Y11035D01*
Y21100D01*
G37*
G36*
X25128D02*X25450D01*
Y20699D01*
X25380Y20693D01*
X25313Y20675D01*
X25250Y20646D01*
X25205Y20615D01*
X25277Y20543D01*
X25300Y20559D01*
X25347Y20581D01*
X25397Y20595D01*
X25450Y20599D01*
Y20000D01*
X25397Y20004D01*
X25347Y20018D01*
X25300Y20040D01*
X25277Y20056D01*
X25205Y19985D01*
X25250Y19953D01*
X25313Y19924D01*
X25380Y19906D01*
X25450Y19900D01*
Y11185D01*
X25419Y11193D01*
X25350Y11199D01*
X25280Y11193D01*
X25213Y11175D01*
X25150Y11146D01*
X25128Y11131D01*
Y20065D01*
X25135Y20055D01*
X25206Y20127D01*
X25190Y20150D01*
X25168Y20197D01*
X25154Y20247D01*
X25150Y20300D01*
X25154Y20352D01*
X25168Y20402D01*
X25190Y20450D01*
X25206Y20473D01*
X25135Y20544D01*
X25128Y20535D01*
Y21100D01*
G37*
G36*
X25450Y2020D02*X25417Y1988D01*
X25341Y1880D01*
X25285Y1759D01*
X25251Y1632D01*
X25240Y1500D01*
X25251Y1368D01*
X25285Y1240D01*
X25341Y1120D01*
X25417Y1011D01*
X25450Y979D01*
Y100D01*
X25128D01*
Y10469D01*
X25150Y10453D01*
X25213Y10424D01*
X25280Y10406D01*
X25350Y10400D01*
X25419Y10406D01*
X25450Y10414D01*
Y2020D01*
G37*
G36*
Y10517D02*X25402Y10504D01*
X25350Y10500D01*
X25297Y10504D01*
X25247Y10518D01*
X25200Y10540D01*
X25177Y10556D01*
X25128Y10507D01*
Y11092D01*
X25177Y11043D01*
X25200Y11059D01*
X25247Y11081D01*
X25297Y11095D01*
X25350Y11099D01*
X25402Y11095D01*
X25450Y11082D01*
Y10517D01*
G37*
G36*
Y21100D02*X25671D01*
Y20630D01*
X25649Y20646D01*
X25586Y20675D01*
X25519Y20693D01*
X25450Y20699D01*
Y21100D01*
G37*
G36*
X25671Y2182D02*X25620Y2158D01*
X25511Y2082D01*
X25450Y2020D01*
Y10414D01*
X25486Y10424D01*
X25549Y10453D01*
X25594Y10485D01*
X25523Y10556D01*
X25500Y10540D01*
X25452Y10518D01*
X25450Y10517D01*
Y11082D01*
X25452Y11081D01*
X25500Y11059D01*
X25523Y11043D01*
X25594Y11115D01*
X25549Y11146D01*
X25486Y11175D01*
X25450Y11185D01*
Y19900D01*
X25519Y19906D01*
X25586Y19924D01*
X25649Y19953D01*
X25671Y19969D01*
Y11034D01*
X25665Y11044D01*
X25593Y10973D01*
X25609Y10950D01*
X25631Y10902D01*
X25645Y10852D01*
X25649Y10800D01*
X25645Y10747D01*
X25631Y10697D01*
X25609Y10650D01*
X25593Y10627D01*
X25665Y10555D01*
X25671Y10565D01*
Y2182D01*
G37*
G36*
Y20007D02*X25623Y20056D01*
X25600Y20040D01*
X25552Y20018D01*
X25502Y20004D01*
X25450Y20000D01*
Y20599D01*
X25502Y20595D01*
X25552Y20581D01*
X25600Y20559D01*
X25623Y20543D01*
X25671Y20592D01*
Y20007D01*
G37*
G36*
Y21100D02*X25771D01*
Y20534D01*
X25765Y20544D01*
X25693Y20473D01*
X25709Y20450D01*
X25731Y20402D01*
X25745Y20352D01*
X25749Y20300D01*
X25745Y20247D01*
X25731Y20197D01*
X25709Y20150D01*
X25693Y20127D01*
X25765Y20055D01*
X25771Y20065D01*
Y2222D01*
X25740Y2214D01*
X25671Y2182D01*
Y10565D01*
X25696Y10600D01*
X25725Y10663D01*
X25743Y10730D01*
X25749Y10800D01*
X25743Y10869D01*
X25725Y10936D01*
X25696Y10999D01*
X25671Y11034D01*
Y19969D01*
X25694Y19985D01*
X25671Y20007D01*
Y20592D01*
X25694Y20615D01*
X25671Y20630D01*
Y21100D01*
G37*
G36*
X25771D02*X26400D01*
Y15949D01*
X26330Y15943D01*
X26263Y15925D01*
X26200Y15896D01*
X26143Y15856D01*
X26093Y15807D01*
X26053Y15749D01*
X26024Y15686D01*
X26006Y15619D01*
X26000Y15550D01*
X26006Y15480D01*
X26024Y15413D01*
X26053Y15350D01*
X26093Y15293D01*
X26143Y15243D01*
X26200Y15203D01*
X26263Y15174D01*
X26330Y15156D01*
X26400Y15150D01*
Y13695D01*
X26380Y13693D01*
X26313Y13675D01*
X26250Y13646D01*
X26193Y13606D01*
X26143Y13557D01*
X26103Y13499D01*
X26074Y13436D01*
X26056Y13369D01*
X26050Y13300D01*
X26056Y13230D01*
X26074Y13163D01*
X26103Y13100D01*
X26143Y13043D01*
X26193Y12993D01*
X26250Y12953D01*
X26313Y12924D01*
X26380Y12906D01*
X26400Y12904D01*
Y2144D01*
X26380Y2158D01*
X26259Y2214D01*
X26132Y2248D01*
X26000Y2260D01*
X25868Y2248D01*
X25771Y2222D01*
Y20065D01*
X25796Y20100D01*
X25825Y20163D01*
X25843Y20230D01*
X25849Y20300D01*
X25843Y20369D01*
X25825Y20436D01*
X25796Y20499D01*
X25771Y20534D01*
Y21100D01*
G37*
G36*
X25450Y979D02*X25511Y917D01*
X25620Y841D01*
X25740Y785D01*
X25868Y751D01*
X26000Y740D01*
X26132Y751D01*
X26259Y785D01*
X26380Y841D01*
X26400Y855D01*
Y100D01*
X25450D01*
Y979D01*
G37*
G36*
X26400Y21100D02*X26478D01*
Y20285D01*
X26453Y20249D01*
X26424Y20186D01*
X26406Y20119D01*
X26400Y20050D01*
X26406Y19980D01*
X26424Y19913D01*
X26453Y19850D01*
X26478Y19815D01*
Y15941D01*
X26469Y15943D01*
X26400Y15949D01*
Y21100D01*
G37*
G36*
X26478Y100D02*X26400D01*
Y855D01*
X26478Y910D01*
Y100D01*
G37*
G36*
Y2089D02*X26400Y2144D01*
Y12904D01*
X26450Y12900D01*
X26478Y12902D01*
Y2089D01*
G37*
G36*
Y13697D02*X26450Y13699D01*
X26400Y13695D01*
Y15150D01*
X26469Y15156D01*
X26478Y15158D01*
Y13697D01*
G37*
G36*
Y21100D02*X26800D01*
Y20449D01*
X26730Y20443D01*
X26663Y20425D01*
X26600Y20396D01*
X26555Y20365D01*
X26627Y20293D01*
X26650Y20309D01*
X26697Y20331D01*
X26747Y20345D01*
X26800Y20349D01*
Y19750D01*
X26747Y19754D01*
X26697Y19768D01*
X26650Y19790D01*
X26627Y19806D01*
X26555Y19735D01*
X26600Y19703D01*
X26663Y19674D01*
X26730Y19656D01*
X26800Y19650D01*
Y13491D01*
X26796Y13499D01*
X26756Y13557D01*
X26707Y13606D01*
X26649Y13646D01*
X26586Y13675D01*
X26519Y13693D01*
X26478Y13697D01*
Y15158D01*
X26536Y15174D01*
X26599Y15203D01*
X26657Y15243D01*
X26706Y15293D01*
X26746Y15350D01*
X26775Y15413D01*
X26793Y15480D01*
X26799Y15550D01*
X26793Y15619D01*
X26775Y15686D01*
X26746Y15749D01*
X26706Y15807D01*
X26657Y15856D01*
X26599Y15896D01*
X26536Y15925D01*
X26478Y15941D01*
Y19815D01*
X26485Y19805D01*
X26556Y19877D01*
X26540Y19900D01*
X26518Y19947D01*
X26504Y19997D01*
X26500Y20050D01*
X26504Y20102D01*
X26518Y20152D01*
X26540Y20200D01*
X26556Y20223D01*
X26485Y20294D01*
X26478Y20285D01*
Y21100D01*
G37*
G36*
X26800Y100D02*X26478D01*
Y910D01*
X26488Y917D01*
X26582Y1011D01*
X26658Y1120D01*
X26714Y1240D01*
X26748Y1368D01*
X26760Y1500D01*
X26748Y1632D01*
X26714Y1759D01*
X26658Y1880D01*
X26582Y1988D01*
X26488Y2082D01*
X26478Y2089D01*
Y12902D01*
X26519Y12906D01*
X26586Y12924D01*
X26649Y12953D01*
X26707Y12993D01*
X26756Y13043D01*
X26796Y13100D01*
X26800Y13108D01*
Y100D01*
G37*
G36*
Y21100D02*X27121D01*
Y20284D01*
X27115Y20294D01*
X27043Y20223D01*
X27059Y20200D01*
X27081Y20152D01*
X27095Y20102D01*
X27099Y20050D01*
X27095Y19997D01*
X27081Y19947D01*
X27059Y19900D01*
X27043Y19877D01*
X27115Y19805D01*
X27121Y19815D01*
Y100D01*
X26800D01*
Y13108D01*
X26825Y13163D01*
X26843Y13230D01*
X26849Y13300D01*
X26843Y13369D01*
X26825Y13436D01*
X26800Y13491D01*
Y19650D01*
X26869Y19656D01*
X26936Y19674D01*
X26999Y19703D01*
X27044Y19735D01*
X26973Y19806D01*
X26950Y19790D01*
X26902Y19768D01*
X26852Y19754D01*
X26800Y19750D01*
Y20349D01*
X26852Y20345D01*
X26902Y20331D01*
X26950Y20309D01*
X26973Y20293D01*
X27044Y20365D01*
X26999Y20396D01*
X26936Y20425D01*
X26869Y20443D01*
X26800Y20449D01*
Y21100D01*
G37*
G36*
X27121D02*X27350D01*
Y100D01*
X27121D01*
Y19815D01*
X27146Y19850D01*
X27175Y19913D01*
X27193Y19980D01*
X27199Y20050D01*
X27193Y20119D01*
X27175Y20186D01*
X27146Y20249D01*
X27121Y20284D01*
Y21100D01*
G37*
G54D12*X19000Y4650D02*Y5000D01*
G54D13*X19900Y6900D02*X18800D01*
X19650Y7250D02*X19050D01*
X19350Y7550D01*
X19400D01*
X19950Y7050D02*X18550D01*
X18800Y6900D02*Y7800D01*
X18550Y7050D02*X18600Y7100D01*
X18500Y8100D02*X20000D01*
X19950Y8050D01*
X18800Y7800D02*X18850Y7750D01*
X19650D01*
X18600Y7850D02*X18800Y8050D01*
X19950D02*Y6950D01*
X19900Y6900D01*
X19650Y7750D02*Y7250D01*
X20100Y8100D02*Y6900D01*
X19950Y7050D01*
X19400Y7550D02*Y8300D01*
X19900D01*
X20100Y8100D01*
X18600Y7100D02*Y7850D01*
X18800Y8050D02*Y8350D01*
G54D14*X10350Y2500D03*
G54D15*Y1500D03*
G54D16*X9400Y7900D03*
Y5900D03*
G54D14*X10450Y22600D03*
G54D15*X11450D03*
X12450D03*
X13450D03*
X14450D03*
X15450D03*
X16450D03*
X17450D03*
G54D16*X10400Y6900D03*
X11400Y7900D03*
Y5900D03*
G54D14*X11650Y2500D03*
G54D15*Y1500D03*
G54D14*X800Y22600D03*
G54D15*Y23600D03*
X1800Y22600D03*
Y23600D03*
X2800Y22600D03*
Y23600D03*
X3800Y22600D03*
Y23600D03*
X4800Y22600D03*
X5800D03*
X6800D03*
X7800D03*
X4800Y23600D03*
X5800D03*
X6800D03*
X7800D03*
X10450D03*
X11450D03*
X12450D03*
X13450D03*
X14450D03*
X15450D03*
X16450D03*
X17450D03*
G54D17*X16850Y6900D03*
X17250Y6350D03*
G54D18*X15650Y6000D03*
G54D17*X18050Y6250D03*
G54D19*X17850Y1400D03*
G54D17*X18450Y3050D03*
X18500Y4550D03*
X17400Y3650D03*
G54D19*X14500Y1300D03*
X14550Y4000D03*
G54D20*X15050Y6100D03*
X13650Y5700D03*
X14550Y5850D03*
X14000Y5150D03*
X14700Y5050D03*
X15450Y4900D03*
X14100Y6500D03*
X14700Y6600D03*
X15150Y6500D03*
G54D17*X20800Y5350D03*
X22350Y5650D03*
X21250Y4850D03*
X20750Y5850D03*
X23200Y6650D03*
X21700Y8500D03*
X20850Y7150D03*
G54D20*X19900Y8100D03*
Y7750D03*
X19600Y7950D03*
X18800Y7050D03*
X19100Y7200D03*
X19350Y8150D03*
X18800Y8100D03*
Y7750D03*
Y7400D03*
X19100Y7550D03*
Y7950D03*
X19350Y7750D03*
X19400Y7350D03*
X19350Y7000D03*
X19650Y7150D03*
X19950Y7000D03*
X19900Y7350D03*
X19650Y7550D03*
G54D18*X4400Y16500D03*
X4000Y14300D03*
G54D19*X8800Y16100D03*
G54D18*X5850Y14950D03*
X5900Y15600D03*
X7300Y15950D03*
G54D19*X8800Y13500D03*
G54D18*X6450Y13700D03*
G54D19*X26800Y20050D03*
X25450Y20300D03*
X26400Y15550D03*
X23250Y21000D03*
G54D17*X21650Y20500D03*
X24400Y19950D03*
X21000Y19450D03*
G54D19*X23600Y17200D03*
X24150Y20750D03*
G54D17*X19350Y21150D03*
X19500Y21600D03*
X19450Y20050D03*
X18750Y20000D03*
X20100Y16350D03*
G54D19*X17800Y12650D03*
G54D17*X14100Y13000D03*
X14300Y12550D03*
X17050Y20500D03*
X13900Y17500D03*
X17650Y18600D03*
X15200Y17100D03*
Y19450D03*
G54D19*X22500Y13500D03*
X23200Y14400D03*
X26450Y13300D03*
G54D17*X19500Y11100D03*
X19550Y9450D03*
X18800D03*
X18850Y11050D03*
X21150Y11350D03*
X20550Y10450D03*
G54D19*X25350Y10800D03*
G54D17*X23200Y10000D03*
X22850Y10900D03*
X23950Y9050D03*
X18950Y12850D03*
X20450Y9100D03*
X17700Y11450D03*
G54D19*X13250Y10500D03*
X13000Y11850D03*
G54D17*X15950Y11350D03*
G54D19*X14000Y9100D03*
G54D18*X15650Y8600D03*
G54D17*X17550Y8300D03*
X15950Y9600D03*
X11500Y12650D03*
G54D18*X12750Y12700D03*
X10900D03*
X13150Y12400D03*
X12250Y12950D03*
G54D17*X13750Y12350D03*
X12700Y8800D03*
G54D20*X11150Y8950D03*
X11850D03*
X12200Y8450D03*
G54D17*X12700Y8250D03*
G54D20*X12300Y7550D03*
X12950D03*
G54D21*G54D22*G54D21*G54D22*G54D21*G54D23*G54D24*G54D25*G54D24*G54D18*G54D24*G54D18*G54D25*G54D24*G54D25*G54D23*G54D25*G54D23*G54D18*G54D25*G54D18*G54D25*G54D23*G54D18*G54D24*G54D18*G54D24*G54D18*G54D24*G54D18*G54D24*G54D18*G54D24*G54D18*G54D24*G54D18*G54D25*G54D24*G54D25*G54D24*G54D25*G54D24*G54D25*M02*
