M48
INCH,TZ
T11C0.040
T12C0.058
T13C0.018
T14C0.015
T15C0.035
%
T14
X015650Y006000
X015050Y006100
X013650Y005700
X014550Y005850
X014000Y005150
X014700Y005050
X015450Y004900
X014100Y006500
X014700Y006600
X015150Y006500
X019900Y008100
X019900Y007750
X019600Y007950
X018800Y007050
X019100Y007200
X019350Y008150
X018800Y008100
X018800Y007750
X018800Y007400
X019100Y007550
X019100Y007950
X019350Y007750
X019400Y007350
X019350Y007000
X019650Y007150
X019950Y007000
X019900Y007350
X019650Y007550
X004400Y016500
X004000Y014300
X005850Y014950
X005900Y015600
X007300Y015950
X006450Y013700
X015650Y008600
X012750Y012700
X010900Y012700
X013150Y012400
X012250Y012950
X011150Y008950
X011850Y008950
X012200Y008450
X012300Y007550
X012950Y007550
T13
X016850Y006900
X017250Y006350
X018050Y006250
X018450Y003050
X018500Y004550
X017400Y003650
X020800Y005350
X022350Y005650
X021250Y004850
X020750Y005850
X023200Y006650
X021700Y008500
X020850Y007150
X021650Y020500
X024400Y019950
X021000Y019450
X019350Y021150
X019500Y021600
X019450Y020050
X018750Y020000
X020100Y016350
X014100Y013000
X014300Y012550
X017050Y020500
X013900Y017500
X017650Y018600
X015200Y017100
X015200Y019450
X019500Y011100
X019550Y009450
X018800Y009450
X018850Y011050
X021150Y011350
X020550Y010450
X023200Y010000
X022850Y010900
X023950Y009050
X018950Y012850
X020450Y009100
X017700Y011450
X015950Y011350
X017550Y008300
X015950Y009600
X011500Y012650
X013750Y012350
X012700Y008800
X012700Y008250
T15
X017850Y001400
X014500Y001300
X014550Y004000
X008800Y016100
X008800Y013500
X026800Y020050
X025450Y020300
X026400Y015550
X023250Y021000
X023600Y017200
X024150Y020750
X017800Y012650
X022500Y013500
X023200Y014400
X026450Y013300
X025350Y010800
X013250Y010500
X013000Y011850
X014000Y009100
T11
X010350Y002500
X010350Y001500
X010450Y022600
X011450Y022600
X012450Y022600
X013450Y022600
X014450Y022600
X015450Y022600
X016450Y022600
X017450Y022600
X011650Y002500
X011650Y001500
X000800Y022600
X000800Y023600
X001800Y022600
X001800Y023600
X002800Y022600
X002800Y023600
X003800Y022600
X003800Y023600
X004800Y022600
X005800Y022600
X006800Y022600
X007800Y022600
X004800Y023600
X005800Y023600
X006800Y023600
X007800Y023600
X010450Y023600
X011450Y023600
X012450Y023600
X013450Y023600
X014450Y023600
X015450Y023600
X016450Y023600
X017450Y023600
T12
X009400Y007900
X009400Y005900
X010400Y006900
X011400Y007900
X011400Y005900
M30
