G04 start of page 11 for group -4078 idx -4078
G04 Title: RX Daughterboard, bottomsilk *
G04 Creator: pcb-bin 1.99u *
G04 CreationDate: Sun Jan  7 00:01:30 2007 UTC *
G04 For: matt *
G04 Format: Gerber/RS-274X *
G04 PCB-Dimensions: 275000 250000 *
G04 PCB-Coordinate-Origin: lower left *
%MOIN*%
%FSLAX24Y24*%
%LNBACKSILK*%
%ADD11C,0.0050*%
%ADD12C,0.0060*%
%ADD13C,0.0100*%
%ADD14C,0.0200*%
G54D11*X21000Y23550D02*X21200D01*
X21250Y23500D01*
Y23400D02*Y23500D01*
X21200Y23350D02*X21250Y23400D01*
X21050Y23350D02*X21200D01*
X21050Y23150D02*Y23550D01*
X21000Y23150D02*X21200D01*
X21250Y23200D01*
Y23300D01*
X21200Y23350D02*X21250Y23300D01*
X21370Y23200D02*Y23550D01*
Y23200D02*X21420Y23150D01*
X21570D01*
X21620Y23200D01*
Y23550D01*
X21370Y23350D02*X21620D01*
X21790Y23550D02*X21940D01*
X21740Y23500D02*X21790Y23550D01*
X21740Y23200D02*Y23500D01*
Y23200D02*X21790Y23150D01*
X21940D01*
X22060D02*Y23550D01*
Y23350D02*X22260Y23150D01*
X22060Y23350D02*X22260Y23550D01*
X22760Y23150D02*X22810Y23200D01*
X22610Y23150D02*X22760D01*
X22560Y23200D02*X22610Y23150D01*
X22560Y23200D02*Y23300D01*
X22610Y23350D01*
X22760D01*
X22810Y23400D01*
Y23500D01*
X22760Y23550D02*X22810Y23500D01*
X22610Y23550D02*X22760D01*
X22560Y23500D02*X22610Y23550D01*
X22930Y23150D02*X23030D01*
X22980D02*Y23550D01*
X22930D02*X23030D01*
X23150Y23150D02*Y23550D01*
X23350D01*
X23470Y23150D02*Y23550D01*
Y23350D02*X23670Y23150D01*
X23470Y23350D02*X23670Y23550D01*
G54D12*X19230Y10870D02*X19770D01*
Y10030D01*
X19230D02*X19770D01*
X19230Y10870D02*Y10030D01*
X19080Y11730D02*X19620D01*
X19080Y12570D02*Y11730D01*
Y12570D02*X19620D01*
Y11730D01*
X17080Y6580D02*X17620D01*
X17080Y7420D02*Y6580D01*
Y7420D02*X17620D01*
Y6580D01*
X15580Y16530D02*X16120D01*
X15580Y17370D02*Y16530D01*
Y17370D02*X16120D01*
Y16530D01*
X14880Y17530D02*X15420D01*
X14880Y18370D02*Y17530D01*
Y18370D02*X15420D01*
Y17530D01*
G54D13*X9560Y12190D02*Y11110D01*
Y12190D02*X11240D01*
Y11110D01*
X9560D02*X11240D01*
G54D12*X11530Y10980D02*X12070D01*
X11530Y11820D02*Y10980D01*
Y11820D02*X12070D01*
Y10980D01*
X11520Y4580D02*Y5120D01*
X10680Y4580D02*X11520D01*
X10680D02*Y5120D01*
X11520D01*
X10130Y5430D02*X10670D01*
X10130Y6270D02*Y5430D01*
Y6270D02*X10670D01*
Y5430D01*
X9180Y12870D02*Y12330D01*
Y12870D02*X10020D01*
Y12330D01*
X9180D02*X10020D01*
G54D13*X24050Y15290D02*Y11150D01*
Y15290D02*X26900D01*
Y11150D01*
X24050D02*X26900D01*
G54D14*X25230Y16170D02*X26970D01*
G54D13*X25230D02*X24980Y16650D01*
Y19630D02*Y16650D01*
Y19630D02*X27220D01*
Y16650D01*
X26970Y16170D01*
G54D12*X23080Y15320D02*Y14780D01*
Y15320D02*X23920D01*
Y14780D01*
X23080D02*X23920D01*
X19130Y17920D02*X19670D01*
Y17080D01*
X19130D02*X19670D01*
X19130Y17920D02*Y17080D01*
X15530Y19470D02*X16070D01*
Y18630D01*
X15530D02*X16070D01*
X15530Y19470D02*Y18630D01*
X16230Y17370D02*X16770D01*
Y16530D01*
X16230D02*X16770D01*
X16230Y17370D02*Y16530D01*
X21120Y17020D02*Y16480D01*
X20280D02*X21120D01*
X20280Y17020D02*Y16480D01*
Y17020D02*X21120D01*
X19130D02*Y16480D01*
Y17020D02*X19970D01*
Y16480D01*
X19130D02*X19970D01*
G54D13*X8399Y16318D02*Y13018D01*
Y16318D02*X22899D01*
X8399Y13018D02*X22899D01*
Y16318D02*Y13018D01*
G54D12*X19070Y17020D02*Y16480D01*
X18230D02*X19070D01*
X18230Y17020D02*Y16480D01*
Y17020D02*X19070D01*
X18530Y17920D02*X19070D01*
Y17080D01*
X18530D02*X19070D01*
X18530Y17920D02*Y17080D01*
G54D13*X4310Y14200D02*X5820D01*
X5320D02*X6830D01*
Y16200D02*Y14200D01*
X4310Y16200D02*X6830D01*
X4310D02*Y14200D01*
X5820D02*G75*G03X5320Y14200I-250J0D01*G01*
G54D12*X21180Y17920D02*X21720D01*
Y17080D02*Y17920D01*
X21180Y17080D02*X21720D01*
X21180D02*Y17920D01*
X20580D02*X21120D01*
Y17080D01*
X20580D02*X21120D01*
X20580Y17920D02*Y17080D01*
X21180Y17020D02*Y16480D01*
Y17020D02*X22020D01*
Y16480D01*
X21180D02*X22020D01*
G54D13*X23110Y16590D02*Y15510D01*
Y16590D02*X24790D01*
Y15510D01*
X23110D02*X24790D01*
G54D11*X19060Y11060D02*Y11210D01*
X19110Y11010D02*X19060Y11060D01*
X19110Y11010D02*X19410D01*
X19460Y11060D01*
Y11210D01*
X19060Y11330D02*X19310Y11580D01*
X19460D01*
Y11330D02*Y11580D01*
X19110Y11700D02*X19060Y11750D01*
X19110Y11700D02*X19210D01*
X19260Y11750D01*
Y11850D01*
X19210Y11900D01*
X19110D02*X19210D01*
X19060Y11850D02*X19110Y11900D01*
X19060Y11750D02*Y11850D01*
X19310Y11700D02*X19260Y11750D01*
X19310Y11700D02*X19410D01*
X19460Y11750D01*
Y11850D01*
X19410Y11900D01*
X19310D02*X19410D01*
X19260Y11850D02*X19310Y11900D01*
X19800Y11930D02*X20000D01*
X20050Y11980D01*
Y12080D01*
X20000Y12130D02*X20050Y12080D01*
X19850Y12130D02*X20000D01*
X19850Y11930D02*Y12330D01*
Y12130D02*X20050Y12330D01*
X20170Y11980D02*X20220Y11930D01*
X20370D01*
X20420Y11980D01*
Y12080D01*
X20170Y12330D02*X20420Y12080D01*
X20170Y12330D02*X20420D01*
X20590D02*X20690D01*
X20640Y11930D02*Y12330D01*
X20540Y12030D02*X20640Y11930D01*
X25750Y10500D02*Y10850D01*
X25800Y10900D01*
X25900D01*
X25950Y10850D01*
Y10500D02*Y10850D01*
X26070Y10550D02*X26120Y10500D01*
X26270D01*
X26320Y10550D01*
Y10650D01*
X26070Y10900D02*X26320Y10650D01*
X26070Y10900D02*X26320D01*
X16800Y6380D02*X16950D01*
X16750Y6330D02*X16800Y6380D01*
X16750Y6030D02*Y6330D01*
Y6030D02*X16800Y5980D01*
X16950D01*
X17070Y6330D02*X17120Y6380D01*
X17070Y6230D02*Y6330D01*
Y6230D02*X17120Y6180D01*
X17220D01*
X17270Y6230D01*
Y6330D01*
X17220Y6380D02*X17270Y6330D01*
X17120Y6380D02*X17220D01*
X17070Y6130D02*X17120Y6180D01*
X17070Y6030D02*Y6130D01*
Y6030D02*X17120Y5980D01*
X17220D01*
X17270Y6030D01*
Y6130D01*
X17220Y6180D02*X17270Y6130D01*
X17390Y6380D02*X17640Y6130D01*
Y5980D02*Y6130D01*
X17390Y5980D02*X17640D01*
X14450Y19330D02*X14600D01*
X14400Y19280D02*X14450Y19330D01*
X14400Y18980D02*Y19280D01*
Y18980D02*X14450Y18930D01*
X14600D01*
X14870D02*X14920Y18980D01*
X14770Y18930D02*X14870D01*
X14720Y18980D02*X14770Y18930D01*
X14720Y18980D02*Y19280D01*
X14770Y19330D01*
X14870Y19130D02*X14920Y19180D01*
X14720Y19130D02*X14870D01*
X14770Y19330D02*X14870D01*
X14920Y19280D01*
Y19180D02*Y19280D01*
X15040Y18980D02*X15090Y18930D01*
X15190D01*
X15240Y18980D01*
Y19280D01*
X15190Y19330D02*X15240Y19280D01*
X15090Y19330D02*X15190D01*
X15040Y19280D02*X15090Y19330D01*
Y19130D02*X15240D01*
X16900Y17430D02*X17050D01*
X16850Y17380D02*X16900Y17430D01*
X16850Y17080D02*Y17380D01*
Y17080D02*X16900Y17030D01*
X17050D01*
X17170Y17080D02*X17220Y17030D01*
X17370D01*
X17420Y17080D01*
Y17180D01*
X17170Y17430D02*X17420Y17180D01*
X17170Y17430D02*X17420D01*
X17690Y17030D02*X17740Y17080D01*
X17590Y17030D02*X17690D01*
X17540Y17080D02*X17590Y17030D01*
X17540Y17080D02*Y17380D01*
X17590Y17430D01*
X17690Y17230D02*X17740Y17280D01*
X17540Y17230D02*X17690D01*
X17590Y17430D02*X17690D01*
X17740Y17380D01*
Y17280D02*Y17380D01*
X17910Y17430D02*X18010D01*
X17960Y17030D02*Y17430D01*
X17860Y17130D02*X17960Y17030D01*
X17335Y18385D02*X17485D01*
X17285Y18335D02*X17335Y18385D01*
X17285Y18035D02*Y18335D01*
Y18035D02*X17335Y17985D01*
X17485D01*
X17605Y18035D02*X17655Y17985D01*
X17805D01*
X17855Y18035D01*
Y18135D01*
X17605Y18385D02*X17855Y18135D01*
X17605Y18385D02*X17855D01*
X18125Y17985D02*X18175Y18035D01*
X18025Y17985D02*X18125D01*
X17975Y18035D02*X18025Y17985D01*
X17975Y18035D02*Y18335D01*
X18025Y18385D01*
X18125Y18185D02*X18175Y18235D01*
X17975Y18185D02*X18125D01*
X18025Y18385D02*X18125D01*
X18175Y18335D01*
Y18235D02*Y18335D01*
X18295Y18035D02*X18345Y17985D01*
X18495D01*
X18545Y18035D01*
Y18135D01*
X18295Y18385D02*X18545Y18135D01*
X18295Y18385D02*X18545D01*
X20400Y18630D02*X20550D01*
X20350Y18580D02*X20400Y18630D01*
X20350Y18280D02*Y18580D01*
Y18280D02*X20400Y18230D01*
X20550D01*
X20820D02*X20870Y18280D01*
X20720Y18230D02*X20820D01*
X20670Y18280D02*X20720Y18230D01*
X20670Y18280D02*Y18580D01*
X20720Y18630D01*
X20820Y18430D02*X20870Y18480D01*
X20670Y18430D02*X20820D01*
X20720Y18630D02*X20820D01*
X20870Y18580D01*
Y18480D02*Y18580D01*
X20990Y18430D02*X21190Y18230D01*
X20990Y18430D02*X21240D01*
X21190Y18230D02*Y18630D01*
X19200Y18650D02*X19350D01*
X19150Y18600D02*X19200Y18650D01*
X19150Y18300D02*Y18600D01*
Y18300D02*X19200Y18250D01*
X19350D01*
X19470Y18300D02*X19520Y18250D01*
X19670D01*
X19720Y18300D01*
Y18400D01*
X19470Y18650D02*X19720Y18400D01*
X19470Y18650D02*X19720D01*
X19840Y18250D02*X20040D01*
X19840D02*Y18450D01*
X19890Y18400D01*
X19990D01*
X20040Y18450D01*
Y18600D01*
X19990Y18650D02*X20040Y18600D01*
X19890Y18650D02*X19990D01*
X19840Y18600D02*X19890Y18650D01*
X18150D02*X18300D01*
X18100Y18600D02*X18150Y18650D01*
X18100Y18300D02*Y18600D01*
Y18300D02*X18150Y18250D01*
X18300D01*
X18420Y18300D02*X18470Y18250D01*
X18620D01*
X18670Y18300D01*
Y18400D01*
X18420Y18650D02*X18670Y18400D01*
X18420Y18650D02*X18670D01*
X18940Y18250D02*X18990Y18300D01*
X18840Y18250D02*X18940D01*
X18790Y18300D02*X18840Y18250D01*
X18790Y18300D02*Y18600D01*
X18840Y18650D01*
X18940Y18450D02*X18990Y18500D01*
X18790Y18450D02*X18940D01*
X18840Y18650D02*X18940D01*
X18990Y18600D01*
Y18500D02*Y18600D01*
X21430Y19650D02*Y19850D01*
Y19650D02*X21480Y19600D01*
X21580D01*
X21630Y19650D02*X21580Y19600D01*
X21630Y19650D02*Y19800D01*
X21430D02*X21830D01*
X21630D02*X21830Y19600D01*
Y19479D02*X21580Y19229D01*
X21430D02*X21580D01*
X21430D02*Y19479D01*
X21830Y18959D02*Y19059D01*
X21430Y19009D02*X21830D01*
X21530Y19109D02*X21430Y19009D01*
X18380Y19500D02*Y19700D01*
Y19500D02*X18430Y19450D01*
X18530D01*
X18580Y19500D02*X18530Y19450D01*
X18580Y19500D02*Y19650D01*
X18380D02*X18780D01*
X18580D02*X18780Y19450D01*
Y19179D02*Y19279D01*
X18380Y19229D02*X18780D01*
X18480Y19329D02*X18380Y19229D01*
Y18909D02*X18430Y18859D01*
X18380Y18909D02*Y19009D01*
X18430Y19059D02*X18380Y19009D01*
X18430Y19059D02*X18730D01*
X18780Y19009D01*
X18580Y18909D02*X18630Y18859D01*
X18580Y18909D02*Y19059D01*
X18780Y18909D02*Y19009D01*
Y18909D02*X18730Y18859D01*
X18630D02*X18730D01*
X19330Y19550D02*Y19750D01*
Y19550D02*X19380Y19500D01*
X19480D01*
X19530Y19550D02*X19480Y19500D01*
X19530Y19550D02*Y19700D01*
X19330D02*X19730D01*
X19530D02*X19730Y19500D01*
Y19229D02*Y19329D01*
X19330Y19279D02*X19730D01*
X19430Y19379D02*X19330Y19279D01*
Y18909D02*Y19109D01*
X19530D01*
X19480Y19059D01*
Y18959D02*Y19059D01*
Y18959D02*X19530Y18909D01*
X19680D01*
X19730Y18959D02*X19680Y18909D01*
X19730Y18959D02*Y19059D01*
X19680Y19109D02*X19730Y19059D01*
X20400Y19550D02*Y19750D01*
Y19550D02*X20450Y19500D01*
X20550D01*
X20600Y19550D02*X20550Y19500D01*
X20600Y19550D02*Y19700D01*
X20400D02*X20800D01*
X20600D02*X20800Y19500D01*
Y19229D02*Y19329D01*
X20400Y19279D02*X20800D01*
X20500Y19379D02*X20400Y19279D01*
X20750Y19109D02*X20800Y19059D01*
X20450Y19109D02*X20750D01*
X20450D02*X20400Y19059D01*
Y18959D02*Y19059D01*
Y18959D02*X20450Y18909D01*
X20750D01*
X20800Y18959D02*X20750Y18909D01*
X20800Y18959D02*Y19059D01*
X20700Y19109D02*X20500Y18909D01*
X21450Y18630D02*X21600D01*
X21400Y18580D02*X21450Y18630D01*
X21400Y18280D02*Y18580D01*
Y18280D02*X21450Y18230D01*
X21600D01*
X21870D02*X21920Y18280D01*
X21770Y18230D02*X21870D01*
X21720Y18280D02*X21770Y18230D01*
X21720Y18280D02*Y18580D01*
X21770Y18630D01*
X21870Y18430D02*X21920Y18480D01*
X21720Y18430D02*X21870D01*
X21770Y18630D02*X21870D01*
X21920Y18580D01*
Y18480D02*Y18580D01*
X22040Y18230D02*X22240D01*
X22040D02*Y18430D01*
X22090Y18380D01*
X22190D01*
X22240Y18430D01*
Y18580D01*
X22190Y18630D02*X22240Y18580D01*
X22090Y18630D02*X22190D01*
X22040Y18580D02*X22090Y18630D01*
X23450Y16810D02*Y17210D01*
X23650D01*
X23920Y16810D02*X23970Y16860D01*
X23820Y16810D02*X23920D01*
X23770Y16860D02*X23820Y16810D01*
X23770Y16860D02*Y17160D01*
X23820Y17210D01*
X23920Y17010D02*X23970Y17060D01*
X23770Y17010D02*X23920D01*
X23820Y17210D02*X23920D01*
X23970Y17160D01*
Y17060D02*Y17160D01*
X24090D02*X24140Y17210D01*
X24090Y16860D02*Y17160D01*
Y16860D02*X24140Y16810D01*
X24240D01*
X24290Y16860D01*
Y17160D01*
X24240Y17210D02*X24290Y17160D01*
X24140Y17210D02*X24240D01*
X24090Y17110D02*X24290Y16910D01*
X24460Y17210D02*X24560D01*
X24510Y16810D02*Y17210D01*
X24410Y16910D02*X24510Y16810D01*
X23600Y18520D02*X23750D01*
X23550Y18470D02*X23600Y18520D01*
X23550Y18170D02*Y18470D01*
Y18170D02*X23600Y18120D01*
X23750D01*
X23920Y18520D02*X24020D01*
X23970Y18120D02*Y18520D01*
X23870Y18220D02*X23970Y18120D01*
X24140Y18470D02*X24190Y18520D01*
X24140Y18370D02*Y18470D01*
Y18370D02*X24190Y18320D01*
X24290D01*
X24340Y18370D01*
Y18470D01*
X24290Y18520D02*X24340Y18470D01*
X24190Y18520D02*X24290D01*
X24140Y18270D02*X24190Y18320D01*
X24140Y18170D02*Y18270D01*
Y18170D02*X24190Y18120D01*
X24290D01*
X24340Y18170D01*
Y18270D01*
X24290Y18320D02*X24340Y18270D01*
X24460Y18170D02*X24510Y18120D01*
X24660D01*
X24710Y18170D01*
Y18270D01*
X24460Y18520D02*X24710Y18270D01*
X24460Y18520D02*X24710D01*
X23880Y14400D02*Y14550D01*
X23830Y14600D02*X23880Y14550D01*
X23530Y14600D02*X23830D01*
X23530D02*X23480Y14550D01*
Y14400D02*Y14550D01*
X23880Y14129D02*Y14229D01*
X23480Y14179D02*X23880D01*
X23580Y14279D02*X23480Y14179D01*
X23830Y14009D02*X23880Y13959D01*
X23730Y14009D02*X23830D01*
X23730D02*X23680Y13959D01*
Y13859D02*Y13959D01*
Y13859D02*X23730Y13809D01*
X23830D01*
X23880Y13859D02*X23830Y13809D01*
X23880Y13859D02*Y13959D01*
X23630Y14009D02*X23680Y13959D01*
X23530Y14009D02*X23630D01*
X23530D02*X23480Y13959D01*
Y13859D02*Y13959D01*
Y13859D02*X23530Y13809D01*
X23630D01*
X23680Y13859D02*X23630Y13809D01*
X23680Y13689D02*X23480Y13489D01*
X23680Y13439D02*Y13689D01*
X23480Y13489D02*X23880D01*
X5300Y13500D02*Y13850D01*
X5350Y13900D01*
X5450D01*
X5500Y13850D01*
Y13500D02*Y13850D01*
X5670Y13900D02*X5770D01*
X5720Y13500D02*Y13900D01*
X5620Y13600D02*X5720Y13500D01*
X7699Y14518D02*X7849D01*
Y14868D01*
X7799Y14918D02*X7849Y14868D01*
X7749Y14918D02*X7799D01*
X7699Y14868D02*X7749Y14918D01*
X7969Y14568D02*X8019Y14518D01*
X8169D01*
X8219Y14568D01*
Y14668D01*
X7969Y14918D02*X8219Y14668D01*
X7969Y14918D02*X8219D01*
X7800Y12830D02*X7950D01*
X7750Y12780D02*X7800Y12830D01*
X7750Y12480D02*Y12780D01*
Y12480D02*X7800Y12430D01*
X7950D01*
X8120Y12830D02*X8220D01*
X8170Y12430D02*Y12830D01*
X8070Y12530D02*X8170Y12430D01*
X8340Y12780D02*X8390Y12830D01*
X8340Y12680D02*Y12780D01*
Y12680D02*X8390Y12630D01*
X8490D01*
X8540Y12680D01*
Y12780D01*
X8490Y12830D02*X8540Y12780D01*
X8390Y12830D02*X8490D01*
X8340Y12580D02*X8390Y12630D01*
X8340Y12480D02*Y12580D01*
Y12480D02*X8390Y12430D01*
X8490D01*
X8540Y12480D01*
Y12580D01*
X8490Y12630D02*X8540Y12580D01*
X8660Y12830D02*X8910Y12580D01*
Y12430D02*Y12580D01*
X8660Y12430D02*X8910D01*
X11050Y4480D02*X11200D01*
X11000Y4430D02*X11050Y4480D01*
X11000Y4130D02*Y4430D01*
Y4130D02*X11050Y4080D01*
X11200D01*
X11370Y4480D02*X11470D01*
X11420Y4080D02*Y4480D01*
X11320Y4180D02*X11420Y4080D01*
X11590Y4430D02*X11640Y4480D01*
X11590Y4130D02*Y4430D01*
Y4130D02*X11640Y4080D01*
X11740D01*
X11790Y4130D01*
Y4430D01*
X11740Y4480D02*X11790Y4430D01*
X11640Y4480D02*X11740D01*
X11590Y4380D02*X11790Y4180D01*
X11910Y4430D02*X11960Y4480D01*
X11910Y4130D02*Y4430D01*
Y4130D02*X11960Y4080D01*
X12060D01*
X12110Y4130D01*
Y4430D01*
X12060Y4480D02*X12110Y4430D01*
X11960Y4480D02*X12060D01*
X11910Y4380D02*X12110Y4180D01*
X8800Y4980D02*Y5380D01*
X9000D01*
X9170D02*X9270D01*
X9220Y4980D02*Y5380D01*
X9120Y5080D02*X9220Y4980D01*
X9390Y5330D02*X9440Y5380D01*
X9390Y5030D02*Y5330D01*
Y5030D02*X9440Y4980D01*
X9540D01*
X9590Y5030D01*
Y5330D01*
X9540Y5380D02*X9590Y5330D01*
X9440Y5380D02*X9540D01*
X9390Y5280D02*X9590Y5080D01*
X9710Y5330D02*X9760Y5380D01*
X9710Y5030D02*Y5330D01*
Y5030D02*X9760Y4980D01*
X9860D01*
X9910Y5030D01*
Y5330D01*
X9860Y5380D02*X9910Y5330D01*
X9760Y5380D02*X9860D01*
X9710Y5280D02*X9910Y5080D01*
X8100Y11410D02*Y11810D01*
X8300D01*
X8570Y11410D02*X8620Y11460D01*
X8470Y11410D02*X8570D01*
X8420Y11460D02*X8470Y11410D01*
X8420Y11460D02*Y11760D01*
X8470Y11810D01*
X8570Y11610D02*X8620Y11660D01*
X8420Y11610D02*X8570D01*
X8470Y11810D02*X8570D01*
X8620Y11760D01*
Y11660D02*Y11760D01*
X8740D02*X8790Y11810D01*
X8740Y11460D02*Y11760D01*
Y11460D02*X8790Y11410D01*
X8890D01*
X8940Y11460D01*
Y11760D01*
X8890Y11810D02*X8940Y11760D01*
X8790Y11810D02*X8890D01*
X8740Y11710D02*X8940Y11510D01*
X9060Y11760D02*X9110Y11810D01*
X9060Y11460D02*Y11760D01*
Y11460D02*X9110Y11410D01*
X9210D01*
X9260Y11460D01*
Y11760D01*
X9210Y11810D02*X9260Y11760D01*
X9110Y11810D02*X9210D01*
X9060Y11710D02*X9260Y11510D01*
X11200Y10830D02*X11350D01*
X11150Y10780D02*X11200Y10830D01*
X11150Y10480D02*Y10780D01*
Y10480D02*X11200Y10430D01*
X11350D01*
X11520Y10830D02*X11620D01*
X11570Y10430D02*Y10830D01*
X11470Y10530D02*X11570Y10430D01*
X11740Y10780D02*X11790Y10830D01*
X11740Y10680D02*Y10780D01*
Y10680D02*X11790Y10630D01*
X11890D01*
X11940Y10680D01*
Y10780D01*
X11890Y10830D02*X11940Y10780D01*
X11790Y10830D02*X11890D01*
X11740Y10580D02*X11790Y10630D01*
X11740Y10480D02*Y10580D01*
Y10480D02*X11790Y10430D01*
X11890D01*
X11940Y10480D01*
Y10580D01*
X11890Y10630D02*X11940Y10580D01*
X12060Y10480D02*X12110Y10430D01*
X12210D01*
X12260Y10480D01*
Y10780D01*
X12210Y10830D02*X12260Y10780D01*
X12110Y10830D02*X12210D01*
X12060Y10780D02*X12110Y10830D01*
Y10630D02*X12260D01*
X14200Y16730D02*X14400D01*
X14450Y16780D01*
Y16880D01*
X14400Y16930D02*X14450Y16880D01*
X14250Y16930D02*X14400D01*
X14250Y16730D02*Y17130D01*
Y16930D02*X14450Y17130D01*
X14620D02*X14720D01*
X14670Y16730D02*Y17130D01*
X14570Y16830D02*X14670Y16730D01*
X14840Y17130D02*X15040Y16930D01*
Y16780D02*Y16930D01*
X14990Y16730D02*X15040Y16780D01*
X14890Y16730D02*X14990D01*
X14840Y16780D02*X14890Y16730D01*
X14840Y16780D02*Y16880D01*
X14890Y16930D01*
X15040D01*
X15160Y16780D02*X15210Y16730D01*
X15310D01*
X15360Y16780D01*
Y17080D01*
X15310Y17130D02*X15360Y17080D01*
X15210Y17130D02*X15310D01*
X15160Y17080D02*X15210Y17130D01*
Y16930D02*X15360D01*
X14950Y18570D02*X15150D01*
X14950D02*X14900Y18520D01*
Y18420D02*Y18520D01*
X14950Y18370D02*X14900Y18420D01*
X14950Y18370D02*X15100D01*
Y18170D02*Y18570D01*
Y18370D02*X14900Y18170D01*
X14629D02*X14729D01*
X14679D02*Y18570D01*
X14779Y18470D02*X14679Y18570D01*
X14509Y18170D02*X14309Y18370D01*
Y18520D01*
X14359Y18570D02*X14309Y18520D01*
X14359Y18570D02*X14459D01*
X14509Y18520D02*X14459Y18570D01*
X14509Y18420D02*Y18520D01*
Y18420D02*X14459Y18370D01*
X14309D02*X14459D01*
X14189D02*X13989Y18570D01*
X13939Y18370D02*X14189D01*
X13989Y18170D02*Y18570D01*
X14235Y17535D02*X14435D01*
X14485Y17585D01*
Y17685D01*
X14435Y17735D02*X14485Y17685D01*
X14285Y17735D02*X14435D01*
X14285Y17535D02*Y17935D01*
Y17735D02*X14485Y17935D01*
X14655D02*X14755D01*
X14705Y17535D02*Y17935D01*
X14605Y17635D02*X14705Y17535D01*
X14875Y17935D02*X15075Y17735D01*
Y17585D02*Y17735D01*
X15025Y17535D02*X15075Y17585D01*
X14925Y17535D02*X15025D01*
X14875Y17585D02*X14925Y17535D01*
X14875Y17585D02*Y17685D01*
X14925Y17735D01*
X15075D01*
X15195Y17535D02*X15395D01*
X15195D02*Y17735D01*
X15245Y17685D01*
X15345D01*
X15395Y17735D01*
Y17885D01*
X15345Y17935D02*X15395Y17885D01*
X15245Y17935D02*X15345D01*
X15195Y17885D02*X15245Y17935D01*
M02*
