G04 start of page 7 for group -4062 idx -4062
G04 Title: RX Daughterboard, soldermask *
G04 Creator: pcb-bin 1.99u *
G04 CreationDate: Sun Jan  7 00:01:30 2007 UTC *
G04 For: matt *
G04 Format: Gerber/RS-274X *
G04 PCB-Dimensions: 275000 250000 *
G04 PCB-Coordinate-Origin: lower left *
%MOIN*%
%FSLAX24Y24*%
%LNBACKMASK*%
%ADD11R,0.0660X0.0660*%
%ADD12C,0.0660*%
%ADD13C,0.0720*%
%ADD14C,0.0860*%
%ADD15C,0.1100*%
%ADD16R,0.0300X0.0300*%
%ADD17R,0.1030X0.1030*%
%ADD18R,0.0240X0.0240*%
%ADD19R,0.0540X0.0540*%
%ADD20C,0.0340*%
%ADD21R,0.0620X0.0620*%
%ADD22R,0.1280X0.1280*%
%ADD23R,0.0200X0.0200*%
%ADD24R,0.0355X0.0355*%
G54D11*X10350Y2500D03*
G54D12*Y1500D03*
G54D13*X8830Y14700D03*
G54D14*X9400Y7900D03*
Y5900D03*
G54D13*X22373Y14700D03*
G54D11*X10450Y22600D03*
G54D12*X11450D03*
X12450D03*
X13450D03*
X14450D03*
X15450D03*
X16450D03*
X17450D03*
G54D14*X10400Y6900D03*
X11400Y7900D03*
Y5900D03*
G54D11*X11650Y2500D03*
G54D12*Y1500D03*
G54D11*X800Y22600D03*
G54D12*Y23600D03*
X1800Y22600D03*
Y23600D03*
X2800Y22600D03*
Y23600D03*
X3800Y22600D03*
Y23600D03*
X4800Y22600D03*
X5800D03*
X6800D03*
X7800D03*
X4800Y23600D03*
X5800D03*
X6800D03*
X7800D03*
X10450D03*
X11450D03*
X12450D03*
X13450D03*
X14450D03*
X15450D03*
X16450D03*
X17450D03*
G54D15*X26000Y1500D03*
X1500D03*
X5500Y19500D03*
X26000Y23500D03*
G54D16*X19410Y10690D02*X19590D01*
X19410Y10210D02*X19590D01*
G54D17*X25710Y18890D02*X26490D01*
G54D18*X20760Y17740D02*X20940D01*
X20760Y17260D02*X20940D01*
G54D16*X21360Y16840D02*Y16660D01*
Y17740D02*X21540D01*
X21360Y17260D02*X21540D01*
X20940Y16840D02*Y16660D01*
G54D17*X25710Y17010D02*X26490D01*
G54D19*X23470Y16230D02*Y15870D01*
X24430Y16230D02*Y15870D01*
G54D16*X23260Y15140D02*Y14960D01*
X23740Y15140D02*Y14960D01*
X21840Y16840D02*Y16660D01*
G54D20*X21704Y15881D02*Y14971D01*
X20522Y15881D02*Y14971D01*
X20916Y15881D02*Y14971D01*
G54D16*X20460Y16840D02*Y16660D01*
G54D21*X24570Y14770D02*Y14110D01*
X25470Y14770D02*Y14110D01*
X26380Y14770D02*Y14110D01*
G54D22*X25020Y12000D02*X25920D01*
G54D20*X9499Y14428D02*Y13518D01*
X10286Y14428D02*Y13518D01*
X9893Y14428D02*Y13518D01*
X10680Y14428D02*Y13518D01*
X11074Y14428D02*Y13518D01*
X9499Y15881D02*Y14971D01*
X10286Y15881D02*Y14971D01*
X10680Y15881D02*Y14971D01*
X11074Y15881D02*Y14971D01*
X9893Y15881D02*Y14971D01*
G54D19*X9920Y11830D02*Y11470D01*
X10880Y11830D02*Y11470D01*
G54D16*X11710Y11160D02*X11890D01*
X11710Y11640D02*X11890D01*
X9360Y12690D02*Y12510D01*
X9840Y12690D02*Y12510D01*
G54D20*X11467Y14428D02*Y13518D01*
X11861Y14428D02*Y13518D01*
X12255Y14428D02*Y13518D01*
X12648Y14428D02*Y13518D01*
X13042Y14428D02*Y13518D01*
X13436Y14428D02*Y13518D01*
X11467Y15881D02*Y14971D01*
X11861Y15881D02*Y14971D01*
X12255Y15881D02*Y14971D01*
X13830Y14428D02*Y13518D01*
X14223Y14428D02*Y13518D01*
X14617Y14428D02*Y13518D01*
X15011Y14428D02*Y13518D01*
X15404Y14428D02*Y13518D01*
X15798Y14428D02*Y13518D01*
X16192Y14428D02*Y13518D01*
X16585Y14428D02*Y13518D01*
G54D23*X4410Y14450D02*X4690D01*
X6450D02*X6730D01*
X4410Y14950D02*X4690D01*
X6450D02*X6730D01*
X4410Y15450D02*X4690D01*
X4410Y15950D02*X4690D01*
X6450D02*X6730D01*
X6450Y15450D02*X6730D01*
G54D20*X16979Y14428D02*Y13518D01*
X17373Y14428D02*Y13518D01*
X17767Y14428D02*Y13518D01*
X18160Y14428D02*Y13518D01*
X18554Y14428D02*Y13518D01*
X18948Y14428D02*Y13518D01*
X19341Y14428D02*Y13518D01*
X19735Y14428D02*Y13518D01*
X20129Y14428D02*Y13518D01*
G54D16*X19260Y11910D02*X19440D01*
X19260Y12390D02*X19440D01*
G54D20*X20522Y14428D02*Y13518D01*
X20916Y14428D02*Y13518D01*
X21310Y14428D02*Y13518D01*
X21704Y14428D02*Y13518D01*
X21310Y15881D02*Y14971D01*
G54D16*X10310Y5610D02*X10490D01*
X10310Y6090D02*X10490D01*
X11340Y4940D02*Y4760D01*
X10860Y4940D02*Y4760D01*
X17260Y6760D02*X17440D01*
X17260Y7240D02*X17440D01*
G54D20*X12648Y15881D02*Y14971D01*
X13042Y15881D02*Y14971D01*
X13436Y15881D02*Y14971D01*
X13830Y15881D02*Y14971D01*
X14223Y15881D02*Y14971D01*
X14617Y15881D02*Y14971D01*
X15011Y15881D02*Y14971D01*
X15404Y15881D02*Y14971D01*
X15798Y15881D02*Y14971D01*
X16192Y15881D02*Y14971D01*
X16585Y15881D02*Y14971D01*
X16979Y15881D02*Y14971D01*
G54D18*X18890Y16840D02*Y16660D01*
X18410Y16840D02*Y16660D01*
X19310Y16840D02*Y16660D01*
X19790Y16840D02*Y16660D01*
G54D20*X17373Y15881D02*Y14971D01*
X17767Y15881D02*Y14971D01*
X18160Y15881D02*Y14971D01*
X18554Y15881D02*Y14971D01*
X19341Y15881D02*Y14971D01*
X18948Y15881D02*Y14971D01*
X19735Y15881D02*Y14971D01*
X20129Y15881D02*Y14971D01*
G54D16*X19310Y17260D02*X19490D01*
X18710Y17740D02*X18890D01*
X18710Y17260D02*X18890D01*
X19310Y17740D02*X19490D01*
X15710Y18810D02*X15890D01*
G54D24*X16905Y18299D02*Y18200D01*
G54D16*X15710Y19290D02*X15890D01*
X16410Y17190D02*X16590D01*
X15760D02*X15940D01*
X16410Y16710D02*X16590D01*
X15760D02*X15940D01*
X15060Y17710D02*X15240D01*
X15060Y18190D02*X15240D01*
G54D24*X15750Y17744D02*X15849D01*
X15750Y18255D02*X15849D01*
X16394Y18299D02*Y18200D01*
M02*
