G04 start of page 3 for group 1 idx 3
G04 Title: RX Daughterboard, component *
G04 Creator: pcb 20070208 *
G04 CreationDate: Mon Dec 24 21:51:39 2007 UTC *
G04 For: matt *
G04 Format: Gerber/RS-274X *
G04 PCB-Dimensions: 275000 250000 *
G04 PCB-Coordinate-Origin: lower left *
%MOIN*%
%FSLAX24Y24*%
%LNFRONT*%
%ADD11C,0.0100*%
%ADD12C,0.0060*%
%ADD13C,0.0900*%
%ADD14R,0.0600X0.0600*%
%ADD15C,0.0600*%
%ADD16C,0.0400*%
%ADD18C,0.0580*%
%ADD19C,0.1280*%
%ADD20C,0.0200*%
%ADD21R,0.0650X0.0650*%
%ADD22R,0.0240X0.0240*%
%ADD23R,0.0200X0.0200*%
G54D11*X20650Y12950D02*X21350Y12250D01*
X22350Y1850D02*Y3950D01*
X21950Y5200D02*Y4200D01*
X22250Y3900D01*
X22310D02*X22250D01*
X22310Y3950D02*X22350D01*
X16050Y1800D02*Y3900D01*
X15550Y4580D02*Y4090D01*
X15560Y3910D02*X15050Y3400D01*
Y2850D01*
X16040Y3900D02*X16050D01*
X16040Y4000D02*X16050D01*
X19220Y6050D02*X20000D01*
X19700Y5750D01*
X17000Y5200D02*X17150D01*
X19700Y5750D02*Y5200D01*
X16000Y5030D02*X15550Y4580D01*
X16050Y3900D02*X17050D01*
X18100Y4950D01*
X16050Y1850D02*Y1800D01*
X22900Y5300D02*Y7200D01*
Y8350D01*
X22950D02*X22900D01*
X22950Y5300D02*X22900D01*
X22800Y4050D02*X23300D01*
X22790Y4040D02*X22800Y4050D01*
X23350Y4680D02*Y2800D01*
X23950Y5280D02*X23350Y4680D01*
X18150Y8450D02*X18200Y8400D01*
X17150Y8250D02*Y7100D01*
X19300D02*X17150D01*
X20150Y7500D02*X20000Y7650D01*
Y6500D02*X19350D01*
X20000Y7100D02*Y6540D01*
Y6500D01*
X20090Y7110D02*Y7100D01*
Y7590D02*Y7650D01*
X19600Y7200D02*X22900D01*
X19350Y6500D02*X19300Y6550D01*
Y7100D01*
Y6550D02*Y6540D01*
Y7100D02*Y7110D01*
X19210Y6060D02*X19220Y6050D01*
X20450Y7600D02*X19700D01*
X20090Y7590D02*Y7500D01*
X20150D01*
X20000Y6500D02*Y6540D01*
X17150Y7100D02*Y5200D01*
X18000Y8400D02*X18200D01*
X17350Y10550D02*Y10139D01*
X19200Y9350D02*Y7550D01*
X16510Y9840D02*Y9850D01*
Y9360D02*X16520Y9350D01*
X17550D01*
X17640Y9840D02*Y9900D01*
X18160Y9360D02*Y9350D01*
X22420Y9500D02*X23350D01*
X23950Y8650D02*X24050D01*
X22410Y9510D02*X22420Y9500D01*
X24010Y9510D02*Y9500D01*
X21660Y9990D02*Y10000D01*
X21800Y9500D02*Y8650D01*
X21840Y9510D02*Y9500D01*
X22410Y10000D02*X21700D01*
X21950Y8650D02*X21800D01*
X23400Y10000D02*X23350Y9950D01*
X23550Y11050D02*X22500Y10000D01*
X22590Y9990D02*Y10000D01*
X22410Y9990D02*Y10000D01*
X23600Y10500D02*X23360D01*
X22900Y10039D01*
Y9550D01*
X24050Y9500D02*Y8650D01*
X23440Y9990D02*Y9950D01*
X24010Y10000D02*X23400D01*
X24010Y9990D02*Y10000D01*
X20250Y12950D02*X20650D01*
X17950Y17300D02*X17700Y16600D01*
X18000Y17300D02*Y17250D01*
Y17300D02*Y17250D01*
Y17300D02*X17950D01*
X22550Y16250D02*X24100Y14700D01*
X1600Y21950D02*X1150Y22400D01*
X20900Y16650D02*X21900D01*
X17000Y16450D02*X16980D01*
X21900Y16650D02*X21950Y16600D01*
X3250Y21950D02*X1600D01*
X3700Y21500D02*X3250Y21950D01*
X9150Y21500D02*X3700D01*
X9700Y20950D02*X9150Y21500D01*
X24100Y14700D02*Y10000D01*
X16980Y16450D02*Y10350D01*
X17700Y16600D02*Y9900D01*
X22550Y16500D02*Y16250D01*
X21950Y16600D02*X22000D01*
X22150Y16450D01*
Y16250D01*
X23550Y14850D01*
Y11050D01*
X24100Y10000D02*Y9990D01*
X10900Y10200D02*X11000Y10150D01*
X10950D02*X12400D01*
X10600Y10600D02*X10500D01*
X15900Y9850D02*X16510D01*
X16980Y10350D02*X16650Y10019D01*
Y9850D01*
X15990Y9360D02*Y9300D01*
X16690Y9840D02*Y9850D01*
X15990Y9840D02*Y9850D01*
X17640Y9840D02*X18160D01*
X18150Y9350D02*Y8450D01*
X15950Y9300D02*Y8400D01*
X16000D02*X15950D01*
X17150Y8250D02*X17100Y8300D01*
Y9889D02*Y9350D01*
X17350Y10139D02*X17100Y9889D01*
X17000Y8300D02*X17100D01*
X7000Y4700D02*X7050D01*
X8200Y5400D02*Y5100D01*
X8660Y4640D01*
X7050Y4650D02*X7700Y4000D01*
X9050D02*X8750D01*
X8660Y4640D02*Y4500D01*
X7700Y4000D02*X8700D01*
X7050Y6650D02*Y4650D01*
X6400Y7200D02*X7000Y6600D01*
X8600Y5800D02*X8200Y5400D01*
X9050Y6650D02*X8900Y6500D01*
Y5000D01*
X8940D02*Y5050D01*
X8600Y7200D02*Y5800D01*
X7600Y7200D02*Y5200D01*
X7000Y8500D02*X6400Y7900D01*
X16200Y11700D02*X13050Y8550D01*
X8050Y8500D02*X7000D01*
X13050Y8550D02*Y7650D01*
X9200Y9700D02*X9250D01*
X10500Y10600D02*X9600Y9700D01*
X9250D02*X8050Y8500D01*
X9600Y9700D02*Y7000D01*
X6400Y7900D02*Y7200D01*
X10050Y7650D02*Y7900D01*
X8050Y7650D02*X7600Y7200D01*
X10050Y7600D02*Y7900D01*
X10100Y7300D02*Y7600D01*
X9050Y7650D02*X8600Y7200D01*
X7600Y3400D02*X7700Y3500D01*
X9600Y7000D02*X9900Y6700D01*
X10000D01*
X7700Y3500D02*X9300D01*
X8940Y4000D02*X9940Y5000D01*
X8950Y5050D02*X8900Y5000D01*
X10600Y6100D02*Y6800D01*
X10050Y6650D02*X10100Y6600D01*
X10050Y6650D02*Y6869D01*
X10600Y6800D02*X10100Y7300D01*
X9300Y3500D02*X10300Y4500D01*
X11500Y5200D02*X10600Y6100D01*
X10100Y6600D02*Y5700D01*
X10700D01*
X10980Y5000D02*X11030Y5050D01*
X11500Y4020D02*Y5200D01*
X11300Y5100D02*Y4320D01*
X10700Y5700D02*X11300Y5100D01*
X10980Y3500D02*X11500Y4020D01*
X9940Y5000D02*X10900D01*
X11300Y4320D02*X10980Y4000D01*
X10300Y4500D02*X10800D01*
G54D12*X22400Y18000D02*X22550D01*
X22350Y18050D02*X22400Y18000D01*
X22350Y18350D02*Y18050D01*
Y18350D02*X22400Y18400D01*
X22550D01*
X22670Y18350D02*Y18050D01*
Y18350D02*X22720Y18400D01*
X22820D01*
X22870Y18350D01*
Y18050D01*
X22820Y18000D02*X22870Y18050D01*
X22720Y18000D02*X22820D01*
X22670Y18050D02*X22720Y18000D01*
X22990Y18400D02*Y18000D01*
Y18400D02*X23140Y18250D01*
X23290Y18400D01*
Y18000D01*
X23460Y18400D02*Y18000D01*
X23410Y18400D02*X23610D01*
X23660Y18350D01*
Y18250D01*
X23610Y18200D02*X23660Y18250D01*
X23460Y18200D02*X23610D01*
X23780Y18350D02*Y18050D01*
Y18350D02*X23830Y18400D01*
X23930D01*
X23980Y18350D01*
Y18050D01*
X23930Y18000D02*X23980Y18050D01*
X23830Y18000D02*X23930D01*
X23780Y18050D02*X23830Y18000D01*
X24100Y18400D02*Y18000D01*
Y18400D02*Y18350D01*
X24350Y18100D01*
Y18400D02*Y18000D01*
X24470Y18200D02*X24620D01*
X24470Y18000D02*X24670D01*
X24470Y18400D02*Y18000D01*
Y18400D02*X24670D01*
X24790D02*Y18000D01*
Y18400D02*Y18350D01*
X25040Y18100D01*
Y18400D02*Y18000D01*
X25160Y18400D02*X25360D01*
X25260D02*Y18000D01*
G54D13*X22350Y1850D03*
X21350Y2850D03*
X23350D03*
X21350Y850D03*
X23350D03*
G54D14*X18350Y11250D03*
G54D13*X16050Y1850D03*
X15050Y2850D03*
X17050D03*
X15050Y850D03*
X17050D03*
G54D15*X18350Y12250D03*
X19350Y11250D03*
Y12250D03*
X20350D03*
X21350D03*
X22350D03*
X20350Y11250D03*
X21350D03*
X22350D03*
G54D14*X9500Y12100D03*
G54D15*X10500D03*
X11500D03*
X12500D03*
G54D14*X7050Y6650D03*
G54D15*Y7650D03*
X8050Y6650D03*
Y7650D03*
X9050Y6650D03*
Y7650D03*
X10050Y6650D03*
Y7650D03*
X11050Y6650D03*
Y7650D03*
X12050Y6650D03*
X13050D03*
X14050D03*
X12050Y7650D03*
X13050D03*
X14050D03*
X10700Y20950D03*
Y21950D03*
X11700D03*
X12700D03*
X11700Y20950D03*
X12700D03*
X13700D03*
X14700D03*
X15700D03*
X16700D03*
X13700Y21950D03*
X14700D03*
X15700D03*
X16700D03*
G54D14*X7700Y20950D03*
G54D15*Y21950D03*
X8700Y20950D03*
Y21950D03*
X9700Y20950D03*
Y21950D03*
G54D14*X1100Y23500D03*
G54D15*X2100D03*
X1100Y22500D03*
Y21500D03*
Y20500D03*
X2100Y22500D03*
Y21500D03*
Y20500D03*
Y19500D03*
Y18500D03*
Y17500D03*
X1100Y19500D03*
Y18500D03*
Y17500D03*
Y16500D03*
X2100D03*
X2050Y11750D03*
Y10750D03*
G54D14*X1050Y11750D03*
G54D15*Y10750D03*
Y9750D03*
X2050D03*
X1050Y8750D03*
Y7750D03*
Y6750D03*
Y5750D03*
Y4750D03*
X2050Y8750D03*
Y7750D03*
Y6750D03*
Y5750D03*
Y4750D03*
G54D16*X20450Y7600D03*
X19650Y5200D03*
X17000Y16450D03*
X18000Y17300D03*
X16550Y17100D03*
X22550Y16500D03*
X20900Y16650D03*
X20250Y12950D03*
X22300Y13700D03*
X8700Y15850D03*
X23600Y10500D03*
X19200Y9350D03*
X12350Y10200D03*
X10950D03*
X11400Y9500D03*
X10600Y10600D03*
X9250Y9700D03*
X8500Y11400D03*
X7600Y5200D03*
Y3400D03*
X17350Y12600D03*
Y10550D03*
X14600Y12800D03*
X16200Y11700D03*
G54D21*X23950Y8620D02*Y8270D01*
X22950Y8620D02*Y8270D01*
X21950Y8620D02*Y8270D01*
G54D22*X24010Y9510D02*X24190D01*
X21660D02*X21840D01*
X23260D02*X23440D01*
X22410D02*X22590D01*
X24010Y9990D02*X24190D01*
X21660D02*X21840D01*
X23260D02*X23440D01*
X22410D02*X22590D01*
X18160Y9360D02*X18340D01*
G54D21*X18000Y8370D02*Y8020D01*
G54D22*X18160Y9840D02*X18340D01*
X19910Y7590D02*X20090D01*
X19910Y7110D02*X20090D01*
X19210Y6540D02*X19390D01*
X19160Y7590D02*X19340D01*
X19160Y7110D02*X19340D01*
X19910Y6540D02*X20090D01*
X17460Y9840D02*X17640D01*
X17460Y9360D02*X17640D01*
G54D21*X17000Y8370D02*Y8020D01*
X16000Y8370D02*Y8020D01*
G54D22*X15810Y9360D02*X15990D01*
X16510D02*X16690D01*
X15810Y9840D02*X15990D01*
X16510D02*X16690D01*
G54D21*X21950Y5630D02*Y5280D01*
X22950Y5630D02*Y5280D01*
X23950Y5630D02*Y5280D01*
G54D22*X22310Y4040D02*Y3860D01*
X22790Y4040D02*Y3860D01*
X19210Y6060D02*X19390D01*
X19910D02*X20090D01*
G54D21*X17000Y5380D02*Y5030D01*
X18000Y5380D02*Y5030D01*
G54D22*X16040Y4090D02*Y3910D01*
X15560Y4090D02*Y3910D01*
G54D21*X16000Y5380D02*Y5030D01*
G54D20*X8660Y5000D02*X8940D01*
G54D23*X8660Y4500D02*X8940D01*
X8660Y4000D02*X8940D01*
X8660Y3500D02*X8940D01*
X10700D02*X10980D01*
X10700Y4000D02*X10980D01*
X10700Y4500D02*X10980D01*
X10700Y5000D02*X10980D01*
G54D18*G54D15*G54D16*G54D15*G54D16*G54D18*G54D16*G54D19*G54D20*G54D19*G54D20*G54D19*G54D20*M02*
