G04 start of page 2 for group 0 idx 0
G04 Title: RX Daughterboard, solder *
G04 Creator: pcb 20070208 *
G04 CreationDate: Mon Dec 24 21:51:39 2007 UTC *
G04 For: matt *
G04 Format: Gerber/RS-274X *
G04 PCB-Dimensions: 275000 250000 *
G04 PCB-Coordinate-Origin: lower left *
%MOIN*%
%FSLAX24Y24*%
%LNBACK*%
%ADD11C,0.0100*%
%ADD12C,0.0060*%
%ADD13C,0.0900*%
%ADD14R,0.0600X0.0600*%
%ADD15C,0.0600*%
%ADD16C,0.0400*%
%ADD17C,0.0240*%
%ADD18C,0.0580*%
%ADD19C,0.1280*%
%ADD20C,0.0200*%
G54D11*X18950Y16300D02*X18450Y16800D01*
X18550Y14700D02*X20217D01*
X19749Y14957D02*X19750Y14700D01*
X20129Y15818D02*X20100Y15800D01*
X18948Y15768D02*X18950Y15750D01*
X19341Y15818D02*X19300Y15800D01*
X17767Y15881D02*X18160D01*
X17767Y13518D02*X18149D01*
X18160Y15881D02*Y13518D01*
X18554Y14971D02*Y14118D01*
X18949Y13518D02*X18950Y12850D01*
X18350Y12250D01*
X19349Y13518D02*X19350Y12250D01*
X17767Y13518D02*X17767Y10782D01*
X18948Y13518D02*X18950Y13500D01*
X17767Y10782D02*X19200Y9350D01*
X18350Y11250D02*X17750Y11850D01*
Y11950D01*
X17349Y13494D02*X17350Y12600D01*
X15404Y13518D02*Y10804D01*
X15798Y13518D02*Y10398D01*
X16192Y13518D02*X16200Y13511D01*
Y11700D01*
X19750Y12850D02*X20350Y12250D01*
X20150Y13050D02*X20250Y12950D01*
X19749Y13468D02*X19750Y12850D01*
X20149Y13518D02*X20150Y13050D01*
X20129Y13518D02*X20150Y13500D01*
X19735Y13468D02*X19750Y13450D01*
X19341Y13518D02*X19350Y13500D01*
X18450Y16800D02*X17350D01*
X17000Y16450D01*
X16585Y15881D02*X16550Y15898D01*
X16192Y15818D02*X16200Y15800D01*
X15798Y15868D02*X15800Y15850D01*
X17373Y15881D02*Y13518D01*
X17350Y13476D01*
X16199Y13518D02*X16150Y13550D01*
X16585Y13518D02*Y15868D01*
X16168Y13568D02*X16150Y13550D01*
X16192Y13518D02*X16200Y13500D01*
X16192Y13545D02*X16169Y13550D01*
X15404Y13518D02*X15350Y13444D01*
X15404Y15668D02*X15400Y15650D01*
X25000Y14700D02*Y8100D01*
X24450Y7550D01*
X21550Y12950D02*X22450D01*
X22950Y12450D01*
X21450Y12700D02*X21600D01*
X21850Y12450D01*
X22950D02*Y11100D01*
X22450Y10600D01*
X22000D01*
X21350Y11250D01*
X21850Y12450D02*Y11950D01*
X21650Y11750D01*
X21704Y15881D02*Y13568D01*
X22300Y13700D02*X21704Y13718D01*
X19735Y14971D02*X19750Y14938D01*
X18949Y15768D02*X18950Y16300D01*
X19300Y16700D02*X19299Y15818D01*
X18650Y17350D02*X18050D01*
Y17250D01*
X20800Y17300D02*X22400D01*
X19300Y16700D02*X18650Y17350D01*
X20217Y14700D02*X20522Y15025D01*
X19750Y14700D02*X21700D01*
X18000Y17300D02*Y17250D01*
X18050D01*
X20899Y15718D02*X20900Y16650D01*
X20099Y15818D02*X20100Y16600D01*
X20800Y17300D01*
X20916Y15718D02*X20900Y15700D01*
X24450Y7550D02*X20500D01*
X20450Y7600D01*
X21299Y13518D02*X21300Y13250D01*
X20899Y13518D02*X20900Y13300D01*
X20950Y13250D01*
Y13200D01*
X21310Y13518D02*X21300Y13500D01*
X20916Y13518D02*X20900Y13500D01*
X21300Y13200D02*X21550Y12950D01*
X20950Y13200D02*X21450Y12700D01*
X20850Y12000D02*X20550Y11750D01*
X21650D02*X21050D01*
X20850Y11650D01*
X20450Y11250D01*
X20499Y13518D02*X20500Y13350D01*
X20499Y13368D02*X20850Y13000D01*
Y12000D01*
X20499Y13368D02*X20500Y13500D01*
X20499Y13518D02*X20523Y13500D01*
X20550Y11750D02*X19850D01*
X19350Y11250D01*
X20350D02*X20450D01*
X21299Y15868D02*X21300Y16250D01*
X21650Y16600D01*
X22450D01*
X22550Y16500D01*
X22400Y17300D02*X25000Y14700D01*
X21310Y15868D02*X21300Y15850D01*
X8700Y21950D02*Y21900D01*
X9200Y21400D01*
X8700Y21950D02*X6700Y23950D01*
X9700Y21950D02*X9750D01*
X10200Y21500D01*
X10700Y21950D02*X11200Y21450D01*
X1200Y23450D02*X1100D01*
X1700Y23950D02*X1200Y23450D01*
X6700Y23950D02*X1700D01*
X9200Y21400D02*Y17550D01*
X9700Y20950D02*Y17400D01*
X10700Y20950D02*Y17550D01*
X11200Y21450D02*Y17550D01*
X10200Y21500D02*Y17400D01*
X5500Y19500D02*X5700D01*
X10200Y17400D02*X11050Y16550D01*
X9200Y17550D02*X10250Y16500D01*
X10249Y15718D01*
X9700Y17400D02*X10650Y16450D01*
X10649Y15768D01*
X9487Y15868D02*X8700Y15850D01*
X10286Y15718D02*X10250Y15700D01*
X10700Y17550D02*X10750Y17500D01*
X11450Y16800D01*
X11200Y17550D02*X11850Y16900D01*
X10649Y15768D02*X10700Y15700D01*
X11050Y16550D02*X11049Y15768D01*
X11100Y15700D01*
X11700Y17550D02*X12250Y17000D01*
X11450Y16800D02*X11449Y15818D01*
X11850Y16900D02*X11849Y15818D01*
X11950Y15700D01*
X12200Y17600D02*X12650Y17150D01*
X12700Y17650D02*X13050Y17300D01*
X12250Y17000D02*X12249Y15768D01*
X12650Y17150D02*X12649Y15768D01*
X12700Y15700D01*
X13050Y17300D02*X13049Y15418D01*
X12648Y15718D02*X12700Y15700D01*
X13200Y17650D02*X13450Y17400D01*
X13449Y15768D01*
X12200Y21450D02*Y17600D01*
X12700Y20900D02*Y17650D01*
X13200Y21400D02*Y17650D01*
X12700Y20950D02*Y20900D01*
X11700Y20950D02*Y17550D01*
Y21000D02*Y20950D01*
X14700Y20900D02*X14550Y20750D01*
Y20950D01*
X14700D01*
Y20900D01*
X11700Y20950D02*Y21000D01*
Y21950D02*X12200Y21450D01*
X12700Y21950D02*Y21900D01*
X13200Y21400D01*
X13700Y21950D02*X14150Y21500D01*
X14700Y21950D02*X14750D01*
X15150Y21550D01*
X15700Y21950D02*Y21900D01*
X16200Y21400D01*
X13700Y20950D02*X13699Y16018D01*
X14150Y21500D02*X14149Y15868D01*
X14550Y20750D02*X14549Y15818D01*
X14850Y19400D02*Y16050D01*
X15150Y21550D02*Y19700D01*
X14850Y19400D01*
X15700Y20950D02*Y19350D01*
X15400Y19050D01*
X15399Y15668D01*
X15800Y18650D02*X15799Y15868D01*
X16199Y15818D02*X16200Y18550D01*
Y21400D02*Y19050D01*
X15800Y18650D01*
X16200Y18550D02*X16700Y19050D01*
Y20900D01*
Y20950D02*Y20900D01*
X16549Y15917D02*X16550Y17050D01*
X11074Y15718D02*X11100Y15700D01*
X10680Y15718D02*X10700Y15700D01*
X9499Y15881D02*Y13518D01*
X11074D02*X10680D01*
X11467D02*X11300Y13351D01*
X9000Y12625D02*Y10000D01*
X10600Y10600D02*X11500D01*
X10250Y10200D02*X10850D01*
X9893Y13518D02*X9849Y13475D01*
X10680Y13518D02*X10050Y12888D01*
X9893Y13518D02*X9800Y13425D01*
X10500Y12200D02*X10700Y12000D01*
X12020Y11220D02*X11500Y10600D01*
X10050Y12888D02*Y10500D01*
X11467Y15818D02*X11450Y15800D01*
X9499Y15881D02*X9487Y15850D01*
X11300Y13351D02*X10500Y12200D01*
X13042Y13518D02*X13100Y13461D01*
Y13000D01*
X12648Y13518D02*Y12748D01*
X11700Y13357D02*X11500Y12100D01*
X11861Y13518D02*X11700Y13357D01*
X9893Y13518D02*X9000Y12625D01*
X10286Y13518D02*X9893D01*
X7550Y7250D02*Y8650D01*
X9000Y10100D02*X7550Y8650D01*
Y8500D02*X7600D01*
X9050Y6650D02*X8550Y7150D01*
Y8500D01*
X2050Y4750D02*X2300Y5000D01*
X7550Y7250D02*X8050Y6750D01*
X7300Y6650D02*X7100D01*
X8050Y6750D02*Y6600D01*
Y6650D02*Y6600D01*
X7600Y5200D02*Y3400D01*
X10900Y4920D02*X10930Y4950D01*
X10719Y8100D03*
X10600Y7980D02*Y7100D01*
X12000Y6550D02*Y6600D01*
X10600Y7100D02*X11050Y6650D01*
X12600Y8000D02*Y7300D01*
X12000Y6700D01*
X13500Y8100D02*Y7100D01*
X13100Y6700D01*
X9250Y9700D02*X10050Y10500D01*
X9050Y7650D02*X9269D01*
X9600Y7980D03*
X8550Y8500D02*X10250Y10200D01*
X10050Y8750D02*Y7650D01*
X13000Y11800D02*X11200Y10000D01*
X13200Y11500D02*X13100D01*
X11400Y9800D01*
X11200Y9900D02*X10050Y8750D01*
X10600Y7980D02*X13799Y11180D01*
X11200Y10000D02*Y9900D01*
X11400Y9800D02*Y9500D01*
X14223Y11023D02*X11000Y7800D01*
X13699Y16018D02*X13800Y15900D01*
X14223Y15868D02*X14150Y15850D01*
X13830Y15918D02*X13800Y15900D01*
X13042Y15418D02*X13050Y15400D01*
X13449Y15768D02*X13500Y15700D01*
X13499Y15718D02*X13450Y15700D01*
X12255Y15768D02*X12250Y15750D01*
X13436Y15718D02*X13450Y15700D01*
X11861Y15718D02*X11950Y15700D01*
X14549Y15818D02*X14600Y15800D01*
X14850Y16050D02*X14999Y15918D01*
X15011D02*X15000Y15900D01*
X14617Y15818D02*X14600Y15800D01*
X13436Y11418D02*X13450Y11387D01*
X13436Y11405D02*X13450Y11387D01*
X12350Y10200D02*X13499Y11318D01*
X13500Y11500D01*
X13800Y13488D02*Y11300D01*
X13830Y11400D02*X13799Y11180D01*
X13830Y13518D02*X13800Y13488D01*
X13042Y13518D02*X13000Y13476D01*
X13436Y13518D02*X13500Y13455D01*
X13100Y13000D02*X13200Y12900D01*
X12255Y13518D02*X12200Y13463D01*
Y12900D01*
X12020Y12820D01*
Y11220D01*
X13200Y12900D02*Y11500D01*
X13500Y13455D02*Y11400D01*
X12648Y12748D02*X13000Y12397D01*
Y11800D01*
X14223Y13518D02*Y11023D01*
X14617Y13518D02*X14600Y13501D01*
Y12800D01*
X15011Y13518D02*Y10711D01*
X12100Y7800D01*
X15404Y10804D02*X12600Y8000D01*
X15798Y10398D02*X13500Y8100D01*
G54D12*X22550Y18600D02*X22600Y18650D01*
X22400Y18600D02*X22550D01*
X22350Y18650D02*X22400Y18600D01*
X22350Y18650D02*Y18750D01*
X22400Y18800D01*
X22550D01*
X22600Y18850D01*
Y18950D01*
X22550Y19000D02*X22600Y18950D01*
X22400Y19000D02*X22550D01*
X22350Y18950D02*X22400Y19000D01*
X22720Y18650D02*Y18950D01*
Y18650D02*X22770Y18600D01*
X22870D01*
X22920Y18650D01*
Y18950D01*
X22870Y19000D02*X22920Y18950D01*
X22770Y19000D02*X22870D01*
X22720Y18950D02*X22770Y19000D01*
X23040Y18600D02*Y19000D01*
X23240D01*
X23410Y18600D02*Y19000D01*
X23560Y18600D02*X23610Y18650D01*
Y18950D01*
X23560Y19000D02*X23610Y18950D01*
X23360Y19000D02*X23560D01*
X23360Y18600D02*X23560D01*
X23730Y18800D02*X23880D01*
X23730Y19000D02*X23930D01*
X23730Y18600D02*Y19000D01*
Y18600D02*X23930D01*
X24050D02*X24250D01*
X24300Y18650D01*
Y18750D01*
X24250Y18800D02*X24300Y18750D01*
X24100Y18800D02*X24250D01*
X24100Y18600D02*Y19000D01*
Y18800D02*X24300Y19000D01*
X24800Y18600D02*X24850Y18650D01*
X24650Y18600D02*X24800D01*
X24600Y18650D02*X24650Y18600D01*
X24600Y18650D02*Y18750D01*
X24650Y18800D01*
X24800D01*
X24850Y18850D01*
Y18950D01*
X24800Y19000D02*X24850Y18950D01*
X24650Y19000D02*X24800D01*
X24600Y18950D02*X24650Y19000D01*
X24970Y18600D02*X25070D01*
X25020D02*Y19000D01*
X24970D02*X25070D01*
X25240Y18600D02*Y19000D01*
X25390Y18600D02*X25440Y18650D01*
Y18950D01*
X25390Y19000D02*X25440Y18950D01*
X25190Y19000D02*X25390D01*
X25190Y18600D02*X25390D01*
X25560Y18800D02*X25710D01*
X25560Y19000D02*X25760D01*
X25560Y18600D02*Y19000D01*
Y18600D02*X25760D01*
G54D13*X22350Y1850D03*
X21350Y2850D03*
X23350D03*
X21350Y850D03*
X23350D03*
G54D14*X18350Y11250D03*
G54D13*X16050Y1850D03*
X15050Y2850D03*
X17050D03*
X15050Y850D03*
X17050D03*
G54D15*X18350Y12250D03*
X19350Y11250D03*
Y12250D03*
X20350D03*
X21350D03*
X22350D03*
X20350Y11250D03*
X21350D03*
X22350D03*
G54D14*X9500Y12100D03*
G54D15*X10500D03*
X11500D03*
X12500D03*
G54D14*X7050Y6650D03*
G54D15*Y7650D03*
X8050Y6650D03*
Y7650D03*
X9050Y6650D03*
Y7650D03*
X10050Y6650D03*
Y7650D03*
X11050Y6650D03*
Y7650D03*
X12050Y6650D03*
X13050D03*
X14050D03*
X12050Y7650D03*
X13050D03*
X14050D03*
X10700Y20950D03*
Y21950D03*
X11700D03*
X12700D03*
X11700Y20950D03*
X12700D03*
X13700D03*
X14700D03*
X15700D03*
X16700D03*
X13700Y21950D03*
X14700D03*
X15700D03*
X16700D03*
G54D14*X7700Y20950D03*
G54D15*Y21950D03*
X8700Y20950D03*
Y21950D03*
X9700Y20950D03*
Y21950D03*
G54D14*X1100Y23500D03*
G54D15*X2100D03*
X1100Y22500D03*
Y21500D03*
Y20500D03*
X2100Y22500D03*
Y21500D03*
Y20500D03*
Y19500D03*
Y18500D03*
Y17500D03*
X1100Y19500D03*
Y18500D03*
Y17500D03*
Y16500D03*
X2100D03*
X2050Y11750D03*
Y10750D03*
G54D14*X1050Y11750D03*
G54D15*Y10750D03*
Y9750D03*
X2050D03*
X1050Y8750D03*
Y7750D03*
Y6750D03*
Y5750D03*
Y4750D03*
X2050Y8750D03*
Y7750D03*
Y6750D03*
Y5750D03*
Y4750D03*
G54D16*X20450Y7600D03*
X19650Y5200D03*
X17000Y16450D03*
X18000Y17300D03*
X16550Y17100D03*
X22550Y16500D03*
X20900Y16650D03*
X20250Y12950D03*
X22300Y13700D03*
X8700Y15850D03*
X23600Y10500D03*
X19200Y9350D03*
X12350Y10200D03*
X10950D03*
X11400Y9500D03*
X10600Y10600D03*
X9250Y9700D03*
X8500Y11400D03*
X7600Y5200D03*
Y3400D03*
X17350Y12600D03*
Y10550D03*
X14600Y12800D03*
X16200Y11700D03*
G54D17*X9499Y14428D02*Y13518D01*
X10286Y14428D02*Y13518D01*
X9893Y14428D02*Y13518D01*
X10680Y14428D02*Y13518D01*
X11074Y14428D02*Y13518D01*
X9499Y15881D02*Y14971D01*
X10286Y15881D02*Y14971D01*
X10680Y15881D02*Y14971D01*
X11074Y15881D02*Y14971D01*
X9893Y15881D02*Y14971D01*
X11467Y14428D02*Y13518D01*
X11861Y14428D02*Y13518D01*
X11467Y15881D02*Y14971D01*
X11861Y15881D02*Y14971D01*
X12255Y15881D02*Y14971D01*
X21704Y15881D02*Y14971D01*
X21310Y15881D02*Y14971D01*
X15404Y15881D02*Y14971D01*
X15798Y15881D02*Y14971D01*
X16192Y15881D02*Y14971D01*
X16585Y15881D02*Y14971D01*
X16979Y15881D02*Y14971D01*
X17373Y15881D02*Y14971D01*
X17767Y15881D02*Y14971D01*
X18160Y15881D02*Y14971D01*
X18554Y15881D02*Y14971D01*
X18948Y15881D02*Y14971D01*
X19341Y15881D02*Y14971D01*
X19735Y15881D02*Y14971D01*
X20129Y15881D02*Y14971D01*
X20522Y15881D02*Y14971D01*
X20916Y15881D02*Y14971D01*
X12255Y14428D02*Y13518D01*
X12648Y14428D02*Y13518D01*
X13042Y14428D02*Y13518D01*
X12648Y15881D02*Y14971D01*
X13042Y15881D02*Y14971D01*
X13436Y15881D02*Y14971D01*
X13830Y15881D02*Y14971D01*
X13436Y14428D02*Y13518D01*
X13830Y14428D02*Y13518D01*
X14223Y14428D02*Y13518D01*
X14617Y14428D02*Y13518D01*
X14223Y15881D02*Y14971D01*
X14617Y15881D02*Y14971D01*
X15011Y15881D02*Y14971D01*
Y14428D02*Y13518D01*
X15404Y14428D02*Y13518D01*
X15798Y14428D02*Y13518D01*
X16192Y14428D02*Y13518D01*
X16585Y14428D02*Y13518D01*
X16979Y14428D02*Y13518D01*
X17373Y14428D02*Y13518D01*
X17767Y14428D02*Y13518D01*
X18160Y14428D02*Y13518D01*
X18554Y14428D02*Y13518D01*
X18948Y14428D02*Y13518D01*
X19341Y14428D02*Y13518D01*
X19735Y14428D02*Y13518D01*
X20129Y14428D02*Y13518D01*
X20522Y14428D02*Y13518D01*
X20916Y14428D02*Y13518D01*
X21310Y14428D02*Y13518D01*
X21704Y14428D02*Y13518D01*
G54D18*G54D15*G54D16*G54D15*G54D16*G54D18*G54D16*G54D19*G54D20*G54D19*G54D20*G54D19*G54D20*M02*
