G04 start of page 13 for group -4015 idx -4015
G04 Title: RX Daughterboard, toppaste *
G04 Creator: pcb 20070208 *
G04 CreationDate: Mon Dec 24 21:51:39 2007 UTC *
G04 For: matt *
G04 Format: Gerber/RS-274X *
G04 PCB-Dimensions: 275000 250000 *
G04 PCB-Coordinate-Origin: lower left *
%MOIN*%
%FSLAX24Y24*%
%LNFRONTPASTE*%
%ADD20C,0.0200*%
%ADD21R,0.0650X0.0650*%
%ADD22R,0.0240X0.0240*%
%ADD23R,0.0200X0.0200*%
G54D20*X8660Y5000D02*X8940D01*
G54D23*X8660Y4500D02*X8940D01*
X8660Y4000D02*X8940D01*
X8660Y3500D02*X8940D01*
X10700D02*X10980D01*
X10700Y4000D02*X10980D01*
X10700Y4500D02*X10980D01*
X10700Y5000D02*X10980D01*
G54D22*X16510Y9840D02*X16690D01*
X16510Y9360D02*X16690D01*
X15810D02*X15990D01*
X15810Y9840D02*X15990D01*
G54D21*X16000Y5380D02*Y5030D01*
X17000Y5380D02*Y5030D01*
X18000Y5380D02*Y5030D01*
Y8370D02*Y8020D01*
X17000Y8370D02*Y8020D01*
X16000Y8370D02*Y8020D01*
G54D22*X19910Y6540D02*X20090D01*
X19910Y6060D02*X20090D01*
X19160Y7590D02*X19340D01*
X19160Y7110D02*X19340D01*
X19210Y6540D02*X19390D01*
X19210Y6060D02*X19390D01*
X19910Y7590D02*X20090D01*
X19910Y7110D02*X20090D01*
X22310Y4040D02*Y3860D01*
X22790Y4040D02*Y3860D01*
X22410Y9990D02*X22590D01*
X22410Y9510D02*X22590D01*
X23260Y9990D02*X23440D01*
X23260Y9510D02*X23440D01*
X21660D02*X21840D01*
X21660Y9990D02*X21840D01*
X18160Y9360D02*X18340D01*
X18160Y9840D02*X18340D01*
X24010Y9510D02*X24190D01*
X24010Y9990D02*X24190D01*
X17460Y9840D02*X17640D01*
X17460Y9360D02*X17640D01*
G54D21*X21950Y5630D02*Y5280D01*
X22950Y5630D02*Y5280D01*
X23950Y5630D02*Y5280D01*
Y8620D02*Y8270D01*
X22950Y8620D02*Y8270D01*
X21950Y8620D02*Y8270D01*
G54D22*X16040Y4090D02*Y3910D01*
X15560Y4090D02*Y3910D01*
M02*
