M48
INCH,TZ
T15C0.060
T16C0.040
T20C0.020
%
T20
X020450Y007600
X019650Y005200
X017000Y016450
X018000Y017300
X016550Y017100
X022550Y016500
X020900Y016650
X020250Y012950
X022300Y013700
X008700Y015850
X023600Y010500
X019200Y009350
X012350Y010200
X010950Y010200
X011400Y009500
X010600Y010600
X009250Y009700
X008500Y011400
X007600Y005200
X007600Y003400
X017350Y012600
X017350Y010550
X014600Y012800
X016200Y011700
T16
X018350Y011250
X018350Y012250
X019350Y011250
X019350Y012250
X020350Y012250
X021350Y012250
X022350Y012250
X020350Y011250
X021350Y011250
X022350Y011250
X009500Y012100
X010500Y012100
X011500Y012100
X012500Y012100
X007050Y006650
X007050Y007650
X008050Y006650
X008050Y007650
X009050Y006650
X009050Y007650
X010050Y006650
X010050Y007650
X011050Y006650
X011050Y007650
X012050Y006650
X013050Y006650
X014050Y006650
X012050Y007650
X013050Y007650
X014050Y007650
X010700Y020950
X010700Y021950
X011700Y021950
X012700Y021950
X011700Y020950
X012700Y020950
X013700Y020950
X014700Y020950
X015700Y020950
X016700Y020950
X013700Y021950
X014700Y021950
X015700Y021950
X016700Y021950
X007700Y020950
X007700Y021950
X008700Y020950
X008700Y021950
X009700Y020950
X009700Y021950
X001100Y023500
X002100Y023500
X001100Y022500
X001100Y021500
X001100Y020500
X002100Y022500
X002100Y021500
X002100Y020500
X002100Y019500
X002100Y018500
X002100Y017500
X001100Y019500
X001100Y018500
X001100Y017500
X001100Y016500
X002100Y016500
X002050Y011750
X002050Y010750
X001050Y011750
X001050Y010750
X001050Y009750
X002050Y009750
X001050Y008750
X001050Y007750
X001050Y006750
X001050Y005750
X001050Y004750
X002050Y008750
X002050Y007750
X002050Y006750
X002050Y005750
X002050Y004750
T15
X022350Y001850
X021350Y002850
X023350Y002850
X021350Y000850
X023350Y000850
X016050Y001850
X015050Y002850
X017050Y002850
X015050Y000850
X017050Y000850
M30
