G04 start of page 12 for group -4014 idx -4014
G04 Title: RX Daughterboard, bottompaste *
G04 Creator: pcb 20070208 *
G04 CreationDate: Mon Dec 24 21:51:39 2007 UTC *
G04 For: matt *
G04 Format: Gerber/RS-274X *
G04 PCB-Dimensions: 275000 250000 *
G04 PCB-Coordinate-Origin: lower left *
%MOIN*%
%FSLAX24Y24*%
%LNBACKPASTE*%
%ADD17C,0.0240*%
G54D17*X9499Y14428D02*Y13518D01*
X21704Y15881D02*Y14971D01*
X10286Y14428D02*Y13518D01*
X9893Y14428D02*Y13518D01*
X10680Y14428D02*Y13518D01*
X9499Y15881D02*Y14971D01*
X11074Y14428D02*Y13518D01*
X10286Y15881D02*Y14971D01*
X11467Y14428D02*Y13518D01*
X10680Y15881D02*Y14971D01*
X11861Y14428D02*Y13518D01*
X11074Y15881D02*Y14971D01*
X12255Y14428D02*Y13518D01*
X11467Y15881D02*Y14971D01*
X12648Y14428D02*Y13518D01*
X11861Y15881D02*Y14971D01*
X13042Y14428D02*Y13518D01*
X12255Y15881D02*Y14971D01*
X13436Y14428D02*Y13518D01*
X12648Y15881D02*Y14971D01*
X13042Y15881D02*Y14971D01*
X13436Y15881D02*Y14971D01*
X13830Y15881D02*Y14971D01*
X14223Y15881D02*Y14971D01*
X14617Y15881D02*Y14971D01*
X15011Y15881D02*Y14971D01*
X15404Y15881D02*Y14971D01*
X15798Y15881D02*Y14971D01*
X16192Y15881D02*Y14971D01*
X16585Y15881D02*Y14971D01*
X16979Y15881D02*Y14971D01*
X17373Y15881D02*Y14971D01*
X17767Y15881D02*Y14971D01*
X18160Y15881D02*Y14971D01*
X18554Y15881D02*Y14971D01*
X19341Y15881D02*Y14971D01*
X18948Y15881D02*Y14971D01*
X19735Y15881D02*Y14971D01*
X20129Y15881D02*Y14971D01*
X20522Y15881D02*Y14971D01*
X20916Y15881D02*Y14971D01*
X9893Y15881D02*Y14971D01*
X13830Y14428D02*Y13518D01*
X14223Y14428D02*Y13518D01*
X14617Y14428D02*Y13518D01*
X15011Y14428D02*Y13518D01*
X15404Y14428D02*Y13518D01*
X15798Y14428D02*Y13518D01*
X16192Y14428D02*Y13518D01*
X16585Y14428D02*Y13518D01*
X16979Y14428D02*Y13518D01*
X17373Y14428D02*Y13518D01*
X17767Y14428D02*Y13518D01*
X18160Y14428D02*Y13518D01*
X18554Y14428D02*Y13518D01*
X18948Y14428D02*Y13518D01*
X19341Y14428D02*Y13518D01*
X19735Y14428D02*Y13518D01*
X20129Y14428D02*Y13518D01*
X20522Y14428D02*Y13518D01*
X20916Y14428D02*Y13518D01*
X21310Y14428D02*Y13518D01*
X21704Y14428D02*Y13518D01*
X21310Y15881D02*Y14971D01*
M02*
