G04 start of page 4 for group 2 idx 1
G04 Title: TX Daughterboard, GND-sldr *
G04 Creator: pcb 20070208 *
G04 CreationDate: Mon Dec 24 21:52:14 2007 UTC *
G04 For: matt *
G04 Format: Gerber/RS-274X *
G04 PCB-Dimensions: 275000 250000 *
G04 PCB-Coordinate-Origin: lower left *
%MOIN*%
%FSLAX24Y24*%
%LNGROUP2*%
%ADD13C,0.0600*%
%ADD14R,0.0600X0.0600*%
%ADD15C,0.0900*%
%ADD16C,0.0400*%
%ADD18C,0.0560*%
%ADD19C,0.1280*%
%ADD20C,0.0200*%
G54D20*G36*
X17100Y300D02*Y1634D01*
X17105Y1636D01*
X17200Y1680D01*
X17285Y1740D01*
X17359Y1814D01*
X17417Y1896D01*
Y1552D01*
X17380Y1500D01*
X17336Y1405D01*
X17309Y1304D01*
X17300Y1200D01*
X17309Y1095D01*
X17336Y994D01*
X17380Y900D01*
X17417Y847D01*
Y300D01*
X17100D01*
G37*
G36*
X17417Y2503D02*X17359Y2585D01*
X17285Y2659D01*
X17200Y2719D01*
X17105Y2763D01*
X17100Y2765D01*
Y12400D01*
X17104Y12347D01*
X17118Y12297D01*
X17140Y12250D01*
X17156Y12227D01*
X17227Y12298D01*
X17226Y12300D01*
X17212Y12331D01*
X17203Y12365D01*
X17200Y12400D01*
X17203Y12434D01*
X17212Y12468D01*
X17226Y12500D01*
X17227Y12501D01*
X17156Y12573D01*
X17140Y12550D01*
X17118Y12502D01*
X17104Y12452D01*
X17100Y12400D01*
Y24700D01*
X17417D01*
Y12698D01*
X17400Y12700D01*
X17347Y12695D01*
X17297Y12681D01*
X17250Y12659D01*
X17227Y12643D01*
X17298Y12572D01*
X17300Y12573D01*
X17331Y12587D01*
X17365Y12597D01*
X17400Y12600D01*
X17417Y12598D01*
Y12201D01*
X17400Y12200D01*
X17365Y12203D01*
X17331Y12212D01*
X17300Y12226D01*
X17298Y12227D01*
X17227Y12156D01*
X17250Y12140D01*
X17297Y12118D01*
X17347Y12104D01*
X17400Y12100D01*
X17417Y12101D01*
Y3552D01*
X17380Y3500D01*
X17336Y3405D01*
X17309Y3304D01*
X17300Y3200D01*
X17309Y3095D01*
X17336Y2994D01*
X17380Y2900D01*
X17417Y2847D01*
Y2503D01*
G37*
G36*
Y1896D02*X17419Y1900D01*
X17463Y1994D01*
X17490Y2095D01*
X17500Y2200D01*
X17490Y2304D01*
X17463Y2405D01*
X17419Y2500D01*
X17417Y2503D01*
Y2847D01*
X17427Y2833D01*
X17534Y2940D01*
X17510Y2975D01*
X17477Y3046D01*
X17456Y3121D01*
X17450Y3200D01*
X17456Y3278D01*
X17477Y3353D01*
X17510Y3425D01*
X17534Y3459D01*
X17427Y3566D01*
X17417Y3552D01*
Y12101D01*
X17452Y12104D01*
X17502Y12118D01*
X17550Y12140D01*
X17563Y12149D01*
Y6765D01*
X17556Y6773D01*
X17540Y6750D01*
X17518Y6702D01*
X17504Y6652D01*
X17500Y6600D01*
X17504Y6547D01*
X17518Y6497D01*
X17540Y6450D01*
X17556Y6427D01*
X17563Y6434D01*
Y3694D01*
X17533Y3672D01*
X17563Y3642D01*
Y2757D01*
X17533Y2727D01*
X17563Y2705D01*
Y1694D01*
X17533Y1672D01*
X17563Y1642D01*
Y757D01*
X17533Y727D01*
X17563Y705D01*
Y300D01*
X17417D01*
Y847D01*
X17427Y833D01*
X17534Y940D01*
X17510Y975D01*
X17477Y1046D01*
X17456Y1121D01*
X17450Y1200D01*
X17456Y1278D01*
X17477Y1353D01*
X17510Y1425D01*
X17534Y1459D01*
X17427Y1566D01*
X17417Y1552D01*
Y1896D01*
G37*
G36*
X17563Y12165D02*X17501Y12227D01*
X17500Y12226D01*
X17468Y12212D01*
X17434Y12203D01*
X17417Y12201D01*
Y12598D01*
X17434Y12597D01*
X17468Y12587D01*
X17500Y12573D01*
X17501Y12572D01*
X17563Y12634D01*
Y12165D01*
G37*
G36*
Y12650D02*X17550Y12659D01*
X17502Y12681D01*
X17452Y12695D01*
X17417Y12698D01*
Y24700D01*
X17563D01*
Y12650D01*
G37*
G36*
Y12149D02*X17573Y12156D01*
X17563Y12165D01*
Y12634D01*
X17573Y12643D01*
X17563Y12650D01*
Y24700D01*
X17636D01*
Y12565D01*
X17572Y12501D01*
X17573Y12500D01*
X17587Y12468D01*
X17597Y12434D01*
X17600Y12400D01*
X17597Y12365D01*
X17587Y12331D01*
X17573Y12300D01*
X17572Y12298D01*
X17636Y12234D01*
Y6850D01*
X17627Y6843D01*
X17636Y6834D01*
Y6365D01*
X17627Y6356D01*
X17636Y6349D01*
Y3736D01*
X17600Y3719D01*
X17563Y3694D01*
Y6434D01*
X17627Y6498D01*
X17626Y6500D01*
X17612Y6531D01*
X17603Y6565D01*
X17600Y6600D01*
X17603Y6634D01*
X17612Y6668D01*
X17626Y6700D01*
X17627Y6701D01*
X17563Y6765D01*
Y12149D01*
G37*
G36*
X17636Y24700D02*X17900D01*
Y7822D01*
X17870Y7792D01*
X17840Y7750D01*
X17818Y7702D01*
X17804Y7652D01*
X17800Y7600D01*
X17804Y7547D01*
X17818Y7497D01*
X17840Y7450D01*
X17870Y7407D01*
X17900Y7377D01*
Y6882D01*
X17852Y6895D01*
X17800Y6900D01*
X17747Y6895D01*
X17697Y6881D01*
X17650Y6859D01*
X17636Y6850D01*
Y12234D01*
X17643Y12227D01*
X17659Y12250D01*
X17681Y12297D01*
X17695Y12347D01*
X17700Y12400D01*
X17695Y12452D01*
X17681Y12502D01*
X17659Y12550D01*
X17643Y12573D01*
X17636Y12565D01*
Y24700D01*
G37*
G36*
Y6834D02*X17698Y6772D01*
X17700Y6773D01*
X17731Y6787D01*
X17765Y6797D01*
X17800Y6800D01*
X17834Y6797D01*
X17868Y6787D01*
X17900Y6773D01*
Y6426D01*
X17868Y6412D01*
X17834Y6403D01*
X17800Y6400D01*
X17765Y6403D01*
X17731Y6412D01*
X17700Y6426D01*
X17698Y6427D01*
X17636Y6365D01*
Y6834D01*
G37*
G36*
Y6349D02*X17650Y6340D01*
X17697Y6318D01*
X17747Y6304D01*
X17800Y6300D01*
X17852Y6304D01*
X17900Y6317D01*
Y3800D01*
X17795Y3790D01*
X17694Y3763D01*
X17636Y3736D01*
Y6349D01*
G37*
G36*
X17563Y3642D02*X17640Y3565D01*
X17675Y3589D01*
X17746Y3622D01*
X17821Y3643D01*
X17900Y3650D01*
Y2750D01*
X17821Y2756D01*
X17746Y2777D01*
X17675Y2810D01*
X17640Y2834D01*
X17563Y2757D01*
Y3642D01*
G37*
G36*
Y2705D02*X17600Y2680D01*
X17694Y2636D01*
X17795Y2609D01*
X17900Y2600D01*
Y1800D01*
X17795Y1790D01*
X17694Y1763D01*
X17600Y1719D01*
X17563Y1694D01*
Y2705D01*
G37*
G36*
Y1642D02*X17640Y1565D01*
X17675Y1589D01*
X17746Y1622D01*
X17821Y1643D01*
X17900Y1650D01*
Y750D01*
X17821Y756D01*
X17746Y777D01*
X17675Y810D01*
X17640Y834D01*
X17563Y757D01*
Y1642D01*
G37*
G36*
Y705D02*X17600Y680D01*
X17694Y636D01*
X17795Y609D01*
X17900Y600D01*
Y300D01*
X17563D01*
Y705D01*
G37*
G36*
X17900Y24700D02*X18163D01*
Y12565D01*
X18156Y12573D01*
X18140Y12550D01*
X18118Y12502D01*
X18104Y12452D01*
X18100Y12400D01*
X18104Y12347D01*
X18118Y12297D01*
X18140Y12250D01*
X18156Y12227D01*
X18163Y12234D01*
Y7892D01*
X18152Y7895D01*
X18100Y7900D01*
X18047Y7895D01*
X17997Y7881D01*
X17950Y7859D01*
X17907Y7829D01*
X17900Y7822D01*
Y24700D01*
G37*
G36*
X18163D02*X18382D01*
Y12698D01*
X18347Y12695D01*
X18297Y12681D01*
X18250Y12659D01*
X18227Y12643D01*
X18298Y12572D01*
X18300Y12573D01*
X18331Y12587D01*
X18365Y12597D01*
X18382Y12598D01*
Y12201D01*
X18365Y12203D01*
X18331Y12212D01*
X18300Y12226D01*
X18298Y12227D01*
X18227Y12156D01*
X18250Y12140D01*
X18297Y12118D01*
X18347Y12104D01*
X18382Y12101D01*
Y7699D01*
X18381Y7702D01*
X18359Y7750D01*
X18329Y7792D01*
X18292Y7829D01*
X18250Y7859D01*
X18202Y7881D01*
X18163Y7892D01*
Y12234D01*
X18227Y12298D01*
X18226Y12300D01*
X18212Y12331D01*
X18203Y12365D01*
X18200Y12400D01*
X18203Y12434D01*
X18212Y12468D01*
X18226Y12500D01*
X18227Y12501D01*
X18163Y12565D01*
Y24700D01*
G37*
G36*
X18036Y300D02*X17900D01*
Y600D01*
X18004Y609D01*
X18036Y617D01*
Y300D01*
G37*
G36*
Y772D02*X17978Y756D01*
X17900Y750D01*
Y1650D01*
X17978Y1643D01*
X18036Y1627D01*
Y772D01*
G37*
G36*
Y1782D02*X18004Y1790D01*
X17900Y1800D01*
Y2600D01*
X18004Y2609D01*
X18036Y2617D01*
Y1782D01*
G37*
G36*
Y2772D02*X17978Y2756D01*
X17900Y2750D01*
Y3650D01*
X17978Y3643D01*
X18036Y3627D01*
Y2772D01*
G37*
G36*
Y3782D02*X18004Y3790D01*
X17900Y3800D01*
Y6317D01*
X17902Y6318D01*
X17950Y6340D01*
X17973Y6356D01*
X17901Y6427D01*
X17900Y6426D01*
Y6773D01*
X17901Y6772D01*
X17973Y6843D01*
X17950Y6859D01*
X17902Y6881D01*
X17900Y6882D01*
Y7377D01*
X17907Y7370D01*
X17950Y7340D01*
X17997Y7318D01*
X18036Y7307D01*
Y6765D01*
X17972Y6701D01*
X17973Y6700D01*
X17987Y6668D01*
X17997Y6634D01*
X18000Y6600D01*
X17997Y6565D01*
X17987Y6531D01*
X17973Y6500D01*
X17972Y6498D01*
X18036Y6434D01*
Y3782D01*
G37*
G36*
X18382Y300D02*X18036D01*
Y617D01*
X18105Y636D01*
X18200Y680D01*
X18266Y727D01*
X18159Y834D01*
X18125Y810D01*
X18053Y777D01*
X18036Y772D01*
Y1627D01*
X18053Y1622D01*
X18125Y1589D01*
X18159Y1565D01*
X18266Y1672D01*
X18200Y1719D01*
X18105Y1763D01*
X18036Y1782D01*
Y2617D01*
X18105Y2636D01*
X18200Y2680D01*
X18266Y2727D01*
X18159Y2834D01*
X18125Y2810D01*
X18053Y2777D01*
X18036Y2772D01*
Y3627D01*
X18053Y3622D01*
X18125Y3589D01*
X18159Y3565D01*
X18266Y3672D01*
X18200Y3719D01*
X18105Y3763D01*
X18036Y3782D01*
Y6434D01*
X18043Y6427D01*
X18059Y6450D01*
X18081Y6497D01*
X18095Y6547D01*
X18100Y6600D01*
X18095Y6652D01*
X18081Y6702D01*
X18059Y6750D01*
X18043Y6773D01*
X18036Y6765D01*
Y7307D01*
X18047Y7304D01*
X18100Y7300D01*
X18152Y7304D01*
X18202Y7318D01*
X18250Y7340D01*
X18292Y7370D01*
X18329Y7407D01*
X18359Y7450D01*
X18381Y7497D01*
X18382Y7500D01*
Y3552D01*
X18372Y3566D01*
X18265Y3459D01*
X18289Y3425D01*
X18322Y3353D01*
X18343Y3278D01*
X18350Y3200D01*
X18343Y3121D01*
X18322Y3046D01*
X18289Y2975D01*
X18265Y2940D01*
X18372Y2833D01*
X18382Y2847D01*
Y1552D01*
X18372Y1566D01*
X18265Y1459D01*
X18289Y1425D01*
X18322Y1353D01*
X18343Y1278D01*
X18350Y1200D01*
X18343Y1121D01*
X18322Y1046D01*
X18289Y975D01*
X18265Y940D01*
X18372Y833D01*
X18382Y847D01*
Y300D01*
G37*
G36*
Y24700D02*X18636D01*
Y16762D01*
X18610Y16744D01*
X18555Y16689D01*
X18510Y16625D01*
X18477Y16553D01*
X18456Y16478D01*
X18450Y16400D01*
X18456Y16321D01*
X18477Y16246D01*
X18510Y16175D01*
X18555Y16110D01*
X18610Y16055D01*
X18636Y16037D01*
Y15847D01*
X18574Y15847D01*
X18548Y15841D01*
X18525Y15829D01*
X18503Y15814D01*
X18485Y15796D01*
X18470Y15775D01*
X18459Y15751D01*
X18452Y15726D01*
X18450Y15700D01*
X18452Y15074D01*
X18459Y15048D01*
X18470Y15025D01*
X18485Y15003D01*
X18503Y14985D01*
X18525Y14970D01*
X18548Y14959D01*
X18574Y14952D01*
X18600Y14950D01*
X18636Y14950D01*
Y13041D01*
X18618Y13002D01*
X18604Y12952D01*
X18600Y12900D01*
X18604Y12847D01*
X18618Y12797D01*
X18636Y12758D01*
Y12565D01*
X18572Y12501D01*
X18573Y12500D01*
X18587Y12468D01*
X18597Y12434D01*
X18600Y12400D01*
X18597Y12365D01*
X18587Y12331D01*
X18573Y12300D01*
X18572Y12298D01*
X18636Y12234D01*
Y300D01*
X18382D01*
Y847D01*
X18419Y900D01*
X18463Y994D01*
X18490Y1095D01*
X18500Y1200D01*
X18490Y1304D01*
X18463Y1405D01*
X18419Y1500D01*
X18382Y1552D01*
Y2847D01*
X18419Y2900D01*
X18463Y2994D01*
X18490Y3095D01*
X18500Y3200D01*
X18490Y3304D01*
X18463Y3405D01*
X18419Y3500D01*
X18382Y3552D01*
Y7500D01*
X18395Y7547D01*
X18400Y7600D01*
X18395Y7652D01*
X18382Y7699D01*
Y12101D01*
X18400Y12100D01*
X18452Y12104D01*
X18502Y12118D01*
X18550Y12140D01*
X18573Y12156D01*
X18501Y12227D01*
X18500Y12226D01*
X18468Y12212D01*
X18434Y12203D01*
X18400Y12200D01*
X18382Y12201D01*
Y12598D01*
X18400Y12600D01*
X18434Y12597D01*
X18468Y12587D01*
X18500Y12573D01*
X18501Y12572D01*
X18573Y12643D01*
X18550Y12659D01*
X18502Y12681D01*
X18452Y12695D01*
X18400Y12700D01*
X18382Y12698D01*
Y24700D01*
G37*
G36*
X18636D02*X18900D01*
Y16850D01*
X18821Y16843D01*
X18746Y16822D01*
X18675Y16789D01*
X18636Y16762D01*
Y24700D01*
G37*
G36*
Y16037D02*X18675Y16010D01*
X18746Y15977D01*
X18821Y15956D01*
X18900Y15950D01*
Y15848D01*
X18636Y15847D01*
Y16037D01*
G37*
G36*
Y14950D02*X18900Y14951D01*
Y13200D01*
X18847Y13195D01*
X18797Y13181D01*
X18750Y13159D01*
X18707Y13129D01*
X18670Y13092D01*
X18640Y13050D01*
X18636Y13041D01*
Y14950D01*
G37*
G36*
Y12758D02*X18640Y12750D01*
X18670Y12707D01*
X18707Y12670D01*
X18750Y12640D01*
X18797Y12618D01*
X18847Y12604D01*
X18900Y12600D01*
Y300D01*
X18636D01*
Y12234D01*
X18643Y12227D01*
X18659Y12250D01*
X18681Y12297D01*
X18695Y12347D01*
X18700Y12400D01*
X18695Y12452D01*
X18681Y12502D01*
X18659Y12550D01*
X18643Y12573D01*
X18636Y12565D01*
Y12758D01*
G37*
G36*
X18900Y24700D02*X19300D01*
Y16602D01*
X19289Y16625D01*
X19244Y16689D01*
X19189Y16744D01*
X19125Y16789D01*
X19053Y16822D01*
X18978Y16843D01*
X18900Y16850D01*
Y24700D01*
G37*
G36*
X19300Y300D02*X18900D01*
Y12600D01*
X18952Y12604D01*
X19002Y12618D01*
X19050Y12640D01*
X19092Y12670D01*
X19129Y12707D01*
X19159Y12750D01*
X19181Y12797D01*
X19195Y12847D01*
X19200Y12900D01*
X19195Y12952D01*
X19181Y13002D01*
X19159Y13050D01*
X19129Y13092D01*
X19092Y13129D01*
X19050Y13159D01*
X19002Y13181D01*
X18952Y13195D01*
X18900Y13200D01*
Y14951D01*
X19226Y14952D01*
X19251Y14959D01*
X19275Y14970D01*
X19296Y14985D01*
X19300Y14988D01*
Y7800D01*
X19247Y7795D01*
X19197Y7781D01*
X19150Y7759D01*
X19107Y7729D01*
X19070Y7692D01*
X19040Y7650D01*
X19018Y7602D01*
X19004Y7552D01*
X19000Y7500D01*
X19004Y7447D01*
X19018Y7397D01*
X19040Y7350D01*
X19070Y7307D01*
X19107Y7270D01*
X19150Y7240D01*
X19197Y7218D01*
X19247Y7204D01*
X19300Y7200D01*
Y300D01*
G37*
G36*
Y15811D02*X19296Y15814D01*
X19275Y15829D01*
X19251Y15841D01*
X19226Y15847D01*
X19200Y15850D01*
X18900Y15848D01*
Y15950D01*
X18978Y15956D01*
X19053Y15977D01*
X19125Y16010D01*
X19189Y16055D01*
X19244Y16110D01*
X19289Y16175D01*
X19300Y16197D01*
Y15811D01*
G37*
G36*
Y24700D02*X19900D01*
Y16850D01*
X19821Y16843D01*
X19746Y16822D01*
X19675Y16789D01*
X19610Y16744D01*
X19555Y16689D01*
X19510Y16625D01*
X19477Y16553D01*
X19456Y16478D01*
X19450Y16400D01*
X19456Y16321D01*
X19477Y16246D01*
X19510Y16175D01*
X19555Y16110D01*
X19610Y16055D01*
X19675Y16010D01*
X19746Y15977D01*
X19821Y15956D01*
X19900Y15950D01*
Y15850D01*
X19821Y15843D01*
X19746Y15822D01*
X19675Y15789D01*
X19610Y15744D01*
X19555Y15689D01*
X19510Y15625D01*
X19477Y15553D01*
X19456Y15478D01*
X19450Y15400D01*
X19456Y15321D01*
X19477Y15246D01*
X19510Y15175D01*
X19555Y15110D01*
X19610Y15055D01*
X19675Y15010D01*
X19746Y14977D01*
X19821Y14956D01*
X19900Y14950D01*
Y13822D01*
X19892Y13829D01*
X19850Y13859D01*
X19802Y13881D01*
X19752Y13895D01*
X19700Y13900D01*
X19647Y13895D01*
X19597Y13881D01*
X19550Y13859D01*
X19507Y13829D01*
X19470Y13792D01*
X19440Y13750D01*
X19418Y13702D01*
X19404Y13652D01*
X19400Y13600D01*
X19404Y13547D01*
X19418Y13497D01*
X19440Y13450D01*
X19470Y13407D01*
X19507Y13370D01*
X19550Y13340D01*
X19597Y13318D01*
X19647Y13304D01*
X19700Y13300D01*
X19752Y13304D01*
X19802Y13318D01*
X19850Y13340D01*
X19892Y13370D01*
X19900Y13377D01*
Y13122D01*
X19870Y13092D01*
X19840Y13050D01*
X19818Y13002D01*
X19804Y12952D01*
X19800Y12900D01*
X19804Y12847D01*
X19818Y12797D01*
X19840Y12750D01*
X19870Y12707D01*
X19900Y12677D01*
Y8529D01*
X19856Y8573D01*
X19840Y8550D01*
X19818Y8502D01*
X19804Y8452D01*
X19800Y8400D01*
X19804Y8347D01*
X19818Y8297D01*
X19840Y8250D01*
X19856Y8227D01*
X19900Y8270D01*
Y300D01*
X19300D01*
Y7200D01*
X19352Y7204D01*
X19402Y7218D01*
X19450Y7240D01*
X19492Y7270D01*
X19529Y7307D01*
X19559Y7350D01*
X19581Y7397D01*
X19595Y7447D01*
X19600Y7500D01*
X19595Y7552D01*
X19581Y7602D01*
X19559Y7650D01*
X19529Y7692D01*
X19492Y7729D01*
X19450Y7759D01*
X19402Y7781D01*
X19352Y7795D01*
X19300Y7800D01*
Y14988D01*
X19314Y15003D01*
X19329Y15025D01*
X19341Y15048D01*
X19347Y15074D01*
X19350Y15100D01*
X19347Y15726D01*
X19341Y15751D01*
X19329Y15775D01*
X19314Y15796D01*
X19300Y15811D01*
Y16197D01*
X19322Y16246D01*
X19343Y16321D01*
X19350Y16400D01*
X19343Y16478D01*
X19322Y16553D01*
X19300Y16602D01*
Y24700D01*
G37*
G36*
X19900D02*X20336D01*
Y16504D01*
X20322Y16553D01*
X20289Y16625D01*
X20244Y16689D01*
X20189Y16744D01*
X20125Y16789D01*
X20053Y16822D01*
X19978Y16843D01*
X19900Y16850D01*
Y24700D01*
G37*
G36*
X20100Y300D02*X19900D01*
Y8270D01*
X19927Y8298D01*
X19926Y8300D01*
X19912Y8331D01*
X19903Y8365D01*
X19900Y8400D01*
X19903Y8434D01*
X19912Y8468D01*
X19926Y8500D01*
X19927Y8501D01*
X19900Y8529D01*
Y12677D01*
X19907Y12670D01*
X19950Y12640D01*
X19997Y12618D01*
X20047Y12604D01*
X20100Y12600D01*
Y8700D01*
X20047Y8695D01*
X19997Y8681D01*
X19950Y8659D01*
X19927Y8643D01*
X19998Y8572D01*
X20000Y8573D01*
X20031Y8587D01*
X20065Y8597D01*
X20100Y8600D01*
Y8200D01*
X20065Y8203D01*
X20031Y8212D01*
X20000Y8226D01*
X19998Y8227D01*
X19927Y8156D01*
X19950Y8140D01*
X19997Y8118D01*
X20047Y8104D01*
X20100Y8100D01*
Y300D01*
G37*
G36*
X20336D02*X20100D01*
Y8100D01*
X20152Y8104D01*
X20202Y8118D01*
X20250Y8140D01*
X20273Y8156D01*
X20201Y8227D01*
X20200Y8226D01*
X20168Y8212D01*
X20134Y8203D01*
X20100Y8200D01*
Y8600D01*
X20134Y8597D01*
X20168Y8587D01*
X20200Y8573D01*
X20201Y8572D01*
X20273Y8643D01*
X20250Y8659D01*
X20202Y8681D01*
X20152Y8695D01*
X20100Y8700D01*
Y12600D01*
X20152Y12604D01*
X20202Y12618D01*
X20250Y12640D01*
X20292Y12670D01*
X20329Y12707D01*
X20336Y12716D01*
Y8565D01*
X20272Y8501D01*
X20273Y8500D01*
X20287Y8468D01*
X20297Y8434D01*
X20300Y8400D01*
X20297Y8365D01*
X20287Y8331D01*
X20273Y8300D01*
X20272Y8298D01*
X20336Y8234D01*
Y300D01*
G37*
G36*
Y13083D02*X20329Y13092D01*
X20292Y13129D01*
X20250Y13159D01*
X20202Y13181D01*
X20152Y13195D01*
X20100Y13200D01*
X20047Y13195D01*
X19997Y13181D01*
X19950Y13159D01*
X19907Y13129D01*
X19900Y13122D01*
Y13377D01*
X19929Y13407D01*
X19959Y13450D01*
X19981Y13497D01*
X19995Y13547D01*
X20000Y13600D01*
X19995Y13652D01*
X19981Y13702D01*
X19959Y13750D01*
X19929Y13792D01*
X19900Y13822D01*
Y14950D01*
X19978Y14956D01*
X20053Y14977D01*
X20125Y15010D01*
X20189Y15055D01*
X20244Y15110D01*
X20289Y15175D01*
X20322Y15246D01*
X20336Y15295D01*
Y13083D01*
G37*
G36*
Y15504D02*X20322Y15553D01*
X20289Y15625D01*
X20244Y15689D01*
X20189Y15744D01*
X20125Y15789D01*
X20053Y15822D01*
X19978Y15843D01*
X19900Y15850D01*
Y15950D01*
X19978Y15956D01*
X20053Y15977D01*
X20125Y16010D01*
X20189Y16055D01*
X20244Y16110D01*
X20289Y16175D01*
X20322Y16246D01*
X20336Y16295D01*
Y15504D01*
G37*
G36*
Y24700D02*X20900D01*
Y16850D01*
X20821Y16843D01*
X20746Y16822D01*
X20675Y16789D01*
X20610Y16744D01*
X20555Y16689D01*
X20510Y16625D01*
X20477Y16553D01*
X20456Y16478D01*
X20450Y16400D01*
X20456Y16321D01*
X20477Y16246D01*
X20510Y16175D01*
X20555Y16110D01*
X20610Y16055D01*
X20675Y16010D01*
X20746Y15977D01*
X20821Y15956D01*
X20900Y15950D01*
Y15850D01*
X20821Y15843D01*
X20746Y15822D01*
X20675Y15789D01*
X20610Y15744D01*
X20555Y15689D01*
X20510Y15625D01*
X20477Y15553D01*
X20456Y15478D01*
X20450Y15400D01*
X20456Y15321D01*
X20477Y15246D01*
X20510Y15175D01*
X20555Y15110D01*
X20610Y15055D01*
X20675Y15010D01*
X20746Y14977D01*
X20821Y14956D01*
X20900Y14950D01*
Y7882D01*
X20852Y7895D01*
X20800Y7900D01*
X20747Y7895D01*
X20697Y7881D01*
X20650Y7859D01*
X20607Y7829D01*
X20570Y7792D01*
X20540Y7750D01*
X20518Y7702D01*
X20504Y7652D01*
X20500Y7600D01*
X20504Y7547D01*
X20518Y7497D01*
X20540Y7450D01*
X20570Y7407D01*
X20607Y7370D01*
X20650Y7340D01*
X20697Y7318D01*
X20747Y7304D01*
X20800Y7300D01*
X20852Y7304D01*
X20900Y7317D01*
Y300D01*
X20336D01*
Y8234D01*
X20343Y8227D01*
X20359Y8250D01*
X20381Y8297D01*
X20395Y8347D01*
X20400Y8400D01*
X20395Y8452D01*
X20381Y8502D01*
X20359Y8550D01*
X20343Y8573D01*
X20336Y8565D01*
Y12716D01*
X20359Y12750D01*
X20381Y12797D01*
X20395Y12847D01*
X20400Y12900D01*
X20395Y12952D01*
X20381Y13002D01*
X20359Y13050D01*
X20336Y13083D01*
Y15295D01*
X20343Y15321D01*
X20350Y15400D01*
X20343Y15478D01*
X20336Y15504D01*
Y16295D01*
X20343Y16321D01*
X20350Y16400D01*
X20343Y16478D01*
X20336Y16504D01*
Y24700D01*
G37*
G36*
X20900D02*X21117D01*
Y16793D01*
X21053Y16822D01*
X20978Y16843D01*
X20900Y16850D01*
Y24700D01*
G37*
G36*
X21117Y300D02*X20900D01*
Y7317D01*
X20902Y7318D01*
X20950Y7340D01*
X20992Y7370D01*
X21029Y7407D01*
X21059Y7450D01*
X21081Y7497D01*
X21095Y7547D01*
X21100Y7600D01*
X21095Y7652D01*
X21081Y7702D01*
X21059Y7750D01*
X21029Y7792D01*
X20992Y7829D01*
X20950Y7859D01*
X20902Y7881D01*
X20900Y7882D01*
Y14950D01*
X20978Y14956D01*
X21053Y14977D01*
X21117Y15006D01*
Y3552D01*
X21080Y3500D01*
X21036Y3405D01*
X21009Y3304D01*
X21000Y3200D01*
X21009Y3095D01*
X21036Y2994D01*
X21080Y2900D01*
X21117Y2847D01*
Y1552D01*
X21080Y1500D01*
X21036Y1405D01*
X21009Y1304D01*
X21000Y1200D01*
X21009Y1095D01*
X21036Y994D01*
X21080Y900D01*
X21117Y847D01*
Y300D01*
G37*
G36*
Y15793D02*X21053Y15822D01*
X20978Y15843D01*
X20900Y15850D01*
Y15950D01*
X20978Y15956D01*
X21053Y15977D01*
X21117Y16006D01*
Y15793D01*
G37*
G36*
Y24700D02*X21463D01*
Y16504D01*
X21456Y16478D01*
X21450Y16400D01*
X21456Y16321D01*
X21463Y16295D01*
Y15504D01*
X21456Y15478D01*
X21450Y15400D01*
X21456Y15321D01*
X21463Y15295D01*
Y12465D01*
X21456Y12473D01*
X21440Y12450D01*
X21418Y12402D01*
X21404Y12352D01*
X21400Y12300D01*
X21404Y12247D01*
X21418Y12197D01*
X21440Y12150D01*
X21456Y12127D01*
X21463Y12134D01*
Y7765D01*
X21456Y7773D01*
X21440Y7750D01*
X21418Y7702D01*
X21404Y7652D01*
X21400Y7600D01*
X21404Y7547D01*
X21418Y7497D01*
X21440Y7450D01*
X21456Y7427D01*
X21463Y7434D01*
Y3782D01*
X21394Y3763D01*
X21300Y3719D01*
X21233Y3672D01*
X21340Y3565D01*
X21375Y3589D01*
X21446Y3622D01*
X21463Y3627D01*
Y2772D01*
X21446Y2777D01*
X21375Y2810D01*
X21340Y2834D01*
X21233Y2727D01*
X21300Y2680D01*
X21394Y2636D01*
X21463Y2617D01*
Y1782D01*
X21394Y1763D01*
X21300Y1719D01*
X21233Y1672D01*
X21340Y1565D01*
X21375Y1589D01*
X21446Y1622D01*
X21463Y1627D01*
Y772D01*
X21446Y777D01*
X21375Y810D01*
X21340Y834D01*
X21233Y727D01*
X21300Y680D01*
X21394Y636D01*
X21463Y617D01*
Y300D01*
X21117D01*
Y847D01*
X21127Y833D01*
X21234Y940D01*
X21210Y975D01*
X21177Y1046D01*
X21156Y1121D01*
X21150Y1200D01*
X21156Y1278D01*
X21177Y1353D01*
X21210Y1425D01*
X21234Y1459D01*
X21127Y1566D01*
X21117Y1552D01*
Y2847D01*
X21127Y2833D01*
X21234Y2940D01*
X21210Y2975D01*
X21177Y3046D01*
X21156Y3121D01*
X21150Y3200D01*
X21156Y3278D01*
X21177Y3353D01*
X21210Y3425D01*
X21234Y3459D01*
X21127Y3566D01*
X21117Y3552D01*
Y15006D01*
X21125Y15010D01*
X21189Y15055D01*
X21244Y15110D01*
X21289Y15175D01*
X21322Y15246D01*
X21343Y15321D01*
X21350Y15400D01*
X21343Y15478D01*
X21322Y15553D01*
X21289Y15625D01*
X21244Y15689D01*
X21189Y15744D01*
X21125Y15789D01*
X21117Y15793D01*
Y16006D01*
X21125Y16010D01*
X21189Y16055D01*
X21244Y16110D01*
X21289Y16175D01*
X21322Y16246D01*
X21343Y16321D01*
X21350Y16400D01*
X21343Y16478D01*
X21322Y16553D01*
X21289Y16625D01*
X21244Y16689D01*
X21189Y16744D01*
X21125Y16789D01*
X21117Y16793D01*
Y24700D01*
G37*
G36*
X21463D02*X21700D01*
Y16801D01*
X21675Y16789D01*
X21610Y16744D01*
X21555Y16689D01*
X21510Y16625D01*
X21477Y16553D01*
X21463Y16504D01*
Y24700D01*
G37*
G36*
Y16295D02*X21477Y16246D01*
X21510Y16175D01*
X21555Y16110D01*
X21610Y16055D01*
X21675Y16010D01*
X21700Y15998D01*
Y15801D01*
X21675Y15789D01*
X21610Y15744D01*
X21555Y15689D01*
X21510Y15625D01*
X21477Y15553D01*
X21463Y15504D01*
Y16295D01*
G37*
G36*
Y15295D02*X21477Y15246D01*
X21510Y15175D01*
X21555Y15110D01*
X21610Y15055D01*
X21675Y15010D01*
X21700Y14998D01*
Y12600D01*
X21647Y12595D01*
X21597Y12581D01*
X21550Y12559D01*
X21527Y12543D01*
X21598Y12472D01*
X21600Y12473D01*
X21631Y12487D01*
X21665Y12497D01*
X21700Y12500D01*
Y12100D01*
X21665Y12103D01*
X21631Y12112D01*
X21600Y12126D01*
X21598Y12127D01*
X21527Y12056D01*
X21550Y12040D01*
X21597Y12018D01*
X21647Y12004D01*
X21700Y12000D01*
Y7900D01*
X21647Y7895D01*
X21597Y7881D01*
X21550Y7859D01*
X21527Y7843D01*
X21598Y7772D01*
X21600Y7773D01*
X21631Y7787D01*
X21665Y7797D01*
X21700Y7800D01*
Y7400D01*
X21665Y7403D01*
X21631Y7412D01*
X21600Y7426D01*
X21598Y7427D01*
X21527Y7356D01*
X21550Y7340D01*
X21597Y7318D01*
X21647Y7304D01*
X21700Y7300D01*
Y3791D01*
X21600Y3800D01*
X21495Y3790D01*
X21463Y3782D01*
Y7434D01*
X21527Y7498D01*
X21526Y7500D01*
X21512Y7531D01*
X21503Y7565D01*
X21500Y7600D01*
X21503Y7634D01*
X21512Y7668D01*
X21526Y7700D01*
X21527Y7701D01*
X21463Y7765D01*
Y12134D01*
X21527Y12198D01*
X21526Y12200D01*
X21512Y12231D01*
X21503Y12265D01*
X21500Y12300D01*
X21503Y12334D01*
X21512Y12368D01*
X21526Y12400D01*
X21527Y12401D01*
X21463Y12465D01*
Y15295D01*
G37*
G36*
Y3627D02*X21521Y3643D01*
X21600Y3650D01*
X21678Y3643D01*
X21700Y3637D01*
Y2762D01*
X21678Y2756D01*
X21600Y2750D01*
X21521Y2756D01*
X21463Y2772D01*
Y3627D01*
G37*
G36*
Y2617D02*X21495Y2609D01*
X21600Y2600D01*
X21700Y2608D01*
Y1791D01*
X21600Y1800D01*
X21495Y1790D01*
X21463Y1782D01*
Y2617D01*
G37*
G36*
Y1627D02*X21521Y1643D01*
X21600Y1650D01*
X21678Y1643D01*
X21700Y1637D01*
Y762D01*
X21678Y756D01*
X21600Y750D01*
X21521Y756D01*
X21463Y772D01*
Y1627D01*
G37*
G36*
Y617D02*X21495Y609D01*
X21600Y600D01*
X21700Y608D01*
Y300D01*
X21463D01*
Y617D01*
G37*
G36*
X21700Y24700D02*X21936D01*
Y16846D01*
X21900Y16850D01*
X21821Y16843D01*
X21746Y16822D01*
X21700Y16801D01*
Y24700D01*
G37*
G36*
Y15998D02*X21746Y15977D01*
X21821Y15956D01*
X21900Y15950D01*
X21936Y15953D01*
Y15846D01*
X21900Y15850D01*
X21821Y15843D01*
X21746Y15822D01*
X21700Y15801D01*
Y15998D01*
G37*
G36*
Y14998D02*X21746Y14977D01*
X21821Y14956D01*
X21900Y14950D01*
X21936Y14953D01*
Y12465D01*
X21872Y12401D01*
X21873Y12400D01*
X21887Y12368D01*
X21897Y12334D01*
X21900Y12300D01*
X21897Y12265D01*
X21887Y12231D01*
X21873Y12200D01*
X21872Y12198D01*
X21936Y12134D01*
Y10439D01*
X21920Y10379D01*
X21913Y10300D01*
X21920Y10220D01*
X21936Y10161D01*
Y7765D01*
X21872Y7701D01*
X21873Y7700D01*
X21887Y7668D01*
X21897Y7634D01*
X21900Y7600D01*
X21897Y7565D01*
X21887Y7531D01*
X21873Y7500D01*
X21872Y7498D01*
X21936Y7434D01*
Y3694D01*
X21900Y3719D01*
X21805Y3763D01*
X21704Y3790D01*
X21700Y3791D01*
Y7300D01*
X21752Y7304D01*
X21802Y7318D01*
X21850Y7340D01*
X21873Y7356D01*
X21801Y7427D01*
X21800Y7426D01*
X21768Y7412D01*
X21734Y7403D01*
X21700Y7400D01*
Y7800D01*
X21734Y7797D01*
X21768Y7787D01*
X21800Y7773D01*
X21801Y7772D01*
X21873Y7843D01*
X21850Y7859D01*
X21802Y7881D01*
X21752Y7895D01*
X21700Y7900D01*
Y12000D01*
X21752Y12004D01*
X21802Y12018D01*
X21850Y12040D01*
X21873Y12056D01*
X21801Y12127D01*
X21800Y12126D01*
X21768Y12112D01*
X21734Y12103D01*
X21700Y12100D01*
Y12500D01*
X21734Y12497D01*
X21768Y12487D01*
X21800Y12473D01*
X21801Y12472D01*
X21873Y12543D01*
X21850Y12559D01*
X21802Y12581D01*
X21752Y12595D01*
X21700Y12600D01*
Y14998D01*
G37*
G36*
Y3637D02*X21753Y3622D01*
X21825Y3589D01*
X21859Y3565D01*
X21936Y3642D01*
Y2757D01*
X21859Y2834D01*
X21825Y2810D01*
X21753Y2777D01*
X21700Y2762D01*
Y3637D01*
G37*
G36*
Y2608D02*X21704Y2609D01*
X21805Y2636D01*
X21900Y2680D01*
X21936Y2705D01*
Y1694D01*
X21900Y1719D01*
X21805Y1763D01*
X21704Y1790D01*
X21700Y1791D01*
Y2608D01*
G37*
G36*
Y1637D02*X21753Y1622D01*
X21825Y1589D01*
X21859Y1565D01*
X21936Y1642D01*
Y757D01*
X21859Y834D01*
X21825Y810D01*
X21753Y777D01*
X21700Y762D01*
Y1637D01*
G37*
G36*
Y608D02*X21704Y609D01*
X21805Y636D01*
X21900Y680D01*
X21936Y705D01*
Y300D01*
X21700D01*
Y608D01*
G37*
G36*
X21936Y24700D02*X22600D01*
Y16593D01*
X22534Y16659D01*
X22510Y16625D01*
X22477Y16553D01*
X22456Y16478D01*
X22450Y16400D01*
X22456Y16321D01*
X22477Y16246D01*
X22510Y16175D01*
X22534Y16140D01*
X22600Y16206D01*
Y15593D01*
X22534Y15659D01*
X22510Y15625D01*
X22477Y15553D01*
X22456Y15478D01*
X22450Y15400D01*
X22456Y15321D01*
X22477Y15246D01*
X22510Y15175D01*
X22534Y15140D01*
X22600Y15206D01*
Y10699D01*
X22530Y10732D01*
X22453Y10753D01*
X22373Y10760D01*
X22293Y10753D01*
X22216Y10732D01*
X22143Y10698D01*
X22077Y10652D01*
X22020Y10595D01*
X21974Y10530D01*
X21941Y10457D01*
X21936Y10439D01*
Y12134D01*
X21943Y12127D01*
X21959Y12150D01*
X21981Y12197D01*
X21995Y12247D01*
X22000Y12300D01*
X21995Y12352D01*
X21981Y12402D01*
X21959Y12450D01*
X21943Y12473D01*
X21936Y12465D01*
Y14953D01*
X21978Y14956D01*
X22053Y14977D01*
X22125Y15010D01*
X22189Y15055D01*
X22244Y15110D01*
X22289Y15175D01*
X22322Y15246D01*
X22343Y15321D01*
X22350Y15400D01*
X22343Y15478D01*
X22322Y15553D01*
X22289Y15625D01*
X22244Y15689D01*
X22189Y15744D01*
X22125Y15789D01*
X22053Y15822D01*
X21978Y15843D01*
X21936Y15846D01*
Y15953D01*
X21978Y15956D01*
X22053Y15977D01*
X22125Y16010D01*
X22189Y16055D01*
X22244Y16110D01*
X22289Y16175D01*
X22322Y16246D01*
X22343Y16321D01*
X22350Y16400D01*
X22343Y16478D01*
X22322Y16553D01*
X22289Y16625D01*
X22244Y16689D01*
X22189Y16744D01*
X22125Y16789D01*
X22053Y16822D01*
X21978Y16843D01*
X21936Y16846D01*
Y24700D01*
G37*
G36*
Y10161D02*X21941Y10142D01*
X21974Y10070D01*
X22020Y10004D01*
X22077Y9947D01*
X22082Y9944D01*
Y7305D01*
X22070Y7292D01*
X22040Y7250D01*
X22018Y7202D01*
X22004Y7152D01*
X22000Y7100D01*
X22004Y7047D01*
X22018Y6997D01*
X22040Y6950D01*
X22070Y6907D01*
X22082Y6894D01*
Y3552D01*
X22072Y3566D01*
X21965Y3459D01*
X21989Y3425D01*
X22022Y3353D01*
X22043Y3278D01*
X22050Y3200D01*
X22043Y3121D01*
X22022Y3046D01*
X21989Y2975D01*
X21965Y2940D01*
X22072Y2833D01*
X22082Y2847D01*
Y2503D01*
X22080Y2500D01*
X22036Y2405D01*
X22009Y2304D01*
X22000Y2200D01*
X22009Y2095D01*
X22036Y1994D01*
X22080Y1900D01*
X22082Y1896D01*
Y1552D01*
X22072Y1566D01*
X21965Y1459D01*
X21989Y1425D01*
X22022Y1353D01*
X22043Y1278D01*
X22050Y1200D01*
X22043Y1121D01*
X22022Y1046D01*
X21989Y975D01*
X21965Y940D01*
X22072Y833D01*
X22082Y847D01*
Y300D01*
X21936D01*
Y705D01*
X21966Y727D01*
X21936Y757D01*
Y1642D01*
X21966Y1672D01*
X21936Y1694D01*
Y2705D01*
X21966Y2727D01*
X21936Y2757D01*
Y3642D01*
X21966Y3672D01*
X21936Y3694D01*
Y7434D01*
X21943Y7427D01*
X21959Y7450D01*
X21981Y7497D01*
X21995Y7547D01*
X22000Y7600D01*
X21995Y7652D01*
X21981Y7702D01*
X21959Y7750D01*
X21943Y7773D01*
X21936Y7765D01*
Y10161D01*
G37*
G36*
X22082Y9944D02*X22143Y9901D01*
X22216Y9867D01*
X22293Y9847D01*
X22373Y9840D01*
X22453Y9847D01*
X22530Y9867D01*
X22600Y9900D01*
Y7100D01*
X22595Y7152D01*
X22581Y7202D01*
X22559Y7250D01*
X22529Y7292D01*
X22492Y7329D01*
X22450Y7359D01*
X22402Y7381D01*
X22352Y7395D01*
X22300Y7400D01*
X22247Y7395D01*
X22197Y7381D01*
X22150Y7359D01*
X22107Y7329D01*
X22082Y7305D01*
Y9944D01*
G37*
G36*
Y6894D02*X22107Y6870D01*
X22150Y6840D01*
X22197Y6818D01*
X22247Y6804D01*
X22300Y6800D01*
X22352Y6804D01*
X22402Y6818D01*
X22450Y6840D01*
X22492Y6870D01*
X22529Y6907D01*
X22559Y6950D01*
X22581Y6997D01*
X22595Y7047D01*
X22600Y7100D01*
Y2800D01*
X22495Y2790D01*
X22394Y2763D01*
X22300Y2719D01*
X22214Y2659D01*
X22140Y2585D01*
X22082Y2503D01*
Y2847D01*
X22119Y2900D01*
X22163Y2994D01*
X22190Y3095D01*
X22200Y3200D01*
X22190Y3304D01*
X22163Y3405D01*
X22119Y3500D01*
X22082Y3552D01*
Y6894D01*
G37*
G36*
Y1896D02*X22140Y1814D01*
X22214Y1740D01*
X22300Y1680D01*
X22394Y1636D01*
X22495Y1609D01*
X22600Y1600D01*
Y300D01*
X22082D01*
Y847D01*
X22119Y900D01*
X22163Y994D01*
X22190Y1095D01*
X22200Y1200D01*
X22190Y1304D01*
X22163Y1405D01*
X22119Y1500D01*
X22082Y1552D01*
Y1896D01*
G37*
G36*
X22600Y24700D02*X22900D01*
Y16850D01*
X22821Y16843D01*
X22746Y16822D01*
X22675Y16789D01*
X22640Y16765D01*
X22747Y16658D01*
X22750Y16659D01*
X22797Y16681D01*
X22847Y16695D01*
X22900Y16700D01*
Y16100D01*
X22847Y16104D01*
X22797Y16118D01*
X22750Y16140D01*
X22747Y16141D01*
X22640Y16034D01*
X22675Y16010D01*
X22746Y15977D01*
X22821Y15956D01*
X22900Y15950D01*
Y15850D01*
X22821Y15843D01*
X22746Y15822D01*
X22675Y15789D01*
X22640Y15765D01*
X22747Y15658D01*
X22750Y15659D01*
X22797Y15681D01*
X22847Y15695D01*
X22900Y15700D01*
Y15100D01*
X22847Y15104D01*
X22797Y15118D01*
X22750Y15140D01*
X22747Y15141D01*
X22640Y15034D01*
X22675Y15010D01*
X22746Y14977D01*
X22821Y14956D01*
X22900Y14950D01*
Y2719D01*
X22805Y2763D01*
X22704Y2790D01*
X22600Y2800D01*
Y9900D01*
X22603Y9901D01*
X22669Y9947D01*
X22725Y10004D01*
X22771Y10070D01*
X22805Y10142D01*
X22826Y10220D01*
X22833Y10300D01*
X22826Y10379D01*
X22805Y10457D01*
X22771Y10530D01*
X22725Y10595D01*
X22669Y10652D01*
X22603Y10698D01*
X22600Y10699D01*
Y15206D01*
X22641Y15247D01*
X22640Y15250D01*
X22618Y15297D01*
X22604Y15347D01*
X22600Y15400D01*
X22604Y15452D01*
X22618Y15502D01*
X22640Y15550D01*
X22641Y15552D01*
X22600Y15593D01*
Y16206D01*
X22641Y16247D01*
X22640Y16250D01*
X22618Y16297D01*
X22604Y16347D01*
X22600Y16400D01*
X22604Y16452D01*
X22618Y16502D01*
X22640Y16550D01*
X22641Y16552D01*
X22600Y16593D01*
Y24700D01*
G37*
G36*
X22900Y300D02*X22600D01*
Y1600D01*
X22704Y1609D01*
X22805Y1636D01*
X22900Y1680D01*
Y300D01*
G37*
G36*
Y24700D02*X23117D01*
Y16793D01*
X23053Y16822D01*
X22978Y16843D01*
X22900Y16850D01*
Y24700D01*
G37*
G36*
X23117Y300D02*X22900D01*
Y1680D01*
X22985Y1740D01*
X23059Y1814D01*
X23117Y1896D01*
Y1552D01*
X23080Y1500D01*
X23036Y1405D01*
X23009Y1304D01*
X23000Y1200D01*
X23009Y1095D01*
X23036Y994D01*
X23080Y900D01*
X23117Y847D01*
Y300D01*
G37*
G36*
Y2503D02*X23059Y2585D01*
X22985Y2659D01*
X22900Y2719D01*
Y14950D01*
X22978Y14956D01*
X23053Y14977D01*
X23117Y15006D01*
Y3552D01*
X23080Y3500D01*
X23036Y3405D01*
X23009Y3304D01*
X23000Y3200D01*
X23009Y3095D01*
X23036Y2994D01*
X23080Y2900D01*
X23117Y2847D01*
Y2503D01*
G37*
G36*
Y15076D02*X23052Y15141D01*
X23050Y15140D01*
X23002Y15118D01*
X22952Y15104D01*
X22900Y15100D01*
Y15700D01*
X22952Y15695D01*
X23002Y15681D01*
X23050Y15659D01*
X23052Y15658D01*
X23117Y15723D01*
Y15076D01*
G37*
G36*
Y15793D02*X23053Y15822D01*
X22978Y15843D01*
X22900Y15850D01*
Y15950D01*
X22978Y15956D01*
X23053Y15977D01*
X23117Y16006D01*
Y15793D01*
G37*
G36*
Y16076D02*X23052Y16141D01*
X23050Y16140D01*
X23002Y16118D01*
X22952Y16104D01*
X22900Y16100D01*
Y16700D01*
X22952Y16695D01*
X23002Y16681D01*
X23050Y16659D01*
X23052Y16658D01*
X23117Y16723D01*
Y16076D01*
G37*
G36*
Y24700D02*X23254D01*
Y16648D01*
X23158Y16552D01*
X23159Y16550D01*
X23181Y16502D01*
X23195Y16452D01*
X23200Y16400D01*
X23195Y16347D01*
X23181Y16297D01*
X23159Y16250D01*
X23158Y16247D01*
X23254Y16151D01*
Y15648D01*
X23158Y15552D01*
X23159Y15550D01*
X23181Y15502D01*
X23195Y15452D01*
X23200Y15400D01*
X23195Y15347D01*
X23181Y15297D01*
X23159Y15250D01*
X23158Y15247D01*
X23254Y15151D01*
Y3687D01*
X23233Y3672D01*
X23254Y3651D01*
Y2748D01*
X23233Y2727D01*
X23254Y2712D01*
Y1687D01*
X23233Y1672D01*
X23254Y1651D01*
Y748D01*
X23233Y727D01*
X23254Y712D01*
Y300D01*
X23117D01*
Y847D01*
X23127Y833D01*
X23234Y940D01*
X23210Y975D01*
X23177Y1046D01*
X23156Y1121D01*
X23150Y1200D01*
X23156Y1278D01*
X23177Y1353D01*
X23210Y1425D01*
X23234Y1459D01*
X23127Y1566D01*
X23117Y1552D01*
Y1896D01*
X23119Y1900D01*
X23163Y1994D01*
X23190Y2095D01*
X23200Y2200D01*
X23190Y2304D01*
X23163Y2405D01*
X23119Y2500D01*
X23117Y2503D01*
Y2847D01*
X23127Y2833D01*
X23234Y2940D01*
X23210Y2975D01*
X23177Y3046D01*
X23156Y3121D01*
X23150Y3200D01*
X23156Y3278D01*
X23177Y3353D01*
X23210Y3425D01*
X23234Y3459D01*
X23127Y3566D01*
X23117Y3552D01*
Y15006D01*
X23125Y15010D01*
X23159Y15034D01*
X23117Y15076D01*
Y15723D01*
X23159Y15765D01*
X23125Y15789D01*
X23117Y15793D01*
Y16006D01*
X23125Y16010D01*
X23159Y16034D01*
X23117Y16076D01*
Y16723D01*
X23159Y16765D01*
X23125Y16789D01*
X23117Y16793D01*
Y24700D01*
G37*
G36*
X23254D02*X24082D01*
Y3552D01*
X24072Y3566D01*
X23965Y3459D01*
X23989Y3425D01*
X24022Y3353D01*
X24043Y3278D01*
X24050Y3200D01*
X24043Y3121D01*
X24022Y3046D01*
X23989Y2975D01*
X23965Y2940D01*
X24072Y2833D01*
X24082Y2847D01*
Y1552D01*
X24072Y1566D01*
X23965Y1459D01*
X23989Y1425D01*
X24022Y1353D01*
X24043Y1278D01*
X24050Y1200D01*
X24043Y1121D01*
X24022Y1046D01*
X23989Y975D01*
X23965Y940D01*
X24072Y833D01*
X24082Y847D01*
Y300D01*
X23254D01*
Y712D01*
X23300Y680D01*
X23394Y636D01*
X23495Y609D01*
X23600Y600D01*
X23704Y609D01*
X23805Y636D01*
X23900Y680D01*
X23966Y727D01*
X23859Y834D01*
X23825Y810D01*
X23753Y777D01*
X23678Y756D01*
X23600Y750D01*
X23521Y756D01*
X23446Y777D01*
X23375Y810D01*
X23340Y834D01*
X23254Y748D01*
Y1651D01*
X23340Y1565D01*
X23375Y1589D01*
X23446Y1622D01*
X23521Y1643D01*
X23600Y1650D01*
X23678Y1643D01*
X23753Y1622D01*
X23825Y1589D01*
X23859Y1565D01*
X23966Y1672D01*
X23900Y1719D01*
X23805Y1763D01*
X23704Y1790D01*
X23600Y1800D01*
X23495Y1790D01*
X23394Y1763D01*
X23300Y1719D01*
X23254Y1687D01*
Y2712D01*
X23300Y2680D01*
X23394Y2636D01*
X23495Y2609D01*
X23600Y2600D01*
X23704Y2609D01*
X23805Y2636D01*
X23900Y2680D01*
X23966Y2727D01*
X23859Y2834D01*
X23825Y2810D01*
X23753Y2777D01*
X23678Y2756D01*
X23600Y2750D01*
X23521Y2756D01*
X23446Y2777D01*
X23375Y2810D01*
X23340Y2834D01*
X23254Y2748D01*
Y3651D01*
X23340Y3565D01*
X23375Y3589D01*
X23446Y3622D01*
X23521Y3643D01*
X23600Y3650D01*
X23678Y3643D01*
X23753Y3622D01*
X23825Y3589D01*
X23859Y3565D01*
X23966Y3672D01*
X23900Y3719D01*
X23805Y3763D01*
X23704Y3790D01*
X23600Y3800D01*
X23495Y3790D01*
X23394Y3763D01*
X23300Y3719D01*
X23254Y3687D01*
Y15151D01*
X23265Y15140D01*
X23289Y15175D01*
X23322Y15246D01*
X23343Y15321D01*
X23350Y15400D01*
X23343Y15478D01*
X23322Y15553D01*
X23289Y15625D01*
X23265Y15659D01*
X23254Y15648D01*
Y16151D01*
X23265Y16140D01*
X23289Y16175D01*
X23322Y16246D01*
X23343Y16321D01*
X23350Y16400D01*
X23343Y16478D01*
X23322Y16553D01*
X23289Y16625D01*
X23265Y16659D01*
X23254Y16648D01*
Y24700D01*
G37*
G36*
X24082D02*X26000D01*
Y24260D01*
X25868Y24248D01*
X25740Y24214D01*
X25620Y24158D01*
X25511Y24082D01*
X25417Y23988D01*
X25341Y23880D01*
X25285Y23759D01*
X25251Y23632D01*
X25240Y23500D01*
X25251Y23368D01*
X25285Y23240D01*
X25341Y23120D01*
X25417Y23011D01*
X25511Y22917D01*
X25620Y22841D01*
X25740Y22785D01*
X25868Y22751D01*
X26000Y22740D01*
Y2260D01*
X25868Y2248D01*
X25740Y2214D01*
X25620Y2158D01*
X25511Y2082D01*
X25417Y1988D01*
X25341Y1880D01*
X25285Y1759D01*
X25251Y1632D01*
X25240Y1500D01*
X25251Y1368D01*
X25285Y1240D01*
X25341Y1120D01*
X25417Y1011D01*
X25511Y917D01*
X25620Y841D01*
X25740Y785D01*
X25868Y751D01*
X26000Y740D01*
Y300D01*
X24082D01*
Y847D01*
X24119Y900D01*
X24163Y994D01*
X24190Y1095D01*
X24200Y1200D01*
X24190Y1304D01*
X24163Y1405D01*
X24119Y1500D01*
X24082Y1552D01*
Y2847D01*
X24119Y2900D01*
X24163Y2994D01*
X24190Y3095D01*
X24200Y3200D01*
X24190Y3304D01*
X24163Y3405D01*
X24119Y3500D01*
X24082Y3552D01*
Y24700D01*
G37*
G36*
X26000D02*X27200D01*
Y300D01*
X26000D01*
Y740D01*
X26132Y751D01*
X26259Y785D01*
X26380Y841D01*
X26488Y917D01*
X26582Y1011D01*
X26658Y1120D01*
X26714Y1240D01*
X26748Y1368D01*
X26760Y1500D01*
X26748Y1632D01*
X26714Y1759D01*
X26658Y1880D01*
X26582Y1988D01*
X26488Y2082D01*
X26380Y2158D01*
X26259Y2214D01*
X26132Y2248D01*
X26000Y2260D01*
Y22740D01*
X26132Y22751D01*
X26259Y22785D01*
X26380Y22841D01*
X26488Y22917D01*
X26582Y23011D01*
X26658Y23120D01*
X26714Y23240D01*
X26748Y23368D01*
X26760Y23500D01*
X26748Y23632D01*
X26714Y23759D01*
X26658Y23880D01*
X26582Y23988D01*
X26488Y24082D01*
X26380Y24158D01*
X26259Y24214D01*
X26132Y24248D01*
X26000Y24260D01*
Y24700D01*
G37*
G36*
X900Y4200D02*X600D01*
X604Y4252D01*
X618Y4302D01*
X640Y4350D01*
X641Y4352D01*
X534Y4459D01*
X510Y4425D01*
X500Y4402D01*
Y4997D01*
X510Y4975D01*
X534Y4940D01*
X641Y5047D01*
X640Y5050D01*
X618Y5097D01*
X604Y5147D01*
X600Y5200D01*
X604Y5252D01*
X618Y5302D01*
X640Y5350D01*
X641Y5352D01*
X534Y5459D01*
X510Y5425D01*
X500Y5402D01*
Y5997D01*
X510Y5975D01*
X534Y5940D01*
X641Y6047D01*
X640Y6050D01*
X618Y6097D01*
X604Y6147D01*
X600Y6200D01*
X604Y6252D01*
X618Y6302D01*
X640Y6350D01*
X641Y6352D01*
X534Y6459D01*
X510Y6425D01*
X500Y6402D01*
Y6997D01*
X510Y6975D01*
X534Y6940D01*
X641Y7047D01*
X640Y7050D01*
X618Y7097D01*
X604Y7147D01*
X600Y7200D01*
X604Y7252D01*
X618Y7302D01*
X640Y7350D01*
X641Y7352D01*
X534Y7459D01*
X510Y7425D01*
X500Y7402D01*
Y7997D01*
X510Y7975D01*
X534Y7940D01*
X641Y8047D01*
X640Y8050D01*
X618Y8097D01*
X604Y8147D01*
X600Y8200D01*
X604Y8252D01*
X618Y8302D01*
X640Y8350D01*
X641Y8352D01*
X534Y8459D01*
X510Y8425D01*
X500Y8402D01*
Y11097D01*
X510Y11075D01*
X534Y11040D01*
X641Y11147D01*
X640Y11150D01*
X618Y11197D01*
X604Y11247D01*
X600Y11300D01*
X604Y11352D01*
X618Y11402D01*
X640Y11450D01*
X641Y11452D01*
X534Y11559D01*
X510Y11525D01*
X500Y11502D01*
Y12097D01*
X510Y12075D01*
X534Y12040D01*
X641Y12147D01*
X640Y12150D01*
X618Y12197D01*
X604Y12247D01*
X600Y12300D01*
X604Y12352D01*
X618Y12402D01*
X640Y12450D01*
X641Y12452D01*
X534Y12559D01*
X510Y12525D01*
X500Y12502D01*
Y13097D01*
X510Y13075D01*
X534Y13040D01*
X641Y13147D01*
X640Y13150D01*
X618Y13197D01*
X604Y13247D01*
X600Y13300D01*
X604Y13352D01*
X618Y13402D01*
X640Y13450D01*
X641Y13452D01*
X534Y13559D01*
X510Y13525D01*
X500Y13502D01*
Y14097D01*
X510Y14075D01*
X534Y14040D01*
X641Y14147D01*
X640Y14150D01*
X618Y14197D01*
X604Y14247D01*
X600Y14300D01*
X604Y14352D01*
X618Y14402D01*
X640Y14450D01*
X641Y14452D01*
X534Y14559D01*
X510Y14525D01*
X500Y14502D01*
Y15097D01*
X510Y15075D01*
X534Y15040D01*
X641Y15147D01*
X640Y15150D01*
X618Y15197D01*
X604Y15247D01*
X600Y15300D01*
X604Y15352D01*
X618Y15402D01*
X640Y15450D01*
X641Y15452D01*
X534Y15559D01*
X510Y15525D01*
X500Y15502D01*
Y16097D01*
X510Y16075D01*
X534Y16040D01*
X641Y16147D01*
X640Y16150D01*
X618Y16197D01*
X604Y16247D01*
X600Y16300D01*
X604Y16352D01*
X618Y16402D01*
X640Y16450D01*
X641Y16452D01*
X534Y16559D01*
X510Y16525D01*
X500Y16502D01*
Y17097D01*
X510Y17075D01*
X534Y17040D01*
X641Y17147D01*
X640Y17150D01*
X618Y17197D01*
X604Y17247D01*
X600Y17300D01*
X604Y17352D01*
X618Y17402D01*
X640Y17450D01*
X641Y17452D01*
X534Y17559D01*
X510Y17525D01*
X500Y17502D01*
Y18097D01*
X510Y18075D01*
X534Y18040D01*
X641Y18147D01*
X640Y18150D01*
X618Y18197D01*
X604Y18247D01*
X600Y18300D01*
X604Y18352D01*
X618Y18402D01*
X640Y18450D01*
X641Y18452D01*
X534Y18559D01*
X510Y18525D01*
X500Y18502D01*
Y24700D01*
X900D01*
Y23963D01*
X841Y23880D01*
X785Y23759D01*
X751Y23632D01*
X740Y23500D01*
X751Y23368D01*
X785Y23240D01*
X841Y23120D01*
X900Y23036D01*
Y18750D01*
X821Y18743D01*
X746Y18722D01*
X675Y18689D01*
X640Y18665D01*
X747Y18558D01*
X750Y18559D01*
X797Y18581D01*
X847Y18595D01*
X900Y18600D01*
Y18000D01*
X847Y18004D01*
X797Y18018D01*
X750Y18040D01*
X747Y18041D01*
X640Y17934D01*
X675Y17910D01*
X746Y17877D01*
X821Y17856D01*
X900Y17850D01*
Y17750D01*
X821Y17743D01*
X746Y17722D01*
X675Y17689D01*
X640Y17665D01*
X747Y17558D01*
X750Y17559D01*
X797Y17581D01*
X847Y17595D01*
X900Y17600D01*
Y17000D01*
X847Y17004D01*
X797Y17018D01*
X750Y17040D01*
X747Y17041D01*
X640Y16934D01*
X675Y16910D01*
X746Y16877D01*
X821Y16856D01*
X900Y16850D01*
Y16750D01*
X821Y16743D01*
X746Y16722D01*
X675Y16689D01*
X640Y16665D01*
X747Y16558D01*
X750Y16559D01*
X797Y16581D01*
X847Y16595D01*
X900Y16600D01*
Y16000D01*
X847Y16004D01*
X797Y16018D01*
X750Y16040D01*
X747Y16041D01*
X640Y15934D01*
X675Y15910D01*
X746Y15877D01*
X821Y15856D01*
X900Y15850D01*
Y15750D01*
X821Y15743D01*
X746Y15722D01*
X675Y15689D01*
X640Y15665D01*
X747Y15558D01*
X750Y15559D01*
X797Y15581D01*
X847Y15595D01*
X900Y15600D01*
Y15000D01*
X847Y15004D01*
X797Y15018D01*
X750Y15040D01*
X747Y15041D01*
X640Y14934D01*
X675Y14910D01*
X746Y14877D01*
X821Y14856D01*
X900Y14850D01*
Y14750D01*
X821Y14743D01*
X746Y14722D01*
X675Y14689D01*
X640Y14665D01*
X747Y14558D01*
X750Y14559D01*
X797Y14581D01*
X847Y14595D01*
X900Y14600D01*
Y14000D01*
X847Y14004D01*
X797Y14018D01*
X750Y14040D01*
X747Y14041D01*
X640Y13934D01*
X675Y13910D01*
X746Y13877D01*
X821Y13856D01*
X900Y13850D01*
Y13750D01*
X821Y13743D01*
X746Y13722D01*
X675Y13689D01*
X640Y13665D01*
X747Y13558D01*
X750Y13559D01*
X797Y13581D01*
X847Y13595D01*
X900Y13600D01*
Y13000D01*
X847Y13004D01*
X797Y13018D01*
X750Y13040D01*
X747Y13041D01*
X640Y12934D01*
X675Y12910D01*
X746Y12877D01*
X821Y12856D01*
X900Y12850D01*
Y12750D01*
X821Y12743D01*
X746Y12722D01*
X675Y12689D01*
X640Y12665D01*
X747Y12558D01*
X750Y12559D01*
X797Y12581D01*
X847Y12595D01*
X900Y12600D01*
Y12000D01*
X847Y12004D01*
X797Y12018D01*
X750Y12040D01*
X747Y12041D01*
X640Y11934D01*
X675Y11910D01*
X746Y11877D01*
X821Y11856D01*
X900Y11850D01*
Y11750D01*
X821Y11743D01*
X746Y11722D01*
X675Y11689D01*
X640Y11665D01*
X747Y11558D01*
X750Y11559D01*
X797Y11581D01*
X847Y11595D01*
X900Y11600D01*
Y11000D01*
X847Y11004D01*
X797Y11018D01*
X750Y11040D01*
X747Y11041D01*
X640Y10934D01*
X675Y10910D01*
X746Y10877D01*
X821Y10856D01*
X900Y10850D01*
Y8650D01*
X821Y8643D01*
X746Y8622D01*
X675Y8589D01*
X640Y8565D01*
X747Y8458D01*
X750Y8459D01*
X797Y8481D01*
X847Y8495D01*
X900Y8500D01*
Y7900D01*
X847Y7904D01*
X797Y7918D01*
X750Y7940D01*
X747Y7941D01*
X640Y7834D01*
X675Y7810D01*
X746Y7777D01*
X821Y7756D01*
X900Y7750D01*
Y7650D01*
X821Y7643D01*
X746Y7622D01*
X675Y7589D01*
X640Y7565D01*
X747Y7458D01*
X750Y7459D01*
X797Y7481D01*
X847Y7495D01*
X900Y7500D01*
Y6900D01*
X847Y6904D01*
X797Y6918D01*
X750Y6940D01*
X747Y6941D01*
X640Y6834D01*
X675Y6810D01*
X746Y6777D01*
X821Y6756D01*
X900Y6750D01*
Y6650D01*
X821Y6643D01*
X746Y6622D01*
X675Y6589D01*
X640Y6565D01*
X747Y6458D01*
X750Y6459D01*
X797Y6481D01*
X847Y6495D01*
X900Y6500D01*
Y5900D01*
X847Y5904D01*
X797Y5918D01*
X750Y5940D01*
X747Y5941D01*
X640Y5834D01*
X675Y5810D01*
X746Y5777D01*
X821Y5756D01*
X900Y5750D01*
Y5650D01*
X821Y5643D01*
X746Y5622D01*
X675Y5589D01*
X640Y5565D01*
X747Y5458D01*
X750Y5459D01*
X797Y5481D01*
X847Y5495D01*
X900Y5500D01*
Y4900D01*
X847Y4904D01*
X797Y4918D01*
X750Y4940D01*
X747Y4941D01*
X640Y4834D01*
X675Y4810D01*
X746Y4777D01*
X821Y4756D01*
X900Y4750D01*
Y4650D01*
X821Y4643D01*
X746Y4622D01*
X675Y4589D01*
X640Y4565D01*
X747Y4458D01*
X750Y4459D01*
X797Y4481D01*
X847Y4495D01*
X900Y4500D01*
Y4200D01*
G37*
G36*
X1254Y4448D02*X1158Y4352D01*
X1159Y4350D01*
X1181Y4302D01*
X1195Y4252D01*
X1200Y4200D01*
X900D01*
Y4500D01*
X952Y4495D01*
X1002Y4481D01*
X1050Y4459D01*
X1052Y4458D01*
X1159Y4565D01*
X1125Y4589D01*
X1053Y4622D01*
X978Y4643D01*
X900Y4650D01*
Y4750D01*
X978Y4756D01*
X1053Y4777D01*
X1125Y4810D01*
X1159Y4834D01*
X1052Y4941D01*
X1050Y4940D01*
X1002Y4918D01*
X952Y4904D01*
X900Y4900D01*
Y5500D01*
X952Y5495D01*
X1002Y5481D01*
X1050Y5459D01*
X1052Y5458D01*
X1159Y5565D01*
X1125Y5589D01*
X1053Y5622D01*
X978Y5643D01*
X900Y5650D01*
Y5750D01*
X978Y5756D01*
X1053Y5777D01*
X1125Y5810D01*
X1159Y5834D01*
X1052Y5941D01*
X1050Y5940D01*
X1002Y5918D01*
X952Y5904D01*
X900Y5900D01*
Y6500D01*
X952Y6495D01*
X1002Y6481D01*
X1050Y6459D01*
X1052Y6458D01*
X1159Y6565D01*
X1125Y6589D01*
X1053Y6622D01*
X978Y6643D01*
X900Y6650D01*
Y6750D01*
X978Y6756D01*
X1053Y6777D01*
X1125Y6810D01*
X1159Y6834D01*
X1052Y6941D01*
X1050Y6940D01*
X1002Y6918D01*
X952Y6904D01*
X900Y6900D01*
Y7500D01*
X952Y7495D01*
X1002Y7481D01*
X1050Y7459D01*
X1052Y7458D01*
X1159Y7565D01*
X1125Y7589D01*
X1053Y7622D01*
X978Y7643D01*
X900Y7650D01*
Y7750D01*
X978Y7756D01*
X1053Y7777D01*
X1125Y7810D01*
X1159Y7834D01*
X1052Y7941D01*
X1050Y7940D01*
X1002Y7918D01*
X952Y7904D01*
X900Y7900D01*
Y8500D01*
X952Y8495D01*
X1002Y8481D01*
X1050Y8459D01*
X1052Y8458D01*
X1159Y8565D01*
X1125Y8589D01*
X1053Y8622D01*
X978Y8643D01*
X900Y8650D01*
Y10850D01*
X978Y10856D01*
X1053Y10877D01*
X1125Y10910D01*
X1159Y10934D01*
X1052Y11041D01*
X1050Y11040D01*
X1002Y11018D01*
X952Y11004D01*
X900Y11000D01*
Y11600D01*
X952Y11595D01*
X1002Y11581D01*
X1050Y11559D01*
X1052Y11558D01*
X1159Y11665D01*
X1125Y11689D01*
X1053Y11722D01*
X978Y11743D01*
X900Y11750D01*
Y11850D01*
X978Y11856D01*
X1053Y11877D01*
X1125Y11910D01*
X1159Y11934D01*
X1052Y12041D01*
X1050Y12040D01*
X1002Y12018D01*
X952Y12004D01*
X900Y12000D01*
Y12600D01*
X952Y12595D01*
X1002Y12581D01*
X1050Y12559D01*
X1052Y12558D01*
X1159Y12665D01*
X1125Y12689D01*
X1053Y12722D01*
X978Y12743D01*
X900Y12750D01*
Y12850D01*
X978Y12856D01*
X1053Y12877D01*
X1125Y12910D01*
X1159Y12934D01*
X1052Y13041D01*
X1050Y13040D01*
X1002Y13018D01*
X952Y13004D01*
X900Y13000D01*
Y13600D01*
X952Y13595D01*
X1002Y13581D01*
X1050Y13559D01*
X1052Y13558D01*
X1159Y13665D01*
X1125Y13689D01*
X1053Y13722D01*
X978Y13743D01*
X900Y13750D01*
Y13850D01*
X978Y13856D01*
X1053Y13877D01*
X1125Y13910D01*
X1159Y13934D01*
X1052Y14041D01*
X1050Y14040D01*
X1002Y14018D01*
X952Y14004D01*
X900Y14000D01*
Y14600D01*
X952Y14595D01*
X1002Y14581D01*
X1050Y14559D01*
X1052Y14558D01*
X1159Y14665D01*
X1125Y14689D01*
X1053Y14722D01*
X978Y14743D01*
X900Y14750D01*
Y14850D01*
X978Y14856D01*
X1053Y14877D01*
X1125Y14910D01*
X1159Y14934D01*
X1052Y15041D01*
X1050Y15040D01*
X1002Y15018D01*
X952Y15004D01*
X900Y15000D01*
Y15600D01*
X952Y15595D01*
X1002Y15581D01*
X1050Y15559D01*
X1052Y15558D01*
X1159Y15665D01*
X1125Y15689D01*
X1053Y15722D01*
X978Y15743D01*
X900Y15750D01*
Y15850D01*
X978Y15856D01*
X1053Y15877D01*
X1125Y15910D01*
X1159Y15934D01*
X1052Y16041D01*
X1050Y16040D01*
X1002Y16018D01*
X952Y16004D01*
X900Y16000D01*
Y16600D01*
X952Y16595D01*
X1002Y16581D01*
X1050Y16559D01*
X1052Y16558D01*
X1159Y16665D01*
X1125Y16689D01*
X1053Y16722D01*
X978Y16743D01*
X900Y16750D01*
Y16850D01*
X978Y16856D01*
X1053Y16877D01*
X1125Y16910D01*
X1159Y16934D01*
X1052Y17041D01*
X1050Y17040D01*
X1002Y17018D01*
X952Y17004D01*
X900Y17000D01*
Y17600D01*
X952Y17595D01*
X1002Y17581D01*
X1050Y17559D01*
X1052Y17558D01*
X1159Y17665D01*
X1125Y17689D01*
X1053Y17722D01*
X978Y17743D01*
X900Y17750D01*
Y17850D01*
X978Y17856D01*
X1053Y17877D01*
X1125Y17910D01*
X1159Y17934D01*
X1052Y18041D01*
X1050Y18040D01*
X1002Y18018D01*
X952Y18004D01*
X900Y18000D01*
Y18600D01*
X952Y18595D01*
X1002Y18581D01*
X1050Y18559D01*
X1052Y18558D01*
X1159Y18665D01*
X1125Y18689D01*
X1053Y18722D01*
X978Y18743D01*
X900Y18750D01*
Y23036D01*
X917Y23011D01*
X1011Y22917D01*
X1120Y22841D01*
X1240Y22785D01*
X1254Y22782D01*
Y18548D01*
X1158Y18452D01*
X1159Y18450D01*
X1181Y18402D01*
X1195Y18352D01*
X1200Y18300D01*
X1195Y18247D01*
X1181Y18197D01*
X1159Y18150D01*
X1158Y18147D01*
X1254Y18051D01*
Y17548D01*
X1158Y17452D01*
X1159Y17450D01*
X1181Y17402D01*
X1195Y17352D01*
X1200Y17300D01*
X1195Y17247D01*
X1181Y17197D01*
X1159Y17150D01*
X1158Y17147D01*
X1254Y17051D01*
Y16548D01*
X1158Y16452D01*
X1159Y16450D01*
X1181Y16402D01*
X1195Y16352D01*
X1200Y16300D01*
X1195Y16247D01*
X1181Y16197D01*
X1159Y16150D01*
X1158Y16147D01*
X1254Y16051D01*
Y15548D01*
X1158Y15452D01*
X1159Y15450D01*
X1181Y15402D01*
X1195Y15352D01*
X1200Y15300D01*
X1195Y15247D01*
X1181Y15197D01*
X1159Y15150D01*
X1158Y15147D01*
X1254Y15051D01*
Y14548D01*
X1158Y14452D01*
X1159Y14450D01*
X1181Y14402D01*
X1195Y14352D01*
X1200Y14300D01*
X1195Y14247D01*
X1181Y14197D01*
X1159Y14150D01*
X1158Y14147D01*
X1254Y14051D01*
Y13548D01*
X1158Y13452D01*
X1159Y13450D01*
X1181Y13402D01*
X1195Y13352D01*
X1200Y13300D01*
X1195Y13247D01*
X1181Y13197D01*
X1159Y13150D01*
X1158Y13147D01*
X1254Y13051D01*
Y12548D01*
X1158Y12452D01*
X1159Y12450D01*
X1181Y12402D01*
X1195Y12352D01*
X1200Y12300D01*
X1195Y12247D01*
X1181Y12197D01*
X1159Y12150D01*
X1158Y12147D01*
X1254Y12051D01*
Y11548D01*
X1158Y11452D01*
X1159Y11450D01*
X1181Y11402D01*
X1195Y11352D01*
X1200Y11300D01*
X1195Y11247D01*
X1181Y11197D01*
X1159Y11150D01*
X1158Y11147D01*
X1254Y11051D01*
Y8448D01*
X1158Y8352D01*
X1159Y8350D01*
X1181Y8302D01*
X1195Y8252D01*
X1200Y8200D01*
X1195Y8147D01*
X1181Y8097D01*
X1159Y8050D01*
X1158Y8047D01*
X1254Y7951D01*
Y7448D01*
X1158Y7352D01*
X1159Y7350D01*
X1181Y7302D01*
X1195Y7252D01*
X1200Y7200D01*
X1195Y7147D01*
X1181Y7097D01*
X1159Y7050D01*
X1158Y7047D01*
X1254Y6951D01*
Y6448D01*
X1158Y6352D01*
X1159Y6350D01*
X1181Y6302D01*
X1195Y6252D01*
X1200Y6200D01*
X1195Y6147D01*
X1181Y6097D01*
X1159Y6050D01*
X1158Y6047D01*
X1254Y5951D01*
Y5448D01*
X1158Y5352D01*
X1159Y5350D01*
X1181Y5302D01*
X1195Y5252D01*
X1200Y5200D01*
X1195Y5147D01*
X1181Y5097D01*
X1159Y5050D01*
X1158Y5047D01*
X1254Y4951D01*
Y4448D01*
G37*
G36*
X1900Y4650D02*X1821Y4643D01*
X1746Y4622D01*
X1675Y4589D01*
X1610Y4544D01*
X1555Y4489D01*
X1510Y4425D01*
X1477Y4353D01*
X1456Y4278D01*
X1450Y4200D01*
X1350D01*
X1343Y4278D01*
X1322Y4353D01*
X1289Y4425D01*
X1265Y4459D01*
X1254Y4448D01*
Y4951D01*
X1265Y4940D01*
X1289Y4975D01*
X1322Y5046D01*
X1343Y5121D01*
X1350Y5200D01*
X1343Y5278D01*
X1322Y5353D01*
X1289Y5425D01*
X1265Y5459D01*
X1254Y5448D01*
Y5951D01*
X1265Y5940D01*
X1289Y5975D01*
X1322Y6046D01*
X1343Y6121D01*
X1350Y6200D01*
X1343Y6278D01*
X1322Y6353D01*
X1289Y6425D01*
X1265Y6459D01*
X1254Y6448D01*
Y6951D01*
X1265Y6940D01*
X1289Y6975D01*
X1322Y7046D01*
X1343Y7121D01*
X1350Y7200D01*
X1343Y7278D01*
X1322Y7353D01*
X1289Y7425D01*
X1265Y7459D01*
X1254Y7448D01*
Y7951D01*
X1265Y7940D01*
X1289Y7975D01*
X1322Y8046D01*
X1343Y8121D01*
X1350Y8200D01*
X1343Y8278D01*
X1322Y8353D01*
X1289Y8425D01*
X1265Y8459D01*
X1254Y8448D01*
Y11051D01*
X1265Y11040D01*
X1289Y11075D01*
X1322Y11146D01*
X1343Y11221D01*
X1350Y11300D01*
X1343Y11378D01*
X1322Y11453D01*
X1289Y11525D01*
X1265Y11559D01*
X1254Y11548D01*
Y12051D01*
X1265Y12040D01*
X1289Y12075D01*
X1322Y12146D01*
X1343Y12221D01*
X1350Y12300D01*
X1343Y12378D01*
X1322Y12453D01*
X1289Y12525D01*
X1265Y12559D01*
X1254Y12548D01*
Y13051D01*
X1265Y13040D01*
X1289Y13075D01*
X1322Y13146D01*
X1343Y13221D01*
X1350Y13300D01*
X1343Y13378D01*
X1322Y13453D01*
X1289Y13525D01*
X1265Y13559D01*
X1254Y13548D01*
Y14051D01*
X1265Y14040D01*
X1289Y14075D01*
X1322Y14146D01*
X1343Y14221D01*
X1350Y14300D01*
X1343Y14378D01*
X1322Y14453D01*
X1289Y14525D01*
X1265Y14559D01*
X1254Y14548D01*
Y15051D01*
X1265Y15040D01*
X1289Y15075D01*
X1322Y15146D01*
X1343Y15221D01*
X1350Y15300D01*
X1343Y15378D01*
X1322Y15453D01*
X1289Y15525D01*
X1265Y15559D01*
X1254Y15548D01*
Y16051D01*
X1265Y16040D01*
X1289Y16075D01*
X1322Y16146D01*
X1343Y16221D01*
X1350Y16300D01*
X1343Y16378D01*
X1322Y16453D01*
X1289Y16525D01*
X1265Y16559D01*
X1254Y16548D01*
Y17051D01*
X1265Y17040D01*
X1289Y17075D01*
X1322Y17146D01*
X1343Y17221D01*
X1350Y17300D01*
X1343Y17378D01*
X1322Y17453D01*
X1289Y17525D01*
X1265Y17559D01*
X1254Y17548D01*
Y18051D01*
X1265Y18040D01*
X1289Y18075D01*
X1322Y18146D01*
X1343Y18221D01*
X1350Y18300D01*
X1343Y18378D01*
X1322Y18453D01*
X1289Y18525D01*
X1265Y18559D01*
X1254Y18548D01*
Y22782D01*
X1368Y22751D01*
X1500Y22740D01*
X1632Y22751D01*
X1759Y22785D01*
X1880Y22841D01*
X1900Y22855D01*
Y18750D01*
X1821Y18743D01*
X1746Y18722D01*
X1675Y18689D01*
X1610Y18644D01*
X1555Y18589D01*
X1510Y18525D01*
X1477Y18453D01*
X1456Y18378D01*
X1450Y18300D01*
X1456Y18221D01*
X1477Y18146D01*
X1510Y18075D01*
X1555Y18010D01*
X1610Y17955D01*
X1675Y17910D01*
X1746Y17877D01*
X1821Y17856D01*
X1900Y17850D01*
Y17750D01*
X1821Y17743D01*
X1746Y17722D01*
X1675Y17689D01*
X1610Y17644D01*
X1555Y17589D01*
X1510Y17525D01*
X1477Y17453D01*
X1456Y17378D01*
X1450Y17300D01*
X1456Y17221D01*
X1477Y17146D01*
X1510Y17075D01*
X1555Y17010D01*
X1610Y16955D01*
X1675Y16910D01*
X1746Y16877D01*
X1821Y16856D01*
X1900Y16850D01*
Y16750D01*
X1821Y16743D01*
X1746Y16722D01*
X1675Y16689D01*
X1610Y16644D01*
X1555Y16589D01*
X1510Y16525D01*
X1477Y16453D01*
X1456Y16378D01*
X1450Y16300D01*
X1456Y16221D01*
X1477Y16146D01*
X1510Y16075D01*
X1555Y16010D01*
X1610Y15955D01*
X1675Y15910D01*
X1746Y15877D01*
X1821Y15856D01*
X1900Y15850D01*
Y15750D01*
X1821Y15743D01*
X1746Y15722D01*
X1675Y15689D01*
X1610Y15644D01*
X1555Y15589D01*
X1510Y15525D01*
X1477Y15453D01*
X1456Y15378D01*
X1450Y15300D01*
X1456Y15221D01*
X1477Y15146D01*
X1510Y15075D01*
X1555Y15010D01*
X1610Y14955D01*
X1675Y14910D01*
X1746Y14877D01*
X1821Y14856D01*
X1900Y14850D01*
Y14750D01*
X1821Y14743D01*
X1746Y14722D01*
X1675Y14689D01*
X1610Y14644D01*
X1555Y14589D01*
X1510Y14525D01*
X1477Y14453D01*
X1456Y14378D01*
X1450Y14300D01*
X1456Y14221D01*
X1477Y14146D01*
X1510Y14075D01*
X1555Y14010D01*
X1610Y13955D01*
X1675Y13910D01*
X1746Y13877D01*
X1821Y13856D01*
X1900Y13850D01*
Y13750D01*
X1821Y13743D01*
X1746Y13722D01*
X1675Y13689D01*
X1610Y13644D01*
X1555Y13589D01*
X1510Y13525D01*
X1477Y13453D01*
X1456Y13378D01*
X1450Y13300D01*
X1456Y13221D01*
X1477Y13146D01*
X1510Y13075D01*
X1555Y13010D01*
X1610Y12955D01*
X1675Y12910D01*
X1746Y12877D01*
X1821Y12856D01*
X1900Y12850D01*
Y12750D01*
X1821Y12743D01*
X1746Y12722D01*
X1675Y12689D01*
X1610Y12644D01*
X1555Y12589D01*
X1510Y12525D01*
X1477Y12453D01*
X1456Y12378D01*
X1450Y12300D01*
X1456Y12221D01*
X1477Y12146D01*
X1510Y12075D01*
X1555Y12010D01*
X1610Y11955D01*
X1675Y11910D01*
X1746Y11877D01*
X1821Y11856D01*
X1900Y11850D01*
Y11748D01*
X1574Y11747D01*
X1548Y11741D01*
X1525Y11729D01*
X1503Y11714D01*
X1485Y11696D01*
X1470Y11675D01*
X1459Y11651D01*
X1452Y11626D01*
X1450Y11600D01*
X1452Y10974D01*
X1459Y10948D01*
X1470Y10925D01*
X1485Y10903D01*
X1503Y10885D01*
X1525Y10870D01*
X1548Y10859D01*
X1574Y10852D01*
X1600Y10850D01*
X1900Y10851D01*
Y8650D01*
X1821Y8643D01*
X1746Y8622D01*
X1675Y8589D01*
X1610Y8544D01*
X1555Y8489D01*
X1510Y8425D01*
X1477Y8353D01*
X1456Y8278D01*
X1450Y8200D01*
X1456Y8121D01*
X1477Y8046D01*
X1510Y7975D01*
X1555Y7910D01*
X1610Y7855D01*
X1675Y7810D01*
X1746Y7777D01*
X1821Y7756D01*
X1900Y7750D01*
Y7650D01*
X1821Y7643D01*
X1746Y7622D01*
X1675Y7589D01*
X1610Y7544D01*
X1555Y7489D01*
X1510Y7425D01*
X1477Y7353D01*
X1456Y7278D01*
X1450Y7200D01*
X1456Y7121D01*
X1477Y7046D01*
X1510Y6975D01*
X1555Y6910D01*
X1610Y6855D01*
X1675Y6810D01*
X1746Y6777D01*
X1821Y6756D01*
X1900Y6750D01*
Y6650D01*
X1821Y6643D01*
X1746Y6622D01*
X1675Y6589D01*
X1610Y6544D01*
X1555Y6489D01*
X1510Y6425D01*
X1477Y6353D01*
X1456Y6278D01*
X1450Y6200D01*
X1456Y6121D01*
X1477Y6046D01*
X1510Y5975D01*
X1555Y5910D01*
X1610Y5855D01*
X1675Y5810D01*
X1746Y5777D01*
X1821Y5756D01*
X1900Y5750D01*
Y5650D01*
X1821Y5643D01*
X1746Y5622D01*
X1675Y5589D01*
X1610Y5544D01*
X1555Y5489D01*
X1510Y5425D01*
X1477Y5353D01*
X1456Y5278D01*
X1450Y5200D01*
X1456Y5121D01*
X1477Y5046D01*
X1510Y4975D01*
X1555Y4910D01*
X1610Y4855D01*
X1675Y4810D01*
X1746Y4777D01*
X1821Y4756D01*
X1900Y4750D01*
Y4650D01*
G37*
G36*
X900Y24700D02*X1900D01*
Y24144D01*
X1880Y24158D01*
X1759Y24214D01*
X1632Y24248D01*
X1500Y24260D01*
X1368Y24248D01*
X1240Y24214D01*
X1120Y24158D01*
X1011Y24082D01*
X917Y23988D01*
X900Y23963D01*
Y24700D01*
G37*
G36*
X5500Y4200D02*X2350D01*
X2343Y4278D01*
X2322Y4353D01*
X2289Y4425D01*
X2244Y4489D01*
X2189Y4544D01*
X2125Y4589D01*
X2053Y4622D01*
X1978Y4643D01*
X1900Y4650D01*
Y4750D01*
X1978Y4756D01*
X2053Y4777D01*
X2125Y4810D01*
X2189Y4855D01*
X2244Y4910D01*
X2289Y4975D01*
X2322Y5046D01*
X2343Y5121D01*
X2350Y5200D01*
X2343Y5278D01*
X2322Y5353D01*
X2289Y5425D01*
X2244Y5489D01*
X2189Y5544D01*
X2125Y5589D01*
X2053Y5622D01*
X1978Y5643D01*
X1900Y5650D01*
Y5750D01*
X1978Y5756D01*
X2053Y5777D01*
X2125Y5810D01*
X2189Y5855D01*
X2244Y5910D01*
X2289Y5975D01*
X2322Y6046D01*
X2343Y6121D01*
X2350Y6200D01*
X2343Y6278D01*
X2322Y6353D01*
X2289Y6425D01*
X2244Y6489D01*
X2189Y6544D01*
X2125Y6589D01*
X2053Y6622D01*
X1978Y6643D01*
X1900Y6650D01*
Y6750D01*
X1978Y6756D01*
X2053Y6777D01*
X2125Y6810D01*
X2189Y6855D01*
X2244Y6910D01*
X2289Y6975D01*
X2322Y7046D01*
X2343Y7121D01*
X2350Y7200D01*
X2343Y7278D01*
X2322Y7353D01*
X2289Y7425D01*
X2244Y7489D01*
X2189Y7544D01*
X2125Y7589D01*
X2053Y7622D01*
X1978Y7643D01*
X1900Y7650D01*
Y7750D01*
X1978Y7756D01*
X2053Y7777D01*
X2125Y7810D01*
X2189Y7855D01*
X2244Y7910D01*
X2289Y7975D01*
X2322Y8046D01*
X2343Y8121D01*
X2350Y8200D01*
X2343Y8278D01*
X2322Y8353D01*
X2289Y8425D01*
X2244Y8489D01*
X2189Y8544D01*
X2125Y8589D01*
X2053Y8622D01*
X1978Y8643D01*
X1900Y8650D01*
Y10851D01*
X2226Y10852D01*
X2251Y10859D01*
X2275Y10870D01*
X2296Y10885D01*
X2314Y10903D01*
X2329Y10925D01*
X2341Y10948D01*
X2347Y10974D01*
X2350Y11000D01*
X2347Y11626D01*
X2341Y11651D01*
X2329Y11675D01*
X2314Y11696D01*
X2296Y11714D01*
X2275Y11729D01*
X2251Y11741D01*
X2226Y11747D01*
X2200Y11750D01*
X1900Y11748D01*
Y11850D01*
X1978Y11856D01*
X2053Y11877D01*
X2125Y11910D01*
X2189Y11955D01*
X2244Y12010D01*
X2289Y12075D01*
X2322Y12146D01*
X2343Y12221D01*
X2350Y12300D01*
X2343Y12378D01*
X2322Y12453D01*
X2289Y12525D01*
X2244Y12589D01*
X2189Y12644D01*
X2125Y12689D01*
X2053Y12722D01*
X1978Y12743D01*
X1900Y12750D01*
Y12850D01*
X1978Y12856D01*
X2053Y12877D01*
X2125Y12910D01*
X2189Y12955D01*
X2244Y13010D01*
X2289Y13075D01*
X2322Y13146D01*
X2343Y13221D01*
X2350Y13300D01*
X2343Y13378D01*
X2322Y13453D01*
X2289Y13525D01*
X2244Y13589D01*
X2189Y13644D01*
X2125Y13689D01*
X2053Y13722D01*
X1978Y13743D01*
X1900Y13750D01*
Y13850D01*
X1978Y13856D01*
X2053Y13877D01*
X2125Y13910D01*
X2189Y13955D01*
X2244Y14010D01*
X2289Y14075D01*
X2322Y14146D01*
X2343Y14221D01*
X2350Y14300D01*
X2343Y14378D01*
X2322Y14453D01*
X2289Y14525D01*
X2244Y14589D01*
X2189Y14644D01*
X2125Y14689D01*
X2053Y14722D01*
X1978Y14743D01*
X1900Y14750D01*
Y14850D01*
X1978Y14856D01*
X2053Y14877D01*
X2125Y14910D01*
X2189Y14955D01*
X2244Y15010D01*
X2289Y15075D01*
X2322Y15146D01*
X2343Y15221D01*
X2350Y15300D01*
X2343Y15378D01*
X2322Y15453D01*
X2289Y15525D01*
X2244Y15589D01*
X2189Y15644D01*
X2125Y15689D01*
X2053Y15722D01*
X1978Y15743D01*
X1900Y15750D01*
Y15850D01*
X1978Y15856D01*
X2053Y15877D01*
X2125Y15910D01*
X2189Y15955D01*
X2244Y16010D01*
X2289Y16075D01*
X2322Y16146D01*
X2343Y16221D01*
X2350Y16300D01*
X2343Y16378D01*
X2322Y16453D01*
X2289Y16525D01*
X2244Y16589D01*
X2189Y16644D01*
X2125Y16689D01*
X2053Y16722D01*
X1978Y16743D01*
X1900Y16750D01*
Y16850D01*
X1978Y16856D01*
X2053Y16877D01*
X2125Y16910D01*
X2189Y16955D01*
X2244Y17010D01*
X2289Y17075D01*
X2322Y17146D01*
X2343Y17221D01*
X2350Y17300D01*
X2343Y17378D01*
X2322Y17453D01*
X2289Y17525D01*
X2244Y17589D01*
X2189Y17644D01*
X2125Y17689D01*
X2053Y17722D01*
X1978Y17743D01*
X1900Y17750D01*
Y17850D01*
X1978Y17856D01*
X2053Y17877D01*
X2125Y17910D01*
X2189Y17955D01*
X2244Y18010D01*
X2289Y18075D01*
X2322Y18146D01*
X2343Y18221D01*
X2350Y18300D01*
X2343Y18378D01*
X2322Y18453D01*
X2289Y18525D01*
X2244Y18589D01*
X2189Y18644D01*
X2125Y18689D01*
X2053Y18722D01*
X1978Y18743D01*
X1900Y18750D01*
Y22855D01*
X1988Y22917D01*
X2082Y23011D01*
X2158Y23120D01*
X2214Y23240D01*
X2248Y23368D01*
X2260Y23500D01*
X2248Y23632D01*
X2214Y23759D01*
X2158Y23880D01*
X2082Y23988D01*
X1988Y24082D01*
X1900Y24144D01*
Y24700D01*
X5500D01*
Y6260D01*
X5368Y6248D01*
X5240Y6214D01*
X5120Y6158D01*
X5011Y6082D01*
X4917Y5988D01*
X4841Y5880D01*
X4785Y5759D01*
X4751Y5632D01*
X4740Y5500D01*
X4751Y5368D01*
X4785Y5240D01*
X4841Y5120D01*
X4917Y5011D01*
X5011Y4917D01*
X5120Y4841D01*
X5240Y4785D01*
X5368Y4751D01*
X5500Y4740D01*
Y4200D01*
G37*
G36*
X8245D02*X5500D01*
Y4740D01*
X5632Y4751D01*
X5759Y4785D01*
X5880Y4841D01*
X5988Y4917D01*
X6082Y5011D01*
X6158Y5120D01*
X6214Y5240D01*
X6248Y5368D01*
X6260Y5500D01*
X6248Y5632D01*
X6214Y5759D01*
X6158Y5880D01*
X6082Y5988D01*
X5988Y6082D01*
X5880Y6158D01*
X5759Y6214D01*
X5632Y6248D01*
X5500Y6260D01*
Y24700D01*
X8245D01*
Y18598D01*
X8234Y18609D01*
X8210Y18575D01*
X8177Y18503D01*
X8156Y18428D01*
X8150Y18350D01*
X8156Y18271D01*
X8177Y18196D01*
X8210Y18125D01*
X8234Y18090D01*
X8245Y18102D01*
Y17789D01*
X8225Y17779D01*
X8203Y17764D01*
X8185Y17746D01*
X8170Y17725D01*
X8159Y17701D01*
X8152Y17676D01*
X8150Y17650D01*
X8152Y17024D01*
X8159Y16998D01*
X8170Y16975D01*
X8185Y16953D01*
X8203Y16935D01*
X8225Y16920D01*
X8245Y16910D01*
Y4200D01*
G37*
G36*
X8763D02*X8245D01*
Y16910D01*
X8248Y16909D01*
X8274Y16902D01*
X8300Y16900D01*
X8763Y16901D01*
Y11265D01*
X8756Y11273D01*
X8740Y11250D01*
X8718Y11202D01*
X8704Y11152D01*
X8700Y11100D01*
X8704Y11047D01*
X8718Y10997D01*
X8740Y10950D01*
X8756Y10927D01*
X8763Y10934D01*
Y10754D01*
X8750Y10753D01*
X8672Y10732D01*
X8600Y10698D01*
X8534Y10652D01*
X8477Y10595D01*
X8431Y10530D01*
X8397Y10457D01*
X8377Y10379D01*
X8370Y10300D01*
X8377Y10220D01*
X8397Y10142D01*
X8431Y10070D01*
X8477Y10004D01*
X8534Y9947D01*
X8600Y9901D01*
X8672Y9867D01*
X8750Y9847D01*
X8763Y9845D01*
Y9465D01*
X8756Y9473D01*
X8740Y9450D01*
X8718Y9402D01*
X8704Y9352D01*
X8700Y9300D01*
X8704Y9247D01*
X8718Y9197D01*
X8740Y9150D01*
X8756Y9127D01*
X8763Y9134D01*
Y4200D01*
G37*
G36*
X8245Y24700D02*X8763D01*
Y18768D01*
X8753Y18772D01*
X8678Y18793D01*
X8600Y18800D01*
X8521Y18793D01*
X8446Y18772D01*
X8375Y18739D01*
X8340Y18715D01*
X8447Y18608D01*
X8450Y18609D01*
X8497Y18631D01*
X8547Y18645D01*
X8600Y18650D01*
X8652Y18645D01*
X8702Y18631D01*
X8750Y18609D01*
X8752Y18608D01*
X8763Y18620D01*
Y18080D01*
X8752Y18091D01*
X8750Y18090D01*
X8702Y18068D01*
X8652Y18054D01*
X8600Y18050D01*
X8547Y18054D01*
X8497Y18068D01*
X8450Y18090D01*
X8447Y18091D01*
X8340Y17984D01*
X8375Y17960D01*
X8446Y17927D01*
X8521Y17906D01*
X8600Y17900D01*
X8678Y17906D01*
X8753Y17927D01*
X8763Y17931D01*
Y17799D01*
X8274Y17797D01*
X8248Y17791D01*
X8245Y17789D01*
Y18102D01*
X8341Y18197D01*
X8340Y18200D01*
X8318Y18247D01*
X8304Y18297D01*
X8300Y18350D01*
X8304Y18402D01*
X8318Y18452D01*
X8340Y18500D01*
X8341Y18502D01*
X8245Y18598D01*
Y24700D01*
G37*
G36*
X8830Y4200D02*X8763D01*
Y9134D01*
X8827Y9198D01*
X8826Y9200D01*
X8812Y9231D01*
X8803Y9265D01*
X8800Y9300D01*
X8803Y9334D01*
X8812Y9368D01*
X8826Y9400D01*
X8827Y9401D01*
X8763Y9465D01*
Y9845D01*
X8830Y9840D01*
Y9545D01*
X8827Y9543D01*
X8830Y9540D01*
Y9059D01*
X8827Y9056D01*
X8830Y9054D01*
Y4200D01*
G37*
G36*
X8763Y24700D02*X8830D01*
Y18736D01*
X8825Y18739D01*
X8763Y18768D01*
Y24700D01*
G37*
G36*
Y18620D02*X8830Y18686D01*
Y18013D01*
X8763Y18080D01*
Y18620D01*
G37*
G36*
Y17931D02*X8825Y17960D01*
X8830Y17963D01*
Y17799D01*
X8763Y17799D01*
Y17931D01*
G37*
G36*
Y16901D02*X8830Y16901D01*
Y11345D01*
X8827Y11343D01*
X8830Y11340D01*
Y10859D01*
X8827Y10856D01*
X8830Y10854D01*
Y10760D01*
X8763Y10754D01*
Y10934D01*
X8827Y10998D01*
X8826Y11000D01*
X8812Y11031D01*
X8803Y11065D01*
X8800Y11100D01*
X8803Y11134D01*
X8812Y11168D01*
X8826Y11200D01*
X8827Y11201D01*
X8763Y11265D01*
Y16901D01*
G37*
G36*
X9245Y4200D02*X8830D01*
Y9054D01*
X8850Y9040D01*
X8897Y9018D01*
X8947Y9004D01*
X9000Y9000D01*
X9052Y9004D01*
X9102Y9018D01*
X9150Y9040D01*
X9173Y9056D01*
X9101Y9127D01*
X9100Y9126D01*
X9068Y9112D01*
X9034Y9103D01*
X9000Y9100D01*
X8965Y9103D01*
X8931Y9112D01*
X8900Y9126D01*
X8898Y9127D01*
X8830Y9059D01*
Y9540D01*
X8898Y9472D01*
X8900Y9473D01*
X8931Y9487D01*
X8965Y9497D01*
X9000Y9500D01*
X9034Y9497D01*
X9068Y9487D01*
X9100Y9473D01*
X9101Y9472D01*
X9173Y9543D01*
X9150Y9559D01*
X9102Y9581D01*
X9052Y9595D01*
X9000Y9600D01*
X8947Y9595D01*
X8897Y9581D01*
X8850Y9559D01*
X8830Y9545D01*
Y9840D01*
X8909Y9847D01*
X8987Y9867D01*
X9060Y9901D01*
X9125Y9947D01*
X9182Y10004D01*
X9228Y10070D01*
X9245Y10107D01*
Y9469D01*
X9243Y9473D01*
X9172Y9401D01*
X9173Y9400D01*
X9187Y9368D01*
X9197Y9334D01*
X9200Y9300D01*
X9197Y9265D01*
X9187Y9231D01*
X9173Y9200D01*
X9172Y9198D01*
X9243Y9127D01*
X9245Y9130D01*
Y4200D01*
G37*
G36*
X8954Y10741D02*X8909Y10753D01*
X8830Y10760D01*
Y10854D01*
X8850Y10840D01*
X8897Y10818D01*
X8947Y10804D01*
X8954Y10804D01*
Y10741D01*
G37*
G36*
Y10906D02*X8931Y10912D01*
X8900Y10926D01*
X8898Y10927D01*
X8830Y10859D01*
Y11340D01*
X8898Y11272D01*
X8900Y11273D01*
X8931Y11287D01*
X8954Y11294D01*
Y10906D01*
G37*
G36*
Y11396D02*X8947Y11395D01*
X8897Y11381D01*
X8850Y11359D01*
X8830Y11345D01*
Y16901D01*
X8926Y16902D01*
X8951Y16909D01*
X8954Y16910D01*
Y11396D01*
G37*
G36*
Y17789D02*X8951Y17791D01*
X8926Y17797D01*
X8900Y17800D01*
X8830Y17799D01*
Y17963D01*
X8859Y17984D01*
X8830Y18013D01*
Y18686D01*
X8859Y18715D01*
X8830Y18736D01*
Y24700D01*
X8954D01*
Y18598D01*
X8858Y18502D01*
X8859Y18500D01*
X8881Y18452D01*
X8895Y18402D01*
X8900Y18350D01*
X8895Y18297D01*
X8881Y18247D01*
X8859Y18200D01*
X8858Y18197D01*
X8954Y18101D01*
Y17789D01*
G37*
G36*
X9245Y10492D02*X9228Y10530D01*
X9182Y10595D01*
X9125Y10652D01*
X9060Y10698D01*
X8987Y10732D01*
X8954Y10741D01*
Y10804D01*
X9000Y10800D01*
X9052Y10804D01*
X9102Y10818D01*
X9150Y10840D01*
X9173Y10856D01*
X9101Y10927D01*
X9100Y10926D01*
X9068Y10912D01*
X9034Y10903D01*
X9000Y10900D01*
X8965Y10903D01*
X8954Y10906D01*
Y11294D01*
X8965Y11297D01*
X9000Y11300D01*
X9034Y11297D01*
X9068Y11287D01*
X9100Y11273D01*
X9101Y11272D01*
X9173Y11343D01*
X9150Y11359D01*
X9102Y11381D01*
X9052Y11395D01*
X9000Y11400D01*
X8954Y11396D01*
Y16910D01*
X8975Y16920D01*
X8996Y16935D01*
X9014Y16953D01*
X9029Y16975D01*
X9041Y16998D01*
X9047Y17024D01*
X9050Y17050D01*
X9047Y17676D01*
X9041Y17701D01*
X9029Y17725D01*
X9014Y17746D01*
X8996Y17764D01*
X8975Y17779D01*
X8954Y17789D01*
Y18101D01*
X8965Y18090D01*
X8989Y18125D01*
X9022Y18196D01*
X9043Y18271D01*
X9050Y18350D01*
X9043Y18428D01*
X9022Y18503D01*
X8989Y18575D01*
X8965Y18609D01*
X8954Y18598D01*
Y24700D01*
X9245D01*
Y18598D01*
X9234Y18609D01*
X9210Y18575D01*
X9177Y18503D01*
X9156Y18428D01*
X9150Y18350D01*
X9156Y18271D01*
X9177Y18196D01*
X9210Y18125D01*
X9234Y18090D01*
X9245Y18102D01*
Y17625D01*
X9210Y17575D01*
X9177Y17503D01*
X9156Y17428D01*
X9150Y17350D01*
X9156Y17271D01*
X9177Y17196D01*
X9210Y17125D01*
X9245Y17074D01*
Y11269D01*
X9243Y11273D01*
X9172Y11201D01*
X9173Y11200D01*
X9187Y11168D01*
X9197Y11134D01*
X9200Y11100D01*
X9197Y11065D01*
X9187Y11031D01*
X9173Y11000D01*
X9172Y10998D01*
X9243Y10927D01*
X9245Y10930D01*
Y10492D01*
G37*
G36*
X9600Y4200D02*X9245D01*
Y9130D01*
X9259Y9150D01*
X9281Y9197D01*
X9295Y9247D01*
X9300Y9300D01*
X9295Y9352D01*
X9281Y9402D01*
X9259Y9450D01*
X9245Y9469D01*
Y10107D01*
X9262Y10142D01*
X9283Y10220D01*
X9290Y10300D01*
X9283Y10379D01*
X9262Y10457D01*
X9245Y10492D01*
Y10930D01*
X9259Y10950D01*
X9281Y10997D01*
X9295Y11047D01*
X9300Y11100D01*
X9295Y11152D01*
X9281Y11202D01*
X9259Y11250D01*
X9245Y11269D01*
Y17074D01*
X9255Y17060D01*
X9310Y17005D01*
X9375Y16960D01*
X9446Y16927D01*
X9521Y16906D01*
X9600Y16900D01*
Y4200D01*
G37*
G36*
Y17800D02*X9521Y17793D01*
X9446Y17772D01*
X9375Y17739D01*
X9310Y17694D01*
X9255Y17639D01*
X9245Y17625D01*
Y18102D01*
X9341Y18197D01*
X9340Y18200D01*
X9318Y18247D01*
X9304Y18297D01*
X9300Y18350D01*
X9304Y18402D01*
X9318Y18452D01*
X9340Y18500D01*
X9341Y18502D01*
X9245Y18598D01*
Y24700D01*
X9600D01*
Y18800D01*
X9521Y18793D01*
X9446Y18772D01*
X9375Y18739D01*
X9340Y18715D01*
X9447Y18608D01*
X9450Y18609D01*
X9497Y18631D01*
X9547Y18645D01*
X9600Y18650D01*
Y18050D01*
X9547Y18054D01*
X9497Y18068D01*
X9450Y18090D01*
X9447Y18091D01*
X9340Y17984D01*
X9375Y17960D01*
X9446Y17927D01*
X9521Y17906D01*
X9600Y17900D01*
Y17800D01*
G37*
G36*
X9954Y4200D02*X9600D01*
Y16900D01*
X9678Y16906D01*
X9753Y16927D01*
X9825Y16960D01*
X9889Y17005D01*
X9944Y17060D01*
X9954Y17074D01*
Y4200D01*
G37*
G36*
Y17625D02*X9944Y17639D01*
X9889Y17694D01*
X9825Y17739D01*
X9753Y17772D01*
X9678Y17793D01*
X9600Y17800D01*
Y17900D01*
X9678Y17906D01*
X9753Y17927D01*
X9825Y17960D01*
X9859Y17984D01*
X9752Y18091D01*
X9750Y18090D01*
X9702Y18068D01*
X9652Y18054D01*
X9600Y18050D01*
Y18650D01*
X9652Y18645D01*
X9702Y18631D01*
X9750Y18609D01*
X9752Y18608D01*
X9859Y18715D01*
X9825Y18739D01*
X9753Y18772D01*
X9678Y18793D01*
X9600Y18800D01*
Y24700D01*
X9954D01*
Y18598D01*
X9858Y18502D01*
X9859Y18500D01*
X9881Y18452D01*
X9895Y18402D01*
X9900Y18350D01*
X9895Y18297D01*
X9881Y18247D01*
X9859Y18200D01*
X9858Y18197D01*
X9954Y18101D01*
Y17625D01*
G37*
G36*
X10600Y4200D02*X9954D01*
Y17074D01*
X9989Y17125D01*
X10022Y17196D01*
X10043Y17271D01*
X10050Y17350D01*
X10043Y17428D01*
X10022Y17503D01*
X9989Y17575D01*
X9954Y17625D01*
Y18101D01*
X9965Y18090D01*
X9989Y18125D01*
X10022Y18196D01*
X10043Y18271D01*
X10050Y18350D01*
X10043Y18428D01*
X10022Y18503D01*
X9989Y18575D01*
X9965Y18609D01*
X9954Y18598D01*
Y24700D01*
X10600D01*
Y18800D01*
X10521Y18793D01*
X10446Y18772D01*
X10375Y18739D01*
X10310Y18694D01*
X10255Y18639D01*
X10210Y18575D01*
X10177Y18503D01*
X10156Y18428D01*
X10150Y18350D01*
X10156Y18271D01*
X10177Y18196D01*
X10210Y18125D01*
X10255Y18060D01*
X10310Y18005D01*
X10375Y17960D01*
X10446Y17927D01*
X10521Y17906D01*
X10600Y17900D01*
Y17800D01*
X10521Y17793D01*
X10446Y17772D01*
X10375Y17739D01*
X10310Y17694D01*
X10255Y17639D01*
X10210Y17575D01*
X10177Y17503D01*
X10156Y17428D01*
X10150Y17350D01*
X10156Y17271D01*
X10177Y17196D01*
X10210Y17125D01*
X10255Y17060D01*
X10310Y17005D01*
X10375Y16960D01*
X10446Y16927D01*
X10521Y16906D01*
X10600Y16900D01*
Y12509D01*
X10552Y12531D01*
X10502Y12545D01*
X10450Y12550D01*
X10397Y12545D01*
X10347Y12531D01*
X10300Y12509D01*
X10257Y12479D01*
X10220Y12442D01*
X10190Y12400D01*
X10168Y12352D01*
X10154Y12302D01*
X10150Y12250D01*
X10154Y12197D01*
X10168Y12147D01*
X10190Y12100D01*
X10220Y12057D01*
X10257Y12020D01*
X10300Y11990D01*
X10347Y11968D01*
X10397Y11954D01*
X10450Y11950D01*
X10502Y11954D01*
X10552Y11968D01*
X10600Y11990D01*
Y4200D01*
G37*
G36*
X10838D02*X10600D01*
Y11990D01*
X10642Y12020D01*
X10679Y12057D01*
X10709Y12100D01*
X10731Y12147D01*
X10745Y12197D01*
X10750Y12250D01*
Y12200D01*
X10751Y12187D01*
X10754Y12174D01*
X10760Y12162D01*
X10767Y12151D01*
X10776Y12142D01*
X10787Y12135D01*
X10799Y12129D01*
X10812Y12126D01*
X10825Y12125D01*
X10838Y12126D01*
X10838Y12126D01*
Y4200D01*
G37*
G36*
Y12573D02*X10838Y12573D01*
X10825Y12575D01*
X10812Y12573D01*
X10799Y12570D01*
X10787Y12565D01*
X10776Y12557D01*
X10767Y12548D01*
X10760Y12537D01*
X10754Y12525D01*
X10751Y12513D01*
X10750Y12500D01*
Y12250D01*
X10745Y12302D01*
X10731Y12352D01*
X10709Y12400D01*
X10679Y12442D01*
X10642Y12479D01*
X10600Y12509D01*
Y16900D01*
X10678Y16906D01*
X10753Y16927D01*
X10825Y16960D01*
X10838Y16969D01*
Y15564D01*
X10829Y15561D01*
X10817Y15556D01*
X10806Y15549D01*
X10796Y15540D01*
X10788Y15530D01*
X10782Y15518D01*
X10768Y15477D01*
X10758Y15435D01*
X10752Y15393D01*
X10750Y15350D01*
X10752Y15306D01*
X10758Y15264D01*
X10768Y15222D01*
X10782Y15181D01*
X10788Y15169D01*
X10796Y15159D01*
X10806Y15150D01*
X10817Y15143D01*
X10829Y15138D01*
X10838Y15136D01*
Y14615D01*
X10810Y14575D01*
X10777Y14503D01*
X10756Y14428D01*
X10750Y14350D01*
X10756Y14271D01*
X10777Y14196D01*
X10810Y14125D01*
X10838Y14084D01*
Y13615D01*
X10810Y13575D01*
X10777Y13503D01*
X10756Y13428D01*
X10750Y13350D01*
X10756Y13271D01*
X10777Y13196D01*
X10810Y13125D01*
X10838Y13084D01*
Y12573D01*
G37*
G36*
Y17730D02*X10825Y17739D01*
X10753Y17772D01*
X10678Y17793D01*
X10600Y17800D01*
Y17900D01*
X10678Y17906D01*
X10753Y17927D01*
X10825Y17960D01*
X10838Y17969D01*
Y17730D01*
G37*
G36*
Y18730D02*X10825Y18739D01*
X10753Y18772D01*
X10678Y18793D01*
X10600Y18800D01*
Y24700D01*
X10838D01*
Y21496D01*
X10818Y21452D01*
X10804Y21402D01*
X10800Y21350D01*
X10804Y21297D01*
X10818Y21247D01*
X10838Y21203D01*
Y18730D01*
G37*
G36*
X11200Y4200D02*X10838D01*
Y12126D01*
X10850Y12129D01*
X10862Y12135D01*
X10873Y12142D01*
X10882Y12151D01*
X10890Y12162D01*
X10895Y12174D01*
X10898Y12187D01*
X10900Y12200D01*
Y12500D01*
X10898Y12513D01*
X10895Y12525D01*
X10890Y12537D01*
X10882Y12548D01*
X10873Y12557D01*
X10862Y12565D01*
X10850Y12570D01*
X10838Y12573D01*
Y13084D01*
X10855Y13060D01*
X10910Y13005D01*
X10975Y12960D01*
X11046Y12927D01*
X11121Y12906D01*
X11200Y12900D01*
Y12800D01*
X11050D01*
X11037Y12798D01*
X11024Y12795D01*
X11012Y12790D01*
X11001Y12782D01*
X10992Y12773D01*
X10985Y12762D01*
X10979Y12750D01*
X10976Y12738D01*
X10975Y12725D01*
X10976Y12712D01*
X10979Y12699D01*
X10985Y12687D01*
X10992Y12676D01*
X11001Y12667D01*
X11012Y12660D01*
X11024Y12654D01*
X11037Y12651D01*
X11050Y12650D01*
X11200D01*
Y12050D01*
X11050D01*
X11037Y12048D01*
X11024Y12045D01*
X11012Y12040D01*
X11001Y12032D01*
X10992Y12023D01*
X10985Y12012D01*
X10979Y12000D01*
X10976Y11988D01*
X10975Y11975D01*
X10976Y11962D01*
X10979Y11949D01*
X10985Y11937D01*
X10992Y11926D01*
X11001Y11917D01*
X11012Y11910D01*
X11024Y11904D01*
X11037Y11901D01*
X11050Y11900D01*
X11200D01*
Y4200D01*
G37*
G36*
Y13800D02*X11121Y13793D01*
X11046Y13772D01*
X10975Y13739D01*
X10910Y13694D01*
X10855Y13639D01*
X10838Y13615D01*
Y14084D01*
X10855Y14060D01*
X10910Y14005D01*
X10975Y13960D01*
X11046Y13927D01*
X11121Y13906D01*
X11200Y13900D01*
Y13800D01*
G37*
G36*
Y14800D02*X11121Y14793D01*
X11046Y14772D01*
X10975Y14739D01*
X10910Y14694D01*
X10855Y14639D01*
X10838Y14615D01*
Y15136D01*
X10841Y15135D01*
X10854Y15134D01*
X10867Y15136D01*
X10880Y15140D01*
X10892Y15146D01*
X10902Y15153D01*
X10911Y15163D01*
X10918Y15174D01*
X10923Y15186D01*
X10926Y15199D01*
X10927Y15212D01*
X10925Y15225D01*
X10921Y15237D01*
X10912Y15264D01*
X10905Y15292D01*
X10901Y15321D01*
X10900Y15350D01*
X10901Y15378D01*
X10905Y15407D01*
X10912Y15435D01*
X10921Y15462D01*
X10925Y15474D01*
X10927Y15487D01*
X10926Y15501D01*
X10923Y15513D01*
X10918Y15525D01*
X10911Y15536D01*
X10902Y15546D01*
X10892Y15554D01*
X10880Y15560D01*
X10867Y15563D01*
X10854Y15565D01*
X10841Y15564D01*
X10838Y15564D01*
Y16969D01*
X10889Y17005D01*
X10944Y17060D01*
X10989Y17125D01*
X11022Y17196D01*
X11043Y17271D01*
X11050Y17350D01*
X11043Y17428D01*
X11022Y17503D01*
X10989Y17575D01*
X10944Y17639D01*
X10889Y17694D01*
X10838Y17730D01*
Y17969D01*
X10889Y18005D01*
X10944Y18060D01*
X10989Y18125D01*
X11022Y18196D01*
X11043Y18271D01*
X11050Y18350D01*
X11043Y18428D01*
X11022Y18503D01*
X10989Y18575D01*
X10944Y18639D01*
X10889Y18694D01*
X10838Y18730D01*
Y21203D01*
X10840Y21200D01*
X10870Y21157D01*
X10907Y21120D01*
X10950Y21090D01*
X10997Y21068D01*
X11047Y21054D01*
X11100Y21050D01*
X11152Y21054D01*
X11200Y21067D01*
Y18552D01*
X11177Y18503D01*
X11156Y18428D01*
X11150Y18350D01*
X11156Y18271D01*
X11177Y18196D01*
X11200Y18147D01*
Y17552D01*
X11177Y17503D01*
X11156Y17428D01*
X11150Y17350D01*
X11156Y17271D01*
X11177Y17196D01*
X11200Y17147D01*
Y15800D01*
X11156Y15798D01*
X11114Y15791D01*
X11072Y15781D01*
X11031Y15767D01*
X11019Y15761D01*
X11009Y15753D01*
X11000Y15743D01*
X10993Y15732D01*
X10988Y15720D01*
X10985Y15708D01*
X10984Y15695D01*
X10986Y15682D01*
X10990Y15669D01*
X10995Y15658D01*
X11003Y15647D01*
X11013Y15638D01*
X11024Y15631D01*
X11036Y15626D01*
X11049Y15623D01*
X11062Y15622D01*
X11075Y15624D01*
X11087Y15628D01*
X11114Y15637D01*
X11142Y15644D01*
X11171Y15648D01*
X11200Y15650D01*
Y15050D01*
X11171Y15051D01*
X11142Y15055D01*
X11114Y15062D01*
X11087Y15071D01*
X11075Y15075D01*
X11062Y15077D01*
X11049Y15076D01*
X11036Y15073D01*
X11024Y15068D01*
X11013Y15061D01*
X11003Y15052D01*
X10995Y15042D01*
X10989Y15030D01*
X10986Y15018D01*
X10984Y15005D01*
X10985Y14991D01*
X10988Y14979D01*
X10993Y14967D01*
X11000Y14956D01*
X11009Y14946D01*
X11019Y14938D01*
X11031Y14932D01*
X11072Y14918D01*
X11114Y14908D01*
X11156Y14902D01*
X11200Y14900D01*
Y14800D01*
G37*
G36*
Y21632D02*X11152Y21645D01*
X11100Y21650D01*
X11047Y21645D01*
X10997Y21631D01*
X10950Y21609D01*
X10907Y21579D01*
X10870Y21542D01*
X10840Y21500D01*
X10838Y21496D01*
Y24700D01*
X11200D01*
Y21632D01*
G37*
G36*
X11561Y4200D02*X11200D01*
Y11900D01*
X11350D01*
X11363Y11901D01*
X11375Y11904D01*
X11387Y11910D01*
X11398Y11917D01*
X11407Y11926D01*
X11415Y11937D01*
X11420Y11949D01*
X11423Y11962D01*
X11425Y11975D01*
X11423Y11988D01*
X11420Y12000D01*
X11415Y12012D01*
X11407Y12023D01*
X11398Y12032D01*
X11387Y12040D01*
X11375Y12045D01*
X11363Y12048D01*
X11350Y12050D01*
X11200D01*
Y12650D01*
X11350D01*
X11363Y12651D01*
X11375Y12654D01*
X11387Y12660D01*
X11398Y12667D01*
X11407Y12676D01*
X11415Y12687D01*
X11420Y12699D01*
X11423Y12712D01*
X11425Y12725D01*
X11423Y12738D01*
X11420Y12750D01*
X11415Y12762D01*
X11407Y12773D01*
X11398Y12782D01*
X11387Y12790D01*
X11375Y12795D01*
X11363Y12798D01*
X11350Y12800D01*
X11200D01*
Y12900D01*
X11278Y12906D01*
X11353Y12927D01*
X11425Y12960D01*
X11489Y13005D01*
X11544Y13060D01*
X11561Y13084D01*
Y12573D01*
X11549Y12570D01*
X11537Y12565D01*
X11526Y12557D01*
X11517Y12548D01*
X11510Y12537D01*
X11504Y12525D01*
X11501Y12513D01*
X11500Y12500D01*
Y12200D01*
X11501Y12187D01*
X11504Y12174D01*
X11510Y12162D01*
X11517Y12151D01*
X11526Y12142D01*
X11537Y12135D01*
X11549Y12129D01*
X11561Y12126D01*
Y4200D01*
G37*
G36*
Y13615D02*X11544Y13639D01*
X11489Y13694D01*
X11425Y13739D01*
X11353Y13772D01*
X11278Y13793D01*
X11200Y13800D01*
Y13900D01*
X11278Y13906D01*
X11353Y13927D01*
X11425Y13960D01*
X11489Y14005D01*
X11544Y14060D01*
X11561Y14084D01*
Y13615D01*
G37*
G36*
Y14615D02*X11544Y14639D01*
X11489Y14694D01*
X11425Y14739D01*
X11353Y14772D01*
X11278Y14793D01*
X11200Y14800D01*
Y14900D01*
X11243Y14902D01*
X11285Y14908D01*
X11327Y14918D01*
X11368Y14932D01*
X11380Y14938D01*
X11390Y14946D01*
X11399Y14956D01*
X11406Y14967D01*
X11411Y14979D01*
X11414Y14992D01*
X11415Y15005D01*
X11413Y15018D01*
X11409Y15030D01*
X11404Y15042D01*
X11396Y15052D01*
X11386Y15061D01*
X11375Y15068D01*
X11363Y15073D01*
X11350Y15076D01*
X11337Y15077D01*
X11324Y15075D01*
X11312Y15071D01*
X11285Y15062D01*
X11257Y15055D01*
X11228Y15051D01*
X11200Y15050D01*
Y15650D01*
X11228Y15648D01*
X11257Y15644D01*
X11285Y15637D01*
X11312Y15628D01*
X11324Y15624D01*
X11337Y15622D01*
X11350Y15623D01*
X11363Y15626D01*
X11375Y15631D01*
X11386Y15638D01*
X11396Y15647D01*
X11404Y15657D01*
X11410Y15669D01*
X11413Y15682D01*
X11415Y15695D01*
X11414Y15708D01*
X11411Y15720D01*
X11406Y15733D01*
X11399Y15743D01*
X11390Y15753D01*
X11380Y15761D01*
X11368Y15767D01*
X11327Y15781D01*
X11285Y15791D01*
X11243Y15798D01*
X11200Y15800D01*
Y17147D01*
X11210Y17125D01*
X11255Y17060D01*
X11310Y17005D01*
X11375Y16960D01*
X11446Y16927D01*
X11521Y16906D01*
X11561Y16903D01*
Y15563D01*
X11558Y15564D01*
X11545Y15565D01*
X11532Y15563D01*
X11519Y15560D01*
X11507Y15554D01*
X11497Y15546D01*
X11488Y15536D01*
X11481Y15525D01*
X11476Y15513D01*
X11473Y15500D01*
X11472Y15487D01*
X11474Y15474D01*
X11478Y15462D01*
X11487Y15435D01*
X11494Y15407D01*
X11498Y15378D01*
X11500Y15350D01*
X11498Y15321D01*
X11494Y15292D01*
X11487Y15264D01*
X11478Y15237D01*
X11474Y15225D01*
X11472Y15212D01*
X11473Y15199D01*
X11476Y15186D01*
X11481Y15174D01*
X11488Y15163D01*
X11497Y15153D01*
X11507Y15145D01*
X11519Y15140D01*
X11532Y15136D01*
X11545Y15134D01*
X11558Y15135D01*
X11561Y15136D01*
Y14615D01*
G37*
G36*
Y17796D02*X11521Y17793D01*
X11446Y17772D01*
X11375Y17739D01*
X11310Y17694D01*
X11255Y17639D01*
X11210Y17575D01*
X11200Y17552D01*
Y18147D01*
X11210Y18125D01*
X11255Y18060D01*
X11310Y18005D01*
X11375Y17960D01*
X11446Y17927D01*
X11521Y17906D01*
X11561Y17903D01*
Y17796D01*
G37*
G36*
Y18796D02*X11521Y18793D01*
X11446Y18772D01*
X11375Y18739D01*
X11310Y18694D01*
X11255Y18639D01*
X11210Y18575D01*
X11200Y18552D01*
Y21067D01*
X11202Y21068D01*
X11250Y21090D01*
X11292Y21120D01*
X11329Y21157D01*
X11359Y21200D01*
X11381Y21247D01*
X11395Y21297D01*
X11400Y21350D01*
X11395Y21402D01*
X11381Y21452D01*
X11359Y21500D01*
X11329Y21542D01*
X11292Y21579D01*
X11250Y21609D01*
X11202Y21631D01*
X11200Y21632D01*
Y24700D01*
X11561D01*
Y18796D01*
G37*
G36*
X12600Y4200D02*X11561D01*
Y12126D01*
X11562Y12126D01*
X11575Y12125D01*
X11588Y12126D01*
X11600Y12129D01*
X11612Y12135D01*
X11623Y12142D01*
X11632Y12151D01*
X11640Y12162D01*
X11645Y12174D01*
X11648Y12187D01*
X11650Y12200D01*
Y12500D01*
X11648Y12513D01*
X11645Y12525D01*
X11640Y12537D01*
X11632Y12548D01*
X11623Y12557D01*
X11612Y12565D01*
X11600Y12570D01*
X11588Y12573D01*
X11575Y12575D01*
X11562Y12573D01*
X11561Y12573D01*
Y13084D01*
X11589Y13125D01*
X11622Y13196D01*
X11643Y13271D01*
X11650Y13350D01*
X11643Y13428D01*
X11622Y13503D01*
X11589Y13575D01*
X11561Y13615D01*
Y14084D01*
X11589Y14125D01*
X11622Y14196D01*
X11643Y14271D01*
X11650Y14350D01*
X11643Y14428D01*
X11622Y14503D01*
X11589Y14575D01*
X11561Y14615D01*
Y15136D01*
X11570Y15138D01*
X11582Y15143D01*
X11593Y15150D01*
X11603Y15159D01*
X11611Y15169D01*
X11617Y15181D01*
X11631Y15222D01*
X11641Y15264D01*
X11647Y15306D01*
X11650Y15350D01*
X11647Y15393D01*
X11641Y15435D01*
X11631Y15477D01*
X11617Y15518D01*
X11611Y15530D01*
X11603Y15540D01*
X11593Y15549D01*
X11582Y15556D01*
X11570Y15561D01*
X11561Y15563D01*
Y16903D01*
X11600Y16900D01*
X11678Y16906D01*
X11753Y16927D01*
X11825Y16960D01*
X11889Y17005D01*
X11944Y17060D01*
X11989Y17125D01*
X12022Y17196D01*
X12043Y17271D01*
X12050Y17350D01*
X12043Y17428D01*
X12022Y17503D01*
X11989Y17575D01*
X11944Y17639D01*
X11889Y17694D01*
X11825Y17739D01*
X11753Y17772D01*
X11678Y17793D01*
X11600Y17800D01*
X11561Y17796D01*
Y17903D01*
X11600Y17900D01*
X11678Y17906D01*
X11753Y17927D01*
X11825Y17960D01*
X11889Y18005D01*
X11944Y18060D01*
X11989Y18125D01*
X12022Y18196D01*
X12043Y18271D01*
X12050Y18350D01*
X12043Y18428D01*
X12022Y18503D01*
X11989Y18575D01*
X11944Y18639D01*
X11889Y18694D01*
X11825Y18739D01*
X11753Y18772D01*
X11678Y18793D01*
X11600Y18800D01*
X11561Y18796D01*
Y24700D01*
X12600D01*
Y18800D01*
X12521Y18793D01*
X12446Y18772D01*
X12375Y18739D01*
X12310Y18694D01*
X12255Y18639D01*
X12210Y18575D01*
X12177Y18503D01*
X12156Y18428D01*
X12150Y18350D01*
X12156Y18271D01*
X12177Y18196D01*
X12210Y18125D01*
X12255Y18060D01*
X12310Y18005D01*
X12375Y17960D01*
X12446Y17927D01*
X12521Y17906D01*
X12600Y17900D01*
Y17800D01*
X12521Y17793D01*
X12446Y17772D01*
X12375Y17739D01*
X12310Y17694D01*
X12255Y17639D01*
X12210Y17575D01*
X12177Y17503D01*
X12156Y17428D01*
X12150Y17350D01*
X12156Y17271D01*
X12177Y17196D01*
X12210Y17125D01*
X12255Y17060D01*
X12310Y17005D01*
X12375Y16960D01*
X12446Y16927D01*
X12521Y16906D01*
X12600Y16900D01*
Y4200D01*
G37*
G36*
X12963D02*X12600D01*
Y16900D01*
X12678Y16906D01*
X12753Y16927D01*
X12825Y16960D01*
X12889Y17005D01*
X12944Y17060D01*
X12963Y17088D01*
Y15446D01*
X12947Y15445D01*
X12897Y15431D01*
X12850Y15409D01*
X12807Y15379D01*
X12770Y15342D01*
X12740Y15300D01*
X12718Y15252D01*
X12704Y15202D01*
X12700Y15150D01*
X12704Y15097D01*
X12718Y15047D01*
X12740Y15000D01*
X12770Y14957D01*
X12807Y14920D01*
X12850Y14890D01*
X12897Y14868D01*
X12947Y14854D01*
X12963Y14853D01*
Y4200D01*
G37*
G36*
Y17611D02*X12944Y17639D01*
X12889Y17694D01*
X12825Y17739D01*
X12753Y17772D01*
X12678Y17793D01*
X12600Y17800D01*
Y17900D01*
X12678Y17906D01*
X12753Y17927D01*
X12825Y17960D01*
X12889Y18005D01*
X12944Y18060D01*
X12963Y18088D01*
Y17611D01*
G37*
G36*
Y18611D02*X12944Y18639D01*
X12889Y18694D01*
X12825Y18739D01*
X12753Y18772D01*
X12678Y18793D01*
X12600Y18800D01*
Y24700D01*
X12963D01*
Y20915D01*
X12956Y20923D01*
X12940Y20900D01*
X12918Y20852D01*
X12904Y20802D01*
X12900Y20750D01*
X12904Y20697D01*
X12918Y20647D01*
X12940Y20600D01*
X12956Y20577D01*
X12963Y20584D01*
Y18611D01*
G37*
G36*
X13200Y4200D02*X12963D01*
Y14853D01*
X13000Y14850D01*
X13052Y14854D01*
X13102Y14868D01*
X13150Y14890D01*
X13192Y14920D01*
X13200Y14927D01*
Y14772D01*
X13170Y14742D01*
X13140Y14700D01*
X13118Y14652D01*
X13104Y14602D01*
X13100Y14550D01*
X13104Y14497D01*
X13118Y14447D01*
X13140Y14400D01*
X13170Y14357D01*
X13200Y14327D01*
Y4200D01*
G37*
G36*
Y15372D02*X13192Y15379D01*
X13150Y15409D01*
X13102Y15431D01*
X13052Y15445D01*
X13000Y15450D01*
X12963Y15446D01*
Y17088D01*
X12989Y17125D01*
X13022Y17196D01*
X13043Y17271D01*
X13050Y17350D01*
X13043Y17428D01*
X13022Y17503D01*
X12989Y17575D01*
X12963Y17611D01*
Y18088D01*
X12989Y18125D01*
X13022Y18196D01*
X13043Y18271D01*
X13050Y18350D01*
X13043Y18428D01*
X13022Y18503D01*
X12989Y18575D01*
X12963Y18611D01*
Y20584D01*
X13027Y20648D01*
X13026Y20650D01*
X13012Y20681D01*
X13003Y20715D01*
X13000Y20750D01*
X13003Y20784D01*
X13012Y20818D01*
X13026Y20850D01*
X13027Y20851D01*
X12963Y20915D01*
Y24700D01*
X13200D01*
Y21050D01*
X13147Y21045D01*
X13097Y21031D01*
X13050Y21009D01*
X13027Y20993D01*
X13098Y20922D01*
X13100Y20923D01*
X13131Y20937D01*
X13165Y20947D01*
X13200Y20950D01*
Y20550D01*
X13165Y20553D01*
X13131Y20562D01*
X13100Y20576D01*
X13098Y20577D01*
X13027Y20506D01*
X13050Y20490D01*
X13097Y20468D01*
X13147Y20454D01*
X13200Y20450D01*
Y18552D01*
X13177Y18503D01*
X13156Y18428D01*
X13150Y18350D01*
X13156Y18271D01*
X13177Y18196D01*
X13200Y18147D01*
Y17552D01*
X13177Y17503D01*
X13156Y17428D01*
X13150Y17350D01*
X13156Y17271D01*
X13177Y17196D01*
X13200Y17147D01*
Y15372D01*
G37*
G36*
X13400Y4200D02*X13200D01*
Y14327D01*
X13207Y14320D01*
X13250Y14290D01*
X13297Y14268D01*
X13347Y14254D01*
X13400Y14250D01*
Y4200D01*
G37*
G36*
X13200Y14927D02*X13229Y14957D01*
X13259Y15000D01*
X13281Y15047D01*
X13295Y15097D01*
X13300Y15150D01*
X13295Y15202D01*
X13281Y15252D01*
X13259Y15300D01*
X13229Y15342D01*
X13200Y15372D01*
Y17147D01*
X13210Y17125D01*
X13255Y17060D01*
X13310Y17005D01*
X13375Y16960D01*
X13400Y16948D01*
Y14850D01*
X13347Y14845D01*
X13297Y14831D01*
X13250Y14809D01*
X13207Y14779D01*
X13200Y14772D01*
Y14927D01*
G37*
G36*
Y24700D02*X13400D01*
Y20879D01*
X13372Y20851D01*
X13373Y20850D01*
X13387Y20818D01*
X13397Y20784D01*
X13400Y20750D01*
X13397Y20715D01*
X13387Y20681D01*
X13373Y20650D01*
X13372Y20648D01*
X13400Y20620D01*
Y18751D01*
X13375Y18739D01*
X13310Y18694D01*
X13255Y18639D01*
X13210Y18575D01*
X13200Y18552D01*
Y20450D01*
X13252Y20454D01*
X13302Y20468D01*
X13350Y20490D01*
X13373Y20506D01*
X13301Y20577D01*
X13300Y20576D01*
X13268Y20562D01*
X13234Y20553D01*
X13200Y20550D01*
Y20950D01*
X13234Y20947D01*
X13268Y20937D01*
X13300Y20923D01*
X13301Y20922D01*
X13373Y20993D01*
X13350Y21009D01*
X13302Y21031D01*
X13252Y21045D01*
X13200Y21050D01*
Y24700D01*
G37*
G36*
Y18147D02*X13210Y18125D01*
X13255Y18060D01*
X13310Y18005D01*
X13375Y17960D01*
X13400Y17948D01*
Y17751D01*
X13375Y17739D01*
X13310Y17694D01*
X13255Y17639D01*
X13210Y17575D01*
X13200Y17552D01*
Y18147D01*
G37*
G36*
X14600Y4200D02*X13400D01*
Y14250D01*
X13452Y14254D01*
X13502Y14268D01*
X13550Y14290D01*
X13592Y14320D01*
X13629Y14357D01*
X13659Y14400D01*
X13681Y14447D01*
X13695Y14497D01*
X13700Y14550D01*
X13695Y14602D01*
X13681Y14652D01*
X13659Y14700D01*
X13629Y14742D01*
X13592Y14779D01*
X13550Y14809D01*
X13502Y14831D01*
X13452Y14845D01*
X13400Y14850D01*
Y16948D01*
X13446Y16927D01*
X13521Y16906D01*
X13600Y16900D01*
X13678Y16906D01*
X13753Y16927D01*
X13825Y16960D01*
X13889Y17005D01*
X13944Y17060D01*
X13989Y17125D01*
X14022Y17196D01*
X14043Y17271D01*
X14050Y17350D01*
X14043Y17428D01*
X14022Y17503D01*
X13989Y17575D01*
X13944Y17639D01*
X13889Y17694D01*
X13825Y17739D01*
X13753Y17772D01*
X13678Y17793D01*
X13600Y17800D01*
X13521Y17793D01*
X13446Y17772D01*
X13400Y17751D01*
Y17948D01*
X13446Y17927D01*
X13521Y17906D01*
X13600Y17900D01*
X13678Y17906D01*
X13753Y17927D01*
X13825Y17960D01*
X13889Y18005D01*
X13944Y18060D01*
X13989Y18125D01*
X14022Y18196D01*
X14043Y18271D01*
X14050Y18350D01*
X14043Y18428D01*
X14022Y18503D01*
X13989Y18575D01*
X13944Y18639D01*
X13889Y18694D01*
X13825Y18739D01*
X13753Y18772D01*
X13678Y18793D01*
X13600Y18800D01*
X13521Y18793D01*
X13446Y18772D01*
X13400Y18751D01*
Y20620D01*
X13443Y20577D01*
X13459Y20600D01*
X13481Y20647D01*
X13495Y20697D01*
X13500Y20750D01*
X13495Y20802D01*
X13481Y20852D01*
X13459Y20900D01*
X13443Y20923D01*
X13400Y20879D01*
Y24700D01*
X14600D01*
Y18800D01*
X14521Y18793D01*
X14446Y18772D01*
X14375Y18739D01*
X14310Y18694D01*
X14255Y18639D01*
X14210Y18575D01*
X14177Y18503D01*
X14156Y18428D01*
X14150Y18350D01*
X14156Y18271D01*
X14177Y18196D01*
X14210Y18125D01*
X14255Y18060D01*
X14310Y18005D01*
X14375Y17960D01*
X14446Y17927D01*
X14521Y17906D01*
X14600Y17900D01*
Y17800D01*
X14521Y17793D01*
X14446Y17772D01*
X14375Y17739D01*
X14310Y17694D01*
X14255Y17639D01*
X14210Y17575D01*
X14177Y17503D01*
X14156Y17428D01*
X14150Y17350D01*
X14156Y17271D01*
X14177Y17196D01*
X14210Y17125D01*
X14255Y17060D01*
X14310Y17005D01*
X14375Y16960D01*
X14446Y16927D01*
X14521Y16906D01*
X14600Y16900D01*
Y15550D01*
X14547Y15545D01*
X14497Y15531D01*
X14450Y15509D01*
X14407Y15479D01*
X14370Y15442D01*
X14340Y15400D01*
X14318Y15352D01*
X14304Y15302D01*
X14300Y15250D01*
X14304Y15197D01*
X14318Y15147D01*
X14340Y15100D01*
X14370Y15057D01*
X14407Y15020D01*
X14450Y14990D01*
X14497Y14968D01*
X14547Y14954D01*
X14600Y14950D01*
Y4200D01*
G37*
G36*
X15245D02*X14600D01*
Y14950D01*
X14652Y14954D01*
X14702Y14968D01*
X14750Y14990D01*
X14792Y15020D01*
X14829Y15057D01*
X14859Y15100D01*
X14881Y15147D01*
X14895Y15197D01*
X14900Y15250D01*
X14895Y15302D01*
X14881Y15352D01*
X14859Y15400D01*
X14829Y15442D01*
X14792Y15479D01*
X14750Y15509D01*
X14702Y15531D01*
X14652Y15545D01*
X14600Y15550D01*
Y16650D01*
X14604Y16597D01*
X14618Y16547D01*
X14640Y16500D01*
X14670Y16457D01*
X14707Y16420D01*
X14750Y16390D01*
X14797Y16368D01*
X14847Y16354D01*
X14900Y16350D01*
X14952Y16354D01*
X15002Y16368D01*
X15050Y16390D01*
X15092Y16420D01*
X15129Y16457D01*
X15159Y16500D01*
X15181Y16547D01*
X15195Y16597D01*
X15200Y16650D01*
X15195Y16702D01*
X15181Y16752D01*
X15159Y16800D01*
X15129Y16842D01*
X15092Y16879D01*
X15050Y16909D01*
X15002Y16931D01*
X14952Y16945D01*
X14900Y16950D01*
X14847Y16945D01*
X14797Y16931D01*
X14750Y16909D01*
X14707Y16879D01*
X14670Y16842D01*
X14640Y16800D01*
X14618Y16752D01*
X14604Y16702D01*
X14600Y16650D01*
Y16900D01*
X14678Y16906D01*
X14753Y16927D01*
X14825Y16960D01*
X14889Y17005D01*
X14944Y17060D01*
X14989Y17125D01*
X15022Y17196D01*
X15043Y17271D01*
X15050Y17350D01*
X15043Y17428D01*
X15022Y17503D01*
X14989Y17575D01*
X14944Y17639D01*
X14889Y17694D01*
X14825Y17739D01*
X14753Y17772D01*
X14678Y17793D01*
X14600Y17800D01*
Y17900D01*
X14678Y17906D01*
X14753Y17927D01*
X14825Y17960D01*
X14889Y18005D01*
X14944Y18060D01*
X14989Y18125D01*
X15022Y18196D01*
X15043Y18271D01*
X15050Y18350D01*
X15043Y18428D01*
X15022Y18503D01*
X14989Y18575D01*
X14944Y18639D01*
X14889Y18694D01*
X14825Y18739D01*
X14753Y18772D01*
X14678Y18793D01*
X14600Y18800D01*
Y24700D01*
X15245D01*
Y18598D01*
X15234Y18609D01*
X15210Y18575D01*
X15177Y18503D01*
X15156Y18428D01*
X15150Y18350D01*
X15156Y18271D01*
X15177Y18196D01*
X15210Y18125D01*
X15234Y18090D01*
X15245Y18102D01*
Y17625D01*
X15210Y17575D01*
X15177Y17503D01*
X15156Y17428D01*
X15150Y17350D01*
X15156Y17271D01*
X15177Y17196D01*
X15210Y17125D01*
X15245Y17074D01*
Y4200D01*
G37*
G36*
X15600D02*X15245D01*
Y17074D01*
X15255Y17060D01*
X15310Y17005D01*
X15375Y16960D01*
X15446Y16927D01*
X15521Y16906D01*
X15600Y16900D01*
Y4200D01*
G37*
G36*
X15245Y24700D02*X15600D01*
Y18800D01*
X15521Y18793D01*
X15446Y18772D01*
X15375Y18739D01*
X15340Y18715D01*
X15447Y18608D01*
X15450Y18609D01*
X15497Y18631D01*
X15547Y18645D01*
X15600Y18650D01*
Y18050D01*
X15547Y18054D01*
X15497Y18068D01*
X15450Y18090D01*
X15447Y18091D01*
X15340Y17984D01*
X15375Y17960D01*
X15446Y17927D01*
X15521Y17906D01*
X15600Y17900D01*
Y17800D01*
X15521Y17793D01*
X15446Y17772D01*
X15375Y17739D01*
X15310Y17694D01*
X15255Y17639D01*
X15245Y17625D01*
Y18102D01*
X15341Y18197D01*
X15340Y18200D01*
X15318Y18247D01*
X15304Y18297D01*
X15300Y18350D01*
X15304Y18402D01*
X15318Y18452D01*
X15340Y18500D01*
X15341Y18502D01*
X15245Y18598D01*
Y24700D01*
G37*
G36*
X15954Y4200D02*X15600D01*
Y16900D01*
X15678Y16906D01*
X15753Y16927D01*
X15825Y16960D01*
X15889Y17005D01*
X15944Y17060D01*
X15954Y17074D01*
Y4200D01*
G37*
G36*
Y17625D02*X15944Y17639D01*
X15889Y17694D01*
X15825Y17739D01*
X15753Y17772D01*
X15678Y17793D01*
X15600Y17800D01*
Y17900D01*
X15678Y17906D01*
X15753Y17927D01*
X15825Y17960D01*
X15859Y17984D01*
X15752Y18091D01*
X15750Y18090D01*
X15702Y18068D01*
X15652Y18054D01*
X15600Y18050D01*
Y18650D01*
X15652Y18645D01*
X15702Y18631D01*
X15750Y18609D01*
X15752Y18608D01*
X15859Y18715D01*
X15825Y18739D01*
X15753Y18772D01*
X15678Y18793D01*
X15600Y18800D01*
Y24700D01*
X15954D01*
Y18598D01*
X15858Y18502D01*
X15859Y18500D01*
X15881Y18452D01*
X15895Y18402D01*
X15900Y18350D01*
X15895Y18297D01*
X15881Y18247D01*
X15859Y18200D01*
X15858Y18197D01*
X15954Y18101D01*
Y17625D01*
G37*
G36*
X16363Y4200D02*X15954D01*
Y17074D01*
X15989Y17125D01*
X16022Y17196D01*
X16043Y17271D01*
X16050Y17350D01*
X16043Y17428D01*
X16022Y17503D01*
X15989Y17575D01*
X15954Y17625D01*
Y18101D01*
X15965Y18090D01*
X15989Y18125D01*
X16022Y18196D01*
X16043Y18271D01*
X16050Y18350D01*
X16043Y18428D01*
X16022Y18503D01*
X15989Y18575D01*
X15965Y18609D01*
X15954Y18598D01*
Y24700D01*
X16363D01*
Y12965D01*
X16356Y12973D01*
X16340Y12950D01*
X16318Y12902D01*
X16304Y12852D01*
X16300Y12800D01*
X16304Y12747D01*
X16318Y12697D01*
X16340Y12650D01*
X16356Y12627D01*
X16363Y12634D01*
Y4200D01*
G37*
G36*
X16600D02*X16363D01*
Y12634D01*
X16427Y12698D01*
X16426Y12700D01*
X16412Y12731D01*
X16403Y12765D01*
X16400Y12800D01*
X16403Y12834D01*
X16412Y12868D01*
X16426Y12900D01*
X16427Y12901D01*
X16363Y12965D01*
Y24700D01*
X16600D01*
Y13100D01*
X16547Y13095D01*
X16497Y13081D01*
X16450Y13059D01*
X16427Y13043D01*
X16498Y12972D01*
X16500Y12973D01*
X16531Y12987D01*
X16565Y12997D01*
X16600Y13000D01*
Y12600D01*
X16565Y12603D01*
X16531Y12612D01*
X16500Y12626D01*
X16498Y12627D01*
X16427Y12556D01*
X16450Y12540D01*
X16497Y12518D01*
X16547Y12504D01*
X16600Y12500D01*
Y4200D01*
G37*
G36*
X16800D02*X16600D01*
Y12500D01*
X16652Y12504D01*
X16702Y12518D01*
X16750Y12540D01*
X16773Y12556D01*
X16701Y12627D01*
X16700Y12626D01*
X16668Y12612D01*
X16634Y12603D01*
X16600Y12600D01*
Y13000D01*
X16634Y12997D01*
X16668Y12987D01*
X16700Y12973D01*
X16701Y12972D01*
X16773Y13043D01*
X16750Y13059D01*
X16702Y13081D01*
X16652Y13095D01*
X16600Y13100D01*
Y24700D01*
X16800D01*
Y12929D01*
X16772Y12901D01*
X16773Y12900D01*
X16787Y12868D01*
X16797Y12834D01*
X16800Y12800D01*
X16797Y12765D01*
X16787Y12731D01*
X16773Y12700D01*
X16772Y12698D01*
X16800Y12670D01*
Y4200D01*
G37*
G36*
X15000Y300D02*Y3900D01*
X15417D01*
Y3552D01*
X15380Y3500D01*
X15336Y3405D01*
X15309Y3304D01*
X15300Y3200D01*
X15309Y3095D01*
X15336Y2994D01*
X15380Y2900D01*
X15417Y2847D01*
Y1552D01*
X15380Y1500D01*
X15336Y1405D01*
X15309Y1304D01*
X15300Y1200D01*
X15309Y1095D01*
X15336Y994D01*
X15380Y900D01*
X15417Y847D01*
Y300D01*
X15000D01*
G37*
G36*
X15417Y3900D02*X15900D01*
Y3800D01*
X15795Y3790D01*
X15694Y3763D01*
X15600Y3719D01*
X15533Y3672D01*
X15640Y3565D01*
X15675Y3589D01*
X15746Y3622D01*
X15821Y3643D01*
X15900Y3650D01*
Y2750D01*
X15821Y2756D01*
X15746Y2777D01*
X15675Y2810D01*
X15640Y2834D01*
X15533Y2727D01*
X15600Y2680D01*
X15694Y2636D01*
X15795Y2609D01*
X15900Y2600D01*
Y1800D01*
X15795Y1790D01*
X15694Y1763D01*
X15600Y1719D01*
X15533Y1672D01*
X15640Y1565D01*
X15675Y1589D01*
X15746Y1622D01*
X15821Y1643D01*
X15900Y1650D01*
Y750D01*
X15821Y756D01*
X15746Y777D01*
X15675Y810D01*
X15640Y834D01*
X15533Y727D01*
X15600Y680D01*
X15694Y636D01*
X15795Y609D01*
X15900Y600D01*
Y300D01*
X15417D01*
Y847D01*
X15427Y833D01*
X15534Y940D01*
X15510Y975D01*
X15477Y1046D01*
X15456Y1121D01*
X15450Y1200D01*
X15456Y1278D01*
X15477Y1353D01*
X15510Y1425D01*
X15534Y1459D01*
X15427Y1566D01*
X15417Y1552D01*
Y2847D01*
X15427Y2833D01*
X15534Y2940D01*
X15510Y2975D01*
X15477Y3046D01*
X15456Y3121D01*
X15450Y3200D01*
X15456Y3278D01*
X15477Y3353D01*
X15510Y3425D01*
X15534Y3459D01*
X15427Y3566D01*
X15417Y3552D01*
Y3900D01*
G37*
G36*
X15900D02*X16382D01*
Y3552D01*
X16372Y3566D01*
X16265Y3459D01*
X16289Y3425D01*
X16322Y3353D01*
X16343Y3278D01*
X16350Y3200D01*
X16343Y3121D01*
X16322Y3046D01*
X16289Y2975D01*
X16265Y2940D01*
X16372Y2833D01*
X16382Y2847D01*
Y2503D01*
X16380Y2500D01*
X16336Y2405D01*
X16309Y2304D01*
X16300Y2200D01*
X16309Y2095D01*
X16336Y1994D01*
X16380Y1900D01*
X16382Y1896D01*
Y1552D01*
X16372Y1566D01*
X16265Y1459D01*
X16289Y1425D01*
X16322Y1353D01*
X16343Y1278D01*
X16350Y1200D01*
X16343Y1121D01*
X16322Y1046D01*
X16289Y975D01*
X16265Y940D01*
X16372Y833D01*
X16382Y847D01*
Y300D01*
X15900D01*
Y600D01*
X16004Y609D01*
X16105Y636D01*
X16200Y680D01*
X16266Y727D01*
X16159Y834D01*
X16125Y810D01*
X16053Y777D01*
X15978Y756D01*
X15900Y750D01*
Y1650D01*
X15978Y1643D01*
X16053Y1622D01*
X16125Y1589D01*
X16159Y1565D01*
X16266Y1672D01*
X16200Y1719D01*
X16105Y1763D01*
X16004Y1790D01*
X15900Y1800D01*
Y2600D01*
X16004Y2609D01*
X16105Y2636D01*
X16200Y2680D01*
X16266Y2727D01*
X16159Y2834D01*
X16125Y2810D01*
X16053Y2777D01*
X15978Y2756D01*
X15900Y2750D01*
Y3650D01*
X15978Y3643D01*
X16053Y3622D01*
X16125Y3589D01*
X16159Y3565D01*
X16266Y3672D01*
X16200Y3719D01*
X16105Y3763D01*
X16004Y3790D01*
X15900Y3800D01*
Y3900D01*
G37*
G36*
X16382D02*X16900D01*
Y2800D01*
X16795Y2790D01*
X16694Y2763D01*
X16600Y2719D01*
X16514Y2659D01*
X16440Y2585D01*
X16382Y2503D01*
Y2847D01*
X16419Y2900D01*
X16463Y2994D01*
X16490Y3095D01*
X16500Y3200D01*
X16490Y3304D01*
X16463Y3405D01*
X16419Y3500D01*
X16382Y3552D01*
Y3900D01*
G37*
G36*
Y1896D02*X16440Y1814D01*
X16514Y1740D01*
X16600Y1680D01*
X16694Y1636D01*
X16795Y1609D01*
X16900Y1600D01*
Y300D01*
X16382D01*
Y847D01*
X16419Y900D01*
X16463Y994D01*
X16490Y1095D01*
X16500Y1200D01*
X16490Y1304D01*
X16463Y1405D01*
X16419Y1500D01*
X16382Y1552D01*
Y1896D01*
G37*
G36*
X16900Y3900D02*X17417D01*
Y3552D01*
X17380Y3500D01*
X17336Y3405D01*
X17309Y3304D01*
X17300Y3200D01*
X17309Y3095D01*
X17336Y2994D01*
X17380Y2900D01*
X17417Y2847D01*
Y2503D01*
X17359Y2585D01*
X17285Y2659D01*
X17200Y2719D01*
X17105Y2763D01*
X17004Y2790D01*
X16900Y2800D01*
Y3900D01*
G37*
G36*
X17417Y300D02*X16900D01*
Y1600D01*
X17004Y1609D01*
X17105Y1636D01*
X17200Y1680D01*
X17285Y1740D01*
X17359Y1814D01*
X17417Y1896D01*
Y1552D01*
X17380Y1500D01*
X17336Y1405D01*
X17309Y1304D01*
X17300Y1200D01*
X17309Y1095D01*
X17336Y994D01*
X17380Y900D01*
X17417Y847D01*
Y300D01*
G37*
G36*
Y3900D02*X17900D01*
Y3800D01*
X17795Y3790D01*
X17694Y3763D01*
X17600Y3719D01*
X17533Y3672D01*
X17640Y3565D01*
X17675Y3589D01*
X17746Y3622D01*
X17821Y3643D01*
X17900Y3650D01*
Y2750D01*
X17821Y2756D01*
X17746Y2777D01*
X17675Y2810D01*
X17640Y2834D01*
X17533Y2727D01*
X17600Y2680D01*
X17694Y2636D01*
X17795Y2609D01*
X17900Y2600D01*
Y1800D01*
X17795Y1790D01*
X17694Y1763D01*
X17600Y1719D01*
X17533Y1672D01*
X17640Y1565D01*
X17675Y1589D01*
X17746Y1622D01*
X17821Y1643D01*
X17900Y1650D01*
Y750D01*
X17821Y756D01*
X17746Y777D01*
X17675Y810D01*
X17640Y834D01*
X17533Y727D01*
X17600Y680D01*
X17694Y636D01*
X17795Y609D01*
X17900Y600D01*
Y300D01*
X17417D01*
Y847D01*
X17427Y833D01*
X17534Y940D01*
X17510Y975D01*
X17477Y1046D01*
X17456Y1121D01*
X17450Y1200D01*
X17456Y1278D01*
X17477Y1353D01*
X17510Y1425D01*
X17534Y1459D01*
X17427Y1566D01*
X17417Y1552D01*
Y1896D01*
X17419Y1900D01*
X17463Y1994D01*
X17490Y2095D01*
X17500Y2200D01*
X17490Y2304D01*
X17463Y2405D01*
X17419Y2500D01*
X17417Y2503D01*
Y2847D01*
X17427Y2833D01*
X17534Y2940D01*
X17510Y2975D01*
X17477Y3046D01*
X17456Y3121D01*
X17450Y3200D01*
X17456Y3278D01*
X17477Y3353D01*
X17510Y3425D01*
X17534Y3459D01*
X17427Y3566D01*
X17417Y3552D01*
Y3900D01*
G37*
G36*
X17900D02*X18382D01*
Y3552D01*
X18372Y3566D01*
X18265Y3459D01*
X18289Y3425D01*
X18322Y3353D01*
X18343Y3278D01*
X18350Y3200D01*
X18343Y3121D01*
X18322Y3046D01*
X18289Y2975D01*
X18265Y2940D01*
X18372Y2833D01*
X18382Y2847D01*
Y1552D01*
X18372Y1566D01*
X18265Y1459D01*
X18289Y1425D01*
X18322Y1353D01*
X18343Y1278D01*
X18350Y1200D01*
X18343Y1121D01*
X18322Y1046D01*
X18289Y975D01*
X18265Y940D01*
X18372Y833D01*
X18382Y847D01*
Y300D01*
X17900D01*
Y600D01*
X18004Y609D01*
X18105Y636D01*
X18200Y680D01*
X18266Y727D01*
X18159Y834D01*
X18125Y810D01*
X18053Y777D01*
X17978Y756D01*
X17900Y750D01*
Y1650D01*
X17978Y1643D01*
X18053Y1622D01*
X18125Y1589D01*
X18159Y1565D01*
X18266Y1672D01*
X18200Y1719D01*
X18105Y1763D01*
X18004Y1790D01*
X17900Y1800D01*
Y2600D01*
X18004Y2609D01*
X18105Y2636D01*
X18200Y2680D01*
X18266Y2727D01*
X18159Y2834D01*
X18125Y2810D01*
X18053Y2777D01*
X17978Y2756D01*
X17900Y2750D01*
Y3650D01*
X17978Y3643D01*
X18053Y3622D01*
X18125Y3589D01*
X18159Y3565D01*
X18266Y3672D01*
X18200Y3719D01*
X18105Y3763D01*
X18004Y3790D01*
X17900Y3800D01*
Y3900D01*
G37*
G36*
X18382D02*X20300D01*
Y300D01*
X18382D01*
Y847D01*
X18419Y900D01*
X18463Y994D01*
X18490Y1095D01*
X18500Y1200D01*
X18490Y1304D01*
X18463Y1405D01*
X18419Y1500D01*
X18382Y1552D01*
Y2847D01*
X18419Y2900D01*
X18463Y2994D01*
X18490Y3095D01*
X18500Y3200D01*
X18490Y3304D01*
X18463Y3405D01*
X18419Y3500D01*
X18382Y3552D01*
Y3900D01*
G37*
G36*
X500Y300D02*Y997D01*
X510Y975D01*
X534Y940D01*
X641Y1047D01*
X640Y1050D01*
X618Y1097D01*
X604Y1147D01*
X600Y1200D01*
X604Y1252D01*
X618Y1302D01*
X640Y1350D01*
X641Y1352D01*
X534Y1459D01*
X510Y1425D01*
X500Y1402D01*
Y1997D01*
X510Y1975D01*
X534Y1940D01*
X641Y2047D01*
X640Y2050D01*
X618Y2097D01*
X604Y2147D01*
X600Y2200D01*
X604Y2252D01*
X618Y2302D01*
X640Y2350D01*
X641Y2352D01*
X534Y2459D01*
X510Y2425D01*
X500Y2402D01*
Y2997D01*
X510Y2975D01*
X534Y2940D01*
X641Y3047D01*
X640Y3050D01*
X618Y3097D01*
X604Y3147D01*
X600Y3200D01*
X604Y3252D01*
X618Y3302D01*
X640Y3350D01*
X641Y3352D01*
X534Y3459D01*
X510Y3425D01*
X500Y3402D01*
Y3997D01*
X510Y3975D01*
X534Y3940D01*
X641Y4047D01*
X640Y4050D01*
X618Y4097D01*
X604Y4147D01*
X600Y4200D01*
X604Y4252D01*
X618Y4302D01*
X640Y4350D01*
X641Y4352D01*
X534Y4459D01*
X510Y4425D01*
X500Y4402D01*
Y4700D01*
X900D01*
Y4650D01*
X821Y4643D01*
X746Y4622D01*
X675Y4589D01*
X640Y4565D01*
X747Y4458D01*
X750Y4459D01*
X797Y4481D01*
X847Y4495D01*
X900Y4500D01*
Y3900D01*
X847Y3904D01*
X797Y3918D01*
X750Y3940D01*
X747Y3941D01*
X640Y3834D01*
X675Y3810D01*
X746Y3777D01*
X821Y3756D01*
X900Y3750D01*
Y3650D01*
X821Y3643D01*
X746Y3622D01*
X675Y3589D01*
X640Y3565D01*
X747Y3458D01*
X750Y3459D01*
X797Y3481D01*
X847Y3495D01*
X900Y3500D01*
Y2900D01*
X847Y2904D01*
X797Y2918D01*
X750Y2940D01*
X747Y2941D01*
X640Y2834D01*
X675Y2810D01*
X746Y2777D01*
X821Y2756D01*
X900Y2750D01*
Y2650D01*
X821Y2643D01*
X746Y2622D01*
X675Y2589D01*
X640Y2565D01*
X747Y2458D01*
X750Y2459D01*
X797Y2481D01*
X847Y2495D01*
X900Y2500D01*
Y1900D01*
X847Y1904D01*
X797Y1918D01*
X750Y1940D01*
X747Y1941D01*
X640Y1834D01*
X675Y1810D01*
X746Y1777D01*
X821Y1756D01*
X900Y1750D01*
Y1650D01*
X821Y1643D01*
X746Y1622D01*
X675Y1589D01*
X640Y1565D01*
X747Y1458D01*
X750Y1459D01*
X797Y1481D01*
X847Y1495D01*
X900Y1500D01*
Y900D01*
X847Y904D01*
X797Y918D01*
X750Y940D01*
X747Y941D01*
X640Y834D01*
X675Y810D01*
X746Y777D01*
X821Y756D01*
X900Y750D01*
Y300D01*
X500D01*
G37*
G36*
X900Y4700D02*X1254D01*
Y4448D01*
X1158Y4352D01*
X1159Y4350D01*
X1181Y4302D01*
X1195Y4252D01*
X1200Y4200D01*
X1195Y4147D01*
X1181Y4097D01*
X1159Y4050D01*
X1158Y4047D01*
X1254Y3951D01*
Y3448D01*
X1158Y3352D01*
X1159Y3350D01*
X1181Y3302D01*
X1195Y3252D01*
X1200Y3200D01*
X1195Y3147D01*
X1181Y3097D01*
X1159Y3050D01*
X1158Y3047D01*
X1254Y2951D01*
Y2448D01*
X1158Y2352D01*
X1159Y2350D01*
X1181Y2302D01*
X1195Y2252D01*
X1200Y2200D01*
X1195Y2147D01*
X1181Y2097D01*
X1159Y2050D01*
X1158Y2047D01*
X1254Y1951D01*
Y1448D01*
X1158Y1352D01*
X1159Y1350D01*
X1181Y1302D01*
X1195Y1252D01*
X1200Y1200D01*
X1195Y1147D01*
X1181Y1097D01*
X1159Y1050D01*
X1158Y1047D01*
X1254Y951D01*
Y300D01*
X900D01*
Y750D01*
X978Y756D01*
X1053Y777D01*
X1125Y810D01*
X1159Y834D01*
X1052Y941D01*
X1050Y940D01*
X1002Y918D01*
X952Y904D01*
X900Y900D01*
Y1500D01*
X952Y1495D01*
X1002Y1481D01*
X1050Y1459D01*
X1052Y1458D01*
X1159Y1565D01*
X1125Y1589D01*
X1053Y1622D01*
X978Y1643D01*
X900Y1650D01*
Y1750D01*
X978Y1756D01*
X1053Y1777D01*
X1125Y1810D01*
X1159Y1834D01*
X1052Y1941D01*
X1050Y1940D01*
X1002Y1918D01*
X952Y1904D01*
X900Y1900D01*
Y2500D01*
X952Y2495D01*
X1002Y2481D01*
X1050Y2459D01*
X1052Y2458D01*
X1159Y2565D01*
X1125Y2589D01*
X1053Y2622D01*
X978Y2643D01*
X900Y2650D01*
Y2750D01*
X978Y2756D01*
X1053Y2777D01*
X1125Y2810D01*
X1159Y2834D01*
X1052Y2941D01*
X1050Y2940D01*
X1002Y2918D01*
X952Y2904D01*
X900Y2900D01*
Y3500D01*
X952Y3495D01*
X1002Y3481D01*
X1050Y3459D01*
X1052Y3458D01*
X1159Y3565D01*
X1125Y3589D01*
X1053Y3622D01*
X978Y3643D01*
X900Y3650D01*
Y3750D01*
X978Y3756D01*
X1053Y3777D01*
X1125Y3810D01*
X1159Y3834D01*
X1052Y3941D01*
X1050Y3940D01*
X1002Y3918D01*
X952Y3904D01*
X900Y3900D01*
Y4500D01*
X952Y4495D01*
X1002Y4481D01*
X1050Y4459D01*
X1052Y4458D01*
X1159Y4565D01*
X1125Y4589D01*
X1053Y4622D01*
X978Y4643D01*
X900Y4650D01*
Y4700D01*
G37*
G36*
X1254D02*X1900D01*
Y4650D01*
X1821Y4643D01*
X1746Y4622D01*
X1675Y4589D01*
X1610Y4544D01*
X1555Y4489D01*
X1510Y4425D01*
X1477Y4353D01*
X1456Y4278D01*
X1450Y4200D01*
X1456Y4121D01*
X1477Y4046D01*
X1510Y3975D01*
X1555Y3910D01*
X1610Y3855D01*
X1675Y3810D01*
X1746Y3777D01*
X1821Y3756D01*
X1900Y3750D01*
Y3650D01*
X1821Y3643D01*
X1746Y3622D01*
X1675Y3589D01*
X1610Y3544D01*
X1555Y3489D01*
X1510Y3425D01*
X1477Y3353D01*
X1456Y3278D01*
X1450Y3200D01*
X1456Y3121D01*
X1477Y3046D01*
X1510Y2975D01*
X1555Y2910D01*
X1610Y2855D01*
X1675Y2810D01*
X1746Y2777D01*
X1821Y2756D01*
X1900Y2750D01*
Y2650D01*
X1821Y2643D01*
X1746Y2622D01*
X1675Y2589D01*
X1610Y2544D01*
X1555Y2489D01*
X1510Y2425D01*
X1477Y2353D01*
X1456Y2278D01*
X1450Y2200D01*
X1456Y2121D01*
X1477Y2046D01*
X1510Y1975D01*
X1555Y1910D01*
X1610Y1855D01*
X1675Y1810D01*
X1746Y1777D01*
X1821Y1756D01*
X1900Y1750D01*
Y1648D01*
X1574Y1647D01*
X1548Y1641D01*
X1525Y1629D01*
X1503Y1614D01*
X1485Y1596D01*
X1470Y1575D01*
X1459Y1551D01*
X1452Y1526D01*
X1450Y1500D01*
X1452Y874D01*
X1459Y848D01*
X1470Y825D01*
X1485Y803D01*
X1503Y785D01*
X1525Y770D01*
X1548Y759D01*
X1574Y752D01*
X1600Y750D01*
X1900Y751D01*
Y300D01*
X1254D01*
Y951D01*
X1265Y940D01*
X1289Y975D01*
X1322Y1046D01*
X1343Y1121D01*
X1350Y1200D01*
X1343Y1278D01*
X1322Y1353D01*
X1289Y1425D01*
X1265Y1459D01*
X1254Y1448D01*
Y1951D01*
X1265Y1940D01*
X1289Y1975D01*
X1322Y2046D01*
X1343Y2121D01*
X1350Y2200D01*
X1343Y2278D01*
X1322Y2353D01*
X1289Y2425D01*
X1265Y2459D01*
X1254Y2448D01*
Y2951D01*
X1265Y2940D01*
X1289Y2975D01*
X1322Y3046D01*
X1343Y3121D01*
X1350Y3200D01*
X1343Y3278D01*
X1322Y3353D01*
X1289Y3425D01*
X1265Y3459D01*
X1254Y3448D01*
Y3951D01*
X1265Y3940D01*
X1289Y3975D01*
X1322Y4046D01*
X1343Y4121D01*
X1350Y4200D01*
X1343Y4278D01*
X1322Y4353D01*
X1289Y4425D01*
X1265Y4459D01*
X1254Y4448D01*
Y4700D01*
G37*
G36*
X1900D02*X4500D01*
Y2750D01*
X4421Y2743D01*
X4346Y2722D01*
X4275Y2689D01*
X4210Y2644D01*
X4155Y2589D01*
X4110Y2525D01*
X4077Y2453D01*
X4056Y2378D01*
X4050Y2300D01*
X4056Y2221D01*
X4077Y2146D01*
X4110Y2075D01*
X4155Y2010D01*
X4210Y1955D01*
X4275Y1910D01*
X4346Y1877D01*
X4421Y1856D01*
X4500Y1850D01*
Y1748D01*
X4174Y1747D01*
X4148Y1741D01*
X4125Y1729D01*
X4103Y1714D01*
X4085Y1696D01*
X4070Y1675D01*
X4059Y1651D01*
X4052Y1626D01*
X4050Y1600D01*
X4052Y974D01*
X4059Y948D01*
X4070Y925D01*
X4085Y903D01*
X4103Y885D01*
X4125Y870D01*
X4148Y859D01*
X4174Y852D01*
X4200Y850D01*
X4500Y851D01*
Y300D01*
X1900D01*
Y751D01*
X2226Y752D01*
X2251Y759D01*
X2275Y770D01*
X2296Y785D01*
X2314Y803D01*
X2329Y825D01*
X2341Y848D01*
X2347Y874D01*
X2350Y900D01*
X2347Y1526D01*
X2341Y1551D01*
X2329Y1575D01*
X2314Y1596D01*
X2296Y1614D01*
X2275Y1629D01*
X2251Y1641D01*
X2226Y1647D01*
X2200Y1650D01*
X1900Y1648D01*
Y1750D01*
X1978Y1756D01*
X2053Y1777D01*
X2125Y1810D01*
X2189Y1855D01*
X2244Y1910D01*
X2289Y1975D01*
X2322Y2046D01*
X2343Y2121D01*
X2350Y2200D01*
X2343Y2278D01*
X2322Y2353D01*
X2289Y2425D01*
X2244Y2489D01*
X2189Y2544D01*
X2125Y2589D01*
X2053Y2622D01*
X1978Y2643D01*
X1900Y2650D01*
Y2750D01*
X1978Y2756D01*
X2053Y2777D01*
X2125Y2810D01*
X2189Y2855D01*
X2244Y2910D01*
X2289Y2975D01*
X2322Y3046D01*
X2343Y3121D01*
X2350Y3200D01*
X2343Y3278D01*
X2322Y3353D01*
X2289Y3425D01*
X2244Y3489D01*
X2189Y3544D01*
X2125Y3589D01*
X2053Y3622D01*
X1978Y3643D01*
X1900Y3650D01*
Y3750D01*
X1978Y3756D01*
X2053Y3777D01*
X2125Y3810D01*
X2189Y3855D01*
X2244Y3910D01*
X2289Y3975D01*
X2322Y4046D01*
X2343Y4121D01*
X2350Y4200D01*
X2343Y4278D01*
X2322Y4353D01*
X2289Y4425D01*
X2244Y4489D01*
X2189Y4544D01*
X2125Y4589D01*
X2053Y4622D01*
X1978Y4643D01*
X1900Y4650D01*
Y4700D01*
G37*
G36*
X4500D02*X5500D01*
Y2750D01*
X5421Y2743D01*
X5346Y2722D01*
X5275Y2689D01*
X5210Y2644D01*
X5155Y2589D01*
X5110Y2525D01*
X5077Y2453D01*
X5056Y2378D01*
X5050Y2300D01*
X5056Y2221D01*
X5077Y2146D01*
X5110Y2075D01*
X5155Y2010D01*
X5210Y1955D01*
X5275Y1910D01*
X5346Y1877D01*
X5421Y1856D01*
X5500Y1850D01*
Y1750D01*
X5421Y1743D01*
X5346Y1722D01*
X5275Y1689D01*
X5210Y1644D01*
X5155Y1589D01*
X5110Y1525D01*
X5077Y1453D01*
X5056Y1378D01*
X5050Y1300D01*
X5056Y1221D01*
X5077Y1146D01*
X5110Y1075D01*
X5155Y1010D01*
X5210Y955D01*
X5275Y910D01*
X5346Y877D01*
X5421Y856D01*
X5500Y850D01*
Y300D01*
X4500D01*
Y851D01*
X4826Y852D01*
X4851Y859D01*
X4875Y870D01*
X4896Y885D01*
X4914Y903D01*
X4929Y925D01*
X4941Y948D01*
X4947Y974D01*
X4950Y1000D01*
X4947Y1626D01*
X4941Y1651D01*
X4929Y1675D01*
X4914Y1696D01*
X4896Y1714D01*
X4875Y1729D01*
X4851Y1741D01*
X4826Y1747D01*
X4800Y1750D01*
X4500Y1748D01*
Y1850D01*
X4578Y1856D01*
X4653Y1877D01*
X4725Y1910D01*
X4789Y1955D01*
X4844Y2010D01*
X4889Y2075D01*
X4922Y2146D01*
X4943Y2221D01*
X4950Y2300D01*
X4943Y2378D01*
X4922Y2453D01*
X4889Y2525D01*
X4844Y2589D01*
X4789Y2644D01*
X4725Y2689D01*
X4653Y2722D01*
X4578Y2743D01*
X4500Y2750D01*
Y4700D01*
G37*
G36*
X5500D02*X6500D01*
Y2750D01*
X6421Y2743D01*
X6346Y2722D01*
X6275Y2689D01*
X6210Y2644D01*
X6155Y2589D01*
X6110Y2525D01*
X6077Y2453D01*
X6056Y2378D01*
X6050Y2300D01*
X6056Y2221D01*
X6077Y2146D01*
X6110Y2075D01*
X6155Y2010D01*
X6210Y1955D01*
X6275Y1910D01*
X6346Y1877D01*
X6421Y1856D01*
X6500Y1850D01*
Y1750D01*
X6421Y1743D01*
X6346Y1722D01*
X6275Y1689D01*
X6210Y1644D01*
X6155Y1589D01*
X6110Y1525D01*
X6077Y1453D01*
X6056Y1378D01*
X6050Y1300D01*
X6056Y1221D01*
X6077Y1146D01*
X6110Y1075D01*
X6155Y1010D01*
X6210Y955D01*
X6275Y910D01*
X6346Y877D01*
X6421Y856D01*
X6500Y850D01*
Y300D01*
X5500D01*
Y850D01*
X5578Y856D01*
X5653Y877D01*
X5725Y910D01*
X5789Y955D01*
X5844Y1010D01*
X5889Y1075D01*
X5922Y1146D01*
X5943Y1221D01*
X5950Y1300D01*
X5943Y1378D01*
X5922Y1453D01*
X5889Y1525D01*
X5844Y1589D01*
X5789Y1644D01*
X5725Y1689D01*
X5653Y1722D01*
X5578Y1743D01*
X5500Y1750D01*
Y1850D01*
X5578Y1856D01*
X5653Y1877D01*
X5725Y1910D01*
X5789Y1955D01*
X5844Y2010D01*
X5889Y2075D01*
X5922Y2146D01*
X5943Y2221D01*
X5950Y2300D01*
X5943Y2378D01*
X5922Y2453D01*
X5889Y2525D01*
X5844Y2589D01*
X5789Y2644D01*
X5725Y2689D01*
X5653Y2722D01*
X5578Y2743D01*
X5500Y2750D01*
Y4700D01*
G37*
G36*
X6500D02*X7500D01*
Y2750D01*
X7421Y2743D01*
X7346Y2722D01*
X7275Y2689D01*
X7210Y2644D01*
X7155Y2589D01*
X7110Y2525D01*
X7077Y2453D01*
X7056Y2378D01*
X7050Y2300D01*
X7056Y2221D01*
X7077Y2146D01*
X7110Y2075D01*
X7155Y2010D01*
X7210Y1955D01*
X7275Y1910D01*
X7346Y1877D01*
X7421Y1856D01*
X7500Y1850D01*
Y1750D01*
X7421Y1743D01*
X7346Y1722D01*
X7275Y1689D01*
X7210Y1644D01*
X7155Y1589D01*
X7110Y1525D01*
X7077Y1453D01*
X7056Y1378D01*
X7050Y1300D01*
X7056Y1221D01*
X7077Y1146D01*
X7110Y1075D01*
X7155Y1010D01*
X7210Y955D01*
X7275Y910D01*
X7346Y877D01*
X7421Y856D01*
X7500Y850D01*
Y300D01*
X6500D01*
Y850D01*
X6578Y856D01*
X6653Y877D01*
X6725Y910D01*
X6789Y955D01*
X6844Y1010D01*
X6889Y1075D01*
X6922Y1146D01*
X6943Y1221D01*
X6950Y1300D01*
X6943Y1378D01*
X6922Y1453D01*
X6889Y1525D01*
X6844Y1589D01*
X6789Y1644D01*
X6725Y1689D01*
X6653Y1722D01*
X6578Y1743D01*
X6500Y1750D01*
Y1850D01*
X6578Y1856D01*
X6653Y1877D01*
X6725Y1910D01*
X6789Y1955D01*
X6844Y2010D01*
X6889Y2075D01*
X6922Y2146D01*
X6943Y2221D01*
X6950Y2300D01*
X6943Y2378D01*
X6922Y2453D01*
X6889Y2525D01*
X6844Y2589D01*
X6789Y2644D01*
X6725Y2689D01*
X6653Y2722D01*
X6578Y2743D01*
X6500Y2750D01*
Y4700D01*
G37*
G36*
X7500D02*X8500D01*
Y2750D01*
X8421Y2743D01*
X8346Y2722D01*
X8275Y2689D01*
X8210Y2644D01*
X8155Y2589D01*
X8110Y2525D01*
X8077Y2453D01*
X8056Y2378D01*
X8050Y2300D01*
X8056Y2221D01*
X8077Y2146D01*
X8110Y2075D01*
X8155Y2010D01*
X8210Y1955D01*
X8275Y1910D01*
X8346Y1877D01*
X8421Y1856D01*
X8500Y1850D01*
Y1750D01*
X8421Y1743D01*
X8346Y1722D01*
X8275Y1689D01*
X8210Y1644D01*
X8155Y1589D01*
X8110Y1525D01*
X8077Y1453D01*
X8056Y1378D01*
X8050Y1300D01*
X8056Y1221D01*
X8077Y1146D01*
X8110Y1075D01*
X8155Y1010D01*
X8210Y955D01*
X8275Y910D01*
X8346Y877D01*
X8421Y856D01*
X8500Y850D01*
Y300D01*
X7500D01*
Y850D01*
X7578Y856D01*
X7653Y877D01*
X7725Y910D01*
X7789Y955D01*
X7844Y1010D01*
X7889Y1075D01*
X7922Y1146D01*
X7943Y1221D01*
X7950Y1300D01*
X7943Y1378D01*
X7922Y1453D01*
X7889Y1525D01*
X7844Y1589D01*
X7789Y1644D01*
X7725Y1689D01*
X7653Y1722D01*
X7578Y1743D01*
X7500Y1750D01*
Y1850D01*
X7578Y1856D01*
X7653Y1877D01*
X7725Y1910D01*
X7789Y1955D01*
X7844Y2010D01*
X7889Y2075D01*
X7922Y2146D01*
X7943Y2221D01*
X7950Y2300D01*
X7943Y2378D01*
X7922Y2453D01*
X7889Y2525D01*
X7844Y2589D01*
X7789Y2644D01*
X7725Y2689D01*
X7653Y2722D01*
X7578Y2743D01*
X7500Y2750D01*
Y4700D01*
G37*
G36*
X8500D02*X9500D01*
Y2750D01*
X9421Y2743D01*
X9346Y2722D01*
X9275Y2689D01*
X9210Y2644D01*
X9155Y2589D01*
X9110Y2525D01*
X9077Y2453D01*
X9056Y2378D01*
X9050Y2300D01*
X9056Y2221D01*
X9077Y2146D01*
X9110Y2075D01*
X9155Y2010D01*
X9210Y1955D01*
X9275Y1910D01*
X9346Y1877D01*
X9421Y1856D01*
X9500Y1850D01*
Y1750D01*
X9421Y1743D01*
X9346Y1722D01*
X9275Y1689D01*
X9210Y1644D01*
X9155Y1589D01*
X9110Y1525D01*
X9077Y1453D01*
X9056Y1378D01*
X9050Y1300D01*
X9056Y1221D01*
X9077Y1146D01*
X9110Y1075D01*
X9155Y1010D01*
X9210Y955D01*
X9275Y910D01*
X9346Y877D01*
X9421Y856D01*
X9500Y850D01*
Y300D01*
X8500D01*
Y850D01*
X8578Y856D01*
X8653Y877D01*
X8725Y910D01*
X8789Y955D01*
X8844Y1010D01*
X8889Y1075D01*
X8922Y1146D01*
X8943Y1221D01*
X8950Y1300D01*
X8943Y1378D01*
X8922Y1453D01*
X8889Y1525D01*
X8844Y1589D01*
X8789Y1644D01*
X8725Y1689D01*
X8653Y1722D01*
X8578Y1743D01*
X8500Y1750D01*
Y1850D01*
X8578Y1856D01*
X8653Y1877D01*
X8725Y1910D01*
X8789Y1955D01*
X8844Y2010D01*
X8889Y2075D01*
X8922Y2146D01*
X8943Y2221D01*
X8950Y2300D01*
X8943Y2378D01*
X8922Y2453D01*
X8889Y2525D01*
X8844Y2589D01*
X8789Y2644D01*
X8725Y2689D01*
X8653Y2722D01*
X8578Y2743D01*
X8500Y2750D01*
Y4700D01*
G37*
G36*
X9500D02*X10500D01*
Y2750D01*
X10421Y2743D01*
X10346Y2722D01*
X10275Y2689D01*
X10210Y2644D01*
X10155Y2589D01*
X10110Y2525D01*
X10077Y2453D01*
X10056Y2378D01*
X10050Y2300D01*
X10056Y2221D01*
X10077Y2146D01*
X10110Y2075D01*
X10155Y2010D01*
X10210Y1955D01*
X10275Y1910D01*
X10346Y1877D01*
X10421Y1856D01*
X10500Y1850D01*
Y1750D01*
X10421Y1743D01*
X10346Y1722D01*
X10275Y1689D01*
X10210Y1644D01*
X10155Y1589D01*
X10110Y1525D01*
X10077Y1453D01*
X10056Y1378D01*
X10050Y1300D01*
X10056Y1221D01*
X10077Y1146D01*
X10110Y1075D01*
X10155Y1010D01*
X10210Y955D01*
X10275Y910D01*
X10346Y877D01*
X10421Y856D01*
X10500Y850D01*
Y300D01*
X9500D01*
Y850D01*
X9578Y856D01*
X9653Y877D01*
X9725Y910D01*
X9789Y955D01*
X9844Y1010D01*
X9889Y1075D01*
X9922Y1146D01*
X9943Y1221D01*
X9950Y1300D01*
X9943Y1378D01*
X9922Y1453D01*
X9889Y1525D01*
X9844Y1589D01*
X9789Y1644D01*
X9725Y1689D01*
X9653Y1722D01*
X9578Y1743D01*
X9500Y1750D01*
Y1850D01*
X9578Y1856D01*
X9653Y1877D01*
X9725Y1910D01*
X9789Y1955D01*
X9844Y2010D01*
X9889Y2075D01*
X9922Y2146D01*
X9943Y2221D01*
X9950Y2300D01*
X9943Y2378D01*
X9922Y2453D01*
X9889Y2525D01*
X9844Y2589D01*
X9789Y2644D01*
X9725Y2689D01*
X9653Y2722D01*
X9578Y2743D01*
X9500Y2750D01*
Y4700D01*
G37*
G36*
X10500D02*X11500D01*
Y2750D01*
X11421Y2743D01*
X11346Y2722D01*
X11275Y2689D01*
X11210Y2644D01*
X11155Y2589D01*
X11110Y2525D01*
X11077Y2453D01*
X11056Y2378D01*
X11050Y2300D01*
X11056Y2221D01*
X11077Y2146D01*
X11110Y2075D01*
X11155Y2010D01*
X11210Y1955D01*
X11275Y1910D01*
X11346Y1877D01*
X11421Y1856D01*
X11500Y1850D01*
Y1750D01*
X11421Y1743D01*
X11346Y1722D01*
X11275Y1689D01*
X11210Y1644D01*
X11155Y1589D01*
X11110Y1525D01*
X11077Y1453D01*
X11056Y1378D01*
X11050Y1300D01*
X11056Y1221D01*
X11077Y1146D01*
X11110Y1075D01*
X11155Y1010D01*
X11210Y955D01*
X11275Y910D01*
X11346Y877D01*
X11421Y856D01*
X11500Y850D01*
Y300D01*
X10500D01*
Y850D01*
X10578Y856D01*
X10653Y877D01*
X10725Y910D01*
X10789Y955D01*
X10844Y1010D01*
X10889Y1075D01*
X10922Y1146D01*
X10943Y1221D01*
X10950Y1300D01*
X10943Y1378D01*
X10922Y1453D01*
X10889Y1525D01*
X10844Y1589D01*
X10789Y1644D01*
X10725Y1689D01*
X10653Y1722D01*
X10578Y1743D01*
X10500Y1750D01*
Y1850D01*
X10578Y1856D01*
X10653Y1877D01*
X10725Y1910D01*
X10789Y1955D01*
X10844Y2010D01*
X10889Y2075D01*
X10922Y2146D01*
X10943Y2221D01*
X10950Y2300D01*
X10943Y2378D01*
X10922Y2453D01*
X10889Y2525D01*
X10844Y2589D01*
X10789Y2644D01*
X10725Y2689D01*
X10653Y2722D01*
X10578Y2743D01*
X10500Y2750D01*
Y4700D01*
G37*
G36*
X11500D02*X12500D01*
Y2750D01*
X12421Y2743D01*
X12346Y2722D01*
X12275Y2689D01*
X12210Y2644D01*
X12155Y2589D01*
X12110Y2525D01*
X12077Y2453D01*
X12056Y2378D01*
X12050Y2300D01*
X12056Y2221D01*
X12077Y2146D01*
X12110Y2075D01*
X12155Y2010D01*
X12210Y1955D01*
X12275Y1910D01*
X12346Y1877D01*
X12421Y1856D01*
X12500Y1850D01*
Y1750D01*
X12421Y1743D01*
X12346Y1722D01*
X12275Y1689D01*
X12210Y1644D01*
X12155Y1589D01*
X12110Y1525D01*
X12077Y1453D01*
X12056Y1378D01*
X12050Y1300D01*
X12056Y1221D01*
X12077Y1146D01*
X12110Y1075D01*
X12155Y1010D01*
X12210Y955D01*
X12275Y910D01*
X12346Y877D01*
X12421Y856D01*
X12500Y850D01*
Y300D01*
X11500D01*
Y850D01*
X11578Y856D01*
X11653Y877D01*
X11725Y910D01*
X11789Y955D01*
X11844Y1010D01*
X11889Y1075D01*
X11922Y1146D01*
X11943Y1221D01*
X11950Y1300D01*
X11943Y1378D01*
X11922Y1453D01*
X11889Y1525D01*
X11844Y1589D01*
X11789Y1644D01*
X11725Y1689D01*
X11653Y1722D01*
X11578Y1743D01*
X11500Y1750D01*
Y1850D01*
X11578Y1856D01*
X11653Y1877D01*
X11725Y1910D01*
X11789Y1955D01*
X11844Y2010D01*
X11889Y2075D01*
X11922Y2146D01*
X11943Y2221D01*
X11950Y2300D01*
X11943Y2378D01*
X11922Y2453D01*
X11889Y2525D01*
X11844Y2589D01*
X11789Y2644D01*
X11725Y2689D01*
X11653Y2722D01*
X11578Y2743D01*
X11500Y2750D01*
Y4700D01*
G37*
G36*
X12500D02*X13145D01*
Y2548D01*
X13134Y2559D01*
X13110Y2525D01*
X13077Y2453D01*
X13056Y2378D01*
X13050Y2300D01*
X13056Y2221D01*
X13077Y2146D01*
X13110Y2075D01*
X13134Y2040D01*
X13145Y2052D01*
Y1575D01*
X13110Y1525D01*
X13077Y1453D01*
X13056Y1378D01*
X13050Y1300D01*
X13056Y1221D01*
X13077Y1146D01*
X13110Y1075D01*
X13145Y1024D01*
Y300D01*
X12500D01*
Y850D01*
X12578Y856D01*
X12653Y877D01*
X12725Y910D01*
X12789Y955D01*
X12844Y1010D01*
X12889Y1075D01*
X12922Y1146D01*
X12943Y1221D01*
X12950Y1300D01*
X12943Y1378D01*
X12922Y1453D01*
X12889Y1525D01*
X12844Y1589D01*
X12789Y1644D01*
X12725Y1689D01*
X12653Y1722D01*
X12578Y1743D01*
X12500Y1750D01*
Y1850D01*
X12578Y1856D01*
X12653Y1877D01*
X12725Y1910D01*
X12789Y1955D01*
X12844Y2010D01*
X12889Y2075D01*
X12922Y2146D01*
X12943Y2221D01*
X12950Y2300D01*
X12943Y2378D01*
X12922Y2453D01*
X12889Y2525D01*
X12844Y2589D01*
X12789Y2644D01*
X12725Y2689D01*
X12653Y2722D01*
X12578Y2743D01*
X12500Y2750D01*
Y4700D01*
G37*
G36*
X13145D02*X13500D01*
Y2750D01*
X13421Y2743D01*
X13346Y2722D01*
X13275Y2689D01*
X13240Y2665D01*
X13347Y2558D01*
X13350Y2559D01*
X13397Y2581D01*
X13447Y2595D01*
X13500Y2600D01*
Y2000D01*
X13447Y2004D01*
X13397Y2018D01*
X13350Y2040D01*
X13347Y2041D01*
X13240Y1934D01*
X13275Y1910D01*
X13346Y1877D01*
X13421Y1856D01*
X13500Y1850D01*
Y1750D01*
X13421Y1743D01*
X13346Y1722D01*
X13275Y1689D01*
X13210Y1644D01*
X13155Y1589D01*
X13145Y1575D01*
Y2052D01*
X13241Y2147D01*
X13240Y2150D01*
X13218Y2197D01*
X13204Y2247D01*
X13200Y2300D01*
X13204Y2352D01*
X13218Y2402D01*
X13240Y2450D01*
X13241Y2452D01*
X13145Y2548D01*
Y4700D01*
G37*
G36*
Y1024D02*X13155Y1010D01*
X13210Y955D01*
X13275Y910D01*
X13346Y877D01*
X13421Y856D01*
X13500Y850D01*
Y300D01*
X13145D01*
Y1024D01*
G37*
G36*
X13500Y4700D02*X13854D01*
Y2548D01*
X13758Y2452D01*
X13759Y2450D01*
X13781Y2402D01*
X13795Y2352D01*
X13800Y2300D01*
X13795Y2247D01*
X13781Y2197D01*
X13759Y2150D01*
X13758Y2147D01*
X13854Y2051D01*
Y1575D01*
X13844Y1589D01*
X13789Y1644D01*
X13725Y1689D01*
X13653Y1722D01*
X13578Y1743D01*
X13500Y1750D01*
Y1850D01*
X13578Y1856D01*
X13653Y1877D01*
X13725Y1910D01*
X13759Y1934D01*
X13652Y2041D01*
X13650Y2040D01*
X13602Y2018D01*
X13552Y2004D01*
X13500Y2000D01*
Y2600D01*
X13552Y2595D01*
X13602Y2581D01*
X13650Y2559D01*
X13652Y2558D01*
X13759Y2665D01*
X13725Y2689D01*
X13653Y2722D01*
X13578Y2743D01*
X13500Y2750D01*
Y4700D01*
G37*
G36*
X13854Y300D02*X13500D01*
Y850D01*
X13578Y856D01*
X13653Y877D01*
X13725Y910D01*
X13789Y955D01*
X13844Y1010D01*
X13854Y1024D01*
Y300D01*
G37*
G36*
Y4700D02*X14500D01*
Y300D01*
X13854D01*
Y1024D01*
X13889Y1075D01*
X13922Y1146D01*
X13943Y1221D01*
X13950Y1300D01*
X13943Y1378D01*
X13922Y1453D01*
X13889Y1525D01*
X13854Y1575D01*
Y2051D01*
X13865Y2040D01*
X13889Y2075D01*
X13922Y2146D01*
X13943Y2221D01*
X13950Y2300D01*
X13943Y2378D01*
X13922Y2453D01*
X13889Y2525D01*
X13865Y2559D01*
X13854Y2548D01*
Y4700D01*
G37*
G54D13*X1900Y3200D03*
X900D03*
X1900Y4200D03*
X900D03*
G54D14*X1900Y1200D03*
G54D13*X900D03*
X1900Y2200D03*
X900D03*
X1900Y5200D03*
X900D03*
Y6200D03*
Y7200D03*
Y8200D03*
G54D14*X1900Y11300D03*
G54D13*Y12300D03*
Y13300D03*
Y14300D03*
Y15300D03*
Y16300D03*
X900Y11300D03*
Y12300D03*
Y13300D03*
Y14300D03*
Y15300D03*
Y16300D03*
X1900Y17300D03*
X900D03*
X1900Y18300D03*
X900D03*
X11200Y13350D03*
Y14350D03*
Y15350D03*
G54D14*X8600Y17350D03*
G54D13*Y18350D03*
X9600Y17350D03*
X10600D03*
X11600D03*
X9600Y18350D03*
X10600D03*
X11600D03*
X12600Y17350D03*
X13600D03*
X14600D03*
X15600D03*
X12600Y18350D03*
X13600D03*
X14600D03*
X15600D03*
X1900Y6200D03*
Y7200D03*
Y8200D03*
G54D14*X11200Y12350D03*
X18900Y15400D03*
G54D13*Y16400D03*
X19900Y15400D03*
Y16400D03*
X20900Y15400D03*
X21900D03*
X22900D03*
X20900Y16400D03*
X21900D03*
X22900D03*
G54D15*X16900Y2200D03*
X15900Y1200D03*
Y3200D03*
X17900Y1200D03*
X22600Y2200D03*
X21600Y1200D03*
X23600D03*
X17900Y3200D03*
X21600D03*
X23600D03*
G54D14*X4500Y1300D03*
G54D13*Y2300D03*
X5500Y1300D03*
Y2300D03*
X6500Y1300D03*
Y2300D03*
X7500Y1300D03*
Y2300D03*
X8500Y1300D03*
Y2300D03*
X9500Y1300D03*
X10500D03*
X11500D03*
X12500D03*
X13500D03*
X9500Y2300D03*
X10500D03*
X11500D03*
X12500D03*
X13500D03*
G54D16*X13200Y20750D03*
X11100Y21350D03*
X9000Y11100D03*
Y9300D03*
X10450Y12250D03*
X14900Y16650D03*
X14600Y15250D03*
X13000Y15150D03*
X13400Y14550D03*
X17400Y12400D03*
X18400D03*
X16600Y12800D03*
X18900Y12900D03*
X20100D03*
X19700Y13600D03*
X21700Y12300D03*
Y7600D03*
X19300Y7500D03*
X20800Y7600D03*
X18100D03*
X17800Y6600D03*
X22300Y7100D03*
X20100Y8400D03*
G54D18*G54D16*G54D13*G54D16*G54D19*G54D20*G54D19*G54D20*G54D19*G54D20*G54D19*G54D20*M02*
