G04 start of page 5 for group 3 idx 2
G04 Title: TX Daughterboard, Vcc-sldr *
G04 Creator: pcb 20070208 *
G04 CreationDate: Mon Dec 24 21:52:14 2007 UTC *
G04 For: matt *
G04 Format: Gerber/RS-274X *
G04 PCB-Dimensions: 275000 250000 *
G04 PCB-Coordinate-Origin: lower left *
%MOIN*%
%FSLAX24Y24*%
%LNGROUP3*%
%ADD11C,0.0100*%
%ADD13C,0.0600*%
%ADD14R,0.0600X0.0600*%
%ADD15C,0.0900*%
%ADD16C,0.0400*%
%ADD18C,0.0560*%
%ADD19C,0.1280*%
%ADD20C,0.0200*%
G54D11*X12600Y18350D02*X12100Y17850D01*
X10600Y17350D02*X11100Y17850D01*
X8600Y17350D02*Y15150D01*
X11100Y17850D02*Y21350D01*
X8600Y15550D02*Y12700D01*
X1900Y14300D02*X2500Y13700D01*
X2700Y14300D02*X1900Y15300D01*
X3000Y13400D02*Y15000D01*
X3200Y13500D02*Y16100D01*
X2500Y13700D02*Y13100D01*
X2700Y13400D02*Y14300D01*
X3000Y15000D02*X1900Y16300D01*
X3200Y16100D02*X2200Y17300D01*
X1900Y17100D01*
X3600Y13600D02*Y16300D01*
X1900Y18200D01*
Y18100D01*
X5500Y2300D02*X5000Y1800D01*
X3000D01*
X2400Y1200D01*
X1900D01*
X5600Y3200D02*X1900D01*
X6000Y3600D02*X2700D01*
X6200Y3900D02*X3200D01*
X1900Y5200D01*
X2700Y3600D02*X2100Y4200D01*
X1900D01*
X6500Y2300D02*X5600Y3200D01*
X7000Y2600D02*X6000Y3600D01*
X7500Y2600D02*X6200Y3900D01*
X9500Y2300D02*Y3400D01*
X7500Y1300D02*X7000Y1800D01*
Y2600D01*
X7500Y2300D02*Y2600D01*
X10500Y1300D02*X10000Y1800D01*
Y4000D01*
X10500Y2300D02*Y4500D01*
X11500Y1300D02*X11000Y1800D01*
Y4600D01*
X11500Y2300D02*Y4600D01*
X12500Y1300D02*X12000Y1800D01*
Y4400D01*
X12500Y2300D02*Y4200D01*
X13500Y1300D02*X13000Y1800D01*
Y4200D01*
X9500Y3400D02*X1800Y11300D01*
X10000Y4000D02*X1900Y12300D01*
X10500Y4500D02*X1900Y13300D01*
X11500Y4600D02*X2700Y13400D01*
X12000Y4400D02*X3000Y13400D01*
X12500Y4200D02*X3200Y13500D01*
X11000Y4600D02*X2500Y13100D01*
X13000Y4200D02*X3600Y13600D01*
X8600Y12700D02*X9050Y12250D01*
X10450D01*
G54D13*X1900Y3200D03*
X900D03*
X1900Y4200D03*
X900D03*
G54D14*X1900Y1200D03*
G54D13*X900D03*
X1900Y2200D03*
X900D03*
X1900Y5200D03*
X900D03*
Y6200D03*
Y7200D03*
Y8200D03*
G54D14*X1900Y11300D03*
G54D13*Y12300D03*
Y13300D03*
Y14300D03*
Y15300D03*
Y16300D03*
X900Y11300D03*
Y12300D03*
Y13300D03*
Y14300D03*
Y15300D03*
Y16300D03*
X1900Y17300D03*
X900D03*
X1900Y18300D03*
X900D03*
X11200Y13350D03*
Y14350D03*
Y15350D03*
G54D14*X8600Y17350D03*
G54D13*Y18350D03*
X9600Y17350D03*
X10600D03*
X11600D03*
X9600Y18350D03*
X10600D03*
X11600D03*
X12600Y17350D03*
X13600D03*
X14600D03*
X15600D03*
X12600Y18350D03*
X13600D03*
X14600D03*
X15600D03*
X1900Y6200D03*
Y7200D03*
Y8200D03*
G54D14*X11200Y12350D03*
X18900Y15400D03*
G54D13*Y16400D03*
X19900Y15400D03*
Y16400D03*
X20900Y15400D03*
X21900D03*
X22900D03*
X20900Y16400D03*
X21900D03*
X22900D03*
G54D15*X16900Y2200D03*
X15900Y1200D03*
Y3200D03*
X17900Y1200D03*
X22600Y2200D03*
X21600Y1200D03*
X23600D03*
X17900Y3200D03*
X21600D03*
X23600D03*
G54D14*X4500Y1300D03*
G54D13*Y2300D03*
X5500Y1300D03*
Y2300D03*
X6500Y1300D03*
Y2300D03*
X7500Y1300D03*
Y2300D03*
X8500Y1300D03*
Y2300D03*
X9500Y1300D03*
X10500D03*
X11500D03*
X12500D03*
X13500D03*
X9500Y2300D03*
X10500D03*
X11500D03*
X12500D03*
X13500D03*
G54D16*X13200Y20750D03*
X11100Y21350D03*
X9000Y11100D03*
Y9300D03*
X10450Y12250D03*
X14900Y16650D03*
X14600Y15250D03*
X13000Y15150D03*
X13400Y14550D03*
X17400Y12400D03*
X18400D03*
X16600Y12800D03*
X18900Y12900D03*
X20100D03*
X19700Y13600D03*
X21700Y12300D03*
Y7600D03*
X19300Y7500D03*
X20800Y7600D03*
X18100D03*
X17800Y6600D03*
X22300Y7100D03*
X20100Y8400D03*
G54D18*G54D16*G54D13*G54D16*G54D19*G54D20*G54D19*G54D20*G54D19*G54D20*G54D19*G54D20*M02*
