G04 start of page 14 for group -3984 idx -3984
G04 Title: TX Daughterboard, fab *
G04 Creator: pcb 20070208 *
G04 CreationDate: Mon Dec 24 21:52:14 2007 UTC *
G04 For: matt *
G04 Format: Gerber/RS-274X *
G04 PCB-Dimensions: 275000 250000 *
G04 PCB-Coordinate-Origin: lower left *
%MOIN*%
%FSLAX24Y24*%
%LNFAB*%
%ADD11C,0.0100*%
%ADD12C,0.0060*%
%ADD29R,0.0080X0.0080*%
G54D29*X1340Y23660D02*X1660D01*
X1340D02*Y23340D01*
X1660D01*
Y23660D02*Y23340D01*
X25840Y23660D02*X26160D01*
X25840D02*Y23340D01*
X26160D01*
Y23660D02*Y23340D01*
X25840Y1660D02*X26160D01*
X25840D02*Y1340D01*
X26160D01*
Y1660D02*Y1340D01*
X5340Y5660D02*X5660D01*
X5340D02*Y5340D01*
X5660D01*
Y5660D02*Y5340D01*
X1340Y26285D02*X1660D01*
X1340D02*Y25965D01*
X1660D01*
Y26285D02*Y25965D01*
G54D12*X14000Y26500D02*Y25900D01*
Y26500D02*Y26425D01*
X14375Y26050D01*
Y26500D02*Y25900D01*
X14555Y26425D02*Y25975D01*
Y26425D02*X14630Y26500D01*
X14780D01*
X14855Y26425D01*
Y25975D01*
X14780Y25900D02*X14855Y25975D01*
X14630Y25900D02*X14780D01*
X14555Y25975D02*X14630Y25900D01*
X14000Y25574D02*X15035D01*
X9800Y26200D02*X10100Y26500D01*
X9800Y26200D02*X10175D01*
X10100Y26500D02*Y25900D01*
X9800Y25574D02*X10355D01*
X4500Y25975D02*X4575Y25900D01*
X4500Y26425D02*Y25975D01*
Y26425D02*X4575Y26500D01*
X4725D01*
X4800Y26425D01*
Y25975D01*
X4725Y25900D02*X4800Y25975D01*
X4575Y25900D02*X4725D01*
X4500Y26050D02*X4800Y26350D01*
X4980Y25900D02*X5055D01*
X5310D02*X5460D01*
X5385Y26500D02*Y25900D01*
X5235Y26350D02*X5385Y26500D01*
X5640Y26425D02*X5715Y26500D01*
X5940D01*
X6015Y26425D01*
Y26275D01*
X5640Y25900D02*X6015Y26275D01*
X5640Y25900D02*X6015D01*
X6195Y25975D02*X6270Y25900D01*
X6195Y26125D02*Y25975D01*
Y26125D02*X6270Y26200D01*
X6420D01*
X6495Y26125D01*
Y25975D01*
X6420Y25900D02*X6495Y25975D01*
X6270Y25900D02*X6420D01*
X6195Y26275D02*X6270Y26200D01*
X6195Y26425D02*Y26275D01*
Y26425D02*X6270Y26500D01*
X6420D01*
X6495Y26425D01*
Y26275D01*
X6420Y26200D02*X6495Y26275D01*
X4500Y25574D02*X6675D01*
X22520Y2200D02*G75*G03X22680Y2200I80J0D01*G01*
G75*G03X22520Y2200I-80J0D01*G01*
X21520Y1200D02*G75*G03X21680Y1200I80J0D01*G01*
G75*G03X21520Y1200I-80J0D01*G01*
Y3200D02*G75*G03X21680Y3200I80J0D01*G01*
G75*G03X21520Y3200I-80J0D01*G01*
X23520Y1200D02*G75*G03X23680Y1200I80J0D01*G01*
G75*G03X23520Y1200I-80J0D01*G01*
Y3200D02*G75*G03X23680Y3200I80J0D01*G01*
G75*G03X23520Y3200I-80J0D01*G01*
X16820Y2200D02*G75*G03X16980Y2200I80J0D01*G01*
G75*G03X16820Y2200I-80J0D01*G01*
X15820Y1200D02*G75*G03X15980Y1200I80J0D01*G01*
G75*G03X15820Y1200I-80J0D01*G01*
Y3200D02*G75*G03X15980Y3200I80J0D01*G01*
G75*G03X15820Y3200I-80J0D01*G01*
X17820Y1200D02*G75*G03X17980Y1200I80J0D01*G01*
G75*G03X17820Y1200I-80J0D01*G01*
Y3200D02*G75*G03X17980Y3200I80J0D01*G01*
G75*G03X17820Y3200I-80J0D01*G01*
X1420Y27625D02*G75*G03X1580Y27625I80J0D01*G01*
G75*G03X1420Y27625I-80J0D01*G01*
X13500Y28000D02*Y27925D01*
X13650Y27775D01*
X13800Y27925D01*
Y28000D02*Y27925D01*
X13650Y27775D02*Y27400D01*
X13980Y27700D02*X14205D01*
X13980Y27400D02*X14280D01*
X13980Y28000D02*Y27400D01*
Y28000D02*X14280D01*
X14760D02*X14835Y27925D01*
X14535Y28000D02*X14760D01*
X14460Y27925D02*X14535Y28000D01*
X14460Y27925D02*Y27775D01*
X14535Y27700D01*
X14760D01*
X14835Y27625D01*
Y27475D01*
X14760Y27400D02*X14835Y27475D01*
X14535Y27400D02*X14760D01*
X14460Y27475D02*X14535Y27400D01*
X13500Y27074D02*X15015D01*
X9875Y27400D02*X10025D01*
X9950Y28000D02*Y27400D01*
X9800Y27850D02*X9950Y28000D01*
X10205Y27475D02*X10280Y27400D01*
X10205Y27925D02*Y27475D01*
Y27925D02*X10280Y28000D01*
X10430D01*
X10505Y27925D01*
Y27475D01*
X10430Y27400D02*X10505Y27475D01*
X10280Y27400D02*X10430D01*
X10205Y27550D02*X10505Y27850D01*
X9800Y27074D02*X10685D01*
X4500Y27475D02*X4575Y27400D01*
X4500Y27925D02*Y27475D01*
Y27925D02*X4575Y28000D01*
X4725D01*
X4800Y27925D01*
Y27475D01*
X4725Y27400D02*X4800Y27475D01*
X4575Y27400D02*X4725D01*
X4500Y27550D02*X4800Y27850D01*
X4980Y27400D02*X5055D01*
X5235Y27475D02*X5310Y27400D01*
X5235Y27925D02*Y27475D01*
Y27925D02*X5310Y28000D01*
X5460D01*
X5535Y27925D01*
Y27475D01*
X5460Y27400D02*X5535Y27475D01*
X5310Y27400D02*X5460D01*
X5235Y27550D02*X5535Y27850D01*
X5940Y28000D02*X6015Y27925D01*
X5790Y28000D02*X5940D01*
X5715Y27925D02*X5790Y28000D01*
X5715Y27925D02*Y27475D01*
X5790Y27400D01*
X5940Y27700D02*X6015Y27625D01*
X5715Y27700D02*X5940D01*
X5790Y27400D02*X5940D01*
X6015Y27475D01*
Y27625D02*Y27475D01*
X6195D02*X6270Y27400D01*
X6195Y27925D02*Y27475D01*
Y27925D02*X6270Y28000D01*
X6420D01*
X6495Y27925D01*
Y27475D01*
X6420Y27400D02*X6495Y27475D01*
X6270Y27400D02*X6420D01*
X6195Y27550D02*X6495Y27850D01*
X4500Y27074D02*X6675D01*
X8710Y10420D02*X8950Y10180D01*
X8710D02*X8950Y10420D01*
X22253D02*X22493Y10180D01*
X22253D02*X22493Y10420D01*
X1380Y29245D02*X1620Y29005D01*
X1380D02*X1620Y29245D01*
X14000Y29500D02*Y28900D01*
Y29500D02*Y29425D01*
X14375Y29050D01*
Y29500D02*Y28900D01*
X14555Y29425D02*Y28975D01*
Y29425D02*X14630Y29500D01*
X14780D01*
X14855Y29425D01*
Y28975D01*
X14780Y28900D02*X14855Y28975D01*
X14630Y28900D02*X14780D01*
X14555Y28975D02*X14630Y28900D01*
X14000Y28574D02*X15035D01*
X9800Y29425D02*X9875Y29500D01*
X10100D01*
X10175Y29425D01*
Y29275D01*
X9800Y28900D02*X10175Y29275D01*
X9800Y28900D02*X10175D01*
X9800Y28574D02*X10355D01*
X4500Y28975D02*X4575Y28900D01*
X4500Y29425D02*Y28975D01*
Y29425D02*X4575Y29500D01*
X4725D01*
X4800Y29425D01*
Y28975D01*
X4725Y28900D02*X4800Y28975D01*
X4575Y28900D02*X4725D01*
X4500Y29050D02*X4800Y29350D01*
X4980Y28900D02*X5055D01*
X5235Y28975D02*X5310Y28900D01*
X5235Y29425D02*Y28975D01*
Y29425D02*X5310Y29500D01*
X5460D01*
X5535Y29425D01*
Y28975D01*
X5460Y28900D02*X5535Y28975D01*
X5310Y28900D02*X5460D01*
X5235Y29050D02*X5535Y29350D01*
X5715Y29500D02*X6015D01*
X5715D02*Y29200D01*
X5790Y29275D01*
X5940D01*
X6015Y29200D01*
Y28975D01*
X5940Y28900D02*X6015Y28975D01*
X5790Y28900D02*X5940D01*
X5715Y28975D02*X5790Y28900D01*
X6420Y29500D02*X6495Y29425D01*
X6270Y29500D02*X6420D01*
X6195Y29425D02*X6270Y29500D01*
X6195Y29425D02*Y28975D01*
X6270Y28900D01*
X6420Y29200D02*X6495Y29125D01*
X6195Y29200D02*X6420D01*
X6270Y28900D02*X6420D01*
X6495Y28975D01*
Y29125D02*Y28975D01*
X4500Y28574D02*X6675D01*
X8600Y17510D02*Y17190D01*
X8440Y17350D02*X8760D01*
X8600Y18510D02*Y18190D01*
X8440Y18350D02*X8760D01*
X9600Y17510D02*Y17190D01*
X9440Y17350D02*X9760D01*
X9600Y18510D02*Y18190D01*
X9440Y18350D02*X9760D01*
X10600Y17510D02*Y17190D01*
X10440Y17350D02*X10760D01*
X10600Y18510D02*Y18190D01*
X10440Y18350D02*X10760D01*
X11600Y17510D02*Y17190D01*
X11440Y17350D02*X11760D01*
X11600Y18510D02*Y18190D01*
X11440Y18350D02*X11760D01*
X12600Y17510D02*Y17190D01*
X12440Y17350D02*X12760D01*
X12600Y18510D02*Y18190D01*
X12440Y18350D02*X12760D01*
X13600Y17510D02*Y17190D01*
X13440Y17350D02*X13760D01*
X13600Y18510D02*Y18190D01*
X13440Y18350D02*X13760D01*
X14600Y17510D02*Y17190D01*
X14440Y17350D02*X14760D01*
X14600Y18510D02*Y18190D01*
X14440Y18350D02*X14760D01*
X15600Y17510D02*Y17190D01*
X15440Y17350D02*X15760D01*
X15600Y18510D02*Y18190D01*
X15440Y18350D02*X15760D01*
X1900Y11460D02*Y11140D01*
X1740Y11300D02*X2060D01*
X900Y11460D02*Y11140D01*
X740Y11300D02*X1060D01*
X1900Y12460D02*Y12140D01*
X1740Y12300D02*X2060D01*
X900Y12460D02*Y12140D01*
X740Y12300D02*X1060D01*
X1900Y13460D02*Y13140D01*
X1740Y13300D02*X2060D01*
X900Y13460D02*Y13140D01*
X740Y13300D02*X1060D01*
X1900Y14460D02*Y14140D01*
X1740Y14300D02*X2060D01*
X900Y14460D02*Y14140D01*
X740Y14300D02*X1060D01*
X1900Y15460D02*Y15140D01*
X1740Y15300D02*X2060D01*
X900Y15460D02*Y15140D01*
X740Y15300D02*X1060D01*
X1900Y16460D02*Y16140D01*
X1740Y16300D02*X2060D01*
X900Y16460D02*Y16140D01*
X740Y16300D02*X1060D01*
X1900Y17460D02*Y17140D01*
X1740Y17300D02*X2060D01*
X900Y17460D02*Y17140D01*
X740Y17300D02*X1060D01*
X1900Y18460D02*Y18140D01*
X1740Y18300D02*X2060D01*
X900Y18460D02*Y18140D01*
X740Y18300D02*X1060D01*
X4500Y1460D02*Y1140D01*
X4340Y1300D02*X4660D01*
X4500Y2460D02*Y2140D01*
X4340Y2300D02*X4660D01*
X5500Y1460D02*Y1140D01*
X5340Y1300D02*X5660D01*
X5500Y2460D02*Y2140D01*
X5340Y2300D02*X5660D01*
X6500Y1460D02*Y1140D01*
X6340Y1300D02*X6660D01*
X6500Y2460D02*Y2140D01*
X6340Y2300D02*X6660D01*
X7500Y1460D02*Y1140D01*
X7340Y1300D02*X7660D01*
X7500Y2460D02*Y2140D01*
X7340Y2300D02*X7660D01*
X8500Y1460D02*Y1140D01*
X8340Y1300D02*X8660D01*
X8500Y2460D02*Y2140D01*
X8340Y2300D02*X8660D01*
X9500Y1460D02*Y1140D01*
X9340Y1300D02*X9660D01*
X9500Y2460D02*Y2140D01*
X9340Y2300D02*X9660D01*
X10500Y1460D02*Y1140D01*
X10340Y1300D02*X10660D01*
X10500Y2460D02*Y2140D01*
X10340Y2300D02*X10660D01*
X11500Y1460D02*Y1140D01*
X11340Y1300D02*X11660D01*
X11500Y2460D02*Y2140D01*
X11340Y2300D02*X11660D01*
X12500Y1460D02*Y1140D01*
X12340Y1300D02*X12660D01*
X12500Y2460D02*Y2140D01*
X12340Y2300D02*X12660D01*
X13500Y1460D02*Y1140D01*
X13340Y1300D02*X13660D01*
X13500Y2460D02*Y2140D01*
X13340Y2300D02*X13660D01*
X18900Y15560D02*Y15240D01*
X18740Y15400D02*X19060D01*
X18900Y16560D02*Y16240D01*
X18740Y16400D02*X19060D01*
X19900Y15560D02*Y15240D01*
X19740Y15400D02*X20060D01*
X19900Y16560D02*Y16240D01*
X19740Y16400D02*X20060D01*
X20900Y15560D02*Y15240D01*
X20740Y15400D02*X21060D01*
X20900Y16560D02*Y16240D01*
X20740Y16400D02*X21060D01*
X21900Y15560D02*Y15240D01*
X21740Y15400D02*X22060D01*
X21900Y16560D02*Y16240D01*
X21740Y16400D02*X22060D01*
X22900Y15560D02*Y15240D01*
X22740Y15400D02*X23060D01*
X22900Y16560D02*Y16240D01*
X22740Y16400D02*X23060D01*
X11200Y12510D02*Y12190D01*
X11040Y12350D02*X11360D01*
X11200Y13510D02*Y13190D01*
X11040Y13350D02*X11360D01*
X11200Y14510D02*Y14190D01*
X11040Y14350D02*X11360D01*
X11200Y15510D02*Y15190D01*
X11040Y15350D02*X11360D01*
X1900Y1360D02*Y1040D01*
X1740Y1200D02*X2060D01*
X900Y1360D02*Y1040D01*
X740Y1200D02*X1060D01*
X1900Y2360D02*Y2040D01*
X1740Y2200D02*X2060D01*
X900Y2360D02*Y2040D01*
X740Y2200D02*X1060D01*
X1900Y3360D02*Y3040D01*
X1740Y3200D02*X2060D01*
X900Y3360D02*Y3040D01*
X740Y3200D02*X1060D01*
X1900Y4360D02*Y4040D01*
X1740Y4200D02*X2060D01*
X900Y4360D02*Y4040D01*
X740Y4200D02*X1060D01*
X1900Y5360D02*Y5040D01*
X1740Y5200D02*X2060D01*
X900Y5360D02*Y5040D01*
X740Y5200D02*X1060D01*
X1900Y6360D02*Y6040D01*
X1740Y6200D02*X2060D01*
X900Y6360D02*Y6040D01*
X740Y6200D02*X1060D01*
X1900Y7360D02*Y7040D01*
X1740Y7200D02*X2060D01*
X900Y7360D02*Y7040D01*
X740Y7200D02*X1060D01*
X1900Y8360D02*Y8040D01*
X1740Y8200D02*X2060D01*
X900Y8360D02*Y8040D01*
X740Y8200D02*X1060D01*
X1500Y30785D02*Y30465D01*
X1340Y30625D02*X1660D01*
X13500Y31000D02*Y30925D01*
X13650Y30775D01*
X13800Y30925D01*
Y31000D02*Y30925D01*
X13650Y30775D02*Y30400D01*
X13980Y30700D02*X14205D01*
X13980Y30400D02*X14280D01*
X13980Y31000D02*Y30400D01*
Y31000D02*X14280D01*
X14760D02*X14835Y30925D01*
X14535Y31000D02*X14760D01*
X14460Y30925D02*X14535Y31000D01*
X14460Y30925D02*Y30775D01*
X14535Y30700D01*
X14760D01*
X14835Y30625D01*
Y30475D01*
X14760Y30400D02*X14835Y30475D01*
X14535Y30400D02*X14760D01*
X14460Y30475D02*X14535Y30400D01*
X13500Y30074D02*X15015D01*
X9800Y30475D02*X9875Y30400D01*
X9800Y30625D02*Y30475D01*
Y30625D02*X9875Y30700D01*
X10025D01*
X10100Y30625D01*
Y30475D01*
X10025Y30400D02*X10100Y30475D01*
X9875Y30400D02*X10025D01*
X9800Y30775D02*X9875Y30700D01*
X9800Y30925D02*Y30775D01*
Y30925D02*X9875Y31000D01*
X10025D01*
X10100Y30925D01*
Y30775D01*
X10025Y30700D02*X10100Y30775D01*
X10280Y30925D02*X10355Y31000D01*
X10580D01*
X10655Y30925D01*
Y30775D01*
X10280Y30400D02*X10655Y30775D01*
X10280Y30400D02*X10655D01*
X9800Y30074D02*X10835D01*
X4500Y30475D02*X4575Y30400D01*
X4500Y30925D02*Y30475D01*
Y30925D02*X4575Y31000D01*
X4725D01*
X4800Y30925D01*
Y30475D01*
X4725Y30400D02*X4800Y30475D01*
X4575Y30400D02*X4725D01*
X4500Y30550D02*X4800Y30850D01*
X4980Y30400D02*X5055D01*
X5235Y30475D02*X5310Y30400D01*
X5235Y30925D02*Y30475D01*
Y30925D02*X5310Y31000D01*
X5460D01*
X5535Y30925D01*
Y30475D01*
X5460Y30400D02*X5535Y30475D01*
X5310Y30400D02*X5460D01*
X5235Y30550D02*X5535Y30850D01*
X5715Y30700D02*X6015Y31000D01*
X5715Y30700D02*X6090D01*
X6015Y31000D02*Y30400D01*
X6270Y30475D02*X6345Y30400D01*
X6270Y30925D02*Y30475D01*
Y30925D02*X6345Y31000D01*
X6495D01*
X6570Y30925D01*
Y30475D01*
X6495Y30400D02*X6570Y30475D01*
X6345Y30400D02*X6495D01*
X6270Y30550D02*X6570Y30850D01*
X4500Y30074D02*X6750D01*
X13200Y20750D02*Y20590D01*
Y20750D02*X13338Y20830D01*
X13200Y20750D02*X13061Y20830D01*
X11100Y21350D02*Y21190D01*
Y21350D02*X11238Y21430D01*
X11100Y21350D02*X10961Y21430D01*
X18900Y12900D02*Y12740D01*
Y12900D02*X19038Y12980D01*
X18900Y12900D02*X18761Y12980D01*
X20100Y12900D02*Y12740D01*
Y12900D02*X20238Y12980D01*
X20100Y12900D02*X19961Y12980D01*
X19700Y13600D02*Y13440D01*
Y13600D02*X19838Y13680D01*
X19700Y13600D02*X19561Y13680D01*
X17400Y12400D02*Y12240D01*
Y12400D02*X17538Y12480D01*
X17400Y12400D02*X17261Y12480D01*
X21700Y7600D02*Y7440D01*
Y7600D02*X21838Y7680D01*
X21700Y7600D02*X21561Y7680D01*
X21700Y12300D02*Y12140D01*
Y12300D02*X21838Y12380D01*
X21700Y12300D02*X21561Y12380D01*
X19300Y7500D02*Y7340D01*
Y7500D02*X19438Y7580D01*
X19300Y7500D02*X19161Y7580D01*
X20800Y7600D02*Y7440D01*
Y7600D02*X20938Y7680D01*
X20800Y7600D02*X20661Y7680D01*
X20100Y8400D02*Y8240D01*
Y8400D02*X20238Y8480D01*
X20100Y8400D02*X19961Y8480D01*
X18100Y7600D02*Y7440D01*
Y7600D02*X18238Y7680D01*
X18100Y7600D02*X17961Y7680D01*
X17800Y6600D02*Y6440D01*
Y6600D02*X17938Y6680D01*
X17800Y6600D02*X17661Y6680D01*
X18400Y12400D02*Y12240D01*
Y12400D02*X18538Y12480D01*
X18400Y12400D02*X18261Y12480D01*
X9000Y11100D02*Y10940D01*
Y11100D02*X9138Y11180D01*
X9000Y11100D02*X8861Y11180D01*
X9000Y9300D02*Y9140D01*
Y9300D02*X9138Y9380D01*
X9000Y9300D02*X8861Y9380D01*
X16600Y12800D02*Y12640D01*
Y12800D02*X16738Y12880D01*
X16600Y12800D02*X16461Y12880D01*
X10450Y12250D02*Y12090D01*
Y12250D02*X10588Y12330D01*
X10450Y12250D02*X10311Y12330D01*
X14900Y16650D02*Y16490D01*
Y16650D02*X15038Y16730D01*
X14900Y16650D02*X14761Y16730D01*
X14600Y15250D02*Y15090D01*
Y15250D02*X14738Y15330D01*
X14600Y15250D02*X14461Y15330D01*
X13000Y15150D02*Y14990D01*
Y15150D02*X13138Y15230D01*
X13000Y15150D02*X12861Y15230D01*
X13400Y14550D02*Y14390D01*
Y14550D02*X13538Y14630D01*
X13400Y14550D02*X13261Y14630D01*
X22300Y7100D02*Y6940D01*
Y7100D02*X22438Y7180D01*
X22300Y7100D02*X22161Y7180D01*
X1500Y32125D02*Y31965D01*
Y32125D02*X1638Y32205D01*
X1500Y32125D02*X1361Y32205D01*
X13500Y32500D02*Y32425D01*
X13650Y32275D01*
X13800Y32425D01*
Y32500D02*Y32425D01*
X13650Y32275D02*Y31900D01*
X13980Y32200D02*X14205D01*
X13980Y31900D02*X14280D01*
X13980Y32500D02*Y31900D01*
Y32500D02*X14280D01*
X14760D02*X14835Y32425D01*
X14535Y32500D02*X14760D01*
X14460Y32425D02*X14535Y32500D01*
X14460Y32425D02*Y32275D01*
X14535Y32200D01*
X14760D01*
X14835Y32125D01*
Y31975D01*
X14760Y31900D02*X14835Y31975D01*
X14535Y31900D02*X14760D01*
X14460Y31975D02*X14535Y31900D01*
X13500Y31574D02*X15015D01*
X9800Y32425D02*X9875Y32500D01*
X10100D01*
X10175Y32425D01*
Y32275D01*
X9800Y31900D02*X10175Y32275D01*
X9800Y31900D02*X10175D01*
X10355Y32425D02*X10430Y32500D01*
X10580D01*
X10655Y32425D01*
Y31975D01*
X10580Y31900D02*X10655Y31975D01*
X10430Y31900D02*X10580D01*
X10355Y31975D02*X10430Y31900D01*
Y32200D02*X10655D01*
X9800Y31574D02*X10835D01*
X4500Y31975D02*X4575Y31900D01*
X4500Y32425D02*Y31975D01*
Y32425D02*X4575Y32500D01*
X4725D01*
X4800Y32425D01*
Y31975D01*
X4725Y31900D02*X4800Y31975D01*
X4575Y31900D02*X4725D01*
X4500Y32050D02*X4800Y32350D01*
X4980Y31900D02*X5055D01*
X5235Y31975D02*X5310Y31900D01*
X5235Y32425D02*Y31975D01*
Y32425D02*X5310Y32500D01*
X5460D01*
X5535Y32425D01*
Y31975D01*
X5460Y31900D02*X5535Y31975D01*
X5310Y31900D02*X5460D01*
X5235Y32050D02*X5535Y32350D01*
X5715Y32425D02*X5790Y32500D01*
X6015D01*
X6090Y32425D01*
Y32275D01*
X5715Y31900D02*X6090Y32275D01*
X5715Y31900D02*X6090D01*
X6270Y31975D02*X6345Y31900D01*
X6270Y32425D02*Y31975D01*
Y32425D02*X6345Y32500D01*
X6495D01*
X6570Y32425D01*
Y31975D01*
X6495Y31900D02*X6570Y31975D01*
X6345Y31900D02*X6495D01*
X6270Y32050D02*X6570Y32350D01*
X4500Y31574D02*X6750D01*
X300Y34000D02*X375Y33925D01*
X75Y34000D02*X300D01*
X0Y33925D02*X75Y34000D01*
X0Y33925D02*Y33775D01*
X75Y33700D01*
X300D01*
X375Y33625D01*
Y33475D01*
X300Y33400D02*X375Y33475D01*
X75Y33400D02*X300D01*
X0Y33475D02*X75Y33400D01*
X555Y33700D02*Y33475D01*
X630Y33400D01*
X855Y33700D02*Y33250D01*
X780Y33175D02*X855Y33250D01*
X630Y33175D02*X780D01*
X555Y33250D02*X630Y33175D01*
Y33400D02*X780D01*
X855Y33475D01*
X1110Y33625D02*Y33400D01*
Y33625D02*X1185Y33700D01*
X1260D01*
X1335Y33625D01*
Y33400D01*
Y33625D02*X1410Y33700D01*
X1485D01*
X1560Y33625D01*
Y33400D01*
X1035Y33700D02*X1110Y33625D01*
X1740Y34000D02*Y33400D01*
Y33475D02*X1815Y33400D01*
X1965D01*
X2040Y33475D01*
Y33625D02*Y33475D01*
X1965Y33700D02*X2040Y33625D01*
X1815Y33700D02*X1965D01*
X1740Y33625D02*X1815Y33700D01*
X2220Y33625D02*Y33475D01*
Y33625D02*X2295Y33700D01*
X2445D01*
X2520Y33625D01*
Y33475D01*
X2445Y33400D02*X2520Y33475D01*
X2295Y33400D02*X2445D01*
X2220Y33475D02*X2295Y33400D01*
X2700Y34000D02*Y33475D01*
X2775Y33400D01*
X4175Y34000D02*Y33400D01*
X4400Y34000D02*X4475Y33925D01*
Y33475D01*
X4400Y33400D02*X4475Y33475D01*
X4100Y33400D02*X4400D01*
X4100Y34000D02*X4400D01*
X4655Y33850D02*Y33775D01*
Y33625D02*Y33400D01*
X5030Y33700D02*X5105Y33625D01*
X4880Y33700D02*X5030D01*
X4805Y33625D02*X4880Y33700D01*
X4805Y33625D02*Y33475D01*
X4880Y33400D01*
X5105Y33700D02*Y33475D01*
X5180Y33400D01*
X4880D02*X5030D01*
X5105Y33475D01*
X5435Y33625D02*Y33400D01*
Y33625D02*X5510Y33700D01*
X5585D01*
X5660Y33625D01*
Y33400D01*
Y33625D02*X5735Y33700D01*
X5810D01*
X5885Y33625D01*
Y33400D01*
X5360Y33700D02*X5435Y33625D01*
X6065Y33400D02*X6140D01*
X6590Y33475D02*X6665Y33400D01*
X6590Y33925D02*X6665Y34000D01*
X6590Y33925D02*Y33475D01*
X6845Y34000D02*X6995D01*
X6920D02*Y33400D01*
X6845D02*X6995D01*
X7251Y33625D02*Y33400D01*
Y33625D02*X7326Y33700D01*
X7401D01*
X7476Y33625D01*
Y33400D01*
X7176Y33700D02*X7251Y33625D01*
X7731Y33700D02*X7956D01*
X7656Y33625D02*X7731Y33700D01*
X7656Y33625D02*Y33475D01*
X7731Y33400D01*
X7956D01*
X8136Y34000D02*Y33400D01*
Y33625D02*X8211Y33700D01*
X8361D01*
X8436Y33625D01*
Y33400D01*
X8616Y34000D02*X8691Y33925D01*
Y33475D01*
X8616Y33400D02*X8691Y33475D01*
X9575Y33400D02*X9800D01*
X9500Y33475D02*X9575Y33400D01*
X9500Y33925D02*Y33475D01*
Y33925D02*X9575Y34000D01*
X9800D01*
X9980Y33625D02*Y33475D01*
Y33625D02*X10055Y33700D01*
X10205D01*
X10280Y33625D01*
Y33475D01*
X10205Y33400D02*X10280Y33475D01*
X10055Y33400D02*X10205D01*
X9980Y33475D02*X10055Y33400D01*
X10460Y33700D02*Y33475D01*
X10535Y33400D01*
X10685D01*
X10760Y33475D01*
Y33700D02*Y33475D01*
X11015Y33625D02*Y33400D01*
Y33625D02*X11090Y33700D01*
X11165D01*
X11240Y33625D01*
Y33400D01*
X10940Y33700D02*X11015Y33625D01*
X11495Y34000D02*Y33475D01*
X11570Y33400D01*
X11420Y33775D02*X11570D01*
X13075Y34000D02*Y33400D01*
X13000Y34000D02*X13300D01*
X13375Y33925D01*
Y33775D01*
X13300Y33700D02*X13375Y33775D01*
X13075Y33700D02*X13300D01*
X13555Y34000D02*Y33475D01*
X13630Y33400D01*
X14005Y33700D02*X14080Y33625D01*
X13855Y33700D02*X14005D01*
X13780Y33625D02*X13855Y33700D01*
X13780Y33625D02*Y33475D01*
X13855Y33400D01*
X14080Y33700D02*Y33475D01*
X14155Y33400D01*
X13855D02*X14005D01*
X14080Y33475D01*
X14410Y34000D02*Y33475D01*
X14485Y33400D01*
X14335Y33775D02*X14485D01*
X14710Y33400D02*X14935D01*
X14635Y33475D02*X14710Y33400D01*
X14635Y33625D02*Y33475D01*
Y33625D02*X14710Y33700D01*
X14860D01*
X14935Y33625D01*
X14635Y33550D02*X14935D01*
Y33625D02*Y33550D01*
X15415Y34000D02*Y33400D01*
X15340D02*X15415Y33475D01*
X15190Y33400D02*X15340D01*
X15115Y33475D02*X15190Y33400D01*
X15115Y33625D02*Y33475D01*
Y33625D02*X15190Y33700D01*
X15340D01*
X15415Y33625D01*
X15745Y33700D02*Y33625D01*
Y33475D02*Y33400D01*
X15595Y33925D02*Y33850D01*
Y33925D02*X15670Y34000D01*
X15820D01*
X15895Y33925D01*
Y33850D01*
X15745Y33700D02*X15895Y33850D01*
X0Y35500D02*X300D01*
X150D02*Y34900D01*
X480Y35500D02*Y34900D01*
Y35125D02*X555Y35200D01*
X705D01*
X780Y35125D01*
Y34900D01*
X1035D02*X1260D01*
X960Y34975D02*X1035Y34900D01*
X960Y35125D02*Y34975D01*
Y35125D02*X1035Y35200D01*
X1185D01*
X1260Y35125D01*
X960Y35050D02*X1260D01*
Y35125D02*Y35050D01*
X1515Y35125D02*Y34900D01*
Y35125D02*X1590Y35200D01*
X1740D01*
X1440D02*X1515Y35125D01*
X1995Y34900D02*X2220D01*
X1920Y34975D02*X1995Y34900D01*
X1920Y35125D02*Y34975D01*
Y35125D02*X1995Y35200D01*
X2145D01*
X2220Y35125D01*
X1920Y35050D02*X2220D01*
Y35125D02*Y35050D01*
X2895Y35200D02*X2970Y35125D01*
X2745Y35200D02*X2895D01*
X2670Y35125D02*X2745Y35200D01*
X2670Y35125D02*Y34975D01*
X2745Y34900D01*
X2970Y35200D02*Y34975D01*
X3045Y34900D01*
X2745D02*X2895D01*
X2970Y34975D01*
X3300Y35125D02*Y34900D01*
Y35125D02*X3375Y35200D01*
X3525D01*
X3225D02*X3300Y35125D01*
X3781Y34900D02*X4006D01*
X3706Y34975D02*X3781Y34900D01*
X3706Y35125D02*Y34975D01*
Y35125D02*X3781Y35200D01*
X3931D01*
X4006Y35125D01*
X3706Y35050D02*X4006D01*
Y35125D02*Y35050D01*
X4456Y35500D02*X4756D01*
X4456D02*Y35200D01*
X4531Y35275D01*
X4681D01*
X4756Y35200D01*
Y34975D01*
X4681Y34900D02*X4756Y34975D01*
X4531Y34900D02*X4681D01*
X4456Y34975D02*X4531Y34900D01*
X5506Y35500D02*Y34900D01*
X5431D02*X5506Y34975D01*
X5281Y34900D02*X5431D01*
X5206Y34975D02*X5281Y34900D01*
X5206Y35125D02*Y34975D01*
Y35125D02*X5281Y35200D01*
X5431D01*
X5506Y35125D01*
X5686Y35350D02*Y35275D01*
Y35125D02*Y34900D01*
X5911Y35425D02*Y34900D01*
Y35425D02*X5986Y35500D01*
X6061D01*
X5836Y35200D02*X5986D01*
X6286Y35425D02*Y34900D01*
Y35425D02*X6361Y35500D01*
X6436D01*
X6211Y35200D02*X6361D01*
X6661Y34900D02*X6886D01*
X6586Y34975D02*X6661Y34900D01*
X6586Y35125D02*Y34975D01*
Y35125D02*X6661Y35200D01*
X6811D01*
X6886Y35125D01*
X6586Y35050D02*X6886D01*
Y35125D02*Y35050D01*
X7142Y35125D02*Y34900D01*
Y35125D02*X7217Y35200D01*
X7367D01*
X7067D02*X7142Y35125D01*
X7622Y34900D02*X7847D01*
X7547Y34975D02*X7622Y34900D01*
X7547Y35125D02*Y34975D01*
Y35125D02*X7622Y35200D01*
X7772D01*
X7847Y35125D01*
X7547Y35050D02*X7847D01*
Y35125D02*Y35050D01*
X8102Y35125D02*Y34900D01*
Y35125D02*X8177Y35200D01*
X8252D01*
X8327Y35125D01*
Y34900D01*
X8027Y35200D02*X8102Y35125D01*
X8582Y35500D02*Y34975D01*
X8657Y34900D01*
X8507Y35275D02*X8657D01*
X9377Y35500D02*Y34900D01*
X9302D02*X9377Y34975D01*
X9152Y34900D02*X9302D01*
X9077Y34975D02*X9152Y34900D01*
X9077Y35125D02*Y34975D01*
Y35125D02*X9152Y35200D01*
X9302D01*
X9377Y35125D01*
X9632D02*Y34900D01*
Y35125D02*X9707Y35200D01*
X9857D01*
X9557D02*X9632Y35125D01*
X10038Y35350D02*Y35275D01*
Y35125D02*Y34900D01*
X10188Y35500D02*Y34975D01*
X10263Y34900D01*
X10413Y35500D02*Y34975D01*
X10488Y34900D01*
X10983D02*X11208D01*
X11283Y34975D01*
X11208Y35050D02*X11283Y34975D01*
X10983Y35050D02*X11208D01*
X10908Y35125D02*X10983Y35050D01*
X10908Y35125D02*X10983Y35200D01*
X11208D01*
X11283Y35125D01*
X10908Y34975D02*X10983Y34900D01*
X11463Y35350D02*Y35275D01*
Y35125D02*Y34900D01*
X11613Y35200D02*X11913D01*
X11613Y34900D02*X11913Y35200D01*
X11613Y34900D02*X11913D01*
X12168D02*X12393D01*
X12093Y34975D02*X12168Y34900D01*
X12093Y35125D02*Y34975D01*
Y35125D02*X12168Y35200D01*
X12318D01*
X12393Y35125D01*
X12093Y35050D02*X12393D01*
Y35125D02*Y35050D01*
X12649Y34900D02*X12874D01*
X12949Y34975D01*
X12874Y35050D02*X12949Y34975D01*
X12649Y35050D02*X12874D01*
X12574Y35125D02*X12649Y35050D01*
X12574Y35125D02*X12649Y35200D01*
X12874D01*
X12949Y35125D01*
X12574Y34975D02*X12649Y34900D01*
X13399Y35200D02*Y34975D01*
X13474Y34900D01*
X13624D01*
X13699Y34975D01*
Y35200D02*Y34975D01*
X13954Y34900D02*X14179D01*
X14254Y34975D01*
X14179Y35050D02*X14254Y34975D01*
X13954Y35050D02*X14179D01*
X13879Y35125D02*X13954Y35050D01*
X13879Y35125D02*X13954Y35200D01*
X14179D01*
X14254Y35125D01*
X13879Y34975D02*X13954Y34900D01*
X14509D02*X14734D01*
X14434Y34975D02*X14509Y34900D01*
X14434Y35125D02*Y34975D01*
Y35125D02*X14509Y35200D01*
X14659D01*
X14734Y35125D01*
X14434Y35050D02*X14734D01*
Y35125D02*Y35050D01*
X15214Y35500D02*Y34900D01*
X15139D02*X15214Y34975D01*
X14989Y34900D02*X15139D01*
X14914Y34975D02*X14989Y34900D01*
X14914Y35125D02*Y34975D01*
Y35125D02*X14989Y35200D01*
X15139D01*
X15214Y35125D01*
X15664Y35350D02*Y35275D01*
Y35125D02*Y34900D01*
X15889Y35125D02*Y34900D01*
Y35125D02*X15964Y35200D01*
X16039D01*
X16114Y35125D01*
Y34900D01*
X15814Y35200D02*X15889Y35125D01*
X16640Y35500D02*Y34975D01*
X16715Y34900D01*
X16565Y35275D02*X16715D01*
X16865Y35500D02*Y34900D01*
Y35125D02*X16940Y35200D01*
X17090D01*
X17165Y35125D01*
Y34900D01*
X17345Y35350D02*Y35275D01*
Y35125D02*Y34900D01*
X17570D02*X17795D01*
X17870Y34975D01*
X17795Y35050D02*X17870Y34975D01*
X17570Y35050D02*X17795D01*
X17495Y35125D02*X17570Y35050D01*
X17495Y35125D02*X17570Y35200D01*
X17795D01*
X17870Y35125D01*
X17495Y34975D02*X17570Y34900D01*
X18320Y35500D02*Y34975D01*
X18395Y34900D01*
X18770Y35200D02*X18845Y35125D01*
X18620Y35200D02*X18770D01*
X18545Y35125D02*X18620Y35200D01*
X18545Y35125D02*Y34975D01*
X18620Y34900D01*
X18845Y35200D02*Y34975D01*
X18920Y34900D01*
X18620D02*X18770D01*
X18845Y34975D01*
X19101Y35200D02*Y34975D01*
X19176Y34900D01*
X19401Y35200D02*Y34750D01*
X19326Y34675D02*X19401Y34750D01*
X19176Y34675D02*X19326D01*
X19101Y34750D02*X19176Y34675D01*
Y34900D02*X19326D01*
X19401Y34975D01*
X19581Y35125D02*Y34975D01*
Y35125D02*X19656Y35200D01*
X19806D01*
X19881Y35125D01*
Y34975D01*
X19806Y34900D02*X19881Y34975D01*
X19656Y34900D02*X19806D01*
X19581Y34975D02*X19656Y34900D01*
X20061Y35200D02*Y34975D01*
X20136Y34900D01*
X20286D01*
X20361Y34975D01*
Y35200D02*Y34975D01*
X20616Y35500D02*Y34975D01*
X20691Y34900D01*
X20541Y35275D02*X20691D01*
X20841Y34750D02*X20991Y34900D01*
X21516D02*X21666D01*
X21591Y35500D02*Y34900D01*
X21441Y35350D02*X21591Y35500D01*
X21846Y35425D02*X21921Y35500D01*
X22146D01*
X22221Y35425D01*
Y35275D01*
X21846Y34900D02*X22221Y35275D01*
X21846Y34900D02*X22221D01*
X22477D02*X22627D01*
X22552Y35500D02*Y34900D01*
X22402Y35350D02*X22552Y35500D01*
X23077D02*Y34900D01*
Y35125D02*X23152Y35200D01*
X23302D01*
X23377Y35125D01*
Y34900D01*
X23557Y35125D02*Y34975D01*
Y35125D02*X23632Y35200D01*
X23782D01*
X23857Y35125D01*
Y34975D01*
X23782Y34900D02*X23857Y34975D01*
X23632Y34900D02*X23782D01*
X23557Y34975D02*X23632Y34900D01*
X24037Y35500D02*Y34975D01*
X24112Y34900D01*
X24337D02*X24562D01*
X24262Y34975D02*X24337Y34900D01*
X24262Y35125D02*Y34975D01*
Y35125D02*X24337Y35200D01*
X24487D01*
X24562Y35125D01*
X24262Y35050D02*X24562D01*
Y35125D02*Y35050D01*
X24817Y34900D02*X25042D01*
X25117Y34975D01*
X25042Y35050D02*X25117Y34975D01*
X24817Y35050D02*X25042D01*
X24742Y35125D02*X24817Y35050D01*
X24742Y35125D02*X24817Y35200D01*
X25042D01*
X25117Y35125D01*
X24742Y34975D02*X24817Y34900D01*
X25642Y35500D02*Y34975D01*
X25717Y34900D01*
X25567Y35275D02*X25717D01*
X25868Y35125D02*Y34975D01*
Y35125D02*X25943Y35200D01*
X26093D01*
X26168Y35125D01*
Y34975D01*
X26093Y34900D02*X26168Y34975D01*
X25943Y34900D02*X26093D01*
X25868Y34975D02*X25943Y34900D01*
X26423Y35500D02*Y34975D01*
X26498Y34900D01*
X26348Y35275D02*X26498D01*
X26873Y35200D02*X26948Y35125D01*
X26723Y35200D02*X26873D01*
X26648Y35125D02*X26723Y35200D01*
X26648Y35125D02*Y34975D01*
X26723Y34900D01*
X26948Y35200D02*Y34975D01*
X27023Y34900D01*
X26723D02*X26873D01*
X26948Y34975D01*
X27203Y35500D02*Y34975D01*
X27278Y34900D01*
G54D11*X0Y25000D02*X27500D01*
X0D02*Y0D01*
X27500Y25000D02*Y0D01*
X0D02*X27500D01*
G54D12*X20000Y26500D02*Y25900D01*
Y26500D02*X20225Y26275D01*
X20450Y26500D01*
Y25900D01*
X20855Y26200D02*X20930Y26125D01*
X20705Y26200D02*X20855D01*
X20630Y26125D02*X20705Y26200D01*
X20630Y26125D02*Y25975D01*
X20705Y25900D01*
X20930Y26200D02*Y25975D01*
X21005Y25900D01*
X20705D02*X20855D01*
X20930Y25975D01*
X21185Y26200D02*X21485Y25900D01*
X21185D02*X21485Y26200D01*
X21665Y26350D02*Y26275D01*
Y26125D02*Y25900D01*
X21890Y26125D02*Y25900D01*
Y26125D02*X21965Y26200D01*
X22040D01*
X22115Y26125D01*
Y25900D01*
Y26125D02*X22190Y26200D01*
X22265D01*
X22340Y26125D01*
Y25900D01*
X21815Y26200D02*X21890Y26125D01*
X22520Y26200D02*Y25975D01*
X22595Y25900D01*
X22745D01*
X22820Y25975D01*
Y26200D02*Y25975D01*
X23075Y26125D02*Y25900D01*
Y26125D02*X23150Y26200D01*
X23225D01*
X23300Y26125D01*
Y25900D01*
Y26125D02*X23375Y26200D01*
X23450D01*
X23525Y26125D01*
Y25900D01*
X23000Y26200D02*X23075Y26125D01*
X24051Y26500D02*Y25900D01*
X24276Y26500D02*X24351Y26425D01*
Y25975D01*
X24276Y25900D02*X24351Y25975D01*
X23976Y25900D02*X24276D01*
X23976Y26500D02*X24276D01*
X24531Y26350D02*Y26275D01*
Y26125D02*Y25900D01*
X24756Y26125D02*Y25900D01*
Y26125D02*X24831Y26200D01*
X24906D01*
X24981Y26125D01*
Y25900D01*
Y26125D02*X25056Y26200D01*
X25131D01*
X25206Y26125D01*
Y25900D01*
X24681Y26200D02*X24756Y26125D01*
X25461Y25900D02*X25686D01*
X25386Y25975D02*X25461Y25900D01*
X25386Y26125D02*Y25975D01*
Y26125D02*X25461Y26200D01*
X25611D01*
X25686Y26125D01*
X25386Y26050D02*X25686D01*
Y26125D02*Y26050D01*
X25941Y26125D02*Y25900D01*
Y26125D02*X26016Y26200D01*
X26091D01*
X26166Y26125D01*
Y25900D01*
X25866Y26200D02*X25941Y26125D01*
X26421Y25900D02*X26646D01*
X26721Y25975D01*
X26646Y26050D02*X26721Y25975D01*
X26421Y26050D02*X26646D01*
X26346Y26125D02*X26421Y26050D01*
X26346Y26125D02*X26421Y26200D01*
X26646D01*
X26721Y26125D01*
X26346Y25975D02*X26421Y25900D01*
X26901Y26350D02*Y26275D01*
Y26125D02*Y25900D01*
X27052Y26125D02*Y25975D01*
Y26125D02*X27127Y26200D01*
X27277D01*
X27352Y26125D01*
Y25975D01*
X27277Y25900D02*X27352Y25975D01*
X27127Y25900D02*X27277D01*
X27052Y25975D02*X27127Y25900D01*
X27607Y26125D02*Y25900D01*
Y26125D02*X27682Y26200D01*
X27757D01*
X27832Y26125D01*
Y25900D01*
X27532Y26200D02*X27607Y26125D01*
X28087Y25900D02*X28312D01*
X28387Y25975D01*
X28312Y26050D02*X28387Y25975D01*
X28087Y26050D02*X28312D01*
X28012Y26125D02*X28087Y26050D01*
X28012Y26125D02*X28087Y26200D01*
X28312D01*
X28387Y26125D01*
X28012Y25975D02*X28087Y25900D01*
X28567Y26275D02*X28642D01*
X28567Y26125D02*X28642D01*
X29092Y26425D02*X29167Y26500D01*
X29392D01*
X29467Y26425D01*
Y26275D01*
X29092Y25900D02*X29467Y26275D01*
X29092Y25900D02*X29467D01*
X29647D02*X30022Y26275D01*
Y26500D02*Y26275D01*
X29647Y26500D02*X30022D01*
X30203D02*X30503D01*
X30203D02*Y26200D01*
X30278Y26275D01*
X30428D01*
X30503Y26200D01*
Y25975D01*
X30428Y25900D02*X30503Y25975D01*
X30278Y25900D02*X30428D01*
X30203Y25975D02*X30278Y25900D01*
X30683Y25975D02*X30758Y25900D01*
X30683Y26425D02*Y25975D01*
Y26425D02*X30758Y26500D01*
X30908D01*
X30983Y26425D01*
Y25975D01*
X30908Y25900D02*X30983Y25975D01*
X30758Y25900D02*X30908D01*
X30683Y26050D02*X30983Y26350D01*
X31508Y26125D02*Y25900D01*
Y26125D02*X31583Y26200D01*
X31658D01*
X31733Y26125D01*
Y25900D01*
Y26125D02*X31808Y26200D01*
X31883D01*
X31958Y26125D01*
Y25900D01*
X31433Y26200D02*X31508Y26125D01*
X32138Y26350D02*Y26275D01*
Y26125D02*Y25900D01*
X32288Y26500D02*Y25975D01*
X32363Y25900D01*
X32588D02*X32813D01*
X32888Y25975D01*
X32813Y26050D02*X32888Y25975D01*
X32588Y26050D02*X32813D01*
X32513Y26125D02*X32588Y26050D01*
X32513Y26125D02*X32588Y26200D01*
X32813D01*
X32888Y26125D01*
X32513Y25975D02*X32588Y25900D01*
X33338Y26200D02*Y25975D01*
X33413Y25900D01*
X33488D01*
X33563Y25975D01*
Y26200D02*Y25975D01*
X33638Y25900D01*
X33713D01*
X33788Y25975D01*
Y26200D02*Y25975D01*
X33969Y26350D02*Y26275D01*
Y26125D02*Y25900D01*
X34419Y26500D02*Y25900D01*
X34344D02*X34419Y25975D01*
X34194Y25900D02*X34344D01*
X34119Y25975D02*X34194Y25900D01*
X34119Y26125D02*Y25975D01*
Y26125D02*X34194Y26200D01*
X34344D01*
X34419Y26125D01*
X34674Y25900D02*X34899D01*
X34599Y25975D02*X34674Y25900D01*
X34599Y26125D02*Y25975D01*
Y26125D02*X34674Y26200D01*
X34824D01*
X34899Y26125D01*
X34599Y26050D02*X34899D01*
Y26125D02*Y26050D01*
X35079Y25750D02*X35229Y25900D01*
X35679Y26425D02*X35754Y26500D01*
X35979D01*
X36054Y26425D01*
Y26275D01*
X35679Y25900D02*X36054Y26275D01*
X35679Y25900D02*X36054D01*
X36234Y26500D02*X36534D01*
X36234D02*Y26200D01*
X36309Y26275D01*
X36459D01*
X36534Y26200D01*
Y25975D01*
X36459Y25900D02*X36534Y25975D01*
X36309Y25900D02*X36459D01*
X36234Y25975D02*X36309Y25900D01*
X36714Y25975D02*X36789Y25900D01*
X36714Y26425D02*Y25975D01*
Y26425D02*X36789Y26500D01*
X36939D01*
X37014Y26425D01*
Y25975D01*
X36939Y25900D02*X37014Y25975D01*
X36789Y25900D02*X36939D01*
X36714Y26050D02*X37014Y26350D01*
X37195Y25975D02*X37270Y25900D01*
X37195Y26425D02*Y25975D01*
Y26425D02*X37270Y26500D01*
X37420D01*
X37495Y26425D01*
Y25975D01*
X37420Y25900D02*X37495Y25975D01*
X37270Y25900D02*X37420D01*
X37195Y26050D02*X37495Y26350D01*
X38020Y26125D02*Y25900D01*
Y26125D02*X38095Y26200D01*
X38170D01*
X38245Y26125D01*
Y25900D01*
Y26125D02*X38320Y26200D01*
X38395D01*
X38470Y26125D01*
Y25900D01*
X37945Y26200D02*X38020Y26125D01*
X38650Y26350D02*Y26275D01*
Y26125D02*Y25900D01*
X38800Y26500D02*Y25975D01*
X38875Y25900D01*
X39100D02*X39325D01*
X39400Y25975D01*
X39325Y26050D02*X39400Y25975D01*
X39100Y26050D02*X39325D01*
X39025Y26125D02*X39100Y26050D01*
X39025Y26125D02*X39100Y26200D01*
X39325D01*
X39400Y26125D01*
X39025Y25975D02*X39100Y25900D01*
X39850Y26500D02*Y25900D01*
Y26125D02*X39925Y26200D01*
X40075D01*
X40150Y26125D01*
Y25900D01*
X40331Y26350D02*Y26275D01*
Y26125D02*Y25900D01*
X40706Y26200D02*X40781Y26125D01*
X40556Y26200D02*X40706D01*
X40481Y26125D02*X40556Y26200D01*
X40481Y26125D02*Y25975D01*
X40556Y25900D01*
X40706D01*
X40781Y25975D01*
X40481Y25750D02*X40556Y25675D01*
X40706D01*
X40781Y25750D01*
Y26200D02*Y25750D01*
X40961Y26500D02*Y25900D01*
Y26125D02*X41036Y26200D01*
X41186D01*
X41261Y26125D01*
Y25900D01*
X0Y-800D02*X300D01*
X375Y-725D01*
Y-575D02*Y-725D01*
X300Y-500D02*X375Y-575D01*
X75Y-500D02*X300D01*
X75Y-200D02*Y-800D01*
X0Y-200D02*X300D01*
X375Y-275D01*
Y-425D01*
X300Y-500D02*X375Y-425D01*
X555Y-575D02*Y-725D01*
Y-575D02*X630Y-500D01*
X780D01*
X855Y-575D01*
Y-725D01*
X780Y-800D02*X855Y-725D01*
X630Y-800D02*X780D01*
X555Y-725D02*X630Y-800D01*
X1260Y-500D02*X1335Y-575D01*
X1110Y-500D02*X1260D01*
X1035Y-575D02*X1110Y-500D01*
X1035Y-575D02*Y-725D01*
X1110Y-800D01*
X1335Y-500D02*Y-725D01*
X1410Y-800D01*
X1110D02*X1260D01*
X1335Y-725D01*
X1665Y-575D02*Y-800D01*
Y-575D02*X1740Y-500D01*
X1890D01*
X1590D02*X1665Y-575D01*
X2370Y-200D02*Y-800D01*
X2295D02*X2370Y-725D01*
X2145Y-800D02*X2295D01*
X2070Y-725D02*X2145Y-800D01*
X2070Y-575D02*Y-725D01*
Y-575D02*X2145Y-500D01*
X2295D01*
X2370Y-575D01*
X2820D02*Y-725D01*
Y-575D02*X2895Y-500D01*
X3045D01*
X3120Y-575D01*
Y-725D01*
X3045Y-800D02*X3120Y-725D01*
X2895Y-800D02*X3045D01*
X2820Y-725D02*X2895Y-800D01*
X3300Y-500D02*Y-725D01*
X3375Y-800D01*
X3525D01*
X3600Y-725D01*
Y-500D02*Y-725D01*
X3856Y-200D02*Y-725D01*
X3931Y-800D01*
X3781Y-425D02*X3931D01*
X4081Y-200D02*Y-725D01*
X4156Y-800D01*
X4306Y-350D02*Y-425D01*
Y-575D02*Y-800D01*
X4531Y-575D02*Y-800D01*
Y-575D02*X4606Y-500D01*
X4681D01*
X4756Y-575D01*
Y-800D01*
X4456Y-500D02*X4531Y-575D01*
X5011Y-800D02*X5236D01*
X4936Y-725D02*X5011Y-800D01*
X4936Y-575D02*Y-725D01*
Y-575D02*X5011Y-500D01*
X5161D01*
X5236Y-575D01*
X4936Y-650D02*X5236D01*
Y-575D02*Y-650D01*
X5686Y-350D02*Y-425D01*
Y-575D02*Y-800D01*
X5911D02*X6136D01*
X6211Y-725D01*
X6136Y-650D02*X6211Y-725D01*
X5911Y-650D02*X6136D01*
X5836Y-575D02*X5911Y-650D01*
X5836Y-575D02*X5911Y-500D01*
X6136D01*
X6211Y-575D01*
X5836Y-725D02*X5911Y-800D01*
X6737Y-200D02*Y-725D01*
X6812Y-800D01*
X6662Y-425D02*X6812D01*
X6962Y-200D02*Y-800D01*
Y-575D02*X7037Y-500D01*
X7187D01*
X7262Y-575D01*
Y-800D01*
X7517D02*X7742D01*
X7442Y-725D02*X7517Y-800D01*
X7442Y-575D02*Y-725D01*
Y-575D02*X7517Y-500D01*
X7667D01*
X7742Y-575D01*
X7442Y-650D02*X7742D01*
Y-575D02*Y-650D01*
X8267Y-500D02*X8492D01*
X8192Y-575D02*X8267Y-500D01*
X8192Y-575D02*Y-725D01*
X8267Y-800D01*
X8492D01*
X8747D02*X8972D01*
X8672Y-725D02*X8747Y-800D01*
X8672Y-575D02*Y-725D01*
Y-575D02*X8747Y-500D01*
X8897D01*
X8972Y-575D01*
X8672Y-650D02*X8972D01*
Y-575D02*Y-650D01*
X9227Y-575D02*Y-800D01*
Y-575D02*X9302Y-500D01*
X9377D01*
X9452Y-575D01*
Y-800D01*
X9152Y-500D02*X9227Y-575D01*
X9708Y-200D02*Y-725D01*
X9783Y-800D01*
X9633Y-425D02*X9783D01*
X10008Y-800D02*X10233D01*
X9933Y-725D02*X10008Y-800D01*
X9933Y-575D02*Y-725D01*
Y-575D02*X10008Y-500D01*
X10158D01*
X10233Y-575D01*
X9933Y-650D02*X10233D01*
Y-575D02*Y-650D01*
X10488Y-575D02*Y-800D01*
Y-575D02*X10563Y-500D01*
X10713D01*
X10413D02*X10488Y-575D01*
X10893Y-200D02*Y-725D01*
X10968Y-800D01*
X11118Y-350D02*Y-425D01*
Y-575D02*Y-800D01*
X11343Y-575D02*Y-800D01*
Y-575D02*X11418Y-500D01*
X11493D01*
X11568Y-575D01*
Y-800D01*
X11268Y-500D02*X11343Y-575D01*
X11823Y-800D02*X12048D01*
X11748Y-725D02*X11823Y-800D01*
X11748Y-575D02*Y-725D01*
Y-575D02*X11823Y-500D01*
X11973D01*
X12048Y-575D01*
X11748Y-650D02*X12048D01*
Y-575D02*Y-650D01*
X12499Y-575D02*Y-725D01*
Y-575D02*X12574Y-500D01*
X12724D01*
X12799Y-575D01*
Y-725D01*
X12724Y-800D02*X12799Y-725D01*
X12574Y-800D02*X12724D01*
X12499Y-725D02*X12574Y-800D01*
X13054Y-275D02*Y-800D01*
Y-275D02*X13129Y-200D01*
X13204D01*
X12979Y-500D02*X13129D01*
X13699Y-200D02*Y-725D01*
X13774Y-800D01*
X13624Y-425D02*X13774D01*
X13924Y-200D02*Y-800D01*
Y-575D02*X13999Y-500D01*
X14149D01*
X14224Y-575D01*
Y-800D01*
X14404Y-350D02*Y-425D01*
Y-575D02*Y-800D01*
X14629D02*X14854D01*
X14929Y-725D01*
X14854Y-650D02*X14929Y-725D01*
X14629Y-650D02*X14854D01*
X14554Y-575D02*X14629Y-650D01*
X14554Y-575D02*X14629Y-500D01*
X14854D01*
X14929Y-575D01*
X14554Y-725D02*X14629Y-800D01*
X15454D02*X15604D01*
X15529Y-200D02*Y-800D01*
X15379Y-350D02*X15529Y-200D01*
X15785Y-725D02*X15860Y-800D01*
X15785Y-275D02*Y-725D01*
Y-275D02*X15860Y-200D01*
X16010D01*
X16085Y-275D01*
Y-725D01*
X16010Y-800D02*X16085Y-725D01*
X15860Y-800D02*X16010D01*
X15785Y-650D02*X16085Y-350D01*
X16610Y-575D02*Y-800D01*
Y-575D02*X16685Y-500D01*
X16760D01*
X16835Y-575D01*
Y-800D01*
Y-575D02*X16910Y-500D01*
X16985D01*
X17060Y-575D01*
Y-800D01*
X16535Y-500D02*X16610Y-575D01*
X17240Y-350D02*Y-425D01*
Y-575D02*Y-800D01*
X17390Y-200D02*Y-725D01*
X17465Y-800D01*
X17960Y-575D02*Y-800D01*
Y-575D02*X18035Y-500D01*
X18185D01*
X17885D02*X17960Y-575D01*
X18440Y-800D02*X18665D01*
X18365Y-725D02*X18440Y-800D01*
X18365Y-575D02*Y-725D01*
Y-575D02*X18440Y-500D01*
X18590D01*
X18665Y-575D01*
X18365Y-650D02*X18665D01*
Y-575D02*Y-650D01*
X18921Y-500D02*X19146D01*
X18846Y-575D02*X18921Y-500D01*
X18846Y-575D02*Y-725D01*
X18921Y-800D01*
X19146D01*
X19401Y-200D02*Y-725D01*
X19476Y-800D01*
X19326Y-425D02*X19476D01*
X19851Y-500D02*X19926Y-575D01*
X19701Y-500D02*X19851D01*
X19626Y-575D02*X19701Y-500D01*
X19626Y-575D02*Y-725D01*
X19701Y-800D01*
X19926Y-500D02*Y-725D01*
X20001Y-800D01*
X19701D02*X19851D01*
X19926Y-725D01*
X20256Y-575D02*Y-800D01*
Y-575D02*X20331Y-500D01*
X20406D01*
X20481Y-575D01*
Y-800D01*
X20181Y-500D02*X20256Y-575D01*
X20886Y-500D02*X20961Y-575D01*
X20736Y-500D02*X20886D01*
X20661Y-575D02*X20736Y-500D01*
X20661Y-575D02*Y-725D01*
X20736Y-800D01*
X20886D01*
X20961Y-725D01*
X20661Y-950D02*X20736Y-1025D01*
X20886D01*
X20961Y-950D01*
Y-500D02*Y-950D01*
X21141Y-200D02*Y-725D01*
X21216Y-800D01*
X21441D02*X21666D01*
X21366Y-725D02*X21441Y-800D01*
X21366Y-575D02*Y-725D01*
Y-575D02*X21441Y-500D01*
X21591D01*
X21666Y-575D01*
X21366Y-650D02*X21666D01*
Y-575D02*Y-650D01*
X22117Y-500D02*X22417D01*
X22867Y-725D02*X22942Y-800D01*
X22867Y-275D02*Y-725D01*
Y-275D02*X22942Y-200D01*
X23092D01*
X23167Y-275D01*
Y-725D01*
X23092Y-800D02*X23167Y-725D01*
X22942Y-800D02*X23092D01*
X22867Y-650D02*X23167Y-350D01*
X23347Y-950D02*X23497Y-800D01*
X23677Y-725D02*X23752Y-800D01*
X23677Y-275D02*Y-725D01*
Y-275D02*X23752Y-200D01*
X23902D01*
X23977Y-275D01*
Y-725D01*
X23902Y-800D02*X23977Y-725D01*
X23752Y-800D02*X23902D01*
X23677Y-650D02*X23977Y-350D01*
X24502Y-200D02*Y-725D01*
X24577Y-800D01*
X24427Y-425D02*X24577D01*
X24727Y-575D02*Y-725D01*
Y-575D02*X24802Y-500D01*
X24952D01*
X25027Y-575D01*
Y-725D01*
X24952Y-800D02*X25027Y-725D01*
X24802Y-800D02*X24952D01*
X24727Y-725D02*X24802Y-800D01*
X25477Y-275D02*X25552Y-200D01*
X25777D01*
X25852Y-275D01*
Y-425D01*
X25477Y-800D02*X25852Y-425D01*
X25477Y-800D02*X25852D01*
X26033D02*X26408Y-425D01*
Y-200D02*Y-425D01*
X26033Y-200D02*X26408D01*
X26588D02*X26888D01*
X26588D02*Y-500D01*
X26663Y-425D01*
X26813D01*
X26888Y-500D01*
Y-725D01*
X26813Y-800D02*X26888Y-725D01*
X26663Y-800D02*X26813D01*
X26588Y-725D02*X26663Y-800D01*
X27068Y-725D02*X27143Y-800D01*
X27068Y-275D02*Y-725D01*
Y-275D02*X27143Y-200D01*
X27293D01*
X27368Y-275D01*
Y-725D01*
X27293Y-800D02*X27368Y-725D01*
X27143Y-800D02*X27293D01*
X27068Y-650D02*X27368Y-350D01*
X27548Y-950D02*X27698Y-800D01*
X27878Y-275D02*X27953Y-200D01*
X28178D01*
X28253Y-275D01*
Y-425D01*
X27878Y-800D02*X28253Y-425D01*
X27878Y-800D02*X28253D01*
X28433Y-200D02*X28733D01*
X28433D02*Y-500D01*
X28508Y-425D01*
X28658D01*
X28733Y-500D01*
Y-725D01*
X28658Y-800D02*X28733Y-725D01*
X28508Y-800D02*X28658D01*
X28433Y-725D02*X28508Y-800D01*
X28914Y-725D02*X28989Y-800D01*
X28914Y-275D02*Y-725D01*
Y-275D02*X28989Y-200D01*
X29139D01*
X29214Y-275D01*
Y-725D01*
X29139Y-800D02*X29214Y-725D01*
X28989Y-800D02*X29139D01*
X28914Y-650D02*X29214Y-350D01*
X29394Y-725D02*X29469Y-800D01*
X29394Y-275D02*Y-725D01*
Y-275D02*X29469Y-200D01*
X29619D01*
X29694Y-275D01*
Y-725D01*
X29619Y-800D02*X29694Y-725D01*
X29469Y-800D02*X29619D01*
X29394Y-650D02*X29694Y-350D01*
X30219Y-575D02*Y-800D01*
Y-575D02*X30294Y-500D01*
X30369D01*
X30444Y-575D01*
Y-800D01*
Y-575D02*X30519Y-500D01*
X30594D01*
X30669Y-575D01*
Y-800D01*
X30144Y-500D02*X30219Y-575D01*
X30849Y-350D02*Y-425D01*
Y-575D02*Y-800D01*
X30999Y-200D02*Y-725D01*
X31074Y-800D01*
X31299D02*X31524D01*
X31599Y-725D01*
X31524Y-650D02*X31599Y-725D01*
X31299Y-650D02*X31524D01*
X31224Y-575D02*X31299Y-650D01*
X31224Y-575D02*X31299Y-500D01*
X31524D01*
X31599Y-575D01*
X31224Y-725D02*X31299Y-800D01*
X20075Y28000D02*Y27400D01*
X20300Y28000D02*X20375Y27925D01*
Y27475D01*
X20300Y27400D02*X20375Y27475D01*
X20000Y27400D02*X20300D01*
X20000Y28000D02*X20300D01*
X20780Y27700D02*X20855Y27625D01*
X20630Y27700D02*X20780D01*
X20555Y27625D02*X20630Y27700D01*
X20555Y27625D02*Y27475D01*
X20630Y27400D01*
X20855Y27700D02*Y27475D01*
X20930Y27400D01*
X20630D02*X20780D01*
X20855Y27475D01*
X21185Y28000D02*Y27475D01*
X21260Y27400D01*
X21110Y27775D02*X21260D01*
X21485Y27400D02*X21710D01*
X21410Y27475D02*X21485Y27400D01*
X21410Y27625D02*Y27475D01*
Y27625D02*X21485Y27700D01*
X21635D01*
X21710Y27625D01*
X21410Y27550D02*X21710D01*
Y27625D02*Y27550D01*
X21890Y27775D02*X21965D01*
X21890Y27625D02*X21965D01*
X22415Y28000D02*Y27400D01*
Y28000D02*X22640Y27775D01*
X22865Y28000D01*
Y27400D01*
X23045Y27625D02*Y27475D01*
Y27625D02*X23120Y27700D01*
X23270D01*
X23345Y27625D01*
Y27475D01*
X23270Y27400D02*X23345Y27475D01*
X23120Y27400D02*X23270D01*
X23045Y27475D02*X23120Y27400D01*
X23601Y27625D02*Y27400D01*
Y27625D02*X23676Y27700D01*
X23751D01*
X23826Y27625D01*
Y27400D01*
X23526Y27700D02*X23601Y27625D01*
X24351Y28000D02*Y27400D01*
X24576Y28000D02*X24651Y27925D01*
Y27475D01*
X24576Y27400D02*X24651Y27475D01*
X24276Y27400D02*X24576D01*
X24276Y28000D02*X24576D01*
X24906Y27400D02*X25131D01*
X24831Y27475D02*X24906Y27400D01*
X24831Y27625D02*Y27475D01*
Y27625D02*X24906Y27700D01*
X25056D01*
X25131Y27625D01*
X24831Y27550D02*X25131D01*
Y27625D02*Y27550D01*
X25386Y27700D02*X25611D01*
X25311Y27625D02*X25386Y27700D01*
X25311Y27625D02*Y27475D01*
X25386Y27400D01*
X25611D01*
X26061Y27925D02*X26136Y28000D01*
X26361D01*
X26436Y27925D01*
Y27775D01*
X26061Y27400D02*X26436Y27775D01*
X26061Y27400D02*X26436D01*
X26616Y27700D02*X26916Y28000D01*
X26616Y27700D02*X26991D01*
X26916Y28000D02*Y27400D01*
X27441Y27925D02*X27516Y28000D01*
X27741D01*
X27816Y27925D01*
Y27775D01*
X27441Y27400D02*X27816Y27775D01*
X27441Y27400D02*X27816D01*
X28072D02*X28222D01*
X28147Y28000D02*Y27400D01*
X27997Y27850D02*X28147Y28000D01*
X28402Y27775D02*X28477D01*
X28402Y27625D02*X28477D01*
X28657Y28000D02*X28957D01*
X28657D02*Y27700D01*
X28732Y27775D01*
X28882D01*
X28957Y27700D01*
Y27475D01*
X28882Y27400D02*X28957Y27475D01*
X28732Y27400D02*X28882D01*
X28657Y27475D02*X28732Y27400D01*
X29137Y27925D02*X29212Y28000D01*
X29437D01*
X29512Y27925D01*
Y27775D01*
X29137Y27400D02*X29512Y27775D01*
X29137Y27400D02*X29512D01*
X29692Y27775D02*X29767D01*
X29692Y27625D02*X29767D01*
X30022Y27400D02*X30172D01*
X30097Y28000D02*Y27400D01*
X29947Y27850D02*X30097Y28000D01*
X30353Y27700D02*X30653Y28000D01*
X30353Y27700D02*X30728D01*
X30653Y28000D02*Y27400D01*
X31178Y27925D02*X31253Y28000D01*
X31478D01*
X31553Y27925D01*
Y27775D01*
X31178Y27400D02*X31553Y27775D01*
X31178Y27400D02*X31553D01*
X31733Y27475D02*X31808Y27400D01*
X31733Y27925D02*Y27475D01*
Y27925D02*X31808Y28000D01*
X31958D01*
X32033Y27925D01*
Y27475D01*
X31958Y27400D02*X32033Y27475D01*
X31808Y27400D02*X31958D01*
X31733Y27550D02*X32033Y27850D01*
X32213Y27475D02*X32288Y27400D01*
X32213Y27925D02*Y27475D01*
Y27925D02*X32288Y28000D01*
X32438D01*
X32513Y27925D01*
Y27475D01*
X32438Y27400D02*X32513Y27475D01*
X32288Y27400D02*X32438D01*
X32213Y27550D02*X32513Y27850D01*
X32693Y27400D02*X33068Y27775D01*
Y28000D02*Y27775D01*
X32693Y28000D02*X33068D01*
X33518D02*Y27475D01*
X33593Y27400D01*
X33743D01*
X33818Y27475D01*
Y28000D02*Y27475D01*
X33998Y28000D02*X34298D01*
X34148D02*Y27400D01*
X34554D02*X34779D01*
X34479Y27475D02*X34554Y27400D01*
X34479Y27925D02*Y27475D01*
Y27925D02*X34554Y28000D01*
X34779D01*
X20000Y29425D02*Y28900D01*
Y29425D02*X20075Y29500D01*
X20300D01*
X20375Y29425D01*
Y28900D01*
X20000Y29200D02*X20375D01*
X20555D02*Y28975D01*
X20630Y28900D01*
X20780D01*
X20855Y28975D01*
Y29200D02*Y28975D01*
X21110Y29500D02*Y28975D01*
X21185Y28900D01*
X21035Y29275D02*X21185D01*
X21335Y29500D02*Y28900D01*
Y29125D02*X21410Y29200D01*
X21560D01*
X21635Y29125D01*
Y28900D01*
X21815Y29125D02*Y28975D01*
Y29125D02*X21890Y29200D01*
X22040D01*
X22115Y29125D01*
Y28975D01*
X22040Y28900D02*X22115Y28975D01*
X21890Y28900D02*X22040D01*
X21815Y28975D02*X21890Y28900D01*
X22370Y29125D02*Y28900D01*
Y29125D02*X22445Y29200D01*
X22595D01*
X22295D02*X22370Y29125D01*
X22775Y29275D02*X22850D01*
X22775Y29125D02*X22850D01*
X23301Y29500D02*Y28900D01*
Y29500D02*X23526Y29275D01*
X23751Y29500D01*
Y28900D01*
X24156Y29200D02*X24231Y29125D01*
X24006Y29200D02*X24156D01*
X23931Y29125D02*X24006Y29200D01*
X23931Y29125D02*Y28975D01*
X24006Y28900D01*
X24231Y29200D02*Y28975D01*
X24306Y28900D01*
X24006D02*X24156D01*
X24231Y28975D01*
X24561Y29500D02*Y28975D01*
X24636Y28900D01*
X24486Y29275D02*X24636D01*
X24861Y29500D02*Y28975D01*
X24936Y28900D01*
X24786Y29275D02*X24936D01*
X25356Y29200D02*X25581D01*
X25356Y28900D02*X25656D01*
X25356Y29500D02*Y28900D01*
Y29500D02*X25656D01*
X25911D02*Y28975D01*
X25986Y28900D01*
X25836Y29275D02*X25986D01*
X26211Y29500D02*Y28975D01*
X26286Y28900D01*
X26136Y29275D02*X26286D01*
X26437Y29200D02*Y28975D01*
X26512Y28900D01*
X26662D01*
X26737Y28975D01*
Y29200D02*Y28975D01*
X26992Y28900D02*X27217D01*
X27292Y28975D01*
X27217Y29050D02*X27292Y28975D01*
X26992Y29050D02*X27217D01*
X26917Y29125D02*X26992Y29050D01*
X26917Y29125D02*X26992Y29200D01*
X27217D01*
X27292Y29125D01*
X26917Y28975D02*X26992Y28900D01*
X20000Y31000D02*X20300D01*
X20150D02*Y30400D01*
X20480Y30850D02*Y30775D01*
Y30625D02*Y30400D01*
X20705Y31000D02*Y30475D01*
X20780Y30400D01*
X20630Y30775D02*X20780D01*
X20930Y31000D02*Y30475D01*
X21005Y30400D01*
X21230D02*X21455D01*
X21155Y30475D02*X21230Y30400D01*
X21155Y30625D02*Y30475D01*
Y30625D02*X21230Y30700D01*
X21380D01*
X21455Y30625D01*
X21155Y30550D02*X21455D01*
Y30625D02*Y30550D01*
X21635Y30775D02*X21710D01*
X21635Y30625D02*X21710D01*
X22160Y31000D02*X22460D01*
X22310D02*Y30400D01*
X22641Y31000D02*Y30925D01*
X23016Y30550D01*
Y30400D01*
X22641Y30550D02*Y30400D01*
Y30550D02*X23016Y30925D01*
Y31000D02*Y30925D01*
X23541Y31000D02*Y30400D01*
X23766Y31000D02*X23841Y30925D01*
Y30475D01*
X23766Y30400D02*X23841Y30475D01*
X23466Y30400D02*X23766D01*
X23466Y31000D02*X23766D01*
X24246Y30700D02*X24321Y30625D01*
X24096Y30700D02*X24246D01*
X24021Y30625D02*X24096Y30700D01*
X24021Y30625D02*Y30475D01*
X24096Y30400D01*
X24321Y30700D02*Y30475D01*
X24396Y30400D01*
X24096D02*X24246D01*
X24321Y30475D01*
X24576Y30700D02*Y30475D01*
X24651Y30400D01*
X24801D01*
X24876Y30475D01*
Y30700D02*Y30475D01*
X25281Y30700D02*X25356Y30625D01*
X25131Y30700D02*X25281D01*
X25056Y30625D02*X25131Y30700D01*
X25056Y30625D02*Y30475D01*
X25131Y30400D01*
X25281D01*
X25356Y30475D01*
X25056Y30250D02*X25131Y30175D01*
X25281D01*
X25356Y30250D01*
Y30700D02*Y30250D01*
X25536Y31000D02*Y30400D01*
Y30625D02*X25611Y30700D01*
X25761D01*
X25836Y30625D01*
Y30400D01*
X26091Y31000D02*Y30475D01*
X26166Y30400D01*
X26016Y30775D02*X26166D01*
X26392Y30400D02*X26617D01*
X26317Y30475D02*X26392Y30400D01*
X26317Y30625D02*Y30475D01*
Y30625D02*X26392Y30700D01*
X26542D01*
X26617Y30625D01*
X26317Y30550D02*X26617D01*
Y30625D02*Y30550D01*
X26872Y30625D02*Y30400D01*
Y30625D02*X26947Y30700D01*
X27097D01*
X26797D02*X26872Y30625D01*
X27277Y31000D02*Y30400D01*
Y30475D02*X27352Y30400D01*
X27502D01*
X27577Y30475D01*
Y30625D02*Y30475D01*
X27502Y30700D02*X27577Y30625D01*
X27352Y30700D02*X27502D01*
X27277Y30625D02*X27352Y30700D01*
X27757Y30625D02*Y30475D01*
Y30625D02*X27832Y30700D01*
X27982D01*
X28057Y30625D01*
Y30475D01*
X27982Y30400D02*X28057Y30475D01*
X27832Y30400D02*X27982D01*
X27757Y30475D02*X27832Y30400D01*
X28462Y30700D02*X28537Y30625D01*
X28312Y30700D02*X28462D01*
X28237Y30625D02*X28312Y30700D01*
X28237Y30625D02*Y30475D01*
X28312Y30400D01*
X28537Y30700D02*Y30475D01*
X28612Y30400D01*
X28312D02*X28462D01*
X28537Y30475D01*
X28867Y30625D02*Y30400D01*
Y30625D02*X28942Y30700D01*
X29092D01*
X28792D02*X28867Y30625D01*
X29573Y31000D02*Y30400D01*
X29498D02*X29573Y30475D01*
X29348Y30400D02*X29498D01*
X29273Y30475D02*X29348Y30400D01*
X29273Y30625D02*Y30475D01*
Y30625D02*X29348Y30700D01*
X29498D01*
X29573Y30625D01*
X30023Y30700D02*X30323D01*
X30773Y31000D02*Y30400D01*
Y31000D02*X31073D01*
X30773Y30700D02*X30998D01*
X31478D02*X31553Y30625D01*
X31328Y30700D02*X31478D01*
X31253Y30625D02*X31328Y30700D01*
X31253Y30625D02*Y30475D01*
X31328Y30400D01*
X31553Y30700D02*Y30475D01*
X31628Y30400D01*
X31328D02*X31478D01*
X31553Y30475D01*
X31808Y31000D02*Y30400D01*
Y30475D02*X31883Y30400D01*
X32033D01*
X32108Y30475D01*
Y30625D02*Y30475D01*
X32033Y30700D02*X32108Y30625D01*
X31883Y30700D02*X32033D01*
X31808Y30625D02*X31883Y30700D01*
X32363Y30625D02*Y30400D01*
Y30625D02*X32438Y30700D01*
X32588D01*
X32288D02*X32363Y30625D01*
X32768Y30850D02*Y30775D01*
Y30625D02*Y30400D01*
X32994Y30700D02*X33219D01*
X32919Y30625D02*X32994Y30700D01*
X32919Y30625D02*Y30475D01*
X32994Y30400D01*
X33219D01*
X33624Y30700D02*X33699Y30625D01*
X33474Y30700D02*X33624D01*
X33399Y30625D02*X33474Y30700D01*
X33399Y30625D02*Y30475D01*
X33474Y30400D01*
X33699Y30700D02*Y30475D01*
X33774Y30400D01*
X33474D02*X33624D01*
X33699Y30475D01*
X34029Y31000D02*Y30475D01*
X34104Y30400D01*
X33954Y30775D02*X34104D01*
X34254Y30850D02*Y30775D01*
Y30625D02*Y30400D01*
X34404Y30625D02*Y30475D01*
Y30625D02*X34479Y30700D01*
X34629D01*
X34704Y30625D01*
Y30475D01*
X34629Y30400D02*X34704Y30475D01*
X34479Y30400D02*X34629D01*
X34404Y30475D02*X34479Y30400D01*
X34959Y30625D02*Y30400D01*
Y30625D02*X35034Y30700D01*
X35109D01*
X35184Y30625D01*
Y30400D01*
X34884Y30700D02*X34959Y30625D01*
X35709Y31000D02*Y30400D01*
X35934Y31000D02*X36009Y30925D01*
Y30475D01*
X35934Y30400D02*X36009Y30475D01*
X35634Y30400D02*X35934D01*
X35634Y31000D02*X35934D01*
X36265Y30625D02*Y30400D01*
Y30625D02*X36340Y30700D01*
X36490D01*
X36190D02*X36265Y30625D01*
X36895Y30700D02*X36970Y30625D01*
X36745Y30700D02*X36895D01*
X36670Y30625D02*X36745Y30700D01*
X36670Y30625D02*Y30475D01*
X36745Y30400D01*
X36970Y30700D02*Y30475D01*
X37045Y30400D01*
X36745D02*X36895D01*
X36970Y30475D01*
X37225Y30700D02*Y30475D01*
X37300Y30400D01*
X37375D01*
X37450Y30475D01*
Y30700D02*Y30475D01*
X37525Y30400D01*
X37600D01*
X37675Y30475D01*
Y30700D02*Y30475D01*
X37855Y30850D02*Y30775D01*
Y30625D02*Y30400D01*
X38080Y30625D02*Y30400D01*
Y30625D02*X38155Y30700D01*
X38230D01*
X38305Y30625D01*
Y30400D01*
X38005Y30700D02*X38080Y30625D01*
X38710Y30700D02*X38785Y30625D01*
X38560Y30700D02*X38710D01*
X38485Y30625D02*X38560Y30700D01*
X38485Y30625D02*Y30475D01*
X38560Y30400D01*
X38710D01*
X38785Y30475D01*
X38485Y30250D02*X38560Y30175D01*
X38710D01*
X38785Y30250D01*
Y30700D02*Y30250D01*
M02*
