G04 start of page 10 for group -4079 idx -4079
G04 Title: TX Daughterboard, topsilk *
G04 Creator: pcb 20070208 *
G04 CreationDate: Mon Dec 24 21:52:14 2007 UTC *
G04 For: matt *
G04 Format: Gerber/RS-274X *
G04 PCB-Dimensions: 275000 250000 *
G04 PCB-Coordinate-Origin: lower left *
%MOIN*%
%FSLAX24Y24*%
%LNFRONTSILK*%
%ADD11C,0.0100*%
%ADD12C,0.0060*%
%ADD20C,0.0200*%
%ADD28C,0.0137*%
G54D11*X13250Y11700D02*Y17900D01*
X10100Y15300D02*Y18550D01*
X15150Y13000D02*Y19300D01*
X10100Y19600D02*X10050Y19650D01*
G54D12*X2600Y8300D02*Y8250D01*
Y8150D02*Y8000D01*
X2700Y8150D02*Y8050D01*
Y8150D02*X2750Y8200D01*
X2850D01*
X2900Y8150D01*
Y8050D01*
X2850Y8000D02*X2900Y8050D01*
X2750Y8000D02*X2850D01*
X2700Y8050D02*X2750Y8000D01*
X3020D02*X3220D01*
X3390Y8400D02*Y8050D01*
X3440Y8000D01*
X3340Y8250D02*X3440D01*
X3540Y8200D02*X3740Y8000D01*
X3540D02*X3740Y8200D01*
X3860Y8400D02*X3910D01*
X3860D02*Y8000D01*
X3910D01*
X4030Y8050D02*X4080Y8000D01*
X4030Y8150D02*Y8050D01*
Y8150D02*X4080Y8200D01*
X4180D01*
X4230Y8150D01*
Y8050D01*
X4180Y8000D02*X4230Y8050D01*
X4080Y8000D02*X4180D01*
X4030Y8250D02*X4080Y8200D01*
X4030Y8350D02*Y8250D01*
Y8350D02*X4080Y8400D01*
X4180D01*
X4230Y8350D01*
Y8250D01*
X4180Y8200D02*X4230Y8250D01*
X4350Y8400D02*X4400D01*
Y8000D01*
X4350D02*X4400D01*
X2600Y7300D02*Y7250D01*
Y7150D02*Y7000D01*
X2700Y7150D02*Y7050D01*
Y7150D02*X2750Y7200D01*
X2850D01*
X2900Y7150D01*
Y7050D01*
X2850Y7000D02*X2900Y7050D01*
X2750Y7000D02*X2850D01*
X2700Y7050D02*X2750Y7000D01*
X3020D02*X3220D01*
X3390Y7400D02*Y7050D01*
X3440Y7000D01*
X3340Y7250D02*X3440D01*
X3540Y7200D02*X3740Y7000D01*
X3540D02*X3740Y7200D01*
X3860Y7400D02*X3910D01*
X3860D02*Y7000D01*
X3910D01*
X4030D02*X4230Y7200D01*
Y7350D02*Y7200D01*
X4180Y7400D02*X4230Y7350D01*
X4080Y7400D02*X4180D01*
X4030Y7350D02*X4080Y7400D01*
X4030Y7350D02*Y7250D01*
X4080Y7200D01*
X4230D01*
X4350Y7400D02*X4400D01*
Y7000D01*
X4350D02*X4400D01*
X550Y8900D02*X950D01*
X550Y9050D02*X600Y9100D01*
X900D01*
X950Y9050D02*X900Y9100D01*
X950Y9050D02*Y8850D01*
X550Y9050D02*Y8850D01*
Y9420D02*X600Y9470D01*
X550Y9420D02*Y9270D01*
X600Y9220D02*X550Y9270D01*
X600Y9220D02*X900D01*
X950Y9270D01*
Y9420D02*Y9270D01*
Y9420D02*X900Y9470D01*
X800D02*X900D01*
X750Y9420D02*X800Y9470D01*
X750Y9420D02*Y9320D01*
X550Y9590D02*X950D01*
X550D02*X600D01*
X850Y9840D01*
X550D02*X950D01*
X550Y10010D02*X950D01*
X550Y10160D02*X600Y10210D01*
X900D01*
X950Y10160D02*X900Y10210D01*
X950Y10160D02*Y9960D01*
X550Y10160D02*Y9960D01*
X2600Y6300D02*Y6250D01*
Y6150D02*Y6000D01*
X2700Y6150D02*Y6050D01*
Y6150D02*X2750Y6200D01*
X2850D01*
X2900Y6150D01*
Y6050D01*
X2850Y6000D02*X2900Y6050D01*
X2750Y6000D02*X2850D01*
X2700Y6050D02*X2750Y6000D01*
X3020D02*X3220D01*
X3390Y6400D02*Y6050D01*
X3440Y6000D01*
X3340Y6250D02*X3440D01*
X3540Y6200D02*X3740Y6000D01*
X3540D02*X3740Y6200D01*
X3860Y6400D02*X3910D01*
X3860D02*Y6000D01*
X3910D01*
X4080D02*X4180D01*
X4130Y6400D02*Y6000D01*
X4030Y6300D02*X4130Y6400D01*
X4300Y6050D02*X4350Y6000D01*
X4300Y6350D02*Y6050D01*
Y6350D02*X4350Y6400D01*
X4450D01*
X4500Y6350D01*
Y6050D01*
X4450Y6000D02*X4500Y6050D01*
X4350Y6000D02*X4450D01*
X4300Y6100D02*X4500Y6300D01*
X4620Y6400D02*X4670D01*
Y6000D01*
X4620D02*X4670D01*
X2600Y5300D02*Y5250D01*
Y5150D02*Y5000D01*
X2700Y5150D02*Y5050D01*
Y5150D02*X2750Y5200D01*
X2850D01*
X2900Y5150D01*
Y5050D01*
X2850Y5000D02*X2900Y5050D01*
X2750Y5000D02*X2850D01*
X2700Y5050D02*X2750Y5000D01*
X3020D02*X3220D01*
X3390Y5400D02*Y5050D01*
X3440Y5000D01*
X3340Y5250D02*X3440D01*
X3540Y5200D02*X3740Y5000D01*
X3540D02*X3740Y5200D01*
X3860Y5400D02*X3910D01*
X3860D02*Y5000D01*
X3910D01*
X4080D02*X4180D01*
X4130Y5400D02*Y5000D01*
X4030Y5300D02*X4130Y5400D01*
X4350Y5000D02*X4450D01*
X4400Y5400D02*Y5000D01*
X4300Y5300D02*X4400Y5400D01*
X4570D02*X4620D01*
Y5000D01*
X4570D02*X4620D01*
X2600Y4300D02*Y4250D01*
Y4150D02*Y4000D01*
X2700Y4150D02*Y4050D01*
Y4150D02*X2750Y4200D01*
X2850D01*
X2900Y4150D01*
Y4050D01*
X2850Y4000D02*X2900Y4050D01*
X2750Y4000D02*X2850D01*
X2700Y4050D02*X2750Y4000D01*
X3020D02*X3220D01*
X3390Y4400D02*Y4050D01*
X3440Y4000D01*
X3340Y4250D02*X3440D01*
X3540Y4200D02*X3740Y4000D01*
X3540D02*X3740Y4200D01*
X3860Y4400D02*X3910D01*
X3860D02*Y4000D01*
X3910D01*
X4080D02*X4180D01*
X4130Y4400D02*Y4000D01*
X4030Y4300D02*X4130Y4400D01*
X4300Y4350D02*X4350Y4400D01*
X4500D01*
X4550Y4350D01*
Y4250D01*
X4300Y4000D02*X4550Y4250D01*
X4300Y4000D02*X4550D01*
X4670Y4400D02*X4720D01*
Y4000D01*
X4670D02*X4720D01*
X2600Y3400D02*X2650D01*
X2600D02*Y3000D01*
X2650D01*
X2820D02*X2920D01*
X2870Y3400D02*Y3000D01*
X2770Y3300D02*X2870Y3400D01*
X3040Y3350D02*X3090Y3400D01*
X3190D01*
X3240Y3350D01*
Y3050D01*
X3190Y3000D02*X3240Y3050D01*
X3090Y3000D02*X3190D01*
X3040Y3050D02*X3090Y3000D01*
Y3200D02*X3240D01*
X3360Y3400D02*X3410D01*
Y3000D01*
X3360D02*X3410D01*
X2600Y2400D02*X2650D01*
X2600D02*Y2000D01*
X2650D01*
X2820D02*X2920D01*
X2870Y2400D02*Y2000D01*
X2770Y2300D02*X2870Y2400D01*
X3040Y2200D02*X3240Y2400D01*
X3040Y2200D02*X3290D01*
X3240Y2400D02*Y2000D01*
X3410Y2400D02*X3460D01*
Y2000D01*
X3410D02*X3460D01*
X2600Y1500D02*X2650D01*
X2600D02*Y1100D01*
X2650D01*
X2820D02*X2920D01*
X2870Y1500D02*Y1100D01*
X2770Y1400D02*X2870Y1500D01*
X3040D02*X3240D01*
X3040D02*Y1300D01*
X3090Y1350D01*
X3190D01*
X3240Y1300D01*
Y1150D01*
X3190Y1100D02*X3240Y1150D01*
X3090Y1100D02*X3190D01*
X3040Y1150D02*X3090Y1100D01*
X3360Y1500D02*X3410D01*
Y1100D01*
X3360D02*X3410D01*
X2650Y11450D02*Y11400D01*
Y11300D02*Y11150D01*
X2750Y11300D02*Y11200D01*
Y11300D02*X2800Y11350D01*
X2900D01*
X2950Y11300D01*
Y11200D01*
X2900Y11150D02*X2950Y11200D01*
X2800Y11150D02*X2900D01*
X2750Y11200D02*X2800Y11150D01*
X3070D02*X3270D01*
X3440Y11550D02*Y11200D01*
X3490Y11150D01*
X3390Y11400D02*X3490D01*
X3590Y11350D02*X3790Y11150D01*
X3590D02*X3790Y11350D01*
X3910Y11550D02*X3960D01*
X3910D02*Y11150D01*
X3960D01*
X4080D02*X4330Y11400D01*
Y11550D02*Y11400D01*
X4080Y11550D02*X4330D01*
X4450D02*X4500D01*
Y11150D01*
X4450D02*X4500D01*
X2600Y12400D02*Y12350D01*
Y12250D02*Y12100D01*
X2700Y12250D02*Y12150D01*
Y12250D02*X2750Y12300D01*
X2850D01*
X2900Y12250D01*
Y12150D01*
X2850Y12100D02*X2900Y12150D01*
X2750Y12100D02*X2850D01*
X2700Y12150D02*X2750Y12100D01*
X3020D02*X3220D01*
X3390Y12500D02*Y12150D01*
X3440Y12100D01*
X3340Y12350D02*X3440D01*
X3540Y12300D02*X3740Y12100D01*
X3540D02*X3740Y12300D01*
X3860Y12500D02*X3910D01*
X3860D02*Y12100D01*
X3910D01*
X4180Y12500D02*X4230Y12450D01*
X4080Y12500D02*X4180D01*
X4030Y12450D02*X4080Y12500D01*
X4030Y12450D02*Y12150D01*
X4080Y12100D01*
X4180Y12300D02*X4230Y12250D01*
X4030Y12300D02*X4180D01*
X4080Y12100D02*X4180D01*
X4230Y12150D01*
Y12250D02*Y12150D01*
X4350Y12500D02*X4400D01*
Y12100D01*
X4350D02*X4400D01*
X2600Y13400D02*Y13350D01*
Y13250D02*Y13100D01*
X2700Y13250D02*Y13150D01*
Y13250D02*X2750Y13300D01*
X2850D01*
X2900Y13250D01*
Y13150D01*
X2850Y13100D02*X2900Y13150D01*
X2750Y13100D02*X2850D01*
X2700Y13150D02*X2750Y13100D01*
X3020D02*X3220D01*
X3390Y13500D02*Y13150D01*
X3440Y13100D01*
X3340Y13350D02*X3440D01*
X3540Y13300D02*X3740Y13100D01*
X3540D02*X3740Y13300D01*
X3860Y13500D02*X3910D01*
X3860D02*Y13100D01*
X3910D01*
X4030Y13500D02*X4230D01*
X4030D02*Y13300D01*
X4080Y13350D01*
X4180D01*
X4230Y13300D01*
Y13150D01*
X4180Y13100D02*X4230Y13150D01*
X4080Y13100D02*X4180D01*
X4030Y13150D02*X4080Y13100D01*
X4350Y13500D02*X4400D01*
Y13100D01*
X4350D02*X4400D01*
X6250Y10550D02*Y10150D01*
X6400Y10550D02*X6450Y10500D01*
Y10200D01*
X6400Y10150D02*X6450Y10200D01*
X6200Y10150D02*X6400D01*
X6200Y10550D02*X6400D01*
X6770D02*X6820Y10500D01*
X6620Y10550D02*X6770D01*
X6570Y10500D02*X6620Y10550D01*
X6570Y10500D02*Y10200D01*
X6620Y10150D01*
X6770D01*
X6820Y10200D01*
Y10300D02*Y10200D01*
X6770Y10350D02*X6820Y10300D01*
X6670Y10350D02*X6770D01*
X6940Y10550D02*Y10150D01*
Y10550D02*Y10500D01*
X7190Y10250D01*
Y10550D02*Y10150D01*
X7360Y10550D02*Y10150D01*
X7510Y10550D02*X7560Y10500D01*
Y10200D01*
X7510Y10150D02*X7560Y10200D01*
X7310Y10150D02*X7510D01*
X7310Y10550D02*X7510D01*
X5700Y11300D02*Y10900D01*
X5850Y11300D02*X5900Y11250D01*
Y10950D01*
X5850Y10900D02*X5900Y10950D01*
X5650Y10900D02*X5850D01*
X5650Y11300D02*X5850D01*
X6220D02*X6270Y11250D01*
X6070Y11300D02*X6220D01*
X6020Y11250D02*X6070Y11300D01*
X6020Y11250D02*Y10950D01*
X6070Y10900D01*
X6220D01*
X6270Y10950D01*
Y11050D02*Y10950D01*
X6220Y11100D02*X6270Y11050D01*
X6120Y11100D02*X6220D01*
X6390Y11300D02*Y10900D01*
Y11300D02*Y11250D01*
X6640Y11000D01*
Y11300D02*Y10900D01*
X6810Y11300D02*Y10900D01*
X6960Y11300D02*X7010Y11250D01*
Y10950D01*
X6960Y10900D02*X7010Y10950D01*
X6760Y10900D02*X6960D01*
X6760Y11300D02*X6960D01*
X22850Y17100D02*X23200D01*
X22850D02*X22800Y17150D01*
Y17300D02*Y17150D01*
Y17300D02*X22850Y17350D01*
X23200D01*
X23000D02*Y17100D01*
X22800Y17670D02*X22850Y17720D01*
X22800Y17670D02*Y17520D01*
X22850Y17470D02*X22800Y17520D01*
X22850Y17470D02*X23150D01*
X23200Y17520D01*
Y17670D02*Y17520D01*
Y17670D02*X23150Y17720D01*
X23050D02*X23150D01*
X23000Y17670D02*X23050Y17720D01*
X23000Y17670D02*Y17570D01*
X22800Y17840D02*X23200D01*
X22800D02*X22850D01*
X23100Y18090D01*
X22800D02*X23200D01*
X22800Y18260D02*X23200D01*
X22800Y18410D02*X22850Y18460D01*
X23150D01*
X23200Y18410D02*X23150Y18460D01*
X23200Y18410D02*Y18210D01*
X22800Y18410D02*Y18210D01*
X18700Y17150D02*X19100D01*
X18700Y17300D02*X18750Y17350D01*
X19050D01*
X19100Y17300D02*X19050Y17350D01*
X19100Y17300D02*Y17100D01*
X18700Y17300D02*Y17100D01*
X18750Y17470D02*X19100D01*
X18750D02*X18700Y17520D01*
Y17670D02*Y17520D01*
Y17670D02*X18750Y17720D01*
X19100D01*
X18900D02*Y17470D01*
X19100Y18040D02*Y17890D01*
X19050Y17840D02*X19100Y17890D01*
X18750Y17840D02*X19050D01*
X18750D02*X18700Y17890D01*
Y18040D02*Y17890D01*
X19100Y18360D02*Y18160D01*
X18700Y18530D02*X19100D01*
X18700Y18680D02*X18750Y18730D01*
X19050D01*
X19100Y18680D02*X19050Y18730D01*
X19100Y18680D02*Y18480D01*
X18700Y18680D02*Y18480D01*
X21700Y17150D02*X22100D01*
X21700Y17300D02*X21750Y17350D01*
X22050D01*
X22100Y17300D02*X22050Y17350D01*
X22100Y17300D02*Y17100D01*
X21700Y17300D02*Y17100D01*
X21750Y17470D02*X22100D01*
X21750D02*X21700Y17520D01*
Y17670D02*Y17520D01*
Y17670D02*X21750Y17720D01*
X22100D01*
X21900D02*Y17470D01*
X22100Y18040D02*Y17890D01*
X22050Y17840D02*X22100Y17890D01*
X21750Y17840D02*X22050D01*
X21750D02*X21700Y17890D01*
Y18040D02*Y17890D01*
X22100Y18360D02*Y18160D01*
Y18680D02*Y18530D01*
X22050Y18480D02*X22100Y18530D01*
X21750Y18480D02*X22050D01*
X21750D02*X21700Y18530D01*
Y18680D02*Y18530D01*
X20700Y17150D02*X21100D01*
X20700Y17300D02*X20750Y17350D01*
X21050D01*
X21100Y17300D02*X21050Y17350D01*
X21100Y17300D02*Y17100D01*
X20700Y17300D02*Y17100D01*
X20750Y17470D02*X21100D01*
X20750D02*X20700Y17520D01*
Y17670D02*Y17520D01*
Y17670D02*X20750Y17720D01*
X21100D01*
X20900D02*Y17470D01*
X21100Y18040D02*Y17890D01*
X21050Y17840D02*X21100Y17890D01*
X20750Y17840D02*X21050D01*
X20750D02*X20700Y17890D01*
Y18040D02*Y17890D01*
X21100Y18360D02*Y18160D01*
Y18680D02*Y18480D01*
Y18680D02*X21050Y18730D01*
X20950D02*X21050D01*
X20900Y18680D02*X20950Y18730D01*
X20900Y18680D02*Y18530D01*
X20700D02*X21100D01*
X20700Y18680D02*Y18480D01*
Y18680D02*X20750Y18730D01*
X20850D01*
X20900Y18680D02*X20850Y18730D01*
X19700Y17150D02*X20100D01*
X19700Y17300D02*X19750Y17350D01*
X20050D01*
X20100Y17300D02*X20050Y17350D01*
X20100Y17300D02*Y17100D01*
X19700Y17300D02*Y17100D01*
X19750Y17470D02*X20100D01*
X19750D02*X19700Y17520D01*
Y17670D02*Y17520D01*
Y17670D02*X19750Y17720D01*
X20100D01*
X19900D02*Y17470D01*
X20100Y18040D02*Y17890D01*
X20050Y17840D02*X20100Y17890D01*
X19750Y17840D02*X20050D01*
X19750D02*X19700Y17890D01*
Y18040D02*Y17890D01*
X20100Y18360D02*Y18160D01*
X19750Y18480D02*X20100D01*
X19750D02*X19700Y18530D01*
Y18680D02*Y18530D01*
Y18680D02*X19750Y18730D01*
X20100D01*
X19900D02*Y18480D01*
X15400Y19139D02*X15712D01*
X15400Y19256D02*X15439Y19295D01*
X15673D01*
X15712Y19256D02*X15673Y19295D01*
X15712Y19256D02*Y19100D01*
X15400Y19256D02*Y19100D01*
Y19544D02*X15439Y19583D01*
X15400Y19544D02*Y19427D01*
X15439Y19388D02*X15400Y19427D01*
X15439Y19388D02*X15673D01*
X15712Y19427D01*
Y19544D02*Y19427D01*
Y19544D02*X15673Y19583D01*
X15595D02*X15673D01*
X15556Y19544D02*X15595Y19583D01*
X15556Y19544D02*Y19466D01*
X15400Y19677D02*X15712D01*
X15400D02*X15439D01*
X15634Y19872D01*
X15400D02*X15712D01*
X15400Y20005D02*X15712D01*
X15400Y20122D02*X15439Y20161D01*
X15673D01*
X15712Y20122D02*X15673Y20161D01*
X15712Y20122D02*Y19966D01*
X15400Y20122D02*Y19966D01*
X21839Y13100D02*X22112D01*
X21839D02*X21800Y13139D01*
Y13256D02*Y13139D01*
Y13256D02*X21839Y13295D01*
X22112D01*
X21956D02*Y13100D01*
X21800Y13427D02*X22112D01*
X21800Y13544D02*X21839Y13583D01*
X22073D01*
X22112Y13544D02*X22073Y13583D01*
X22112Y13544D02*Y13388D01*
X21800Y13544D02*Y13388D01*
X22112Y13833D02*Y13716D01*
X22073Y13677D02*X22112Y13716D01*
X21839Y13677D02*X22073D01*
X21839D02*X21800Y13716D01*
Y13833D02*Y13716D01*
X22112Y14083D02*Y13927D01*
Y14332D02*Y14176D01*
Y14332D02*X22073Y14371D01*
X21995D02*X22073D01*
X21956Y14332D02*X21995Y14371D01*
X21956Y14332D02*Y14215D01*
X21800D02*X22112D01*
X21800Y14332D02*Y14176D01*
Y14332D02*X21839Y14371D01*
X21917D01*
X21956Y14332D02*X21917Y14371D01*
X21839Y14465D02*X21800Y14504D01*
Y14621D02*Y14504D01*
Y14621D02*X21839Y14660D01*
X21917D01*
X22112Y14465D02*X21917Y14660D01*
X22112D02*Y14465D01*
X20839Y13100D02*X21112D01*
X20839D02*X20800Y13139D01*
Y13256D02*Y13139D01*
Y13256D02*X20839Y13295D01*
X21112D01*
X20956D02*Y13100D01*
X20800Y13427D02*X21112D01*
X20800Y13544D02*X20839Y13583D01*
X21073D01*
X21112Y13544D02*X21073Y13583D01*
X21112Y13544D02*Y13388D01*
X20800Y13544D02*Y13388D01*
X21112Y13833D02*Y13716D01*
X21073Y13677D02*X21112Y13716D01*
X20839Y13677D02*X21073D01*
X20839D02*X20800Y13716D01*
Y13833D02*Y13716D01*
X21112Y14083D02*Y13927D01*
X20839Y14176D02*X21112D01*
X20839D02*X20800Y14215D01*
Y14332D02*Y14215D01*
Y14332D02*X20839Y14371D01*
X21112D01*
X20956D02*Y14176D01*
X20839Y14465D02*X20800Y14504D01*
Y14621D02*Y14504D01*
Y14621D02*X20839Y14660D01*
X20917D01*
X21112Y14465D02*X20917Y14660D01*
X21112D02*Y14465D01*
G54D28*X15800Y23132D02*X16484D01*
X16655Y23303D01*
Y23645D02*Y23303D01*
X16484Y23816D02*X16655Y23645D01*
X15971Y23816D02*X16484D01*
X15971Y24500D02*Y23132D01*
X15800Y24500D02*X16484D01*
X16655Y24329D01*
Y23987D01*
X16484Y23816D02*X16655Y23987D01*
X17578Y23816D02*X17749Y23645D01*
X17236Y23816D02*X17578D01*
X17065Y23645D02*X17236Y23816D01*
X17065Y23645D02*Y23303D01*
X17236Y23132D01*
X17749Y23816D02*Y23303D01*
X17920Y23132D01*
X17236D02*X17578D01*
X17749Y23303D01*
X18502Y23132D02*X19015D01*
X19186Y23303D01*
X19015Y23474D02*X19186Y23303D01*
X18502Y23474D02*X19015D01*
X18331Y23645D02*X18502Y23474D01*
X18331Y23645D02*X18502Y23816D01*
X19015D01*
X19186Y23645D01*
X18331Y23303D02*X18502Y23132D01*
X19597Y24158D02*Y23987D01*
Y23645D02*Y23132D01*
X20110Y23816D02*X20623D01*
X19939Y23645D02*X20110Y23816D01*
X19939Y23645D02*Y23303D01*
X20110Y23132D01*
X20623D01*
X21034Y24500D02*X21718D01*
X21376D02*Y23132D01*
X22129Y24500D02*Y24329D01*
X22984Y23474D01*
Y23132D01*
X22129Y23474D02*Y23132D01*
Y23474D02*X22984Y24329D01*
Y24500D02*Y24329D01*
G54D12*X15850Y22700D02*X16094D01*
X16155Y22639D01*
Y22517D01*
X16094Y22456D02*X16155Y22517D01*
X15911Y22456D02*X16094D01*
X15911Y22700D02*Y22212D01*
Y22456D02*X16155Y22212D01*
X16362D02*X16545D01*
X16301Y22273D02*X16362Y22212D01*
X16301Y22395D02*Y22273D01*
Y22395D02*X16362Y22456D01*
X16484D01*
X16545Y22395D01*
X16301Y22334D02*X16545D01*
Y22395D02*Y22334D01*
X16692Y22456D02*Y22334D01*
X16814Y22212D01*
X16936Y22334D01*
Y22456D02*Y22334D01*
X17302Y22639D02*X17363Y22700D01*
X17546D01*
X17607Y22639D01*
Y22517D01*
X17302Y22212D02*X17607Y22517D01*
X17302Y22212D02*X17607D01*
X17753D02*X17814D01*
X17961Y22273D02*X18022Y22212D01*
X17961Y22639D02*Y22273D01*
Y22639D02*X18022Y22700D01*
X18144D01*
X18205Y22639D01*
Y22273D01*
X18144Y22212D02*X18205Y22273D01*
X18022Y22212D02*X18144D01*
X17961Y22334D02*X18205Y22578D01*
X15800Y21523D02*X15861Y21462D01*
X15800Y21889D02*X15861Y21950D01*
X15800Y21889D02*Y21523D01*
X16068Y21706D02*X16251D01*
X16007Y21645D02*X16068Y21706D01*
X16007Y21645D02*Y21523D01*
X16068Y21462D01*
X16251D01*
X16398Y21950D02*X16459Y21889D01*
Y21523D01*
X16398Y21462D02*X16459Y21523D01*
X16825Y21889D02*X16886Y21950D01*
X17069D01*
X17130Y21889D01*
Y21767D01*
X16825Y21462D02*X17130Y21767D01*
X16825Y21462D02*X17130D01*
X17276Y21523D02*X17337Y21462D01*
X17276Y21889D02*Y21523D01*
Y21889D02*X17337Y21950D01*
X17459D01*
X17520Y21889D01*
Y21523D01*
X17459Y21462D02*X17520Y21523D01*
X17337Y21462D02*X17459D01*
X17276Y21584D02*X17520Y21828D01*
X17667Y21523D02*X17728Y21462D01*
X17667Y21889D02*Y21523D01*
Y21889D02*X17728Y21950D01*
X17850D01*
X17911Y21889D01*
Y21523D01*
X17850Y21462D02*X17911Y21523D01*
X17728Y21462D02*X17850D01*
X17667Y21584D02*X17911Y21828D01*
X18057Y21523D02*X18118Y21462D01*
X18057Y21645D02*Y21523D01*
Y21645D02*X18118Y21706D01*
X18240D01*
X18301Y21645D01*
Y21523D01*
X18240Y21462D02*X18301Y21523D01*
X18118Y21462D02*X18240D01*
X18057Y21767D02*X18118Y21706D01*
X18057Y21889D02*Y21767D01*
Y21889D02*X18118Y21950D01*
X18240D01*
X18301Y21889D01*
Y21767D01*
X18240Y21706D02*X18301Y21767D01*
X18667Y21706D02*X18850D01*
X18667Y21462D02*X18911D01*
X18667Y21950D02*Y21462D01*
Y21950D02*X18911D01*
X19119D02*Y21523D01*
X19180Y21462D01*
X19058Y21767D02*X19180D01*
X19363Y21950D02*Y21523D01*
X19424Y21462D01*
X19302Y21767D02*X19424D01*
X19546Y21706D02*Y21523D01*
X19607Y21462D01*
X19729D01*
X19790Y21523D01*
Y21706D02*Y21523D01*
X19998Y21462D02*X20181D01*
X20242Y21523D01*
X20181Y21584D02*X20242Y21523D01*
X19998Y21584D02*X20181D01*
X19937Y21645D02*X19998Y21584D01*
X19937Y21645D02*X19998Y21706D01*
X20181D01*
X20242Y21645D01*
X19937Y21523D02*X19998Y21462D01*
X20608Y21950D02*X20852D01*
X20913Y21889D01*
Y21767D01*
X20852Y21706D02*X20913Y21767D01*
X20669Y21706D02*X20852D01*
X20669Y21950D02*Y21462D01*
Y21706D02*X20913Y21462D01*
X21120D02*X21303D01*
X21059Y21523D02*X21120Y21462D01*
X21059Y21645D02*Y21523D01*
Y21645D02*X21120Y21706D01*
X21242D01*
X21303Y21645D01*
X21059Y21584D02*X21303D01*
Y21645D02*Y21584D01*
X21511Y21462D02*X21694D01*
X21755Y21523D01*
X21694Y21584D02*X21755Y21523D01*
X21511Y21584D02*X21694D01*
X21450Y21645D02*X21511Y21584D01*
X21450Y21645D02*X21511Y21706D01*
X21694D01*
X21755Y21645D01*
X21450Y21523D02*X21511Y21462D01*
X21962D02*X22145D01*
X21901Y21523D02*X21962Y21462D01*
X21901Y21645D02*Y21523D01*
Y21645D02*X21962Y21706D01*
X22084D01*
X22145Y21645D01*
X21901Y21584D02*X22145D01*
Y21645D02*Y21584D01*
X22475Y21706D02*X22536Y21645D01*
X22353Y21706D02*X22475D01*
X22292Y21645D02*X22353Y21706D01*
X22292Y21645D02*Y21523D01*
X22353Y21462D01*
X22536Y21706D02*Y21523D01*
X22597Y21462D01*
X22353D02*X22475D01*
X22536Y21523D01*
X22804Y21645D02*Y21462D01*
Y21645D02*X22865Y21706D01*
X22987D01*
X22743D02*X22804Y21645D01*
X23195Y21706D02*X23378D01*
X23134Y21645D02*X23195Y21706D01*
X23134Y21645D02*Y21523D01*
X23195Y21462D01*
X23378D01*
X23524Y21950D02*Y21462D01*
Y21645D02*X23585Y21706D01*
X23707D01*
X23768Y21645D01*
Y21462D01*
X24135Y21950D02*Y21462D01*
X24379D01*
X24525Y21950D02*Y21462D01*
X24769D01*
X24977D02*X25160D01*
X24916Y21523D02*X24977Y21462D01*
X24916Y21889D02*Y21523D01*
Y21889D02*X24977Y21950D01*
X25160D01*
X24300Y18900D02*X24350Y18850D01*
X24150Y18900D02*X24300D01*
X24100Y18850D02*X24150Y18900D01*
X24100Y18850D02*Y18750D01*
X24150Y18700D01*
X24300D01*
X24350Y18650D01*
Y18550D01*
X24300Y18500D02*X24350Y18550D01*
X24150Y18500D02*X24300D01*
X24100Y18550D02*X24150Y18500D01*
X24470Y18900D02*X24570D01*
X24520D02*Y18500D01*
X24470D02*X24570D01*
X24690Y18900D02*Y18500D01*
X24890D01*
X25010Y18900D02*Y18500D01*
Y18700D02*X25210Y18900D01*
X25010Y18700D02*X25210Y18500D01*
X19939Y12900D02*X20212D01*
X19939D02*X19900Y12939D01*
Y13056D02*Y12939D01*
Y13056D02*X19939Y13095D01*
X20212D01*
X20056D02*Y12900D01*
X19900Y13227D02*X20212D01*
X19900Y13344D02*X19939Y13383D01*
X20173D01*
X20212Y13344D02*X20173Y13383D01*
X20212Y13344D02*Y13188D01*
X19900Y13344D02*Y13188D01*
X20212Y13633D02*Y13516D01*
X20173Y13477D02*X20212Y13516D01*
X19939Y13477D02*X20173D01*
X19939D02*X19900Y13516D01*
Y13633D02*Y13516D01*
X20212Y13883D02*Y13727D01*
X19900Y14132D02*Y13976D01*
Y14132D02*X19939Y14171D01*
X20017D01*
X20056Y14132D02*X20017Y14171D01*
X20056Y14132D02*Y14015D01*
X19900D02*X20212D01*
X20056D02*X20212Y14171D01*
X20056Y14382D02*Y14265D01*
X20212Y14421D02*Y14265D01*
X19900D02*X20212D01*
X19900Y14421D02*Y14265D01*
Y14515D02*X20212D01*
X19900Y14671D02*Y14515D01*
X20056Y14632D02*Y14515D01*
X18300Y14661D02*X18339Y14700D01*
X18417D01*
X18456Y14661D01*
Y14427D01*
X18417Y14388D02*X18456Y14427D01*
X18339Y14388D02*X18417D01*
X18300Y14427D02*X18339Y14388D01*
Y14544D02*X18456D01*
X18549Y14388D02*X18588D01*
X18682Y14661D02*X18721Y14700D01*
X18799D01*
X18838Y14661D01*
Y14427D01*
X18799Y14388D02*X18838Y14427D01*
X18721Y14388D02*X18799D01*
X18682Y14427D02*X18721Y14388D01*
Y14544D02*X18838D01*
X18932Y14700D02*Y14466D01*
X19010Y14388D01*
X19088Y14466D01*
Y14700D02*Y14466D01*
X19181Y14661D02*Y14388D01*
Y14661D02*X19220Y14700D01*
X19337D01*
X19376Y14661D01*
Y14388D01*
X19181Y14544D02*X19376D01*
X15400Y15150D02*Y14950D01*
Y15150D02*X15450Y15200D01*
X15550D01*
X15600Y15150D02*X15550Y15200D01*
X15600Y15150D02*Y15000D01*
X15400D02*X15800D01*
X15600D02*X15800Y15200D01*
X15600Y15470D02*Y15320D01*
X15800Y15520D02*Y15320D01*
X15400D02*X15800D01*
X15400Y15520D02*Y15320D01*
Y15840D02*X15450Y15890D01*
X15400Y15840D02*Y15690D01*
X15450Y15640D02*X15400Y15690D01*
X15450Y15640D02*X15550D01*
X15600Y15690D01*
Y15840D02*Y15690D01*
Y15840D02*X15650Y15890D01*
X15750D01*
X15800Y15840D02*X15750Y15890D01*
X15800Y15840D02*Y15690D01*
X15750Y15640D02*X15800Y15690D01*
X15600Y16160D02*Y16010D01*
X15800Y16210D02*Y16010D01*
X15400D02*X15800D01*
X15400Y16210D02*Y16010D01*
Y16530D02*Y16330D01*
Y16430D02*X15800D01*
X22839Y13600D02*X23112D01*
X22839D02*X22800Y13639D01*
Y13756D02*Y13639D01*
Y13756D02*X22839Y13795D01*
X23112D01*
X22956D02*Y13600D01*
X22800Y14044D02*X22839Y14083D01*
X22800Y14044D02*Y13927D01*
X22839Y13888D02*X22800Y13927D01*
X22839Y13888D02*X23073D01*
X23112Y13927D01*
Y14044D02*Y13927D01*
Y14044D02*X23073Y14083D01*
X22995D02*X23073D01*
X22956Y14044D02*X22995Y14083D01*
X22956Y14044D02*Y13966D01*
X22800Y14177D02*X23112D01*
X22800D02*X22839D01*
X23034Y14372D01*
X22800D02*X23112D01*
X22800Y14505D02*X23112D01*
X22800Y14622D02*X22839Y14661D01*
X23073D01*
X23112Y14622D02*X23073Y14661D01*
X23112Y14622D02*Y14466D01*
X22800Y14622D02*Y14466D01*
X5250Y3000D02*X5350D01*
X5300Y3400D02*Y3000D01*
X5200Y3300D02*X5300Y3400D01*
X5470D02*X5670D01*
X5470D02*Y3200D01*
X5520Y3250D01*
X5620D01*
X5670Y3200D01*
Y3050D01*
X5620Y3000D02*X5670Y3050D01*
X5520Y3000D02*X5620D01*
X5470Y3050D02*X5520Y3000D01*
X6250Y200D02*X6350D01*
X6300Y600D02*Y200D01*
X6200Y500D02*X6300Y600D01*
X6470Y400D02*X6670Y600D01*
X6470Y400D02*X6720D01*
X6670Y600D02*Y200D01*
X7250D02*X7350D01*
X7300Y600D02*Y200D01*
X7200Y500D02*X7300Y600D01*
X7470Y550D02*X7520Y600D01*
X7670D01*
X7720Y550D01*
Y450D01*
X7470Y200D02*X7720Y450D01*
X7470Y200D02*X7720D01*
X8250D02*X8350D01*
X8300Y600D02*Y200D01*
X8200Y500D02*X8300Y600D01*
X8470Y250D02*X8520Y200D01*
X8470Y550D02*Y250D01*
Y550D02*X8520Y600D01*
X8620D01*
X8670Y550D01*
Y250D01*
X8620Y200D02*X8670Y250D01*
X8520Y200D02*X8620D01*
X8470Y300D02*X8670Y500D01*
X6250Y3000D02*X6350D01*
X6300Y3400D02*Y3000D01*
X6200Y3300D02*X6300Y3400D01*
X6470Y3350D02*X6520Y3400D01*
X6620D01*
X6670Y3350D01*
Y3050D01*
X6620Y3000D02*X6670Y3050D01*
X6520Y3000D02*X6620D01*
X6470Y3050D02*X6520Y3000D01*
Y3200D02*X6670D01*
X7350Y3000D02*X7450D01*
X7400Y3400D02*Y3000D01*
X7300Y3300D02*X7400Y3400D01*
X7620Y3000D02*X7720D01*
X7670Y3400D02*Y3000D01*
X7570Y3300D02*X7670Y3400D01*
X8300Y3000D02*X8500Y3200D01*
Y3350D02*Y3200D01*
X8450Y3400D02*X8500Y3350D01*
X8350Y3400D02*X8450D01*
X8300Y3350D02*X8350Y3400D01*
X8300Y3350D02*Y3250D01*
X8350Y3200D01*
X8500D01*
X18700Y3500D02*X18944D01*
X18822D02*Y3012D01*
X19090Y3500D02*Y3439D01*
X19395Y3134D01*
Y3012D01*
X19090Y3134D02*Y3012D01*
Y3134D02*X19395Y3439D01*
Y3500D02*Y3439D01*
X19542Y3012D02*X19786D01*
X19932D02*X20176D01*
X20237Y3073D01*
Y3195D02*Y3073D01*
X20176Y3256D02*X20237Y3195D01*
X19993Y3256D02*X20176D01*
X19993Y3500D02*Y3012D01*
X19932Y3500D02*X20176D01*
X20237Y3439D01*
Y3317D01*
X20176Y3256D02*X20237Y3317D01*
X24500Y3600D02*X24744D01*
X24622D02*Y3112D01*
X24890Y3600D02*Y3539D01*
X25195Y3234D01*
Y3112D01*
X24890Y3234D02*Y3112D01*
Y3234D02*X25195Y3539D01*
Y3600D02*Y3539D01*
X25342Y3112D02*X25586D01*
X25732Y3539D02*Y3112D01*
Y3539D02*X25793Y3600D01*
X25976D01*
X26037Y3539D01*
Y3112D01*
X25732Y3356D02*X26037D01*
X9400Y250D02*X9450Y200D01*
X9400Y350D02*Y250D01*
Y350D02*X9450Y400D01*
X9550D01*
X9600Y350D01*
Y250D01*
X9550Y200D02*X9600Y250D01*
X9450Y200D02*X9550D01*
X9400Y450D02*X9450Y400D01*
X9400Y550D02*Y450D01*
Y550D02*X9450Y600D01*
X9550D01*
X9600Y550D01*
Y450D01*
X9550Y400D02*X9600Y450D01*
X10550Y600D02*X10600Y550D01*
X10450Y600D02*X10550D01*
X10400Y550D02*X10450Y600D01*
X10400Y550D02*Y250D01*
X10450Y200D01*
X10550Y400D02*X10600Y350D01*
X10400Y400D02*X10550D01*
X10450Y200D02*X10550D01*
X10600Y250D01*
Y350D02*Y250D01*
X11400Y400D02*X11600Y600D01*
X11400Y400D02*X11650D01*
X11600Y600D02*Y200D01*
X12400Y550D02*X12450Y600D01*
X12600D01*
X12650Y550D01*
Y450D01*
X12400Y200D02*X12650Y450D01*
X12400Y200D02*X12650D01*
X13400Y250D02*X13450Y200D01*
X13400Y550D02*Y250D01*
Y550D02*X13450Y600D01*
X13550D01*
X13600Y550D01*
Y250D01*
X13550Y200D02*X13600Y250D01*
X13450Y200D02*X13550D01*
X13400Y300D02*X13600Y500D01*
X13300Y3050D02*X13700D01*
X13300Y3200D02*X13350Y3250D01*
X13650D01*
X13700Y3200D02*X13650Y3250D01*
X13700Y3200D02*Y3000D01*
X13300Y3200D02*Y3000D01*
Y3570D02*X13350Y3620D01*
X13300Y3570D02*Y3420D01*
X13350Y3370D02*X13300Y3420D01*
X13350Y3370D02*X13650D01*
X13700Y3420D01*
Y3570D02*Y3420D01*
Y3570D02*X13650Y3620D01*
X13550D02*X13650D01*
X13500Y3570D02*X13550Y3620D01*
X13500Y3570D02*Y3470D01*
X13300Y3740D02*X13700D01*
X13300D02*X13350D01*
X13600Y3990D01*
X13300D02*X13700D01*
X13300Y4160D02*X13700D01*
X13300Y4310D02*X13350Y4360D01*
X13650D01*
X13700Y4310D02*X13650Y4360D01*
X13700Y4310D02*Y4110D01*
X13300Y4310D02*Y4110D01*
X9200Y3000D02*X9450Y3250D01*
Y3400D02*Y3250D01*
X9200Y3400D02*X9450D01*
X10400D02*X10600D01*
X10400D02*Y3200D01*
X10450Y3250D01*
X10550D01*
X10600Y3200D01*
Y3050D01*
X10550Y3000D02*X10600Y3050D01*
X10450Y3000D02*X10550D01*
X10400Y3050D02*X10450Y3000D01*
X11400Y3350D02*X11450Y3400D01*
X11550D01*
X11600Y3350D01*
Y3050D01*
X11550Y3000D02*X11600Y3050D01*
X11450Y3000D02*X11550D01*
X11400Y3050D02*X11450Y3000D01*
Y3200D02*X11600D01*
X12450Y3000D02*X12550D01*
X12500Y3400D02*Y3000D01*
X12400Y3300D02*X12500Y3400D01*
X8000Y4400D02*Y4350D01*
Y4250D02*Y4100D01*
X8100Y4250D02*Y4150D01*
Y4250D02*X8150Y4300D01*
X8250D01*
X8300Y4250D01*
Y4150D01*
X8250Y4100D02*X8300Y4150D01*
X8150Y4100D02*X8250D01*
X8100Y4150D02*X8150Y4100D01*
X8420D02*X8620D01*
X8790Y4500D02*Y4150D01*
X8840Y4100D01*
X8740Y4350D02*X8840D01*
X8940Y4300D02*X9140Y4100D01*
X8940D02*X9140Y4300D01*
X9260Y4500D02*X9310D01*
X9260D02*Y4100D01*
X9310D01*
X9480D02*X9580D01*
X9530Y4500D02*Y4100D01*
X9430Y4400D02*X9530Y4500D01*
X9700D02*X9900D01*
X9700D02*Y4300D01*
X9750Y4350D01*
X9850D01*
X9900Y4300D01*
Y4150D01*
X9850Y4100D02*X9900Y4150D01*
X9750Y4100D02*X9850D01*
X9700Y4150D02*X9750Y4100D01*
X10020Y4350D02*X10070D01*
X10020Y4250D02*X10070D01*
X10190Y4150D02*X10240Y4100D01*
X10190Y4450D02*Y4150D01*
Y4450D02*X10240Y4500D01*
X10340D01*
X10390Y4450D01*
Y4150D01*
X10340Y4100D02*X10390Y4150D01*
X10240Y4100D02*X10340D01*
X10190Y4200D02*X10390Y4400D01*
X10511Y4500D02*X10561D01*
Y4100D01*
X10511D02*X10561D01*
X8911Y14212D02*X9094D01*
X8850Y14273D02*X8911Y14212D01*
X8850Y14639D02*Y14273D01*
Y14639D02*X8911Y14700D01*
X9094D01*
X9240D02*Y14212D01*
X9484D01*
X9631Y14700D02*Y14212D01*
Y14456D02*X9875Y14700D01*
X9631Y14456D02*X9875Y14212D01*
X10021Y14700D02*Y14212D01*
Y14700D02*Y14639D01*
X10326Y14334D01*
Y14700D02*Y14212D01*
X14050Y14650D02*X14100Y14600D01*
X13900Y14650D02*X14050D01*
X13850Y14600D02*X13900Y14650D01*
X13850Y14600D02*Y14500D01*
X13900Y14450D01*
X14050D01*
X14100Y14400D01*
Y14300D01*
X14050Y14250D02*X14100Y14300D01*
X13900Y14250D02*X14050D01*
X13850Y14300D02*X13900Y14250D01*
X14270Y14650D02*Y14250D01*
X14220Y14650D02*X14420D01*
X14470Y14600D01*
Y14500D01*
X14420Y14450D02*X14470Y14500D01*
X14270Y14450D02*X14420D01*
X14590Y14650D02*X14690D01*
X14640D02*Y14250D01*
X14590D02*X14690D01*
X12550Y11750D02*X12500Y11800D01*
Y11950D02*Y11800D01*
Y11950D02*X12550Y12000D01*
X12650D01*
X12900Y11750D02*X12650Y12000D01*
X12900D02*Y11750D01*
X12550Y12120D02*X12500Y12170D01*
Y12270D02*Y12170D01*
Y12270D02*X12550Y12320D01*
X12850D01*
X12900Y12270D02*X12850Y12320D01*
X12900Y12270D02*Y12170D01*
X12850Y12120D02*X12900Y12170D01*
X12700Y12320D02*Y12170D01*
X12550Y12440D02*X12500Y12490D01*
Y12640D02*Y12490D01*
Y12640D02*X12550Y12690D01*
X12650D01*
X12900Y12440D02*X12650Y12690D01*
X12900D02*Y12440D01*
X8550Y15150D02*X8500Y15200D01*
Y15300D02*Y15200D01*
Y15300D02*X8550Y15350D01*
X8850D01*
X8900Y15300D02*X8850Y15350D01*
X8900Y15300D02*Y15200D01*
X8850Y15150D02*X8900Y15200D01*
X8700Y15350D02*Y15200D01*
X8900Y15520D02*Y15470D01*
X8550Y15640D02*X8500Y15690D01*
Y15790D02*Y15690D01*
Y15790D02*X8550Y15840D01*
X8850D01*
X8900Y15790D02*X8850Y15840D01*
X8900Y15790D02*Y15690D01*
X8850Y15640D02*X8900Y15690D01*
X8700Y15840D02*Y15690D01*
X8500Y15960D02*X8800D01*
X8900Y16060D01*
X8800Y16160D01*
X8500D02*X8800D01*
X8500Y16330D02*X8900D01*
X8500Y16480D02*X8550Y16530D01*
X8850D01*
X8900Y16480D02*X8850Y16530D01*
X8900Y16480D02*Y16280D01*
X8500Y16480D02*Y16280D01*
X9450Y16050D02*X9500Y16100D01*
X9450Y16050D02*Y15950D01*
X9500Y15900D02*X9450Y15950D01*
X9500Y15900D02*X9800D01*
X9850Y15950D01*
X9650Y16050D02*X9700Y16100D01*
X9650Y16050D02*Y15900D01*
X9850Y16050D02*Y15950D01*
Y16050D02*X9800Y16100D01*
X9700D02*X9800D01*
X9450Y16220D02*X9750D01*
X9850Y16320D01*
X9750Y16420D01*
X9450D02*X9750D01*
X10350Y16000D02*X10700D01*
X10350D02*X10300Y16050D01*
Y16200D02*Y16050D01*
Y16200D02*X10350Y16250D01*
X10700D01*
X10500D02*Y16000D01*
X10650Y16370D02*X10700Y16420D01*
X10350Y16370D02*X10650D01*
X10350D02*X10300Y16420D01*
Y16520D02*Y16420D01*
Y16520D02*X10350Y16570D01*
X10650D01*
X10700Y16520D02*X10650Y16570D01*
X10700Y16520D02*Y16420D01*
X10600Y16370D02*X10400Y16570D01*
X11600Y16550D02*X11650Y16500D01*
X11450Y16550D02*X11600D01*
X11400Y16500D02*X11450Y16550D01*
X11400Y16500D02*Y16400D01*
X11450Y16350D01*
X11600D01*
X11650Y16300D01*
Y16200D01*
X11600Y16150D02*X11650Y16200D01*
X11450Y16150D02*X11600D01*
X11400Y16200D02*X11450Y16150D01*
X11820D02*X11970D01*
X11770Y16200D02*X11820Y16150D01*
X11770Y16500D02*Y16200D01*
Y16500D02*X11820Y16550D01*
X11970D01*
X12090D02*Y16150D01*
X12290D01*
X12500Y15750D02*Y15550D01*
Y15650D02*X12900D01*
X12500Y15870D02*X12550D01*
X12800Y16120D01*
X12900D01*
X12800Y15870D02*X12900D01*
X12800D02*X12550Y16120D01*
X12500D02*X12550D01*
X12500Y16290D02*X12900D01*
X12500Y16440D02*X12550Y16490D01*
X12850D01*
X12900Y16440D02*X12850Y16490D01*
X12900Y16440D02*Y16240D01*
X12500Y16440D02*Y16240D01*
X13450Y15700D02*X13500Y15750D01*
X13450Y15700D02*Y15550D01*
X13500Y15500D02*X13450Y15550D01*
X13500Y15500D02*X13600D01*
X13650Y15550D01*
Y15700D02*Y15550D01*
Y15700D02*X13700Y15750D01*
X13800D01*
X13850Y15700D02*X13800Y15750D01*
X13850Y15700D02*Y15550D01*
X13800Y15500D02*X13850Y15550D01*
X13450Y15920D02*X13850D01*
X13450Y16070D02*X13500Y16120D01*
X13800D01*
X13850Y16070D02*X13800Y16120D01*
X13850Y16070D02*Y15870D01*
X13450Y16070D02*Y15870D01*
X13500Y16240D02*X13800D01*
X13500D02*X13450Y16290D01*
Y16390D02*Y16290D01*
Y16390D02*X13500Y16440D01*
X13800D01*
X13850Y16390D02*X13800Y16440D01*
X13850Y16390D02*Y16290D01*
X13800Y16240D02*X13850Y16290D01*
X14450Y15700D02*X14500Y15750D01*
X14450Y15700D02*Y15550D01*
X14500Y15500D02*X14450Y15550D01*
X14500Y15500D02*X14600D01*
X14650Y15550D01*
Y15700D02*Y15550D01*
Y15700D02*X14700Y15750D01*
X14800D01*
X14850Y15700D02*X14800Y15750D01*
X14850Y15700D02*Y15550D01*
X14800Y15500D02*X14850Y15550D01*
X14450Y15920D02*X14850D01*
X14450Y16070D02*X14500Y16120D01*
X14800D01*
X14850Y16070D02*X14800Y16120D01*
X14850Y16070D02*Y15870D01*
X14450Y16070D02*Y15870D01*
Y16340D02*Y16240D01*
Y16290D02*X14850D01*
Y16340D02*Y16240D01*
X8961Y13112D02*X9144D01*
X8900Y13173D02*X8961Y13112D01*
X8900Y13539D02*Y13173D01*
Y13539D02*X8961Y13600D01*
X9144D01*
X9290D02*Y13112D01*
X9534D01*
X9681Y13600D02*Y13112D01*
Y13356D02*X9925Y13600D01*
X9681Y13356D02*X9925Y13112D01*
X10132Y13600D02*Y13112D01*
X10071Y13600D02*X10315D01*
X10376Y13539D01*
Y13417D01*
X10315Y13356D02*X10376Y13417D01*
X10132Y13356D02*X10315D01*
X2650Y16372D02*Y16333D01*
Y16255D02*Y16138D01*
X2728Y16255D02*Y16177D01*
Y16255D02*X2767Y16294D01*
X2845D01*
X2884Y16255D01*
Y16177D01*
X2845Y16138D02*X2884Y16177D01*
X2767Y16138D02*X2845D01*
X2728Y16177D02*X2767Y16138D01*
X2977D02*X3133D01*
X3266Y16450D02*Y16177D01*
X3305Y16138D01*
X3227Y16333D02*X3305D01*
X3383Y16294D02*X3539Y16138D01*
X3383D02*X3539Y16294D01*
X3633Y16450D02*X3672D01*
X3633D02*Y16138D01*
X3672D01*
X3765Y16411D02*X3804Y16450D01*
X3921D01*
X3960Y16411D01*
Y16333D01*
X3765Y16138D02*X3960Y16333D01*
X3765Y16138D02*X3960D01*
X4054Y16450D02*X4093D01*
Y16138D01*
X4054D02*X4093D01*
X2600Y17372D02*Y17333D01*
Y17255D02*Y17138D01*
X2678Y17255D02*Y17177D01*
Y17255D02*X2717Y17294D01*
X2795D01*
X2834Y17255D01*
Y17177D01*
X2795Y17138D02*X2834Y17177D01*
X2717Y17138D02*X2795D01*
X2678Y17177D02*X2717Y17138D01*
X2927D02*X3083D01*
X3216Y17450D02*Y17177D01*
X3255Y17138D01*
X3177Y17333D02*X3255D01*
X3333Y17294D02*X3489Y17138D01*
X3333D02*X3489Y17294D01*
X3583Y17450D02*X3622D01*
X3583D02*Y17138D01*
X3622D01*
X3754D02*X3832D01*
X3793Y17450D02*Y17138D01*
X3715Y17372D02*X3793Y17450D01*
X3926D02*X3965D01*
Y17138D01*
X3926D02*X3965D01*
X2600Y18322D02*Y18283D01*
Y18205D02*Y18088D01*
X2678Y18205D02*Y18127D01*
Y18205D02*X2717Y18244D01*
X2795D01*
X2834Y18205D01*
Y18127D01*
X2795Y18088D02*X2834Y18127D01*
X2717Y18088D02*X2795D01*
X2678Y18127D02*X2717Y18088D01*
X2927D02*X3083D01*
X3216Y18400D02*Y18127D01*
X3255Y18088D01*
X3177Y18283D02*X3255D01*
X3333Y18244D02*X3489Y18088D01*
X3333D02*X3489Y18244D01*
X3583Y18400D02*X3622D01*
X3583D02*Y18088D01*
X3622D01*
X3715Y18127D02*X3754Y18088D01*
X3715Y18361D02*Y18127D01*
Y18361D02*X3754Y18400D01*
X3832D01*
X3871Y18361D01*
Y18127D01*
X3832Y18088D02*X3871Y18127D01*
X3754Y18088D02*X3832D01*
X3715Y18166D02*X3871Y18322D01*
X3965Y18400D02*X4004D01*
Y18088D01*
X3965D02*X4004D01*
X2650Y14400D02*Y14350D01*
Y14250D02*Y14100D01*
X2750Y14250D02*Y14150D01*
Y14250D02*X2800Y14300D01*
X2900D01*
X2950Y14250D01*
Y14150D01*
X2900Y14100D02*X2950Y14150D01*
X2800Y14100D02*X2900D01*
X2750Y14150D02*X2800Y14100D01*
X3070D02*X3270D01*
X3440Y14500D02*Y14150D01*
X3490Y14100D01*
X3390Y14350D02*X3490D01*
X3590Y14300D02*X3790Y14100D01*
X3590D02*X3790Y14300D01*
X3910Y14500D02*X3960D01*
X3910D02*Y14100D01*
X3960D01*
X4080Y14300D02*X4280Y14500D01*
X4080Y14300D02*X4330D01*
X4280Y14500D02*Y14100D01*
X4450Y14500D02*X4500D01*
Y14100D01*
X4450D02*X4500D01*
X2600Y15400D02*Y15350D01*
Y15250D02*Y15100D01*
X2700Y15250D02*Y15150D01*
Y15250D02*X2750Y15300D01*
X2850D01*
X2900Y15250D01*
Y15150D01*
X2850Y15100D02*X2900Y15150D01*
X2750Y15100D02*X2850D01*
X2700Y15150D02*X2750Y15100D01*
X3020D02*X3220D01*
X3390Y15500D02*Y15150D01*
X3440Y15100D01*
X3340Y15350D02*X3440D01*
X3540Y15300D02*X3740Y15100D01*
X3540D02*X3740Y15300D01*
X3860Y15500D02*X3910D01*
X3860D02*Y15100D01*
X3910D01*
X4030Y15450D02*X4080Y15500D01*
X4180D01*
X4230Y15450D01*
Y15150D01*
X4180Y15100D02*X4230Y15150D01*
X4080Y15100D02*X4180D01*
X4030Y15150D02*X4080Y15100D01*
Y15300D02*X4230D01*
X4350Y15500D02*X4400D01*
Y15100D01*
X4350D02*X4400D01*
X550Y19050D02*X950D01*
X550Y19200D02*X600Y19250D01*
X900D01*
X950Y19200D02*X900Y19250D01*
X950Y19200D02*Y19000D01*
X550Y19200D02*Y19000D01*
Y19570D02*X600Y19620D01*
X550Y19570D02*Y19420D01*
X600Y19370D02*X550Y19420D01*
X600Y19370D02*X900D01*
X950Y19420D01*
Y19570D02*Y19420D01*
Y19570D02*X900Y19620D01*
X800D02*X900D01*
X750Y19570D02*X800Y19620D01*
X750Y19570D02*Y19470D01*
X550Y19740D02*X950D01*
X550D02*X600D01*
X850Y19990D01*
X550D02*X950D01*
X550Y20160D02*X950D01*
X550Y20310D02*X600Y20360D01*
X900D01*
X950Y20310D02*X900Y20360D01*
X950Y20310D02*Y20110D01*
X550Y20310D02*Y20110D01*
X8450Y19500D02*Y19100D01*
X8600Y19500D02*X8650Y19450D01*
Y19150D01*
X8600Y19100D02*X8650Y19150D01*
X8400Y19100D02*X8600D01*
X8400Y19500D02*X8600D01*
X8970D02*X9020Y19450D01*
X8820Y19500D02*X8970D01*
X8770Y19450D02*X8820Y19500D01*
X8770Y19450D02*Y19150D01*
X8820Y19100D01*
X8970D01*
X9020Y19150D01*
Y19250D02*Y19150D01*
X8970Y19300D02*X9020Y19250D01*
X8870Y19300D02*X8970D01*
X9140Y19500D02*Y19100D01*
Y19500D02*Y19450D01*
X9390Y19200D01*
Y19500D02*Y19100D01*
X9560Y19500D02*Y19100D01*
X9710Y19500D02*X9760Y19450D01*
Y19150D01*
X9710Y19100D02*X9760Y19150D01*
X9510Y19100D02*X9710D01*
X9510Y19500D02*X9710D01*
X14400Y19206D02*X14439Y19245D01*
X14400Y19206D02*Y19089D01*
X14439Y19050D02*X14400Y19089D01*
X14439Y19050D02*X14517D01*
X14556Y19089D01*
Y19206D02*Y19089D01*
Y19206D02*X14595Y19245D01*
X14673D01*
X14712Y19206D02*X14673Y19245D01*
X14712Y19206D02*Y19089D01*
X14673Y19050D02*X14712Y19089D01*
X14556Y19455D02*Y19338D01*
X14712Y19494D02*Y19338D01*
X14400D02*X14712D01*
X14400Y19494D02*Y19338D01*
Y19588D02*X14712D01*
X14400D02*X14439D01*
X14634Y19783D01*
X14400D02*X14712D01*
Y20033D02*Y19877D01*
X14400Y20282D02*Y20126D01*
Y20204D02*X14712D01*
X14400Y20376D02*X14439D01*
X14634Y20571D01*
X14712D01*
X14634Y20376D02*X14712D01*
X14634D02*X14439Y20571D01*
X14400D02*X14439D01*
X13500Y19256D02*X13539Y19295D01*
X13500Y19256D02*Y19139D01*
X13539Y19100D02*X13500Y19139D01*
X13539Y19100D02*X13617D01*
X13656Y19139D01*
Y19256D02*Y19139D01*
Y19256D02*X13695Y19295D01*
X13773D01*
X13812Y19256D02*X13773Y19295D01*
X13812Y19256D02*Y19139D01*
X13773Y19100D02*X13812Y19139D01*
Y19544D02*Y19427D01*
X13773Y19388D02*X13812Y19427D01*
X13539Y19388D02*X13773D01*
X13539D02*X13500Y19427D01*
Y19544D02*Y19427D01*
Y19638D02*X13812D01*
Y19794D02*Y19638D01*
X13500Y19888D02*X13812D01*
X13656D02*X13500Y20044D01*
X13656Y19888D02*X13812Y20044D01*
X12100Y19400D02*X12256D01*
X12295Y19361D01*
Y19283D01*
X12256Y19244D02*X12295Y19283D01*
X12139Y19244D02*X12256D01*
X12139Y19400D02*Y19088D01*
Y19244D02*X12295Y19088D01*
X12388Y19400D02*Y19361D01*
X12583Y19166D01*
Y19088D01*
X12388Y19166D02*Y19088D01*
Y19166D02*X12583Y19361D01*
Y19400D02*Y19361D01*
X12716Y19400D02*Y19088D01*
X12833Y19400D02*X12872Y19361D01*
Y19127D01*
X12833Y19088D02*X12872Y19127D01*
X12677Y19088D02*X12833D01*
X12677Y19400D02*X12833D01*
X10300Y19361D02*Y19088D01*
Y19361D02*X10339Y19400D01*
X10456D01*
X10495Y19361D01*
Y19088D01*
X10300Y19244D02*X10495D01*
X10627Y19088D02*X10705D01*
X10666Y19400D02*Y19088D01*
X10588Y19322D02*X10666Y19400D01*
X11156D02*X11195Y19361D01*
X11039Y19400D02*X11156D01*
X11000Y19361D02*X11039Y19400D01*
X11000Y19361D02*Y19283D01*
X11039Y19244D01*
X11156D01*
X11195Y19205D01*
Y19127D01*
X11156Y19088D02*X11195Y19127D01*
X11039Y19088D02*X11156D01*
X11000Y19127D02*X11039Y19088D01*
X11327Y19400D02*Y19088D01*
X11444Y19400D02*X11483Y19361D01*
Y19127D01*
X11444Y19088D02*X11483Y19127D01*
X11288Y19088D02*X11444D01*
X11288Y19400D02*X11444D01*
X11577Y19361D02*Y19088D01*
Y19361D02*X11616Y19400D01*
X11733D01*
X11772Y19361D01*
Y19088D01*
X11577Y19244D02*X11772D01*
G54D11*X15300Y600D02*Y3800D01*
X18500Y600D02*X15300D01*
X18500Y3800D02*Y600D01*
X15300Y3800D02*X18500D01*
X20380Y9100D02*Y7250D01*
Y6750D02*Y4900D01*
Y9100D02*X23220D01*
Y4900D01*
X20380D02*X23220D01*
X20380Y6750D02*G75*G03X20380Y7250I0J250D01*G01*
X21000Y600D02*Y3800D01*
X24200Y600D02*X21000D01*
X24200Y3800D02*Y600D01*
X21000Y3800D02*X24200D01*
X16880Y9100D02*Y7250D01*
Y6750D02*Y4900D01*
Y9100D02*X19720D01*
Y4900D01*
X16880D02*X19720D01*
X16880Y6750D02*G75*G03X16880Y7250I0J250D01*G01*
G54D20*X2400Y8700D02*Y700D01*
X400Y8700D02*X2400D01*
X400D02*Y700D01*
X2400D01*
G54D11*X1400Y1700D02*X2400D01*
X1400D02*Y700D01*
G54D20*X11700Y15850D02*Y11850D01*
X10700Y15850D02*X11700D01*
X10700D02*Y11850D01*
X11700D01*
G54D11*X10700Y12850D02*X11700D01*
X10700D02*Y11850D01*
X4000Y1800D02*X5000D01*
Y800D01*
G54D20*X4000Y2800D02*Y800D01*
Y2800D02*X14000D01*
Y800D01*
X4000D02*X14000D01*
X2400Y18800D02*Y10800D01*
X400Y18800D02*X2400D01*
X400D02*Y10800D01*
X2400D01*
G54D11*X1400Y11800D02*X2400D01*
X1400D02*Y10800D01*
X10310Y21500D02*Y19500D01*
X12830D01*
Y21500D02*Y19500D01*
X11320Y21500D02*X12830D01*
X10310D02*X11820D01*
X11320D02*G75*G03X11820Y21500I250J0D01*G01*
G54D20*X8100Y16850D02*X16100D01*
Y18850D02*Y16850D01*
X8100Y18850D02*X16100D01*
X8100D02*Y16850D01*
G54D11*X9100Y17850D02*Y16850D01*
X8100Y17850D02*X9100D01*
G54D20*X18400Y14900D02*X23400D01*
Y16900D02*Y14900D01*
X18400Y16900D02*X23400D01*
X18400D02*Y14900D01*
G54D11*X19400Y15900D02*Y14900D01*
X18400Y15900D02*X19400D01*
G54D12*X21730Y11820D02*Y10980D01*
Y11820D02*X22270D01*
Y10980D01*
X21730D02*X22270D01*
X18430Y11820D02*Y10980D01*
Y11820D02*X18970D01*
Y10980D01*
X18430D02*X18970D01*
X17730Y11820D02*Y10980D01*
Y11820D02*X18270D01*
Y10980D01*
X17730D02*X18270D01*
X19130Y11820D02*Y10980D01*
Y11820D02*X19670D01*
Y10980D01*
X19130D02*X19670D01*
X20330Y11820D02*Y10980D01*
Y11820D02*X20870D01*
Y10980D01*
X20330D02*X20870D01*
X21030Y11820D02*Y10980D01*
Y11820D02*X21570D01*
Y10980D01*
X21030D02*X21570D01*
X17030Y11820D02*Y10980D01*
Y11820D02*X17570D01*
Y10980D01*
X17030D02*X17570D01*
X22430Y11820D02*Y10980D01*
Y11820D02*X22970D01*
Y10980D01*
X22430D02*X22970D01*
X1800Y9400D02*X1950D01*
Y9050D01*
X1900Y9000D02*X1950Y9050D01*
X1850Y9000D02*X1900D01*
X1800Y9050D02*X1850Y9000D01*
X2070Y9400D02*X2270D01*
X2070D02*Y9200D01*
X2120Y9250D01*
X2220D01*
X2270Y9200D01*
Y9050D01*
X2220Y9000D02*X2270Y9050D01*
X2120Y9000D02*X2220D01*
X2070Y9050D02*X2120Y9000D01*
X2440D02*X2540D01*
X2490Y9400D02*Y9000D01*
X2390Y9300D02*X2490Y9400D01*
X9200Y12500D02*X9350D01*
Y12150D01*
X9300Y12100D02*X9350Y12150D01*
X9250Y12100D02*X9300D01*
X9200Y12150D02*X9250Y12100D01*
X9470Y12450D02*X9520Y12500D01*
X9620D01*
X9670Y12450D01*
Y12150D01*
X9620Y12100D02*X9670Y12150D01*
X9520Y12100D02*X9620D01*
X9470Y12150D02*X9520Y12100D01*
Y12300D02*X9670D01*
X9790Y12150D02*X9840Y12100D01*
X9790Y12250D02*Y12150D01*
Y12250D02*X9840Y12300D01*
X9940D01*
X9990Y12250D01*
Y12150D01*
X9940Y12100D02*X9990Y12150D01*
X9840Y12100D02*X9940D01*
X9790Y12350D02*X9840Y12300D01*
X9790Y12450D02*Y12350D01*
Y12450D02*X9840Y12500D01*
X9940D01*
X9990Y12450D01*
Y12350D01*
X9940Y12300D02*X9990Y12350D01*
X9000Y5100D02*X9150D01*
Y4750D01*
X9100Y4700D02*X9150Y4750D01*
X9050Y4700D02*X9100D01*
X9000Y4750D02*X9050Y4700D01*
X9270Y4900D02*X9470Y5100D01*
X9270Y4900D02*X9520D01*
X9470Y5100D02*Y4700D01*
X9640Y5100D02*X9840D01*
X9640D02*Y4900D01*
X9690Y4950D01*
X9790D01*
X9840Y4900D01*
Y4750D01*
X9790Y4700D02*X9840Y4750D01*
X9690Y4700D02*X9790D01*
X9640Y4750D02*X9690Y4700D01*
X1550Y19450D02*X1700D01*
Y19100D01*
X1650Y19050D02*X1700Y19100D01*
X1600Y19050D02*X1650D01*
X1550Y19100D02*X1600Y19050D01*
X1820Y19450D02*X2020D01*
X1820D02*Y19250D01*
X1870Y19300D01*
X1970D01*
X2020Y19250D01*
Y19100D01*
X1970Y19050D02*X2020Y19100D01*
X1870Y19050D02*X1970D01*
X1820Y19100D02*X1870Y19050D01*
X2140Y19100D02*X2190Y19050D01*
X2140Y19400D02*Y19100D01*
Y19400D02*X2190Y19450D01*
X2290D01*
X2340Y19400D01*
Y19100D01*
X2290Y19050D02*X2340Y19100D01*
X2190Y19050D02*X2290D01*
X2140Y19150D02*X2340Y19350D01*
X9200Y20450D02*Y20100D01*
X9250Y20050D01*
X9350D01*
X9400Y20100D01*
Y20450D02*Y20100D01*
X9520Y20450D02*X9720D01*
X9520D02*Y20250D01*
X9570Y20300D01*
X9670D01*
X9720Y20250D01*
Y20100D01*
X9670Y20050D02*X9720Y20100D01*
X9570Y20050D02*X9670D01*
X9520Y20100D02*X9570Y20050D01*
X9840Y20400D02*X9890Y20450D01*
X10040D01*
X10090Y20400D01*
Y20300D01*
X9840Y20050D02*X10090Y20300D01*
X9840Y20050D02*X10090D01*
X15300Y4500D02*X15450D01*
Y4150D01*
X15400Y4100D02*X15450Y4150D01*
X15350Y4100D02*X15400D01*
X15300Y4150D02*X15350Y4100D01*
X15570Y4300D02*X15770Y4500D01*
X15570Y4300D02*X15820D01*
X15770Y4500D02*Y4100D01*
X15940D02*X16140Y4300D01*
Y4450D02*Y4300D01*
X16090Y4500D02*X16140Y4450D01*
X15990Y4500D02*X16090D01*
X15940Y4450D02*X15990Y4500D01*
X15940Y4450D02*Y4350D01*
X15990Y4300D01*
X16140D01*
X20400Y4700D02*X20600D01*
X20500D02*Y4300D01*
X20720Y4700D02*X20920D01*
X20720D02*Y4500D01*
X20770Y4550D01*
X20870D01*
X20920Y4500D01*
Y4350D01*
X20870Y4300D02*X20920Y4350D01*
X20770Y4300D02*X20870D01*
X20720Y4350D02*X20770Y4300D01*
X21040Y4350D02*X21090Y4300D01*
X21040Y4650D02*Y4350D01*
Y4650D02*X21090Y4700D01*
X21190D01*
X21240Y4650D01*
Y4350D01*
X21190Y4300D02*X21240Y4350D01*
X21090Y4300D02*X21190D01*
X21040Y4400D02*X21240Y4600D01*
X23300Y4400D02*X23450D01*
Y4050D01*
X23400Y4000D02*X23450Y4050D01*
X23350Y4000D02*X23400D01*
X23300Y4050D02*X23350Y4000D01*
X23570Y4200D02*X23770Y4400D01*
X23570Y4200D02*X23820D01*
X23770Y4400D02*Y4000D01*
X23940Y4050D02*X23990Y4000D01*
X23940Y4150D02*Y4050D01*
Y4150D02*X23990Y4200D01*
X24090D01*
X24140Y4150D01*
Y4050D01*
X24090Y4000D02*X24140Y4050D01*
X23990Y4000D02*X24090D01*
X23940Y4250D02*X23990Y4200D01*
X23940Y4350D02*Y4250D01*
Y4350D02*X23990Y4400D01*
X24090D01*
X24140Y4350D01*
Y4250D01*
X24090Y4200D02*X24140Y4250D01*
X18700Y4700D02*X18900D01*
X18800D02*Y4300D01*
X19020Y4700D02*X19220D01*
X19020D02*Y4500D01*
X19070Y4550D01*
X19170D01*
X19220Y4500D01*
Y4350D01*
X19170Y4300D02*X19220Y4350D01*
X19070Y4300D02*X19170D01*
X19020Y4350D02*X19070Y4300D01*
X19390D02*X19490D01*
X19440Y4700D02*Y4300D01*
X19340Y4600D02*X19440Y4700D01*
X17200Y16600D02*X17350D01*
Y16250D01*
X17300Y16200D02*X17350Y16250D01*
X17250Y16200D02*X17300D01*
X17200Y16250D02*X17250Y16200D01*
X17470Y16400D02*X17670Y16600D01*
X17470Y16400D02*X17720D01*
X17670Y16600D02*Y16200D01*
X17840D02*X18090Y16450D01*
Y16600D02*Y16450D01*
X17840Y16600D02*X18090D01*
X16300Y17250D02*X16450D01*
Y16900D01*
X16400Y16850D02*X16450Y16900D01*
X16350Y16850D02*X16400D01*
X16300Y16900D02*X16350Y16850D01*
X16570Y17050D02*X16770Y17250D01*
X16570Y17050D02*X16820D01*
X16770Y17250D02*Y16850D01*
X17090Y17250D02*X17140Y17200D01*
X16990Y17250D02*X17090D01*
X16940Y17200D02*X16990Y17250D01*
X16940Y17200D02*Y16900D01*
X16990Y16850D01*
X17090Y17050D02*X17140Y17000D01*
X16940Y17050D02*X17090D01*
X16990Y16850D02*X17090D01*
X17140Y16900D01*
Y17000D02*Y16900D01*
X18600Y12900D02*Y12750D01*
X18550Y12700D02*X18600Y12750D01*
X18250Y12700D02*X18550D01*
X18250D02*X18200Y12750D01*
Y12900D02*Y12750D01*
X18400Y13020D02*X18200Y13220D01*
X18400Y13270D02*Y13020D01*
X18200Y13220D02*X18600D01*
X18250Y13390D02*X18200Y13440D01*
Y13540D02*Y13440D01*
Y13540D02*X18250Y13590D01*
X18550D01*
X18600Y13540D02*X18550Y13590D01*
X18600Y13540D02*Y13440D01*
X18550Y13390D02*X18600Y13440D01*
X18400Y13590D02*Y13440D01*
X17100Y13000D02*Y12800D01*
Y13000D02*X17150Y13050D01*
X17250D01*
X17300Y13000D02*X17250Y13050D01*
X17300Y13000D02*Y12850D01*
X17100D02*X17500D01*
X17300D02*X17500Y13050D01*
X17150Y13170D02*X17100Y13220D01*
Y13320D02*Y13220D01*
Y13320D02*X17150Y13370D01*
X17450D01*
X17500Y13320D02*X17450Y13370D01*
X17500Y13320D02*Y13220D01*
X17450Y13170D02*X17500Y13220D01*
X17300Y13370D02*Y13220D01*
X17100Y13690D02*Y13490D01*
X17300D01*
X17250Y13540D01*
Y13640D02*Y13540D01*
Y13640D02*X17300Y13690D01*
X17450D01*
X17500Y13640D02*X17450Y13690D01*
X17500Y13640D02*Y13540D01*
X17450Y13490D02*X17500Y13540D01*
X18100Y12200D02*Y12050D01*
X18050Y12000D02*X18100Y12050D01*
X17750Y12000D02*X18050D01*
X17750D02*X17700Y12050D01*
Y12200D02*Y12050D01*
X17900Y12320D02*X17700Y12520D01*
X17900Y12570D02*Y12320D01*
X17700Y12520D02*X18100D01*
X17750Y12690D02*X17700Y12740D01*
Y12890D02*Y12740D01*
Y12890D02*X17750Y12940D01*
X17850D01*
X18100Y12690D02*X17850Y12940D01*
X18100D02*Y12690D01*
X22300Y12200D02*Y12050D01*
X22250Y12000D02*X22300Y12050D01*
X21950Y12000D02*X22250D01*
X21950D02*X21900Y12050D01*
Y12200D02*Y12050D01*
X22100Y12320D02*X21900Y12520D01*
X22100Y12570D02*Y12320D01*
X21900Y12520D02*X22300D01*
Y12840D02*Y12740D01*
X21900Y12790D02*X22300D01*
X22000Y12690D02*X21900Y12790D01*
X19200Y12100D02*Y11900D01*
Y12100D02*X19250Y12150D01*
X19350D01*
X19400Y12100D02*X19350Y12150D01*
X19400Y12100D02*Y11950D01*
X19200D02*X19600D01*
X19400D02*X19600Y12150D01*
X19250Y12270D02*X19200Y12320D01*
Y12420D02*Y12320D01*
Y12420D02*X19250Y12470D01*
X19550D01*
X19600Y12420D02*X19550Y12470D01*
X19600Y12420D02*Y12320D01*
X19550Y12270D02*X19600Y12320D01*
X19400Y12470D02*Y12320D01*
X19600Y12590D02*X19350Y12840D01*
X19200D02*X19350D01*
X19200D02*Y12590D01*
X20400Y12200D02*Y12000D01*
Y12200D02*X20450Y12250D01*
X20550D01*
X20600Y12200D02*X20550Y12250D01*
X20600Y12200D02*Y12050D01*
X20400D02*X20800D01*
X20600D02*X20800Y12250D01*
X20450Y12370D02*X20400Y12420D01*
Y12520D02*Y12420D01*
Y12520D02*X20450Y12570D01*
X20750D01*
X20800Y12520D02*X20750Y12570D01*
X20800Y12520D02*Y12420D01*
X20750Y12370D02*X20800Y12420D01*
X20600Y12570D02*Y12420D01*
X20450Y12690D02*X20400Y12740D01*
Y12890D02*Y12740D01*
Y12890D02*X20450Y12940D01*
X20550D01*
X20800Y12690D02*X20550Y12940D01*
X20800D02*Y12690D01*
X21400Y12200D02*Y12050D01*
X21350Y12000D02*X21400Y12050D01*
X21050Y12000D02*X21350D01*
X21050D02*X21000Y12050D01*
Y12200D02*Y12050D01*
X21200Y12320D02*X21000Y12520D01*
X21200Y12570D02*Y12320D01*
X21000Y12520D02*X21400D01*
X21350Y12690D02*X21400Y12740D01*
X21050Y12690D02*X21350D01*
X21050D02*X21000Y12740D01*
Y12840D02*Y12740D01*
Y12840D02*X21050Y12890D01*
X21350D01*
X21400Y12840D02*X21350Y12890D01*
X21400Y12840D02*Y12740D01*
X21300Y12690D02*X21100Y12890D01*
X22500Y12200D02*Y12000D01*
Y12200D02*X22550Y12250D01*
X22650D01*
X22700Y12200D02*X22650Y12250D01*
X22700Y12200D02*Y12050D01*
X22500D02*X22900D01*
X22700D02*X22900Y12250D01*
X22550Y12370D02*X22500Y12420D01*
Y12520D02*Y12420D01*
Y12520D02*X22550Y12570D01*
X22850D01*
X22900Y12520D02*X22850Y12570D01*
X22900Y12520D02*Y12420D01*
X22850Y12370D02*X22900Y12420D01*
X22700Y12570D02*Y12420D01*
Y12690D02*X22500Y12890D01*
X22700Y12940D02*Y12690D01*
X22500Y12890D02*X22900D01*
M02*
