G04 start of page 2 for group 0 idx 0
G04 Title: TX Daughterboard, solder *
G04 Creator: pcb 20070208 *
G04 CreationDate: Mon Dec 24 21:52:14 2007 UTC *
G04 For: matt *
G04 Format: Gerber/RS-274X *
G04 PCB-Dimensions: 275000 250000 *
G04 PCB-Coordinate-Origin: lower left *
%MOIN*%
%FSLAX24Y24*%
%LNBACK*%
%ADD11C,0.0100*%
%ADD12C,0.0060*%
%ADD13C,0.0600*%
%ADD14R,0.0600X0.0600*%
%ADD15C,0.0900*%
%ADD16C,0.0400*%
%ADD17C,0.0240*%
%ADD18C,0.0560*%
%ADD19C,0.1280*%
%ADD20C,0.0200*%
G54D11*X15799Y9118D02*X15800Y7800D01*
X16199Y9118D02*X16200Y7900D01*
X15399Y9118D02*X15400Y7800D01*
X15404Y11481D02*X15400Y11485D01*
X13799Y9118D02*X13800Y7800D01*
X14199Y9118D02*X14200Y7800D01*
X14599Y9118D02*X14600Y7800D01*
X14999Y9318D02*X15000Y7800D01*
X14500Y6200D02*X16200Y7900D01*
X12000Y4400D02*X15400Y7800D01*
X12500Y4500D02*X15800Y7800D01*
X12200D02*X12199Y9218D01*
X13000Y7800D02*X12999Y9118D01*
X13399D02*X13400Y7800D01*
X9499Y11018D02*X9100Y11000D01*
X9900Y12000D02*X9899Y11518D01*
X9900Y11900D02*Y11950D01*
X9100Y11000D02*X9000Y11100D01*
Y9300D02*X9200D01*
X9499Y9218D02*Y11418D01*
X10299D02*X9899D01*
X11099D02*X10699D01*
X11700Y12050D02*X11450Y11800D01*
Y11250D01*
X10650Y12050D02*Y11400D01*
X13500Y1300D02*X13800D01*
X14500Y2000D01*
X12500D02*Y4500D01*
X14500Y2000D02*Y6200D01*
X11500Y4300D02*X15000Y7800D01*
X11000Y4200D02*X14600Y7800D01*
X10000Y4000D02*X13800Y7800D01*
X10500Y4100D02*X14200Y7800D01*
X10200Y7900D02*X10199Y9118D01*
X10300Y9200D01*
X10600Y7900D02*X10599Y9018D01*
X9500Y1300D02*X9000Y1800D01*
X10500Y1300D02*X10400D01*
X10000Y1700D01*
X9000Y1800D02*Y3800D01*
X9500Y2300D02*Y3900D01*
X12599Y9118D02*X12600Y7800D01*
X11800D02*X11799Y9118D01*
X11900Y9200D01*
X10599Y9018D02*X10700Y9100D01*
X11000Y7800D02*X10999Y9118D01*
X11400Y7800D02*X11399Y9118D01*
X11500Y9200D01*
X16599Y11318D02*X16600Y11900D01*
X16599Y11418D02*Y9118D01*
X16200Y12800D02*X16199Y11518D01*
X16600Y12800D02*Y11450D01*
X18600Y12200D02*Y11800D01*
X18599Y11418D02*X18600Y11900D01*
X18499Y10718D02*Y9918D01*
X17399Y11518D02*X17400Y11900D01*
X17799Y9318D02*Y10918D01*
X17800Y10800D01*
X17299Y9918D02*Y10918D01*
X17400Y11800D02*Y12400D01*
X19400Y15900D02*X19900Y16400D01*
X20500Y14800D02*X19900Y15400D01*
X21299Y11418D02*X21300Y12500D01*
X20899Y11518D02*X20900Y15400D01*
X20499Y11518D02*X20500Y14800D01*
X20099Y11518D02*X20100Y12900D01*
X21300Y12500D02*X21900Y13100D01*
Y15400D01*
X21700Y12300D02*X21699Y11518D01*
X17899D02*X17900Y14400D01*
X19299Y11418D02*X19300Y14600D01*
X19400Y14700D01*
Y15900D01*
X18900Y15400D02*X17900Y14400D01*
X18899Y11418D02*X18900Y12900D01*
X19699Y11418D02*X19700Y13600D01*
X17799Y11518D02*X18199D01*
X18899Y9218D02*X18900Y8400D01*
X17799Y9318D02*X18099D01*
X18900Y8400D02*X19300Y7600D01*
X18100D02*X18600D01*
X19100Y7100D01*
X19300Y7600D02*Y7900D01*
X19100Y7100D02*X19500D01*
X19700Y7300D01*
Y8600D01*
X19299Y9018D01*
X20800Y7600D02*X20799Y9018D01*
X21699Y9218D02*X21700Y7600D01*
X21310Y9118D02*X21300Y9108D01*
X20799Y9018D02*X20900Y9100D01*
X20499Y9118D02*X20500Y8900D01*
X20200Y8600D01*
X20100D01*
X19800Y8900D01*
X19799Y9018D01*
X19700Y9100D01*
X21300Y9108D02*Y7500D01*
X21700Y7100D01*
X22300D01*
X22750Y8050D02*Y8300D01*
X18400Y12400D02*X18600Y12200D01*
X16200Y13700D02*Y12650D01*
X16600Y15150D02*X16200Y14750D01*
Y13600D02*Y14750D01*
X9200Y9300D02*X9499Y9618D01*
X10000Y1700D02*Y4000D01*
X10500Y2300D02*Y4100D01*
X12000Y6400D03*
X9000Y3800D02*X13000Y7800D01*
X7500Y3500D02*X11800Y7800D01*
X8000Y3600D02*X12200Y7800D01*
X8500Y3700D02*X12600Y7800D01*
X13400D02*X9500Y3900D01*
X8500Y2300D02*Y3700D01*
X5500Y3200D02*X10200Y7900D01*
X6000Y3300D02*X10600Y7900D01*
X6500Y3300D02*X11000Y7800D01*
X7000Y3400D02*X11400Y7800D01*
X5500Y2300D02*Y3200D01*
X6500Y1300D02*X6400D01*
X5900Y1800D01*
X6000Y1700D02*Y3300D01*
X6500Y2300D02*Y3300D01*
X7000Y1800D02*Y3400D01*
X7500Y1300D02*X7000Y1800D01*
X11500Y1300D02*X11000Y1800D01*
X12500Y1300D02*X12000Y1800D01*
X8500Y1300D02*X8000Y1800D01*
X11000D02*Y4200D01*
X11500Y2300D02*Y4300D01*
X12000Y1800D02*Y4400D01*
X7500Y2300D02*Y3500D01*
X8000Y1800D02*Y3600D01*
X5900Y1800D02*X2700D01*
X2300Y2200D01*
X1900D01*
X15000Y13600D02*X14999Y11518D01*
X14600Y13300D02*X14599Y11518D01*
X15000Y14600D02*Y11500D01*
X15400Y14100D02*X15399Y11518D01*
X14200Y13400D02*X14199Y11518D01*
X13800Y13350D02*X13799Y11418D01*
X13800Y14350D02*Y12800D01*
X14600Y14300D02*Y13150D01*
X15800Y14850D02*Y11250D01*
X15400Y11485D02*Y15250D01*
X13800Y15300D02*Y14300D01*
X14200Y15300D02*Y13300D01*
X13100Y16450D02*X14200Y15350D01*
X9600Y16300D02*Y12200D01*
X9900Y11900D01*
X9600Y16000D02*Y17400D01*
X13000Y13150D02*Y15200D01*
X11600Y16050D02*X12200Y15450D01*
X15400Y19050D02*X14600Y18350D01*
Y17350D02*X14700D01*
X15200Y17850D01*
X15900D01*
X16300Y17450D01*
X15400Y19050D02*X15800D01*
X16300Y17450D02*Y15350D01*
X15800Y14850D01*
Y19050D02*X16600Y18250D01*
Y15150D01*
X15400Y16050D02*Y15100D01*
X15000Y15550D02*Y14550D01*
X14600Y15250D02*Y14250D01*
X13100Y17750D02*Y16450D01*
X12600Y17350D02*Y16500D01*
X13800Y15300D01*
X12600Y18250D02*X13100Y17750D01*
X12600Y18350D02*Y18250D01*
X13600Y18350D02*X14100Y17850D01*
Y16450D01*
X15000Y15550D01*
X14900Y16650D02*Y16550D01*
X15400Y16050D01*
X11600Y17350D02*Y16050D01*
Y18350D02*X12100Y17850D01*
Y16550D01*
X12600Y14100D02*X12599Y11618D01*
X12700Y11500D01*
X12999Y11518D02*X13000Y13200D01*
X13399Y11518D02*X13400Y12600D01*
X11200Y14350D02*X11900Y13650D01*
X11200Y13350D02*X11700Y12850D01*
X12200Y13500D02*X12199Y11418D01*
X12200Y12550D02*Y14400D01*
X11900Y13650D02*Y11450D01*
X12200Y15450D02*Y14250D01*
X12100Y16550D02*X12600Y16050D01*
Y13850D01*
X11700Y12850D02*Y12050D01*
X10450Y12250D02*X10650Y12050D01*
X13400Y13500D02*Y12550D01*
X13000Y15150D02*Y14150D01*
X13400Y14550D02*Y13250D01*
G54D12*X24200Y19800D02*X24250Y19850D01*
X24050Y19800D02*X24200D01*
X24000Y19850D02*X24050Y19800D01*
X24000Y19850D02*Y19950D01*
X24050Y20000D01*
X24200D01*
X24250Y20050D01*
Y20150D01*
X24200Y20200D02*X24250Y20150D01*
X24050Y20200D02*X24200D01*
X24000Y20150D02*X24050Y20200D01*
X24370Y19850D02*Y20150D01*
Y19850D02*X24420Y19800D01*
X24520D01*
X24570Y19850D01*
Y20150D01*
X24520Y20200D02*X24570Y20150D01*
X24420Y20200D02*X24520D01*
X24370Y20150D02*X24420Y20200D01*
X24690Y19800D02*Y20200D01*
X24890D01*
X25060Y19800D02*Y20200D01*
X25210Y19800D02*X25260Y19850D01*
Y20150D01*
X25210Y20200D02*X25260Y20150D01*
X25010Y20200D02*X25210D01*
X25010Y19800D02*X25210D01*
X25380Y20000D02*X25530D01*
X25380Y20200D02*X25580D01*
X25380Y19800D02*Y20200D01*
Y19800D02*X25580D01*
X25700D02*X25900D01*
X25950Y19850D01*
Y19950D01*
X25900Y20000D02*X25950Y19950D01*
X25750Y20000D02*X25900D01*
X25750Y19800D02*Y20200D01*
Y20000D02*X25950Y20200D01*
G54D13*X1900Y3200D03*
X900D03*
X1900Y4200D03*
X900D03*
G54D14*X1900Y1200D03*
G54D13*X900D03*
X1900Y2200D03*
X900D03*
X1900Y5200D03*
X900D03*
Y6200D03*
Y7200D03*
Y8200D03*
G54D14*X1900Y11300D03*
G54D13*Y12300D03*
Y13300D03*
Y14300D03*
Y15300D03*
Y16300D03*
X900Y11300D03*
Y12300D03*
Y13300D03*
Y14300D03*
Y15300D03*
Y16300D03*
X1900Y17300D03*
X900D03*
X1900Y18300D03*
X900D03*
X11200Y13350D03*
Y14350D03*
Y15350D03*
G54D14*X8600Y17350D03*
G54D13*Y18350D03*
X9600Y17350D03*
X10600D03*
X11600D03*
X9600Y18350D03*
X10600D03*
X11600D03*
X12600Y17350D03*
X13600D03*
X14600D03*
X15600D03*
X12600Y18350D03*
X13600D03*
X14600D03*
X15600D03*
X1900Y6200D03*
Y7200D03*
Y8200D03*
G54D14*X11200Y12350D03*
X18900Y15400D03*
G54D13*Y16400D03*
X19900Y15400D03*
Y16400D03*
X20900Y15400D03*
X21900D03*
X22900D03*
X20900Y16400D03*
X21900D03*
X22900D03*
G54D15*X16900Y2200D03*
X15900Y1200D03*
Y3200D03*
X17900Y1200D03*
X22600Y2200D03*
X21600Y1200D03*
X23600D03*
X17900Y3200D03*
X21600D03*
X23600D03*
G54D14*X4500Y1300D03*
G54D13*Y2300D03*
X5500Y1300D03*
Y2300D03*
X6500Y1300D03*
Y2300D03*
X7500Y1300D03*
Y2300D03*
X8500Y1300D03*
Y2300D03*
X9500Y1300D03*
X10500D03*
X11500D03*
X12500D03*
X13500D03*
X9500Y2300D03*
X10500D03*
X11500D03*
X12500D03*
X13500D03*
G54D16*X13200Y20750D03*
X11100Y21350D03*
X9000Y11100D03*
Y9300D03*
X10450Y12250D03*
X14900Y16650D03*
X14600Y15250D03*
X13000Y15150D03*
X13400Y14550D03*
X17400Y12400D03*
X18400D03*
X16600Y12800D03*
X18900Y12900D03*
X20100D03*
X19700Y13600D03*
X21700Y12300D03*
Y7600D03*
X19300Y7500D03*
X20800Y7600D03*
X18100D03*
X17800Y6600D03*
X22300Y7100D03*
X20100Y8400D03*
G54D17*X9499Y10028D02*Y9118D01*
X10286Y10028D02*Y9118D01*
X9893Y10028D02*Y9118D01*
X10680Y10028D02*Y9118D01*
X9499Y11481D02*Y10571D01*
X11074Y10028D02*Y9118D01*
X10286Y11481D02*Y10571D01*
X10680Y11481D02*Y10571D01*
X11074Y11481D02*Y10571D01*
X9893Y11481D02*Y10571D01*
X11467Y10028D02*Y9118D01*
X11861Y10028D02*Y9118D01*
X12255Y10028D02*Y9118D01*
X12648Y10028D02*Y9118D01*
X13042Y10028D02*Y9118D01*
X13436Y10028D02*Y9118D01*
X11467Y11481D02*Y10571D01*
X11861Y11481D02*Y10571D01*
X12255Y11481D02*Y10571D01*
X12648Y11481D02*Y10571D01*
X13042Y11481D02*Y10571D01*
X13436Y11481D02*Y10571D01*
X13830Y11481D02*Y10571D01*
X14223Y11481D02*Y10571D01*
X14617Y11481D02*Y10571D01*
X15011Y11481D02*Y10571D01*
X15404Y11481D02*Y10571D01*
X15798Y11481D02*Y10571D01*
X13830Y10028D02*Y9118D01*
X14223Y10028D02*Y9118D01*
X14617Y10028D02*Y9118D01*
X15011Y10028D02*Y9118D01*
X15404Y10028D02*Y9118D01*
X21704Y11481D02*Y10571D01*
X16192Y11481D02*Y10571D01*
X16585Y11481D02*Y10571D01*
X16979Y11481D02*Y10571D01*
X17373Y11481D02*Y10571D01*
X17767Y11481D02*Y10571D01*
X15798Y10028D02*Y9118D01*
X16192Y10028D02*Y9118D01*
X16585Y10028D02*Y9118D01*
X16979Y10028D02*Y9118D01*
X17373Y10028D02*Y9118D01*
X17767Y10028D02*Y9118D01*
X18160Y10028D02*Y9118D01*
X18554Y10028D02*Y9118D01*
X18948Y10028D02*Y9118D01*
X19341Y10028D02*Y9118D01*
X19735Y10028D02*Y9118D01*
X20129Y10028D02*Y9118D01*
X20522Y10028D02*Y9118D01*
X20916Y10028D02*Y9118D01*
X21310Y10028D02*Y9118D01*
X21704Y10028D02*Y9118D01*
X18160Y11481D02*Y10571D01*
X18554Y11481D02*Y10571D01*
X18948Y11481D02*Y10571D01*
X19341Y11481D02*Y10571D01*
X19735Y11481D02*Y10571D01*
X20916Y11481D02*Y10571D01*
X21310Y11481D02*Y10571D01*
X20129Y11481D02*Y10571D01*
X20522Y11481D02*Y10571D01*
G54D16*G54D18*G54D16*G54D13*G54D16*G54D19*G54D20*G54D19*G54D20*G54D19*G54D20*G54D19*G54D20*M02*
