M48
INCH,TZ
T13C0.060
T16C0.040
T20C0.020
%
T20
X013200Y020750
X011100Y021350
X009000Y011100
X009000Y009300
X010450Y012250
X014900Y016650
X014600Y015250
X013000Y015150
X013400Y014550
X017400Y012400
X018400Y012400
X016600Y012800
X018900Y012900
X020100Y012900
X019700Y013600
X021700Y012300
X021700Y007600
X019300Y007500
X020800Y007600
X018100Y007600
X017800Y006600
X022300Y007100
X020100Y008400
T16
X001900Y003200
X000900Y003200
X001900Y004200
X000900Y004200
X001900Y001200
X000900Y001200
X001900Y002200
X000900Y002200
X001900Y005200
X000900Y005200
X000900Y006200
X000900Y007200
X000900Y008200
X001900Y011300
X001900Y012300
X001900Y013300
X001900Y014300
X001900Y015300
X001900Y016300
X000900Y011300
X000900Y012300
X000900Y013300
X000900Y014300
X000900Y015300
X000900Y016300
X001900Y017300
X000900Y017300
X001900Y018300
X000900Y018300
X011200Y013350
X011200Y014350
X011200Y015350
X008600Y017350
X008600Y018350
X009600Y017350
X010600Y017350
X011600Y017350
X009600Y018350
X010600Y018350
X011600Y018350
X012600Y017350
X013600Y017350
X014600Y017350
X015600Y017350
X012600Y018350
X013600Y018350
X014600Y018350
X015600Y018350
X001900Y006200
X001900Y007200
X001900Y008200
X011200Y012350
X018900Y015400
X018900Y016400
X019900Y015400
X019900Y016400
X020900Y015400
X021900Y015400
X022900Y015400
X020900Y016400
X021900Y016400
X022900Y016400
X004500Y001300
X004500Y002300
X005500Y001300
X005500Y002300
X006500Y001300
X006500Y002300
X007500Y001300
X007500Y002300
X008500Y001300
X008500Y002300
X009500Y001300
X010500Y001300
X011500Y001300
X012500Y001300
X013500Y001300
X009500Y002300
X010500Y002300
X011500Y002300
X012500Y002300
X013500Y002300
T13
X016900Y002200
X015900Y001200
X015900Y003200
X017900Y001200
X022600Y002200
X021600Y001200
X023600Y001200
X017900Y003200
X021600Y003200
X023600Y003200
M30
